<?xml version="1.0" encoding="utf-8" standalone="no"?>
<!DOCTYPE svg PUBLIC "-//W3C//DTD SVG 1.1//EN"
  "http://www.w3.org/Graphics/SVG/1.1/DTD/svg11.dtd">
<!-- Created with matplotlib (https://matplotlib.org/) -->
<svg height="345.6pt" version="1.1" viewBox="0 0 460.8 345.6" width="460.8pt" xmlns="http://www.w3.org/2000/svg" xmlns:xlink="http://www.w3.org/1999/xlink">
 <defs>
  <style type="text/css">
*{stroke-linecap:butt;stroke-linejoin:round;}
  </style>
 </defs>
 <g id="figure_1">
  <g id="patch_1">
   <path d="M 0 345.6 
L 460.8 345.6 
L 460.8 0 
L 0 0 
z
" style="fill:#ffffff;"/>
  </g>
  <g id="axes_1">
   <g id="patch_2">
    <path d="M 57.6 307.584 
L 414.72 307.584 
L 414.72 41.472 
L 57.6 41.472 
z
" style="fill:#ffffff;"/>
   </g>
   <g id="patch_3">
    <path clip-path="url(#pc9ecb51be0)" d="M 73.832727 307.584 
L 73.832727 307.376566 
L 77.079277 307.376566 
L 77.079277 307.584 
L 80.325826 307.584 
L 80.325826 307.313708 
L 83.57236 307.313708 
L 83.57236 307.099988 
L 86.818909 307.099988 
L 86.818909 305.710811 
L 90.065458 305.710811 
L 90.065458 305.45309 
L 93.311992 305.45309 
L 93.311992 302.718737 
L 96.558542 302.718737 
L 96.558542 301.845001 
L 99.805091 301.845001 
L 99.805091 302.806739 
L 103.05164 302.806739 
L 103.05164 296.445438 
L 106.298182 296.445438 
L 106.298182 295.339125 
L 109.544723 295.339125 
L 109.544723 293.365362 
L 112.791273 293.365362 
L 112.791273 292.724204 
L 116.037822 292.724204 
L 116.037822 288.644674 
L 119.284364 288.644674 
L 119.284364 281.811933 
L 122.530905 281.811933 
L 122.530905 281.202203 
L 125.777455 281.202203 
L 125.777455 277.902122 
L 129.024004 277.902122 
L 129.024004 269.724206 
L 132.270545 269.724206 
L 132.270545 268.146455 
L 135.517087 268.146455 
L 135.517087 267.398434 
L 138.763636 267.398434 
L 138.763636 257.102175 
L 142.010186 257.102175 
L 142.010186 258.032487 
L 145.256727 258.032487 
L 145.256727 251.338036 
L 148.503269 251.338036 
L 148.503269 249.684851 
L 151.749818 249.684851 
L 151.749818 241.450359 
L 154.996367 241.450359 
L 154.996367 237.867422 
L 158.242909 237.867422 
L 158.242909 242.399531 
L 161.489451 242.399531 
L 161.489451 241.896655 
L 164.736 241.896655 
L 164.736 230.783239 
L 167.982545 230.783239 
L 167.982545 232.015272 
L 171.229091 232.015272 
L 171.229091 215.081148 
L 174.475636 215.081148 
L 174.475636 229.463198 
L 177.722182 229.463198 
L 177.722182 225.968269 
L 180.968727 225.968269 
L 180.968727 228.14318 
L 184.215273 228.14318 
L 184.215273 225.8174 
L 187.461818 225.8174 
L 187.461818 230.764378 
L 190.708364 230.764378 
L 190.708364 217.997781 
L 193.954909 217.997781 
L 193.954909 214.421123 
L 197.201455 214.421123 
L 197.201455 229.092344 
L 200.448 229.092344 
L 200.448 216.388592 
L 203.694545 216.388592 
L 203.694545 208.084965 
L 206.941091 208.084965 
L 206.941091 223.937924 
L 210.187636 223.937924 
L 210.187636 211.221614 
L 213.434182 211.221614 
L 213.434182 208.61926 
L 216.680727 208.61926 
L 216.680727 204.722028 
L 219.927273 204.722028 
L 219.927273 214.886279 
L 223.173818 214.886279 
L 223.173818 211.843917 
L 226.420364 211.843917 
L 226.420364 216.33832 
L 229.666909 216.33832 
L 229.666909 214.829706 
L 232.913455 214.829706 
L 232.913455 211.202753 
L 236.16 211.202753 
L 236.16 210.234721 
L 239.406545 210.234721 
L 239.406545 215.936018 
L 242.653091 215.936018 
L 242.653091 221.649873 
L 245.899636 221.649873 
L 245.899636 209.486704 
L 249.146182 209.486704 
L 249.146182 219.952684 
L 252.392727 219.952684 
L 252.392727 227.885458 
L 255.639273 227.885458 
L 255.639273 213.189083 
L 258.885818 213.189083 
L 258.885818 226.94258 
L 262.132364 226.94258 
L 262.132364 216.841182 
L 265.378909 216.841182 
L 265.378909 222.071029 
L 268.625455 222.071029 
L 268.625455 219.902405 
L 271.872 219.902405 
L 271.872 216.627461 
L 275.118545 216.627461 
L 275.118545 232.901584 
L 278.365091 232.901584 
L 278.365091 230.531797 
L 281.611636 230.531797 
L 281.611636 236.195373 
L 284.858182 236.195373 
L 284.858182 232.455281 
L 288.104727 232.455281 
L 288.104727 230.129509 
L 291.351273 230.129509 
L 291.351273 236.735963 
L 294.597818 236.735963 
L 294.597818 240.388047 
L 297.844367 240.388047 
L 297.844367 246.79964 
L 301.090909 246.79964 
L 301.090909 248.534543 
L 304.337451 248.534543 
L 304.337451 255.763292 
L 307.584 255.763292 
L 307.584 257.498187 
L 310.830549 257.498187 
L 310.830549 257.259322 
L 314.077091 257.259322 
L 314.077091 265.98411 
L 317.323633 265.98411 
L 317.323633 261.841722 
L 320.570182 261.841722 
L 320.570182 275.060909 
L 323.816731 275.060909 
L 323.816731 273.766019 
L 327.063273 273.766019 
L 327.063273 275.035766 
L 330.309814 275.035766 
L 330.309814 279.530164 
L 333.556364 279.530164 
L 333.556364 285.922892 
L 336.802913 285.922892 
L 336.802913 294.006522 
L 340.049455 294.006522 
L 340.049455 296.470581 
L 343.295996 296.470581 
L 343.295996 292.717918 
L 346.542545 292.717918 
L 346.542545 296.979736 
L 349.789095 296.979736 
L 349.789095 297.991761 
L 353.035636 297.991761 
L 353.035636 302.335299 
L 359.528727 302.417015 
L 359.528727 303.837622 
L 362.775277 303.837622 
L 362.775277 305.805099 
L 366.021826 305.805099 
L 366.021826 306.867411 
L 369.26836 306.867411 
L 369.26836 307.231991 
L 372.514909 307.231991 
L 372.514909 307.426853 
L 379.007992 307.426853 
L 379.007992 307.584 
L 395.240723 307.584 
L 395.240723 307.439425 
L 398.487273 307.439425 
L 398.487273 307.584 
L 398.487273 307.584 
" style="fill:none;stroke:#1f77b4;stroke-linejoin:miter;"/>
   </g>
   <g id="patch_4">
    <path clip-path="url(#pc9ecb51be0)" d="M 73.832727 307.584 
L 96.558542 307.584 
L 96.558542 307.169133 
L 99.805091 307.169133 
L 99.805091 305.289658 
L 103.05164 305.289658 
L 103.05164 306.741693 
L 106.298182 306.741693 
L 106.298182 304.893648 
L 109.544723 304.893648 
L 109.544723 302.580447 
L 112.791273 302.580447 
L 112.791273 301.668997 
L 116.037822 301.668997 
L 116.037822 299.24265 
L 119.284364 299.24265 
L 119.284364 298.306057 
L 122.530905 298.306057 
L 122.530905 292.730487 
L 125.777455 292.730487 
L 125.777455 292.227616 
L 129.024004 292.227616 
L 129.024004 289.285831 
L 132.270545 289.285831 
L 132.270545 277.418111 
L 135.517087 277.418111 
L 135.517087 270.956235 
L 138.763636 270.956235 
L 138.763636 271.24539 
L 142.010186 271.24539 
L 142.010186 266.285835 
L 145.256727 266.285835 
L 145.256727 251.570614 
L 148.503269 251.570614 
L 148.503269 248.1071 
L 151.749818 248.1071 
L 151.749818 237.603414 
L 154.996367 237.603414 
L 154.996367 213.698231 
L 158.242909 213.698231 
L 158.242909 217.004609 
L 161.489451 217.004609 
L 161.489451 205.451177 
L 164.736 205.451177 
L 164.736 204.231725 
L 167.982545 204.231725 
L 167.982545 183.167779 
L 171.229091 183.167779 
L 171.229091 174.172716 
L 174.475636 174.172716 
L 174.475636 156.477971 
L 177.722182 156.477971 
L 177.722182 157.898563 
L 180.968727 157.898563 
L 180.968727 136.853485 
L 184.215273 136.853485 
L 184.215273 135.72832 
L 187.461818 135.72832 
L 187.461818 117.191293 
L 190.708364 117.191293 
L 190.708364 107.309896 
L 193.954909 107.309896 
L 193.954909 104.581859 
L 197.201455 104.581859 
L 197.201455 106.618468 
L 200.448 106.618468 
L 200.448 114.859212 
L 203.694545 114.859212 
L 203.694545 102.180615 
L 206.941091 102.180615 
L 206.941091 81.782966 
L 210.187636 81.782966 
L 210.187636 92.217527 
L 213.434182 92.217527 
L 213.434182 54.144 
L 216.680727 54.144 
L 216.680727 70.84558 
L 219.927273 70.84558 
L 219.927273 75.666845 
L 223.173818 75.666845 
L 223.173818 82.292114 
L 226.420364 82.292114 
L 226.420364 60.266475 
L 229.666909 60.266475 
L 229.666909 77.345158 
L 232.913455 77.345158 
L 232.913455 69.406105 
L 236.16 69.406105 
L 236.16 79.136635 
L 239.406545 79.136635 
L 239.406545 69.311826 
L 242.653091 69.311826 
L 242.653091 77.263438 
L 245.899636 77.263438 
L 245.899636 85.428771 
L 249.146182 85.428771 
L 249.146182 101.388628 
L 252.392727 101.388628 
L 252.392727 83.530457 
L 255.639273 83.530457 
L 255.639273 110.088227 
L 258.885818 110.088227 
L 258.885818 111.307702 
L 262.132364 111.307702 
L 262.132364 136.891191 
L 265.378909 136.891191 
L 265.378909 128.876726 
L 271.872 128.952167 
L 271.872 130.888187 
L 275.118545 130.888187 
L 275.118545 164.184465 
L 278.365091 164.184465 
L 278.365091 158.652859 
L 281.611636 158.652859 
L 281.611636 183.526059 
L 284.858182 183.526059 
L 284.858182 188.347331 
L 288.104727 188.347331 
L 288.104727 202.867684 
L 291.351273 202.867684 
L 291.351273 214.615992 
L 294.597818 214.615992 
L 294.597818 217.614339 
L 297.844367 217.614339 
L 297.844367 223.026465 
L 301.090909 223.026465 
L 301.090909 232.291839 
L 304.337451 232.291839 
L 304.337451 254.449538 
L 307.584 254.449538 
L 307.584 249.093982 
L 310.830549 249.093982 
L 310.830549 267.536721 
L 314.077091 267.536721 
L 314.077091 268.322463 
L 317.323633 268.322463 
L 317.323633 278.555854 
L 320.570182 278.555854 
L 320.570182 284.055988 
L 323.816731 284.055988 
L 323.816731 291.617887 
L 327.063273 291.617887 
L 327.063273 299.952952 
L 330.309814 299.952952 
L 330.309814 297.652324 
L 333.556364 297.652324 
L 333.556364 299.280365 
L 336.802913 299.280365 
L 336.802913 303.598758 
L 340.049455 303.598758 
L 340.049455 302.442159 
L 343.295996 302.442159 
L 343.295996 302.184439 
L 346.542545 302.184439 
L 346.542545 303.592472 
L 349.789095 303.592472 
L 349.789095 305.55995 
L 353.035636 305.55995 
L 353.035636 306.785694 
L 356.282178 306.785694 
L 356.282178 307.062273 
L 359.528727 307.062273 
L 359.528727 307.584 
L 362.775277 307.584 
L 362.775277 306.873697 
L 366.021826 306.873697 
L 366.021826 307.319993 
L 369.26836 307.319993 
L 369.26836 307.584 
L 398.487273 307.584 
L 398.487273 307.584 
" style="fill:none;stroke:#ff7f0e;stroke-linejoin:miter;"/>
   </g>
   <g id="patch_5">
    <path clip-path="url(#pc9ecb51be0)" d="M 73.832727 307.584 
L 77.079277 307.584 
L 77.079277 307.464568 
L 83.57236 307.420567 
L 83.57236 307.150275 
L 90.065458 307.231991 
L 90.065458 305.673096 
L 93.311992 305.673096 
L 93.311992 305.214227 
L 96.558542 305.214227 
L 96.558542 305.591379 
L 99.805091 305.591379 
L 99.805091 304.390778 
L 103.05164 304.390778 
L 103.05164 301.304416 
L 112.791273 301.40499 
L 112.791273 294.848827 
L 116.037822 294.848827 
L 116.037822 289.600126 
L 119.284364 289.600126 
L 119.284364 290.37329 
L 122.530905 290.37329 
L 122.530905 287.161209 
L 125.777455 287.161209 
L 125.777455 288.217238 
L 129.024004 288.217238 
L 129.024004 285.426308 
L 132.270545 285.426308 
L 132.270545 280.259326 
L 135.517087 280.259326 
L 135.517087 279.989031 
L 138.763636 279.989031 
L 138.763636 268.592743 
L 142.010186 268.592743 
L 142.010186 260.967992 
L 145.256727 260.967992 
L 145.256727 263.784059 
L 148.503269 263.784059 
L 148.503269 256.963891 
L 151.749818 256.963891 
L 151.749818 248.716826 
L 154.996367 248.716826 
L 154.996367 244.77559 
L 158.242909 244.77559 
L 158.242909 247.560227 
L 161.489451 247.560227 
L 161.489451 240.042326 
L 164.736 240.042326 
L 164.736 237.119398 
L 167.982545 237.119398 
L 167.982545 230.8901 
L 171.229091 230.8901 
L 171.229091 236.113652 
L 174.475636 236.113652 
L 174.475636 227.514582 
L 177.722182 227.514582 
L 177.722182 220.461848 
L 180.968727 220.461848 
L 180.968727 216.828609 
L 184.215273 216.828609 
L 184.215273 208.57526 
L 187.461818 208.57526 
L 187.461818 217.010903 
L 190.708364 217.010903 
L 190.708364 207.487808 
L 193.954909 207.487808 
L 193.954909 208.518694 
L 197.201455 208.518694 
L 197.201455 206.626637 
L 200.448 206.626637 
L 200.448 208.260965 
L 203.694545 208.260965 
L 203.694545 206.790078 
L 206.941091 206.790078 
L 206.941091 202.427683 
L 210.187636 202.427683 
L 210.187636 182.212328 
L 213.434182 182.212328 
L 213.434182 199.448181 
L 216.680727 199.448181 
L 216.680727 193.489178 
L 219.927273 193.489178 
L 219.927273 182.180886 
L 223.173818 182.180886 
L 223.173818 179.383672 
L 226.420364 179.383672 
L 226.420364 194.658343 
L 229.666909 194.658343 
L 229.666909 193.960621 
L 232.913455 193.960621 
L 232.913455 187.454733 
L 236.16 187.454733 
L 236.16 194.815491 
L 239.406545 194.815491 
L 239.406545 191.389686 
L 242.653091 191.389686 
L 242.653091 188.353618 
L 245.899636 188.353618 
L 245.899636 195.959524 
L 249.146182 195.959524 
L 249.146182 209.27299 
L 252.392727 209.27299 
L 252.392727 203.081405 
L 255.639273 203.081405 
L 255.639273 212.29022 
L 258.885818 212.29022 
L 258.885818 204.546005 
L 262.132364 204.546005 
L 262.132364 210.64959 
L 265.378909 210.64959 
L 265.378909 217.375478 
L 268.625455 217.375478 
L 268.625455 214.301689 
L 271.872 214.301689 
L 271.872 212.969075 
L 275.118545 212.969075 
L 275.118545 226.496285 
L 278.365091 226.496285 
L 278.365091 227.797443 
L 281.611636 227.797443 
L 281.611636 237.370832 
L 284.858182 237.370832 
L 284.858182 234.636471 
L 288.104727 234.636471 
L 288.104727 239.621177 
L 291.351273 239.621177 
L 291.351273 240.174326 
L 294.597818 240.174326 
L 294.597818 249.332846 
L 297.844367 249.332846 
L 297.844367 255.310706 
L 301.090909 255.310706 
L 301.090909 259.547385 
L 304.337451 259.547385 
L 304.337451 254.675837 
L 307.584 254.675837 
L 307.584 262.269165 
L 310.830549 262.269165 
L 310.830549 265.682385 
L 314.077091 265.682385 
L 314.077091 278.455278 
L 317.323633 278.455278 
L 317.323633 276.468943 
L 320.570182 276.468943 
L 320.570182 283.653693 
L 323.816731 283.653693 
L 323.816731 283.24511 
L 327.063273 283.24511 
L 327.063273 287.789797 
L 330.309814 287.789797 
L 330.309814 290.920159 
L 333.556364 290.920159 
L 333.556364 292.347052 
L 336.802913 292.347052 
L 336.802913 297.099168 
L 343.295996 297.067739 
L 343.295996 301.933003 
L 346.542545 301.933003 
L 346.542545 300.914692 
L 349.789095 300.914692 
L 349.789095 305.396517 
L 353.035636 305.396517 
L 353.035636 304.679928 
L 356.282178 304.679928 
L 356.282178 306.113107 
L 359.528727 306.113107 
L 359.528727 306.370827 
L 362.775277 306.370827 
L 362.775277 307.363995 
L 369.26836 307.345137 
L 369.26836 307.584 
L 375.761458 307.584 
L 375.761458 307.351423 
L 379.007992 307.351423 
L 379.007992 307.584 
L 398.487273 307.584 
L 398.487273 307.584 
" style="fill:none;stroke:#2ca02c;stroke-linejoin:miter;"/>
   </g>
   <g id="patch_6">
    <path clip-path="url(#pc9ecb51be0)" d="M 73.832727 307.584 
L 90.065458 307.584 
L 90.065458 306.307969 
L 93.311992 306.307969 
L 93.311992 305.553664 
L 96.558542 305.553664 
L 96.558542 306.471401 
L 99.805091 306.471401 
L 99.805091 305.321087 
L 103.05164 305.321087 
L 103.05164 304.679928 
L 106.298182 304.679928 
L 106.298182 301.304416 
L 109.544723 301.304416 
L 109.544723 300.71983 
L 112.791273 300.71983 
L 112.791273 301.254129 
L 116.037822 301.254129 
L 116.037822 299.066647 
L 119.284364 299.066647 
L 119.284364 293.333933 
L 122.530905 293.333933 
L 122.530905 291.291026 
L 125.777455 291.291026 
L 125.777455 287.406355 
L 129.024004 287.406355 
L 129.024004 287.035491 
L 132.270545 287.035491 
L 132.270545 279.58045 
L 135.517087 279.58045 
L 135.517087 280.542189 
L 138.763636 280.542189 
L 138.763636 266.486983 
L 142.010186 266.486983 
L 142.010186 274.294036 
L 145.256727 274.294036 
L 145.256727 266.725844 
L 148.503269 266.725844 
L 148.503269 258.302778 
L 151.749818 258.302778 
L 151.749818 250.87288 
L 154.996367 250.87288 
L 154.996367 250.093433 
L 158.242909 250.093433 
L 158.242909 246.661349 
L 161.489451 246.661349 
L 161.489451 244.297861 
L 164.736 244.297861 
L 164.736 232.348428 
L 167.982545 232.348428 
L 167.982545 232.21642 
L 171.229091 232.21642 
L 171.229091 209.373564 
L 174.475636 209.373564 
L 174.475636 216.401174 
L 180.968727 216.376026 
L 180.968727 213.949681 
L 184.215273 213.949681 
L 184.215273 204.414012 
L 187.461818 204.414012 
L 187.461818 208.047244 
L 190.708364 208.047244 
L 190.708364 205.338037 
L 193.954909 205.338037 
L 193.954909 204.728315 
L 197.201455 204.728315 
L 197.201455 181.810047 
L 200.448 181.810047 
L 200.448 190.157668 
L 203.694545 190.157668 
L 203.694545 190.761111 
L 206.941091 190.761111 
L 206.941091 193.891466 
L 210.187636 193.891466 
L 210.187636 184.456386 
L 213.434182 184.456386 
L 213.434182 179.283113 
L 216.680727 179.283113 
L 216.680727 188.278184 
L 219.927273 188.278184 
L 219.927273 184.619813 
L 223.173818 184.619813 
L 223.173818 181.181442 
L 226.420364 181.181442 
L 226.420364 176.592752 
L 229.666909 176.592752 
L 229.666909 184.418665 
L 232.913455 184.418665 
L 232.913455 180.515146 
L 236.16 180.515146 
L 236.16 172.305783 
L 239.406545 172.305783 
L 239.406545 189.133054 
L 242.653091 189.133054 
L 242.653091 192.458292 
L 245.899636 192.458292 
L 245.899636 180.728853 
L 249.146182 180.728853 
L 249.146182 186.1787 
L 252.392727 186.1787 
L 252.392727 197.298417 
L 255.639273 197.298417 
L 255.639273 203.483701 
L 258.885818 203.483701 
L 258.885818 194.501203 
L 262.132364 194.501203 
L 262.132364 209.285564 
L 265.378909 209.285564 
L 265.378909 205.369479 
L 268.625455 205.369479 
L 268.625455 214.395976 
L 271.872 214.395976 
L 271.872 213.95596 
L 275.118545 213.95596 
L 275.118545 219.72011 
L 278.365091 219.72011 
L 278.365091 226.571712 
L 281.611636 226.571712 
L 281.611636 223.177334 
L 284.858182 223.177334 
L 284.858182 230.066648 
L 288.104727 230.066648 
L 288.104727 241.513227 
L 291.351273 241.513227 
L 291.351273 243.222975 
L 294.597818 243.222975 
L 294.597818 249.615711 
L 297.844367 249.615711 
L 297.844367 253.230079 
L 301.090909 253.230079 
L 301.090909 256.70617 
L 304.337451 256.70617 
L 304.337451 269.145906 
L 307.584 269.145906 
L 307.584 262.055447 
L 310.830549 262.055447 
L 310.830549 269.981927 
L 314.077091 269.981927 
L 314.077091 271.540821 
L 317.323633 271.540821 
L 317.323633 278.436423 
L 320.570182 278.436423 
L 320.570182 285.319449 
L 323.816731 285.319449 
L 323.816731 284.081133 
L 327.063273 284.081133 
L 327.063273 290.580723 
L 330.309814 290.580723 
L 330.309814 289.147544 
L 333.556364 289.147544 
L 333.556364 297.696326 
L 336.802913 297.696326 
L 336.802913 297.859759 
L 340.049455 297.859759 
L 340.049455 299.236365 
L 343.295996 299.236365 
L 343.295996 303.498185 
L 349.789095 303.592473 
L 349.789095 305.239371 
L 353.035636 305.239371 
L 353.035636 306.226252 
L 356.282178 306.226252 
L 356.282178 305.321087 
L 359.528727 305.321087 
L 359.528727 307.169133 
L 362.775277 307.169133 
L 362.775277 306.521688 
L 366.021826 306.521688 
L 366.021826 306.810838 
L 369.26836 306.810838 
L 369.26836 307.332565 
L 372.514909 307.332565 
L 372.514909 307.584 
L 398.487273 307.584 
L 398.487273 307.584 
" style="fill:none;stroke:#d62728;stroke-linejoin:miter;"/>
   </g>
   <g id="patch_7">
    <path clip-path="url(#pc9ecb51be0)" d="M 73.832727 307.584 
L 83.57236 307.584 
L 83.57236 306.936555 
L 86.818909 306.936555 
L 86.818909 307.263421 
L 90.065458 307.263421 
L 90.065458 307.584 
L 93.311992 307.584 
L 93.311992 306.358255 
L 96.558542 306.358255 
L 96.558542 305.233085 
L 103.05164 305.2708 
L 103.05164 303.655331 
L 106.298182 303.655331 
L 106.298182 301.612423 
L 109.544723 301.612423 
L 109.544723 302.888456 
L 112.791273 302.888456 
L 112.791273 296.546011 
L 116.037822 296.546011 
L 116.037822 297.1746 
L 119.284364 297.1746 
L 119.284364 295.232264 
L 122.530905 295.232264 
L 122.530905 291.498455 
L 125.777455 291.498455 
L 125.777455 286.626909 
L 129.024004 286.626909 
L 129.024004 284.401709 
L 132.270545 284.401709 
L 132.270545 275.255778 
L 135.517087 275.255778 
L 135.517087 267.788156 
L 138.763636 267.788156 
L 138.763636 271.075666 
L 142.010186 271.075666 
L 142.010186 263.375473 
L 145.256727 263.375473 
L 145.256727 242.311531 
L 148.503269 242.311531 
L 148.503269 240.802916 
L 151.749818 240.802916 
L 151.749818 226.860859 
L 154.996367 226.860859 
L 154.996367 219.550396 
L 158.242909 219.550396 
L 158.242909 223.730497 
L 161.489451 223.730497 
L 161.489451 211.171327 
L 164.736 211.171327 
L 164.736 213.050803 
L 167.982545 213.050803 
L 167.982545 191.76057 
L 171.229091 191.76057 
L 171.229091 165.246762 
L 174.475636 165.246762 
L 174.475636 167.46568 
L 177.722182 167.46568 
L 177.722182 141.259881 
L 180.968727 141.259881 
L 180.968727 153.775051 
L 184.215273 153.775051 
L 184.215273 143.516505 
L 187.461818 143.516505 
L 187.461818 145.722865 
L 190.708364 145.722865 
L 190.708364 130.077332 
L 193.954909 130.077332 
L 193.954909 120.554215 
L 197.201455 120.554215 
L 197.201455 122.471412 
L 200.448 122.471412 
L 200.448 115.450082 
L 203.694545 115.450082 
L 203.694545 112.35747 
L 206.941091 112.35747 
L 206.941091 102.601779 
L 210.187636 102.601779 
L 210.187636 98.541105 
L 213.434182 98.541105 
L 213.434182 100.653185 
L 216.680727 100.653185 
L 216.680727 87.980867 
L 219.927273 87.980867 
L 219.927273 98.094839 
L 223.173818 98.094839 
L 223.173818 92.098085 
L 226.420364 92.098085 
L 226.420364 88.810575 
L 229.666909 88.810575 
L 229.666909 97.107954 
L 232.913455 97.107954 
L 232.913455 71.637612 
L 236.16 71.637612 
L 236.16 103.488105 
L 239.406545 103.488105 
L 239.406545 92.267791 
L 242.653091 92.267791 
L 242.653091 88.999149 
L 245.899636 88.999149 
L 245.899636 116.103849 
L 249.146182 116.103849 
L 249.146182 112.093455 
L 252.392727 112.093455 
L 252.392727 115.707833 
L 255.639273 115.707833 
L 255.639273 132.623105 
L 258.885818 132.623105 
L 258.885818 135.036877 
L 262.132364 135.036877 
L 262.132364 138.43124 
L 265.378909 138.43124 
L 265.378909 155.918528 
L 268.625455 155.918528 
L 268.625455 146.948604 
L 271.872 146.948604 
L 271.872 149.695524 
L 275.118545 149.695524 
L 275.118545 175.84475 
L 278.365091 175.84475 
L 278.365091 176.580193 
L 281.611636 176.580193 
L 281.611636 179.459114 
L 284.858182 179.459114 
L 284.858182 201.233363 
L 288.104727 201.233363 
L 288.104727 190.937111 
L 291.351273 190.937111 
L 291.351273 214.32055 
L 294.597818 214.32055 
L 294.597818 230.519238 
L 297.844367 230.519238 
L 297.844367 210.379302 
L 301.090909 210.379302 
L 301.090909 231.374116 
L 304.337451 231.374116 
L 304.337451 235.491356 
L 307.584 235.491356 
L 307.584 259.471954 
L 314.077091 259.434233 
L 314.077091 264.70808 
L 317.323633 264.70808 
L 317.323633 266.424126 
L 320.570182 266.424126 
L 320.570182 278.593565 
L 323.816731 278.593565 
L 323.816731 288.776677 
L 327.063273 288.776677 
L 327.063273 283.961701 
L 330.309814 283.961701 
L 330.309814 296.036855 
L 333.556364 296.036855 
L 333.556364 296.671731 
L 336.802913 296.671731 
L 336.802913 300.116386 
L 340.049455 300.116386 
L 340.049455 299.890094 
L 343.295996 299.890094 
L 343.295996 304.089056 
L 346.542545 304.089056 
L 346.542545 303.341038 
L 349.789095 303.341038 
L 349.789095 305.55995 
L 356.282178 305.566236 
L 356.282178 306.685121 
L 359.528727 306.685121 
L 359.528727 305.754812 
L 362.775277 305.754812 
L 362.775277 307.137703 
L 366.021826 307.137703 
L 366.021826 307.584 
L 398.487273 307.584 
L 398.487273 307.584 
" style="fill:none;stroke:#9467bd;stroke-linejoin:miter;"/>
   </g>
   <g id="patch_8">
    <path clip-path="url(#pc9ecb51be0)" d="M 73.832727 307.584 
L 398.487273 307.584 
L 398.487273 307.584 
" style="fill:none;stroke:#000000;stroke-linejoin:miter;"/>
   </g>
   <g id="matplotlib.axis_1">
    <g id="xtick_1">
     <g id="line2d_1">
      <defs>
       <path d="M 0 0 
L 0 3.5 
" id="m0a0f5089ce" style="stroke:#000000;stroke-width:0.8;"/>
      </defs>
      <g>
       <use style="stroke:#000000;stroke-width:0.8;" x="97.940214" xlink:href="#m0a0f5089ce" y="307.584"/>
      </g>
     </g>
     <g id="text_1">
      <!-- −2 -->
      <defs>
       <path d="M 10.59375 35.5 
L 73.1875 35.5 
L 73.1875 27.203125 
L 10.59375 27.203125 
z
" id="DejaVuSans-8722"/>
       <path d="M 19.1875 8.296875 
L 53.609375 8.296875 
L 53.609375 0 
L 7.328125 0 
L 7.328125 8.296875 
Q 12.9375 14.109375 22.625 23.890625 
Q 32.328125 33.6875 34.8125 36.53125 
Q 39.546875 41.84375 41.421875 45.53125 
Q 43.3125 49.21875 43.3125 52.78125 
Q 43.3125 58.59375 39.234375 62.25 
Q 35.15625 65.921875 28.609375 65.921875 
Q 23.96875 65.921875 18.8125 64.3125 
Q 13.671875 62.703125 7.8125 59.421875 
L 7.8125 69.390625 
Q 13.765625 71.78125 18.9375 73 
Q 24.125 74.21875 28.421875 74.21875 
Q 39.75 74.21875 46.484375 68.546875 
Q 53.21875 62.890625 53.21875 53.421875 
Q 53.21875 48.921875 51.53125 44.890625 
Q 49.859375 40.875 45.40625 35.40625 
Q 44.1875 33.984375 37.640625 27.21875 
Q 31.109375 20.453125 19.1875 8.296875 
z
" id="DejaVuSans-50"/>
      </defs>
      <g transform="translate(90.56912 322.182437)scale(0.1 -0.1)">
       <use xlink:href="#DejaVuSans-8722"/>
       <use x="83.789062" xlink:href="#DejaVuSans-50"/>
      </g>
     </g>
    </g>
    <g id="xtick_2">
     <g id="line2d_2">
      <g>
       <use style="stroke:#000000;stroke-width:0.8;" x="162.499388" xlink:href="#m0a0f5089ce" y="307.584"/>
      </g>
     </g>
     <g id="text_2">
      <!-- −1 -->
      <defs>
       <path d="M 12.40625 8.296875 
L 28.515625 8.296875 
L 28.515625 63.921875 
L 10.984375 60.40625 
L 10.984375 69.390625 
L 28.421875 72.90625 
L 38.28125 72.90625 
L 38.28125 8.296875 
L 54.390625 8.296875 
L 54.390625 0 
L 12.40625 0 
z
" id="DejaVuSans-49"/>
      </defs>
      <g transform="translate(155.128295 322.182437)scale(0.1 -0.1)">
       <use xlink:href="#DejaVuSans-8722"/>
       <use x="83.789062" xlink:href="#DejaVuSans-49"/>
      </g>
     </g>
    </g>
    <g id="xtick_3">
     <g id="line2d_3">
      <g>
       <use style="stroke:#000000;stroke-width:0.8;" x="227.058563" xlink:href="#m0a0f5089ce" y="307.584"/>
      </g>
     </g>
     <g id="text_3">
      <!-- 0 -->
      <defs>
       <path d="M 31.78125 66.40625 
Q 24.171875 66.40625 20.328125 58.90625 
Q 16.5 51.421875 16.5 36.375 
Q 16.5 21.390625 20.328125 13.890625 
Q 24.171875 6.390625 31.78125 6.390625 
Q 39.453125 6.390625 43.28125 13.890625 
Q 47.125 21.390625 47.125 36.375 
Q 47.125 51.421875 43.28125 58.90625 
Q 39.453125 66.40625 31.78125 66.40625 
z
M 31.78125 74.21875 
Q 44.046875 74.21875 50.515625 64.515625 
Q 56.984375 54.828125 56.984375 36.375 
Q 56.984375 17.96875 50.515625 8.265625 
Q 44.046875 -1.421875 31.78125 -1.421875 
Q 19.53125 -1.421875 13.0625 8.265625 
Q 6.59375 17.96875 6.59375 36.375 
Q 6.59375 54.828125 13.0625 64.515625 
Q 19.53125 74.21875 31.78125 74.21875 
z
" id="DejaVuSans-48"/>
      </defs>
      <g transform="translate(223.877313 322.182437)scale(0.1 -0.1)">
       <use xlink:href="#DejaVuSans-48"/>
      </g>
     </g>
    </g>
    <g id="xtick_4">
     <g id="line2d_4">
      <g>
       <use style="stroke:#000000;stroke-width:0.8;" x="291.617737" xlink:href="#m0a0f5089ce" y="307.584"/>
      </g>
     </g>
     <g id="text_4">
      <!-- 1 -->
      <g transform="translate(288.436487 322.182437)scale(0.1 -0.1)">
       <use xlink:href="#DejaVuSans-49"/>
      </g>
     </g>
    </g>
    <g id="xtick_5">
     <g id="line2d_5">
      <g>
       <use style="stroke:#000000;stroke-width:0.8;" x="356.176911" xlink:href="#m0a0f5089ce" y="307.584"/>
      </g>
     </g>
     <g id="text_5">
      <!-- 2 -->
      <g transform="translate(352.995661 322.182437)scale(0.1 -0.1)">
       <use xlink:href="#DejaVuSans-50"/>
      </g>
     </g>
    </g>
    <g id="text_6">
     <!-- j_eta -->
     <defs>
      <path d="M 9.421875 54.6875 
L 18.40625 54.6875 
L 18.40625 -0.984375 
Q 18.40625 -11.421875 14.421875 -16.109375 
Q 10.453125 -20.796875 1.609375 -20.796875 
L -1.8125 -20.796875 
L -1.8125 -13.1875 
L 0.59375 -13.1875 
Q 5.71875 -13.1875 7.5625 -10.8125 
Q 9.421875 -8.453125 9.421875 -0.984375 
z
M 9.421875 75.984375 
L 18.40625 75.984375 
L 18.40625 64.59375 
L 9.421875 64.59375 
z
" id="DejaVuSans-106"/>
      <path d="M 50.984375 -16.609375 
L 50.984375 -23.578125 
L -0.984375 -23.578125 
L -0.984375 -16.609375 
z
" id="DejaVuSans-95"/>
      <path d="M 56.203125 29.59375 
L 56.203125 25.203125 
L 14.890625 25.203125 
Q 15.484375 15.921875 20.484375 11.0625 
Q 25.484375 6.203125 34.421875 6.203125 
Q 39.59375 6.203125 44.453125 7.46875 
Q 49.3125 8.734375 54.109375 11.28125 
L 54.109375 2.78125 
Q 49.265625 0.734375 44.1875 -0.34375 
Q 39.109375 -1.421875 33.890625 -1.421875 
Q 20.796875 -1.421875 13.15625 6.1875 
Q 5.515625 13.8125 5.515625 26.8125 
Q 5.515625 40.234375 12.765625 48.109375 
Q 20.015625 56 32.328125 56 
Q 43.359375 56 49.78125 48.890625 
Q 56.203125 41.796875 56.203125 29.59375 
z
M 47.21875 32.234375 
Q 47.125 39.59375 43.09375 43.984375 
Q 39.0625 48.390625 32.421875 48.390625 
Q 24.90625 48.390625 20.390625 44.140625 
Q 15.875 39.890625 15.1875 32.171875 
z
" id="DejaVuSans-101"/>
      <path d="M 18.3125 70.21875 
L 18.3125 54.6875 
L 36.8125 54.6875 
L 36.8125 47.703125 
L 18.3125 47.703125 
L 18.3125 18.015625 
Q 18.3125 11.328125 20.140625 9.421875 
Q 21.96875 7.515625 27.59375 7.515625 
L 36.8125 7.515625 
L 36.8125 0 
L 27.59375 0 
Q 17.1875 0 13.234375 3.875 
Q 9.28125 7.765625 9.28125 18.015625 
L 9.28125 47.703125 
L 2.6875 47.703125 
L 2.6875 54.6875 
L 9.28125 54.6875 
L 9.28125 70.21875 
z
" id="DejaVuSans-116"/>
      <path d="M 34.28125 27.484375 
Q 23.390625 27.484375 19.1875 25 
Q 14.984375 22.515625 14.984375 16.5 
Q 14.984375 11.71875 18.140625 8.90625 
Q 21.296875 6.109375 26.703125 6.109375 
Q 34.1875 6.109375 38.703125 11.40625 
Q 43.21875 16.703125 43.21875 25.484375 
L 43.21875 27.484375 
z
M 52.203125 31.203125 
L 52.203125 0 
L 43.21875 0 
L 43.21875 8.296875 
Q 40.140625 3.328125 35.546875 0.953125 
Q 30.953125 -1.421875 24.3125 -1.421875 
Q 15.921875 -1.421875 10.953125 3.296875 
Q 6 8.015625 6 15.921875 
Q 6 25.140625 12.171875 29.828125 
Q 18.359375 34.515625 30.609375 34.515625 
L 43.21875 34.515625 
L 43.21875 35.40625 
Q 43.21875 41.609375 39.140625 45 
Q 35.0625 48.390625 27.6875 48.390625 
Q 23 48.390625 18.546875 47.265625 
Q 14.109375 46.140625 10.015625 43.890625 
L 10.015625 52.203125 
Q 14.9375 54.109375 19.578125 55.046875 
Q 24.21875 56 28.609375 56 
Q 40.484375 56 46.34375 49.84375 
Q 52.203125 43.703125 52.203125 31.203125 
z
" id="DejaVuSans-97"/>
     </defs>
     <g transform="translate(224.170156 335.860562)scale(0.1 -0.1)">
      <use xlink:href="#DejaVuSans-106"/>
      <use x="27.783203" xlink:href="#DejaVuSans-95"/>
      <use x="77.783203" xlink:href="#DejaVuSans-101"/>
      <use x="139.306641" xlink:href="#DejaVuSans-116"/>
      <use x="178.515625" xlink:href="#DejaVuSans-97"/>
     </g>
    </g>
   </g>
   <g id="matplotlib.axis_2">
    <g id="ytick_1">
     <g id="line2d_6">
      <defs>
       <path d="M 0 0 
L -3.5 0 
" id="m76c697c06e" style="stroke:#000000;stroke-width:0.8;"/>
      </defs>
      <g>
       <use style="stroke:#000000;stroke-width:0.8;" x="57.6" xlink:href="#m76c697c06e" y="307.584"/>
      </g>
     </g>
     <g id="text_7">
      <!-- 0.000 -->
      <defs>
       <path d="M 10.6875 12.40625 
L 21 12.40625 
L 21 0 
L 10.6875 0 
z
" id="DejaVuSans-46"/>
      </defs>
      <g transform="translate(21.971875 311.383219)scale(0.1 -0.1)">
       <use xlink:href="#DejaVuSans-48"/>
       <use x="63.623047" xlink:href="#DejaVuSans-46"/>
       <use x="95.410156" xlink:href="#DejaVuSans-48"/>
       <use x="159.033203" xlink:href="#DejaVuSans-48"/>
       <use x="222.65625" xlink:href="#DejaVuSans-48"/>
      </g>
     </g>
    </g>
    <g id="ytick_2">
     <g id="line2d_7">
      <g>
       <use style="stroke:#000000;stroke-width:0.8;" x="57.6" xlink:href="#m76c697c06e" y="275.400919"/>
      </g>
     </g>
     <g id="text_8">
      <!-- 0.001 -->
      <g transform="translate(21.971875 279.200138)scale(0.1 -0.1)">
       <use xlink:href="#DejaVuSans-48"/>
       <use x="63.623047" xlink:href="#DejaVuSans-46"/>
       <use x="95.410156" xlink:href="#DejaVuSans-48"/>
       <use x="159.033203" xlink:href="#DejaVuSans-48"/>
       <use x="222.65625" xlink:href="#DejaVuSans-49"/>
      </g>
     </g>
    </g>
    <g id="ytick_3">
     <g id="line2d_8">
      <g>
       <use style="stroke:#000000;stroke-width:0.8;" x="57.6" xlink:href="#m76c697c06e" y="243.217838"/>
      </g>
     </g>
     <g id="text_9">
      <!-- 0.002 -->
      <g transform="translate(21.971875 247.017056)scale(0.1 -0.1)">
       <use xlink:href="#DejaVuSans-48"/>
       <use x="63.623047" xlink:href="#DejaVuSans-46"/>
       <use x="95.410156" xlink:href="#DejaVuSans-48"/>
       <use x="159.033203" xlink:href="#DejaVuSans-48"/>
       <use x="222.65625" xlink:href="#DejaVuSans-50"/>
      </g>
     </g>
    </g>
    <g id="ytick_4">
     <g id="line2d_9">
      <g>
       <use style="stroke:#000000;stroke-width:0.8;" x="57.6" xlink:href="#m76c697c06e" y="211.034756"/>
      </g>
     </g>
     <g id="text_10">
      <!-- 0.003 -->
      <defs>
       <path d="M 40.578125 39.3125 
Q 47.65625 37.796875 51.625 33 
Q 55.609375 28.21875 55.609375 21.1875 
Q 55.609375 10.40625 48.1875 4.484375 
Q 40.765625 -1.421875 27.09375 -1.421875 
Q 22.515625 -1.421875 17.65625 -0.515625 
Q 12.796875 0.390625 7.625 2.203125 
L 7.625 11.71875 
Q 11.71875 9.328125 16.59375 8.109375 
Q 21.484375 6.890625 26.8125 6.890625 
Q 36.078125 6.890625 40.9375 10.546875 
Q 45.796875 14.203125 45.796875 21.1875 
Q 45.796875 27.640625 41.28125 31.265625 
Q 36.765625 34.90625 28.71875 34.90625 
L 20.21875 34.90625 
L 20.21875 43.015625 
L 29.109375 43.015625 
Q 36.375 43.015625 40.234375 45.921875 
Q 44.09375 48.828125 44.09375 54.296875 
Q 44.09375 59.90625 40.109375 62.90625 
Q 36.140625 65.921875 28.71875 65.921875 
Q 24.65625 65.921875 20.015625 65.03125 
Q 15.375 64.15625 9.8125 62.3125 
L 9.8125 71.09375 
Q 15.4375 72.65625 20.34375 73.4375 
Q 25.25 74.21875 29.59375 74.21875 
Q 40.828125 74.21875 47.359375 69.109375 
Q 53.90625 64.015625 53.90625 55.328125 
Q 53.90625 49.265625 50.4375 45.09375 
Q 46.96875 40.921875 40.578125 39.3125 
z
" id="DejaVuSans-51"/>
      </defs>
      <g transform="translate(21.971875 214.833975)scale(0.1 -0.1)">
       <use xlink:href="#DejaVuSans-48"/>
       <use x="63.623047" xlink:href="#DejaVuSans-46"/>
       <use x="95.410156" xlink:href="#DejaVuSans-48"/>
       <use x="159.033203" xlink:href="#DejaVuSans-48"/>
       <use x="222.65625" xlink:href="#DejaVuSans-51"/>
      </g>
     </g>
    </g>
    <g id="ytick_5">
     <g id="line2d_10">
      <g>
       <use style="stroke:#000000;stroke-width:0.8;" x="57.6" xlink:href="#m76c697c06e" y="178.851675"/>
      </g>
     </g>
     <g id="text_11">
      <!-- 0.004 -->
      <defs>
       <path d="M 37.796875 64.3125 
L 12.890625 25.390625 
L 37.796875 25.390625 
z
M 35.203125 72.90625 
L 47.609375 72.90625 
L 47.609375 25.390625 
L 58.015625 25.390625 
L 58.015625 17.1875 
L 47.609375 17.1875 
L 47.609375 0 
L 37.796875 0 
L 37.796875 17.1875 
L 4.890625 17.1875 
L 4.890625 26.703125 
z
" id="DejaVuSans-52"/>
      </defs>
      <g transform="translate(21.971875 182.650894)scale(0.1 -0.1)">
       <use xlink:href="#DejaVuSans-48"/>
       <use x="63.623047" xlink:href="#DejaVuSans-46"/>
       <use x="95.410156" xlink:href="#DejaVuSans-48"/>
       <use x="159.033203" xlink:href="#DejaVuSans-48"/>
       <use x="222.65625" xlink:href="#DejaVuSans-52"/>
      </g>
     </g>
    </g>
    <g id="ytick_6">
     <g id="line2d_11">
      <g>
       <use style="stroke:#000000;stroke-width:0.8;" x="57.6" xlink:href="#m76c697c06e" y="146.668594"/>
      </g>
     </g>
     <g id="text_12">
      <!-- 0.005 -->
      <defs>
       <path d="M 10.796875 72.90625 
L 49.515625 72.90625 
L 49.515625 64.59375 
L 19.828125 64.59375 
L 19.828125 46.734375 
Q 21.96875 47.46875 24.109375 47.828125 
Q 26.265625 48.1875 28.421875 48.1875 
Q 40.625 48.1875 47.75 41.5 
Q 54.890625 34.8125 54.890625 23.390625 
Q 54.890625 11.625 47.5625 5.09375 
Q 40.234375 -1.421875 26.90625 -1.421875 
Q 22.3125 -1.421875 17.546875 -0.640625 
Q 12.796875 0.140625 7.71875 1.703125 
L 7.71875 11.625 
Q 12.109375 9.234375 16.796875 8.0625 
Q 21.484375 6.890625 26.703125 6.890625 
Q 35.15625 6.890625 40.078125 11.328125 
Q 45.015625 15.765625 45.015625 23.390625 
Q 45.015625 31 40.078125 35.4375 
Q 35.15625 39.890625 26.703125 39.890625 
Q 22.75 39.890625 18.8125 39.015625 
Q 14.890625 38.140625 10.796875 36.28125 
z
" id="DejaVuSans-53"/>
      </defs>
      <g transform="translate(21.971875 150.467813)scale(0.1 -0.1)">
       <use xlink:href="#DejaVuSans-48"/>
       <use x="63.623047" xlink:href="#DejaVuSans-46"/>
       <use x="95.410156" xlink:href="#DejaVuSans-48"/>
       <use x="159.033203" xlink:href="#DejaVuSans-48"/>
       <use x="222.65625" xlink:href="#DejaVuSans-53"/>
      </g>
     </g>
    </g>
    <g id="ytick_7">
     <g id="line2d_12">
      <g>
       <use style="stroke:#000000;stroke-width:0.8;" x="57.6" xlink:href="#m76c697c06e" y="114.485513"/>
      </g>
     </g>
     <g id="text_13">
      <!-- 0.006 -->
      <defs>
       <path d="M 33.015625 40.375 
Q 26.375 40.375 22.484375 35.828125 
Q 18.609375 31.296875 18.609375 23.390625 
Q 18.609375 15.53125 22.484375 10.953125 
Q 26.375 6.390625 33.015625 6.390625 
Q 39.65625 6.390625 43.53125 10.953125 
Q 47.40625 15.53125 47.40625 23.390625 
Q 47.40625 31.296875 43.53125 35.828125 
Q 39.65625 40.375 33.015625 40.375 
z
M 52.59375 71.296875 
L 52.59375 62.3125 
Q 48.875 64.0625 45.09375 64.984375 
Q 41.3125 65.921875 37.59375 65.921875 
Q 27.828125 65.921875 22.671875 59.328125 
Q 17.53125 52.734375 16.796875 39.40625 
Q 19.671875 43.65625 24.015625 45.921875 
Q 28.375 48.1875 33.59375 48.1875 
Q 44.578125 48.1875 50.953125 41.515625 
Q 57.328125 34.859375 57.328125 23.390625 
Q 57.328125 12.15625 50.6875 5.359375 
Q 44.046875 -1.421875 33.015625 -1.421875 
Q 20.359375 -1.421875 13.671875 8.265625 
Q 6.984375 17.96875 6.984375 36.375 
Q 6.984375 53.65625 15.1875 63.9375 
Q 23.390625 74.21875 37.203125 74.21875 
Q 40.921875 74.21875 44.703125 73.484375 
Q 48.484375 72.75 52.59375 71.296875 
z
" id="DejaVuSans-54"/>
      </defs>
      <g transform="translate(21.971875 118.284732)scale(0.1 -0.1)">
       <use xlink:href="#DejaVuSans-48"/>
       <use x="63.623047" xlink:href="#DejaVuSans-46"/>
       <use x="95.410156" xlink:href="#DejaVuSans-48"/>
       <use x="159.033203" xlink:href="#DejaVuSans-48"/>
       <use x="222.65625" xlink:href="#DejaVuSans-54"/>
      </g>
     </g>
    </g>
    <g id="ytick_8">
     <g id="line2d_13">
      <g>
       <use style="stroke:#000000;stroke-width:0.8;" x="57.6" xlink:href="#m76c697c06e" y="82.302432"/>
      </g>
     </g>
     <g id="text_14">
      <!-- 0.007 -->
      <defs>
       <path d="M 8.203125 72.90625 
L 55.078125 72.90625 
L 55.078125 68.703125 
L 28.609375 0 
L 18.3125 0 
L 43.21875 64.59375 
L 8.203125 64.59375 
z
" id="DejaVuSans-55"/>
      </defs>
      <g transform="translate(21.971875 86.10165)scale(0.1 -0.1)">
       <use xlink:href="#DejaVuSans-48"/>
       <use x="63.623047" xlink:href="#DejaVuSans-46"/>
       <use x="95.410156" xlink:href="#DejaVuSans-48"/>
       <use x="159.033203" xlink:href="#DejaVuSans-48"/>
       <use x="222.65625" xlink:href="#DejaVuSans-55"/>
      </g>
     </g>
    </g>
    <g id="ytick_9">
     <g id="line2d_14">
      <g>
       <use style="stroke:#000000;stroke-width:0.8;" x="57.6" xlink:href="#m76c697c06e" y="50.119351"/>
      </g>
     </g>
     <g id="text_15">
      <!-- 0.008 -->
      <defs>
       <path d="M 31.78125 34.625 
Q 24.75 34.625 20.71875 30.859375 
Q 16.703125 27.09375 16.703125 20.515625 
Q 16.703125 13.921875 20.71875 10.15625 
Q 24.75 6.390625 31.78125 6.390625 
Q 38.8125 6.390625 42.859375 10.171875 
Q 46.921875 13.96875 46.921875 20.515625 
Q 46.921875 27.09375 42.890625 30.859375 
Q 38.875 34.625 31.78125 34.625 
z
M 21.921875 38.8125 
Q 15.578125 40.375 12.03125 44.71875 
Q 8.5 49.078125 8.5 55.328125 
Q 8.5 64.0625 14.71875 69.140625 
Q 20.953125 74.21875 31.78125 74.21875 
Q 42.671875 74.21875 48.875 69.140625 
Q 55.078125 64.0625 55.078125 55.328125 
Q 55.078125 49.078125 51.53125 44.71875 
Q 48 40.375 41.703125 38.8125 
Q 48.828125 37.15625 52.796875 32.3125 
Q 56.78125 27.484375 56.78125 20.515625 
Q 56.78125 9.90625 50.3125 4.234375 
Q 43.84375 -1.421875 31.78125 -1.421875 
Q 19.734375 -1.421875 13.25 4.234375 
Q 6.78125 9.90625 6.78125 20.515625 
Q 6.78125 27.484375 10.78125 32.3125 
Q 14.796875 37.15625 21.921875 38.8125 
z
M 18.3125 54.390625 
Q 18.3125 48.734375 21.84375 45.5625 
Q 25.390625 42.390625 31.78125 42.390625 
Q 38.140625 42.390625 41.71875 45.5625 
Q 45.3125 48.734375 45.3125 54.390625 
Q 45.3125 60.0625 41.71875 63.234375 
Q 38.140625 66.40625 31.78125 66.40625 
Q 25.390625 66.40625 21.84375 63.234375 
Q 18.3125 60.0625 18.3125 54.390625 
z
" id="DejaVuSans-56"/>
      </defs>
      <g transform="translate(21.971875 53.918569)scale(0.1 -0.1)">
       <use xlink:href="#DejaVuSans-48"/>
       <use x="63.623047" xlink:href="#DejaVuSans-46"/>
       <use x="95.410156" xlink:href="#DejaVuSans-48"/>
       <use x="159.033203" xlink:href="#DejaVuSans-48"/>
       <use x="222.65625" xlink:href="#DejaVuSans-56"/>
      </g>
     </g>
    </g>
    <g id="text_16">
     <!-- Prob. Density (a.u.) -->
     <defs>
      <path d="M 19.671875 64.796875 
L 19.671875 37.40625 
L 32.078125 37.40625 
Q 38.96875 37.40625 42.71875 40.96875 
Q 46.484375 44.53125 46.484375 51.125 
Q 46.484375 57.671875 42.71875 61.234375 
Q 38.96875 64.796875 32.078125 64.796875 
z
M 9.8125 72.90625 
L 32.078125 72.90625 
Q 44.34375 72.90625 50.609375 67.359375 
Q 56.890625 61.8125 56.890625 51.125 
Q 56.890625 40.328125 50.609375 34.8125 
Q 44.34375 29.296875 32.078125 29.296875 
L 19.671875 29.296875 
L 19.671875 0 
L 9.8125 0 
z
" id="DejaVuSans-80"/>
      <path d="M 41.109375 46.296875 
Q 39.59375 47.171875 37.8125 47.578125 
Q 36.03125 48 33.890625 48 
Q 26.265625 48 22.1875 43.046875 
Q 18.109375 38.09375 18.109375 28.8125 
L 18.109375 0 
L 9.078125 0 
L 9.078125 54.6875 
L 18.109375 54.6875 
L 18.109375 46.1875 
Q 20.953125 51.171875 25.484375 53.578125 
Q 30.03125 56 36.53125 56 
Q 37.453125 56 38.578125 55.875 
Q 39.703125 55.765625 41.0625 55.515625 
z
" id="DejaVuSans-114"/>
      <path d="M 30.609375 48.390625 
Q 23.390625 48.390625 19.1875 42.75 
Q 14.984375 37.109375 14.984375 27.296875 
Q 14.984375 17.484375 19.15625 11.84375 
Q 23.34375 6.203125 30.609375 6.203125 
Q 37.796875 6.203125 41.984375 11.859375 
Q 46.1875 17.53125 46.1875 27.296875 
Q 46.1875 37.015625 41.984375 42.703125 
Q 37.796875 48.390625 30.609375 48.390625 
z
M 30.609375 56 
Q 42.328125 56 49.015625 48.375 
Q 55.71875 40.765625 55.71875 27.296875 
Q 55.71875 13.875 49.015625 6.21875 
Q 42.328125 -1.421875 30.609375 -1.421875 
Q 18.84375 -1.421875 12.171875 6.21875 
Q 5.515625 13.875 5.515625 27.296875 
Q 5.515625 40.765625 12.171875 48.375 
Q 18.84375 56 30.609375 56 
z
" id="DejaVuSans-111"/>
      <path d="M 48.6875 27.296875 
Q 48.6875 37.203125 44.609375 42.84375 
Q 40.53125 48.484375 33.40625 48.484375 
Q 26.265625 48.484375 22.1875 42.84375 
Q 18.109375 37.203125 18.109375 27.296875 
Q 18.109375 17.390625 22.1875 11.75 
Q 26.265625 6.109375 33.40625 6.109375 
Q 40.53125 6.109375 44.609375 11.75 
Q 48.6875 17.390625 48.6875 27.296875 
z
M 18.109375 46.390625 
Q 20.953125 51.265625 25.265625 53.625 
Q 29.59375 56 35.59375 56 
Q 45.5625 56 51.78125 48.09375 
Q 58.015625 40.1875 58.015625 27.296875 
Q 58.015625 14.40625 51.78125 6.484375 
Q 45.5625 -1.421875 35.59375 -1.421875 
Q 29.59375 -1.421875 25.265625 0.953125 
Q 20.953125 3.328125 18.109375 8.203125 
L 18.109375 0 
L 9.078125 0 
L 9.078125 75.984375 
L 18.109375 75.984375 
z
" id="DejaVuSans-98"/>
      <path id="DejaVuSans-32"/>
      <path d="M 19.671875 64.796875 
L 19.671875 8.109375 
L 31.59375 8.109375 
Q 46.6875 8.109375 53.6875 14.9375 
Q 60.6875 21.78125 60.6875 36.53125 
Q 60.6875 51.171875 53.6875 57.984375 
Q 46.6875 64.796875 31.59375 64.796875 
z
M 9.8125 72.90625 
L 30.078125 72.90625 
Q 51.265625 72.90625 61.171875 64.09375 
Q 71.09375 55.28125 71.09375 36.53125 
Q 71.09375 17.671875 61.125 8.828125 
Q 51.171875 0 30.078125 0 
L 9.8125 0 
z
" id="DejaVuSans-68"/>
      <path d="M 54.890625 33.015625 
L 54.890625 0 
L 45.90625 0 
L 45.90625 32.71875 
Q 45.90625 40.484375 42.875 44.328125 
Q 39.84375 48.1875 33.796875 48.1875 
Q 26.515625 48.1875 22.3125 43.546875 
Q 18.109375 38.921875 18.109375 30.90625 
L 18.109375 0 
L 9.078125 0 
L 9.078125 54.6875 
L 18.109375 54.6875 
L 18.109375 46.1875 
Q 21.34375 51.125 25.703125 53.5625 
Q 30.078125 56 35.796875 56 
Q 45.21875 56 50.046875 50.171875 
Q 54.890625 44.34375 54.890625 33.015625 
z
" id="DejaVuSans-110"/>
      <path d="M 44.28125 53.078125 
L 44.28125 44.578125 
Q 40.484375 46.53125 36.375 47.5 
Q 32.28125 48.484375 27.875 48.484375 
Q 21.1875 48.484375 17.84375 46.4375 
Q 14.5 44.390625 14.5 40.28125 
Q 14.5 37.15625 16.890625 35.375 
Q 19.28125 33.59375 26.515625 31.984375 
L 29.59375 31.296875 
Q 39.15625 29.25 43.1875 25.515625 
Q 47.21875 21.78125 47.21875 15.09375 
Q 47.21875 7.46875 41.1875 3.015625 
Q 35.15625 -1.421875 24.609375 -1.421875 
Q 20.21875 -1.421875 15.453125 -0.5625 
Q 10.6875 0.296875 5.421875 2 
L 5.421875 11.28125 
Q 10.40625 8.6875 15.234375 7.390625 
Q 20.0625 6.109375 24.8125 6.109375 
Q 31.15625 6.109375 34.5625 8.28125 
Q 37.984375 10.453125 37.984375 14.40625 
Q 37.984375 18.0625 35.515625 20.015625 
Q 33.0625 21.96875 24.703125 23.78125 
L 21.578125 24.515625 
Q 13.234375 26.265625 9.515625 29.90625 
Q 5.8125 33.546875 5.8125 39.890625 
Q 5.8125 47.609375 11.28125 51.796875 
Q 16.75 56 26.8125 56 
Q 31.78125 56 36.171875 55.265625 
Q 40.578125 54.546875 44.28125 53.078125 
z
" id="DejaVuSans-115"/>
      <path d="M 9.421875 54.6875 
L 18.40625 54.6875 
L 18.40625 0 
L 9.421875 0 
z
M 9.421875 75.984375 
L 18.40625 75.984375 
L 18.40625 64.59375 
L 9.421875 64.59375 
z
" id="DejaVuSans-105"/>
      <path d="M 32.171875 -5.078125 
Q 28.375 -14.84375 24.75 -17.8125 
Q 21.140625 -20.796875 15.09375 -20.796875 
L 7.90625 -20.796875 
L 7.90625 -13.28125 
L 13.1875 -13.28125 
Q 16.890625 -13.28125 18.9375 -11.515625 
Q 21 -9.765625 23.484375 -3.21875 
L 25.09375 0.875 
L 2.984375 54.6875 
L 12.5 54.6875 
L 29.59375 11.921875 
L 46.6875 54.6875 
L 56.203125 54.6875 
z
" id="DejaVuSans-121"/>
      <path d="M 31 75.875 
Q 24.46875 64.65625 21.28125 53.65625 
Q 18.109375 42.671875 18.109375 31.390625 
Q 18.109375 20.125 21.3125 9.0625 
Q 24.515625 -2 31 -13.1875 
L 23.1875 -13.1875 
Q 15.875 -1.703125 12.234375 9.375 
Q 8.59375 20.453125 8.59375 31.390625 
Q 8.59375 42.28125 12.203125 53.3125 
Q 15.828125 64.359375 23.1875 75.875 
z
" id="DejaVuSans-40"/>
      <path d="M 8.5 21.578125 
L 8.5 54.6875 
L 17.484375 54.6875 
L 17.484375 21.921875 
Q 17.484375 14.15625 20.5 10.265625 
Q 23.53125 6.390625 29.59375 6.390625 
Q 36.859375 6.390625 41.078125 11.03125 
Q 45.3125 15.671875 45.3125 23.6875 
L 45.3125 54.6875 
L 54.296875 54.6875 
L 54.296875 0 
L 45.3125 0 
L 45.3125 8.40625 
Q 42.046875 3.421875 37.71875 1 
Q 33.40625 -1.421875 27.6875 -1.421875 
Q 18.265625 -1.421875 13.375 4.4375 
Q 8.5 10.296875 8.5 21.578125 
z
M 31.109375 56 
z
" id="DejaVuSans-117"/>
      <path d="M 8.015625 75.875 
L 15.828125 75.875 
Q 23.140625 64.359375 26.78125 53.3125 
Q 30.421875 42.28125 30.421875 31.390625 
Q 30.421875 20.453125 26.78125 9.375 
Q 23.140625 -1.703125 15.828125 -13.1875 
L 8.015625 -13.1875 
Q 14.5 -2 17.703125 9.0625 
Q 20.90625 20.125 20.90625 31.390625 
Q 20.90625 42.671875 17.703125 53.65625 
Q 14.5 64.65625 8.015625 75.875 
z
" id="DejaVuSans-41"/>
     </defs>
     <g transform="translate(15.892187 222.917844)rotate(-90)scale(0.1 -0.1)">
      <use xlink:href="#DejaVuSans-80"/>
      <use x="60.287109" xlink:href="#DejaVuSans-114"/>
      <use x="101.369141" xlink:href="#DejaVuSans-111"/>
      <use x="162.550781" xlink:href="#DejaVuSans-98"/>
      <use x="226.027344" xlink:href="#DejaVuSans-46"/>
      <use x="257.814453" xlink:href="#DejaVuSans-32"/>
      <use x="289.601562" xlink:href="#DejaVuSans-68"/>
      <use x="366.603516" xlink:href="#DejaVuSans-101"/>
      <use x="428.126953" xlink:href="#DejaVuSans-110"/>
      <use x="491.505859" xlink:href="#DejaVuSans-115"/>
      <use x="543.605469" xlink:href="#DejaVuSans-105"/>
      <use x="571.388672" xlink:href="#DejaVuSans-116"/>
      <use x="610.597656" xlink:href="#DejaVuSans-121"/>
      <use x="669.777344" xlink:href="#DejaVuSans-32"/>
      <use x="701.564453" xlink:href="#DejaVuSans-40"/>
      <use x="740.578125" xlink:href="#DejaVuSans-97"/>
      <use x="801.857422" xlink:href="#DejaVuSans-46"/>
      <use x="833.644531" xlink:href="#DejaVuSans-117"/>
      <use x="897.023438" xlink:href="#DejaVuSans-46"/>
      <use x="928.810547" xlink:href="#DejaVuSans-41"/>
     </g>
    </g>
   </g>
   <g id="patch_9">
    <path d="M 57.6 307.584 
L 57.6 41.472 
" style="fill:none;stroke:#000000;stroke-linecap:square;stroke-linejoin:miter;stroke-width:0.8;"/>
   </g>
   <g id="patch_10">
    <path d="M 414.72 307.584 
L 414.72 41.472 
" style="fill:none;stroke:#000000;stroke-linecap:square;stroke-linejoin:miter;stroke-width:0.8;"/>
   </g>
   <g id="patch_11">
    <path d="M 57.6 307.584 
L 414.72 307.584 
" style="fill:none;stroke:#000000;stroke-linecap:square;stroke-linejoin:miter;stroke-width:0.8;"/>
   </g>
   <g id="patch_12">
    <path d="M 57.6 41.472 
L 414.72 41.472 
" style="fill:none;stroke:#000000;stroke-linecap:square;stroke-linejoin:miter;stroke-width:0.8;"/>
   </g>
   <g id="legend_1">
    <g id="patch_13">
     <path d="M 325.405938 137.54075 
L 407.72 137.54075 
Q 409.72 137.54075 409.72 135.54075 
L 409.72 48.472 
Q 409.72 46.472 407.72 46.472 
L 325.405938 46.472 
Q 323.405938 46.472 323.405938 48.472 
L 323.405938 135.54075 
Q 323.405938 137.54075 325.405938 137.54075 
z
" style="fill:#ffffff;opacity:0.8;stroke:#cccccc;stroke-linejoin:miter;"/>
    </g>
    <g id="patch_14">
     <path d="M 327.405938 58.070438 
L 347.405938 58.070438 
L 347.405938 51.070438 
L 327.405938 51.070438 
z
" style="fill:none;stroke:#1f77b4;stroke-linejoin:miter;"/>
    </g>
    <g id="text_17">
     <!-- quark -->
     <defs>
      <path d="M 14.796875 27.296875 
Q 14.796875 17.390625 18.875 11.75 
Q 22.953125 6.109375 30.078125 6.109375 
Q 37.203125 6.109375 41.296875 11.75 
Q 45.40625 17.390625 45.40625 27.296875 
Q 45.40625 37.203125 41.296875 42.84375 
Q 37.203125 48.484375 30.078125 48.484375 
Q 22.953125 48.484375 18.875 42.84375 
Q 14.796875 37.203125 14.796875 27.296875 
z
M 45.40625 8.203125 
Q 42.578125 3.328125 38.25 0.953125 
Q 33.9375 -1.421875 27.875 -1.421875 
Q 17.96875 -1.421875 11.734375 6.484375 
Q 5.515625 14.40625 5.515625 27.296875 
Q 5.515625 40.1875 11.734375 48.09375 
Q 17.96875 56 27.875 56 
Q 33.9375 56 38.25 53.625 
Q 42.578125 51.265625 45.40625 46.390625 
L 45.40625 54.6875 
L 54.390625 54.6875 
L 54.390625 -20.796875 
L 45.40625 -20.796875 
z
" id="DejaVuSans-113"/>
      <path d="M 9.078125 75.984375 
L 18.109375 75.984375 
L 18.109375 31.109375 
L 44.921875 54.6875 
L 56.390625 54.6875 
L 27.390625 29.109375 
L 57.625 0 
L 45.90625 0 
L 18.109375 26.703125 
L 18.109375 0 
L 9.078125 0 
z
" id="DejaVuSans-107"/>
     </defs>
     <g transform="translate(355.405938 58.070438)scale(0.1 -0.1)">
      <use xlink:href="#DejaVuSans-113"/>
      <use x="63.476562" xlink:href="#DejaVuSans-117"/>
      <use x="126.855469" xlink:href="#DejaVuSans-97"/>
      <use x="188.134766" xlink:href="#DejaVuSans-114"/>
      <use x="229.248047" xlink:href="#DejaVuSans-107"/>
     </g>
    </g>
    <g id="patch_15">
     <path d="M 327.405938 72.748563 
L 347.405938 72.748563 
L 347.405938 65.748563 
L 327.405938 65.748563 
z
" style="fill:none;stroke:#ff7f0e;stroke-linejoin:miter;"/>
    </g>
    <g id="text_18">
     <!-- gluon -->
     <defs>
      <path d="M 45.40625 27.984375 
Q 45.40625 37.75 41.375 43.109375 
Q 37.359375 48.484375 30.078125 48.484375 
Q 22.859375 48.484375 18.828125 43.109375 
Q 14.796875 37.75 14.796875 27.984375 
Q 14.796875 18.265625 18.828125 12.890625 
Q 22.859375 7.515625 30.078125 7.515625 
Q 37.359375 7.515625 41.375 12.890625 
Q 45.40625 18.265625 45.40625 27.984375 
z
M 54.390625 6.78125 
Q 54.390625 -7.171875 48.1875 -13.984375 
Q 42 -20.796875 29.203125 -20.796875 
Q 24.46875 -20.796875 20.265625 -20.09375 
Q 16.0625 -19.390625 12.109375 -17.921875 
L 12.109375 -9.1875 
Q 16.0625 -11.328125 19.921875 -12.34375 
Q 23.78125 -13.375 27.78125 -13.375 
Q 36.625 -13.375 41.015625 -8.765625 
Q 45.40625 -4.15625 45.40625 5.171875 
L 45.40625 9.625 
Q 42.625 4.78125 38.28125 2.390625 
Q 33.9375 0 27.875 0 
Q 17.828125 0 11.671875 7.65625 
Q 5.515625 15.328125 5.515625 27.984375 
Q 5.515625 40.671875 11.671875 48.328125 
Q 17.828125 56 27.875 56 
Q 33.9375 56 38.28125 53.609375 
Q 42.625 51.21875 45.40625 46.390625 
L 45.40625 54.6875 
L 54.390625 54.6875 
z
" id="DejaVuSans-103"/>
      <path d="M 9.421875 75.984375 
L 18.40625 75.984375 
L 18.40625 0 
L 9.421875 0 
z
" id="DejaVuSans-108"/>
     </defs>
     <g transform="translate(355.405938 72.748563)scale(0.1 -0.1)">
      <use xlink:href="#DejaVuSans-103"/>
      <use x="63.476562" xlink:href="#DejaVuSans-108"/>
      <use x="91.259766" xlink:href="#DejaVuSans-117"/>
      <use x="154.638672" xlink:href="#DejaVuSans-111"/>
      <use x="215.820312" xlink:href="#DejaVuSans-110"/>
     </g>
    </g>
    <g id="patch_16">
     <path d="M 327.405938 87.426688 
L 347.405938 87.426688 
L 347.405938 80.426688 
L 327.405938 80.426688 
z
" style="fill:none;stroke:#2ca02c;stroke-linejoin:miter;"/>
    </g>
    <g id="text_19">
     <!-- W -->
     <defs>
      <path d="M 3.328125 72.90625 
L 13.28125 72.90625 
L 28.609375 11.28125 
L 43.890625 72.90625 
L 54.984375 72.90625 
L 70.3125 11.28125 
L 85.59375 72.90625 
L 95.609375 72.90625 
L 77.296875 0 
L 64.890625 0 
L 49.515625 63.28125 
L 33.984375 0 
L 21.578125 0 
z
" id="DejaVuSans-87"/>
     </defs>
     <g transform="translate(355.405938 87.426688)scale(0.1 -0.1)">
      <use xlink:href="#DejaVuSans-87"/>
     </g>
    </g>
    <g id="patch_17">
     <path d="M 327.405938 102.104813 
L 347.405938 102.104813 
L 347.405938 95.104813 
L 327.405938 95.104813 
z
" style="fill:none;stroke:#d62728;stroke-linejoin:miter;"/>
    </g>
    <g id="text_20">
     <!-- Z -->
     <defs>
      <path d="M 5.609375 72.90625 
L 62.890625 72.90625 
L 62.890625 65.375 
L 16.796875 8.296875 
L 64.015625 8.296875 
L 64.015625 0 
L 4.5 0 
L 4.5 7.515625 
L 50.59375 64.59375 
L 5.609375 64.59375 
z
" id="DejaVuSans-90"/>
     </defs>
     <g transform="translate(355.405938 102.104813)scale(0.1 -0.1)">
      <use xlink:href="#DejaVuSans-90"/>
     </g>
    </g>
    <g id="patch_18">
     <path d="M 327.405938 116.782938 
L 347.405938 116.782938 
L 347.405938 109.782938 
L 327.405938 109.782938 
z
" style="fill:none;stroke:#9467bd;stroke-linejoin:miter;"/>
    </g>
    <g id="text_21">
     <!-- top -->
     <defs>
      <path d="M 18.109375 8.203125 
L 18.109375 -20.796875 
L 9.078125 -20.796875 
L 9.078125 54.6875 
L 18.109375 54.6875 
L 18.109375 46.390625 
Q 20.953125 51.265625 25.265625 53.625 
Q 29.59375 56 35.59375 56 
Q 45.5625 56 51.78125 48.09375 
Q 58.015625 40.1875 58.015625 27.296875 
Q 58.015625 14.40625 51.78125 6.484375 
Q 45.5625 -1.421875 35.59375 -1.421875 
Q 29.59375 -1.421875 25.265625 0.953125 
Q 20.953125 3.328125 18.109375 8.203125 
z
M 48.6875 27.296875 
Q 48.6875 37.203125 44.609375 42.84375 
Q 40.53125 48.484375 33.40625 48.484375 
Q 26.265625 48.484375 22.1875 42.84375 
Q 18.109375 37.203125 18.109375 27.296875 
Q 18.109375 17.390625 22.1875 11.75 
Q 26.265625 6.109375 33.40625 6.109375 
Q 40.53125 6.109375 44.609375 11.75 
Q 48.6875 17.390625 48.6875 27.296875 
z
" id="DejaVuSans-112"/>
     </defs>
     <g transform="translate(355.405938 116.782938)scale(0.1 -0.1)">
      <use xlink:href="#DejaVuSans-116"/>
      <use x="39.208984" xlink:href="#DejaVuSans-111"/>
      <use x="100.390625" xlink:href="#DejaVuSans-112"/>
     </g>
    </g>
    <g id="patch_19">
     <path d="M 327.405938 131.461063 
L 347.405938 131.461063 
L 347.405938 124.461063 
L 327.405938 124.461063 
z
" style="fill:none;stroke:#000000;stroke-linejoin:miter;"/>
    </g>
    <g id="text_22">
     <!-- undefined -->
     <defs>
      <path d="M 45.40625 46.390625 
L 45.40625 75.984375 
L 54.390625 75.984375 
L 54.390625 0 
L 45.40625 0 
L 45.40625 8.203125 
Q 42.578125 3.328125 38.25 0.953125 
Q 33.9375 -1.421875 27.875 -1.421875 
Q 17.96875 -1.421875 11.734375 6.484375 
Q 5.515625 14.40625 5.515625 27.296875 
Q 5.515625 40.1875 11.734375 48.09375 
Q 17.96875 56 27.875 56 
Q 33.9375 56 38.25 53.625 
Q 42.578125 51.265625 45.40625 46.390625 
z
M 14.796875 27.296875 
Q 14.796875 17.390625 18.875 11.75 
Q 22.953125 6.109375 30.078125 6.109375 
Q 37.203125 6.109375 41.296875 11.75 
Q 45.40625 17.390625 45.40625 27.296875 
Q 45.40625 37.203125 41.296875 42.84375 
Q 37.203125 48.484375 30.078125 48.484375 
Q 22.953125 48.484375 18.875 42.84375 
Q 14.796875 37.203125 14.796875 27.296875 
z
" id="DejaVuSans-100"/>
      <path d="M 37.109375 75.984375 
L 37.109375 68.5 
L 28.515625 68.5 
Q 23.6875 68.5 21.796875 66.546875 
Q 19.921875 64.59375 19.921875 59.515625 
L 19.921875 54.6875 
L 34.71875 54.6875 
L 34.71875 47.703125 
L 19.921875 47.703125 
L 19.921875 0 
L 10.890625 0 
L 10.890625 47.703125 
L 2.296875 47.703125 
L 2.296875 54.6875 
L 10.890625 54.6875 
L 10.890625 58.5 
Q 10.890625 67.625 15.140625 71.796875 
Q 19.390625 75.984375 28.609375 75.984375 
z
" id="DejaVuSans-102"/>
     </defs>
     <g transform="translate(355.405938 131.461063)scale(0.1 -0.1)">
      <use xlink:href="#DejaVuSans-117"/>
      <use x="63.378906" xlink:href="#DejaVuSans-110"/>
      <use x="126.757812" xlink:href="#DejaVuSans-100"/>
      <use x="190.234375" xlink:href="#DejaVuSans-101"/>
      <use x="251.757812" xlink:href="#DejaVuSans-102"/>
      <use x="286.962891" xlink:href="#DejaVuSans-105"/>
      <use x="314.746094" xlink:href="#DejaVuSans-110"/>
      <use x="378.125" xlink:href="#DejaVuSans-101"/>
      <use x="439.648438" xlink:href="#DejaVuSans-100"/>
     </g>
    </g>
   </g>
  </g>
 </g>
 <defs>
  <clipPath id="pc9ecb51be0">
   <rect height="266.112" width="357.12" x="57.6" y="41.472"/>
  </clipPath>
 </defs>
</svg>
