<?xml version="1.0" encoding="utf-8" standalone="no"?>
<!DOCTYPE svg PUBLIC "-//W3C//DTD SVG 1.1//EN"
  "http://www.w3.org/Graphics/SVG/1.1/DTD/svg11.dtd">
<!-- Created with matplotlib (https://matplotlib.org/) -->
<svg height="345.6pt" version="1.1" viewBox="0 0 460.8 345.6" width="460.8pt" xmlns="http://www.w3.org/2000/svg" xmlns:xlink="http://www.w3.org/1999/xlink">
 <defs>
  <style type="text/css">
*{stroke-linecap:butt;stroke-linejoin:round;}
  </style>
 </defs>
 <g id="figure_1">
  <g id="patch_1">
   <path d="M 0 345.6 
L 460.8 345.6 
L 460.8 0 
L 0 0 
z
" style="fill:#ffffff;"/>
  </g>
  <g id="axes_1">
   <g id="patch_2">
    <path d="M 57.6 307.584 
L 414.72 307.584 
L 414.72 41.472 
L 57.6 41.472 
z
" style="fill:#ffffff;"/>
   </g>
   <g id="patch_3">
    <path clip-path="url(#p0805c62585)" d="M 73.832733 307.584 
L 73.832733 307.065361 
L 77.079265 307.065361 
L 77.079265 306.613643 
L 80.325821 306.613643 
L 80.325821 307.058191 
L 83.572353 307.058191 
L 83.572353 306.295768 
L 86.818909 306.295768 
L 86.818909 307.00083 
L 90.065465 307.00083 
L 90.065465 306.637544 
L 93.311997 306.637544 
L 93.311997 306.013743 
L 96.558553 306.013743 
L 96.558553 306.513261 
L 99.805084 306.513261 
L 99.805084 306.114125 
L 103.05164 306.114125 
L 103.05164 306.341178 
L 106.298172 306.341178 
L 106.298172 305.810589 
L 109.544728 305.810589 
L 109.544728 306.479801 
L 112.791284 306.479801 
L 112.791284 305.896631 
L 116.037816 305.896631 
L 116.037816 304.402855 
L 119.284372 304.402855 
L 119.284372 305.645676 
L 122.530904 305.645676 
L 122.530904 305.511834 
L 125.77746 305.511834 
L 125.77746 305.918141 
L 132.270547 305.83688 
L 132.270547 305.803419 
L 135.517079 305.803419 
L 135.517079 304.997975 
L 138.763635 304.997975 
L 138.763635 304.450656 
L 142.010191 304.450656 
L 142.010191 304.878473 
L 145.256723 304.878473 
L 145.256723 303.924846 
L 151.749811 303.822074 
L 151.749811 303.109842 
L 154.996367 303.109842 
L 154.996367 301.599336 
L 161.489454 301.498955 
L 161.489454 302.97839 
L 164.73601 302.97839 
L 164.73601 301.608897 
L 167.982542 301.608897 
L 167.982542 300.282423 
L 174.47563 300.265694 
L 174.47563 297.411984 
L 177.722186 297.411984 
L 177.722186 295.050622 
L 184.215274 295.002821 
L 184.215274 293.63333 
L 187.46183 293.63333 
L 187.46183 286.083186 
L 190.708361 286.083186 
L 190.708361 281.769162 
L 193.954917 281.769162 
L 193.954917 272.252014 
L 197.201449 272.252014 
L 197.201449 265.399767 
L 200.448005 265.399767 
L 200.448005 252.940476 
L 203.694537 252.940476 
L 203.694537 242.450589 
L 206.941093 242.450589 
L 206.941093 212.892952 
L 210.187625 212.892952 
L 210.187625 184.661771 
L 213.434181 184.661771 
L 213.434181 140.529646 
L 216.680737 140.529646 
L 216.680737 140.209395 
L 219.927268 140.209395 
L 219.927268 150.214127 
L 223.173824 150.214127 
L 223.173824 181.432829 
L 226.42038 181.432829 
L 226.42038 203.533542 
L 229.666888 203.533542 
L 229.666888 225.744197 
L 232.913444 225.744197 
L 232.913444 244.142744 
L 236.16 244.142744 
L 236.16 257.945229 
L 239.406556 257.945229 
L 239.406556 265.861045 
L 242.653112 265.861045 
L 242.653112 273.346656 
L 245.89962 273.346656 
L 245.89962 278.533045 
L 249.146176 278.533045 
L 249.146176 285.370958 
L 252.392732 285.370958 
L 252.392732 286.585096 
L 255.639287 286.585096 
L 255.639287 289.589376 
L 258.885795 289.589376 
L 258.885795 292.849394 
L 262.132351 292.849394 
L 262.132351 293.662009 
L 265.378907 293.662009 
L 265.378907 293.793461 
L 268.625463 293.793461 
L 268.625463 295.688764 
L 271.872019 295.688764 
L 271.872019 298.071635 
L 275.118527 298.071635 
L 275.118527 299.52717 
L 278.365083 299.52717 
L 278.365083 300.999436 
L 281.611639 300.999436 
L 281.611639 300.68156 
L 284.858195 300.68156 
L 284.858195 301.169129 
L 288.104751 301.169129 
L 288.104751 300.550109 
L 291.351258 300.550109 
L 291.351258 302.662905 
L 294.597814 302.662905 
L 294.597814 302.024764 
L 297.84437 302.024764 
L 297.84437 304.264232 
L 301.090926 304.264232 
L 301.090926 302.823037 
L 304.337434 302.823037 
L 304.337434 303.939186 
L 307.58399 303.939186 
L 307.58399 304.335934 
L 310.830546 304.335934 
L 310.830546 304.847403 
L 314.077102 304.847403 
L 314.077102 304.613179 
L 320.570165 304.72073 
L 320.570165 305.2561 
L 327.063277 305.354091 
L 327.063277 305.631336 
L 330.309833 305.631336 
L 330.309833 305.344531 
L 333.556341 305.344531 
L 333.556341 305.624166 
L 340.049453 305.597875 
L 340.049453 306.766606 
L 343.296009 306.766606 
L 343.296009 305.244149 
L 346.542565 305.244149 
L 346.542565 306.388979 
L 353.035628 306.384199 
L 353.035628 304.560598 
L 356.282184 304.560598 
L 356.282184 306.525211 
L 359.52874 306.525211 
L 359.52874 306.907618 
L 362.775296 306.907618 
L 362.775296 306.216896 
L 366.021804 306.216896 
L 366.021804 306.472631 
L 369.26836 306.472631 
L 369.26836 306.804846 
L 372.514916 306.804846 
L 372.514916 305.906191 
L 375.761472 305.906191 
L 375.761472 307.160963 
L 379.007979 307.160963 
L 379.007979 306.582573 
L 385.501091 306.620813 
L 385.501091 307.502739 
L 388.747647 307.502739 
L 388.747647 307.134672 
L 391.994203 307.134672 
L 391.994203 306.161925 
L 395.240711 306.161925 
L 395.240711 307.313925 
L 398.487267 307.313925 
L 398.487267 307.584 
L 398.487267 307.584 
" style="fill:none;stroke:#1f77b4;stroke-linejoin:miter;"/>
   </g>
   <g id="patch_4">
    <path clip-path="url(#p0805c62585)" d="M 73.832733 307.584 
L 73.832733 306.243187 
L 77.079265 306.243187 
L 77.079265 304.69683 
L 80.325821 304.69683 
L 80.325821 305.913361 
L 83.572353 305.913361 
L 83.572353 305.605046 
L 90.065465 305.585925 
L 90.065465 305.007535 
L 93.311997 305.007535 
L 93.311997 305.944432 
L 96.558553 305.944432 
L 96.558553 306.276647 
L 99.805084 306.276647 
L 99.805084 303.164813 
L 103.05164 303.164813 
L 103.05164 304.885643 
L 106.298172 304.885643 
L 106.298172 304.71117 
L 109.544728 304.71117 
L 109.544728 304.479336 
L 112.791284 304.479336 
L 112.791284 302.97361 
L 116.037816 302.97361 
L 116.037816 303.399038 
L 119.284372 303.399038 
L 119.284372 303.081162 
L 122.530904 303.081162 
L 122.530904 302.333078 
L 125.77746 302.333078 
L 125.77746 301.145227 
L 129.023991 301.145227 
L 129.023991 299.806804 
L 132.270547 299.806804 
L 132.270547 301.680597 
L 135.517079 301.680597 
L 135.517079 301.802489 
L 138.763635 301.802489 
L 138.763635 301.637576 
L 142.010191 301.637576 
L 142.010191 299.639503 
L 145.256723 299.639503 
L 145.256723 301.345991 
L 148.503279 301.345991 
L 148.503279 297.402423 
L 151.749811 297.402423 
L 151.749811 299.823536 
L 154.996367 299.823536 
L 154.996367 297.347452 
L 158.242898 297.347452 
L 158.242898 296.955485 
L 161.489454 296.955485 
L 161.489454 294.663435 
L 164.73601 294.663435 
L 164.73601 295.466488 
L 167.982542 295.466488 
L 167.982542 292.835056 
L 171.229098 292.835056 
L 171.229098 290.793959 
L 174.47563 290.793959 
L 174.47563 292.682092 
L 177.722186 292.682092 
L 177.722186 291.40342 
L 180.968718 291.40342 
L 180.968718 288.413477 
L 184.215274 288.413477 
L 184.215274 284.082724 
L 187.46183 284.082724 
L 187.46183 279.873857 
L 190.708361 279.873857 
L 190.708361 279.99336 
L 193.954917 279.99336 
L 193.954917 280.801197 
L 197.201449 280.801197 
L 197.201449 273.100476 
L 200.448005 273.100476 
L 200.448005 264.632567 
L 203.694537 264.632567 
L 203.694537 262.201894 
L 206.941093 262.201894 
L 206.941093 254.259786 
L 210.187625 254.259786 
L 210.187625 248.949114 
L 213.434181 248.949114 
L 213.434181 238.26563 
L 216.680737 238.26563 
L 216.680737 234.826361 
L 219.927268 234.826361 
L 219.927268 230.713091 
L 223.173824 230.713091 
L 223.173824 223.758078 
L 226.42038 223.758078 
L 226.42038 231.193495 
L 229.666888 231.193495 
L 229.666888 231.915287 
L 232.913444 231.915287 
L 232.913444 220.137167 
L 236.16 220.137167 
L 236.16 226.499454 
L 239.406556 226.499454 
L 239.406556 223.404345 
L 242.653112 223.404345 
L 242.653112 234.723582 
L 245.89962 234.723582 
L 245.89962 225.361785 
L 249.146176 225.361785 
L 249.146176 228.196378 
L 252.392732 228.196378 
L 252.392732 234.400922 
L 255.639287 234.400922 
L 255.639287 232.730289 
L 258.885795 232.730289 
L 258.885795 239.324424 
L 262.132351 239.324424 
L 262.132351 237.316783 
L 265.378907 237.316783 
L 265.378907 237.675291 
L 268.625463 237.675291 
L 268.625463 245.772748 
L 271.872019 245.772748 
L 271.872019 244.288526 
L 275.118527 244.288526 
L 275.118527 250.430937 
L 278.365083 250.430937 
L 278.365083 251.716782 
L 281.611639 251.716782 
L 281.611639 254.938556 
L 288.104751 254.862075 
L 288.104751 256.296107 
L 291.351258 256.296107 
L 291.351258 260.918442 
L 294.597814 260.918442 
L 294.597814 261.864899 
L 297.84437 261.864899 
L 297.84437 263.798439 
L 301.090926 263.798439 
L 301.090926 268.996783 
L 304.337434 268.996783 
L 304.337434 270.906427 
L 307.58399 270.906427 
L 307.58399 270.344763 
L 310.830546 270.344763 
L 310.830546 274.71854 
L 314.077102 274.71854 
L 314.077102 273.905926 
L 317.323658 273.905926 
L 317.323658 271.824202 
L 320.570165 271.824202 
L 320.570165 275.832302 
L 327.063277 275.863369 
L 327.063277 276.740519 
L 330.309833 276.740519 
L 330.309833 282.467055 
L 333.556341 282.467055 
L 333.556341 282.816001 
L 336.802897 282.816001 
L 336.802897 285.308813 
L 340.049453 285.308813 
L 340.049453 281.331785 
L 346.542565 281.379584 
L 346.542565 287.201727 
L 349.789072 287.201727 
L 349.789072 285.019618 
L 353.035628 285.019618 
L 353.035628 287.481359 
L 356.282184 287.481359 
L 356.282184 288.960796 
L 359.52874 288.960796 
L 359.52874 290.987552 
L 362.775296 290.987552 
L 362.775296 291.738021 
L 366.021804 291.738021 
L 366.021804 290.289662 
L 369.26836 290.289662 
L 369.26836 288.807834 
L 372.514916 288.807834 
L 372.514916 292.545859 
L 375.761472 292.545859 
L 375.761472 292.345099 
L 379.007979 292.345099 
L 379.007979 293.71937 
L 382.254535 293.71937 
L 382.254535 292.541079 
L 388.747647 292.600831 
L 388.747647 299.194955 
L 391.994203 299.194955 
L 391.994203 299.003751 
L 395.240711 299.003751 
L 395.240711 294.510473 
L 398.487267 294.510473 
L 398.487267 307.584 
L 398.487267 307.584 
" style="fill:none;stroke:#ff7f0e;stroke-linejoin:miter;"/>
   </g>
   <g id="patch_5">
    <path clip-path="url(#p0805c62585)" d="M 73.832733 307.584 
L 73.832733 307.476448 
L 158.242898 307.476448 
L 158.242898 307.297195 
L 161.489454 307.297195 
L 161.489454 307.077311 
L 164.73601 307.077311 
L 164.73601 307.364116 
L 171.229098 307.349776 
L 171.229098 307.02234 
L 174.47563 307.02234 
L 174.47563 306.852647 
L 177.722186 306.852647 
L 177.722186 307.055801 
L 180.968718 307.055801 
L 180.968718 306.659054 
L 184.215274 306.659054 
L 184.215274 306.44634 
L 187.46183 306.44634 
L 187.46183 304.426755 
L 190.708361 304.426755 
L 190.708361 304.297693 
L 193.954917 304.297693 
L 193.954917 302.428681 
L 197.201449 302.428681 
L 197.201449 299.488929 
L 200.448005 299.488929 
L 200.448005 294.749478 
L 203.694537 294.749478 
L 203.694537 285.581277 
L 206.941093 285.581277 
L 206.941093 263.886869 
L 210.187625 263.886869 
L 210.187625 217.80687 
L 213.434181 217.80687 
L 213.434181 140.618082 
L 216.680737 140.618082 
L 216.680737 72.16014 
L 219.927268 72.16014 
L 219.927268 61.349968 
L 223.173824 61.349968 
L 223.173824 101.66039 
L 226.42038 101.66039 
L 226.42038 137.656829 
L 229.666888 137.656829 
L 229.666888 177.938589 
L 232.913444 177.938589 
L 232.913444 207.111443 
L 236.16 207.111443 
L 236.16 229.176304 
L 239.406556 229.176304 
L 239.406556 250.689071 
L 242.653112 250.689071 
L 242.653112 261.181346 
L 245.89962 261.181346 
L 245.89962 268.635884 
L 249.146176 268.635884 
L 249.146176 276.518243 
L 252.392732 276.518243 
L 252.392732 281.226624 
L 255.639287 281.226624 
L 255.639287 286.871901 
L 258.885795 286.871901 
L 258.885795 291.128564 
L 262.132351 291.128564 
L 262.132351 293.599869 
L 265.378907 293.599869 
L 265.378907 294.061147 
L 268.625463 294.061147 
L 268.625463 296.293445 
L 271.872019 296.293445 
L 271.872019 296.542008 
L 275.118527 296.542008 
L 275.118527 298.002323 
L 278.365083 298.002323 
L 278.365083 300.769992 
L 281.611639 300.769992 
L 281.611639 300.891884 
L 288.104751 300.781942 
L 288.104751 302.335469 
L 291.351258 302.335469 
L 291.351258 303.269975 
L 294.597814 303.269975 
L 294.597814 302.665295 
L 297.84437 302.665295 
L 297.84437 303.289095 
L 301.090926 303.289095 
L 301.090926 303.530489 
L 304.337434 303.530489 
L 304.337434 304.68488 
L 307.58399 304.68488 
L 307.58399 305.107917 
L 310.830546 305.107917 
L 310.830546 304.395685 
L 314.077102 304.395685 
L 314.077102 305.27522 
L 320.570165 305.27044 
L 320.570165 304.479336 
L 323.816721 304.479336 
L 323.816721 306.171486 
L 327.063277 306.171486 
L 327.063277 305.660017 
L 330.309833 305.660017 
L 330.309833 305.478373 
L 333.556341 305.478373 
L 333.556341 306.723585 
L 336.802897 306.723585 
L 336.802897 306.45112 
L 340.049453 306.45112 
L 340.049453 306.300548 
L 346.542565 306.381809 
L 346.542565 306.871768 
L 349.789072 306.871768 
L 349.789072 306.632763 
L 353.035628 306.632763 
L 353.035628 306.967369 
L 356.282184 306.967369 
L 356.282184 306.635154 
L 359.52874 306.635154 
L 359.52874 306.4559 
L 362.775296 306.4559 
L 362.775296 306.869378 
L 369.26836 306.819187 
L 369.26836 306.613643 
L 372.514916 306.613643 
L 372.514916 306.962589 
L 379.007979 307.01039 
L 379.007979 307.163353 
L 385.501091 307.215934 
L 385.501091 306.816797 
L 388.747647 306.816797 
L 388.747647 307.232664 
L 391.994203 307.232664 
L 391.994203 306.964979 
L 395.240711 306.964979 
L 395.240711 307.474058 
L 398.487267 307.474058 
L 398.487267 307.584 
" style="fill:none;stroke:#2ca02c;stroke-linejoin:miter;"/>
   </g>
   <g id="patch_6">
    <path clip-path="url(#p0805c62585)" d="M 73.832733 307.584 
L 145.256723 307.584 
L 145.256723 307.371286 
L 148.503279 307.371286 
L 148.503279 307.584 
L 161.489454 307.584 
L 161.489454 307.330656 
L 164.73601 307.330656 
L 164.73601 307.180083 
L 167.982542 307.180083 
L 167.982542 307.060581 
L 171.229098 307.060581 
L 171.229098 307.584 
L 174.47563 307.584 
L 174.47563 306.976929 
L 180.968718 306.919568 
L 180.968718 306.685344 
L 184.215274 306.685344 
L 184.215274 305.899021 
L 187.46183 305.899021 
L 187.46183 305.222639 
L 190.708361 305.222639 
L 190.708361 304.859353 
L 193.954917 304.859353 
L 193.954917 302.894738 
L 197.201449 302.894738 
L 197.201449 300.891884 
L 200.448005 300.891884 
L 200.448005 290.468913 
L 203.694537 290.468913 
L 203.694537 282.620017 
L 206.941093 282.620017 
L 206.941093 259.348183 
L 210.187625 259.348183 
L 210.187625 212.47708 
L 213.434181 212.47708 
L 213.434181 129.877246 
L 216.680737 129.877246 
L 216.680737 54.411679 
L 219.927268 54.411679 
L 219.927268 54.144 
L 223.173824 54.144 
L 223.173824 92.556761 
L 226.42038 92.556761 
L 226.42038 124.095736 
L 229.666888 124.095736 
L 229.666888 174.054763 
L 232.913444 174.054763 
L 232.913444 200.63203 
L 236.16 200.63203 
L 236.16 224.9507 
L 239.406556 224.9507 
L 239.406556 251.384559 
L 242.653112 251.384559 
L 242.653112 258.879734 
L 245.89962 258.879734 
L 245.89962 268.45424 
L 249.146176 268.45424 
L 249.146176 273.870075 
L 252.392732 273.870075 
L 252.392732 282.641525 
L 255.639287 282.641525 
L 255.639287 284.663502 
L 258.885795 284.663502 
L 258.885795 290.791567 
L 262.132351 290.791567 
L 262.132351 292.242323 
L 265.378907 292.242323 
L 265.378907 295.731784 
L 268.625463 295.731784 
L 268.625463 296.697362 
L 271.872019 296.697362 
L 271.872019 296.298225 
L 275.118527 296.298225 
L 275.118527 300.320664 
L 278.365083 300.320664 
L 278.365083 299.625162 
L 281.611639 299.625162 
L 281.611639 300.60986 
L 284.858195 300.60986 
L 284.858195 301.986523 
L 288.104751 301.986523 
L 288.104751 303.167203 
L 291.351258 303.167203 
L 291.351258 304.300083 
L 294.597814 304.300083 
L 294.597814 301.721228 
L 297.84437 301.721228 
L 297.84437 303.430107 
L 301.090926 303.430107 
L 301.090926 304.775701 
L 304.337434 304.775701 
L 304.337434 304.001328 
L 307.58399 304.001328 
L 307.58399 304.601228 
L 310.830546 304.601228 
L 310.830546 304.464996 
L 314.077102 304.464996 
L 314.077102 305.153328 
L 317.323658 305.153328 
L 317.323658 305.346921 
L 320.570165 305.346921 
L 320.570165 306.037643 
L 327.063277 305.975502 
L 327.063277 306.943469 
L 330.309833 306.943469 
L 330.309833 306.43439 
L 333.556341 306.43439 
L 333.556341 305.977892 
L 336.802897 305.977892 
L 336.802897 306.250357 
L 340.049453 306.250357 
L 340.049453 306.465461 
L 343.296009 306.465461 
L 343.296009 306.637544 
L 346.542565 306.637544 
L 346.542565 306.969759 
L 349.789072 306.969759 
L 349.789072 306.520431 
L 353.035628 306.520431 
L 353.035628 307.337826 
L 356.282184 307.337826 
L 356.282184 306.697295 
L 359.52874 306.697295 
L 359.52874 306.945859 
L 366.021804 306.955419 
L 366.021804 306.549112 
L 369.26836 306.549112 
L 369.26836 306.773776 
L 372.514916 306.773776 
L 372.514916 307.392797 
L 382.254535 307.309145 
L 382.254535 306.840697 
L 385.501091 306.840697 
L 385.501091 306.721195 
L 388.747647 306.721195 
L 388.747647 307.211154 
L 391.994203 307.211154 
L 391.994203 307.03429 
L 395.240711 307.03429 
L 395.240711 307.232664 
L 398.487267 307.232664 
L 398.487267 307.584 
L 398.487267 307.584 
" style="fill:none;stroke:#d62728;stroke-linejoin:miter;"/>
   </g>
   <g id="patch_7">
    <path clip-path="url(#p0805c62585)" d="M 73.832733 307.584 
L 73.832733 306.709245 
L 80.325821 306.766606 
L 80.325821 306.917178 
L 83.572353 306.917178 
L 83.572353 306.207336 
L 86.818909 306.207336 
L 86.818909 306.671004 
L 90.065465 306.671004 
L 90.065465 306.532382 
L 96.558553 306.580182 
L 96.558553 306.768996 
L 99.805084 306.768996 
L 99.805084 305.889461 
L 103.05164 305.889461 
L 103.05164 307.086871 
L 106.298172 307.086871 
L 106.298172 306.690125 
L 109.544728 306.690125 
L 109.544728 306.243187 
L 112.791284 306.243187 
L 112.791284 304.71834 
L 116.037816 304.71834 
L 116.037816 305.088797 
L 119.284372 305.088797 
L 119.284372 304.500846 
L 122.530904 304.500846 
L 122.530904 305.700648 
L 125.77746 305.700648 
L 125.77746 304.529527 
L 129.023991 304.529527 
L 129.023991 303.848366 
L 135.517079 303.951137 
L 135.517079 301.532415 
L 138.763635 301.532415 
L 138.763635 300.848863 
L 142.010191 300.848863 
L 142.010191 299.974108 
L 145.256723 299.974108 
L 145.256723 299.455469 
L 148.503279 299.455469 
L 148.503279 297.395253 
L 151.749811 297.395253 
L 151.749811 294.481793 
L 154.996367 294.481793 
L 154.996367 292.770522 
L 158.242898 292.770522 
L 158.242898 290.010024 
L 161.489454 290.010024 
L 161.489454 284.747153 
L 164.73601 284.747153 
L 164.73601 285.292086 
L 167.982542 285.292086 
L 167.982542 280.165443 
L 171.229098 280.165443 
L 171.229098 268.719537 
L 174.47563 268.719537 
L 174.47563 261.680865 
L 177.722186 261.680865 
L 177.722186 259.811849 
L 180.968718 259.811849 
L 180.968718 244.408035 
L 184.215274 244.408035 
L 184.215274 234.807238 
L 187.46183 234.807238 
L 187.46183 216.523419 
L 190.708361 216.523419 
L 190.708361 201.067019 
L 193.954917 201.067019 
L 193.954917 195.584266 
L 197.201449 195.584266 
L 197.201449 170.19487 
L 200.448005 170.19487 
L 200.448005 155.594095 
L 203.694537 155.594095 
L 203.694537 134.865257 
L 206.941093 134.865257 
L 206.941093 105.589642 
L 210.187625 105.589642 
L 210.187625 88.252294 
L 213.434181 88.252294 
L 213.434181 88.943007 
L 216.680737 88.943007 
L 216.680737 110.527498 
L 219.927268 110.527498 
L 219.927268 133.378654 
L 223.173824 133.378654 
L 223.173824 177.027994 
L 226.42038 177.027994 
L 226.42038 198.700875 
L 229.666888 198.700875 
L 229.666888 217.094629 
L 232.913444 217.094629 
L 232.913444 240.022311 
L 236.16 240.022311 
L 236.16 242.484043 
L 239.406556 242.484043 
L 239.406556 256.642655 
L 242.653112 256.642655 
L 242.653112 261.879239 
L 245.89962 261.879239 
L 245.89962 271.790736 
L 249.146176 271.790736 
L 249.146176 276.967572 
L 252.392732 276.967572 
L 252.392732 276.632962 
L 255.639287 276.632962 
L 255.639287 286.432135 
L 258.885795 286.432135 
L 258.885795 285.284916 
L 262.132351 285.284916 
L 262.132351 287.713196 
L 265.378907 287.713196 
L 265.378907 292.643853 
L 268.625463 292.643853 
L 268.625463 290.454573 
L 271.872019 290.454573 
L 271.872019 292.686873 
L 275.118527 292.686873 
L 275.118527 297.612746 
L 278.365083 297.612746 
L 278.365083 296.874224 
L 281.611639 296.874224 
L 281.611639 297.156249 
L 284.858195 297.156249 
L 284.858195 297.567336 
L 288.104751 297.567336 
L 288.104751 297.942572 
L 291.351258 297.942572 
L 291.351258 301.004215 
L 294.597814 301.004215 
L 294.597814 300.569228 
L 297.84437 300.569228 
L 297.84437 300.815402 
L 301.090926 300.815402 
L 301.090926 302.373709 
L 304.337434 302.373709 
L 304.337434 303.573511 
L 307.58399 303.573511 
L 307.58399 304.813942 
L 310.830546 304.813942 
L 310.830546 304.013278 
L 314.077102 304.013278 
L 314.077102 302.932979 
L 317.323658 302.932979 
L 317.323658 304.199701 
L 320.570165 304.199701 
L 320.570165 303.250855 
L 323.816721 303.250855 
L 323.816721 304.527137 
L 327.063277 304.527137 
L 327.063277 305.409062 
L 330.309833 305.409062 
L 330.309833 305.889461 
L 333.556341 305.889461 
L 333.556341 303.989378 
L 336.802897 303.989378 
L 336.802897 306.075884 
L 340.049453 306.075884 
L 340.049453 304.369394 
L 343.296009 304.369394 
L 343.296009 306.016133 
L 346.542565 306.016133 
L 346.542565 305.891851 
L 349.789072 305.891851 
L 349.789072 306.331618 
L 353.035628 306.331618 
L 353.035628 305.550075 
L 356.282184 305.550075 
L 356.282184 305.829709 
L 362.775296 305.901411 
L 362.775296 306.192996 
L 366.021804 306.192996 
L 366.021804 306.601693 
L 369.26836 306.601693 
L 369.26836 307.247004 
L 372.514916 307.247004 
L 372.514916 306.778556 
L 375.761472 306.778556 
L 375.761472 306.953029 
L 379.007979 306.953029 
L 379.007979 306.570622 
L 382.254535 306.570622 
L 382.254535 307.008 
L 385.501091 307.008 
L 385.501091 306.745095 
L 388.747647 306.745095 
L 388.747647 306.98649 
L 391.994203 306.98649 
L 391.994203 306.802456 
L 395.240711 306.802456 
L 395.240711 307.442988 
L 398.487267 307.442988 
L 398.487267 307.584 
L 398.487267 307.584 
" style="fill:none;stroke:#9467bd;stroke-linejoin:miter;"/>
   </g>
   <g id="patch_8">
    <path clip-path="url(#p0805c62585)" d="M 73.832727 307.584 
L 398.487273 307.584 
L 398.487273 307.584 
" style="fill:none;stroke:#000000;stroke-linejoin:miter;"/>
   </g>
   <g id="matplotlib.axis_1">
    <g id="xtick_1">
     <g id="line2d_1">
      <defs>
       <path d="M 0 0 
L 0 3.5 
" id="m1c1c698346" style="stroke:#000000;stroke-width:0.8;"/>
      </defs>
      <g>
       <use style="stroke:#000000;stroke-width:0.8;" x="135.442149" xlink:href="#m1c1c698346" y="307.584"/>
      </g>
     </g>
     <g id="text_1">
      <!-- 800 -->
      <defs>
       <path d="M 31.78125 34.625 
Q 24.75 34.625 20.71875 30.859375 
Q 16.703125 27.09375 16.703125 20.515625 
Q 16.703125 13.921875 20.71875 10.15625 
Q 24.75 6.390625 31.78125 6.390625 
Q 38.8125 6.390625 42.859375 10.171875 
Q 46.921875 13.96875 46.921875 20.515625 
Q 46.921875 27.09375 42.890625 30.859375 
Q 38.875 34.625 31.78125 34.625 
z
M 21.921875 38.8125 
Q 15.578125 40.375 12.03125 44.71875 
Q 8.5 49.078125 8.5 55.328125 
Q 8.5 64.0625 14.71875 69.140625 
Q 20.953125 74.21875 31.78125 74.21875 
Q 42.671875 74.21875 48.875 69.140625 
Q 55.078125 64.0625 55.078125 55.328125 
Q 55.078125 49.078125 51.53125 44.71875 
Q 48 40.375 41.703125 38.8125 
Q 48.828125 37.15625 52.796875 32.3125 
Q 56.78125 27.484375 56.78125 20.515625 
Q 56.78125 9.90625 50.3125 4.234375 
Q 43.84375 -1.421875 31.78125 -1.421875 
Q 19.734375 -1.421875 13.25 4.234375 
Q 6.78125 9.90625 6.78125 20.515625 
Q 6.78125 27.484375 10.78125 32.3125 
Q 14.796875 37.15625 21.921875 38.8125 
z
M 18.3125 54.390625 
Q 18.3125 48.734375 21.84375 45.5625 
Q 25.390625 42.390625 31.78125 42.390625 
Q 38.140625 42.390625 41.71875 45.5625 
Q 45.3125 48.734375 45.3125 54.390625 
Q 45.3125 60.0625 41.71875 63.234375 
Q 38.140625 66.40625 31.78125 66.40625 
Q 25.390625 66.40625 21.84375 63.234375 
Q 18.3125 60.0625 18.3125 54.390625 
z
" id="DejaVuSans-56"/>
       <path d="M 31.78125 66.40625 
Q 24.171875 66.40625 20.328125 58.90625 
Q 16.5 51.421875 16.5 36.375 
Q 16.5 21.390625 20.328125 13.890625 
Q 24.171875 6.390625 31.78125 6.390625 
Q 39.453125 6.390625 43.28125 13.890625 
Q 47.125 21.390625 47.125 36.375 
Q 47.125 51.421875 43.28125 58.90625 
Q 39.453125 66.40625 31.78125 66.40625 
z
M 31.78125 74.21875 
Q 44.046875 74.21875 50.515625 64.515625 
Q 56.984375 54.828125 56.984375 36.375 
Q 56.984375 17.96875 50.515625 8.265625 
Q 44.046875 -1.421875 31.78125 -1.421875 
Q 19.53125 -1.421875 13.0625 8.265625 
Q 6.59375 17.96875 6.59375 36.375 
Q 6.59375 54.828125 13.0625 64.515625 
Q 19.53125 74.21875 31.78125 74.21875 
z
" id="DejaVuSans-48"/>
      </defs>
      <g transform="translate(125.898399 322.182437)scale(0.1 -0.1)">
       <use xlink:href="#DejaVuSans-56"/>
       <use x="63.623047" xlink:href="#DejaVuSans-48"/>
       <use x="127.246094" xlink:href="#DejaVuSans-48"/>
      </g>
     </g>
    </g>
    <g id="xtick_2">
     <g id="line2d_2">
      <g>
       <use style="stroke:#000000;stroke-width:0.8;" x="214.773355" xlink:href="#m1c1c698346" y="307.584"/>
      </g>
     </g>
     <g id="text_2">
      <!-- 1000 -->
      <defs>
       <path d="M 12.40625 8.296875 
L 28.515625 8.296875 
L 28.515625 63.921875 
L 10.984375 60.40625 
L 10.984375 69.390625 
L 28.421875 72.90625 
L 38.28125 72.90625 
L 38.28125 8.296875 
L 54.390625 8.296875 
L 54.390625 0 
L 12.40625 0 
z
" id="DejaVuSans-49"/>
      </defs>
      <g transform="translate(202.048355 322.182437)scale(0.1 -0.1)">
       <use xlink:href="#DejaVuSans-49"/>
       <use x="63.623047" xlink:href="#DejaVuSans-48"/>
       <use x="127.246094" xlink:href="#DejaVuSans-48"/>
       <use x="190.869141" xlink:href="#DejaVuSans-48"/>
      </g>
     </g>
    </g>
    <g id="xtick_3">
     <g id="line2d_3">
      <g>
       <use style="stroke:#000000;stroke-width:0.8;" x="294.10456" xlink:href="#m1c1c698346" y="307.584"/>
      </g>
     </g>
     <g id="text_3">
      <!-- 1200 -->
      <defs>
       <path d="M 19.1875 8.296875 
L 53.609375 8.296875 
L 53.609375 0 
L 7.328125 0 
L 7.328125 8.296875 
Q 12.9375 14.109375 22.625 23.890625 
Q 32.328125 33.6875 34.8125 36.53125 
Q 39.546875 41.84375 41.421875 45.53125 
Q 43.3125 49.21875 43.3125 52.78125 
Q 43.3125 58.59375 39.234375 62.25 
Q 35.15625 65.921875 28.609375 65.921875 
Q 23.96875 65.921875 18.8125 64.3125 
Q 13.671875 62.703125 7.8125 59.421875 
L 7.8125 69.390625 
Q 13.765625 71.78125 18.9375 73 
Q 24.125 74.21875 28.421875 74.21875 
Q 39.75 74.21875 46.484375 68.546875 
Q 53.21875 62.890625 53.21875 53.421875 
Q 53.21875 48.921875 51.53125 44.890625 
Q 49.859375 40.875 45.40625 35.40625 
Q 44.1875 33.984375 37.640625 27.21875 
Q 31.109375 20.453125 19.1875 8.296875 
z
" id="DejaVuSans-50"/>
      </defs>
      <g transform="translate(281.37956 322.182437)scale(0.1 -0.1)">
       <use xlink:href="#DejaVuSans-49"/>
       <use x="63.623047" xlink:href="#DejaVuSans-50"/>
       <use x="127.246094" xlink:href="#DejaVuSans-48"/>
       <use x="190.869141" xlink:href="#DejaVuSans-48"/>
      </g>
     </g>
    </g>
    <g id="xtick_4">
     <g id="line2d_4">
      <g>
       <use style="stroke:#000000;stroke-width:0.8;" x="373.435766" xlink:href="#m1c1c698346" y="307.584"/>
      </g>
     </g>
     <g id="text_4">
      <!-- 1400 -->
      <defs>
       <path d="M 37.796875 64.3125 
L 12.890625 25.390625 
L 37.796875 25.390625 
z
M 35.203125 72.90625 
L 47.609375 72.90625 
L 47.609375 25.390625 
L 58.015625 25.390625 
L 58.015625 17.1875 
L 47.609375 17.1875 
L 47.609375 0 
L 37.796875 0 
L 37.796875 17.1875 
L 4.890625 17.1875 
L 4.890625 26.703125 
z
" id="DejaVuSans-52"/>
      </defs>
      <g transform="translate(360.710766 322.182437)scale(0.1 -0.1)">
       <use xlink:href="#DejaVuSans-49"/>
       <use x="63.623047" xlink:href="#DejaVuSans-52"/>
       <use x="127.246094" xlink:href="#DejaVuSans-48"/>
       <use x="190.869141" xlink:href="#DejaVuSans-48"/>
      </g>
     </g>
    </g>
    <g id="text_5">
     <!-- j_pt -->
     <defs>
      <path d="M 9.421875 54.6875 
L 18.40625 54.6875 
L 18.40625 -0.984375 
Q 18.40625 -11.421875 14.421875 -16.109375 
Q 10.453125 -20.796875 1.609375 -20.796875 
L -1.8125 -20.796875 
L -1.8125 -13.1875 
L 0.59375 -13.1875 
Q 5.71875 -13.1875 7.5625 -10.8125 
Q 9.421875 -8.453125 9.421875 -0.984375 
z
M 9.421875 75.984375 
L 18.40625 75.984375 
L 18.40625 64.59375 
L 9.421875 64.59375 
z
" id="DejaVuSans-106"/>
      <path d="M 50.984375 -16.609375 
L 50.984375 -23.578125 
L -0.984375 -23.578125 
L -0.984375 -16.609375 
z
" id="DejaVuSans-95"/>
      <path d="M 18.109375 8.203125 
L 18.109375 -20.796875 
L 9.078125 -20.796875 
L 9.078125 54.6875 
L 18.109375 54.6875 
L 18.109375 46.390625 
Q 20.953125 51.265625 25.265625 53.625 
Q 29.59375 56 35.59375 56 
Q 45.5625 56 51.78125 48.09375 
Q 58.015625 40.1875 58.015625 27.296875 
Q 58.015625 14.40625 51.78125 6.484375 
Q 45.5625 -1.421875 35.59375 -1.421875 
Q 29.59375 -1.421875 25.265625 0.953125 
Q 20.953125 3.328125 18.109375 8.203125 
z
M 48.6875 27.296875 
Q 48.6875 37.203125 44.609375 42.84375 
Q 40.53125 48.484375 33.40625 48.484375 
Q 26.265625 48.484375 22.1875 42.84375 
Q 18.109375 37.203125 18.109375 27.296875 
Q 18.109375 17.390625 22.1875 11.75 
Q 26.265625 6.109375 33.40625 6.109375 
Q 40.53125 6.109375 44.609375 11.75 
Q 48.6875 17.390625 48.6875 27.296875 
z
" id="DejaVuSans-112"/>
      <path d="M 18.3125 70.21875 
L 18.3125 54.6875 
L 36.8125 54.6875 
L 36.8125 47.703125 
L 18.3125 47.703125 
L 18.3125 18.015625 
Q 18.3125 11.328125 20.140625 9.421875 
Q 21.96875 7.515625 27.59375 7.515625 
L 36.8125 7.515625 
L 36.8125 0 
L 27.59375 0 
Q 17.1875 0 13.234375 3.875 
Q 9.28125 7.765625 9.28125 18.015625 
L 9.28125 47.703125 
L 2.6875 47.703125 
L 2.6875 54.6875 
L 9.28125 54.6875 
L 9.28125 70.21875 
z
" id="DejaVuSans-116"/>
     </defs>
     <g transform="translate(227.136562 335.860562)scale(0.1 -0.1)">
      <use xlink:href="#DejaVuSans-106"/>
      <use x="27.783203" xlink:href="#DejaVuSans-95"/>
      <use x="77.783203" xlink:href="#DejaVuSans-112"/>
      <use x="141.259766" xlink:href="#DejaVuSans-116"/>
     </g>
    </g>
   </g>
   <g id="matplotlib.axis_2">
    <g id="ytick_1">
     <g id="line2d_5">
      <defs>
       <path d="M 0 0 
L -3.5 0 
" id="m217ee943d5" style="stroke:#000000;stroke-width:0.8;"/>
      </defs>
      <g>
       <use style="stroke:#000000;stroke-width:0.8;" x="57.6" xlink:href="#m217ee943d5" y="307.584"/>
      </g>
     </g>
     <g id="text_6">
      <!-- 0.0000 -->
      <defs>
       <path d="M 10.6875 12.40625 
L 21 12.40625 
L 21 0 
L 10.6875 0 
z
" id="DejaVuSans-46"/>
      </defs>
      <g transform="translate(15.609375 311.383219)scale(0.1 -0.1)">
       <use xlink:href="#DejaVuSans-48"/>
       <use x="63.623047" xlink:href="#DejaVuSans-46"/>
       <use x="95.410156" xlink:href="#DejaVuSans-48"/>
       <use x="159.033203" xlink:href="#DejaVuSans-48"/>
       <use x="222.65625" xlink:href="#DejaVuSans-48"/>
       <use x="286.279297" xlink:href="#DejaVuSans-48"/>
      </g>
     </g>
    </g>
    <g id="ytick_2">
     <g id="line2d_6">
      <g>
       <use style="stroke:#000000;stroke-width:0.8;" x="57.6" xlink:href="#m217ee943d5" y="276.992014"/>
      </g>
     </g>
     <g id="text_7">
      <!-- 0.0025 -->
      <defs>
       <path d="M 10.796875 72.90625 
L 49.515625 72.90625 
L 49.515625 64.59375 
L 19.828125 64.59375 
L 19.828125 46.734375 
Q 21.96875 47.46875 24.109375 47.828125 
Q 26.265625 48.1875 28.421875 48.1875 
Q 40.625 48.1875 47.75 41.5 
Q 54.890625 34.8125 54.890625 23.390625 
Q 54.890625 11.625 47.5625 5.09375 
Q 40.234375 -1.421875 26.90625 -1.421875 
Q 22.3125 -1.421875 17.546875 -0.640625 
Q 12.796875 0.140625 7.71875 1.703125 
L 7.71875 11.625 
Q 12.109375 9.234375 16.796875 8.0625 
Q 21.484375 6.890625 26.703125 6.890625 
Q 35.15625 6.890625 40.078125 11.328125 
Q 45.015625 15.765625 45.015625 23.390625 
Q 45.015625 31 40.078125 35.4375 
Q 35.15625 39.890625 26.703125 39.890625 
Q 22.75 39.890625 18.8125 39.015625 
Q 14.890625 38.140625 10.796875 36.28125 
z
" id="DejaVuSans-53"/>
      </defs>
      <g transform="translate(15.609375 280.791233)scale(0.1 -0.1)">
       <use xlink:href="#DejaVuSans-48"/>
       <use x="63.623047" xlink:href="#DejaVuSans-46"/>
       <use x="95.410156" xlink:href="#DejaVuSans-48"/>
       <use x="159.033203" xlink:href="#DejaVuSans-48"/>
       <use x="222.65625" xlink:href="#DejaVuSans-50"/>
       <use x="286.279297" xlink:href="#DejaVuSans-53"/>
      </g>
     </g>
    </g>
    <g id="ytick_3">
     <g id="line2d_7">
      <g>
       <use style="stroke:#000000;stroke-width:0.8;" x="57.6" xlink:href="#m217ee943d5" y="246.400028"/>
      </g>
     </g>
     <g id="text_8">
      <!-- 0.0050 -->
      <g transform="translate(15.609375 250.199247)scale(0.1 -0.1)">
       <use xlink:href="#DejaVuSans-48"/>
       <use x="63.623047" xlink:href="#DejaVuSans-46"/>
       <use x="95.410156" xlink:href="#DejaVuSans-48"/>
       <use x="159.033203" xlink:href="#DejaVuSans-48"/>
       <use x="222.65625" xlink:href="#DejaVuSans-53"/>
       <use x="286.279297" xlink:href="#DejaVuSans-48"/>
      </g>
     </g>
    </g>
    <g id="ytick_4">
     <g id="line2d_8">
      <g>
       <use style="stroke:#000000;stroke-width:0.8;" x="57.6" xlink:href="#m217ee943d5" y="215.808042"/>
      </g>
     </g>
     <g id="text_9">
      <!-- 0.0075 -->
      <defs>
       <path d="M 8.203125 72.90625 
L 55.078125 72.90625 
L 55.078125 68.703125 
L 28.609375 0 
L 18.3125 0 
L 43.21875 64.59375 
L 8.203125 64.59375 
z
" id="DejaVuSans-55"/>
      </defs>
      <g transform="translate(15.609375 219.60726)scale(0.1 -0.1)">
       <use xlink:href="#DejaVuSans-48"/>
       <use x="63.623047" xlink:href="#DejaVuSans-46"/>
       <use x="95.410156" xlink:href="#DejaVuSans-48"/>
       <use x="159.033203" xlink:href="#DejaVuSans-48"/>
       <use x="222.65625" xlink:href="#DejaVuSans-55"/>
       <use x="286.279297" xlink:href="#DejaVuSans-53"/>
      </g>
     </g>
    </g>
    <g id="ytick_5">
     <g id="line2d_9">
      <g>
       <use style="stroke:#000000;stroke-width:0.8;" x="57.6" xlink:href="#m217ee943d5" y="185.216056"/>
      </g>
     </g>
     <g id="text_10">
      <!-- 0.0100 -->
      <g transform="translate(15.609375 189.015274)scale(0.1 -0.1)">
       <use xlink:href="#DejaVuSans-48"/>
       <use x="63.623047" xlink:href="#DejaVuSans-46"/>
       <use x="95.410156" xlink:href="#DejaVuSans-48"/>
       <use x="159.033203" xlink:href="#DejaVuSans-49"/>
       <use x="222.65625" xlink:href="#DejaVuSans-48"/>
       <use x="286.279297" xlink:href="#DejaVuSans-48"/>
      </g>
     </g>
    </g>
    <g id="ytick_6">
     <g id="line2d_10">
      <g>
       <use style="stroke:#000000;stroke-width:0.8;" x="57.6" xlink:href="#m217ee943d5" y="154.62407"/>
      </g>
     </g>
     <g id="text_11">
      <!-- 0.0125 -->
      <g transform="translate(15.609375 158.423288)scale(0.1 -0.1)">
       <use xlink:href="#DejaVuSans-48"/>
       <use x="63.623047" xlink:href="#DejaVuSans-46"/>
       <use x="95.410156" xlink:href="#DejaVuSans-48"/>
       <use x="159.033203" xlink:href="#DejaVuSans-49"/>
       <use x="222.65625" xlink:href="#DejaVuSans-50"/>
       <use x="286.279297" xlink:href="#DejaVuSans-53"/>
      </g>
     </g>
    </g>
    <g id="ytick_7">
     <g id="line2d_11">
      <g>
       <use style="stroke:#000000;stroke-width:0.8;" x="57.6" xlink:href="#m217ee943d5" y="124.032083"/>
      </g>
     </g>
     <g id="text_12">
      <!-- 0.0150 -->
      <g transform="translate(15.609375 127.831302)scale(0.1 -0.1)">
       <use xlink:href="#DejaVuSans-48"/>
       <use x="63.623047" xlink:href="#DejaVuSans-46"/>
       <use x="95.410156" xlink:href="#DejaVuSans-48"/>
       <use x="159.033203" xlink:href="#DejaVuSans-49"/>
       <use x="222.65625" xlink:href="#DejaVuSans-53"/>
       <use x="286.279297" xlink:href="#DejaVuSans-48"/>
      </g>
     </g>
    </g>
    <g id="ytick_8">
     <g id="line2d_12">
      <g>
       <use style="stroke:#000000;stroke-width:0.8;" x="57.6" xlink:href="#m217ee943d5" y="93.440097"/>
      </g>
     </g>
     <g id="text_13">
      <!-- 0.0175 -->
      <g transform="translate(15.609375 97.239316)scale(0.1 -0.1)">
       <use xlink:href="#DejaVuSans-48"/>
       <use x="63.623047" xlink:href="#DejaVuSans-46"/>
       <use x="95.410156" xlink:href="#DejaVuSans-48"/>
       <use x="159.033203" xlink:href="#DejaVuSans-49"/>
       <use x="222.65625" xlink:href="#DejaVuSans-55"/>
       <use x="286.279297" xlink:href="#DejaVuSans-53"/>
      </g>
     </g>
    </g>
    <g id="ytick_9">
     <g id="line2d_13">
      <g>
       <use style="stroke:#000000;stroke-width:0.8;" x="57.6" xlink:href="#m217ee943d5" y="62.848111"/>
      </g>
     </g>
     <g id="text_14">
      <!-- 0.0200 -->
      <g transform="translate(15.609375 66.64733)scale(0.1 -0.1)">
       <use xlink:href="#DejaVuSans-48"/>
       <use x="63.623047" xlink:href="#DejaVuSans-46"/>
       <use x="95.410156" xlink:href="#DejaVuSans-48"/>
       <use x="159.033203" xlink:href="#DejaVuSans-50"/>
       <use x="222.65625" xlink:href="#DejaVuSans-48"/>
       <use x="286.279297" xlink:href="#DejaVuSans-48"/>
      </g>
     </g>
    </g>
    <g id="text_15">
     <!-- Prob. Density (a.u.) -->
     <defs>
      <path d="M 19.671875 64.796875 
L 19.671875 37.40625 
L 32.078125 37.40625 
Q 38.96875 37.40625 42.71875 40.96875 
Q 46.484375 44.53125 46.484375 51.125 
Q 46.484375 57.671875 42.71875 61.234375 
Q 38.96875 64.796875 32.078125 64.796875 
z
M 9.8125 72.90625 
L 32.078125 72.90625 
Q 44.34375 72.90625 50.609375 67.359375 
Q 56.890625 61.8125 56.890625 51.125 
Q 56.890625 40.328125 50.609375 34.8125 
Q 44.34375 29.296875 32.078125 29.296875 
L 19.671875 29.296875 
L 19.671875 0 
L 9.8125 0 
z
" id="DejaVuSans-80"/>
      <path d="M 41.109375 46.296875 
Q 39.59375 47.171875 37.8125 47.578125 
Q 36.03125 48 33.890625 48 
Q 26.265625 48 22.1875 43.046875 
Q 18.109375 38.09375 18.109375 28.8125 
L 18.109375 0 
L 9.078125 0 
L 9.078125 54.6875 
L 18.109375 54.6875 
L 18.109375 46.1875 
Q 20.953125 51.171875 25.484375 53.578125 
Q 30.03125 56 36.53125 56 
Q 37.453125 56 38.578125 55.875 
Q 39.703125 55.765625 41.0625 55.515625 
z
" id="DejaVuSans-114"/>
      <path d="M 30.609375 48.390625 
Q 23.390625 48.390625 19.1875 42.75 
Q 14.984375 37.109375 14.984375 27.296875 
Q 14.984375 17.484375 19.15625 11.84375 
Q 23.34375 6.203125 30.609375 6.203125 
Q 37.796875 6.203125 41.984375 11.859375 
Q 46.1875 17.53125 46.1875 27.296875 
Q 46.1875 37.015625 41.984375 42.703125 
Q 37.796875 48.390625 30.609375 48.390625 
z
M 30.609375 56 
Q 42.328125 56 49.015625 48.375 
Q 55.71875 40.765625 55.71875 27.296875 
Q 55.71875 13.875 49.015625 6.21875 
Q 42.328125 -1.421875 30.609375 -1.421875 
Q 18.84375 -1.421875 12.171875 6.21875 
Q 5.515625 13.875 5.515625 27.296875 
Q 5.515625 40.765625 12.171875 48.375 
Q 18.84375 56 30.609375 56 
z
" id="DejaVuSans-111"/>
      <path d="M 48.6875 27.296875 
Q 48.6875 37.203125 44.609375 42.84375 
Q 40.53125 48.484375 33.40625 48.484375 
Q 26.265625 48.484375 22.1875 42.84375 
Q 18.109375 37.203125 18.109375 27.296875 
Q 18.109375 17.390625 22.1875 11.75 
Q 26.265625 6.109375 33.40625 6.109375 
Q 40.53125 6.109375 44.609375 11.75 
Q 48.6875 17.390625 48.6875 27.296875 
z
M 18.109375 46.390625 
Q 20.953125 51.265625 25.265625 53.625 
Q 29.59375 56 35.59375 56 
Q 45.5625 56 51.78125 48.09375 
Q 58.015625 40.1875 58.015625 27.296875 
Q 58.015625 14.40625 51.78125 6.484375 
Q 45.5625 -1.421875 35.59375 -1.421875 
Q 29.59375 -1.421875 25.265625 0.953125 
Q 20.953125 3.328125 18.109375 8.203125 
L 18.109375 0 
L 9.078125 0 
L 9.078125 75.984375 
L 18.109375 75.984375 
z
" id="DejaVuSans-98"/>
      <path id="DejaVuSans-32"/>
      <path d="M 19.671875 64.796875 
L 19.671875 8.109375 
L 31.59375 8.109375 
Q 46.6875 8.109375 53.6875 14.9375 
Q 60.6875 21.78125 60.6875 36.53125 
Q 60.6875 51.171875 53.6875 57.984375 
Q 46.6875 64.796875 31.59375 64.796875 
z
M 9.8125 72.90625 
L 30.078125 72.90625 
Q 51.265625 72.90625 61.171875 64.09375 
Q 71.09375 55.28125 71.09375 36.53125 
Q 71.09375 17.671875 61.125 8.828125 
Q 51.171875 0 30.078125 0 
L 9.8125 0 
z
" id="DejaVuSans-68"/>
      <path d="M 56.203125 29.59375 
L 56.203125 25.203125 
L 14.890625 25.203125 
Q 15.484375 15.921875 20.484375 11.0625 
Q 25.484375 6.203125 34.421875 6.203125 
Q 39.59375 6.203125 44.453125 7.46875 
Q 49.3125 8.734375 54.109375 11.28125 
L 54.109375 2.78125 
Q 49.265625 0.734375 44.1875 -0.34375 
Q 39.109375 -1.421875 33.890625 -1.421875 
Q 20.796875 -1.421875 13.15625 6.1875 
Q 5.515625 13.8125 5.515625 26.8125 
Q 5.515625 40.234375 12.765625 48.109375 
Q 20.015625 56 32.328125 56 
Q 43.359375 56 49.78125 48.890625 
Q 56.203125 41.796875 56.203125 29.59375 
z
M 47.21875 32.234375 
Q 47.125 39.59375 43.09375 43.984375 
Q 39.0625 48.390625 32.421875 48.390625 
Q 24.90625 48.390625 20.390625 44.140625 
Q 15.875 39.890625 15.1875 32.171875 
z
" id="DejaVuSans-101"/>
      <path d="M 54.890625 33.015625 
L 54.890625 0 
L 45.90625 0 
L 45.90625 32.71875 
Q 45.90625 40.484375 42.875 44.328125 
Q 39.84375 48.1875 33.796875 48.1875 
Q 26.515625 48.1875 22.3125 43.546875 
Q 18.109375 38.921875 18.109375 30.90625 
L 18.109375 0 
L 9.078125 0 
L 9.078125 54.6875 
L 18.109375 54.6875 
L 18.109375 46.1875 
Q 21.34375 51.125 25.703125 53.5625 
Q 30.078125 56 35.796875 56 
Q 45.21875 56 50.046875 50.171875 
Q 54.890625 44.34375 54.890625 33.015625 
z
" id="DejaVuSans-110"/>
      <path d="M 44.28125 53.078125 
L 44.28125 44.578125 
Q 40.484375 46.53125 36.375 47.5 
Q 32.28125 48.484375 27.875 48.484375 
Q 21.1875 48.484375 17.84375 46.4375 
Q 14.5 44.390625 14.5 40.28125 
Q 14.5 37.15625 16.890625 35.375 
Q 19.28125 33.59375 26.515625 31.984375 
L 29.59375 31.296875 
Q 39.15625 29.25 43.1875 25.515625 
Q 47.21875 21.78125 47.21875 15.09375 
Q 47.21875 7.46875 41.1875 3.015625 
Q 35.15625 -1.421875 24.609375 -1.421875 
Q 20.21875 -1.421875 15.453125 -0.5625 
Q 10.6875 0.296875 5.421875 2 
L 5.421875 11.28125 
Q 10.40625 8.6875 15.234375 7.390625 
Q 20.0625 6.109375 24.8125 6.109375 
Q 31.15625 6.109375 34.5625 8.28125 
Q 37.984375 10.453125 37.984375 14.40625 
Q 37.984375 18.0625 35.515625 20.015625 
Q 33.0625 21.96875 24.703125 23.78125 
L 21.578125 24.515625 
Q 13.234375 26.265625 9.515625 29.90625 
Q 5.8125 33.546875 5.8125 39.890625 
Q 5.8125 47.609375 11.28125 51.796875 
Q 16.75 56 26.8125 56 
Q 31.78125 56 36.171875 55.265625 
Q 40.578125 54.546875 44.28125 53.078125 
z
" id="DejaVuSans-115"/>
      <path d="M 9.421875 54.6875 
L 18.40625 54.6875 
L 18.40625 0 
L 9.421875 0 
z
M 9.421875 75.984375 
L 18.40625 75.984375 
L 18.40625 64.59375 
L 9.421875 64.59375 
z
" id="DejaVuSans-105"/>
      <path d="M 32.171875 -5.078125 
Q 28.375 -14.84375 24.75 -17.8125 
Q 21.140625 -20.796875 15.09375 -20.796875 
L 7.90625 -20.796875 
L 7.90625 -13.28125 
L 13.1875 -13.28125 
Q 16.890625 -13.28125 18.9375 -11.515625 
Q 21 -9.765625 23.484375 -3.21875 
L 25.09375 0.875 
L 2.984375 54.6875 
L 12.5 54.6875 
L 29.59375 11.921875 
L 46.6875 54.6875 
L 56.203125 54.6875 
z
" id="DejaVuSans-121"/>
      <path d="M 31 75.875 
Q 24.46875 64.65625 21.28125 53.65625 
Q 18.109375 42.671875 18.109375 31.390625 
Q 18.109375 20.125 21.3125 9.0625 
Q 24.515625 -2 31 -13.1875 
L 23.1875 -13.1875 
Q 15.875 -1.703125 12.234375 9.375 
Q 8.59375 20.453125 8.59375 31.390625 
Q 8.59375 42.28125 12.203125 53.3125 
Q 15.828125 64.359375 23.1875 75.875 
z
" id="DejaVuSans-40"/>
      <path d="M 34.28125 27.484375 
Q 23.390625 27.484375 19.1875 25 
Q 14.984375 22.515625 14.984375 16.5 
Q 14.984375 11.71875 18.140625 8.90625 
Q 21.296875 6.109375 26.703125 6.109375 
Q 34.1875 6.109375 38.703125 11.40625 
Q 43.21875 16.703125 43.21875 25.484375 
L 43.21875 27.484375 
z
M 52.203125 31.203125 
L 52.203125 0 
L 43.21875 0 
L 43.21875 8.296875 
Q 40.140625 3.328125 35.546875 0.953125 
Q 30.953125 -1.421875 24.3125 -1.421875 
Q 15.921875 -1.421875 10.953125 3.296875 
Q 6 8.015625 6 15.921875 
Q 6 25.140625 12.171875 29.828125 
Q 18.359375 34.515625 30.609375 34.515625 
L 43.21875 34.515625 
L 43.21875 35.40625 
Q 43.21875 41.609375 39.140625 45 
Q 35.0625 48.390625 27.6875 48.390625 
Q 23 48.390625 18.546875 47.265625 
Q 14.109375 46.140625 10.015625 43.890625 
L 10.015625 52.203125 
Q 14.9375 54.109375 19.578125 55.046875 
Q 24.21875 56 28.609375 56 
Q 40.484375 56 46.34375 49.84375 
Q 52.203125 43.703125 52.203125 31.203125 
z
" id="DejaVuSans-97"/>
      <path d="M 8.5 21.578125 
L 8.5 54.6875 
L 17.484375 54.6875 
L 17.484375 21.921875 
Q 17.484375 14.15625 20.5 10.265625 
Q 23.53125 6.390625 29.59375 6.390625 
Q 36.859375 6.390625 41.078125 11.03125 
Q 45.3125 15.671875 45.3125 23.6875 
L 45.3125 54.6875 
L 54.296875 54.6875 
L 54.296875 0 
L 45.3125 0 
L 45.3125 8.40625 
Q 42.046875 3.421875 37.71875 1 
Q 33.40625 -1.421875 27.6875 -1.421875 
Q 18.265625 -1.421875 13.375 4.4375 
Q 8.5 10.296875 8.5 21.578125 
z
M 31.109375 56 
z
" id="DejaVuSans-117"/>
      <path d="M 8.015625 75.875 
L 15.828125 75.875 
Q 23.140625 64.359375 26.78125 53.3125 
Q 30.421875 42.28125 30.421875 31.390625 
Q 30.421875 20.453125 26.78125 9.375 
Q 23.140625 -1.703125 15.828125 -13.1875 
L 8.015625 -13.1875 
Q 14.5 -2 17.703125 9.0625 
Q 20.90625 20.125 20.90625 31.390625 
Q 20.90625 42.671875 17.703125 53.65625 
Q 14.5 64.65625 8.015625 75.875 
z
" id="DejaVuSans-41"/>
     </defs>
     <g transform="translate(9.529687 222.917844)rotate(-90)scale(0.1 -0.1)">
      <use xlink:href="#DejaVuSans-80"/>
      <use x="60.287109" xlink:href="#DejaVuSans-114"/>
      <use x="101.369141" xlink:href="#DejaVuSans-111"/>
      <use x="162.550781" xlink:href="#DejaVuSans-98"/>
      <use x="226.027344" xlink:href="#DejaVuSans-46"/>
      <use x="257.814453" xlink:href="#DejaVuSans-32"/>
      <use x="289.601562" xlink:href="#DejaVuSans-68"/>
      <use x="366.603516" xlink:href="#DejaVuSans-101"/>
      <use x="428.126953" xlink:href="#DejaVuSans-110"/>
      <use x="491.505859" xlink:href="#DejaVuSans-115"/>
      <use x="543.605469" xlink:href="#DejaVuSans-105"/>
      <use x="571.388672" xlink:href="#DejaVuSans-116"/>
      <use x="610.597656" xlink:href="#DejaVuSans-121"/>
      <use x="669.777344" xlink:href="#DejaVuSans-32"/>
      <use x="701.564453" xlink:href="#DejaVuSans-40"/>
      <use x="740.578125" xlink:href="#DejaVuSans-97"/>
      <use x="801.857422" xlink:href="#DejaVuSans-46"/>
      <use x="833.644531" xlink:href="#DejaVuSans-117"/>
      <use x="897.023438" xlink:href="#DejaVuSans-46"/>
      <use x="928.810547" xlink:href="#DejaVuSans-41"/>
     </g>
    </g>
   </g>
   <g id="patch_9">
    <path d="M 57.6 307.584 
L 57.6 41.472 
" style="fill:none;stroke:#000000;stroke-linecap:square;stroke-linejoin:miter;stroke-width:0.8;"/>
   </g>
   <g id="patch_10">
    <path d="M 414.72 307.584 
L 414.72 41.472 
" style="fill:none;stroke:#000000;stroke-linecap:square;stroke-linejoin:miter;stroke-width:0.8;"/>
   </g>
   <g id="patch_11">
    <path d="M 57.6 307.584 
L 414.72 307.584 
" style="fill:none;stroke:#000000;stroke-linecap:square;stroke-linejoin:miter;stroke-width:0.8;"/>
   </g>
   <g id="patch_12">
    <path d="M 57.6 41.472 
L 414.72 41.472 
" style="fill:none;stroke:#000000;stroke-linecap:square;stroke-linejoin:miter;stroke-width:0.8;"/>
   </g>
   <g id="legend_1">
    <g id="patch_13">
     <path d="M 325.405938 137.54075 
L 407.72 137.54075 
Q 409.72 137.54075 409.72 135.54075 
L 409.72 48.472 
Q 409.72 46.472 407.72 46.472 
L 325.405938 46.472 
Q 323.405938 46.472 323.405938 48.472 
L 323.405938 135.54075 
Q 323.405938 137.54075 325.405938 137.54075 
z
" style="fill:#ffffff;opacity:0.8;stroke:#cccccc;stroke-linejoin:miter;"/>
    </g>
    <g id="patch_14">
     <path d="M 327.405938 58.070438 
L 347.405938 58.070438 
L 347.405938 51.070438 
L 327.405938 51.070438 
z
" style="fill:none;stroke:#1f77b4;stroke-linejoin:miter;"/>
    </g>
    <g id="text_16">
     <!-- quark -->
     <defs>
      <path d="M 14.796875 27.296875 
Q 14.796875 17.390625 18.875 11.75 
Q 22.953125 6.109375 30.078125 6.109375 
Q 37.203125 6.109375 41.296875 11.75 
Q 45.40625 17.390625 45.40625 27.296875 
Q 45.40625 37.203125 41.296875 42.84375 
Q 37.203125 48.484375 30.078125 48.484375 
Q 22.953125 48.484375 18.875 42.84375 
Q 14.796875 37.203125 14.796875 27.296875 
z
M 45.40625 8.203125 
Q 42.578125 3.328125 38.25 0.953125 
Q 33.9375 -1.421875 27.875 -1.421875 
Q 17.96875 -1.421875 11.734375 6.484375 
Q 5.515625 14.40625 5.515625 27.296875 
Q 5.515625 40.1875 11.734375 48.09375 
Q 17.96875 56 27.875 56 
Q 33.9375 56 38.25 53.625 
Q 42.578125 51.265625 45.40625 46.390625 
L 45.40625 54.6875 
L 54.390625 54.6875 
L 54.390625 -20.796875 
L 45.40625 -20.796875 
z
" id="DejaVuSans-113"/>
      <path d="M 9.078125 75.984375 
L 18.109375 75.984375 
L 18.109375 31.109375 
L 44.921875 54.6875 
L 56.390625 54.6875 
L 27.390625 29.109375 
L 57.625 0 
L 45.90625 0 
L 18.109375 26.703125 
L 18.109375 0 
L 9.078125 0 
z
" id="DejaVuSans-107"/>
     </defs>
     <g transform="translate(355.405938 58.070438)scale(0.1 -0.1)">
      <use xlink:href="#DejaVuSans-113"/>
      <use x="63.476562" xlink:href="#DejaVuSans-117"/>
      <use x="126.855469" xlink:href="#DejaVuSans-97"/>
      <use x="188.134766" xlink:href="#DejaVuSans-114"/>
      <use x="229.248047" xlink:href="#DejaVuSans-107"/>
     </g>
    </g>
    <g id="patch_15">
     <path d="M 327.405938 72.748563 
L 347.405938 72.748563 
L 347.405938 65.748563 
L 327.405938 65.748563 
z
" style="fill:none;stroke:#ff7f0e;stroke-linejoin:miter;"/>
    </g>
    <g id="text_17">
     <!-- gluon -->
     <defs>
      <path d="M 45.40625 27.984375 
Q 45.40625 37.75 41.375 43.109375 
Q 37.359375 48.484375 30.078125 48.484375 
Q 22.859375 48.484375 18.828125 43.109375 
Q 14.796875 37.75 14.796875 27.984375 
Q 14.796875 18.265625 18.828125 12.890625 
Q 22.859375 7.515625 30.078125 7.515625 
Q 37.359375 7.515625 41.375 12.890625 
Q 45.40625 18.265625 45.40625 27.984375 
z
M 54.390625 6.78125 
Q 54.390625 -7.171875 48.1875 -13.984375 
Q 42 -20.796875 29.203125 -20.796875 
Q 24.46875 -20.796875 20.265625 -20.09375 
Q 16.0625 -19.390625 12.109375 -17.921875 
L 12.109375 -9.1875 
Q 16.0625 -11.328125 19.921875 -12.34375 
Q 23.78125 -13.375 27.78125 -13.375 
Q 36.625 -13.375 41.015625 -8.765625 
Q 45.40625 -4.15625 45.40625 5.171875 
L 45.40625 9.625 
Q 42.625 4.78125 38.28125 2.390625 
Q 33.9375 0 27.875 0 
Q 17.828125 0 11.671875 7.65625 
Q 5.515625 15.328125 5.515625 27.984375 
Q 5.515625 40.671875 11.671875 48.328125 
Q 17.828125 56 27.875 56 
Q 33.9375 56 38.28125 53.609375 
Q 42.625 51.21875 45.40625 46.390625 
L 45.40625 54.6875 
L 54.390625 54.6875 
z
" id="DejaVuSans-103"/>
      <path d="M 9.421875 75.984375 
L 18.40625 75.984375 
L 18.40625 0 
L 9.421875 0 
z
" id="DejaVuSans-108"/>
     </defs>
     <g transform="translate(355.405938 72.748563)scale(0.1 -0.1)">
      <use xlink:href="#DejaVuSans-103"/>
      <use x="63.476562" xlink:href="#DejaVuSans-108"/>
      <use x="91.259766" xlink:href="#DejaVuSans-117"/>
      <use x="154.638672" xlink:href="#DejaVuSans-111"/>
      <use x="215.820312" xlink:href="#DejaVuSans-110"/>
     </g>
    </g>
    <g id="patch_16">
     <path d="M 327.405938 87.426688 
L 347.405938 87.426688 
L 347.405938 80.426688 
L 327.405938 80.426688 
z
" style="fill:none;stroke:#2ca02c;stroke-linejoin:miter;"/>
    </g>
    <g id="text_18">
     <!-- W -->
     <defs>
      <path d="M 3.328125 72.90625 
L 13.28125 72.90625 
L 28.609375 11.28125 
L 43.890625 72.90625 
L 54.984375 72.90625 
L 70.3125 11.28125 
L 85.59375 72.90625 
L 95.609375 72.90625 
L 77.296875 0 
L 64.890625 0 
L 49.515625 63.28125 
L 33.984375 0 
L 21.578125 0 
z
" id="DejaVuSans-87"/>
     </defs>
     <g transform="translate(355.405938 87.426688)scale(0.1 -0.1)">
      <use xlink:href="#DejaVuSans-87"/>
     </g>
    </g>
    <g id="patch_17">
     <path d="M 327.405938 102.104813 
L 347.405938 102.104813 
L 347.405938 95.104813 
L 327.405938 95.104813 
z
" style="fill:none;stroke:#d62728;stroke-linejoin:miter;"/>
    </g>
    <g id="text_19">
     <!-- Z -->
     <defs>
      <path d="M 5.609375 72.90625 
L 62.890625 72.90625 
L 62.890625 65.375 
L 16.796875 8.296875 
L 64.015625 8.296875 
L 64.015625 0 
L 4.5 0 
L 4.5 7.515625 
L 50.59375 64.59375 
L 5.609375 64.59375 
z
" id="DejaVuSans-90"/>
     </defs>
     <g transform="translate(355.405938 102.104813)scale(0.1 -0.1)">
      <use xlink:href="#DejaVuSans-90"/>
     </g>
    </g>
    <g id="patch_18">
     <path d="M 327.405938 116.782938 
L 347.405938 116.782938 
L 347.405938 109.782938 
L 327.405938 109.782938 
z
" style="fill:none;stroke:#9467bd;stroke-linejoin:miter;"/>
    </g>
    <g id="text_20">
     <!-- top -->
     <g transform="translate(355.405938 116.782938)scale(0.1 -0.1)">
      <use xlink:href="#DejaVuSans-116"/>
      <use x="39.208984" xlink:href="#DejaVuSans-111"/>
      <use x="100.390625" xlink:href="#DejaVuSans-112"/>
     </g>
    </g>
    <g id="patch_19">
     <path d="M 327.405938 131.461063 
L 347.405938 131.461063 
L 347.405938 124.461063 
L 327.405938 124.461063 
z
" style="fill:none;stroke:#000000;stroke-linejoin:miter;"/>
    </g>
    <g id="text_21">
     <!-- undefined -->
     <defs>
      <path d="M 45.40625 46.390625 
L 45.40625 75.984375 
L 54.390625 75.984375 
L 54.390625 0 
L 45.40625 0 
L 45.40625 8.203125 
Q 42.578125 3.328125 38.25 0.953125 
Q 33.9375 -1.421875 27.875 -1.421875 
Q 17.96875 -1.421875 11.734375 6.484375 
Q 5.515625 14.40625 5.515625 27.296875 
Q 5.515625 40.1875 11.734375 48.09375 
Q 17.96875 56 27.875 56 
Q 33.9375 56 38.25 53.625 
Q 42.578125 51.265625 45.40625 46.390625 
z
M 14.796875 27.296875 
Q 14.796875 17.390625 18.875 11.75 
Q 22.953125 6.109375 30.078125 6.109375 
Q 37.203125 6.109375 41.296875 11.75 
Q 45.40625 17.390625 45.40625 27.296875 
Q 45.40625 37.203125 41.296875 42.84375 
Q 37.203125 48.484375 30.078125 48.484375 
Q 22.953125 48.484375 18.875 42.84375 
Q 14.796875 37.203125 14.796875 27.296875 
z
" id="DejaVuSans-100"/>
      <path d="M 37.109375 75.984375 
L 37.109375 68.5 
L 28.515625 68.5 
Q 23.6875 68.5 21.796875 66.546875 
Q 19.921875 64.59375 19.921875 59.515625 
L 19.921875 54.6875 
L 34.71875 54.6875 
L 34.71875 47.703125 
L 19.921875 47.703125 
L 19.921875 0 
L 10.890625 0 
L 10.890625 47.703125 
L 2.296875 47.703125 
L 2.296875 54.6875 
L 10.890625 54.6875 
L 10.890625 58.5 
Q 10.890625 67.625 15.140625 71.796875 
Q 19.390625 75.984375 28.609375 75.984375 
z
" id="DejaVuSans-102"/>
     </defs>
     <g transform="translate(355.405938 131.461063)scale(0.1 -0.1)">
      <use xlink:href="#DejaVuSans-117"/>
      <use x="63.378906" xlink:href="#DejaVuSans-110"/>
      <use x="126.757812" xlink:href="#DejaVuSans-100"/>
      <use x="190.234375" xlink:href="#DejaVuSans-101"/>
      <use x="251.757812" xlink:href="#DejaVuSans-102"/>
      <use x="286.962891" xlink:href="#DejaVuSans-105"/>
      <use x="314.746094" xlink:href="#DejaVuSans-110"/>
      <use x="378.125" xlink:href="#DejaVuSans-101"/>
      <use x="439.648438" xlink:href="#DejaVuSans-100"/>
     </g>
    </g>
   </g>
  </g>
 </g>
 <defs>
  <clipPath id="p0805c62585">
   <rect height="266.112" width="357.12" x="57.6" y="41.472"/>
  </clipPath>
 </defs>
</svg>
