<?xml version="1.0" encoding="utf-8" standalone="no"?>
<!DOCTYPE svg PUBLIC "-//W3C//DTD SVG 1.1//EN"
  "http://www.w3.org/Graphics/SVG/1.1/DTD/svg11.dtd">
<!-- Created with matplotlib (https://matplotlib.org/) -->
<svg height="345.6pt" version="1.1" viewBox="0 0 460.8 345.6" width="460.8pt" xmlns="http://www.w3.org/2000/svg" xmlns:xlink="http://www.w3.org/1999/xlink">
 <defs>
  <style type="text/css">
*{stroke-linecap:butt;stroke-linejoin:round;}
  </style>
 </defs>
 <g id="figure_1">
  <g id="patch_1">
   <path d="M 0 345.6 
L 460.8 345.6 
L 460.8 0 
L 0 0 
z
" style="fill:#ffffff;"/>
  </g>
  <g id="axes_1">
   <g id="patch_2">
    <path d="M 57.6 307.584 
L 414.72 307.584 
L 414.72 41.472 
L 57.6 41.472 
z
" style="fill:#ffffff;"/>
   </g>
   <g id="patch_3">
    <path clip-path="url(#p93ef6e88ce)" d="M 73.832727 307.584 
L 73.832727 161.625342 
L 77.079273 161.625342 
L 77.079273 54.144 
L 80.325818 54.144 
L 80.325818 210.961741 
L 83.572364 210.961741 
L 83.572364 248.717803 
L 86.818909 248.717803 
L 86.818909 261.299264 
L 90.065455 261.299264 
L 90.065455 266.183265 
L 93.312001 266.183265 
L 93.312001 272.956237 
L 96.558545 272.956237 
L 96.558545 277.000695 
L 99.805092 277.000695 
L 99.805092 279.489336 
L 103.051636 279.489336 
L 103.051636 282.312796 
L 106.298183 282.312796 
L 106.298183 283.438846 
L 109.544729 283.438846 
L 109.544729 281.884695 
L 112.791272 281.884695 
L 112.791272 284.060174 
L 116.037818 284.060174 
L 116.037818 290.609934 
L 119.284364 290.609934 
L 119.284364 287.728171 
L 122.530911 287.728171 
L 122.530911 287.433334 
L 125.777453 287.433334 
L 125.777453 287.778144 
L 132.270546 287.798136 
L 132.270546 292.149091 
L 135.517092 292.149091 
L 135.517092 289.055782 
L 138.763639 289.055782 
L 138.763639 292.453925 
L 142.010181 292.453925 
L 142.010181 293.754882 
L 145.256724 293.754882 
L 145.256724 293.59497 
L 148.503274 293.59497 
L 148.503274 292.15742 
L 151.749817 292.15742 
L 151.749817 294.202971 
L 154.996367 294.202971 
L 154.996367 294.677711 
L 158.242909 294.677711 
L 158.242909 295.200761 
L 161.489452 295.200761 
L 161.489452 295.447292 
L 164.736002 295.447292 
L 164.736002 296.143578 
L 167.982545 296.143578 
L 167.982545 297.514496 
L 171.229087 297.514496 
L 171.229087 298.988691 
L 174.475637 298.988691 
L 174.475637 296.871514 
L 177.72218 296.871514 
L 177.72218 298.702181 
L 180.96873 298.702181 
L 180.96873 298.184131 
L 184.215273 298.184131 
L 184.215273 299.033668 
L 187.461815 299.033668 
L 187.461815 299.733286 
L 190.708366 299.733286 
L 190.708366 299.240221 
L 193.954908 299.240221 
L 193.954908 300.737737 
L 197.201458 300.737737 
L 197.201458 300.885989 
L 200.448001 300.885989 
L 200.448001 299.483422 
L 203.694551 299.483422 
L 203.694551 297.297947 
L 206.941086 297.297947 
L 206.941086 301.67889 
L 210.187636 301.67889 
L 210.187636 300.264663 
L 213.434186 300.264663 
L 213.434186 301.837137 
L 216.680721 301.837137 
L 216.680721 301.150845 
L 219.927272 301.150845 
L 219.927272 302.836591 
L 223.173822 302.836591 
L 223.173822 301.535635 
L 226.420357 301.535635 
L 226.420357 302.007044 
L 229.666907 302.007044 
L 229.666907 304.184189 
L 236.160007 304.272474 
L 236.160007 303.916002 
L 239.406542 303.916002 
L 239.406542 303.789405 
L 242.653092 303.789405 
L 242.653092 303.154752 
L 245.899642 303.154752 
L 245.899642 304.122556 
L 249.146178 304.122556 
L 249.146178 305.266932 
L 252.392728 305.266932 
L 252.392728 304.622283 
L 255.639278 304.622283 
L 255.639278 304.074249 
L 258.885813 304.074249 
L 258.885813 305.37354 
L 262.132363 305.37354 
L 262.132363 305.721683 
L 265.378913 305.721683 
L 265.378913 304.590634 
L 268.625448 304.590634 
L 268.625448 304.93378 
L 271.871998 304.93378 
L 271.871998 305.226953 
L 275.118548 305.226953 
L 275.118548 305.630067 
L 278.365084 305.630067 
L 278.365084 304.795522 
L 281.611634 304.795522 
L 281.611634 305.713354 
L 284.858184 305.713354 
L 284.858184 305.400192 
L 288.104734 305.400192 
L 288.104734 306.163109 
L 291.351269 306.163109 
L 291.351269 306.399647 
L 294.597819 306.399647 
L 294.597819 306.256391 
L 297.844369 306.256391 
L 297.844369 305.974878 
L 301.090904 305.974878 
L 301.090904 306.233071 
L 304.337454 306.233071 
L 304.337454 306.396315 
L 307.584005 306.396315 
L 307.584005 307.112591 
L 310.83054 307.112591 
L 310.83054 307.350794 
L 314.07709 307.350794 
L 314.07709 307.230859 
L 320.570175 307.13258 
L 320.570175 306.949346 
L 323.816725 306.949346 
L 323.816725 307.584 
L 327.06326 307.584 
L 327.06326 307.337468 
L 330.309825 307.337468 
L 330.309825 307.584 
L 340.049461 307.584 
L 340.049461 307.069281 
L 343.295996 307.069281 
L 343.295996 307.584 
L 346.542531 307.584 
L 346.542531 307.387441 
L 349.789096 307.387441 
L 349.789096 307.584 
L 366.021832 307.584 
L 366.021832 307.362454 
L 369.268367 307.362454 
L 369.268367 307.584 
L 398.487273 307.584 
L 398.487273 307.584 
" style="fill:none;stroke:#1f77b4;stroke-linejoin:miter;"/>
   </g>
   <g id="patch_4">
    <path clip-path="url(#p93ef6e88ce)" d="M 73.832727 307.584 
L 73.832727 275.744715 
L 77.079273 275.744715 
L 77.079273 161.532061 
L 80.325818 161.532061 
L 80.325818 147.026618 
L 83.572364 147.026618 
L 83.572364 202.599631 
L 86.818909 202.599631 
L 86.818909 222.97852 
L 90.065455 222.97852 
L 90.065455 231.515514 
L 93.312001 231.515514 
L 93.312001 238.048625 
L 96.558545 238.048625 
L 96.558545 248.801083 
L 99.805092 248.801083 
L 99.805092 248.53457 
L 103.051636 248.53457 
L 103.051636 250.09372 
L 106.298183 250.09372 
L 106.298183 251.764462 
L 109.544729 251.764462 
L 109.544729 256.295326 
L 112.791272 256.295326 
L 112.791272 263.093286 
L 116.037818 263.093286 
L 116.037818 262.693505 
L 119.284364 262.693505 
L 119.284364 260.664609 
L 122.530911 260.664609 
L 122.530911 267.257677 
L 125.777453 267.257677 
L 125.777453 263.343151 
L 129.024 263.343151 
L 129.024 264.73572 
L 132.270546 264.73572 
L 132.270546 270.912354 
L 135.517092 270.912354 
L 135.517092 267.227689 
L 138.763639 267.227689 
L 138.763639 269.897906 
L 142.010181 269.897906 
L 142.010181 270.254375 
L 145.256724 270.254375 
L 145.256724 271.660276 
L 148.503274 271.660276 
L 148.503274 274.330486 
L 151.749817 274.330486 
L 151.749817 274.753587 
L 154.996367 274.753587 
L 154.996367 272.035074 
L 158.242909 272.035074 
L 158.242909 274.580351 
L 161.489452 274.580351 
L 161.489452 274.856868 
L 164.736002 274.856868 
L 164.736002 274.275514 
L 167.982545 274.275514 
L 167.982545 277.037342 
L 171.229087 277.037342 
L 171.229087 278.528195 
L 174.475637 278.528195 
L 174.475637 274.705281 
L 177.72218 274.705281 
L 177.72218 275.190013 
L 180.96873 275.190013 
L 180.96873 279.29944 
L 184.215273 279.29944 
L 184.215273 278.40826 
L 187.461815 278.40826 
L 187.461815 280.162301 
L 190.708366 280.162301 
L 190.708366 284.641525 
L 193.954908 284.641525 
L 193.954908 282.024619 
L 197.201458 282.024619 
L 197.201458 284.265061 
L 200.448001 284.265061 
L 200.448001 286.780354 
L 203.694551 286.780354 
L 203.694551 286.227324 
L 206.941086 286.227324 
L 206.941086 287.95971 
L 210.187636 287.95971 
L 210.187636 291.112991 
L 213.434186 291.112991 
L 213.434186 285.017984 
L 216.680721 285.017984 
L 216.680721 288.289531 
L 219.927272 288.289531 
L 219.927272 288.067985 
L 223.173822 288.067985 
L 223.173822 290.729868 
L 226.420357 290.729868 
L 226.420357 291.336202 
L 229.666907 291.336202 
L 229.666907 291.487788 
L 232.913457 291.487788 
L 232.913457 288.91419 
L 236.160007 288.91419 
L 236.160007 292.965313 
L 242.653092 293.043601 
L 242.653092 295.435631 
L 245.899642 295.435631 
L 245.899642 292.120773 
L 249.146178 292.120773 
L 249.146178 295.690493 
L 252.392728 295.690493 
L 252.392728 296.180225 
L 255.639278 296.180225 
L 255.639278 298.432329 
L 258.885813 298.432329 
L 258.885813 297.061411 
L 262.132363 297.061411 
L 262.132363 297.464524 
L 265.378913 297.464524 
L 265.378913 298.790467 
L 268.625448 298.790467 
L 268.625448 297.959254 
L 271.871998 297.959254 
L 271.871998 299.446775 
L 275.118548 299.446775 
L 275.118548 300.596148 
L 278.365084 300.596148 
L 278.365084 300.989267 
L 281.611634 300.989267 
L 281.611634 300.427906 
L 284.858184 300.427906 
L 284.858184 301.432359 
L 291.351269 301.339076 
L 291.351269 301.58061 
L 294.597819 301.58061 
L 294.597819 302.065346 
L 297.844369 302.065346 
L 297.844369 301.035907 
L 301.090904 301.035907 
L 301.090904 305.085364 
L 304.337454 305.085364 
L 304.337454 303.061468 
L 307.584005 303.061468 
L 307.584005 302.776623 
L 310.83054 302.776623 
L 310.83054 304.024276 
L 314.07709 304.024276 
L 314.07709 304.530666 
L 317.32364 304.530666 
L 317.32364 305.358548 
L 320.570175 305.358548 
L 320.570175 305.210296 
L 323.816725 305.210296 
L 323.816725 306.761116 
L 330.309825 306.779439 
L 330.309825 306.174769 
L 333.556361 306.174769 
L 333.556361 306.506255 
L 340.049461 306.407975 
L 340.049461 307.157566 
L 346.542531 307.185884 
L 346.542531 307.329139 
L 353.035631 307.314147 
L 353.035631 307.119254 
L 356.282196 307.119254 
L 356.282196 307.382443 
L 362.775267 307.397435 
L 362.775267 307.584 
L 372.514902 307.584 
L 372.514902 307.379112 
L 375.761467 307.379112 
L 375.761467 307.584 
L 379.008002 307.584 
L 379.008002 307.349128 
L 382.254537 307.349128 
L 382.254537 307.584 
L 395.240738 307.584 
L 395.240738 307.417424 
L 398.487273 307.417424 
L 398.487273 307.584 
L 398.487273 307.584 
" style="fill:none;stroke:#ff7f0e;stroke-linejoin:miter;"/>
   </g>
   <g id="patch_5">
    <path clip-path="url(#p93ef6e88ce)" d="M 73.832727 307.584 
L 73.832727 271.978434 
L 77.079273 271.978434 
L 77.079273 238.723255 
L 80.325818 238.723255 
L 80.325818 281.246706 
L 83.572364 281.246706 
L 83.572364 292.6255 
L 86.818909 292.6255 
L 86.818909 295.972006 
L 90.065455 295.972006 
L 90.065455 297.143033 
L 93.312001 297.143033 
L 93.312001 297.632766 
L 96.558545 297.632766 
L 96.558545 299.175257 
L 99.805092 299.175257 
L 99.805092 298.122499 
L 103.051636 298.122499 
L 103.051636 299.448441 
L 106.298183 299.448441 
L 106.298183 299.738283 
L 109.544729 299.738283 
L 109.544729 298.950379 
L 112.791272 298.950379 
L 112.791272 299.238556 
L 116.037818 299.238556 
L 116.037818 300.321297 
L 119.284364 300.321297 
L 119.284364 297.183011 
L 122.530911 297.183011 
L 122.530911 294.001415 
L 125.777453 294.001415 
L 125.777453 284.764789 
L 129.024 284.764789 
L 129.024 277.062326 
L 132.270546 277.062326 
L 132.270546 263.258199 
L 135.517092 263.258199 
L 135.517092 252.289184 
L 138.763639 252.289184 
L 138.763639 242.199696 
L 142.010181 242.199696 
L 142.010181 230.589359 
L 145.256724 230.589359 
L 145.256724 210.060582 
L 148.503274 210.060582 
L 148.503274 193.452971 
L 151.749817 193.452971 
L 151.749817 160.895731 
L 154.996367 160.895731 
L 154.996367 133.417409 
L 158.242909 133.417409 
L 158.242909 166.865816 
L 161.489452 166.865816 
L 161.489452 238.315146 
L 164.736002 238.315146 
L 164.736002 287.410014 
L 167.982545 287.410014 
L 167.982545 304.217504 
L 171.229087 304.217504 
L 171.229087 306.741127 
L 174.475637 306.741127 
L 174.475637 307.249183 
L 177.72218 307.249183 
L 177.72218 307.379112 
L 180.96873 307.379112 
L 180.96873 307.492383 
L 184.215273 307.492383 
L 184.215273 307.370783 
L 193.954908 307.319145 
L 193.954908 307.509041 
L 197.201458 307.509041 
L 197.201458 307.367452 
L 200.448001 307.367452 
L 200.448001 307.172558 
L 206.941086 307.185884 
L 206.941086 307.480723 
L 210.187636 307.480723 
L 210.187636 307.234191 
L 213.434186 307.234191 
L 213.434186 307.389106 
L 216.680721 307.389106 
L 216.680721 307.162563 
L 223.173822 307.197544 
L 223.173822 307.325808 
L 226.420357 307.325808 
L 226.420357 306.821083 
L 229.666907 306.821083 
L 229.666907 307.19921 
L 232.913457 307.19921 
L 232.913457 307.584 
L 236.160007 307.584 
L 236.160007 307.43075 
L 239.406542 307.43075 
L 239.406542 307.227528 
L 245.899642 307.295824 
L 245.899642 307.584 
L 249.146178 307.584 
L 249.146178 307.347462 
L 252.392728 307.347462 
L 252.392728 307.584 
L 258.885813 307.584 
L 258.885813 307.357457 
L 262.132363 307.357457 
L 262.132363 307.184218 
L 265.378913 307.184218 
L 265.378913 307.442411 
L 268.625448 307.442411 
L 268.625448 307.057621 
L 271.871998 307.057621 
L 271.871998 307.584 
L 281.611634 307.584 
L 281.611634 307.35246 
L 284.858184 307.35246 
L 284.858184 307.584 
L 288.104734 307.584 
L 288.104734 307.452405 
L 291.351269 307.452405 
L 291.351269 307.584 
L 398.487273 307.584 
L 398.487273 307.584 
" style="fill:none;stroke:#2ca02c;stroke-linejoin:miter;"/>
   </g>
   <g id="patch_6">
    <path clip-path="url(#p93ef6e88ce)" d="M 73.832727 307.584 
L 73.832727 274.698619 
L 77.079273 274.698619 
L 77.079273 243.224127 
L 80.325818 243.224127 
L 80.325818 282.036279 
L 83.572364 282.036279 
L 83.572364 292.279023 
L 86.818909 292.279023 
L 86.818909 297.4462 
L 90.065455 297.4462 
L 90.065455 297.194672 
L 93.312001 297.194672 
L 93.312001 299.508408 
L 96.558545 299.508408 
L 96.558545 300.331292 
L 99.805092 300.331292 
L 99.805092 300.051445 
L 103.051636 300.051445 
L 103.051636 299.673318 
L 106.298183 299.673318 
L 106.298183 300.917639 
L 109.544729 300.917639 
L 109.544729 299.851554 
L 112.791272 299.851554 
L 112.791272 298.712175 
L 116.037818 298.712175 
L 116.037818 298.14915 
L 119.284364 298.14915 
L 119.284364 298.802128 
L 122.530911 298.802128 
L 122.530911 300.374601 
L 125.777453 300.374601 
L 125.777453 299.924848 
L 129.024 299.924848 
L 129.024 296.213541 
L 132.270546 296.213541 
L 132.270546 290.64158 
L 135.517092 290.64158 
L 135.517092 280.263913 
L 138.763639 280.263913 
L 138.763639 272.374887 
L 142.010181 272.374887 
L 142.010181 263.098282 
L 145.256724 263.098282 
L 145.256724 254.481323 
L 148.503274 254.481323 
L 148.503274 242.87433 
L 151.749817 242.87433 
L 151.749817 230.351154 
L 154.996367 230.351154 
L 154.996367 218.396027 
L 158.242909 218.396027 
L 158.242909 201.318671 
L 161.489452 201.318671 
L 161.489452 177.418386 
L 164.736002 177.418386 
L 164.736002 153.089999 
L 167.982545 153.089999 
L 167.982545 150.393146 
L 171.229087 150.393146 
L 171.229087 206.187676 
L 174.475637 206.187676 
L 174.475637 256.840036 
L 177.72218 256.840036 
L 177.72218 294.064713 
L 180.96873 294.064713 
L 180.96873 304.607291 
L 184.215273 304.607291 
L 184.215273 307.220865 
L 187.461815 307.220865 
L 187.461815 307.109259 
L 190.708366 307.109259 
L 190.708366 307.48572 
L 193.954908 307.48572 
L 193.954908 306.856064 
L 197.201458 306.856064 
L 197.201458 307.202542 
L 200.448001 307.202542 
L 200.448001 307.442411 
L 203.694551 307.442411 
L 203.694551 307.584 
L 206.941086 307.584 
L 206.941086 307.264175 
L 210.187636 307.264175 
L 210.187636 307.584 
L 213.434186 307.584 
L 213.434186 307.405764 
L 219.927272 307.40743 
L 219.927272 307.169226 
L 223.173822 307.169226 
L 223.173822 307.47406 
L 226.420357 307.47406 
L 226.420357 307.282498 
L 229.666907 307.282498 
L 229.666907 307.489052 
L 232.913457 307.489052 
L 232.913457 307.334136 
L 242.653092 307.354125 
L 242.653092 307.494049 
L 249.146178 307.584 
L 249.146178 307.167561 
L 255.639278 307.140909 
L 255.639278 307.325808 
L 258.885813 307.325808 
L 258.885813 307.444076 
L 262.132363 307.444076 
L 262.132363 307.584 
L 265.378913 307.584 
L 265.378913 307.377446 
L 268.625448 307.377446 
L 268.625448 307.584 
L 271.871998 307.584 
L 271.871998 307.420756 
L 275.118548 307.420756 
L 275.118548 307.584 
L 278.365084 307.584 
L 278.365084 307.332471 
L 281.611634 307.332471 
L 281.611634 307.495715 
L 284.858184 307.495715 
L 284.858184 307.362454 
L 294.597819 307.354125 
L 294.597819 307.584 
L 304.337454 307.584 
L 304.337454 307.467397 
L 307.584005 307.467397 
L 307.584005 307.584 
L 398.487273 307.584 
L 398.487273 307.584 
" style="fill:none;stroke:#d62728;stroke-linejoin:miter;"/>
   </g>
   <g id="patch_7">
    <path clip-path="url(#p93ef6e88ce)" d="M 73.832727 307.584 
L 73.832727 303.492899 
L 77.079273 303.492899 
L 77.079273 296.515043 
L 80.325818 296.515043 
L 80.325818 302.230255 
L 83.572364 302.230255 
L 83.572364 305.108685 
L 86.818909 305.108685 
L 86.818909 304.758875 
L 90.065455 304.758875 
L 90.065455 305.285255 
L 93.312001 305.285255 
L 93.312001 306.129794 
L 96.558545 306.129794 
L 96.558545 305.445167 
L 99.805092 305.445167 
L 99.805092 305.033725 
L 103.051636 305.033725 
L 103.051636 305.668379 
L 106.298183 305.668379 
L 106.298183 305.105353 
L 109.544729 305.105353 
L 109.544729 304.525669 
L 112.791272 304.525669 
L 112.791272 303.40628 
L 116.037818 303.40628 
L 116.037818 303.081457 
L 119.284364 303.081457 
L 119.284364 303.591179 
L 122.530911 303.591179 
L 122.530911 302.638366 
L 125.777453 302.638366 
L 125.777453 298.865425 
L 132.270546 298.843772 
L 132.270546 298.587245 
L 135.517092 298.587245 
L 135.517092 295.21242 
L 138.763639 295.21242 
L 138.763639 297.68607 
L 142.010181 297.68607 
L 142.010181 292.80873 
L 145.256724 292.80873 
L 145.256724 290.509985 
L 148.503274 290.509985 
L 148.503274 286.60545 
L 151.749817 286.60545 
L 151.749817 280.931881 
L 154.996367 280.931881 
L 154.996367 273.955685 
L 158.242909 273.955685 
L 158.242909 273.051181 
L 161.489452 273.051181 
L 161.489452 271.550336 
L 164.736002 271.550336 
L 164.736002 272.914593 
L 171.229087 272.977889 
L 171.229087 280.510448 
L 174.475637 280.510448 
L 174.475637 276.784149 
L 177.72218 276.784149 
L 177.72218 282.27448 
L 180.96873 282.27448 
L 180.96873 285.156242 
L 184.215273 285.156242 
L 184.215273 282.795866 
L 187.461815 282.795866 
L 187.461815 285.176228 
L 190.708366 285.176228 
L 190.708366 282.825846 
L 193.954908 282.825846 
L 193.954908 280.585402 
L 197.201458 280.585402 
L 197.201458 281.62317 
L 200.448001 281.62317 
L 200.448001 279.076229 
L 203.694551 279.076229 
L 203.694551 277.320519 
L 206.941086 277.320519 
L 206.941086 273.301042 
L 210.187636 273.301042 
L 210.187636 273.984009 
L 213.434186 273.984009 
L 213.434186 270.604185 
L 216.680721 270.604185 
L 216.680721 271.823517 
L 219.927272 271.823517 
L 219.927272 268.317105 
L 223.173822 268.317105 
L 223.173822 268.468685 
L 226.420357 268.468685 
L 226.420357 263.471415 
L 229.666907 263.471415 
L 229.666907 266.183269 
L 232.913457 266.183269 
L 232.913457 260.466397 
L 236.160007 260.466397 
L 236.160007 256.035469 
L 239.406542 256.035469 
L 239.406542 252.785573 
L 242.653092 252.785573 
L 242.653092 254.236459 
L 245.899642 254.236459 
L 245.899642 247.151993 
L 249.146178 247.151993 
L 249.146178 232.05688 
L 252.392728 232.05688 
L 252.392728 235.996402 
L 255.639278 235.996402 
L 255.639278 220.150069 
L 258.885813 220.150069 
L 258.885813 213.285481 
L 262.132363 213.285481 
L 262.132363 210.337095 
L 265.378913 210.337095 
L 265.378913 201.350323 
L 268.625448 201.350323 
L 268.625448 211.904568 
L 271.871998 211.904568 
L 271.871998 234.930326 
L 275.118548 234.930326 
L 275.118548 242.562829 
L 278.365084 242.562829 
L 278.365084 262.370339 
L 281.611634 262.370339 
L 281.611634 277.575381 
L 284.858184 277.575381 
L 284.858184 284.663179 
L 288.104734 284.663179 
L 288.104734 286.155694 
L 291.351269 286.155694 
L 291.351269 295.02752 
L 294.597819 295.02752 
L 294.597819 295.359006 
L 297.844369 295.359006 
L 297.844369 298.392351 
L 301.090904 298.392351 
L 301.090904 299.898195 
L 304.337454 299.898195 
L 304.337454 299.35016 
L 307.584005 299.35016 
L 307.584005 302.048688 
L 310.83054 302.048688 
L 310.83054 303.456253 
L 314.07709 303.456253 
L 314.07709 302.010376 
L 317.32364 302.010376 
L 317.32364 303.909339 
L 320.570175 303.909339 
L 320.570175 304.107564 
L 323.816725 304.107564 
L 323.816725 304.267477 
L 327.06326 304.267477 
L 327.06326 305.783316 
L 330.309825 305.783316 
L 330.309825 305.296915 
L 333.556361 305.296915 
L 333.556361 306.111471 
L 336.802896 306.111471 
L 336.802896 306.318025 
L 340.049461 306.318025 
L 340.049461 306.447953 
L 343.295996 306.447953 
L 343.295996 305.87993 
L 346.542531 305.87993 
L 346.542531 306.561225 
L 349.789096 306.561225 
L 349.789096 306.25306 
L 353.035631 306.25306 
L 353.035631 307.124251 
L 356.282196 307.124251 
L 356.282196 307.440745 
L 359.528731 307.440745 
L 359.528731 306.641181 
L 362.775267 306.641181 
L 362.775267 307.414093 
L 366.021832 307.414093 
L 366.021832 307.214202 
L 369.268367 307.214202 
L 369.268367 307.584 
L 372.514902 307.584 
L 372.514902 307.369117 
L 375.761467 307.369117 
L 375.761467 307.217533 
L 379.008002 307.217533 
L 379.008002 307.584 
L 382.254537 307.584 
L 382.254537 307.350794 
L 385.501102 307.350794 
L 385.501102 307.584 
L 398.487273 307.584 
L 398.487273 307.584 
" style="fill:none;stroke:#9467bd;stroke-linejoin:miter;"/>
   </g>
   <g id="patch_8">
    <path clip-path="url(#p93ef6e88ce)" d="M 73.832727 307.584 
L 398.487273 307.584 
L 398.487273 307.584 
" style="fill:none;stroke:#000000;stroke-linejoin:miter;"/>
   </g>
   <g id="matplotlib.axis_1">
    <g id="xtick_1">
     <g id="line2d_1">
      <defs>
       <path d="M 0 0 
L 0 3.5 
" id="m5c2c9591d7" style="stroke:#000000;stroke-width:0.8;"/>
      </defs>
      <g>
       <use style="stroke:#000000;stroke-width:0.8;" x="73.566883" xlink:href="#m5c2c9591d7" y="307.584"/>
      </g>
     </g>
     <g id="text_1">
      <!-- 0.00 -->
      <defs>
       <path d="M 31.78125 66.40625 
Q 24.171875 66.40625 20.328125 58.90625 
Q 16.5 51.421875 16.5 36.375 
Q 16.5 21.390625 20.328125 13.890625 
Q 24.171875 6.390625 31.78125 6.390625 
Q 39.453125 6.390625 43.28125 13.890625 
Q 47.125 21.390625 47.125 36.375 
Q 47.125 51.421875 43.28125 58.90625 
Q 39.453125 66.40625 31.78125 66.40625 
z
M 31.78125 74.21875 
Q 44.046875 74.21875 50.515625 64.515625 
Q 56.984375 54.828125 56.984375 36.375 
Q 56.984375 17.96875 50.515625 8.265625 
Q 44.046875 -1.421875 31.78125 -1.421875 
Q 19.53125 -1.421875 13.0625 8.265625 
Q 6.59375 17.96875 6.59375 36.375 
Q 6.59375 54.828125 13.0625 64.515625 
Q 19.53125 74.21875 31.78125 74.21875 
z
" id="DejaVuSans-48"/>
       <path d="M 10.6875 12.40625 
L 21 12.40625 
L 21 0 
L 10.6875 0 
z
" id="DejaVuSans-46"/>
      </defs>
      <g transform="translate(62.43407 322.182437)scale(0.1 -0.1)">
       <use xlink:href="#DejaVuSans-48"/>
       <use x="63.623047" xlink:href="#DejaVuSans-46"/>
       <use x="95.410156" xlink:href="#DejaVuSans-48"/>
       <use x="159.033203" xlink:href="#DejaVuSans-48"/>
      </g>
     </g>
    </g>
    <g id="xtick_2">
     <g id="line2d_2">
      <g>
       <use style="stroke:#000000;stroke-width:0.8;" x="113.520906" xlink:href="#m5c2c9591d7" y="307.584"/>
      </g>
     </g>
     <g id="text_2">
      <!-- 0.02 -->
      <defs>
       <path d="M 19.1875 8.296875 
L 53.609375 8.296875 
L 53.609375 0 
L 7.328125 0 
L 7.328125 8.296875 
Q 12.9375 14.109375 22.625 23.890625 
Q 32.328125 33.6875 34.8125 36.53125 
Q 39.546875 41.84375 41.421875 45.53125 
Q 43.3125 49.21875 43.3125 52.78125 
Q 43.3125 58.59375 39.234375 62.25 
Q 35.15625 65.921875 28.609375 65.921875 
Q 23.96875 65.921875 18.8125 64.3125 
Q 13.671875 62.703125 7.8125 59.421875 
L 7.8125 69.390625 
Q 13.765625 71.78125 18.9375 73 
Q 24.125 74.21875 28.421875 74.21875 
Q 39.75 74.21875 46.484375 68.546875 
Q 53.21875 62.890625 53.21875 53.421875 
Q 53.21875 48.921875 51.53125 44.890625 
Q 49.859375 40.875 45.40625 35.40625 
Q 44.1875 33.984375 37.640625 27.21875 
Q 31.109375 20.453125 19.1875 8.296875 
z
" id="DejaVuSans-50"/>
      </defs>
      <g transform="translate(102.388094 322.182437)scale(0.1 -0.1)">
       <use xlink:href="#DejaVuSans-48"/>
       <use x="63.623047" xlink:href="#DejaVuSans-46"/>
       <use x="95.410156" xlink:href="#DejaVuSans-48"/>
       <use x="159.033203" xlink:href="#DejaVuSans-50"/>
      </g>
     </g>
    </g>
    <g id="xtick_3">
     <g id="line2d_3">
      <g>
       <use style="stroke:#000000;stroke-width:0.8;" x="153.47493" xlink:href="#m5c2c9591d7" y="307.584"/>
      </g>
     </g>
     <g id="text_3">
      <!-- 0.04 -->
      <defs>
       <path d="M 37.796875 64.3125 
L 12.890625 25.390625 
L 37.796875 25.390625 
z
M 35.203125 72.90625 
L 47.609375 72.90625 
L 47.609375 25.390625 
L 58.015625 25.390625 
L 58.015625 17.1875 
L 47.609375 17.1875 
L 47.609375 0 
L 37.796875 0 
L 37.796875 17.1875 
L 4.890625 17.1875 
L 4.890625 26.703125 
z
" id="DejaVuSans-52"/>
      </defs>
      <g transform="translate(142.342118 322.182437)scale(0.1 -0.1)">
       <use xlink:href="#DejaVuSans-48"/>
       <use x="63.623047" xlink:href="#DejaVuSans-46"/>
       <use x="95.410156" xlink:href="#DejaVuSans-48"/>
       <use x="159.033203" xlink:href="#DejaVuSans-52"/>
      </g>
     </g>
    </g>
    <g id="xtick_4">
     <g id="line2d_4">
      <g>
       <use style="stroke:#000000;stroke-width:0.8;" x="193.428954" xlink:href="#m5c2c9591d7" y="307.584"/>
      </g>
     </g>
     <g id="text_4">
      <!-- 0.06 -->
      <defs>
       <path d="M 33.015625 40.375 
Q 26.375 40.375 22.484375 35.828125 
Q 18.609375 31.296875 18.609375 23.390625 
Q 18.609375 15.53125 22.484375 10.953125 
Q 26.375 6.390625 33.015625 6.390625 
Q 39.65625 6.390625 43.53125 10.953125 
Q 47.40625 15.53125 47.40625 23.390625 
Q 47.40625 31.296875 43.53125 35.828125 
Q 39.65625 40.375 33.015625 40.375 
z
M 52.59375 71.296875 
L 52.59375 62.3125 
Q 48.875 64.0625 45.09375 64.984375 
Q 41.3125 65.921875 37.59375 65.921875 
Q 27.828125 65.921875 22.671875 59.328125 
Q 17.53125 52.734375 16.796875 39.40625 
Q 19.671875 43.65625 24.015625 45.921875 
Q 28.375 48.1875 33.59375 48.1875 
Q 44.578125 48.1875 50.953125 41.515625 
Q 57.328125 34.859375 57.328125 23.390625 
Q 57.328125 12.15625 50.6875 5.359375 
Q 44.046875 -1.421875 33.015625 -1.421875 
Q 20.359375 -1.421875 13.671875 8.265625 
Q 6.984375 17.96875 6.984375 36.375 
Q 6.984375 53.65625 15.1875 63.9375 
Q 23.390625 74.21875 37.203125 74.21875 
Q 40.921875 74.21875 44.703125 73.484375 
Q 48.484375 72.75 52.59375 71.296875 
z
" id="DejaVuSans-54"/>
      </defs>
      <g transform="translate(182.296141 322.182437)scale(0.1 -0.1)">
       <use xlink:href="#DejaVuSans-48"/>
       <use x="63.623047" xlink:href="#DejaVuSans-46"/>
       <use x="95.410156" xlink:href="#DejaVuSans-48"/>
       <use x="159.033203" xlink:href="#DejaVuSans-54"/>
      </g>
     </g>
    </g>
    <g id="xtick_5">
     <g id="line2d_5">
      <g>
       <use style="stroke:#000000;stroke-width:0.8;" x="233.382977" xlink:href="#m5c2c9591d7" y="307.584"/>
      </g>
     </g>
     <g id="text_5">
      <!-- 0.08 -->
      <defs>
       <path d="M 31.78125 34.625 
Q 24.75 34.625 20.71875 30.859375 
Q 16.703125 27.09375 16.703125 20.515625 
Q 16.703125 13.921875 20.71875 10.15625 
Q 24.75 6.390625 31.78125 6.390625 
Q 38.8125 6.390625 42.859375 10.171875 
Q 46.921875 13.96875 46.921875 20.515625 
Q 46.921875 27.09375 42.890625 30.859375 
Q 38.875 34.625 31.78125 34.625 
z
M 21.921875 38.8125 
Q 15.578125 40.375 12.03125 44.71875 
Q 8.5 49.078125 8.5 55.328125 
Q 8.5 64.0625 14.71875 69.140625 
Q 20.953125 74.21875 31.78125 74.21875 
Q 42.671875 74.21875 48.875 69.140625 
Q 55.078125 64.0625 55.078125 55.328125 
Q 55.078125 49.078125 51.53125 44.71875 
Q 48 40.375 41.703125 38.8125 
Q 48.828125 37.15625 52.796875 32.3125 
Q 56.78125 27.484375 56.78125 20.515625 
Q 56.78125 9.90625 50.3125 4.234375 
Q 43.84375 -1.421875 31.78125 -1.421875 
Q 19.734375 -1.421875 13.25 4.234375 
Q 6.78125 9.90625 6.78125 20.515625 
Q 6.78125 27.484375 10.78125 32.3125 
Q 14.796875 37.15625 21.921875 38.8125 
z
M 18.3125 54.390625 
Q 18.3125 48.734375 21.84375 45.5625 
Q 25.390625 42.390625 31.78125 42.390625 
Q 38.140625 42.390625 41.71875 45.5625 
Q 45.3125 48.734375 45.3125 54.390625 
Q 45.3125 60.0625 41.71875 63.234375 
Q 38.140625 66.40625 31.78125 66.40625 
Q 25.390625 66.40625 21.84375 63.234375 
Q 18.3125 60.0625 18.3125 54.390625 
z
" id="DejaVuSans-56"/>
      </defs>
      <g transform="translate(222.250165 322.182437)scale(0.1 -0.1)">
       <use xlink:href="#DejaVuSans-48"/>
       <use x="63.623047" xlink:href="#DejaVuSans-46"/>
       <use x="95.410156" xlink:href="#DejaVuSans-48"/>
       <use x="159.033203" xlink:href="#DejaVuSans-56"/>
      </g>
     </g>
    </g>
    <g id="xtick_6">
     <g id="line2d_6">
      <g>
       <use style="stroke:#000000;stroke-width:0.8;" x="273.337001" xlink:href="#m5c2c9591d7" y="307.584"/>
      </g>
     </g>
     <g id="text_6">
      <!-- 0.10 -->
      <defs>
       <path d="M 12.40625 8.296875 
L 28.515625 8.296875 
L 28.515625 63.921875 
L 10.984375 60.40625 
L 10.984375 69.390625 
L 28.421875 72.90625 
L 38.28125 72.90625 
L 38.28125 8.296875 
L 54.390625 8.296875 
L 54.390625 0 
L 12.40625 0 
z
" id="DejaVuSans-49"/>
      </defs>
      <g transform="translate(262.204189 322.182437)scale(0.1 -0.1)">
       <use xlink:href="#DejaVuSans-48"/>
       <use x="63.623047" xlink:href="#DejaVuSans-46"/>
       <use x="95.410156" xlink:href="#DejaVuSans-49"/>
       <use x="159.033203" xlink:href="#DejaVuSans-48"/>
      </g>
     </g>
    </g>
    <g id="xtick_7">
     <g id="line2d_7">
      <g>
       <use style="stroke:#000000;stroke-width:0.8;" x="313.291025" xlink:href="#m5c2c9591d7" y="307.584"/>
      </g>
     </g>
     <g id="text_7">
      <!-- 0.12 -->
      <g transform="translate(302.158212 322.182437)scale(0.1 -0.1)">
       <use xlink:href="#DejaVuSans-48"/>
       <use x="63.623047" xlink:href="#DejaVuSans-46"/>
       <use x="95.410156" xlink:href="#DejaVuSans-49"/>
       <use x="159.033203" xlink:href="#DejaVuSans-50"/>
      </g>
     </g>
    </g>
    <g id="xtick_8">
     <g id="line2d_8">
      <g>
       <use style="stroke:#000000;stroke-width:0.8;" x="353.245048" xlink:href="#m5c2c9591d7" y="307.584"/>
      </g>
     </g>
     <g id="text_8">
      <!-- 0.14 -->
      <g transform="translate(342.112236 322.182437)scale(0.1 -0.1)">
       <use xlink:href="#DejaVuSans-48"/>
       <use x="63.623047" xlink:href="#DejaVuSans-46"/>
       <use x="95.410156" xlink:href="#DejaVuSans-49"/>
       <use x="159.033203" xlink:href="#DejaVuSans-52"/>
      </g>
     </g>
    </g>
    <g id="xtick_9">
     <g id="line2d_9">
      <g>
       <use style="stroke:#000000;stroke-width:0.8;" x="393.199072" xlink:href="#m5c2c9591d7" y="307.584"/>
      </g>
     </g>
     <g id="text_9">
      <!-- 0.16 -->
      <g transform="translate(382.06626 322.182437)scale(0.1 -0.1)">
       <use xlink:href="#DejaVuSans-48"/>
       <use x="63.623047" xlink:href="#DejaVuSans-46"/>
       <use x="95.410156" xlink:href="#DejaVuSans-49"/>
       <use x="159.033203" xlink:href="#DejaVuSans-54"/>
      </g>
     </g>
    </g>
    <g id="text_10">
     <!-- j_c1_b1_mmdt -->
     <defs>
      <path d="M 9.421875 54.6875 
L 18.40625 54.6875 
L 18.40625 -0.984375 
Q 18.40625 -11.421875 14.421875 -16.109375 
Q 10.453125 -20.796875 1.609375 -20.796875 
L -1.8125 -20.796875 
L -1.8125 -13.1875 
L 0.59375 -13.1875 
Q 5.71875 -13.1875 7.5625 -10.8125 
Q 9.421875 -8.453125 9.421875 -0.984375 
z
M 9.421875 75.984375 
L 18.40625 75.984375 
L 18.40625 64.59375 
L 9.421875 64.59375 
z
" id="DejaVuSans-106"/>
      <path d="M 50.984375 -16.609375 
L 50.984375 -23.578125 
L -0.984375 -23.578125 
L -0.984375 -16.609375 
z
" id="DejaVuSans-95"/>
      <path d="M 48.78125 52.59375 
L 48.78125 44.1875 
Q 44.96875 46.296875 41.140625 47.34375 
Q 37.3125 48.390625 33.40625 48.390625 
Q 24.65625 48.390625 19.8125 42.84375 
Q 14.984375 37.3125 14.984375 27.296875 
Q 14.984375 17.28125 19.8125 11.734375 
Q 24.65625 6.203125 33.40625 6.203125 
Q 37.3125 6.203125 41.140625 7.25 
Q 44.96875 8.296875 48.78125 10.40625 
L 48.78125 2.09375 
Q 45.015625 0.34375 40.984375 -0.53125 
Q 36.96875 -1.421875 32.421875 -1.421875 
Q 20.0625 -1.421875 12.78125 6.34375 
Q 5.515625 14.109375 5.515625 27.296875 
Q 5.515625 40.671875 12.859375 48.328125 
Q 20.21875 56 33.015625 56 
Q 37.15625 56 41.109375 55.140625 
Q 45.0625 54.296875 48.78125 52.59375 
z
" id="DejaVuSans-99"/>
      <path d="M 48.6875 27.296875 
Q 48.6875 37.203125 44.609375 42.84375 
Q 40.53125 48.484375 33.40625 48.484375 
Q 26.265625 48.484375 22.1875 42.84375 
Q 18.109375 37.203125 18.109375 27.296875 
Q 18.109375 17.390625 22.1875 11.75 
Q 26.265625 6.109375 33.40625 6.109375 
Q 40.53125 6.109375 44.609375 11.75 
Q 48.6875 17.390625 48.6875 27.296875 
z
M 18.109375 46.390625 
Q 20.953125 51.265625 25.265625 53.625 
Q 29.59375 56 35.59375 56 
Q 45.5625 56 51.78125 48.09375 
Q 58.015625 40.1875 58.015625 27.296875 
Q 58.015625 14.40625 51.78125 6.484375 
Q 45.5625 -1.421875 35.59375 -1.421875 
Q 29.59375 -1.421875 25.265625 0.953125 
Q 20.953125 3.328125 18.109375 8.203125 
L 18.109375 0 
L 9.078125 0 
L 9.078125 75.984375 
L 18.109375 75.984375 
z
" id="DejaVuSans-98"/>
      <path d="M 52 44.1875 
Q 55.375 50.25 60.0625 53.125 
Q 64.75 56 71.09375 56 
Q 79.640625 56 84.28125 50.015625 
Q 88.921875 44.046875 88.921875 33.015625 
L 88.921875 0 
L 79.890625 0 
L 79.890625 32.71875 
Q 79.890625 40.578125 77.09375 44.375 
Q 74.3125 48.1875 68.609375 48.1875 
Q 61.625 48.1875 57.5625 43.546875 
Q 53.515625 38.921875 53.515625 30.90625 
L 53.515625 0 
L 44.484375 0 
L 44.484375 32.71875 
Q 44.484375 40.625 41.703125 44.40625 
Q 38.921875 48.1875 33.109375 48.1875 
Q 26.21875 48.1875 22.15625 43.53125 
Q 18.109375 38.875 18.109375 30.90625 
L 18.109375 0 
L 9.078125 0 
L 9.078125 54.6875 
L 18.109375 54.6875 
L 18.109375 46.1875 
Q 21.1875 51.21875 25.484375 53.609375 
Q 29.78125 56 35.6875 56 
Q 41.65625 56 45.828125 52.96875 
Q 50 49.953125 52 44.1875 
z
" id="DejaVuSans-109"/>
      <path d="M 45.40625 46.390625 
L 45.40625 75.984375 
L 54.390625 75.984375 
L 54.390625 0 
L 45.40625 0 
L 45.40625 8.203125 
Q 42.578125 3.328125 38.25 0.953125 
Q 33.9375 -1.421875 27.875 -1.421875 
Q 17.96875 -1.421875 11.734375 6.484375 
Q 5.515625 14.40625 5.515625 27.296875 
Q 5.515625 40.1875 11.734375 48.09375 
Q 17.96875 56 27.875 56 
Q 33.9375 56 38.25 53.625 
Q 42.578125 51.265625 45.40625 46.390625 
z
M 14.796875 27.296875 
Q 14.796875 17.390625 18.875 11.75 
Q 22.953125 6.109375 30.078125 6.109375 
Q 37.203125 6.109375 41.296875 11.75 
Q 45.40625 17.390625 45.40625 27.296875 
Q 45.40625 37.203125 41.296875 42.84375 
Q 37.203125 48.484375 30.078125 48.484375 
Q 22.953125 48.484375 18.875 42.84375 
Q 14.796875 37.203125 14.796875 27.296875 
z
" id="DejaVuSans-100"/>
      <path d="M 18.3125 70.21875 
L 18.3125 54.6875 
L 36.8125 54.6875 
L 36.8125 47.703125 
L 18.3125 47.703125 
L 18.3125 18.015625 
Q 18.3125 11.328125 20.140625 9.421875 
Q 21.96875 7.515625 27.59375 7.515625 
L 36.8125 7.515625 
L 36.8125 0 
L 27.59375 0 
Q 17.1875 0 13.234375 3.875 
Q 9.28125 7.765625 9.28125 18.015625 
L 9.28125 47.703125 
L 2.6875 47.703125 
L 2.6875 54.6875 
L 9.28125 54.6875 
L 9.28125 70.21875 
z
" id="DejaVuSans-116"/>
     </defs>
     <g transform="translate(200.11 335.860562)scale(0.1 -0.1)">
      <use xlink:href="#DejaVuSans-106"/>
      <use x="27.783203" xlink:href="#DejaVuSans-95"/>
      <use x="77.783203" xlink:href="#DejaVuSans-99"/>
      <use x="132.763672" xlink:href="#DejaVuSans-49"/>
      <use x="196.386719" xlink:href="#DejaVuSans-95"/>
      <use x="246.386719" xlink:href="#DejaVuSans-98"/>
      <use x="309.863281" xlink:href="#DejaVuSans-49"/>
      <use x="373.486328" xlink:href="#DejaVuSans-95"/>
      <use x="423.486328" xlink:href="#DejaVuSans-109"/>
      <use x="520.898438" xlink:href="#DejaVuSans-109"/>
      <use x="618.310547" xlink:href="#DejaVuSans-100"/>
      <use x="681.787109" xlink:href="#DejaVuSans-116"/>
     </g>
    </g>
   </g>
   <g id="matplotlib.axis_2">
    <g id="ytick_1">
     <g id="line2d_10">
      <defs>
       <path d="M 0 0 
L -3.5 0 
" id="md2846ab6b5" style="stroke:#000000;stroke-width:0.8;"/>
      </defs>
      <g>
       <use style="stroke:#000000;stroke-width:0.8;" x="57.6" xlink:href="#md2846ab6b5" y="307.584"/>
      </g>
     </g>
     <g id="text_11">
      <!-- 0.000 -->
      <g transform="translate(21.971875 311.383219)scale(0.1 -0.1)">
       <use xlink:href="#DejaVuSans-48"/>
       <use x="63.623047" xlink:href="#DejaVuSans-46"/>
       <use x="95.410156" xlink:href="#DejaVuSans-48"/>
       <use x="159.033203" xlink:href="#DejaVuSans-48"/>
       <use x="222.65625" xlink:href="#DejaVuSans-48"/>
      </g>
     </g>
    </g>
    <g id="ytick_2">
     <g id="line2d_11">
      <g>
       <use style="stroke:#000000;stroke-width:0.8;" x="57.6" xlink:href="#md2846ab6b5" y="264.94137"/>
      </g>
     </g>
     <g id="text_12">
      <!-- 0.005 -->
      <defs>
       <path d="M 10.796875 72.90625 
L 49.515625 72.90625 
L 49.515625 64.59375 
L 19.828125 64.59375 
L 19.828125 46.734375 
Q 21.96875 47.46875 24.109375 47.828125 
Q 26.265625 48.1875 28.421875 48.1875 
Q 40.625 48.1875 47.75 41.5 
Q 54.890625 34.8125 54.890625 23.390625 
Q 54.890625 11.625 47.5625 5.09375 
Q 40.234375 -1.421875 26.90625 -1.421875 
Q 22.3125 -1.421875 17.546875 -0.640625 
Q 12.796875 0.140625 7.71875 1.703125 
L 7.71875 11.625 
Q 12.109375 9.234375 16.796875 8.0625 
Q 21.484375 6.890625 26.703125 6.890625 
Q 35.15625 6.890625 40.078125 11.328125 
Q 45.015625 15.765625 45.015625 23.390625 
Q 45.015625 31 40.078125 35.4375 
Q 35.15625 39.890625 26.703125 39.890625 
Q 22.75 39.890625 18.8125 39.015625 
Q 14.890625 38.140625 10.796875 36.28125 
z
" id="DejaVuSans-53"/>
      </defs>
      <g transform="translate(21.971875 268.740589)scale(0.1 -0.1)">
       <use xlink:href="#DejaVuSans-48"/>
       <use x="63.623047" xlink:href="#DejaVuSans-46"/>
       <use x="95.410156" xlink:href="#DejaVuSans-48"/>
       <use x="159.033203" xlink:href="#DejaVuSans-48"/>
       <use x="222.65625" xlink:href="#DejaVuSans-53"/>
      </g>
     </g>
    </g>
    <g id="ytick_3">
     <g id="line2d_12">
      <g>
       <use style="stroke:#000000;stroke-width:0.8;" x="57.6" xlink:href="#md2846ab6b5" y="222.29874"/>
      </g>
     </g>
     <g id="text_13">
      <!-- 0.010 -->
      <g transform="translate(21.971875 226.097959)scale(0.1 -0.1)">
       <use xlink:href="#DejaVuSans-48"/>
       <use x="63.623047" xlink:href="#DejaVuSans-46"/>
       <use x="95.410156" xlink:href="#DejaVuSans-48"/>
       <use x="159.033203" xlink:href="#DejaVuSans-49"/>
       <use x="222.65625" xlink:href="#DejaVuSans-48"/>
      </g>
     </g>
    </g>
    <g id="ytick_4">
     <g id="line2d_13">
      <g>
       <use style="stroke:#000000;stroke-width:0.8;" x="57.6" xlink:href="#md2846ab6b5" y="179.65611"/>
      </g>
     </g>
     <g id="text_14">
      <!-- 0.015 -->
      <g transform="translate(21.971875 183.455329)scale(0.1 -0.1)">
       <use xlink:href="#DejaVuSans-48"/>
       <use x="63.623047" xlink:href="#DejaVuSans-46"/>
       <use x="95.410156" xlink:href="#DejaVuSans-48"/>
       <use x="159.033203" xlink:href="#DejaVuSans-49"/>
       <use x="222.65625" xlink:href="#DejaVuSans-53"/>
      </g>
     </g>
    </g>
    <g id="ytick_5">
     <g id="line2d_14">
      <g>
       <use style="stroke:#000000;stroke-width:0.8;" x="57.6" xlink:href="#md2846ab6b5" y="137.013481"/>
      </g>
     </g>
     <g id="text_15">
      <!-- 0.020 -->
      <g transform="translate(21.971875 140.812699)scale(0.1 -0.1)">
       <use xlink:href="#DejaVuSans-48"/>
       <use x="63.623047" xlink:href="#DejaVuSans-46"/>
       <use x="95.410156" xlink:href="#DejaVuSans-48"/>
       <use x="159.033203" xlink:href="#DejaVuSans-50"/>
       <use x="222.65625" xlink:href="#DejaVuSans-48"/>
      </g>
     </g>
    </g>
    <g id="ytick_6">
     <g id="line2d_15">
      <g>
       <use style="stroke:#000000;stroke-width:0.8;" x="57.6" xlink:href="#md2846ab6b5" y="94.370851"/>
      </g>
     </g>
     <g id="text_16">
      <!-- 0.025 -->
      <g transform="translate(21.971875 98.170069)scale(0.1 -0.1)">
       <use xlink:href="#DejaVuSans-48"/>
       <use x="63.623047" xlink:href="#DejaVuSans-46"/>
       <use x="95.410156" xlink:href="#DejaVuSans-48"/>
       <use x="159.033203" xlink:href="#DejaVuSans-50"/>
       <use x="222.65625" xlink:href="#DejaVuSans-53"/>
      </g>
     </g>
    </g>
    <g id="ytick_7">
     <g id="line2d_16">
      <g>
       <use style="stroke:#000000;stroke-width:0.8;" x="57.6" xlink:href="#md2846ab6b5" y="51.728221"/>
      </g>
     </g>
     <g id="text_17">
      <!-- 0.030 -->
      <defs>
       <path d="M 40.578125 39.3125 
Q 47.65625 37.796875 51.625 33 
Q 55.609375 28.21875 55.609375 21.1875 
Q 55.609375 10.40625 48.1875 4.484375 
Q 40.765625 -1.421875 27.09375 -1.421875 
Q 22.515625 -1.421875 17.65625 -0.515625 
Q 12.796875 0.390625 7.625 2.203125 
L 7.625 11.71875 
Q 11.71875 9.328125 16.59375 8.109375 
Q 21.484375 6.890625 26.8125 6.890625 
Q 36.078125 6.890625 40.9375 10.546875 
Q 45.796875 14.203125 45.796875 21.1875 
Q 45.796875 27.640625 41.28125 31.265625 
Q 36.765625 34.90625 28.71875 34.90625 
L 20.21875 34.90625 
L 20.21875 43.015625 
L 29.109375 43.015625 
Q 36.375 43.015625 40.234375 45.921875 
Q 44.09375 48.828125 44.09375 54.296875 
Q 44.09375 59.90625 40.109375 62.90625 
Q 36.140625 65.921875 28.71875 65.921875 
Q 24.65625 65.921875 20.015625 65.03125 
Q 15.375 64.15625 9.8125 62.3125 
L 9.8125 71.09375 
Q 15.4375 72.65625 20.34375 73.4375 
Q 25.25 74.21875 29.59375 74.21875 
Q 40.828125 74.21875 47.359375 69.109375 
Q 53.90625 64.015625 53.90625 55.328125 
Q 53.90625 49.265625 50.4375 45.09375 
Q 46.96875 40.921875 40.578125 39.3125 
z
" id="DejaVuSans-51"/>
      </defs>
      <g transform="translate(21.971875 55.52744)scale(0.1 -0.1)">
       <use xlink:href="#DejaVuSans-48"/>
       <use x="63.623047" xlink:href="#DejaVuSans-46"/>
       <use x="95.410156" xlink:href="#DejaVuSans-48"/>
       <use x="159.033203" xlink:href="#DejaVuSans-51"/>
       <use x="222.65625" xlink:href="#DejaVuSans-48"/>
      </g>
     </g>
    </g>
    <g id="text_18">
     <!-- Prob. Density (a.u.) -->
     <defs>
      <path d="M 19.671875 64.796875 
L 19.671875 37.40625 
L 32.078125 37.40625 
Q 38.96875 37.40625 42.71875 40.96875 
Q 46.484375 44.53125 46.484375 51.125 
Q 46.484375 57.671875 42.71875 61.234375 
Q 38.96875 64.796875 32.078125 64.796875 
z
M 9.8125 72.90625 
L 32.078125 72.90625 
Q 44.34375 72.90625 50.609375 67.359375 
Q 56.890625 61.8125 56.890625 51.125 
Q 56.890625 40.328125 50.609375 34.8125 
Q 44.34375 29.296875 32.078125 29.296875 
L 19.671875 29.296875 
L 19.671875 0 
L 9.8125 0 
z
" id="DejaVuSans-80"/>
      <path d="M 41.109375 46.296875 
Q 39.59375 47.171875 37.8125 47.578125 
Q 36.03125 48 33.890625 48 
Q 26.265625 48 22.1875 43.046875 
Q 18.109375 38.09375 18.109375 28.8125 
L 18.109375 0 
L 9.078125 0 
L 9.078125 54.6875 
L 18.109375 54.6875 
L 18.109375 46.1875 
Q 20.953125 51.171875 25.484375 53.578125 
Q 30.03125 56 36.53125 56 
Q 37.453125 56 38.578125 55.875 
Q 39.703125 55.765625 41.0625 55.515625 
z
" id="DejaVuSans-114"/>
      <path d="M 30.609375 48.390625 
Q 23.390625 48.390625 19.1875 42.75 
Q 14.984375 37.109375 14.984375 27.296875 
Q 14.984375 17.484375 19.15625 11.84375 
Q 23.34375 6.203125 30.609375 6.203125 
Q 37.796875 6.203125 41.984375 11.859375 
Q 46.1875 17.53125 46.1875 27.296875 
Q 46.1875 37.015625 41.984375 42.703125 
Q 37.796875 48.390625 30.609375 48.390625 
z
M 30.609375 56 
Q 42.328125 56 49.015625 48.375 
Q 55.71875 40.765625 55.71875 27.296875 
Q 55.71875 13.875 49.015625 6.21875 
Q 42.328125 -1.421875 30.609375 -1.421875 
Q 18.84375 -1.421875 12.171875 6.21875 
Q 5.515625 13.875 5.515625 27.296875 
Q 5.515625 40.765625 12.171875 48.375 
Q 18.84375 56 30.609375 56 
z
" id="DejaVuSans-111"/>
      <path id="DejaVuSans-32"/>
      <path d="M 19.671875 64.796875 
L 19.671875 8.109375 
L 31.59375 8.109375 
Q 46.6875 8.109375 53.6875 14.9375 
Q 60.6875 21.78125 60.6875 36.53125 
Q 60.6875 51.171875 53.6875 57.984375 
Q 46.6875 64.796875 31.59375 64.796875 
z
M 9.8125 72.90625 
L 30.078125 72.90625 
Q 51.265625 72.90625 61.171875 64.09375 
Q 71.09375 55.28125 71.09375 36.53125 
Q 71.09375 17.671875 61.125 8.828125 
Q 51.171875 0 30.078125 0 
L 9.8125 0 
z
" id="DejaVuSans-68"/>
      <path d="M 56.203125 29.59375 
L 56.203125 25.203125 
L 14.890625 25.203125 
Q 15.484375 15.921875 20.484375 11.0625 
Q 25.484375 6.203125 34.421875 6.203125 
Q 39.59375 6.203125 44.453125 7.46875 
Q 49.3125 8.734375 54.109375 11.28125 
L 54.109375 2.78125 
Q 49.265625 0.734375 44.1875 -0.34375 
Q 39.109375 -1.421875 33.890625 -1.421875 
Q 20.796875 -1.421875 13.15625 6.1875 
Q 5.515625 13.8125 5.515625 26.8125 
Q 5.515625 40.234375 12.765625 48.109375 
Q 20.015625 56 32.328125 56 
Q 43.359375 56 49.78125 48.890625 
Q 56.203125 41.796875 56.203125 29.59375 
z
M 47.21875 32.234375 
Q 47.125 39.59375 43.09375 43.984375 
Q 39.0625 48.390625 32.421875 48.390625 
Q 24.90625 48.390625 20.390625 44.140625 
Q 15.875 39.890625 15.1875 32.171875 
z
" id="DejaVuSans-101"/>
      <path d="M 54.890625 33.015625 
L 54.890625 0 
L 45.90625 0 
L 45.90625 32.71875 
Q 45.90625 40.484375 42.875 44.328125 
Q 39.84375 48.1875 33.796875 48.1875 
Q 26.515625 48.1875 22.3125 43.546875 
Q 18.109375 38.921875 18.109375 30.90625 
L 18.109375 0 
L 9.078125 0 
L 9.078125 54.6875 
L 18.109375 54.6875 
L 18.109375 46.1875 
Q 21.34375 51.125 25.703125 53.5625 
Q 30.078125 56 35.796875 56 
Q 45.21875 56 50.046875 50.171875 
Q 54.890625 44.34375 54.890625 33.015625 
z
" id="DejaVuSans-110"/>
      <path d="M 44.28125 53.078125 
L 44.28125 44.578125 
Q 40.484375 46.53125 36.375 47.5 
Q 32.28125 48.484375 27.875 48.484375 
Q 21.1875 48.484375 17.84375 46.4375 
Q 14.5 44.390625 14.5 40.28125 
Q 14.5 37.15625 16.890625 35.375 
Q 19.28125 33.59375 26.515625 31.984375 
L 29.59375 31.296875 
Q 39.15625 29.25 43.1875 25.515625 
Q 47.21875 21.78125 47.21875 15.09375 
Q 47.21875 7.46875 41.1875 3.015625 
Q 35.15625 -1.421875 24.609375 -1.421875 
Q 20.21875 -1.421875 15.453125 -0.5625 
Q 10.6875 0.296875 5.421875 2 
L 5.421875 11.28125 
Q 10.40625 8.6875 15.234375 7.390625 
Q 20.0625 6.109375 24.8125 6.109375 
Q 31.15625 6.109375 34.5625 8.28125 
Q 37.984375 10.453125 37.984375 14.40625 
Q 37.984375 18.0625 35.515625 20.015625 
Q 33.0625 21.96875 24.703125 23.78125 
L 21.578125 24.515625 
Q 13.234375 26.265625 9.515625 29.90625 
Q 5.8125 33.546875 5.8125 39.890625 
Q 5.8125 47.609375 11.28125 51.796875 
Q 16.75 56 26.8125 56 
Q 31.78125 56 36.171875 55.265625 
Q 40.578125 54.546875 44.28125 53.078125 
z
" id="DejaVuSans-115"/>
      <path d="M 9.421875 54.6875 
L 18.40625 54.6875 
L 18.40625 0 
L 9.421875 0 
z
M 9.421875 75.984375 
L 18.40625 75.984375 
L 18.40625 64.59375 
L 9.421875 64.59375 
z
" id="DejaVuSans-105"/>
      <path d="M 32.171875 -5.078125 
Q 28.375 -14.84375 24.75 -17.8125 
Q 21.140625 -20.796875 15.09375 -20.796875 
L 7.90625 -20.796875 
L 7.90625 -13.28125 
L 13.1875 -13.28125 
Q 16.890625 -13.28125 18.9375 -11.515625 
Q 21 -9.765625 23.484375 -3.21875 
L 25.09375 0.875 
L 2.984375 54.6875 
L 12.5 54.6875 
L 29.59375 11.921875 
L 46.6875 54.6875 
L 56.203125 54.6875 
z
" id="DejaVuSans-121"/>
      <path d="M 31 75.875 
Q 24.46875 64.65625 21.28125 53.65625 
Q 18.109375 42.671875 18.109375 31.390625 
Q 18.109375 20.125 21.3125 9.0625 
Q 24.515625 -2 31 -13.1875 
L 23.1875 -13.1875 
Q 15.875 -1.703125 12.234375 9.375 
Q 8.59375 20.453125 8.59375 31.390625 
Q 8.59375 42.28125 12.203125 53.3125 
Q 15.828125 64.359375 23.1875 75.875 
z
" id="DejaVuSans-40"/>
      <path d="M 34.28125 27.484375 
Q 23.390625 27.484375 19.1875 25 
Q 14.984375 22.515625 14.984375 16.5 
Q 14.984375 11.71875 18.140625 8.90625 
Q 21.296875 6.109375 26.703125 6.109375 
Q 34.1875 6.109375 38.703125 11.40625 
Q 43.21875 16.703125 43.21875 25.484375 
L 43.21875 27.484375 
z
M 52.203125 31.203125 
L 52.203125 0 
L 43.21875 0 
L 43.21875 8.296875 
Q 40.140625 3.328125 35.546875 0.953125 
Q 30.953125 -1.421875 24.3125 -1.421875 
Q 15.921875 -1.421875 10.953125 3.296875 
Q 6 8.015625 6 15.921875 
Q 6 25.140625 12.171875 29.828125 
Q 18.359375 34.515625 30.609375 34.515625 
L 43.21875 34.515625 
L 43.21875 35.40625 
Q 43.21875 41.609375 39.140625 45 
Q 35.0625 48.390625 27.6875 48.390625 
Q 23 48.390625 18.546875 47.265625 
Q 14.109375 46.140625 10.015625 43.890625 
L 10.015625 52.203125 
Q 14.9375 54.109375 19.578125 55.046875 
Q 24.21875 56 28.609375 56 
Q 40.484375 56 46.34375 49.84375 
Q 52.203125 43.703125 52.203125 31.203125 
z
" id="DejaVuSans-97"/>
      <path d="M 8.5 21.578125 
L 8.5 54.6875 
L 17.484375 54.6875 
L 17.484375 21.921875 
Q 17.484375 14.15625 20.5 10.265625 
Q 23.53125 6.390625 29.59375 6.390625 
Q 36.859375 6.390625 41.078125 11.03125 
Q 45.3125 15.671875 45.3125 23.6875 
L 45.3125 54.6875 
L 54.296875 54.6875 
L 54.296875 0 
L 45.3125 0 
L 45.3125 8.40625 
Q 42.046875 3.421875 37.71875 1 
Q 33.40625 -1.421875 27.6875 -1.421875 
Q 18.265625 -1.421875 13.375 4.4375 
Q 8.5 10.296875 8.5 21.578125 
z
M 31.109375 56 
z
" id="DejaVuSans-117"/>
      <path d="M 8.015625 75.875 
L 15.828125 75.875 
Q 23.140625 64.359375 26.78125 53.3125 
Q 30.421875 42.28125 30.421875 31.390625 
Q 30.421875 20.453125 26.78125 9.375 
Q 23.140625 -1.703125 15.828125 -13.1875 
L 8.015625 -13.1875 
Q 14.5 -2 17.703125 9.0625 
Q 20.90625 20.125 20.90625 31.390625 
Q 20.90625 42.671875 17.703125 53.65625 
Q 14.5 64.65625 8.015625 75.875 
z
" id="DejaVuSans-41"/>
     </defs>
     <g transform="translate(15.892187 222.917844)rotate(-90)scale(0.1 -0.1)">
      <use xlink:href="#DejaVuSans-80"/>
      <use x="60.287109" xlink:href="#DejaVuSans-114"/>
      <use x="101.369141" xlink:href="#DejaVuSans-111"/>
      <use x="162.550781" xlink:href="#DejaVuSans-98"/>
      <use x="226.027344" xlink:href="#DejaVuSans-46"/>
      <use x="257.814453" xlink:href="#DejaVuSans-32"/>
      <use x="289.601562" xlink:href="#DejaVuSans-68"/>
      <use x="366.603516" xlink:href="#DejaVuSans-101"/>
      <use x="428.126953" xlink:href="#DejaVuSans-110"/>
      <use x="491.505859" xlink:href="#DejaVuSans-115"/>
      <use x="543.605469" xlink:href="#DejaVuSans-105"/>
      <use x="571.388672" xlink:href="#DejaVuSans-116"/>
      <use x="610.597656" xlink:href="#DejaVuSans-121"/>
      <use x="669.777344" xlink:href="#DejaVuSans-32"/>
      <use x="701.564453" xlink:href="#DejaVuSans-40"/>
      <use x="740.578125" xlink:href="#DejaVuSans-97"/>
      <use x="801.857422" xlink:href="#DejaVuSans-46"/>
      <use x="833.644531" xlink:href="#DejaVuSans-117"/>
      <use x="897.023438" xlink:href="#DejaVuSans-46"/>
      <use x="928.810547" xlink:href="#DejaVuSans-41"/>
     </g>
    </g>
   </g>
   <g id="patch_9">
    <path d="M 57.6 307.584 
L 57.6 41.472 
" style="fill:none;stroke:#000000;stroke-linecap:square;stroke-linejoin:miter;stroke-width:0.8;"/>
   </g>
   <g id="patch_10">
    <path d="M 414.72 307.584 
L 414.72 41.472 
" style="fill:none;stroke:#000000;stroke-linecap:square;stroke-linejoin:miter;stroke-width:0.8;"/>
   </g>
   <g id="patch_11">
    <path d="M 57.6 307.584 
L 414.72 307.584 
" style="fill:none;stroke:#000000;stroke-linecap:square;stroke-linejoin:miter;stroke-width:0.8;"/>
   </g>
   <g id="patch_12">
    <path d="M 57.6 41.472 
L 414.72 41.472 
" style="fill:none;stroke:#000000;stroke-linecap:square;stroke-linejoin:miter;stroke-width:0.8;"/>
   </g>
   <g id="legend_1">
    <g id="patch_13">
     <path d="M 325.405938 137.54075 
L 407.72 137.54075 
Q 409.72 137.54075 409.72 135.54075 
L 409.72 48.472 
Q 409.72 46.472 407.72 46.472 
L 325.405938 46.472 
Q 323.405938 46.472 323.405938 48.472 
L 323.405938 135.54075 
Q 323.405938 137.54075 325.405938 137.54075 
z
" style="fill:#ffffff;opacity:0.8;stroke:#cccccc;stroke-linejoin:miter;"/>
    </g>
    <g id="patch_14">
     <path d="M 327.405938 58.070438 
L 347.405938 58.070438 
L 347.405938 51.070438 
L 327.405938 51.070438 
z
" style="fill:none;stroke:#1f77b4;stroke-linejoin:miter;"/>
    </g>
    <g id="text_19">
     <!-- quark -->
     <defs>
      <path d="M 14.796875 27.296875 
Q 14.796875 17.390625 18.875 11.75 
Q 22.953125 6.109375 30.078125 6.109375 
Q 37.203125 6.109375 41.296875 11.75 
Q 45.40625 17.390625 45.40625 27.296875 
Q 45.40625 37.203125 41.296875 42.84375 
Q 37.203125 48.484375 30.078125 48.484375 
Q 22.953125 48.484375 18.875 42.84375 
Q 14.796875 37.203125 14.796875 27.296875 
z
M 45.40625 8.203125 
Q 42.578125 3.328125 38.25 0.953125 
Q 33.9375 -1.421875 27.875 -1.421875 
Q 17.96875 -1.421875 11.734375 6.484375 
Q 5.515625 14.40625 5.515625 27.296875 
Q 5.515625 40.1875 11.734375 48.09375 
Q 17.96875 56 27.875 56 
Q 33.9375 56 38.25 53.625 
Q 42.578125 51.265625 45.40625 46.390625 
L 45.40625 54.6875 
L 54.390625 54.6875 
L 54.390625 -20.796875 
L 45.40625 -20.796875 
z
" id="DejaVuSans-113"/>
      <path d="M 9.078125 75.984375 
L 18.109375 75.984375 
L 18.109375 31.109375 
L 44.921875 54.6875 
L 56.390625 54.6875 
L 27.390625 29.109375 
L 57.625 0 
L 45.90625 0 
L 18.109375 26.703125 
L 18.109375 0 
L 9.078125 0 
z
" id="DejaVuSans-107"/>
     </defs>
     <g transform="translate(355.405938 58.070438)scale(0.1 -0.1)">
      <use xlink:href="#DejaVuSans-113"/>
      <use x="63.476562" xlink:href="#DejaVuSans-117"/>
      <use x="126.855469" xlink:href="#DejaVuSans-97"/>
      <use x="188.134766" xlink:href="#DejaVuSans-114"/>
      <use x="229.248047" xlink:href="#DejaVuSans-107"/>
     </g>
    </g>
    <g id="patch_15">
     <path d="M 327.405938 72.748563 
L 347.405938 72.748563 
L 347.405938 65.748563 
L 327.405938 65.748563 
z
" style="fill:none;stroke:#ff7f0e;stroke-linejoin:miter;"/>
    </g>
    <g id="text_20">
     <!-- gluon -->
     <defs>
      <path d="M 45.40625 27.984375 
Q 45.40625 37.75 41.375 43.109375 
Q 37.359375 48.484375 30.078125 48.484375 
Q 22.859375 48.484375 18.828125 43.109375 
Q 14.796875 37.75 14.796875 27.984375 
Q 14.796875 18.265625 18.828125 12.890625 
Q 22.859375 7.515625 30.078125 7.515625 
Q 37.359375 7.515625 41.375 12.890625 
Q 45.40625 18.265625 45.40625 27.984375 
z
M 54.390625 6.78125 
Q 54.390625 -7.171875 48.1875 -13.984375 
Q 42 -20.796875 29.203125 -20.796875 
Q 24.46875 -20.796875 20.265625 -20.09375 
Q 16.0625 -19.390625 12.109375 -17.921875 
L 12.109375 -9.1875 
Q 16.0625 -11.328125 19.921875 -12.34375 
Q 23.78125 -13.375 27.78125 -13.375 
Q 36.625 -13.375 41.015625 -8.765625 
Q 45.40625 -4.15625 45.40625 5.171875 
L 45.40625 9.625 
Q 42.625 4.78125 38.28125 2.390625 
Q 33.9375 0 27.875 0 
Q 17.828125 0 11.671875 7.65625 
Q 5.515625 15.328125 5.515625 27.984375 
Q 5.515625 40.671875 11.671875 48.328125 
Q 17.828125 56 27.875 56 
Q 33.9375 56 38.28125 53.609375 
Q 42.625 51.21875 45.40625 46.390625 
L 45.40625 54.6875 
L 54.390625 54.6875 
z
" id="DejaVuSans-103"/>
      <path d="M 9.421875 75.984375 
L 18.40625 75.984375 
L 18.40625 0 
L 9.421875 0 
z
" id="DejaVuSans-108"/>
     </defs>
     <g transform="translate(355.405938 72.748563)scale(0.1 -0.1)">
      <use xlink:href="#DejaVuSans-103"/>
      <use x="63.476562" xlink:href="#DejaVuSans-108"/>
      <use x="91.259766" xlink:href="#DejaVuSans-117"/>
      <use x="154.638672" xlink:href="#DejaVuSans-111"/>
      <use x="215.820312" xlink:href="#DejaVuSans-110"/>
     </g>
    </g>
    <g id="patch_16">
     <path d="M 327.405938 87.426688 
L 347.405938 87.426688 
L 347.405938 80.426688 
L 327.405938 80.426688 
z
" style="fill:none;stroke:#2ca02c;stroke-linejoin:miter;"/>
    </g>
    <g id="text_21">
     <!-- W -->
     <defs>
      <path d="M 3.328125 72.90625 
L 13.28125 72.90625 
L 28.609375 11.28125 
L 43.890625 72.90625 
L 54.984375 72.90625 
L 70.3125 11.28125 
L 85.59375 72.90625 
L 95.609375 72.90625 
L 77.296875 0 
L 64.890625 0 
L 49.515625 63.28125 
L 33.984375 0 
L 21.578125 0 
z
" id="DejaVuSans-87"/>
     </defs>
     <g transform="translate(355.405938 87.426688)scale(0.1 -0.1)">
      <use xlink:href="#DejaVuSans-87"/>
     </g>
    </g>
    <g id="patch_17">
     <path d="M 327.405938 102.104813 
L 347.405938 102.104813 
L 347.405938 95.104813 
L 327.405938 95.104813 
z
" style="fill:none;stroke:#d62728;stroke-linejoin:miter;"/>
    </g>
    <g id="text_22">
     <!-- Z -->
     <defs>
      <path d="M 5.609375 72.90625 
L 62.890625 72.90625 
L 62.890625 65.375 
L 16.796875 8.296875 
L 64.015625 8.296875 
L 64.015625 0 
L 4.5 0 
L 4.5 7.515625 
L 50.59375 64.59375 
L 5.609375 64.59375 
z
" id="DejaVuSans-90"/>
     </defs>
     <g transform="translate(355.405938 102.104813)scale(0.1 -0.1)">
      <use xlink:href="#DejaVuSans-90"/>
     </g>
    </g>
    <g id="patch_18">
     <path d="M 327.405938 116.782938 
L 347.405938 116.782938 
L 347.405938 109.782938 
L 327.405938 109.782938 
z
" style="fill:none;stroke:#9467bd;stroke-linejoin:miter;"/>
    </g>
    <g id="text_23">
     <!-- top -->
     <defs>
      <path d="M 18.109375 8.203125 
L 18.109375 -20.796875 
L 9.078125 -20.796875 
L 9.078125 54.6875 
L 18.109375 54.6875 
L 18.109375 46.390625 
Q 20.953125 51.265625 25.265625 53.625 
Q 29.59375 56 35.59375 56 
Q 45.5625 56 51.78125 48.09375 
Q 58.015625 40.1875 58.015625 27.296875 
Q 58.015625 14.40625 51.78125 6.484375 
Q 45.5625 -1.421875 35.59375 -1.421875 
Q 29.59375 -1.421875 25.265625 0.953125 
Q 20.953125 3.328125 18.109375 8.203125 
z
M 48.6875 27.296875 
Q 48.6875 37.203125 44.609375 42.84375 
Q 40.53125 48.484375 33.40625 48.484375 
Q 26.265625 48.484375 22.1875 42.84375 
Q 18.109375 37.203125 18.109375 27.296875 
Q 18.109375 17.390625 22.1875 11.75 
Q 26.265625 6.109375 33.40625 6.109375 
Q 40.53125 6.109375 44.609375 11.75 
Q 48.6875 17.390625 48.6875 27.296875 
z
" id="DejaVuSans-112"/>
     </defs>
     <g transform="translate(355.405938 116.782938)scale(0.1 -0.1)">
      <use xlink:href="#DejaVuSans-116"/>
      <use x="39.208984" xlink:href="#DejaVuSans-111"/>
      <use x="100.390625" xlink:href="#DejaVuSans-112"/>
     </g>
    </g>
    <g id="patch_19">
     <path d="M 327.405938 131.461063 
L 347.405938 131.461063 
L 347.405938 124.461063 
L 327.405938 124.461063 
z
" style="fill:none;stroke:#000000;stroke-linejoin:miter;"/>
    </g>
    <g id="text_24">
     <!-- undefined -->
     <defs>
      <path d="M 37.109375 75.984375 
L 37.109375 68.5 
L 28.515625 68.5 
Q 23.6875 68.5 21.796875 66.546875 
Q 19.921875 64.59375 19.921875 59.515625 
L 19.921875 54.6875 
L 34.71875 54.6875 
L 34.71875 47.703125 
L 19.921875 47.703125 
L 19.921875 0 
L 10.890625 0 
L 10.890625 47.703125 
L 2.296875 47.703125 
L 2.296875 54.6875 
L 10.890625 54.6875 
L 10.890625 58.5 
Q 10.890625 67.625 15.140625 71.796875 
Q 19.390625 75.984375 28.609375 75.984375 
z
" id="DejaVuSans-102"/>
     </defs>
     <g transform="translate(355.405938 131.461063)scale(0.1 -0.1)">
      <use xlink:href="#DejaVuSans-117"/>
      <use x="63.378906" xlink:href="#DejaVuSans-110"/>
      <use x="126.757812" xlink:href="#DejaVuSans-100"/>
      <use x="190.234375" xlink:href="#DejaVuSans-101"/>
      <use x="251.757812" xlink:href="#DejaVuSans-102"/>
      <use x="286.962891" xlink:href="#DejaVuSans-105"/>
      <use x="314.746094" xlink:href="#DejaVuSans-110"/>
      <use x="378.125" xlink:href="#DejaVuSans-101"/>
      <use x="439.648438" xlink:href="#DejaVuSans-100"/>
     </g>
    </g>
   </g>
  </g>
 </g>
 <defs>
  <clipPath id="p93ef6e88ce">
   <rect height="266.112" width="357.12" x="57.6" y="41.472"/>
  </clipPath>
 </defs>
</svg>
