<?xml version="1.0" encoding="utf-8" standalone="no"?>
<!DOCTYPE svg PUBLIC "-//W3C//DTD SVG 1.1//EN"
  "http://www.w3.org/Graphics/SVG/1.1/DTD/svg11.dtd">
<!-- Created with matplotlib (https://matplotlib.org/) -->
<svg height="345.6pt" version="1.1" viewBox="0 0 460.8 345.6" width="460.8pt" xmlns="http://www.w3.org/2000/svg" xmlns:xlink="http://www.w3.org/1999/xlink">
 <defs>
  <style type="text/css">
*{stroke-linecap:butt;stroke-linejoin:round;}
  </style>
 </defs>
 <g id="figure_1">
  <g id="patch_1">
   <path d="M 0 345.6 
L 460.8 345.6 
L 460.8 0 
L 0 0 
z
" style="fill:#ffffff;"/>
  </g>
  <g id="axes_1">
   <g id="patch_2">
    <path d="M 57.6 307.584 
L 414.72 307.584 
L 414.72 41.472 
L 57.6 41.472 
z
" style="fill:#ffffff;"/>
   </g>
   <g id="patch_3">
    <path clip-path="url(#pde7eaba69e)" d="M 73.832727 307.584 
L 73.832727 307.47304 
L 90.065454 307.408655 
L 90.065454 307.166187 
L 93.312003 307.166187 
L 93.312003 307.457971 
L 96.558546 307.457971 
L 96.558546 307.156598 
L 99.805089 307.156598 
L 99.805089 307.023719 
L 106.298181 306.999062 
L 106.298181 307.171666 
L 116.037821 307.170296 
L 116.037821 306.859334 
L 119.284364 306.859334 
L 119.284364 307.192215 
L 122.530907 307.192215 
L 122.530907 307.007281 
L 129.024005 307.116871 
L 129.024005 306.722346 
L 135.517091 306.79084 
L 135.517091 307.02098 
L 138.763634 307.02098 
L 138.763634 306.696318 
L 142.010177 306.696318 
L 142.010177 306.473028 
L 145.256732 306.473028 
L 145.256732 306.237409 
L 148.503275 306.237409 
L 148.503275 306.119599 
L 151.749818 306.119599 
L 151.749818 306.388095 
L 158.242904 306.356588 
L 158.242904 306.086722 
L 161.489459 306.086722 
L 161.489459 305.916857 
L 167.982544 305.922337 
L 167.982544 306.046996 
L 171.229087 306.046996 
L 171.229087 306.259327 
L 180.968728 306.305903 
L 180.968728 305.779869 
L 184.215271 305.779869 
L 184.215271 305.455207 
L 190.708369 305.546989 
L 190.708369 305.234657 
L 193.954912 305.234657 
L 193.954912 305.630552 
L 197.201455 305.630552 
L 197.201455 304.704514 
L 200.447998 304.704514 
L 200.447998 305.260685 
L 210.187639 305.240136 
L 210.187639 304.799035 
L 213.434181 304.799035 
L 213.434181 304.083959 
L 216.680724 304.083959 
L 216.680724 303.7319 
L 226.420353 303.833271 
L 226.420353 303.404499 
L 229.66692 303.404499 
L 229.66692 303.15929 
L 232.913463 303.15929 
L 232.913463 303.889436 
L 236.160006 303.889436 
L 236.160006 302.408596 
L 242.653092 302.467501 
L 242.653092 301.642834 
L 245.899635 301.642834 
L 245.899635 302.148319 
L 249.146178 302.148319 
L 249.146178 301.985304 
L 252.392721 301.985304 
L 252.392721 301.267486 
L 255.639264 301.267486 
L 255.639264 301.440091 
L 258.885806 301.440091 
L 258.885806 300.872961 
L 262.132374 300.872961 
L 262.132374 300.583917 
L 271.872002 300.571588 
L 271.872002 298.775676 
L 275.118545 298.775676 
L 275.118545 299.156503 
L 278.365088 299.156503 
L 278.365088 297.889366 
L 281.611631 297.889366 
L 281.611631 299.012666 
L 284.858174 299.012666 
L 284.858174 297.281139 
L 291.351284 297.355113 
L 291.351284 296.359209 
L 294.597827 296.359209 
L 294.597827 294.674259 
L 297.84437 294.674259 
L 297.84437 293.83726 
L 301.090913 293.83726 
L 301.090913 294.216719 
L 304.337456 294.216719 
L 304.337456 293.901645 
L 307.583999 293.901645 
L 307.583999 293.638629 
L 310.830541 293.638629 
L 310.830541 290.393386 
L 314.077084 290.393386 
L 314.077084 290.982434 
L 317.323627 290.982434 
L 317.323627 289.796119 
L 320.57017 289.796119 
L 320.57017 288.115278 
L 323.816737 288.115278 
L 323.816737 285.252229 
L 327.06328 285.252229 
L 327.06328 288.119385 
L 330.309823 288.119385 
L 330.309823 284.55907 
L 333.556366 284.55907 
L 333.556366 283.483713 
L 336.802909 283.483713 
L 336.802909 284.227559 
L 340.049452 284.227559 
L 340.049452 283.880979 
L 343.295995 283.880979 
L 343.295995 278.109676 
L 346.542538 278.109676 
L 346.542538 278.97544 
L 349.789081 278.97544 
L 349.789081 278.175433 
L 353.035648 278.175433 
L 353.035648 274.258944 
L 356.282191 274.258944 
L 356.282191 272.504132 
L 359.528734 272.504132 
L 359.528734 271.571245 
L 362.775276 271.571245 
L 362.775276 265.697205 
L 366.021819 265.697205 
L 366.021819 264.014992 
L 369.268362 264.014992 
L 369.268362 264.780752 
L 372.514905 264.780752 
L 372.514905 259.657399 
L 375.761448 259.657399 
L 375.761448 258.631366 
L 379.007991 258.631366 
L 379.007991 256.369698 
L 382.254534 256.369698 
L 382.254534 266.131457 
L 385.501101 266.131457 
L 385.501101 272.478105 
L 388.747644 272.478105 
L 388.747644 283.237135 
L 391.994187 283.237135 
L 391.994187 297.889364 
L 395.24073 297.889364 
L 395.24073 306.783991 
L 398.487273 306.783991 
L 398.487273 307.584 
L 398.487273 307.584 
" style="fill:none;stroke:#1f77b4;stroke-linejoin:miter;"/>
   </g>
   <g id="patch_4">
    <path clip-path="url(#pde7eaba69e)" d="M 73.832727 307.584 
L 86.818911 307.584 
L 86.818911 307.440163 
L 90.065454 307.440163 
L 90.065454 307.584 
L 99.805089 307.584 
L 99.805089 307.445642 
L 103.051638 307.445642 
L 103.051638 307.584 
L 106.298181 307.584 
L 106.298181 307.364819 
L 109.544724 307.364819 
L 109.544724 307.536054 
L 116.037821 307.541534 
L 116.037821 307.418245 
L 122.530907 307.414135 
L 122.530907 307.562082 
L 132.270548 307.537424 
L 132.270548 307.35797 
L 135.517091 307.35797 
L 135.517091 307.47167 
L 148.503275 307.533314 
L 148.503275 307.293586 
L 151.749818 307.293586 
L 151.749818 307.436053 
L 158.242904 307.47304 
L 158.242904 307.319613 
L 167.982544 307.278517 
L 167.982544 307.089474 
L 174.475642 307.157967 
L 174.475642 307.374408 
L 184.215271 307.279887 
L 184.215271 307.119611 
L 187.461814 307.119611 
L 187.461814 306.897691 
L 190.708369 306.897691 
L 190.708369 307.292216 
L 193.954912 307.292216 
L 193.954912 307.057966 
L 197.201455 307.057966 
L 197.201455 306.936047 
L 200.447998 306.936047 
L 200.447998 307.230571 
L 203.694553 307.230571 
L 203.694553 306.879882 
L 206.941096 306.879882 
L 206.941096 307.163447 
L 210.187639 307.163447 
L 210.187639 306.833306 
L 213.434181 306.833306 
L 213.434181 306.541522 
L 223.17381 306.557961 
L 223.17381 306.90317 
L 229.66692 306.888101 
L 229.66692 306.492206 
L 232.913463 306.492206 
L 232.913463 305.853842 
L 236.160006 305.853842 
L 236.160006 306.003159 
L 239.406549 306.003159 
L 239.406549 306.871663 
L 242.653092 306.871663 
L 242.653092 306.10316 
L 249.146178 306.067544 
L 249.146178 306.608646 
L 252.392721 306.608646 
L 252.392721 305.948364 
L 258.885806 306.020967 
L 258.885806 305.407262 
L 262.132374 305.407262 
L 262.132374 305.790828 
L 265.378916 305.790828 
L 265.378916 304.851091 
L 271.872002 304.74013 
L 271.872002 305.485345 
L 275.118545 305.485345 
L 275.118545 305.279863 
L 278.365088 305.279863 
L 278.365088 304.923694 
L 281.611631 304.923694 
L 281.611631 304.463415 
L 284.858174 304.463415 
L 284.858174 302.897644 
L 288.104717 302.897644 
L 288.104717 303.364772 
L 291.351284 303.364772 
L 291.351284 303.027782 
L 294.597827 303.027782 
L 294.597827 302.504488 
L 297.84437 302.504488 
L 297.84437 300.740084 
L 301.090913 300.740084 
L 301.090913 303.011344 
L 304.337456 303.011344 
L 304.337456 301.253788 
L 307.583999 301.253788 
L 307.583999 299.75514 
L 310.830541 299.75514 
L 310.830541 299.140064 
L 314.077084 299.140064 
L 314.077084 297.205795 
L 317.323627 297.205795 
L 317.323627 296.337293 
L 320.57017 296.337293 
L 320.57017 294.52905 
L 327.06328 294.522201 
L 327.06328 290.34681 
L 330.309823 290.34681 
L 330.309823 289.850912 
L 333.556366 289.850912 
L 333.556366 286.083748 
L 336.802909 286.083748 
L 336.802909 283.426181 
L 340.049452 283.426181 
L 340.049452 281.180946 
L 343.295995 281.180946 
L 343.295995 278.916538 
L 346.542538 278.916538 
L 346.542538 274.539777 
L 349.789081 274.539777 
L 349.789081 269.373963 
L 353.035648 269.373963 
L 353.035648 266.294472 
L 356.282191 266.294472 
L 356.282191 255.702568 
L 359.528734 255.702568 
L 359.528734 247.809324 
L 362.775276 247.809324 
L 362.775276 240.464031 
L 366.021819 240.464031 
L 366.021819 224.213158 
L 369.268362 224.213158 
L 369.268362 210.61709 
L 372.514905 210.61709 
L 372.514905 192.414142 
L 375.761448 192.414142 
L 375.761448 165.768627 
L 379.007991 165.768627 
L 379.007991 136.51897 
L 382.254534 136.51897 
L 382.254534 109.306323 
L 385.501101 109.306323 
L 385.501101 103.174717 
L 388.747644 103.174717 
L 388.747644 117.55574 
L 391.994187 117.55574 
L 391.994187 202.608794 
L 395.24073 202.608794 
L 395.24073 282.501512 
L 398.487273 282.501512 
L 398.487273 307.584 
L 398.487273 307.584 
" style="fill:none;stroke:#ff7f0e;stroke-linejoin:miter;"/>
   </g>
   <g id="patch_5">
    <path clip-path="url(#pde7eaba69e)" d="M 73.832727 307.584 
L 73.832727 307.542904 
L 103.051638 307.486739 
L 103.051638 307.426464 
L 138.763634 307.378518 
L 138.763634 307.227831 
L 142.010177 307.227831 
L 142.010177 307.47167 
L 148.503275 307.394957 
L 148.503275 307.342901 
L 154.996361 307.307284 
L 154.996361 307.203174 
L 158.242904 307.203174 
L 158.242904 307.316874 
L 161.489459 307.316874 
L 161.489459 307.181256 
L 167.982544 307.13331 
L 167.982544 307.01413 
L 184.215271 306.999062 
L 184.215271 306.852484 
L 200.447998 306.78947 
L 200.447998 307.182625 
L 203.694553 307.182625 
L 203.694553 306.729195 
L 206.941096 306.729195 
L 206.941096 306.55796 
L 213.434181 306.630564 
L 213.434181 306.670291 
L 216.680724 306.670291 
L 216.680724 306.2196 
L 219.927267 306.2196 
L 219.927267 306.614126 
L 223.17381 306.614126 
L 223.17381 305.916857 
L 226.420353 305.916857 
L 226.420353 306.145627 
L 229.66692 306.145627 
L 229.66692 305.823705 
L 232.913463 305.823705 
L 232.913463 306.3333 
L 236.160006 306.3333 
L 236.160006 305.988091 
L 242.653092 306.051105 
L 242.653092 305.245616 
L 245.899635 305.245616 
L 245.899635 305.756581 
L 249.146178 305.756581 
L 249.146178 305.371645 
L 252.392721 305.371645 
L 252.392721 304.662048 
L 255.639264 304.662048 
L 255.639264 304.530539 
L 258.885806 304.530539 
L 258.885806 304.941503 
L 262.132374 304.941503 
L 262.132374 304.457936 
L 268.625459 304.40725 
L 268.625459 304.327797 
L 271.872002 304.327797 
L 271.872002 304.204508 
L 281.611631 304.1867 
L 281.611631 303.189428 
L 284.858174 303.189428 
L 284.858174 302.905862 
L 288.104717 302.905862 
L 288.104717 302.493528 
L 291.351284 302.493528 
L 291.351284 301.646943 
L 294.597827 301.646943 
L 294.597827 301.879823 
L 297.84437 301.879823 
L 297.84437 300.363367 
L 304.337456 300.274324 
L 304.337456 299.87706 
L 307.583999 299.87706 
L 307.583999 299.093488 
L 310.830541 299.093488 
L 310.830541 298.000325 
L 314.077084 298.000325 
L 314.077084 297.393468 
L 317.323627 297.393468 
L 317.323627 296.620856 
L 320.57017 296.620856 
L 320.57017 294.682478 
L 323.816737 294.682478 
L 323.816737 295.303033 
L 327.06328 295.303033 
L 327.06328 293.712604 
L 330.309823 293.712604 
L 330.309823 290.882432 
L 333.556366 290.882432 
L 333.556366 289.524885 
L 336.802909 289.524885 
L 336.802909 286.249503 
L 340.049452 286.249503 
L 340.049452 281.126154 
L 343.295995 281.126154 
L 343.295995 280.959028 
L 346.542538 280.959028 
L 346.542538 276.008286 
L 349.789081 276.008286 
L 349.789081 272.206865 
L 353.035648 272.206865 
L 353.035648 265.002676 
L 356.282191 265.002676 
L 356.282191 257.843685 
L 359.528734 257.843685 
L 359.528734 250.984694 
L 362.775276 250.984694 
L 362.775276 241.088697 
L 366.021819 241.088697 
L 366.021819 235.621504 
L 369.268362 235.621504 
L 369.268362 228.04882 
L 372.514905 228.04882 
L 372.514905 220.688451 
L 375.761448 220.688451 
L 375.761448 224.029596 
L 379.007991 224.029596 
L 379.007991 228.644712 
L 382.254534 228.644712 
L 382.254534 247.565485 
L 385.501101 247.565485 
L 385.501101 270.66575 
L 388.747644 270.66575 
L 388.747644 292.997529 
L 391.994187 292.997529 
L 391.994187 305.782609 
L 395.24073 305.782609 
L 395.24073 307.584 
L 398.487273 307.584 
L 398.487273 307.584 
" style="fill:none;stroke:#2ca02c;stroke-linejoin:miter;"/>
   </g>
   <g id="patch_6">
    <path clip-path="url(#pde7eaba69e)" d="M 73.832727 307.584 
L 86.818911 307.584 
L 86.818911 307.397696 
L 90.065454 307.397696 
L 90.065454 307.559342 
L 106.298181 307.47167 
L 106.298181 307.445642 
L 112.791279 307.47304 
L 112.791279 307.584 
L 119.284364 307.545643 
L 119.284364 307.452492 
L 145.256732 307.489478 
L 145.256732 307.178516 
L 148.503275 307.178516 
L 148.503275 307.416875 
L 151.749818 307.416875 
L 151.749818 307.189475 
L 154.996361 307.189475 
L 154.996361 307.520986 
L 158.242904 307.520986 
L 158.242904 307.219612 
L 164.736001 307.260708 
L 164.736001 306.920978 
L 167.982544 306.920978 
L 167.982544 307.115501 
L 174.475642 307.163447 
L 174.475642 307.230571 
L 177.722185 307.230571 
L 177.722185 306.929198 
L 197.201455 306.877142 
L 197.201455 306.645633 
L 200.447998 306.645633 
L 200.447998 306.933307 
L 203.694553 306.933307 
L 203.694553 306.775771 
L 206.941096 306.775771 
L 206.941096 306.952486 
L 210.187639 306.952486 
L 210.187639 306.34015 
L 223.17381 306.378506 
L 223.17381 306.594947 
L 226.420353 306.594947 
L 226.420353 305.726444 
L 229.66692 305.726444 
L 229.66692 306.057955 
L 232.913463 306.057955 
L 232.913463 306.289464 
L 236.160006 306.289464 
L 236.160006 305.586716 
L 239.406549 305.586716 
L 239.406549 305.848363 
L 245.899635 305.855212 
L 245.899635 305.274383 
L 249.146178 305.274383 
L 249.146178 305.100409 
L 252.392721 305.100409 
L 252.392721 305.292192 
L 262.132374 305.338768 
L 262.132374 304.797665 
L 265.378916 304.797665 
L 265.378916 304.585334 
L 271.872002 304.529169 
L 271.872002 304.259303 
L 275.118545 304.259303 
L 275.118545 303.701763 
L 281.611631 303.681214 
L 281.611631 303.27573 
L 284.858174 303.27573 
L 284.858174 303.034632 
L 291.351284 302.971616 
L 291.351284 302.59353 
L 294.597827 302.59353 
L 294.597827 301.80037 
L 297.84437 301.80037 
L 297.84437 300.220899 
L 301.090913 300.220899 
L 301.090913 301.325022 
L 304.337456 301.325022 
L 304.337456 299.748291 
L 307.583999 299.748291 
L 307.583999 299.360615 
L 310.830541 299.360615 
L 310.830541 297.314015 
L 314.077084 297.314015 
L 314.077084 298.020873 
L 317.323627 298.020873 
L 317.323627 297.112642 
L 320.57017 297.112642 
L 320.57017 296.119481 
L 323.816737 296.119481 
L 323.816737 293.203008 
L 327.06328 293.203008 
L 327.06328 293.034513 
L 330.309823 293.034513 
L 330.309823 290.426262 
L 333.556366 290.426262 
L 333.556366 288.945423 
L 336.802909 288.945423 
L 336.802909 285.954978 
L 340.049452 285.954978 
L 340.049452 283.850841 
L 343.295995 283.850841 
L 343.295995 279.612435 
L 346.542538 279.612435 
L 346.542538 276.142531 
L 349.789081 276.142531 
L 349.789081 270.794528 
L 353.035648 270.794528 
L 353.035648 262.428669 
L 356.282191 262.428669 
L 356.282191 257.045046 
L 359.528734 257.045046 
L 359.528734 249.084673 
L 362.775276 249.084673 
L 362.775276 241.180484 
L 366.021819 241.180484 
L 366.021819 233.972173 
L 369.268362 233.972173 
L 369.268362 225.529613 
L 372.514905 225.529613 
L 372.514905 220.974754 
L 375.761448 220.974754 
L 375.761448 217.007584 
L 379.007991 217.007584 
L 379.007991 221.584344 
L 382.254534 221.584344 
L 382.254534 236.816039 
L 385.501101 236.816039 
L 385.501101 263.036897 
L 388.747644 263.036897 
L 388.747644 284.986472 
L 391.994187 284.986472 
L 391.994187 304.382592 
L 395.24073 304.382592 
L 395.24073 307.46756 
L 398.487273 307.46756 
L 398.487273 307.584 
L 398.487273 307.584 
" style="fill:none;stroke:#d62728;stroke-linejoin:miter;"/>
   </g>
   <g id="patch_7">
    <path clip-path="url(#pde7eaba69e)" d="M 73.832727 307.584 
L 190.708369 307.501807 
L 190.708369 307.434683 
L 203.694553 307.449752 
L 203.694553 307.584 
L 210.187639 307.584 
L 210.187639 307.404546 
L 219.927267 307.411395 
L 219.927267 307.286736 
L 226.420353 307.271668 
L 226.420353 307.452492 
L 232.913463 307.434683 
L 232.913463 307.233311 
L 236.160006 307.233311 
L 236.160006 307.364819 
L 242.653092 307.370299 
L 242.653092 307.170296 
L 245.899635 307.170296 
L 245.899635 307.342901 
L 252.392721 307.263448 
L 252.392721 307.068925 
L 255.639264 307.068925 
L 255.639264 306.951116 
L 258.885806 306.951116 
L 258.885806 307.138789 
L 262.132374 307.138789 
L 262.132374 307.259339 
L 265.378916 307.259339 
L 265.378916 306.757963 
L 268.625459 306.757963 
L 268.625459 306.882622 
L 271.872002 306.882622 
L 271.872002 307.066186 
L 275.118545 307.066186 
L 275.118545 306.67577 
L 281.611631 306.694948 
L 281.611631 306.275765 
L 284.858174 306.275765 
L 284.858174 306.137407 
L 288.104717 306.137407 
L 288.104717 306.418233 
L 294.597827 306.312752 
L 294.597827 306.152476 
L 297.84437 306.152476 
L 297.84437 305.9922 
L 301.090913 305.9922 
L 301.090913 305.737403 
L 304.337456 305.737403 
L 304.337456 304.756569 
L 307.583999 304.756569 
L 307.583999 304.926434 
L 310.830541 304.926434 
L 310.830541 304.493552 
L 314.077084 304.493552 
L 314.077084 303.227784 
L 317.323627 303.227784 
L 317.323627 304.436017 
L 320.57017 304.436017 
L 320.57017 303.403129 
L 323.816737 303.403129 
L 323.816737 301.903111 
L 327.06328 301.903111 
L 327.06328 301.12365 
L 330.309823 301.12365 
L 330.309823 299.159243 
L 333.556366 299.159243 
L 333.556366 298.711292 
L 336.802909 298.711292 
L 336.802909 295.713996 
L 340.049452 295.713996 
L 340.049452 293.820824 
L 343.295995 293.820824 
L 343.295995 291.582438 
L 346.542538 291.582438 
L 346.542538 288.326236 
L 349.789081 288.326236 
L 349.789081 283.217962 
L 353.035648 283.217962 
L 353.035648 279.76723 
L 356.282191 279.76723 
L 356.282191 270.776715 
L 359.528734 270.776715 
L 359.528734 260.139596 
L 362.775276 260.139596 
L 362.775276 250.188799 
L 366.021819 250.188799 
L 366.021819 233.769421 
L 369.268362 233.769421 
L 369.268362 206.429374 
L 372.514905 206.429374 
L 372.514905 169.079621 
L 375.761448 169.079621 
L 375.761448 131.527116 
L 379.007991 131.527116 
L 379.007991 82.959398 
L 382.254534 82.959398 
L 382.254534 59.898855 
L 385.501101 59.898855 
L 385.501101 54.144 
L 388.747644 54.144 
L 388.747644 121.816039 
L 391.994187 121.816039 
L 391.994187 233.650251 
L 395.24073 233.650251 
L 395.24073 299.571576 
L 398.487273 299.571576 
L 398.487273 307.584 
L 398.487273 307.584 
" style="fill:none;stroke:#9467bd;stroke-linejoin:miter;"/>
   </g>
   <g id="patch_8">
    <path clip-path="url(#pde7eaba69e)" d="M 73.832727 307.584 
L 398.487273 307.584 
L 398.487273 307.584 
" style="fill:none;stroke:#000000;stroke-linejoin:miter;"/>
   </g>
   <g id="matplotlib.axis_1">
    <g id="xtick_1">
     <g id="line2d_1">
      <defs>
       <path d="M 0 0 
L 0 3.5 
" id="m16e486e373" style="stroke:#000000;stroke-width:0.8;"/>
      </defs>
      <g>
       <use style="stroke:#000000;stroke-width:0.8;" x="80.682877" xlink:href="#m16e486e373" y="307.584"/>
      </g>
     </g>
     <g id="text_1">
      <!-- 0.10 -->
      <defs>
       <path d="M 31.78125 66.40625 
Q 24.171875 66.40625 20.328125 58.90625 
Q 16.5 51.421875 16.5 36.375 
Q 16.5 21.390625 20.328125 13.890625 
Q 24.171875 6.390625 31.78125 6.390625 
Q 39.453125 6.390625 43.28125 13.890625 
Q 47.125 21.390625 47.125 36.375 
Q 47.125 51.421875 43.28125 58.90625 
Q 39.453125 66.40625 31.78125 66.40625 
z
M 31.78125 74.21875 
Q 44.046875 74.21875 50.515625 64.515625 
Q 56.984375 54.828125 56.984375 36.375 
Q 56.984375 17.96875 50.515625 8.265625 
Q 44.046875 -1.421875 31.78125 -1.421875 
Q 19.53125 -1.421875 13.0625 8.265625 
Q 6.59375 17.96875 6.59375 36.375 
Q 6.59375 54.828125 13.0625 64.515625 
Q 19.53125 74.21875 31.78125 74.21875 
z
" id="DejaVuSans-48"/>
       <path d="M 10.6875 12.40625 
L 21 12.40625 
L 21 0 
L 10.6875 0 
z
" id="DejaVuSans-46"/>
       <path d="M 12.40625 8.296875 
L 28.515625 8.296875 
L 28.515625 63.921875 
L 10.984375 60.40625 
L 10.984375 69.390625 
L 28.421875 72.90625 
L 38.28125 72.90625 
L 38.28125 8.296875 
L 54.390625 8.296875 
L 54.390625 0 
L 12.40625 0 
z
" id="DejaVuSans-49"/>
      </defs>
      <g transform="translate(69.550064 322.182437)scale(0.1 -0.1)">
       <use xlink:href="#DejaVuSans-48"/>
       <use x="63.623047" xlink:href="#DejaVuSans-46"/>
       <use x="95.410156" xlink:href="#DejaVuSans-49"/>
       <use x="159.033203" xlink:href="#DejaVuSans-48"/>
      </g>
     </g>
    </g>
    <g id="xtick_2">
     <g id="line2d_2">
      <g>
       <use style="stroke:#000000;stroke-width:0.8;" x="121.097464" xlink:href="#m16e486e373" y="307.584"/>
      </g>
     </g>
     <g id="text_2">
      <!-- 0.15 -->
      <defs>
       <path d="M 10.796875 72.90625 
L 49.515625 72.90625 
L 49.515625 64.59375 
L 19.828125 64.59375 
L 19.828125 46.734375 
Q 21.96875 47.46875 24.109375 47.828125 
Q 26.265625 48.1875 28.421875 48.1875 
Q 40.625 48.1875 47.75 41.5 
Q 54.890625 34.8125 54.890625 23.390625 
Q 54.890625 11.625 47.5625 5.09375 
Q 40.234375 -1.421875 26.90625 -1.421875 
Q 22.3125 -1.421875 17.546875 -0.640625 
Q 12.796875 0.140625 7.71875 1.703125 
L 7.71875 11.625 
Q 12.109375 9.234375 16.796875 8.0625 
Q 21.484375 6.890625 26.703125 6.890625 
Q 35.15625 6.890625 40.078125 11.328125 
Q 45.015625 15.765625 45.015625 23.390625 
Q 45.015625 31 40.078125 35.4375 
Q 35.15625 39.890625 26.703125 39.890625 
Q 22.75 39.890625 18.8125 39.015625 
Q 14.890625 38.140625 10.796875 36.28125 
z
" id="DejaVuSans-53"/>
      </defs>
      <g transform="translate(109.964652 322.182437)scale(0.1 -0.1)">
       <use xlink:href="#DejaVuSans-48"/>
       <use x="63.623047" xlink:href="#DejaVuSans-46"/>
       <use x="95.410156" xlink:href="#DejaVuSans-49"/>
       <use x="159.033203" xlink:href="#DejaVuSans-53"/>
      </g>
     </g>
    </g>
    <g id="xtick_3">
     <g id="line2d_3">
      <g>
       <use style="stroke:#000000;stroke-width:0.8;" x="161.512052" xlink:href="#m16e486e373" y="307.584"/>
      </g>
     </g>
     <g id="text_3">
      <!-- 0.20 -->
      <defs>
       <path d="M 19.1875 8.296875 
L 53.609375 8.296875 
L 53.609375 0 
L 7.328125 0 
L 7.328125 8.296875 
Q 12.9375 14.109375 22.625 23.890625 
Q 32.328125 33.6875 34.8125 36.53125 
Q 39.546875 41.84375 41.421875 45.53125 
Q 43.3125 49.21875 43.3125 52.78125 
Q 43.3125 58.59375 39.234375 62.25 
Q 35.15625 65.921875 28.609375 65.921875 
Q 23.96875 65.921875 18.8125 64.3125 
Q 13.671875 62.703125 7.8125 59.421875 
L 7.8125 69.390625 
Q 13.765625 71.78125 18.9375 73 
Q 24.125 74.21875 28.421875 74.21875 
Q 39.75 74.21875 46.484375 68.546875 
Q 53.21875 62.890625 53.21875 53.421875 
Q 53.21875 48.921875 51.53125 44.890625 
Q 49.859375 40.875 45.40625 35.40625 
Q 44.1875 33.984375 37.640625 27.21875 
Q 31.109375 20.453125 19.1875 8.296875 
z
" id="DejaVuSans-50"/>
      </defs>
      <g transform="translate(150.379239 322.182437)scale(0.1 -0.1)">
       <use xlink:href="#DejaVuSans-48"/>
       <use x="63.623047" xlink:href="#DejaVuSans-46"/>
       <use x="95.410156" xlink:href="#DejaVuSans-50"/>
       <use x="159.033203" xlink:href="#DejaVuSans-48"/>
      </g>
     </g>
    </g>
    <g id="xtick_4">
     <g id="line2d_4">
      <g>
       <use style="stroke:#000000;stroke-width:0.8;" x="201.926639" xlink:href="#m16e486e373" y="307.584"/>
      </g>
     </g>
     <g id="text_4">
      <!-- 0.25 -->
      <g transform="translate(190.793826 322.182437)scale(0.1 -0.1)">
       <use xlink:href="#DejaVuSans-48"/>
       <use x="63.623047" xlink:href="#DejaVuSans-46"/>
       <use x="95.410156" xlink:href="#DejaVuSans-50"/>
       <use x="159.033203" xlink:href="#DejaVuSans-53"/>
      </g>
     </g>
    </g>
    <g id="xtick_5">
     <g id="line2d_5">
      <g>
       <use style="stroke:#000000;stroke-width:0.8;" x="242.341226" xlink:href="#m16e486e373" y="307.584"/>
      </g>
     </g>
     <g id="text_5">
      <!-- 0.30 -->
      <defs>
       <path d="M 40.578125 39.3125 
Q 47.65625 37.796875 51.625 33 
Q 55.609375 28.21875 55.609375 21.1875 
Q 55.609375 10.40625 48.1875 4.484375 
Q 40.765625 -1.421875 27.09375 -1.421875 
Q 22.515625 -1.421875 17.65625 -0.515625 
Q 12.796875 0.390625 7.625 2.203125 
L 7.625 11.71875 
Q 11.71875 9.328125 16.59375 8.109375 
Q 21.484375 6.890625 26.8125 6.890625 
Q 36.078125 6.890625 40.9375 10.546875 
Q 45.796875 14.203125 45.796875 21.1875 
Q 45.796875 27.640625 41.28125 31.265625 
Q 36.765625 34.90625 28.71875 34.90625 
L 20.21875 34.90625 
L 20.21875 43.015625 
L 29.109375 43.015625 
Q 36.375 43.015625 40.234375 45.921875 
Q 44.09375 48.828125 44.09375 54.296875 
Q 44.09375 59.90625 40.109375 62.90625 
Q 36.140625 65.921875 28.71875 65.921875 
Q 24.65625 65.921875 20.015625 65.03125 
Q 15.375 64.15625 9.8125 62.3125 
L 9.8125 71.09375 
Q 15.4375 72.65625 20.34375 73.4375 
Q 25.25 74.21875 29.59375 74.21875 
Q 40.828125 74.21875 47.359375 69.109375 
Q 53.90625 64.015625 53.90625 55.328125 
Q 53.90625 49.265625 50.4375 45.09375 
Q 46.96875 40.921875 40.578125 39.3125 
z
" id="DejaVuSans-51"/>
      </defs>
      <g transform="translate(231.208414 322.182437)scale(0.1 -0.1)">
       <use xlink:href="#DejaVuSans-48"/>
       <use x="63.623047" xlink:href="#DejaVuSans-46"/>
       <use x="95.410156" xlink:href="#DejaVuSans-51"/>
       <use x="159.033203" xlink:href="#DejaVuSans-48"/>
      </g>
     </g>
    </g>
    <g id="xtick_6">
     <g id="line2d_6">
      <g>
       <use style="stroke:#000000;stroke-width:0.8;" x="282.755814" xlink:href="#m16e486e373" y="307.584"/>
      </g>
     </g>
     <g id="text_6">
      <!-- 0.35 -->
      <g transform="translate(271.623001 322.182437)scale(0.1 -0.1)">
       <use xlink:href="#DejaVuSans-48"/>
       <use x="63.623047" xlink:href="#DejaVuSans-46"/>
       <use x="95.410156" xlink:href="#DejaVuSans-51"/>
       <use x="159.033203" xlink:href="#DejaVuSans-53"/>
      </g>
     </g>
    </g>
    <g id="xtick_7">
     <g id="line2d_7">
      <g>
       <use style="stroke:#000000;stroke-width:0.8;" x="323.170401" xlink:href="#m16e486e373" y="307.584"/>
      </g>
     </g>
     <g id="text_7">
      <!-- 0.40 -->
      <defs>
       <path d="M 37.796875 64.3125 
L 12.890625 25.390625 
L 37.796875 25.390625 
z
M 35.203125 72.90625 
L 47.609375 72.90625 
L 47.609375 25.390625 
L 58.015625 25.390625 
L 58.015625 17.1875 
L 47.609375 17.1875 
L 47.609375 0 
L 37.796875 0 
L 37.796875 17.1875 
L 4.890625 17.1875 
L 4.890625 26.703125 
z
" id="DejaVuSans-52"/>
      </defs>
      <g transform="translate(312.037589 322.182437)scale(0.1 -0.1)">
       <use xlink:href="#DejaVuSans-48"/>
       <use x="63.623047" xlink:href="#DejaVuSans-46"/>
       <use x="95.410156" xlink:href="#DejaVuSans-52"/>
       <use x="159.033203" xlink:href="#DejaVuSans-48"/>
      </g>
     </g>
    </g>
    <g id="xtick_8">
     <g id="line2d_8">
      <g>
       <use style="stroke:#000000;stroke-width:0.8;" x="363.584989" xlink:href="#m16e486e373" y="307.584"/>
      </g>
     </g>
     <g id="text_8">
      <!-- 0.45 -->
      <g transform="translate(352.452176 322.182437)scale(0.1 -0.1)">
       <use xlink:href="#DejaVuSans-48"/>
       <use x="63.623047" xlink:href="#DejaVuSans-46"/>
       <use x="95.410156" xlink:href="#DejaVuSans-52"/>
       <use x="159.033203" xlink:href="#DejaVuSans-53"/>
      </g>
     </g>
    </g>
    <g id="xtick_9">
     <g id="line2d_9">
      <g>
       <use style="stroke:#000000;stroke-width:0.8;" x="403.999576" xlink:href="#m16e486e373" y="307.584"/>
      </g>
     </g>
     <g id="text_9">
      <!-- 0.50 -->
      <g transform="translate(392.866764 322.182437)scale(0.1 -0.1)">
       <use xlink:href="#DejaVuSans-48"/>
       <use x="63.623047" xlink:href="#DejaVuSans-46"/>
       <use x="95.410156" xlink:href="#DejaVuSans-53"/>
       <use x="159.033203" xlink:href="#DejaVuSans-48"/>
      </g>
     </g>
    </g>
    <g id="text_10">
     <!-- j_c1_b0_mmdt -->
     <defs>
      <path d="M 9.421875 54.6875 
L 18.40625 54.6875 
L 18.40625 -0.984375 
Q 18.40625 -11.421875 14.421875 -16.109375 
Q 10.453125 -20.796875 1.609375 -20.796875 
L -1.8125 -20.796875 
L -1.8125 -13.1875 
L 0.59375 -13.1875 
Q 5.71875 -13.1875 7.5625 -10.8125 
Q 9.421875 -8.453125 9.421875 -0.984375 
z
M 9.421875 75.984375 
L 18.40625 75.984375 
L 18.40625 64.59375 
L 9.421875 64.59375 
z
" id="DejaVuSans-106"/>
      <path d="M 50.984375 -16.609375 
L 50.984375 -23.578125 
L -0.984375 -23.578125 
L -0.984375 -16.609375 
z
" id="DejaVuSans-95"/>
      <path d="M 48.78125 52.59375 
L 48.78125 44.1875 
Q 44.96875 46.296875 41.140625 47.34375 
Q 37.3125 48.390625 33.40625 48.390625 
Q 24.65625 48.390625 19.8125 42.84375 
Q 14.984375 37.3125 14.984375 27.296875 
Q 14.984375 17.28125 19.8125 11.734375 
Q 24.65625 6.203125 33.40625 6.203125 
Q 37.3125 6.203125 41.140625 7.25 
Q 44.96875 8.296875 48.78125 10.40625 
L 48.78125 2.09375 
Q 45.015625 0.34375 40.984375 -0.53125 
Q 36.96875 -1.421875 32.421875 -1.421875 
Q 20.0625 -1.421875 12.78125 6.34375 
Q 5.515625 14.109375 5.515625 27.296875 
Q 5.515625 40.671875 12.859375 48.328125 
Q 20.21875 56 33.015625 56 
Q 37.15625 56 41.109375 55.140625 
Q 45.0625 54.296875 48.78125 52.59375 
z
" id="DejaVuSans-99"/>
      <path d="M 48.6875 27.296875 
Q 48.6875 37.203125 44.609375 42.84375 
Q 40.53125 48.484375 33.40625 48.484375 
Q 26.265625 48.484375 22.1875 42.84375 
Q 18.109375 37.203125 18.109375 27.296875 
Q 18.109375 17.390625 22.1875 11.75 
Q 26.265625 6.109375 33.40625 6.109375 
Q 40.53125 6.109375 44.609375 11.75 
Q 48.6875 17.390625 48.6875 27.296875 
z
M 18.109375 46.390625 
Q 20.953125 51.265625 25.265625 53.625 
Q 29.59375 56 35.59375 56 
Q 45.5625 56 51.78125 48.09375 
Q 58.015625 40.1875 58.015625 27.296875 
Q 58.015625 14.40625 51.78125 6.484375 
Q 45.5625 -1.421875 35.59375 -1.421875 
Q 29.59375 -1.421875 25.265625 0.953125 
Q 20.953125 3.328125 18.109375 8.203125 
L 18.109375 0 
L 9.078125 0 
L 9.078125 75.984375 
L 18.109375 75.984375 
z
" id="DejaVuSans-98"/>
      <path d="M 52 44.1875 
Q 55.375 50.25 60.0625 53.125 
Q 64.75 56 71.09375 56 
Q 79.640625 56 84.28125 50.015625 
Q 88.921875 44.046875 88.921875 33.015625 
L 88.921875 0 
L 79.890625 0 
L 79.890625 32.71875 
Q 79.890625 40.578125 77.09375 44.375 
Q 74.3125 48.1875 68.609375 48.1875 
Q 61.625 48.1875 57.5625 43.546875 
Q 53.515625 38.921875 53.515625 30.90625 
L 53.515625 0 
L 44.484375 0 
L 44.484375 32.71875 
Q 44.484375 40.625 41.703125 44.40625 
Q 38.921875 48.1875 33.109375 48.1875 
Q 26.21875 48.1875 22.15625 43.53125 
Q 18.109375 38.875 18.109375 30.90625 
L 18.109375 0 
L 9.078125 0 
L 9.078125 54.6875 
L 18.109375 54.6875 
L 18.109375 46.1875 
Q 21.1875 51.21875 25.484375 53.609375 
Q 29.78125 56 35.6875 56 
Q 41.65625 56 45.828125 52.96875 
Q 50 49.953125 52 44.1875 
z
" id="DejaVuSans-109"/>
      <path d="M 45.40625 46.390625 
L 45.40625 75.984375 
L 54.390625 75.984375 
L 54.390625 0 
L 45.40625 0 
L 45.40625 8.203125 
Q 42.578125 3.328125 38.25 0.953125 
Q 33.9375 -1.421875 27.875 -1.421875 
Q 17.96875 -1.421875 11.734375 6.484375 
Q 5.515625 14.40625 5.515625 27.296875 
Q 5.515625 40.1875 11.734375 48.09375 
Q 17.96875 56 27.875 56 
Q 33.9375 56 38.25 53.625 
Q 42.578125 51.265625 45.40625 46.390625 
z
M 14.796875 27.296875 
Q 14.796875 17.390625 18.875 11.75 
Q 22.953125 6.109375 30.078125 6.109375 
Q 37.203125 6.109375 41.296875 11.75 
Q 45.40625 17.390625 45.40625 27.296875 
Q 45.40625 37.203125 41.296875 42.84375 
Q 37.203125 48.484375 30.078125 48.484375 
Q 22.953125 48.484375 18.875 42.84375 
Q 14.796875 37.203125 14.796875 27.296875 
z
" id="DejaVuSans-100"/>
      <path d="M 18.3125 70.21875 
L 18.3125 54.6875 
L 36.8125 54.6875 
L 36.8125 47.703125 
L 18.3125 47.703125 
L 18.3125 18.015625 
Q 18.3125 11.328125 20.140625 9.421875 
Q 21.96875 7.515625 27.59375 7.515625 
L 36.8125 7.515625 
L 36.8125 0 
L 27.59375 0 
Q 17.1875 0 13.234375 3.875 
Q 9.28125 7.765625 9.28125 18.015625 
L 9.28125 47.703125 
L 2.6875 47.703125 
L 2.6875 54.6875 
L 9.28125 54.6875 
L 9.28125 70.21875 
z
" id="DejaVuSans-116"/>
     </defs>
     <g transform="translate(200.11 335.860562)scale(0.1 -0.1)">
      <use xlink:href="#DejaVuSans-106"/>
      <use x="27.783203" xlink:href="#DejaVuSans-95"/>
      <use x="77.783203" xlink:href="#DejaVuSans-99"/>
      <use x="132.763672" xlink:href="#DejaVuSans-49"/>
      <use x="196.386719" xlink:href="#DejaVuSans-95"/>
      <use x="246.386719" xlink:href="#DejaVuSans-98"/>
      <use x="309.863281" xlink:href="#DejaVuSans-48"/>
      <use x="373.486328" xlink:href="#DejaVuSans-95"/>
      <use x="423.486328" xlink:href="#DejaVuSans-109"/>
      <use x="520.898438" xlink:href="#DejaVuSans-109"/>
      <use x="618.310547" xlink:href="#DejaVuSans-100"/>
      <use x="681.787109" xlink:href="#DejaVuSans-116"/>
     </g>
    </g>
   </g>
   <g id="matplotlib.axis_2">
    <g id="ytick_1">
     <g id="line2d_10">
      <defs>
       <path d="M 0 0 
L -3.5 0 
" id="me8484d9a44" style="stroke:#000000;stroke-width:0.8;"/>
      </defs>
      <g>
       <use style="stroke:#000000;stroke-width:0.8;" x="57.6" xlink:href="#me8484d9a44" y="307.584"/>
      </g>
     </g>
     <g id="text_11">
      <!-- 0.000 -->
      <g transform="translate(21.971875 311.383219)scale(0.1 -0.1)">
       <use xlink:href="#DejaVuSans-48"/>
       <use x="63.623047" xlink:href="#DejaVuSans-46"/>
       <use x="95.410156" xlink:href="#DejaVuSans-48"/>
       <use x="159.033203" xlink:href="#DejaVuSans-48"/>
       <use x="222.65625" xlink:href="#DejaVuSans-48"/>
      </g>
     </g>
    </g>
    <g id="ytick_2">
     <g id="line2d_11">
      <g>
       <use style="stroke:#000000;stroke-width:0.8;" x="57.6" xlink:href="#me8484d9a44" y="272.515716"/>
      </g>
     </g>
     <g id="text_12">
      <!-- 0.005 -->
      <g transform="translate(21.971875 276.314935)scale(0.1 -0.1)">
       <use xlink:href="#DejaVuSans-48"/>
       <use x="63.623047" xlink:href="#DejaVuSans-46"/>
       <use x="95.410156" xlink:href="#DejaVuSans-48"/>
       <use x="159.033203" xlink:href="#DejaVuSans-48"/>
       <use x="222.65625" xlink:href="#DejaVuSans-53"/>
      </g>
     </g>
    </g>
    <g id="ytick_3">
     <g id="line2d_12">
      <g>
       <use style="stroke:#000000;stroke-width:0.8;" x="57.6" xlink:href="#me8484d9a44" y="237.447432"/>
      </g>
     </g>
     <g id="text_13">
      <!-- 0.010 -->
      <g transform="translate(21.971875 241.24665)scale(0.1 -0.1)">
       <use xlink:href="#DejaVuSans-48"/>
       <use x="63.623047" xlink:href="#DejaVuSans-46"/>
       <use x="95.410156" xlink:href="#DejaVuSans-48"/>
       <use x="159.033203" xlink:href="#DejaVuSans-49"/>
       <use x="222.65625" xlink:href="#DejaVuSans-48"/>
      </g>
     </g>
    </g>
    <g id="ytick_4">
     <g id="line2d_13">
      <g>
       <use style="stroke:#000000;stroke-width:0.8;" x="57.6" xlink:href="#me8484d9a44" y="202.379147"/>
      </g>
     </g>
     <g id="text_14">
      <!-- 0.015 -->
      <g transform="translate(21.971875 206.178366)scale(0.1 -0.1)">
       <use xlink:href="#DejaVuSans-48"/>
       <use x="63.623047" xlink:href="#DejaVuSans-46"/>
       <use x="95.410156" xlink:href="#DejaVuSans-48"/>
       <use x="159.033203" xlink:href="#DejaVuSans-49"/>
       <use x="222.65625" xlink:href="#DejaVuSans-53"/>
      </g>
     </g>
    </g>
    <g id="ytick_5">
     <g id="line2d_14">
      <g>
       <use style="stroke:#000000;stroke-width:0.8;" x="57.6" xlink:href="#me8484d9a44" y="167.310863"/>
      </g>
     </g>
     <g id="text_15">
      <!-- 0.020 -->
      <g transform="translate(21.971875 171.110082)scale(0.1 -0.1)">
       <use xlink:href="#DejaVuSans-48"/>
       <use x="63.623047" xlink:href="#DejaVuSans-46"/>
       <use x="95.410156" xlink:href="#DejaVuSans-48"/>
       <use x="159.033203" xlink:href="#DejaVuSans-50"/>
       <use x="222.65625" xlink:href="#DejaVuSans-48"/>
      </g>
     </g>
    </g>
    <g id="ytick_6">
     <g id="line2d_15">
      <g>
       <use style="stroke:#000000;stroke-width:0.8;" x="57.6" xlink:href="#me8484d9a44" y="132.242579"/>
      </g>
     </g>
     <g id="text_16">
      <!-- 0.025 -->
      <g transform="translate(21.971875 136.041798)scale(0.1 -0.1)">
       <use xlink:href="#DejaVuSans-48"/>
       <use x="63.623047" xlink:href="#DejaVuSans-46"/>
       <use x="95.410156" xlink:href="#DejaVuSans-48"/>
       <use x="159.033203" xlink:href="#DejaVuSans-50"/>
       <use x="222.65625" xlink:href="#DejaVuSans-53"/>
      </g>
     </g>
    </g>
    <g id="ytick_7">
     <g id="line2d_16">
      <g>
       <use style="stroke:#000000;stroke-width:0.8;" x="57.6" xlink:href="#me8484d9a44" y="97.174295"/>
      </g>
     </g>
     <g id="text_17">
      <!-- 0.030 -->
      <g transform="translate(21.971875 100.973514)scale(0.1 -0.1)">
       <use xlink:href="#DejaVuSans-48"/>
       <use x="63.623047" xlink:href="#DejaVuSans-46"/>
       <use x="95.410156" xlink:href="#DejaVuSans-48"/>
       <use x="159.033203" xlink:href="#DejaVuSans-51"/>
       <use x="222.65625" xlink:href="#DejaVuSans-48"/>
      </g>
     </g>
    </g>
    <g id="ytick_8">
     <g id="line2d_17">
      <g>
       <use style="stroke:#000000;stroke-width:0.8;" x="57.6" xlink:href="#me8484d9a44" y="62.106011"/>
      </g>
     </g>
     <g id="text_18">
      <!-- 0.035 -->
      <g transform="translate(21.971875 65.905229)scale(0.1 -0.1)">
       <use xlink:href="#DejaVuSans-48"/>
       <use x="63.623047" xlink:href="#DejaVuSans-46"/>
       <use x="95.410156" xlink:href="#DejaVuSans-48"/>
       <use x="159.033203" xlink:href="#DejaVuSans-51"/>
       <use x="222.65625" xlink:href="#DejaVuSans-53"/>
      </g>
     </g>
    </g>
    <g id="text_19">
     <!-- Prob. Density (a.u.) -->
     <defs>
      <path d="M 19.671875 64.796875 
L 19.671875 37.40625 
L 32.078125 37.40625 
Q 38.96875 37.40625 42.71875 40.96875 
Q 46.484375 44.53125 46.484375 51.125 
Q 46.484375 57.671875 42.71875 61.234375 
Q 38.96875 64.796875 32.078125 64.796875 
z
M 9.8125 72.90625 
L 32.078125 72.90625 
Q 44.34375 72.90625 50.609375 67.359375 
Q 56.890625 61.8125 56.890625 51.125 
Q 56.890625 40.328125 50.609375 34.8125 
Q 44.34375 29.296875 32.078125 29.296875 
L 19.671875 29.296875 
L 19.671875 0 
L 9.8125 0 
z
" id="DejaVuSans-80"/>
      <path d="M 41.109375 46.296875 
Q 39.59375 47.171875 37.8125 47.578125 
Q 36.03125 48 33.890625 48 
Q 26.265625 48 22.1875 43.046875 
Q 18.109375 38.09375 18.109375 28.8125 
L 18.109375 0 
L 9.078125 0 
L 9.078125 54.6875 
L 18.109375 54.6875 
L 18.109375 46.1875 
Q 20.953125 51.171875 25.484375 53.578125 
Q 30.03125 56 36.53125 56 
Q 37.453125 56 38.578125 55.875 
Q 39.703125 55.765625 41.0625 55.515625 
z
" id="DejaVuSans-114"/>
      <path d="M 30.609375 48.390625 
Q 23.390625 48.390625 19.1875 42.75 
Q 14.984375 37.109375 14.984375 27.296875 
Q 14.984375 17.484375 19.15625 11.84375 
Q 23.34375 6.203125 30.609375 6.203125 
Q 37.796875 6.203125 41.984375 11.859375 
Q 46.1875 17.53125 46.1875 27.296875 
Q 46.1875 37.015625 41.984375 42.703125 
Q 37.796875 48.390625 30.609375 48.390625 
z
M 30.609375 56 
Q 42.328125 56 49.015625 48.375 
Q 55.71875 40.765625 55.71875 27.296875 
Q 55.71875 13.875 49.015625 6.21875 
Q 42.328125 -1.421875 30.609375 -1.421875 
Q 18.84375 -1.421875 12.171875 6.21875 
Q 5.515625 13.875 5.515625 27.296875 
Q 5.515625 40.765625 12.171875 48.375 
Q 18.84375 56 30.609375 56 
z
" id="DejaVuSans-111"/>
      <path id="DejaVuSans-32"/>
      <path d="M 19.671875 64.796875 
L 19.671875 8.109375 
L 31.59375 8.109375 
Q 46.6875 8.109375 53.6875 14.9375 
Q 60.6875 21.78125 60.6875 36.53125 
Q 60.6875 51.171875 53.6875 57.984375 
Q 46.6875 64.796875 31.59375 64.796875 
z
M 9.8125 72.90625 
L 30.078125 72.90625 
Q 51.265625 72.90625 61.171875 64.09375 
Q 71.09375 55.28125 71.09375 36.53125 
Q 71.09375 17.671875 61.125 8.828125 
Q 51.171875 0 30.078125 0 
L 9.8125 0 
z
" id="DejaVuSans-68"/>
      <path d="M 56.203125 29.59375 
L 56.203125 25.203125 
L 14.890625 25.203125 
Q 15.484375 15.921875 20.484375 11.0625 
Q 25.484375 6.203125 34.421875 6.203125 
Q 39.59375 6.203125 44.453125 7.46875 
Q 49.3125 8.734375 54.109375 11.28125 
L 54.109375 2.78125 
Q 49.265625 0.734375 44.1875 -0.34375 
Q 39.109375 -1.421875 33.890625 -1.421875 
Q 20.796875 -1.421875 13.15625 6.1875 
Q 5.515625 13.8125 5.515625 26.8125 
Q 5.515625 40.234375 12.765625 48.109375 
Q 20.015625 56 32.328125 56 
Q 43.359375 56 49.78125 48.890625 
Q 56.203125 41.796875 56.203125 29.59375 
z
M 47.21875 32.234375 
Q 47.125 39.59375 43.09375 43.984375 
Q 39.0625 48.390625 32.421875 48.390625 
Q 24.90625 48.390625 20.390625 44.140625 
Q 15.875 39.890625 15.1875 32.171875 
z
" id="DejaVuSans-101"/>
      <path d="M 54.890625 33.015625 
L 54.890625 0 
L 45.90625 0 
L 45.90625 32.71875 
Q 45.90625 40.484375 42.875 44.328125 
Q 39.84375 48.1875 33.796875 48.1875 
Q 26.515625 48.1875 22.3125 43.546875 
Q 18.109375 38.921875 18.109375 30.90625 
L 18.109375 0 
L 9.078125 0 
L 9.078125 54.6875 
L 18.109375 54.6875 
L 18.109375 46.1875 
Q 21.34375 51.125 25.703125 53.5625 
Q 30.078125 56 35.796875 56 
Q 45.21875 56 50.046875 50.171875 
Q 54.890625 44.34375 54.890625 33.015625 
z
" id="DejaVuSans-110"/>
      <path d="M 44.28125 53.078125 
L 44.28125 44.578125 
Q 40.484375 46.53125 36.375 47.5 
Q 32.28125 48.484375 27.875 48.484375 
Q 21.1875 48.484375 17.84375 46.4375 
Q 14.5 44.390625 14.5 40.28125 
Q 14.5 37.15625 16.890625 35.375 
Q 19.28125 33.59375 26.515625 31.984375 
L 29.59375 31.296875 
Q 39.15625 29.25 43.1875 25.515625 
Q 47.21875 21.78125 47.21875 15.09375 
Q 47.21875 7.46875 41.1875 3.015625 
Q 35.15625 -1.421875 24.609375 -1.421875 
Q 20.21875 -1.421875 15.453125 -0.5625 
Q 10.6875 0.296875 5.421875 2 
L 5.421875 11.28125 
Q 10.40625 8.6875 15.234375 7.390625 
Q 20.0625 6.109375 24.8125 6.109375 
Q 31.15625 6.109375 34.5625 8.28125 
Q 37.984375 10.453125 37.984375 14.40625 
Q 37.984375 18.0625 35.515625 20.015625 
Q 33.0625 21.96875 24.703125 23.78125 
L 21.578125 24.515625 
Q 13.234375 26.265625 9.515625 29.90625 
Q 5.8125 33.546875 5.8125 39.890625 
Q 5.8125 47.609375 11.28125 51.796875 
Q 16.75 56 26.8125 56 
Q 31.78125 56 36.171875 55.265625 
Q 40.578125 54.546875 44.28125 53.078125 
z
" id="DejaVuSans-115"/>
      <path d="M 9.421875 54.6875 
L 18.40625 54.6875 
L 18.40625 0 
L 9.421875 0 
z
M 9.421875 75.984375 
L 18.40625 75.984375 
L 18.40625 64.59375 
L 9.421875 64.59375 
z
" id="DejaVuSans-105"/>
      <path d="M 32.171875 -5.078125 
Q 28.375 -14.84375 24.75 -17.8125 
Q 21.140625 -20.796875 15.09375 -20.796875 
L 7.90625 -20.796875 
L 7.90625 -13.28125 
L 13.1875 -13.28125 
Q 16.890625 -13.28125 18.9375 -11.515625 
Q 21 -9.765625 23.484375 -3.21875 
L 25.09375 0.875 
L 2.984375 54.6875 
L 12.5 54.6875 
L 29.59375 11.921875 
L 46.6875 54.6875 
L 56.203125 54.6875 
z
" id="DejaVuSans-121"/>
      <path d="M 31 75.875 
Q 24.46875 64.65625 21.28125 53.65625 
Q 18.109375 42.671875 18.109375 31.390625 
Q 18.109375 20.125 21.3125 9.0625 
Q 24.515625 -2 31 -13.1875 
L 23.1875 -13.1875 
Q 15.875 -1.703125 12.234375 9.375 
Q 8.59375 20.453125 8.59375 31.390625 
Q 8.59375 42.28125 12.203125 53.3125 
Q 15.828125 64.359375 23.1875 75.875 
z
" id="DejaVuSans-40"/>
      <path d="M 34.28125 27.484375 
Q 23.390625 27.484375 19.1875 25 
Q 14.984375 22.515625 14.984375 16.5 
Q 14.984375 11.71875 18.140625 8.90625 
Q 21.296875 6.109375 26.703125 6.109375 
Q 34.1875 6.109375 38.703125 11.40625 
Q 43.21875 16.703125 43.21875 25.484375 
L 43.21875 27.484375 
z
M 52.203125 31.203125 
L 52.203125 0 
L 43.21875 0 
L 43.21875 8.296875 
Q 40.140625 3.328125 35.546875 0.953125 
Q 30.953125 -1.421875 24.3125 -1.421875 
Q 15.921875 -1.421875 10.953125 3.296875 
Q 6 8.015625 6 15.921875 
Q 6 25.140625 12.171875 29.828125 
Q 18.359375 34.515625 30.609375 34.515625 
L 43.21875 34.515625 
L 43.21875 35.40625 
Q 43.21875 41.609375 39.140625 45 
Q 35.0625 48.390625 27.6875 48.390625 
Q 23 48.390625 18.546875 47.265625 
Q 14.109375 46.140625 10.015625 43.890625 
L 10.015625 52.203125 
Q 14.9375 54.109375 19.578125 55.046875 
Q 24.21875 56 28.609375 56 
Q 40.484375 56 46.34375 49.84375 
Q 52.203125 43.703125 52.203125 31.203125 
z
" id="DejaVuSans-97"/>
      <path d="M 8.5 21.578125 
L 8.5 54.6875 
L 17.484375 54.6875 
L 17.484375 21.921875 
Q 17.484375 14.15625 20.5 10.265625 
Q 23.53125 6.390625 29.59375 6.390625 
Q 36.859375 6.390625 41.078125 11.03125 
Q 45.3125 15.671875 45.3125 23.6875 
L 45.3125 54.6875 
L 54.296875 54.6875 
L 54.296875 0 
L 45.3125 0 
L 45.3125 8.40625 
Q 42.046875 3.421875 37.71875 1 
Q 33.40625 -1.421875 27.6875 -1.421875 
Q 18.265625 -1.421875 13.375 4.4375 
Q 8.5 10.296875 8.5 21.578125 
z
M 31.109375 56 
z
" id="DejaVuSans-117"/>
      <path d="M 8.015625 75.875 
L 15.828125 75.875 
Q 23.140625 64.359375 26.78125 53.3125 
Q 30.421875 42.28125 30.421875 31.390625 
Q 30.421875 20.453125 26.78125 9.375 
Q 23.140625 -1.703125 15.828125 -13.1875 
L 8.015625 -13.1875 
Q 14.5 -2 17.703125 9.0625 
Q 20.90625 20.125 20.90625 31.390625 
Q 20.90625 42.671875 17.703125 53.65625 
Q 14.5 64.65625 8.015625 75.875 
z
" id="DejaVuSans-41"/>
     </defs>
     <g transform="translate(15.892187 222.917844)rotate(-90)scale(0.1 -0.1)">
      <use xlink:href="#DejaVuSans-80"/>
      <use x="60.287109" xlink:href="#DejaVuSans-114"/>
      <use x="101.369141" xlink:href="#DejaVuSans-111"/>
      <use x="162.550781" xlink:href="#DejaVuSans-98"/>
      <use x="226.027344" xlink:href="#DejaVuSans-46"/>
      <use x="257.814453" xlink:href="#DejaVuSans-32"/>
      <use x="289.601562" xlink:href="#DejaVuSans-68"/>
      <use x="366.603516" xlink:href="#DejaVuSans-101"/>
      <use x="428.126953" xlink:href="#DejaVuSans-110"/>
      <use x="491.505859" xlink:href="#DejaVuSans-115"/>
      <use x="543.605469" xlink:href="#DejaVuSans-105"/>
      <use x="571.388672" xlink:href="#DejaVuSans-116"/>
      <use x="610.597656" xlink:href="#DejaVuSans-121"/>
      <use x="669.777344" xlink:href="#DejaVuSans-32"/>
      <use x="701.564453" xlink:href="#DejaVuSans-40"/>
      <use x="740.578125" xlink:href="#DejaVuSans-97"/>
      <use x="801.857422" xlink:href="#DejaVuSans-46"/>
      <use x="833.644531" xlink:href="#DejaVuSans-117"/>
      <use x="897.023438" xlink:href="#DejaVuSans-46"/>
      <use x="928.810547" xlink:href="#DejaVuSans-41"/>
     </g>
    </g>
   </g>
   <g id="patch_9">
    <path d="M 57.6 307.584 
L 57.6 41.472 
" style="fill:none;stroke:#000000;stroke-linecap:square;stroke-linejoin:miter;stroke-width:0.8;"/>
   </g>
   <g id="patch_10">
    <path d="M 414.72 307.584 
L 414.72 41.472 
" style="fill:none;stroke:#000000;stroke-linecap:square;stroke-linejoin:miter;stroke-width:0.8;"/>
   </g>
   <g id="patch_11">
    <path d="M 57.6 307.584 
L 414.72 307.584 
" style="fill:none;stroke:#000000;stroke-linecap:square;stroke-linejoin:miter;stroke-width:0.8;"/>
   </g>
   <g id="patch_12">
    <path d="M 57.6 41.472 
L 414.72 41.472 
" style="fill:none;stroke:#000000;stroke-linecap:square;stroke-linejoin:miter;stroke-width:0.8;"/>
   </g>
   <g id="legend_1">
    <g id="patch_13">
     <path d="M 325.405938 137.54075 
L 407.72 137.54075 
Q 409.72 137.54075 409.72 135.54075 
L 409.72 48.472 
Q 409.72 46.472 407.72 46.472 
L 325.405938 46.472 
Q 323.405938 46.472 323.405938 48.472 
L 323.405938 135.54075 
Q 323.405938 137.54075 325.405938 137.54075 
z
" style="fill:#ffffff;opacity:0.8;stroke:#cccccc;stroke-linejoin:miter;"/>
    </g>
    <g id="patch_14">
     <path d="M 327.405938 58.070438 
L 347.405938 58.070438 
L 347.405938 51.070438 
L 327.405938 51.070438 
z
" style="fill:none;stroke:#1f77b4;stroke-linejoin:miter;"/>
    </g>
    <g id="text_20">
     <!-- quark -->
     <defs>
      <path d="M 14.796875 27.296875 
Q 14.796875 17.390625 18.875 11.75 
Q 22.953125 6.109375 30.078125 6.109375 
Q 37.203125 6.109375 41.296875 11.75 
Q 45.40625 17.390625 45.40625 27.296875 
Q 45.40625 37.203125 41.296875 42.84375 
Q 37.203125 48.484375 30.078125 48.484375 
Q 22.953125 48.484375 18.875 42.84375 
Q 14.796875 37.203125 14.796875 27.296875 
z
M 45.40625 8.203125 
Q 42.578125 3.328125 38.25 0.953125 
Q 33.9375 -1.421875 27.875 -1.421875 
Q 17.96875 -1.421875 11.734375 6.484375 
Q 5.515625 14.40625 5.515625 27.296875 
Q 5.515625 40.1875 11.734375 48.09375 
Q 17.96875 56 27.875 56 
Q 33.9375 56 38.25 53.625 
Q 42.578125 51.265625 45.40625 46.390625 
L 45.40625 54.6875 
L 54.390625 54.6875 
L 54.390625 -20.796875 
L 45.40625 -20.796875 
z
" id="DejaVuSans-113"/>
      <path d="M 9.078125 75.984375 
L 18.109375 75.984375 
L 18.109375 31.109375 
L 44.921875 54.6875 
L 56.390625 54.6875 
L 27.390625 29.109375 
L 57.625 0 
L 45.90625 0 
L 18.109375 26.703125 
L 18.109375 0 
L 9.078125 0 
z
" id="DejaVuSans-107"/>
     </defs>
     <g transform="translate(355.405938 58.070438)scale(0.1 -0.1)">
      <use xlink:href="#DejaVuSans-113"/>
      <use x="63.476562" xlink:href="#DejaVuSans-117"/>
      <use x="126.855469" xlink:href="#DejaVuSans-97"/>
      <use x="188.134766" xlink:href="#DejaVuSans-114"/>
      <use x="229.248047" xlink:href="#DejaVuSans-107"/>
     </g>
    </g>
    <g id="patch_15">
     <path d="M 327.405938 72.748563 
L 347.405938 72.748563 
L 347.405938 65.748563 
L 327.405938 65.748563 
z
" style="fill:none;stroke:#ff7f0e;stroke-linejoin:miter;"/>
    </g>
    <g id="text_21">
     <!-- gluon -->
     <defs>
      <path d="M 45.40625 27.984375 
Q 45.40625 37.75 41.375 43.109375 
Q 37.359375 48.484375 30.078125 48.484375 
Q 22.859375 48.484375 18.828125 43.109375 
Q 14.796875 37.75 14.796875 27.984375 
Q 14.796875 18.265625 18.828125 12.890625 
Q 22.859375 7.515625 30.078125 7.515625 
Q 37.359375 7.515625 41.375 12.890625 
Q 45.40625 18.265625 45.40625 27.984375 
z
M 54.390625 6.78125 
Q 54.390625 -7.171875 48.1875 -13.984375 
Q 42 -20.796875 29.203125 -20.796875 
Q 24.46875 -20.796875 20.265625 -20.09375 
Q 16.0625 -19.390625 12.109375 -17.921875 
L 12.109375 -9.1875 
Q 16.0625 -11.328125 19.921875 -12.34375 
Q 23.78125 -13.375 27.78125 -13.375 
Q 36.625 -13.375 41.015625 -8.765625 
Q 45.40625 -4.15625 45.40625 5.171875 
L 45.40625 9.625 
Q 42.625 4.78125 38.28125 2.390625 
Q 33.9375 0 27.875 0 
Q 17.828125 0 11.671875 7.65625 
Q 5.515625 15.328125 5.515625 27.984375 
Q 5.515625 40.671875 11.671875 48.328125 
Q 17.828125 56 27.875 56 
Q 33.9375 56 38.28125 53.609375 
Q 42.625 51.21875 45.40625 46.390625 
L 45.40625 54.6875 
L 54.390625 54.6875 
z
" id="DejaVuSans-103"/>
      <path d="M 9.421875 75.984375 
L 18.40625 75.984375 
L 18.40625 0 
L 9.421875 0 
z
" id="DejaVuSans-108"/>
     </defs>
     <g transform="translate(355.405938 72.748563)scale(0.1 -0.1)">
      <use xlink:href="#DejaVuSans-103"/>
      <use x="63.476562" xlink:href="#DejaVuSans-108"/>
      <use x="91.259766" xlink:href="#DejaVuSans-117"/>
      <use x="154.638672" xlink:href="#DejaVuSans-111"/>
      <use x="215.820312" xlink:href="#DejaVuSans-110"/>
     </g>
    </g>
    <g id="patch_16">
     <path d="M 327.405938 87.426688 
L 347.405938 87.426688 
L 347.405938 80.426688 
L 327.405938 80.426688 
z
" style="fill:none;stroke:#2ca02c;stroke-linejoin:miter;"/>
    </g>
    <g id="text_22">
     <!-- W -->
     <defs>
      <path d="M 3.328125 72.90625 
L 13.28125 72.90625 
L 28.609375 11.28125 
L 43.890625 72.90625 
L 54.984375 72.90625 
L 70.3125 11.28125 
L 85.59375 72.90625 
L 95.609375 72.90625 
L 77.296875 0 
L 64.890625 0 
L 49.515625 63.28125 
L 33.984375 0 
L 21.578125 0 
z
" id="DejaVuSans-87"/>
     </defs>
     <g transform="translate(355.405938 87.426688)scale(0.1 -0.1)">
      <use xlink:href="#DejaVuSans-87"/>
     </g>
    </g>
    <g id="patch_17">
     <path d="M 327.405938 102.104813 
L 347.405938 102.104813 
L 347.405938 95.104813 
L 327.405938 95.104813 
z
" style="fill:none;stroke:#d62728;stroke-linejoin:miter;"/>
    </g>
    <g id="text_23">
     <!-- Z -->
     <defs>
      <path d="M 5.609375 72.90625 
L 62.890625 72.90625 
L 62.890625 65.375 
L 16.796875 8.296875 
L 64.015625 8.296875 
L 64.015625 0 
L 4.5 0 
L 4.5 7.515625 
L 50.59375 64.59375 
L 5.609375 64.59375 
z
" id="DejaVuSans-90"/>
     </defs>
     <g transform="translate(355.405938 102.104813)scale(0.1 -0.1)">
      <use xlink:href="#DejaVuSans-90"/>
     </g>
    </g>
    <g id="patch_18">
     <path d="M 327.405938 116.782938 
L 347.405938 116.782938 
L 347.405938 109.782938 
L 327.405938 109.782938 
z
" style="fill:none;stroke:#9467bd;stroke-linejoin:miter;"/>
    </g>
    <g id="text_24">
     <!-- top -->
     <defs>
      <path d="M 18.109375 8.203125 
L 18.109375 -20.796875 
L 9.078125 -20.796875 
L 9.078125 54.6875 
L 18.109375 54.6875 
L 18.109375 46.390625 
Q 20.953125 51.265625 25.265625 53.625 
Q 29.59375 56 35.59375 56 
Q 45.5625 56 51.78125 48.09375 
Q 58.015625 40.1875 58.015625 27.296875 
Q 58.015625 14.40625 51.78125 6.484375 
Q 45.5625 -1.421875 35.59375 -1.421875 
Q 29.59375 -1.421875 25.265625 0.953125 
Q 20.953125 3.328125 18.109375 8.203125 
z
M 48.6875 27.296875 
Q 48.6875 37.203125 44.609375 42.84375 
Q 40.53125 48.484375 33.40625 48.484375 
Q 26.265625 48.484375 22.1875 42.84375 
Q 18.109375 37.203125 18.109375 27.296875 
Q 18.109375 17.390625 22.1875 11.75 
Q 26.265625 6.109375 33.40625 6.109375 
Q 40.53125 6.109375 44.609375 11.75 
Q 48.6875 17.390625 48.6875 27.296875 
z
" id="DejaVuSans-112"/>
     </defs>
     <g transform="translate(355.405938 116.782938)scale(0.1 -0.1)">
      <use xlink:href="#DejaVuSans-116"/>
      <use x="39.208984" xlink:href="#DejaVuSans-111"/>
      <use x="100.390625" xlink:href="#DejaVuSans-112"/>
     </g>
    </g>
    <g id="patch_19">
     <path d="M 327.405938 131.461063 
L 347.405938 131.461063 
L 347.405938 124.461063 
L 327.405938 124.461063 
z
" style="fill:none;stroke:#000000;stroke-linejoin:miter;"/>
    </g>
    <g id="text_25">
     <!-- undefined -->
     <defs>
      <path d="M 37.109375 75.984375 
L 37.109375 68.5 
L 28.515625 68.5 
Q 23.6875 68.5 21.796875 66.546875 
Q 19.921875 64.59375 19.921875 59.515625 
L 19.921875 54.6875 
L 34.71875 54.6875 
L 34.71875 47.703125 
L 19.921875 47.703125 
L 19.921875 0 
L 10.890625 0 
L 10.890625 47.703125 
L 2.296875 47.703125 
L 2.296875 54.6875 
L 10.890625 54.6875 
L 10.890625 58.5 
Q 10.890625 67.625 15.140625 71.796875 
Q 19.390625 75.984375 28.609375 75.984375 
z
" id="DejaVuSans-102"/>
     </defs>
     <g transform="translate(355.405938 131.461063)scale(0.1 -0.1)">
      <use xlink:href="#DejaVuSans-117"/>
      <use x="63.378906" xlink:href="#DejaVuSans-110"/>
      <use x="126.757812" xlink:href="#DejaVuSans-100"/>
      <use x="190.234375" xlink:href="#DejaVuSans-101"/>
      <use x="251.757812" xlink:href="#DejaVuSans-102"/>
      <use x="286.962891" xlink:href="#DejaVuSans-105"/>
      <use x="314.746094" xlink:href="#DejaVuSans-110"/>
      <use x="378.125" xlink:href="#DejaVuSans-101"/>
      <use x="439.648438" xlink:href="#DejaVuSans-100"/>
     </g>
    </g>
   </g>
  </g>
 </g>
 <defs>
  <clipPath id="pde7eaba69e">
   <rect height="266.112" width="357.12" x="57.6" y="41.472"/>
  </clipPath>
 </defs>
</svg>
