<?xml version="1.0" encoding="utf-8" standalone="no"?>
<!DOCTYPE svg PUBLIC "-//W3C//DTD SVG 1.1//EN"
  "http://www.w3.org/Graphics/SVG/1.1/DTD/svg11.dtd">
<!-- Created with matplotlib (https://matplotlib.org/) -->
<svg height="345.6pt" version="1.1" viewBox="0 0 460.8 345.6" width="460.8pt" xmlns="http://www.w3.org/2000/svg" xmlns:xlink="http://www.w3.org/1999/xlink">
 <defs>
  <style type="text/css">
*{stroke-linecap:butt;stroke-linejoin:round;}
  </style>
 </defs>
 <g id="figure_1">
  <g id="patch_1">
   <path d="M 0 345.6 
L 460.8 345.6 
L 460.8 0 
L 0 0 
z
" style="fill:#ffffff;"/>
  </g>
  <g id="axes_1">
   <g id="patch_2">
    <path d="M 57.6 307.584 
L 414.72 307.584 
L 414.72 41.472 
L 57.6 41.472 
z
" style="fill:#ffffff;"/>
   </g>
   <g id="patch_3">
    <path clip-path="url(#p3cd4a001f3)" d="M 73.832727 307.584 
L 148.503273 307.584 
L 148.503273 303.189865 
L 151.749818 303.189865 
L 151.749818 303.70286 
L 154.996364 303.70286 
L 154.996364 296.365485 
L 158.242909 296.365485 
L 158.242909 292.872976 
L 161.489455 292.872976 
L 161.489455 291.370265 
L 164.736 291.370265 
L 164.736 280.04293 
L 167.982545 280.04293 
L 167.982545 272.861009 
L 171.229091 272.861009 
L 171.229091 264.072741 
L 174.475636 264.072741 
L 174.475636 250.626068 
L 177.722182 250.626068 
L 177.722182 256.735369 
L 180.968727 256.735369 
L 180.968727 252.367138 
L 184.215273 252.367138 
L 184.215273 241.392164 
L 187.461818 241.392164 
L 187.461818 245.744847 
L 190.708364 245.744847 
L 190.708364 239.71846 
L 193.954909 239.71846 
L 193.954909 236.547221 
L 197.201455 236.547221 
L 197.201455 223.349269 
L 200.448 223.349269 
L 200.448 230.27211 
L 203.694545 230.27211 
L 203.694545 222.696363 
L 206.941091 222.696363 
L 206.941091 224.572167 
L 210.187636 224.572167 
L 210.187636 226.137063 
L 213.434182 226.137063 
L 213.434182 219.587308 
L 216.680727 219.587308 
L 216.680727 219.120961 
L 219.927273 219.120961 
L 219.927273 204.897016 
L 223.173818 204.897016 
L 223.173818 208.959521 
L 226.420359 208.959521 
L 226.420359 198.761815 
L 229.666909 198.761815 
L 229.666909 197.689173 
L 232.913459 197.689173 
L 232.913459 192.678414 
L 236.16 192.678414 
L 236.16 203.218111 
L 239.406541 203.218111 
L 239.406541 200.741233 
L 242.653091 200.741233 
L 242.653091 199.373255 
L 245.899641 199.373255 
L 245.899641 207.3428 
L 249.146182 207.3428 
L 249.146182 200.134982 
L 252.392723 200.134982 
L 252.392723 203.725925 
L 255.639273 203.725925 
L 255.639273 203.285478 
L 258.885823 203.285478 
L 258.885823 206.48263 
L 262.132364 206.48263 
L 262.132364 220.307581 
L 265.378905 220.307581 
L 265.378905 216.45753 
L 268.625455 216.45753 
L 268.625455 223.805264 
L 271.872004 223.805264 
L 271.872004 228.784928 
L 275.118545 228.784928 
L 275.118545 236.785581 
L 278.365086 236.785581 
L 278.365086 234.645517 
L 281.611636 234.645517 
L 281.611636 233.469249 
L 284.858186 233.469249 
L 284.858186 249.07672 
L 288.104727 249.07672 
L 288.104727 247.195739 
L 291.351268 247.195739 
L 291.351268 253.693668 
L 294.597818 253.693668 
L 294.597818 255.491741 
L 297.844368 255.491741 
L 297.844368 262.715113 
L 301.090909 262.715113 
L 301.090909 261.191684 
L 304.33745 261.191684 
L 304.33745 263.430203 
L 307.584009 263.430203 
L 307.584009 263.995012 
L 310.83055 263.995012 
L 310.83055 272.021565 
L 314.077091 272.021565 
L 314.077091 274.534716 
L 317.323632 274.534716 
L 317.323632 272.430923 
L 320.570173 272.430923 
L 320.570173 275.45707 
L 323.816732 275.45707 
L 323.816732 274.451811 
L 327.063273 274.451811 
L 327.063273 279.03767 
L 330.309814 279.03767 
L 330.309814 285.219513 
L 333.556373 285.219513 
L 333.556373 281.519735 
L 336.802914 281.519735 
L 336.802914 287.499488 
L 343.295996 287.509851 
L 343.295996 288.136845 
L 346.542537 288.136845 
L 346.542537 291.660443 
L 349.789095 291.660443 
L 349.789095 293.453333 
L 353.035636 293.453333 
L 353.035636 293.308245 
L 356.282177 293.308245 
L 356.282177 294.873138 
L 359.528736 294.873138 
L 359.528736 291.872896 
L 362.775277 291.872896 
L 362.775277 296.458757 
L 366.021818 296.458757 
L 366.021818 297.702378 
L 369.268359 297.702378 
L 369.268359 296.800753 
L 375.761459 296.883661 
L 375.761459 299.790628 
L 379.008 299.790628 
L 379.008 299.510813 
L 382.254541 299.510813 
L 382.254541 298.32419 
L 385.5011 298.32419 
L 385.5011 300.028991 
L 388.747641 300.028991 
L 388.747641 300.712984 
L 391.994182 300.712984 
L 391.994182 302.277875 
L 395.240723 302.277875 
L 395.240723 302.397056 
L 398.487264 302.397056 
L 398.487264 307.584 
L 398.487264 307.584 
" style="fill:none;stroke:#1f77b4;stroke-linejoin:miter;"/>
   </g>
   <g id="patch_4">
    <path clip-path="url(#p3cd4a001f3)" d="M 73.832727 307.584 
L 148.503273 307.584 
L 148.503273 307.20055 
L 151.749818 307.20055 
L 151.749818 306.14347 
L 154.996364 306.14347 
L 154.996364 302.194966 
L 158.242909 302.194966 
L 158.242909 296.888841 
L 161.489455 296.888841 
L 161.489455 293.075062 
L 164.736 293.075062 
L 164.736 282.203727 
L 167.982545 282.203727 
L 167.982545 277.980592 
L 171.229091 277.980592 
L 171.229091 266.710257 
L 174.475636 266.710257 
L 174.475636 251.506974 
L 177.722182 251.506974 
L 177.722182 247.366738 
L 180.968727 247.366738 
L 180.968727 243.076239 
L 184.215273 243.076239 
L 184.215273 230.090746 
L 187.461818 230.090746 
L 187.461818 217.048252 
L 190.708364 217.048252 
L 190.708364 214.897817 
L 193.954909 214.897817 
L 193.954909 216.78915 
L 197.201455 216.78915 
L 197.201455 199.922516 
L 200.448 199.922516 
L 200.448 195.290026 
L 203.694545 195.290026 
L 203.694545 189.579718 
L 206.941091 189.579718 
L 206.941091 180.143733 
L 210.187636 180.143733 
L 210.187636 162.28219 
L 213.434182 162.28219 
L 213.434182 157.442436 
L 216.680727 157.442436 
L 216.680727 147.452013 
L 219.927273 147.452013 
L 219.927273 169.536645 
L 223.173818 169.536645 
L 223.173818 160.504835 
L 226.420359 160.504835 
L 226.420359 155.167632 
L 229.666909 155.167632 
L 229.666909 130.19672 
L 232.913459 130.19672 
L 232.913459 131.549144 
L 236.16 131.549144 
L 236.16 118.035132 
L 239.406541 118.035132 
L 239.406541 109.174303 
L 242.653091 109.174303 
L 242.653091 115.972782 
L 245.899641 115.972782 
L 245.899641 105.650701 
L 249.146182 105.650701 
L 249.146182 111.003483 
L 252.392723 111.003483 
L 252.392723 123.916433 
L 255.639273 123.916433 
L 255.639273 121.791904 
L 258.885823 121.791904 
L 258.885823 146.208366 
L 262.132364 146.208366 
L 262.132364 136.15574 
L 265.378905 136.15574 
L 265.378905 127.284558 
L 268.625455 127.284558 
L 268.625455 148.395073 
L 271.872004 148.395073 
L 271.872004 148.161902 
L 275.118545 148.161902 
L 275.118545 160.530779 
L 278.365086 160.530779 
L 278.365086 154.5873 
L 281.611636 154.5873 
L 281.611636 158.44251 
L 284.858186 158.44251 
L 284.858186 191.00471 
L 288.104727 191.00471 
L 288.104727 196.264181 
L 291.351268 196.264181 
L 291.351268 183.672524 
L 294.597818 183.672524 
L 294.597818 193.91686 
L 301.090909 193.9272 
L 301.090909 191.097971 
L 304.33745 191.097971 
L 304.33745 204.38402 
L 307.584009 204.38402 
L 307.584009 219.478488 
L 310.83055 219.478488 
L 310.83055 221.551197 
L 314.077091 221.551197 
L 314.077091 231.671183 
L 317.323632 231.671183 
L 317.323632 232.339637 
L 320.570173 232.339637 
L 320.570173 239.770279 
L 323.816732 239.770279 
L 323.816732 245.915852 
L 327.063273 245.915852 
L 327.063273 244.656676 
L 330.309814 244.656676 
L 330.309814 242.651334 
L 336.802914 242.583973 
L 336.802914 256.81828 
L 340.049455 256.81828 
L 340.049455 254.657477 
L 343.295996 254.657477 
L 343.295996 262.65812 
L 346.542537 262.65812 
L 346.542537 259.326248 
L 349.789095 259.326248 
L 349.789095 271.684757 
L 353.035636 271.684757 
L 353.035636 260.512868 
L 356.282177 260.512868 
L 356.282177 259.429883 
L 359.528736 259.429883 
L 359.528736 270.119858 
L 362.775277 270.119858 
L 362.775277 279.110216 
L 366.021818 279.110216 
L 366.021818 282.830719 
L 369.268359 282.830719 
L 369.268359 279.825297 
L 372.5149 279.825297 
L 372.5149 285.514872 
L 375.761459 285.514872 
L 375.761459 286.323225 
L 379.008 286.323225 
L 379.008 281.084467 
L 382.254541 281.084467 
L 382.254541 284.934517 
L 385.5011 284.934517 
L 385.5011 286.105593 
L 388.747641 286.105593 
L 388.747641 292.09053 
L 391.994182 292.09053 
L 391.994182 290.53082 
L 395.240723 290.53082 
L 395.240723 293.86269 
L 398.487264 293.86269 
L 398.487264 307.584 
L 398.487264 307.584 
" style="fill:none;stroke:#ff7f0e;stroke-linejoin:miter;"/>
   </g>
   <g id="patch_5">
    <path clip-path="url(#p3cd4a001f3)" d="M 73.832727 307.584 
L 148.503273 307.584 
L 148.503273 306.87928 
L 151.749818 306.87928 
L 151.749818 286.603044 
L 154.996364 286.603044 
L 154.996364 219.136502 
L 158.242909 219.136502 
L 158.242909 146.975282 
L 161.489455 146.975282 
L 161.489455 110.423114 
L 164.736 110.423114 
L 164.736 93.701591 
L 167.982545 93.701591 
L 167.982545 106.417629 
L 171.229091 106.417629 
L 171.229091 117.853762 
L 174.475636 117.853762 
L 174.475636 124.450153 
L 177.722182 124.450153 
L 177.722182 147.804351 
L 180.968727 147.804351 
L 180.968727 157.338797 
L 184.215273 157.338797 
L 184.215273 156.680709 
L 187.461818 156.680709 
L 187.461818 172.588729 
L 190.708364 172.588729 
L 190.708364 188.232458 
L 193.954909 188.232458 
L 193.954909 190.0098 
L 200.448 190.09791 
L 200.448 201.383792 
L 203.694545 201.383792 
L 203.694545 206.052535 
L 206.941091 206.052535 
L 206.941091 214.281182 
L 210.187636 214.281182 
L 210.187636 218.773781 
L 213.434182 218.773781 
L 213.434182 221.219571 
L 216.680727 221.219571 
L 216.680727 216.307261 
L 219.927273 216.307261 
L 219.927273 235.282869 
L 223.173818 235.282869 
L 223.173818 236.376216 
L 226.420359 236.376216 
L 226.420359 231.629729 
L 229.666909 231.629729 
L 229.666909 239.506007 
L 232.913459 239.506007 
L 232.913459 236.547215 
L 236.16 236.547215 
L 236.16 242.01917 
L 239.406541 242.01917 
L 239.406541 242.666881 
L 242.653091 242.666881 
L 242.653091 250.190797 
L 245.899641 250.190797 
L 245.899641 249.993892 
L 252.392723 249.967985 
L 252.392723 260.393688 
L 255.639273 260.393688 
L 255.639273 264.580552 
L 258.885823 264.580552 
L 258.885823 269.150867 
L 262.132364 269.150867 
L 262.132364 269.715682 
L 265.378905 269.715682 
L 265.378905 265.337087 
L 268.625455 265.337087 
L 268.625455 274.83008 
L 275.118545 274.835262 
L 275.118545 277.089326 
L 278.365086 277.089326 
L 278.365086 278.250046 
L 281.611636 278.250046 
L 281.611636 278.410683 
L 284.858186 278.410683 
L 284.858186 281.519735 
L 288.104727 281.519735 
L 288.104727 283.525076 
L 291.351268 283.525076 
L 291.351268 285.178057 
L 294.597818 285.178057 
L 294.597818 291.624172 
L 297.844368 291.624172 
L 297.844368 289.898643 
L 301.090909 289.898643 
L 301.090909 289.225017 
L 304.33745 289.225017 
L 304.33745 290.214732 
L 307.584009 290.214732 
L 307.584009 291.116358 
L 310.83055 291.116358 
L 310.83055 292.55689 
L 314.077091 292.55689 
L 314.077091 294.049238 
L 317.323632 294.049238 
L 317.323632 297.831923 
L 320.570173 297.831923 
L 320.570173 293.401517 
L 323.816732 293.401517 
L 323.816732 298.142829 
L 327.063273 298.142829 
L 327.063273 296.474302 
L 330.309814 296.474302 
L 330.309814 298.515915 
L 333.556373 298.515915 
L 333.556373 301.604246 
L 336.802914 301.604246 
L 336.802914 299.215453 
L 340.049455 299.215453 
L 340.049455 299.889083 
L 343.295996 299.889083 
L 343.295996 299.438269 
L 346.542537 299.438269 
L 346.542537 301.728609 
L 349.789095 301.728609 
L 349.789095 301.479884 
L 353.035636 301.479884 
L 353.035636 300.79071 
L 356.282177 300.79071 
L 356.282177 302.894505 
L 359.528736 302.894505 
L 359.528736 303.448953 
L 362.775277 303.448953 
L 362.775277 304.060402 
L 366.021818 304.060402 
L 366.021818 303.775404 
L 369.268359 303.775404 
L 369.268359 305.024209 
L 372.5149 305.024209 
L 372.5149 305.661566 
L 375.761459 305.661566 
L 375.761459 304.972392 
L 379.008 304.972392 
L 379.008 305.371387 
L 382.254541 305.371387 
L 382.254541 306.697919 
L 385.5011 306.697919 
L 385.5011 304.635577 
L 388.747641 304.635577 
L 388.747641 304.889484 
L 391.994182 304.889484 
L 391.994182 305.946563 
L 398.487264 305.905109 
L 398.487264 307.584 
L 398.487264 307.584 
" style="fill:none;stroke:#2ca02c;stroke-linejoin:miter;"/>
   </g>
   <g id="patch_6">
    <path clip-path="url(#p3cd4a001f3)" d="M 73.832727 307.584 
L 148.503273 307.584 
L 148.503273 306.034653 
L 151.749818 306.034653 
L 151.749818 280.929016 
L 154.996364 280.929016 
L 154.996364 187.108028 
L 158.242909 187.108028 
L 158.242909 106.122256 
L 161.489455 106.122256 
L 161.489455 84.996225 
L 164.736 84.996225 
L 164.736 74.757053 
L 167.982545 74.757053 
L 167.982545 91.09513 
L 171.229091 91.09513 
L 171.229091 108.029131 
L 174.475636 108.029131 
L 174.475636 123.854255 
L 177.722182 123.854255 
L 177.722182 138.3062 
L 180.968727 138.3062 
L 180.968727 150.172415 
L 184.215273 150.172415 
L 184.215273 152.835852 
L 187.461818 152.835852 
L 187.461818 161.577489 
L 190.708364 161.577489 
L 190.708364 170.158474 
L 193.954909 170.158474 
L 193.954909 190.35181 
L 197.201455 190.35181 
L 197.201455 198.440548 
L 200.448 198.440548 
L 200.448 211.939025 
L 203.694545 211.939025 
L 203.694545 203.342492 
L 206.941091 203.342492 
L 206.941091 209.120148 
L 210.187636 209.120148 
L 210.187636 213.255196 
L 213.434182 213.255196 
L 213.434182 218.478414 
L 216.680727 218.478414 
L 216.680727 227.147514 
L 219.927273 227.147514 
L 219.927273 225.178437 
L 223.173818 225.178437 
L 223.173818 231.536456 
L 226.420359 231.536456 
L 226.420359 234.754332 
L 229.666909 234.754332 
L 229.666909 236.661219 
L 232.913459 236.661219 
L 232.913459 246.356293 
L 236.16 246.356293 
L 236.16 246.49102 
L 239.406541 246.49102 
L 239.406541 248.584454 
L 242.653091 248.584454 
L 242.653091 252.424134 
L 245.899641 252.424134 
L 245.899641 258.046348 
L 249.146182 258.046348 
L 249.146182 256.657643 
L 252.392723 256.657643 
L 252.392723 253.227309 
L 255.639273 253.227309 
L 255.639273 262.24358 
L 258.885823 262.24358 
L 258.885823 265.357814 
L 262.132364 265.357814 
L 262.132364 263.435382 
L 265.378905 263.435382 
L 265.378905 272.389473 
L 268.625455 272.389473 
L 268.625455 275.343076 
L 271.872004 275.343076 
L 271.872004 278.193044 
L 275.118545 278.193044 
L 275.118545 273.897363 
L 278.365086 273.897363 
L 278.365086 278.073865 
L 281.611636 278.073865 
L 281.611636 276.218794 
L 284.858186 276.218794 
L 284.858186 281.41092 
L 288.104727 281.41092 
L 288.104727 282.395449 
L 291.351268 282.395449 
L 291.351268 286.349136 
L 294.597818 286.349136 
L 294.597818 285.115879 
L 297.844368 285.115879 
L 297.844368 287.468399 
L 301.090909 287.468399 
L 301.090909 289.12138 
L 304.33745 289.12138 
L 304.33745 292.334073 
L 307.584009 292.334073 
L 307.584009 292.080166 
L 314.077091 292.054257 
L 314.077091 294.183963 
L 317.323632 294.183963 
L 317.323632 297.515834 
L 320.570173 297.515834 
L 320.570173 294.966409 
L 323.816732 294.966409 
L 323.816732 295.754037 
L 327.063273 295.754037 
L 327.063273 299.344997 
L 330.309814 299.344997 
L 330.309814 299.142908 
L 333.556373 299.142908 
L 333.556373 301.034253 
L 336.802914 301.034253 
L 336.802914 301.469521 
L 340.049455 301.469521 
L 340.049455 299.728448 
L 346.542537 299.650722 
L 346.542537 300.55753 
L 349.789095 300.55753 
L 349.789095 300.251806 
L 353.035636 300.251806 
L 353.035636 302.811596 
L 356.282177 302.811596 
L 356.282177 303.329773 
L 359.528736 303.329773 
L 359.528736 304.469761 
L 362.775277 304.469761 
L 362.775277 304.594123 
L 366.021818 304.594123 
L 366.021818 303.138047 
L 369.268359 303.138047 
L 369.268359 303.951585 
L 372.5149 303.951585 
L 372.5149 303.143229 
L 375.761459 303.143229 
L 375.761459 305.107117 
L 379.008 305.107117 
L 379.008 304.024129 
L 382.254541 304.024129 
L 382.254541 305.61493 
L 385.5011 305.61493 
L 385.5011 304.734031 
L 388.747641 304.734031 
L 388.747641 305.563113 
L 391.994182 305.563113 
L 391.994182 306.625374 
L 395.240723 306.625374 
L 395.240723 306.397376 
L 398.487264 306.397376 
L 398.487264 307.584 
L 398.487264 307.584 
" style="fill:none;stroke:#d62728;stroke-linejoin:miter;"/>
   </g>
   <g id="patch_7">
    <path clip-path="url(#p3cd4a001f3)" d="M 73.832727 307.584 
L 151.749818 307.584 
L 151.749818 301.282976 
L 154.996364 301.282976 
L 154.996364 280.664747 
L 158.242909 280.664747 
L 158.242909 248.128459 
L 161.489455 248.128459 
L 161.489455 223.551357 
L 164.736 223.551357 
L 164.736 209.42588 
L 167.982545 209.42588 
L 167.982545 192.300145 
L 171.229091 192.300145 
L 171.229091 187.854214 
L 174.475636 187.854214 
L 174.475636 184.444603 
L 177.722182 184.444603 
L 177.722182 171.179278 
L 180.968727 171.179278 
L 180.968727 157.882883 
L 184.215273 157.882883 
L 184.215273 153.037928 
L 187.461818 153.037928 
L 187.461818 159.857136 
L 190.708364 159.857136 
L 190.708364 149.037607 
L 193.954909 149.037607 
L 193.954909 148.773342 
L 197.201455 148.773342 
L 197.201455 145.638374 
L 200.448 145.638374 
L 200.448 130.922176 
L 203.694545 130.922176 
L 203.694545 135.305941 
L 206.941091 135.305941 
L 206.941091 132.875687 
L 210.187636 132.875687 
L 210.187636 114.397527 
L 213.434182 114.397527 
L 213.434182 94.338912 
L 216.680727 94.338912 
L 216.680727 94.49954 
L 219.927273 94.49954 
L 219.927273 71.896692 
L 223.173818 71.896692 
L 223.173818 56.703836 
L 226.420359 56.703836 
L 226.420359 68.533767 
L 229.666909 68.533767 
L 229.666909 59.08738 
L 232.913459 59.08738 
L 232.913459 54.144 
L 236.16 54.144 
L 236.16 70.414723 
L 239.406541 70.414723 
L 239.406541 104.655816 
L 242.653091 104.655816 
L 242.653091 77.197673 
L 245.899641 77.197673 
L 245.899641 111.801457 
L 249.146182 111.801457 
L 249.146182 122.299718 
L 252.392723 122.299718 
L 252.392723 136.705014 
L 255.639273 136.705014 
L 255.639273 157.302538 
L 258.885823 157.302538 
L 258.885823 182.247507 
L 262.132364 182.247507 
L 262.132364 169.386382 
L 265.378905 169.386382 
L 265.378905 208.747068 
L 268.625455 208.747068 
L 268.625455 206.140626 
L 271.872004 206.140626 
L 271.872004 223.41663 
L 275.118545 223.41663 
L 275.118545 213.488391 
L 278.365086 213.488391 
L 278.365086 242.112425 
L 281.611636 242.112425 
L 281.611636 237.324471 
L 284.858186 237.324471 
L 284.858186 249.641535 
L 288.104727 249.641535 
L 288.104727 252.190963 
L 291.351268 252.190963 
L 291.351268 260.383329 
L 294.597818 260.383329 
L 294.597818 265.922632 
L 297.844368 265.922632 
L 297.844368 267.031521 
L 301.090909 267.031521 
L 301.090909 271.612207 
L 304.33745 271.612207 
L 304.33745 281.053378 
L 307.584009 281.053378 
L 307.584009 279.001396 
L 310.83055 279.001396 
L 310.83055 285.447512 
L 314.077091 285.447512 
L 314.077091 288.411479 
L 320.570173 288.380385 
L 320.570173 292.484344 
L 323.816732 292.484344 
L 323.816732 290.333912 
L 330.309814 290.437548 
L 330.309814 295.287676 
L 333.556373 295.287676 
L 333.556373 295.572673 
L 336.802914 295.572673 
L 336.802914 293.484424 
L 340.049455 293.484424 
L 340.049455 296.349938 
L 346.542537 296.417301 
L 346.542537 298.173921 
L 349.789095 298.173921 
L 349.789095 298.733552 
L 353.035636 298.733552 
L 353.035636 300.085989 
L 356.282177 300.085989 
L 356.282177 301.111978 
L 359.528736 301.111978 
L 359.528736 301.852971 
L 362.775277 301.852971 
L 362.775277 302.018787 
L 366.021818 302.018787 
L 366.021818 299.73881 
L 369.268359 299.73881 
L 369.268359 302.132785 
L 372.5149 302.132785 
L 372.5149 304.38167 
L 375.761459 304.38167 
L 375.761459 304.640759 
L 379.008 304.640759 
L 379.008 304.443851 
L 382.254541 304.443851 
L 382.254541 304.853211 
L 385.5011 304.853211 
L 385.5011 302.635417 
L 388.747641 302.635417 
L 388.747641 305.516477 
L 391.994182 305.516477 
L 391.994182 306.469921 
L 395.240723 306.469921 
L 395.240723 306.977734 
L 398.487264 306.977734 
L 398.487264 307.584 
L 398.487264 307.584 
" style="fill:none;stroke:#9467bd;stroke-linejoin:miter;"/>
   </g>
   <g id="patch_8">
    <path clip-path="url(#p3cd4a001f3)" d="M 73.832727 307.584 
L 398.487273 307.584 
L 398.487273 307.584 
" style="fill:none;stroke:#000000;stroke-linejoin:miter;"/>
   </g>
   <g id="matplotlib.axis_1">
    <g id="xtick_1">
     <g id="line2d_1">
      <defs>
       <path d="M 0 0 
L 0 3.5 
" id="mb30876b3d6" style="stroke:#000000;stroke-width:0.8;"/>
      </defs>
      <g>
       <use style="stroke:#000000;stroke-width:0.8;" x="73.754796" xlink:href="#mb30876b3d6" y="307.584"/>
      </g>
     </g>
     <g id="text_1">
      <!-- −1 -->
      <defs>
       <path d="M 10.59375 35.5 
L 73.1875 35.5 
L 73.1875 27.203125 
L 10.59375 27.203125 
z
" id="DejaVuSans-8722"/>
       <path d="M 12.40625 8.296875 
L 28.515625 8.296875 
L 28.515625 63.921875 
L 10.984375 60.40625 
L 10.984375 69.390625 
L 28.421875 72.90625 
L 38.28125 72.90625 
L 38.28125 8.296875 
L 54.390625 8.296875 
L 54.390625 0 
L 12.40625 0 
z
" id="DejaVuSans-49"/>
      </defs>
      <g transform="translate(66.383703 322.182437)scale(0.1 -0.1)">
       <use xlink:href="#DejaVuSans-8722"/>
       <use x="83.789062" xlink:href="#DejaVuSans-49"/>
      </g>
     </g>
    </g>
    <g id="xtick_2">
     <g id="line2d_2">
      <g>
       <use style="stroke:#000000;stroke-width:0.8;" x="148.870528" xlink:href="#mb30876b3d6" y="307.584"/>
      </g>
     </g>
     <g id="text_2">
      <!-- 0 -->
      <defs>
       <path d="M 31.78125 66.40625 
Q 24.171875 66.40625 20.328125 58.90625 
Q 16.5 51.421875 16.5 36.375 
Q 16.5 21.390625 20.328125 13.890625 
Q 24.171875 6.390625 31.78125 6.390625 
Q 39.453125 6.390625 43.28125 13.890625 
Q 47.125 21.390625 47.125 36.375 
Q 47.125 51.421875 43.28125 58.90625 
Q 39.453125 66.40625 31.78125 66.40625 
z
M 31.78125 74.21875 
Q 44.046875 74.21875 50.515625 64.515625 
Q 56.984375 54.828125 56.984375 36.375 
Q 56.984375 17.96875 50.515625 8.265625 
Q 44.046875 -1.421875 31.78125 -1.421875 
Q 19.53125 -1.421875 13.0625 8.265625 
Q 6.59375 17.96875 6.59375 36.375 
Q 6.59375 54.828125 13.0625 64.515625 
Q 19.53125 74.21875 31.78125 74.21875 
z
" id="DejaVuSans-48"/>
      </defs>
      <g transform="translate(145.689278 322.182437)scale(0.1 -0.1)">
       <use xlink:href="#DejaVuSans-48"/>
      </g>
     </g>
    </g>
    <g id="xtick_3">
     <g id="line2d_3">
      <g>
       <use style="stroke:#000000;stroke-width:0.8;" x="223.986259" xlink:href="#mb30876b3d6" y="307.584"/>
      </g>
     </g>
     <g id="text_3">
      <!-- 1 -->
      <g transform="translate(220.805009 322.182437)scale(0.1 -0.1)">
       <use xlink:href="#DejaVuSans-49"/>
      </g>
     </g>
    </g>
    <g id="xtick_4">
     <g id="line2d_4">
      <g>
       <use style="stroke:#000000;stroke-width:0.8;" x="299.101991" xlink:href="#mb30876b3d6" y="307.584"/>
      </g>
     </g>
     <g id="text_4">
      <!-- 2 -->
      <defs>
       <path d="M 19.1875 8.296875 
L 53.609375 8.296875 
L 53.609375 0 
L 7.328125 0 
L 7.328125 8.296875 
Q 12.9375 14.109375 22.625 23.890625 
Q 32.328125 33.6875 34.8125 36.53125 
Q 39.546875 41.84375 41.421875 45.53125 
Q 43.3125 49.21875 43.3125 52.78125 
Q 43.3125 58.59375 39.234375 62.25 
Q 35.15625 65.921875 28.609375 65.921875 
Q 23.96875 65.921875 18.8125 64.3125 
Q 13.671875 62.703125 7.8125 59.421875 
L 7.8125 69.390625 
Q 13.765625 71.78125 18.9375 73 
Q 24.125 74.21875 28.421875 74.21875 
Q 39.75 74.21875 46.484375 68.546875 
Q 53.21875 62.890625 53.21875 53.421875 
Q 53.21875 48.921875 51.53125 44.890625 
Q 49.859375 40.875 45.40625 35.40625 
Q 44.1875 33.984375 37.640625 27.21875 
Q 31.109375 20.453125 19.1875 8.296875 
z
" id="DejaVuSans-50"/>
      </defs>
      <g transform="translate(295.920741 322.182437)scale(0.1 -0.1)">
       <use xlink:href="#DejaVuSans-50"/>
      </g>
     </g>
    </g>
    <g id="xtick_5">
     <g id="line2d_5">
      <g>
       <use style="stroke:#000000;stroke-width:0.8;" x="374.217722" xlink:href="#mb30876b3d6" y="307.584"/>
      </g>
     </g>
     <g id="text_5">
      <!-- 3 -->
      <defs>
       <path d="M 40.578125 39.3125 
Q 47.65625 37.796875 51.625 33 
Q 55.609375 28.21875 55.609375 21.1875 
Q 55.609375 10.40625 48.1875 4.484375 
Q 40.765625 -1.421875 27.09375 -1.421875 
Q 22.515625 -1.421875 17.65625 -0.515625 
Q 12.796875 0.390625 7.625 2.203125 
L 7.625 11.71875 
Q 11.71875 9.328125 16.59375 8.109375 
Q 21.484375 6.890625 26.8125 6.890625 
Q 36.078125 6.890625 40.9375 10.546875 
Q 45.796875 14.203125 45.796875 21.1875 
Q 45.796875 27.640625 41.28125 31.265625 
Q 36.765625 34.90625 28.71875 34.90625 
L 20.21875 34.90625 
L 20.21875 43.015625 
L 29.109375 43.015625 
Q 36.375 43.015625 40.234375 45.921875 
Q 44.09375 48.828125 44.09375 54.296875 
Q 44.09375 59.90625 40.109375 62.90625 
Q 36.140625 65.921875 28.71875 65.921875 
Q 24.65625 65.921875 20.015625 65.03125 
Q 15.375 64.15625 9.8125 62.3125 
L 9.8125 71.09375 
Q 15.4375 72.65625 20.34375 73.4375 
Q 25.25 74.21875 29.59375 74.21875 
Q 40.828125 74.21875 47.359375 69.109375 
Q 53.90625 64.015625 53.90625 55.328125 
Q 53.90625 49.265625 50.4375 45.09375 
Q 46.96875 40.921875 40.578125 39.3125 
z
" id="DejaVuSans-51"/>
      </defs>
      <g transform="translate(371.036472 322.182437)scale(0.1 -0.1)">
       <use xlink:href="#DejaVuSans-51"/>
      </g>
     </g>
    </g>
    <g id="text_6">
     <!-- j_d2_b2_mmdt -->
     <defs>
      <path d="M 9.421875 54.6875 
L 18.40625 54.6875 
L 18.40625 -0.984375 
Q 18.40625 -11.421875 14.421875 -16.109375 
Q 10.453125 -20.796875 1.609375 -20.796875 
L -1.8125 -20.796875 
L -1.8125 -13.1875 
L 0.59375 -13.1875 
Q 5.71875 -13.1875 7.5625 -10.8125 
Q 9.421875 -8.453125 9.421875 -0.984375 
z
M 9.421875 75.984375 
L 18.40625 75.984375 
L 18.40625 64.59375 
L 9.421875 64.59375 
z
" id="DejaVuSans-106"/>
      <path d="M 50.984375 -16.609375 
L 50.984375 -23.578125 
L -0.984375 -23.578125 
L -0.984375 -16.609375 
z
" id="DejaVuSans-95"/>
      <path d="M 45.40625 46.390625 
L 45.40625 75.984375 
L 54.390625 75.984375 
L 54.390625 0 
L 45.40625 0 
L 45.40625 8.203125 
Q 42.578125 3.328125 38.25 0.953125 
Q 33.9375 -1.421875 27.875 -1.421875 
Q 17.96875 -1.421875 11.734375 6.484375 
Q 5.515625 14.40625 5.515625 27.296875 
Q 5.515625 40.1875 11.734375 48.09375 
Q 17.96875 56 27.875 56 
Q 33.9375 56 38.25 53.625 
Q 42.578125 51.265625 45.40625 46.390625 
z
M 14.796875 27.296875 
Q 14.796875 17.390625 18.875 11.75 
Q 22.953125 6.109375 30.078125 6.109375 
Q 37.203125 6.109375 41.296875 11.75 
Q 45.40625 17.390625 45.40625 27.296875 
Q 45.40625 37.203125 41.296875 42.84375 
Q 37.203125 48.484375 30.078125 48.484375 
Q 22.953125 48.484375 18.875 42.84375 
Q 14.796875 37.203125 14.796875 27.296875 
z
" id="DejaVuSans-100"/>
      <path d="M 48.6875 27.296875 
Q 48.6875 37.203125 44.609375 42.84375 
Q 40.53125 48.484375 33.40625 48.484375 
Q 26.265625 48.484375 22.1875 42.84375 
Q 18.109375 37.203125 18.109375 27.296875 
Q 18.109375 17.390625 22.1875 11.75 
Q 26.265625 6.109375 33.40625 6.109375 
Q 40.53125 6.109375 44.609375 11.75 
Q 48.6875 17.390625 48.6875 27.296875 
z
M 18.109375 46.390625 
Q 20.953125 51.265625 25.265625 53.625 
Q 29.59375 56 35.59375 56 
Q 45.5625 56 51.78125 48.09375 
Q 58.015625 40.1875 58.015625 27.296875 
Q 58.015625 14.40625 51.78125 6.484375 
Q 45.5625 -1.421875 35.59375 -1.421875 
Q 29.59375 -1.421875 25.265625 0.953125 
Q 20.953125 3.328125 18.109375 8.203125 
L 18.109375 0 
L 9.078125 0 
L 9.078125 75.984375 
L 18.109375 75.984375 
z
" id="DejaVuSans-98"/>
      <path d="M 52 44.1875 
Q 55.375 50.25 60.0625 53.125 
Q 64.75 56 71.09375 56 
Q 79.640625 56 84.28125 50.015625 
Q 88.921875 44.046875 88.921875 33.015625 
L 88.921875 0 
L 79.890625 0 
L 79.890625 32.71875 
Q 79.890625 40.578125 77.09375 44.375 
Q 74.3125 48.1875 68.609375 48.1875 
Q 61.625 48.1875 57.5625 43.546875 
Q 53.515625 38.921875 53.515625 30.90625 
L 53.515625 0 
L 44.484375 0 
L 44.484375 32.71875 
Q 44.484375 40.625 41.703125 44.40625 
Q 38.921875 48.1875 33.109375 48.1875 
Q 26.21875 48.1875 22.15625 43.53125 
Q 18.109375 38.875 18.109375 30.90625 
L 18.109375 0 
L 9.078125 0 
L 9.078125 54.6875 
L 18.109375 54.6875 
L 18.109375 46.1875 
Q 21.1875 51.21875 25.484375 53.609375 
Q 29.78125 56 35.6875 56 
Q 41.65625 56 45.828125 52.96875 
Q 50 49.953125 52 44.1875 
z
" id="DejaVuSans-109"/>
      <path d="M 18.3125 70.21875 
L 18.3125 54.6875 
L 36.8125 54.6875 
L 36.8125 47.703125 
L 18.3125 47.703125 
L 18.3125 18.015625 
Q 18.3125 11.328125 20.140625 9.421875 
Q 21.96875 7.515625 27.59375 7.515625 
L 36.8125 7.515625 
L 36.8125 0 
L 27.59375 0 
Q 17.1875 0 13.234375 3.875 
Q 9.28125 7.765625 9.28125 18.015625 
L 9.28125 47.703125 
L 2.6875 47.703125 
L 2.6875 54.6875 
L 9.28125 54.6875 
L 9.28125 70.21875 
z
" id="DejaVuSans-116"/>
     </defs>
     <g transform="translate(199.685 335.860562)scale(0.1 -0.1)">
      <use xlink:href="#DejaVuSans-106"/>
      <use x="27.783203" xlink:href="#DejaVuSans-95"/>
      <use x="77.783203" xlink:href="#DejaVuSans-100"/>
      <use x="141.259766" xlink:href="#DejaVuSans-50"/>
      <use x="204.882812" xlink:href="#DejaVuSans-95"/>
      <use x="254.882812" xlink:href="#DejaVuSans-98"/>
      <use x="318.359375" xlink:href="#DejaVuSans-50"/>
      <use x="381.982422" xlink:href="#DejaVuSans-95"/>
      <use x="431.982422" xlink:href="#DejaVuSans-109"/>
      <use x="529.394531" xlink:href="#DejaVuSans-109"/>
      <use x="626.806641" xlink:href="#DejaVuSans-100"/>
      <use x="690.283203" xlink:href="#DejaVuSans-116"/>
     </g>
    </g>
   </g>
   <g id="matplotlib.axis_2">
    <g id="ytick_1">
     <g id="line2d_6">
      <defs>
       <path d="M 0 0 
L -3.5 0 
" id="mc51e27bea4" style="stroke:#000000;stroke-width:0.8;"/>
      </defs>
      <g>
       <use style="stroke:#000000;stroke-width:0.8;" x="57.6" xlink:href="#mc51e27bea4" y="307.584"/>
      </g>
     </g>
     <g id="text_7">
      <!-- 0.000 -->
      <defs>
       <path d="M 10.6875 12.40625 
L 21 12.40625 
L 21 0 
L 10.6875 0 
z
" id="DejaVuSans-46"/>
      </defs>
      <g transform="translate(21.971875 311.383219)scale(0.1 -0.1)">
       <use xlink:href="#DejaVuSans-48"/>
       <use x="63.623047" xlink:href="#DejaVuSans-46"/>
       <use x="95.410156" xlink:href="#DejaVuSans-48"/>
       <use x="159.033203" xlink:href="#DejaVuSans-48"/>
       <use x="222.65625" xlink:href="#DejaVuSans-48"/>
      </g>
     </g>
    </g>
    <g id="ytick_2">
     <g id="line2d_7">
      <g>
       <use style="stroke:#000000;stroke-width:0.8;" x="57.6" xlink:href="#mc51e27bea4" y="254.523697"/>
      </g>
     </g>
     <g id="text_8">
      <!-- 0.002 -->
      <g transform="translate(21.971875 258.322916)scale(0.1 -0.1)">
       <use xlink:href="#DejaVuSans-48"/>
       <use x="63.623047" xlink:href="#DejaVuSans-46"/>
       <use x="95.410156" xlink:href="#DejaVuSans-48"/>
       <use x="159.033203" xlink:href="#DejaVuSans-48"/>
       <use x="222.65625" xlink:href="#DejaVuSans-50"/>
      </g>
     </g>
    </g>
    <g id="ytick_3">
     <g id="line2d_8">
      <g>
       <use style="stroke:#000000;stroke-width:0.8;" x="57.6" xlink:href="#mc51e27bea4" y="201.463394"/>
      </g>
     </g>
     <g id="text_9">
      <!-- 0.004 -->
      <defs>
       <path d="M 37.796875 64.3125 
L 12.890625 25.390625 
L 37.796875 25.390625 
z
M 35.203125 72.90625 
L 47.609375 72.90625 
L 47.609375 25.390625 
L 58.015625 25.390625 
L 58.015625 17.1875 
L 47.609375 17.1875 
L 47.609375 0 
L 37.796875 0 
L 37.796875 17.1875 
L 4.890625 17.1875 
L 4.890625 26.703125 
z
" id="DejaVuSans-52"/>
      </defs>
      <g transform="translate(21.971875 205.262613)scale(0.1 -0.1)">
       <use xlink:href="#DejaVuSans-48"/>
       <use x="63.623047" xlink:href="#DejaVuSans-46"/>
       <use x="95.410156" xlink:href="#DejaVuSans-48"/>
       <use x="159.033203" xlink:href="#DejaVuSans-48"/>
       <use x="222.65625" xlink:href="#DejaVuSans-52"/>
      </g>
     </g>
    </g>
    <g id="ytick_4">
     <g id="line2d_9">
      <g>
       <use style="stroke:#000000;stroke-width:0.8;" x="57.6" xlink:href="#mc51e27bea4" y="148.403092"/>
      </g>
     </g>
     <g id="text_10">
      <!-- 0.006 -->
      <defs>
       <path d="M 33.015625 40.375 
Q 26.375 40.375 22.484375 35.828125 
Q 18.609375 31.296875 18.609375 23.390625 
Q 18.609375 15.53125 22.484375 10.953125 
Q 26.375 6.390625 33.015625 6.390625 
Q 39.65625 6.390625 43.53125 10.953125 
Q 47.40625 15.53125 47.40625 23.390625 
Q 47.40625 31.296875 43.53125 35.828125 
Q 39.65625 40.375 33.015625 40.375 
z
M 52.59375 71.296875 
L 52.59375 62.3125 
Q 48.875 64.0625 45.09375 64.984375 
Q 41.3125 65.921875 37.59375 65.921875 
Q 27.828125 65.921875 22.671875 59.328125 
Q 17.53125 52.734375 16.796875 39.40625 
Q 19.671875 43.65625 24.015625 45.921875 
Q 28.375 48.1875 33.59375 48.1875 
Q 44.578125 48.1875 50.953125 41.515625 
Q 57.328125 34.859375 57.328125 23.390625 
Q 57.328125 12.15625 50.6875 5.359375 
Q 44.046875 -1.421875 33.015625 -1.421875 
Q 20.359375 -1.421875 13.671875 8.265625 
Q 6.984375 17.96875 6.984375 36.375 
Q 6.984375 53.65625 15.1875 63.9375 
Q 23.390625 74.21875 37.203125 74.21875 
Q 40.921875 74.21875 44.703125 73.484375 
Q 48.484375 72.75 52.59375 71.296875 
z
" id="DejaVuSans-54"/>
      </defs>
      <g transform="translate(21.971875 152.20231)scale(0.1 -0.1)">
       <use xlink:href="#DejaVuSans-48"/>
       <use x="63.623047" xlink:href="#DejaVuSans-46"/>
       <use x="95.410156" xlink:href="#DejaVuSans-48"/>
       <use x="159.033203" xlink:href="#DejaVuSans-48"/>
       <use x="222.65625" xlink:href="#DejaVuSans-54"/>
      </g>
     </g>
    </g>
    <g id="ytick_5">
     <g id="line2d_10">
      <g>
       <use style="stroke:#000000;stroke-width:0.8;" x="57.6" xlink:href="#mc51e27bea4" y="95.342789"/>
      </g>
     </g>
     <g id="text_11">
      <!-- 0.008 -->
      <defs>
       <path d="M 31.78125 34.625 
Q 24.75 34.625 20.71875 30.859375 
Q 16.703125 27.09375 16.703125 20.515625 
Q 16.703125 13.921875 20.71875 10.15625 
Q 24.75 6.390625 31.78125 6.390625 
Q 38.8125 6.390625 42.859375 10.171875 
Q 46.921875 13.96875 46.921875 20.515625 
Q 46.921875 27.09375 42.890625 30.859375 
Q 38.875 34.625 31.78125 34.625 
z
M 21.921875 38.8125 
Q 15.578125 40.375 12.03125 44.71875 
Q 8.5 49.078125 8.5 55.328125 
Q 8.5 64.0625 14.71875 69.140625 
Q 20.953125 74.21875 31.78125 74.21875 
Q 42.671875 74.21875 48.875 69.140625 
Q 55.078125 64.0625 55.078125 55.328125 
Q 55.078125 49.078125 51.53125 44.71875 
Q 48 40.375 41.703125 38.8125 
Q 48.828125 37.15625 52.796875 32.3125 
Q 56.78125 27.484375 56.78125 20.515625 
Q 56.78125 9.90625 50.3125 4.234375 
Q 43.84375 -1.421875 31.78125 -1.421875 
Q 19.734375 -1.421875 13.25 4.234375 
Q 6.78125 9.90625 6.78125 20.515625 
Q 6.78125 27.484375 10.78125 32.3125 
Q 14.796875 37.15625 21.921875 38.8125 
z
M 18.3125 54.390625 
Q 18.3125 48.734375 21.84375 45.5625 
Q 25.390625 42.390625 31.78125 42.390625 
Q 38.140625 42.390625 41.71875 45.5625 
Q 45.3125 48.734375 45.3125 54.390625 
Q 45.3125 60.0625 41.71875 63.234375 
Q 38.140625 66.40625 31.78125 66.40625 
Q 25.390625 66.40625 21.84375 63.234375 
Q 18.3125 60.0625 18.3125 54.390625 
z
" id="DejaVuSans-56"/>
      </defs>
      <g transform="translate(21.971875 99.142008)scale(0.1 -0.1)">
       <use xlink:href="#DejaVuSans-48"/>
       <use x="63.623047" xlink:href="#DejaVuSans-46"/>
       <use x="95.410156" xlink:href="#DejaVuSans-48"/>
       <use x="159.033203" xlink:href="#DejaVuSans-48"/>
       <use x="222.65625" xlink:href="#DejaVuSans-56"/>
      </g>
     </g>
    </g>
    <g id="ytick_6">
     <g id="line2d_11">
      <g>
       <use style="stroke:#000000;stroke-width:0.8;" x="57.6" xlink:href="#mc51e27bea4" y="42.282486"/>
      </g>
     </g>
     <g id="text_12">
      <!-- 0.010 -->
      <g transform="translate(21.971875 46.081705)scale(0.1 -0.1)">
       <use xlink:href="#DejaVuSans-48"/>
       <use x="63.623047" xlink:href="#DejaVuSans-46"/>
       <use x="95.410156" xlink:href="#DejaVuSans-48"/>
       <use x="159.033203" xlink:href="#DejaVuSans-49"/>
       <use x="222.65625" xlink:href="#DejaVuSans-48"/>
      </g>
     </g>
    </g>
    <g id="text_13">
     <!-- Prob. Density (a.u.) -->
     <defs>
      <path d="M 19.671875 64.796875 
L 19.671875 37.40625 
L 32.078125 37.40625 
Q 38.96875 37.40625 42.71875 40.96875 
Q 46.484375 44.53125 46.484375 51.125 
Q 46.484375 57.671875 42.71875 61.234375 
Q 38.96875 64.796875 32.078125 64.796875 
z
M 9.8125 72.90625 
L 32.078125 72.90625 
Q 44.34375 72.90625 50.609375 67.359375 
Q 56.890625 61.8125 56.890625 51.125 
Q 56.890625 40.328125 50.609375 34.8125 
Q 44.34375 29.296875 32.078125 29.296875 
L 19.671875 29.296875 
L 19.671875 0 
L 9.8125 0 
z
" id="DejaVuSans-80"/>
      <path d="M 41.109375 46.296875 
Q 39.59375 47.171875 37.8125 47.578125 
Q 36.03125 48 33.890625 48 
Q 26.265625 48 22.1875 43.046875 
Q 18.109375 38.09375 18.109375 28.8125 
L 18.109375 0 
L 9.078125 0 
L 9.078125 54.6875 
L 18.109375 54.6875 
L 18.109375 46.1875 
Q 20.953125 51.171875 25.484375 53.578125 
Q 30.03125 56 36.53125 56 
Q 37.453125 56 38.578125 55.875 
Q 39.703125 55.765625 41.0625 55.515625 
z
" id="DejaVuSans-114"/>
      <path d="M 30.609375 48.390625 
Q 23.390625 48.390625 19.1875 42.75 
Q 14.984375 37.109375 14.984375 27.296875 
Q 14.984375 17.484375 19.15625 11.84375 
Q 23.34375 6.203125 30.609375 6.203125 
Q 37.796875 6.203125 41.984375 11.859375 
Q 46.1875 17.53125 46.1875 27.296875 
Q 46.1875 37.015625 41.984375 42.703125 
Q 37.796875 48.390625 30.609375 48.390625 
z
M 30.609375 56 
Q 42.328125 56 49.015625 48.375 
Q 55.71875 40.765625 55.71875 27.296875 
Q 55.71875 13.875 49.015625 6.21875 
Q 42.328125 -1.421875 30.609375 -1.421875 
Q 18.84375 -1.421875 12.171875 6.21875 
Q 5.515625 13.875 5.515625 27.296875 
Q 5.515625 40.765625 12.171875 48.375 
Q 18.84375 56 30.609375 56 
z
" id="DejaVuSans-111"/>
      <path id="DejaVuSans-32"/>
      <path d="M 19.671875 64.796875 
L 19.671875 8.109375 
L 31.59375 8.109375 
Q 46.6875 8.109375 53.6875 14.9375 
Q 60.6875 21.78125 60.6875 36.53125 
Q 60.6875 51.171875 53.6875 57.984375 
Q 46.6875 64.796875 31.59375 64.796875 
z
M 9.8125 72.90625 
L 30.078125 72.90625 
Q 51.265625 72.90625 61.171875 64.09375 
Q 71.09375 55.28125 71.09375 36.53125 
Q 71.09375 17.671875 61.125 8.828125 
Q 51.171875 0 30.078125 0 
L 9.8125 0 
z
" id="DejaVuSans-68"/>
      <path d="M 56.203125 29.59375 
L 56.203125 25.203125 
L 14.890625 25.203125 
Q 15.484375 15.921875 20.484375 11.0625 
Q 25.484375 6.203125 34.421875 6.203125 
Q 39.59375 6.203125 44.453125 7.46875 
Q 49.3125 8.734375 54.109375 11.28125 
L 54.109375 2.78125 
Q 49.265625 0.734375 44.1875 -0.34375 
Q 39.109375 -1.421875 33.890625 -1.421875 
Q 20.796875 -1.421875 13.15625 6.1875 
Q 5.515625 13.8125 5.515625 26.8125 
Q 5.515625 40.234375 12.765625 48.109375 
Q 20.015625 56 32.328125 56 
Q 43.359375 56 49.78125 48.890625 
Q 56.203125 41.796875 56.203125 29.59375 
z
M 47.21875 32.234375 
Q 47.125 39.59375 43.09375 43.984375 
Q 39.0625 48.390625 32.421875 48.390625 
Q 24.90625 48.390625 20.390625 44.140625 
Q 15.875 39.890625 15.1875 32.171875 
z
" id="DejaVuSans-101"/>
      <path d="M 54.890625 33.015625 
L 54.890625 0 
L 45.90625 0 
L 45.90625 32.71875 
Q 45.90625 40.484375 42.875 44.328125 
Q 39.84375 48.1875 33.796875 48.1875 
Q 26.515625 48.1875 22.3125 43.546875 
Q 18.109375 38.921875 18.109375 30.90625 
L 18.109375 0 
L 9.078125 0 
L 9.078125 54.6875 
L 18.109375 54.6875 
L 18.109375 46.1875 
Q 21.34375 51.125 25.703125 53.5625 
Q 30.078125 56 35.796875 56 
Q 45.21875 56 50.046875 50.171875 
Q 54.890625 44.34375 54.890625 33.015625 
z
" id="DejaVuSans-110"/>
      <path d="M 44.28125 53.078125 
L 44.28125 44.578125 
Q 40.484375 46.53125 36.375 47.5 
Q 32.28125 48.484375 27.875 48.484375 
Q 21.1875 48.484375 17.84375 46.4375 
Q 14.5 44.390625 14.5 40.28125 
Q 14.5 37.15625 16.890625 35.375 
Q 19.28125 33.59375 26.515625 31.984375 
L 29.59375 31.296875 
Q 39.15625 29.25 43.1875 25.515625 
Q 47.21875 21.78125 47.21875 15.09375 
Q 47.21875 7.46875 41.1875 3.015625 
Q 35.15625 -1.421875 24.609375 -1.421875 
Q 20.21875 -1.421875 15.453125 -0.5625 
Q 10.6875 0.296875 5.421875 2 
L 5.421875 11.28125 
Q 10.40625 8.6875 15.234375 7.390625 
Q 20.0625 6.109375 24.8125 6.109375 
Q 31.15625 6.109375 34.5625 8.28125 
Q 37.984375 10.453125 37.984375 14.40625 
Q 37.984375 18.0625 35.515625 20.015625 
Q 33.0625 21.96875 24.703125 23.78125 
L 21.578125 24.515625 
Q 13.234375 26.265625 9.515625 29.90625 
Q 5.8125 33.546875 5.8125 39.890625 
Q 5.8125 47.609375 11.28125 51.796875 
Q 16.75 56 26.8125 56 
Q 31.78125 56 36.171875 55.265625 
Q 40.578125 54.546875 44.28125 53.078125 
z
" id="DejaVuSans-115"/>
      <path d="M 9.421875 54.6875 
L 18.40625 54.6875 
L 18.40625 0 
L 9.421875 0 
z
M 9.421875 75.984375 
L 18.40625 75.984375 
L 18.40625 64.59375 
L 9.421875 64.59375 
z
" id="DejaVuSans-105"/>
      <path d="M 32.171875 -5.078125 
Q 28.375 -14.84375 24.75 -17.8125 
Q 21.140625 -20.796875 15.09375 -20.796875 
L 7.90625 -20.796875 
L 7.90625 -13.28125 
L 13.1875 -13.28125 
Q 16.890625 -13.28125 18.9375 -11.515625 
Q 21 -9.765625 23.484375 -3.21875 
L 25.09375 0.875 
L 2.984375 54.6875 
L 12.5 54.6875 
L 29.59375 11.921875 
L 46.6875 54.6875 
L 56.203125 54.6875 
z
" id="DejaVuSans-121"/>
      <path d="M 31 75.875 
Q 24.46875 64.65625 21.28125 53.65625 
Q 18.109375 42.671875 18.109375 31.390625 
Q 18.109375 20.125 21.3125 9.0625 
Q 24.515625 -2 31 -13.1875 
L 23.1875 -13.1875 
Q 15.875 -1.703125 12.234375 9.375 
Q 8.59375 20.453125 8.59375 31.390625 
Q 8.59375 42.28125 12.203125 53.3125 
Q 15.828125 64.359375 23.1875 75.875 
z
" id="DejaVuSans-40"/>
      <path d="M 34.28125 27.484375 
Q 23.390625 27.484375 19.1875 25 
Q 14.984375 22.515625 14.984375 16.5 
Q 14.984375 11.71875 18.140625 8.90625 
Q 21.296875 6.109375 26.703125 6.109375 
Q 34.1875 6.109375 38.703125 11.40625 
Q 43.21875 16.703125 43.21875 25.484375 
L 43.21875 27.484375 
z
M 52.203125 31.203125 
L 52.203125 0 
L 43.21875 0 
L 43.21875 8.296875 
Q 40.140625 3.328125 35.546875 0.953125 
Q 30.953125 -1.421875 24.3125 -1.421875 
Q 15.921875 -1.421875 10.953125 3.296875 
Q 6 8.015625 6 15.921875 
Q 6 25.140625 12.171875 29.828125 
Q 18.359375 34.515625 30.609375 34.515625 
L 43.21875 34.515625 
L 43.21875 35.40625 
Q 43.21875 41.609375 39.140625 45 
Q 35.0625 48.390625 27.6875 48.390625 
Q 23 48.390625 18.546875 47.265625 
Q 14.109375 46.140625 10.015625 43.890625 
L 10.015625 52.203125 
Q 14.9375 54.109375 19.578125 55.046875 
Q 24.21875 56 28.609375 56 
Q 40.484375 56 46.34375 49.84375 
Q 52.203125 43.703125 52.203125 31.203125 
z
" id="DejaVuSans-97"/>
      <path d="M 8.5 21.578125 
L 8.5 54.6875 
L 17.484375 54.6875 
L 17.484375 21.921875 
Q 17.484375 14.15625 20.5 10.265625 
Q 23.53125 6.390625 29.59375 6.390625 
Q 36.859375 6.390625 41.078125 11.03125 
Q 45.3125 15.671875 45.3125 23.6875 
L 45.3125 54.6875 
L 54.296875 54.6875 
L 54.296875 0 
L 45.3125 0 
L 45.3125 8.40625 
Q 42.046875 3.421875 37.71875 1 
Q 33.40625 -1.421875 27.6875 -1.421875 
Q 18.265625 -1.421875 13.375 4.4375 
Q 8.5 10.296875 8.5 21.578125 
z
M 31.109375 56 
z
" id="DejaVuSans-117"/>
      <path d="M 8.015625 75.875 
L 15.828125 75.875 
Q 23.140625 64.359375 26.78125 53.3125 
Q 30.421875 42.28125 30.421875 31.390625 
Q 30.421875 20.453125 26.78125 9.375 
Q 23.140625 -1.703125 15.828125 -13.1875 
L 8.015625 -13.1875 
Q 14.5 -2 17.703125 9.0625 
Q 20.90625 20.125 20.90625 31.390625 
Q 20.90625 42.671875 17.703125 53.65625 
Q 14.5 64.65625 8.015625 75.875 
z
" id="DejaVuSans-41"/>
     </defs>
     <g transform="translate(15.892187 222.917844)rotate(-90)scale(0.1 -0.1)">
      <use xlink:href="#DejaVuSans-80"/>
      <use x="60.287109" xlink:href="#DejaVuSans-114"/>
      <use x="101.369141" xlink:href="#DejaVuSans-111"/>
      <use x="162.550781" xlink:href="#DejaVuSans-98"/>
      <use x="226.027344" xlink:href="#DejaVuSans-46"/>
      <use x="257.814453" xlink:href="#DejaVuSans-32"/>
      <use x="289.601562" xlink:href="#DejaVuSans-68"/>
      <use x="366.603516" xlink:href="#DejaVuSans-101"/>
      <use x="428.126953" xlink:href="#DejaVuSans-110"/>
      <use x="491.505859" xlink:href="#DejaVuSans-115"/>
      <use x="543.605469" xlink:href="#DejaVuSans-105"/>
      <use x="571.388672" xlink:href="#DejaVuSans-116"/>
      <use x="610.597656" xlink:href="#DejaVuSans-121"/>
      <use x="669.777344" xlink:href="#DejaVuSans-32"/>
      <use x="701.564453" xlink:href="#DejaVuSans-40"/>
      <use x="740.578125" xlink:href="#DejaVuSans-97"/>
      <use x="801.857422" xlink:href="#DejaVuSans-46"/>
      <use x="833.644531" xlink:href="#DejaVuSans-117"/>
      <use x="897.023438" xlink:href="#DejaVuSans-46"/>
      <use x="928.810547" xlink:href="#DejaVuSans-41"/>
     </g>
    </g>
   </g>
   <g id="patch_9">
    <path d="M 57.6 307.584 
L 57.6 41.472 
" style="fill:none;stroke:#000000;stroke-linecap:square;stroke-linejoin:miter;stroke-width:0.8;"/>
   </g>
   <g id="patch_10">
    <path d="M 414.72 307.584 
L 414.72 41.472 
" style="fill:none;stroke:#000000;stroke-linecap:square;stroke-linejoin:miter;stroke-width:0.8;"/>
   </g>
   <g id="patch_11">
    <path d="M 57.6 307.584 
L 414.72 307.584 
" style="fill:none;stroke:#000000;stroke-linecap:square;stroke-linejoin:miter;stroke-width:0.8;"/>
   </g>
   <g id="patch_12">
    <path d="M 57.6 41.472 
L 414.72 41.472 
" style="fill:none;stroke:#000000;stroke-linecap:square;stroke-linejoin:miter;stroke-width:0.8;"/>
   </g>
   <g id="legend_1">
    <g id="patch_13">
     <path d="M 325.405938 137.54075 
L 407.72 137.54075 
Q 409.72 137.54075 409.72 135.54075 
L 409.72 48.472 
Q 409.72 46.472 407.72 46.472 
L 325.405938 46.472 
Q 323.405938 46.472 323.405938 48.472 
L 323.405938 135.54075 
Q 323.405938 137.54075 325.405938 137.54075 
z
" style="fill:#ffffff;opacity:0.8;stroke:#cccccc;stroke-linejoin:miter;"/>
    </g>
    <g id="patch_14">
     <path d="M 327.405938 58.070438 
L 347.405938 58.070438 
L 347.405938 51.070438 
L 327.405938 51.070438 
z
" style="fill:none;stroke:#1f77b4;stroke-linejoin:miter;"/>
    </g>
    <g id="text_14">
     <!-- quark -->
     <defs>
      <path d="M 14.796875 27.296875 
Q 14.796875 17.390625 18.875 11.75 
Q 22.953125 6.109375 30.078125 6.109375 
Q 37.203125 6.109375 41.296875 11.75 
Q 45.40625 17.390625 45.40625 27.296875 
Q 45.40625 37.203125 41.296875 42.84375 
Q 37.203125 48.484375 30.078125 48.484375 
Q 22.953125 48.484375 18.875 42.84375 
Q 14.796875 37.203125 14.796875 27.296875 
z
M 45.40625 8.203125 
Q 42.578125 3.328125 38.25 0.953125 
Q 33.9375 -1.421875 27.875 -1.421875 
Q 17.96875 -1.421875 11.734375 6.484375 
Q 5.515625 14.40625 5.515625 27.296875 
Q 5.515625 40.1875 11.734375 48.09375 
Q 17.96875 56 27.875 56 
Q 33.9375 56 38.25 53.625 
Q 42.578125 51.265625 45.40625 46.390625 
L 45.40625 54.6875 
L 54.390625 54.6875 
L 54.390625 -20.796875 
L 45.40625 -20.796875 
z
" id="DejaVuSans-113"/>
      <path d="M 9.078125 75.984375 
L 18.109375 75.984375 
L 18.109375 31.109375 
L 44.921875 54.6875 
L 56.390625 54.6875 
L 27.390625 29.109375 
L 57.625 0 
L 45.90625 0 
L 18.109375 26.703125 
L 18.109375 0 
L 9.078125 0 
z
" id="DejaVuSans-107"/>
     </defs>
     <g transform="translate(355.405938 58.070438)scale(0.1 -0.1)">
      <use xlink:href="#DejaVuSans-113"/>
      <use x="63.476562" xlink:href="#DejaVuSans-117"/>
      <use x="126.855469" xlink:href="#DejaVuSans-97"/>
      <use x="188.134766" xlink:href="#DejaVuSans-114"/>
      <use x="229.248047" xlink:href="#DejaVuSans-107"/>
     </g>
    </g>
    <g id="patch_15">
     <path d="M 327.405938 72.748563 
L 347.405938 72.748563 
L 347.405938 65.748563 
L 327.405938 65.748563 
z
" style="fill:none;stroke:#ff7f0e;stroke-linejoin:miter;"/>
    </g>
    <g id="text_15">
     <!-- gluon -->
     <defs>
      <path d="M 45.40625 27.984375 
Q 45.40625 37.75 41.375 43.109375 
Q 37.359375 48.484375 30.078125 48.484375 
Q 22.859375 48.484375 18.828125 43.109375 
Q 14.796875 37.75 14.796875 27.984375 
Q 14.796875 18.265625 18.828125 12.890625 
Q 22.859375 7.515625 30.078125 7.515625 
Q 37.359375 7.515625 41.375 12.890625 
Q 45.40625 18.265625 45.40625 27.984375 
z
M 54.390625 6.78125 
Q 54.390625 -7.171875 48.1875 -13.984375 
Q 42 -20.796875 29.203125 -20.796875 
Q 24.46875 -20.796875 20.265625 -20.09375 
Q 16.0625 -19.390625 12.109375 -17.921875 
L 12.109375 -9.1875 
Q 16.0625 -11.328125 19.921875 -12.34375 
Q 23.78125 -13.375 27.78125 -13.375 
Q 36.625 -13.375 41.015625 -8.765625 
Q 45.40625 -4.15625 45.40625 5.171875 
L 45.40625 9.625 
Q 42.625 4.78125 38.28125 2.390625 
Q 33.9375 0 27.875 0 
Q 17.828125 0 11.671875 7.65625 
Q 5.515625 15.328125 5.515625 27.984375 
Q 5.515625 40.671875 11.671875 48.328125 
Q 17.828125 56 27.875 56 
Q 33.9375 56 38.28125 53.609375 
Q 42.625 51.21875 45.40625 46.390625 
L 45.40625 54.6875 
L 54.390625 54.6875 
z
" id="DejaVuSans-103"/>
      <path d="M 9.421875 75.984375 
L 18.40625 75.984375 
L 18.40625 0 
L 9.421875 0 
z
" id="DejaVuSans-108"/>
     </defs>
     <g transform="translate(355.405938 72.748563)scale(0.1 -0.1)">
      <use xlink:href="#DejaVuSans-103"/>
      <use x="63.476562" xlink:href="#DejaVuSans-108"/>
      <use x="91.259766" xlink:href="#DejaVuSans-117"/>
      <use x="154.638672" xlink:href="#DejaVuSans-111"/>
      <use x="215.820312" xlink:href="#DejaVuSans-110"/>
     </g>
    </g>
    <g id="patch_16">
     <path d="M 327.405938 87.426688 
L 347.405938 87.426688 
L 347.405938 80.426688 
L 327.405938 80.426688 
z
" style="fill:none;stroke:#2ca02c;stroke-linejoin:miter;"/>
    </g>
    <g id="text_16">
     <!-- W -->
     <defs>
      <path d="M 3.328125 72.90625 
L 13.28125 72.90625 
L 28.609375 11.28125 
L 43.890625 72.90625 
L 54.984375 72.90625 
L 70.3125 11.28125 
L 85.59375 72.90625 
L 95.609375 72.90625 
L 77.296875 0 
L 64.890625 0 
L 49.515625 63.28125 
L 33.984375 0 
L 21.578125 0 
z
" id="DejaVuSans-87"/>
     </defs>
     <g transform="translate(355.405938 87.426688)scale(0.1 -0.1)">
      <use xlink:href="#DejaVuSans-87"/>
     </g>
    </g>
    <g id="patch_17">
     <path d="M 327.405938 102.104813 
L 347.405938 102.104813 
L 347.405938 95.104813 
L 327.405938 95.104813 
z
" style="fill:none;stroke:#d62728;stroke-linejoin:miter;"/>
    </g>
    <g id="text_17">
     <!-- Z -->
     <defs>
      <path d="M 5.609375 72.90625 
L 62.890625 72.90625 
L 62.890625 65.375 
L 16.796875 8.296875 
L 64.015625 8.296875 
L 64.015625 0 
L 4.5 0 
L 4.5 7.515625 
L 50.59375 64.59375 
L 5.609375 64.59375 
z
" id="DejaVuSans-90"/>
     </defs>
     <g transform="translate(355.405938 102.104813)scale(0.1 -0.1)">
      <use xlink:href="#DejaVuSans-90"/>
     </g>
    </g>
    <g id="patch_18">
     <path d="M 327.405938 116.782938 
L 347.405938 116.782938 
L 347.405938 109.782938 
L 327.405938 109.782938 
z
" style="fill:none;stroke:#9467bd;stroke-linejoin:miter;"/>
    </g>
    <g id="text_18">
     <!-- top -->
     <defs>
      <path d="M 18.109375 8.203125 
L 18.109375 -20.796875 
L 9.078125 -20.796875 
L 9.078125 54.6875 
L 18.109375 54.6875 
L 18.109375 46.390625 
Q 20.953125 51.265625 25.265625 53.625 
Q 29.59375 56 35.59375 56 
Q 45.5625 56 51.78125 48.09375 
Q 58.015625 40.1875 58.015625 27.296875 
Q 58.015625 14.40625 51.78125 6.484375 
Q 45.5625 -1.421875 35.59375 -1.421875 
Q 29.59375 -1.421875 25.265625 0.953125 
Q 20.953125 3.328125 18.109375 8.203125 
z
M 48.6875 27.296875 
Q 48.6875 37.203125 44.609375 42.84375 
Q 40.53125 48.484375 33.40625 48.484375 
Q 26.265625 48.484375 22.1875 42.84375 
Q 18.109375 37.203125 18.109375 27.296875 
Q 18.109375 17.390625 22.1875 11.75 
Q 26.265625 6.109375 33.40625 6.109375 
Q 40.53125 6.109375 44.609375 11.75 
Q 48.6875 17.390625 48.6875 27.296875 
z
" id="DejaVuSans-112"/>
     </defs>
     <g transform="translate(355.405938 116.782938)scale(0.1 -0.1)">
      <use xlink:href="#DejaVuSans-116"/>
      <use x="39.208984" xlink:href="#DejaVuSans-111"/>
      <use x="100.390625" xlink:href="#DejaVuSans-112"/>
     </g>
    </g>
    <g id="patch_19">
     <path d="M 327.405938 131.461063 
L 347.405938 131.461063 
L 347.405938 124.461063 
L 327.405938 124.461063 
z
" style="fill:none;stroke:#000000;stroke-linejoin:miter;"/>
    </g>
    <g id="text_19">
     <!-- undefined -->
     <defs>
      <path d="M 37.109375 75.984375 
L 37.109375 68.5 
L 28.515625 68.5 
Q 23.6875 68.5 21.796875 66.546875 
Q 19.921875 64.59375 19.921875 59.515625 
L 19.921875 54.6875 
L 34.71875 54.6875 
L 34.71875 47.703125 
L 19.921875 47.703125 
L 19.921875 0 
L 10.890625 0 
L 10.890625 47.703125 
L 2.296875 47.703125 
L 2.296875 54.6875 
L 10.890625 54.6875 
L 10.890625 58.5 
Q 10.890625 67.625 15.140625 71.796875 
Q 19.390625 75.984375 28.609375 75.984375 
z
" id="DejaVuSans-102"/>
     </defs>
     <g transform="translate(355.405938 131.461063)scale(0.1 -0.1)">
      <use xlink:href="#DejaVuSans-117"/>
      <use x="63.378906" xlink:href="#DejaVuSans-110"/>
      <use x="126.757812" xlink:href="#DejaVuSans-100"/>
      <use x="190.234375" xlink:href="#DejaVuSans-101"/>
      <use x="251.757812" xlink:href="#DejaVuSans-102"/>
      <use x="286.962891" xlink:href="#DejaVuSans-105"/>
      <use x="314.746094" xlink:href="#DejaVuSans-110"/>
      <use x="378.125" xlink:href="#DejaVuSans-101"/>
      <use x="439.648438" xlink:href="#DejaVuSans-100"/>
     </g>
    </g>
   </g>
  </g>
 </g>
 <defs>
  <clipPath id="p3cd4a001f3">
   <rect height="266.112" width="357.12" x="57.6" y="41.472"/>
  </clipPath>
 </defs>
</svg>
