<?xml version="1.0" encoding="utf-8" standalone="no"?>
<!DOCTYPE svg PUBLIC "-//W3C//DTD SVG 1.1//EN"
  "http://www.w3.org/Graphics/SVG/1.1/DTD/svg11.dtd">
<!-- Created with matplotlib (https://matplotlib.org/) -->
<svg height="345.6pt" version="1.1" viewBox="0 0 460.8 345.6" width="460.8pt" xmlns="http://www.w3.org/2000/svg" xmlns:xlink="http://www.w3.org/1999/xlink">
 <defs>
  <style type="text/css">
*{stroke-linecap:butt;stroke-linejoin:round;}
  </style>
 </defs>
 <g id="figure_1">
  <g id="patch_1">
   <path d="M 0 345.6 
L 460.8 345.6 
L 460.8 0 
L 0 0 
z
" style="fill:#ffffff;"/>
  </g>
  <g id="axes_1">
   <g id="patch_2">
    <path d="M 57.6 307.584 
L 414.72 307.584 
L 414.72 41.472 
L 57.6 41.472 
z
" style="fill:#ffffff;"/>
   </g>
   <g id="patch_3">
    <path clip-path="url(#p2cda527220)" d="M 73.832727 307.584 
L 73.832727 306.756225 
L 77.079273 306.756225 
L 77.079273 306.010641 
L 83.572364 306.098702 
L 83.572364 305.676008 
L 86.818909 305.676008 
L 86.818909 305.312022 
L 90.065455 305.312022 
L 90.065455 304.589921 
L 93.312 304.589921 
L 93.312 305.76994 
L 96.558545 305.76994 
L 96.558545 305.094805 
L 99.805092 305.094805 
L 99.805092 304.959778 
L 103.051635 304.959778 
L 103.051635 303.703439 
L 106.298181 303.703439 
L 106.298181 303.08114 
L 109.544728 303.08114 
L 109.544728 302.652575 
L 112.791271 302.652575 
L 112.791271 303.63886 
L 116.037818 303.63886 
L 116.037818 303.222037 
L 119.284364 303.222037 
L 119.284364 301.554746 
L 122.530908 301.554746 
L 122.530908 302.14182 
L 125.777454 302.14182 
L 125.777454 300.451047 
L 129.024001 300.451047 
L 129.024001 298.220162 
L 135.517091 298.167326 
L 135.517091 298.032299 
L 138.763634 298.032299 
L 138.763634 295.560717 
L 142.010184 295.560717 
L 142.010184 294.509854 
L 145.256727 294.509854 
L 145.256727 291.926727 
L 148.50327 291.926727 
L 148.50327 290.834768 
L 151.74982 290.834768 
L 151.74982 286.314295 
L 154.996363 286.314295 
L 154.996363 286.924852 
L 158.242907 286.924852 
L 158.242907 280.701864 
L 161.489457 280.701864 
L 161.489457 281.811435 
L 164.736 281.811435 
L 164.736 277.232255 
L 167.982543 277.232255 
L 167.982543 274.379078 
L 171.229093 274.379078 
L 171.229093 271.396735 
L 174.475636 271.396735 
L 174.475636 276.668664 
L 177.722179 276.668664 
L 177.722179 272.529792 
L 180.968729 272.529792 
L 180.968729 269.717706 
L 184.215272 269.717706 
L 184.215272 260.212967 
L 190.708359 260.130778 
L 190.708359 261.651299 
L 193.954909 261.651299 
L 193.954909 254.829495 
L 197.201459 254.829495 
L 197.201459 265.11504 
L 200.447995 265.11504 
L 200.447995 256.373505 
L 203.694545 256.373505 
L 203.694545 255.005622 
L 206.941095 255.005622 
L 206.941095 247.743511 
L 210.187632 247.743511 
L 210.187632 252.087861 
L 213.434182 252.087861 
L 213.434182 247.17992 
L 216.680732 247.17992 
L 216.680732 251.489047 
L 219.927268 251.489047 
L 219.927268 238.502956 
L 223.173818 238.502956 
L 223.173818 240 
L 226.420368 240 
L 226.420368 250.995895 
L 229.666904 250.995895 
L 229.666904 247.29146 
L 232.913454 247.29146 
L 232.913454 231.176267 
L 236.160004 231.176267 
L 236.160004 250.297285 
L 239.406541 250.297285 
L 239.406541 236.242721 
L 242.653091 236.242721 
L 242.653091 235.53236 
L 245.899641 235.53236 
L 245.899641 228.317218 
L 249.146177 228.317218 
L 249.146177 230.542231 
L 252.392727 230.542231 
L 252.392727 234.187964 
L 255.639277 234.187964 
L 255.639277 231.387617 
L 258.885813 231.387617 
L 258.885813 228.904289 
L 262.132363 228.904289 
L 262.132363 234.317111 
L 265.378913 234.317111 
L 265.378913 226.626453 
L 268.62545 226.626453 
L 268.62545 223.297731 
L 271.872 223.297731 
L 271.872 222.71066 
L 275.11855 222.71066 
L 275.11855 230.90035 
L 278.365086 230.90035 
L 278.365086 228.346576 
L 281.611636 228.346576 
L 281.611636 226.732128 
L 284.858186 226.732128 
L 284.858186 223.415135 
L 288.104723 223.415135 
L 288.104723 217.203899 
L 291.351273 217.203899 
L 291.351273 225.152881 
L 294.597823 225.152881 
L 294.597823 209.859609 
L 297.844359 209.859609 
L 297.844359 211.45645 
L 301.090909 211.45645 
L 301.090909 218.871192 
L 304.337445 218.871192 
L 304.337445 212.718644 
L 307.584009 212.718644 
L 307.584009 213.264634 
L 310.830545 213.264634 
L 310.830545 218.289986 
L 314.077082 218.289986 
L 314.077082 224.207705 
L 317.323645 224.207705 
L 317.323645 217.485694 
L 320.570182 217.485694 
L 320.570182 212.348795 
L 323.816718 212.348795 
L 323.816718 217.808591 
L 327.063282 217.808591 
L 327.063282 220.526735 
L 330.309818 220.526735 
L 330.309818 217.626585 
L 333.556355 217.626585 
L 333.556355 229.086281 
L 336.802918 229.086281 
L 336.802918 221.178393 
L 340.049454 221.178393 
L 340.049454 239.941291 
L 343.295991 239.941291 
L 343.295991 231.440455 
L 346.542554 231.440455 
L 346.542554 249.469506 
L 349.789091 249.469506 
L 349.789091 248.236642 
L 353.035627 248.236642 
L 353.035627 254.389194 
L 356.282191 254.389194 
L 356.282191 263.635614 
L 359.528727 263.635614 
L 359.528727 264.322487 
L 362.775264 264.322487 
L 362.775264 274.519972 
L 366.021827 274.519972 
L 366.021827 280.836888 
L 369.268364 280.836888 
L 369.268364 277.73714 
L 372.5149 277.73714 
L 372.5149 285.780056 
L 375.761464 285.780056 
L 375.761464 293.165454 
L 379.008 293.165454 
L 379.008 294.609657 
L 382.254536 294.609657 
L 382.254536 300.87374 
L 385.5011 300.87374 
L 385.5011 304.002847 
L 388.747636 304.002847 
L 388.747636 304.589921 
L 391.994173 304.589921 
L 391.994173 305.235702 
L 395.240736 305.235702 
L 395.240736 307.584 
L 398.487273 307.584 
L 398.487273 307.584 
" style="fill:none;stroke:#1f77b4;stroke-linejoin:miter;"/>
   </g>
   <g id="patch_4">
    <path clip-path="url(#p2cda527220)" d="M 73.832727 307.584 
L 73.832727 307.325687 
L 77.079273 307.325687 
L 77.079273 307.584 
L 86.818909 307.584 
L 86.818909 307.419619 
L 93.312 307.360912 
L 93.312 307.584 
L 96.558545 307.584 
L 96.558545 306.71513 
L 103.051635 306.726871 
L 103.051635 306.902994 
L 106.298181 306.902994 
L 106.298181 306.685776 
L 109.544728 306.685776 
L 109.544728 305.728845 
L 112.791271 305.728845 
L 112.791271 305.494015 
L 116.037818 305.494015 
L 116.037818 305.124158 
L 119.284364 305.124158 
L 119.284364 305.282669 
L 122.530908 305.282669 
L 122.530908 304.701465 
L 125.777454 304.701465 
L 125.777454 301.766093 
L 129.024001 301.766093 
L 129.024001 303.362935 
L 132.270547 303.362935 
L 132.270547 301.231855 
L 135.517091 301.231855 
L 135.517091 303.057657 
L 138.763634 303.057657 
L 138.763634 299.370829 
L 142.010184 299.370829 
L 142.010184 298.989232 
L 145.256727 298.989232 
L 145.256727 297.269103 
L 148.50327 297.269103 
L 148.50327 296.517648 
L 151.74982 296.517648 
L 151.74982 291.533385 
L 154.996363 291.533385 
L 154.996363 291.410098 
L 161.489457 291.457064 
L 161.489457 289.619524 
L 164.736 289.619524 
L 164.736 288.897424 
L 167.982543 288.897424 
L 167.982543 277.326187 
L 171.229093 277.326187 
L 171.229093 283.51395 
L 174.475636 283.51395 
L 174.475636 275.852629 
L 177.722179 275.852629 
L 177.722179 271.925111 
L 180.968729 271.925111 
L 180.968729 274.179467 
L 184.215272 274.179467 
L 184.215272 270.228456 
L 187.461822 270.228456 
L 187.461822 265.51425 
L 190.708359 265.51425 
L 190.708359 259.872466 
L 193.954909 259.872466 
L 193.954909 265.173745 
L 197.201459 265.173745 
L 197.201459 259.608278 
L 200.447995 259.608278 
L 200.447995 254.048686 
L 203.694545 254.048686 
L 203.694545 246.023387 
L 206.941095 246.023387 
L 206.941095 254.10153 
L 210.187632 254.10153 
L 210.187632 237.052884 
L 213.434182 237.052884 
L 213.434182 242.354161 
L 216.680732 242.354161 
L 216.680732 230.248692 
L 219.927268 230.248692 
L 219.927268 223.561918 
L 223.173818 223.561918 
L 223.173818 238.056783 
L 226.420368 238.056783 
L 226.420368 228.510947 
L 229.666904 228.510947 
L 229.666904 215.96517 
L 232.913454 215.96517 
L 232.913454 211.861521 
L 236.160004 211.861521 
L 236.160004 213.975001 
L 239.406541 213.975001 
L 239.406541 218.847712 
L 242.653091 218.847712 
L 242.653091 207.898756 
L 245.899641 207.898756 
L 245.899641 209.982899 
L 249.146177 209.982899 
L 249.146177 206.166896 
L 252.392727 206.166896 
L 252.392727 199.527081 
L 255.639277 199.527081 
L 255.639277 189.30027 
L 258.885813 189.30027 
L 258.885813 195.670012 
L 262.132363 195.670012 
L 262.132363 179.18497 
L 265.378913 179.18497 
L 265.378913 165.817287 
L 268.62545 165.817287 
L 268.62545 178.66246 
L 271.872 178.66246 
L 271.872 178.216287 
L 275.11855 178.216287 
L 275.11855 177.852303 
L 278.365086 177.852303 
L 278.365086 161.995434 
L 281.611636 161.995434 
L 281.611636 152.062105 
L 284.858186 152.062105 
L 284.858186 157.287086 
L 288.104723 157.287086 
L 288.104723 163.668599 
L 291.351273 163.668599 
L 291.351273 168.32996 
L 294.597823 168.32996 
L 294.597823 133.246377 
L 297.844359 133.246377 
L 297.844359 154.53959 
L 301.090909 154.53959 
L 301.090909 123.430522 
L 304.337445 123.430522 
L 304.337445 143.690444 
L 307.584009 143.690444 
L 307.584009 135.019352 
L 310.830545 135.019352 
L 310.830545 139.739415 
L 314.077082 139.739415 
L 314.077082 140.261968 
L 317.323645 140.261968 
L 317.323645 136.692531 
L 320.570182 136.692531 
L 320.570182 130.457815 
L 323.816718 130.457815 
L 323.816718 115.780909 
L 327.063282 115.780909 
L 327.063282 115.610681 
L 330.309818 115.610681 
L 330.309818 117.260332 
L 333.556355 117.260332 
L 333.556355 132.624084 
L 336.802918 132.624084 
L 336.802918 114.524594 
L 340.049454 114.524594 
L 340.049454 125.432428 
L 343.295991 125.432428 
L 343.295991 122.743635 
L 346.542554 122.743635 
L 346.542554 123.970613 
L 349.789091 123.970613 
L 349.789091 106.851549 
L 353.035627 106.851549 
L 353.035627 122.866904 
L 356.282191 122.866904 
L 356.282191 129.694589 
L 359.528727 129.694589 
L 359.528727 145.780431 
L 362.775264 145.780431 
L 362.775264 151.12868 
L 366.021827 151.12868 
L 366.021827 163.416126 
L 369.268364 163.416126 
L 369.268364 183.071391 
L 372.5149 183.071391 
L 372.5149 182.842433 
L 375.761464 182.842433 
L 375.761464 205.94381 
L 379.008 205.94381 
L 379.008 225.205725 
L 382.254536 225.205725 
L 382.254536 259.637633 
L 385.5011 259.637633 
L 385.5011 274.161856 
L 388.747636 274.161856 
L 388.747636 276.59234 
L 391.994173 276.59234 
L 391.994173 291.462936 
L 395.240736 291.462936 
L 395.240736 301.619324 
L 398.487273 301.619324 
L 398.487273 307.584 
L 398.487273 307.584 
" style="fill:none;stroke:#ff7f0e;stroke-linejoin:miter;"/>
   </g>
   <g id="patch_5">
    <path clip-path="url(#p2cda527220)" d="M 73.832727 307.584 
L 77.079273 307.584 
L 77.079273 307.067375 
L 80.325818 307.067375 
L 80.325818 307.42549 
L 86.818909 307.443102 
L 86.818909 306.885381 
L 90.065455 306.885381 
L 90.065455 307.131953 
L 93.312 307.131953 
L 93.312 306.897123 
L 96.558545 306.897123 
L 96.558545 306.603586 
L 99.805092 306.603586 
L 99.805092 306.979313 
L 106.298181 307.038021 
L 106.298181 305.400083 
L 109.544728 305.400083 
L 109.544728 305.699492 
L 112.791271 305.699492 
L 112.791271 302.541031 
L 116.037818 302.541031 
L 116.037818 297.873789 
L 119.284364 297.873789 
L 119.284364 296.969695 
L 122.530908 296.969695 
L 122.530908 289.660618 
L 125.777454 289.660618 
L 125.777454 279.32224 
L 129.024001 279.32224 
L 129.024001 269.283266 
L 132.270547 269.283266 
L 132.270547 258.991857 
L 135.517091 258.991857 
L 135.517091 253.033047 
L 138.763634 253.033047 
L 138.763634 234.998121 
L 142.010184 234.998121 
L 142.010184 226.491419 
L 145.256727 226.491419 
L 145.256727 223.873065 
L 148.50327 223.873065 
L 148.50327 219.047312 
L 151.74982 219.047312 
L 151.74982 209.871338 
L 154.996363 209.871338 
L 154.996363 209.237295 
L 158.242907 209.237295 
L 158.242907 201.305914 
L 161.489457 201.305914 
L 161.489457 198.382298 
L 164.736 198.382298 
L 164.736 203.736412 
L 167.982543 203.736412 
L 167.982543 197.190536 
L 171.229093 197.190536 
L 171.229093 185.766062 
L 174.475636 185.766062 
L 174.475636 204.681609 
L 177.722179 204.681609 
L 177.722179 197.900896 
L 180.968729 197.900896 
L 180.968729 207.117964 
L 184.215272 207.117964 
L 184.215272 210.047473 
L 187.461822 210.047473 
L 187.461822 208.221667 
L 190.708359 208.221667 
L 190.708359 215.894725 
L 193.954909 215.894725 
L 193.954909 209.202072 
L 197.201459 209.202072 
L 197.201459 212.65407 
L 200.447995 212.65407 
L 200.447995 212.35466 
L 203.694545 212.35466 
L 203.694545 219.205818 
L 206.941095 219.205818 
L 206.941095 220.990522 
L 210.187632 220.990522 
L 210.187632 218.601133 
L 213.434182 218.601133 
L 213.434182 233.518691 
L 216.680732 233.518691 
L 216.680732 221.835909 
L 219.927268 221.835909 
L 219.927268 227.82408 
L 223.173818 227.82408 
L 223.173818 232.115585 
L 226.420368 232.115585 
L 226.420368 225.863248 
L 229.666904 225.863248 
L 229.666904 235.638036 
L 232.913454 235.638036 
L 232.913454 241.831671 
L 236.160004 241.831671 
L 236.160004 244.461769 
L 239.406541 244.461769 
L 239.406541 242.53616 
L 242.653091 242.53616 
L 242.653091 244.995995 
L 245.899641 244.995995 
L 245.899641 242.084101 
L 249.146177 242.084101 
L 249.146177 248.389283 
L 252.392727 248.389283 
L 252.392727 244.960772 
L 258.885813 244.984258 
L 258.885813 249.78066 
L 262.132363 249.78066 
L 262.132363 248.453871 
L 265.378913 248.453871 
L 265.378913 254.365704 
L 268.62545 254.365704 
L 268.62545 244.091906 
L 271.872 244.091906 
L 271.872 256.67878 
L 278.365086 256.608339 
L 278.365086 258.351942 
L 281.611636 258.351942 
L 281.611636 253.719921 
L 284.858186 253.719921 
L 284.858186 264.545581 
L 288.104723 264.545581 
L 288.104723 256.121065 
L 291.351273 256.121065 
L 291.351273 255.768817 
L 294.597823 255.768817 
L 294.597823 263.635614 
L 297.844359 263.635614 
L 297.844359 262.109222 
L 304.337445 262.038769 
L 304.337445 270.680503 
L 307.584009 270.680503 
L 307.584009 269.940796 
L 310.830545 269.940796 
L 310.830545 263.770636 
L 314.077082 263.770636 
L 314.077082 268.091507 
L 317.323645 268.091507 
L 317.323645 265.220711 
L 320.570182 265.220711 
L 320.570182 275.823274 
L 323.816718 275.823274 
L 323.816718 273.140346 
L 327.063282 273.140346 
L 327.063282 275.799791 
L 330.309818 275.799791 
L 330.309818 282.222388 
L 333.556355 282.222388 
L 333.556355 279.545328 
L 336.802918 279.545328 
L 336.802918 285.39846 
L 340.049454 285.39846 
L 340.049454 281.928848 
L 343.295991 281.928848 
L 343.295991 287.934619 
L 346.542554 287.934619 
L 346.542554 288.451246 
L 349.789091 288.451246 
L 349.789091 286.731119 
L 353.035627 286.731119 
L 353.035627 295.337629 
L 356.282191 295.337629 
L 356.282191 291.973693 
L 359.528727 291.973693 
L 359.528727 294.727072 
L 362.775264 294.727072 
L 362.775264 296.247593 
L 366.021827 296.247593 
L 366.021827 299.640884 
L 369.268364 299.640884 
L 369.268364 301.912861 
L 372.5149 301.912861 
L 372.5149 303.903044 
L 375.761464 303.903044 
L 375.761464 301.865895 
L 379.008 301.865895 
L 379.008 304.02633 
L 382.254536 304.02633 
L 382.254536 305.881484 
L 388.747636 305.787553 
L 388.747636 306.820803 
L 391.994173 306.820803 
L 391.994173 307.073245 
L 398.487273 307.10847 
L 398.487273 307.584 
L 398.487273 307.584 
" style="fill:none;stroke:#2ca02c;stroke-linejoin:miter;"/>
   </g>
   <g id="patch_6">
    <path clip-path="url(#p2cda527220)" d="M 73.832727 307.584 
L 73.832727 307.431361 
L 77.079273 307.431361 
L 77.079273 307.020409 
L 80.325818 307.020409 
L 80.325818 306.650552 
L 83.572364 306.650552 
L 83.572364 307.584 
L 86.818909 307.584 
L 86.818909 307.437231 
L 93.312 307.331558 
L 93.312 307.079116 
L 96.558545 307.079116 
L 96.558545 306.445076 
L 99.805092 306.445076 
L 99.805092 307.396136 
L 103.051635 307.396136 
L 103.051635 305.946062 
L 106.298181 305.946062 
L 106.298181 304.748431 
L 109.544728 304.748431 
L 109.544728 303.750405 
L 112.791271 303.750405 
L 112.791271 297.591992 
L 116.037818 297.591992 
L 116.037818 294.374827 
L 119.284364 294.374827 
L 119.284364 286.343648 
L 122.530908 286.343648 
L 122.530908 279.463139 
L 125.777454 279.463139 
L 125.777454 264.363582 
L 129.024001 264.363582 
L 129.024001 255.064325 
L 132.270547 255.064325 
L 132.270547 243.92165 
L 135.517091 243.92165 
L 135.517091 222.534533 
L 138.763634 222.534533 
L 138.763634 221.078597 
L 142.010184 221.078597 
L 142.010184 207.78723 
L 145.256727 207.78723 
L 145.256727 201.071098 
L 148.50327 201.071098 
L 148.50327 191.44308 
L 151.74982 191.44308 
L 151.74982 202.039767 
L 154.996363 202.039767 
L 154.996363 192.605491 
L 158.242907 192.605491 
L 158.242907 198.828464 
L 161.489457 198.828464 
L 161.489457 193.685693 
L 164.736 193.685693 
L 164.736 191.807071 
L 167.982543 191.807071 
L 167.982543 204.000599 
L 171.229093 204.000599 
L 171.229093 193.092751 
L 174.475636 193.092751 
L 174.475636 201.382238 
L 177.722179 201.382238 
L 177.722179 196.462568 
L 180.968729 196.462568 
L 180.968729 207.89877 
L 184.215272 207.89877 
L 184.215272 203.894931 
L 187.461822 203.894931 
L 187.461822 216.49941 
L 190.708359 216.49941 
L 190.708359 213.035669 
L 193.954909 213.035669 
L 193.954909 200.13178 
L 197.201459 200.13178 
L 197.201459 222.610864 
L 200.447995 222.610864 
L 200.447995 224.284015 
L 203.694545 224.284015 
L 203.694545 214.3566 
L 206.941095 214.3566 
L 206.941095 224.577546 
L 210.187632 224.577546 
L 210.187632 224.712572 
L 213.434182 224.712572 
L 213.434182 224.530587 
L 216.680732 224.530587 
L 216.680732 220.790923 
L 219.927268 220.790923 
L 219.927268 234.428665 
L 223.173818 234.428665 
L 223.173818 228.064774 
L 226.420368 228.064774 
L 226.420368 238.46774 
L 229.666904 238.46774 
L 229.666904 231.33478 
L 232.913454 231.33478 
L 232.913454 237.041148 
L 236.160004 237.041148 
L 236.160004 240.868866 
L 239.406541 240.868866 
L 239.406541 244.984258 
L 242.653091 244.984258 
L 242.653091 238.667333 
L 245.899641 238.667333 
L 245.899641 243.798368 
L 249.146177 243.798368 
L 249.146177 245.042968 
L 252.392727 245.042968 
L 252.392727 248.154454 
L 255.639277 248.154454 
L 255.639277 249.058553 
L 258.885813 249.058553 
L 258.885813 254.577051 
L 262.132363 254.577051 
L 262.132363 247.344297 
L 265.378913 247.344297 
L 265.378913 253.849086 
L 268.62545 253.849086 
L 268.62545 252.217016 
L 271.872 252.217016 
L 271.872 256.062355 
L 275.11855 256.062355 
L 275.11855 261.046617 
L 278.365086 261.046617 
L 278.365086 252.886281 
L 281.611636 252.886281 
L 281.611636 259.449773 
L 284.858186 259.449773 
L 284.858186 252.140695 
L 288.104723 252.140695 
L 288.104723 257.700284 
L 291.351273 257.700284 
L 291.351273 261.74523 
L 294.597823 261.74523 
L 294.597823 251.541878 
L 297.844359 251.541878 
L 297.844359 261.504533 
L 301.090909 261.504533 
L 301.090909 263.571036 
L 304.337445 263.571036 
L 304.337445 270.586572 
L 307.584009 270.586572 
L 307.584009 269.424167 
L 310.830545 269.424167 
L 310.830545 270.416319 
L 314.077082 270.416319 
L 314.077082 265.760816 
L 317.323645 265.760816 
L 317.323645 272.171673 
L 320.570182 272.171673 
L 320.570182 269.817506 
L 323.816718 269.817506 
L 323.816718 272.336054 
L 327.063282 272.336054 
L 327.063282 275.065951 
L 330.309818 275.065951 
L 330.309818 277.390764 
L 333.556355 277.390764 
L 333.556355 281.735116 
L 336.802918 281.735116 
L 336.802918 282.292835 
L 340.049454 282.292835 
L 340.049454 287.975717 
L 343.295991 287.975717 
L 343.295991 286.584348 
L 346.542554 286.584348 
L 346.542554 288.398409 
L 349.789091 288.398409 
L 349.789091 287.429734 
L 353.035627 287.429734 
L 353.035627 291.498162 
L 356.282191 291.498162 
L 356.282191 290.45904 
L 359.528727 290.45904 
L 359.528727 294.914935 
L 362.775264 294.914935 
L 362.775264 299.28864 
L 366.021827 299.28864 
L 366.021827 297.732891 
L 369.268364 297.732891 
L 369.268364 301.402106 
L 372.5149 301.402106 
L 372.5149 302.036147 
L 375.761464 302.036147 
L 375.761464 304.918682 
L 382.254536 304.889328 
L 382.254536 306.63881 
L 385.5011 306.63881 
L 385.5011 306.79145 
L 388.747636 306.79145 
L 388.747636 307.584 
L 398.487273 307.584 
L 398.487273 307.584 
" style="fill:none;stroke:#d62728;stroke-linejoin:miter;"/>
   </g>
   <g id="patch_7">
    <path clip-path="url(#p2cda527220)" d="M 73.832727 307.584 
L 96.558545 307.584 
L 96.558545 307.402007 
L 99.805092 307.402007 
L 99.805092 307.225885 
L 106.298181 307.225885 
L 106.298181 307.102599 
L 109.544728 307.102599 
L 109.544728 306.979313 
L 112.791271 306.979313 
L 112.791271 306.597715 
L 116.037818 306.597715 
L 116.037818 305.206349 
L 119.284364 305.206349 
L 119.284364 303.979363 
L 122.530908 303.979363 
L 122.530908 301.03812 
L 125.777454 301.03812 
L 125.777454 299.05968 
L 129.024001 299.05968 
L 129.024001 291.310295 
L 132.270547 291.310295 
L 132.270547 287.376897 
L 135.517091 287.376897 
L 135.517091 282.386767 
L 138.763634 282.386767 
L 138.763634 270.745081 
L 142.010184 270.745081 
L 142.010184 265.531858 
L 145.256727 265.531858 
L 145.256727 261.845034 
L 148.50327 261.845034 
L 148.50327 257.52417 
L 151.74982 257.52417 
L 151.74982 258.786371 
L 154.996363 258.786371 
L 154.996363 246.716119 
L 158.242907 246.716119 
L 158.242907 244.3326 
L 161.489457 244.3326 
L 161.489457 241.573355 
L 164.736 241.573355 
L 164.736 231.158652 
L 167.982543 231.158652 
L 167.982543 236.929595 
L 171.229093 236.929595 
L 171.229093 244.496985 
L 174.475636 244.496985 
L 174.475636 227.812336 
L 177.722179 227.812336 
L 177.722179 228.463995 
L 180.968729 228.463995 
L 180.968729 230.583325 
L 184.215272 230.583325 
L 184.215272 225.716478 
L 187.461822 225.716478 
L 187.461822 220.303656 
L 190.708359 220.303656 
L 190.708359 233.078397 
L 193.954909 233.078397 
L 193.954909 217.315424 
L 197.201459 217.315424 
L 197.201459 218.888793 
L 200.447995 218.888793 
L 200.447995 208.703055 
L 203.694545 208.703055 
L 203.694545 215.695118 
L 206.941095 215.695118 
L 206.941095 226.344643 
L 210.187632 226.344643 
L 210.187632 213.663834 
L 213.434182 213.663834 
L 213.434182 224.741931 
L 216.680732 224.741931 
L 216.680732 207.047512 
L 219.927268 207.047512 
L 219.927268 208.708934 
L 223.173818 208.708934 
L 223.173818 210.828257 
L 226.420368 210.828257 
L 226.420368 205.926195 
L 229.666904 205.926195 
L 229.666904 206.301929 
L 232.913454 206.301929 
L 232.913454 198.581912 
L 236.160004 198.581912 
L 236.160004 194.642633 
L 239.406541 194.642633 
L 239.406541 184.74457 
L 242.653091 184.74457 
L 242.653091 194.049677 
L 245.899641 194.049677 
L 245.899641 191.360884 
L 249.146177 191.360884 
L 249.146177 171.558871 
L 252.392727 171.558871 
L 252.392727 162.553146 
L 255.639277 162.553146 
L 255.639277 154.615928 
L 258.885813 154.615928 
L 258.885813 148.134591 
L 262.132363 148.134591 
L 262.132363 139.539836 
L 265.378913 139.539836 
L 265.378913 119.262293 
L 268.62545 119.262293 
L 268.62545 108.172446 
L 271.872 108.172446 
L 271.872 80.392072 
L 275.11855 80.392072 
L 275.11855 68.697539 
L 278.365086 68.697539 
L 278.365086 54.144 
L 281.611636 54.144 
L 281.611636 62.709389 
L 284.858186 62.709389 
L 284.858186 66.977429 
L 288.104723 66.977429 
L 288.104723 81.337283 
L 291.351273 81.337283 
L 291.351273 93.82435 
L 294.597823 93.82435 
L 294.597823 91.89289 
L 297.844359 91.89289 
L 297.844359 91.43496 
L 301.090909 91.43496 
L 301.090909 96.149173 
L 304.337445 96.149173 
L 304.337445 145.387082 
L 307.584009 145.387082 
L 307.584009 149.866458 
L 310.830545 149.866458 
L 310.830545 158.255755 
L 314.077082 158.255755 
L 314.077082 184.679961 
L 317.323645 184.679961 
L 317.323645 187.715144 
L 320.570182 187.715144 
L 320.570182 203.988856 
L 323.816718 203.988856 
L 323.816718 217.145196 
L 327.063282 217.145196 
L 327.063282 231.428712 
L 330.309818 231.428712 
L 330.309818 236.759346 
L 333.556355 236.759346 
L 333.556355 245.894219 
L 336.802918 245.894219 
L 336.802918 240.234823 
L 340.049454 240.234823 
L 340.049454 266.030875 
L 343.295991 266.030875 
L 343.295991 266.277448 
L 346.542554 266.277448 
L 346.542554 282.956229 
L 349.789091 282.956229 
L 349.789091 281.746857 
L 353.035627 281.746857 
L 353.035627 284.823124 
L 356.282191 284.823124 
L 356.282191 283.965998 
L 359.528727 283.965998 
L 359.528727 293.00107 
L 362.775264 293.00107 
L 362.775264 294.768164 
L 366.021827 294.768164 
L 366.021827 298.12036 
L 369.268364 298.12036 
L 369.268364 302.805214 
L 372.5149 302.805214 
L 372.5149 305.934321 
L 375.761464 305.934321 
L 375.761464 302.118337 
L 379.008 302.118337 
L 379.008 305.805165 
L 382.254536 305.805165 
L 382.254536 304.255288 
L 385.5011 304.255288 
L 385.5011 306.914735 
L 388.747636 306.914735 
L 388.747636 306.621198 
L 391.994173 306.621198 
L 391.994173 307.584 
L 395.240736 307.584 
L 395.240736 306.826674 
L 398.487273 306.826674 
L 398.487273 307.584 
L 398.487273 307.584 
" style="fill:none;stroke:#9467bd;stroke-linejoin:miter;"/>
   </g>
   <g id="patch_8">
    <path clip-path="url(#p2cda527220)" d="M 73.832727 307.584 
L 398.487273 307.584 
L 398.487273 307.584 
" style="fill:none;stroke:#000000;stroke-linejoin:miter;"/>
   </g>
   <g id="matplotlib.axis_1">
    <g id="xtick_1">
     <g id="line2d_1">
      <defs>
       <path d="M 0 0 
L 0 3.5 
" id="m9b4b3dd882" style="stroke:#000000;stroke-width:0.8;"/>
      </defs>
      <g>
       <use style="stroke:#000000;stroke-width:0.8;" x="72.969313" xlink:href="#m9b4b3dd882" y="307.584"/>
      </g>
     </g>
     <g id="text_1">
      <!-- 0.00 -->
      <defs>
       <path d="M 31.78125 66.40625 
Q 24.171875 66.40625 20.328125 58.90625 
Q 16.5 51.421875 16.5 36.375 
Q 16.5 21.390625 20.328125 13.890625 
Q 24.171875 6.390625 31.78125 6.390625 
Q 39.453125 6.390625 43.28125 13.890625 
Q 47.125 21.390625 47.125 36.375 
Q 47.125 51.421875 43.28125 58.90625 
Q 39.453125 66.40625 31.78125 66.40625 
z
M 31.78125 74.21875 
Q 44.046875 74.21875 50.515625 64.515625 
Q 56.984375 54.828125 56.984375 36.375 
Q 56.984375 17.96875 50.515625 8.265625 
Q 44.046875 -1.421875 31.78125 -1.421875 
Q 19.53125 -1.421875 13.0625 8.265625 
Q 6.59375 17.96875 6.59375 36.375 
Q 6.59375 54.828125 13.0625 64.515625 
Q 19.53125 74.21875 31.78125 74.21875 
z
" id="DejaVuSans-48"/>
       <path d="M 10.6875 12.40625 
L 21 12.40625 
L 21 0 
L 10.6875 0 
z
" id="DejaVuSans-46"/>
      </defs>
      <g transform="translate(61.8365 322.182437)scale(0.1 -0.1)">
       <use xlink:href="#DejaVuSans-48"/>
       <use x="63.623047" xlink:href="#DejaVuSans-46"/>
       <use x="95.410156" xlink:href="#DejaVuSans-48"/>
       <use x="159.033203" xlink:href="#DejaVuSans-48"/>
      </g>
     </g>
    </g>
    <g id="xtick_2">
     <g id="line2d_2">
      <g>
       <use style="stroke:#000000;stroke-width:0.8;" x="118.365235" xlink:href="#m9b4b3dd882" y="307.584"/>
      </g>
     </g>
     <g id="text_2">
      <!-- 0.05 -->
      <defs>
       <path d="M 10.796875 72.90625 
L 49.515625 72.90625 
L 49.515625 64.59375 
L 19.828125 64.59375 
L 19.828125 46.734375 
Q 21.96875 47.46875 24.109375 47.828125 
Q 26.265625 48.1875 28.421875 48.1875 
Q 40.625 48.1875 47.75 41.5 
Q 54.890625 34.8125 54.890625 23.390625 
Q 54.890625 11.625 47.5625 5.09375 
Q 40.234375 -1.421875 26.90625 -1.421875 
Q 22.3125 -1.421875 17.546875 -0.640625 
Q 12.796875 0.140625 7.71875 1.703125 
L 7.71875 11.625 
Q 12.109375 9.234375 16.796875 8.0625 
Q 21.484375 6.890625 26.703125 6.890625 
Q 35.15625 6.890625 40.078125 11.328125 
Q 45.015625 15.765625 45.015625 23.390625 
Q 45.015625 31 40.078125 35.4375 
Q 35.15625 39.890625 26.703125 39.890625 
Q 22.75 39.890625 18.8125 39.015625 
Q 14.890625 38.140625 10.796875 36.28125 
z
" id="DejaVuSans-53"/>
      </defs>
      <g transform="translate(107.232422 322.182437)scale(0.1 -0.1)">
       <use xlink:href="#DejaVuSans-48"/>
       <use x="63.623047" xlink:href="#DejaVuSans-46"/>
       <use x="95.410156" xlink:href="#DejaVuSans-48"/>
       <use x="159.033203" xlink:href="#DejaVuSans-53"/>
      </g>
     </g>
    </g>
    <g id="xtick_3">
     <g id="line2d_3">
      <g>
       <use style="stroke:#000000;stroke-width:0.8;" x="163.761157" xlink:href="#m9b4b3dd882" y="307.584"/>
      </g>
     </g>
     <g id="text_3">
      <!-- 0.10 -->
      <defs>
       <path d="M 12.40625 8.296875 
L 28.515625 8.296875 
L 28.515625 63.921875 
L 10.984375 60.40625 
L 10.984375 69.390625 
L 28.421875 72.90625 
L 38.28125 72.90625 
L 38.28125 8.296875 
L 54.390625 8.296875 
L 54.390625 0 
L 12.40625 0 
z
" id="DejaVuSans-49"/>
      </defs>
      <g transform="translate(152.628344 322.182437)scale(0.1 -0.1)">
       <use xlink:href="#DejaVuSans-48"/>
       <use x="63.623047" xlink:href="#DejaVuSans-46"/>
       <use x="95.410156" xlink:href="#DejaVuSans-49"/>
       <use x="159.033203" xlink:href="#DejaVuSans-48"/>
      </g>
     </g>
    </g>
    <g id="xtick_4">
     <g id="line2d_4">
      <g>
       <use style="stroke:#000000;stroke-width:0.8;" x="209.157079" xlink:href="#m9b4b3dd882" y="307.584"/>
      </g>
     </g>
     <g id="text_4">
      <!-- 0.15 -->
      <g transform="translate(198.024266 322.182437)scale(0.1 -0.1)">
       <use xlink:href="#DejaVuSans-48"/>
       <use x="63.623047" xlink:href="#DejaVuSans-46"/>
       <use x="95.410156" xlink:href="#DejaVuSans-49"/>
       <use x="159.033203" xlink:href="#DejaVuSans-53"/>
      </g>
     </g>
    </g>
    <g id="xtick_5">
     <g id="line2d_5">
      <g>
       <use style="stroke:#000000;stroke-width:0.8;" x="254.553001" xlink:href="#m9b4b3dd882" y="307.584"/>
      </g>
     </g>
     <g id="text_5">
      <!-- 0.20 -->
      <defs>
       <path d="M 19.1875 8.296875 
L 53.609375 8.296875 
L 53.609375 0 
L 7.328125 0 
L 7.328125 8.296875 
Q 12.9375 14.109375 22.625 23.890625 
Q 32.328125 33.6875 34.8125 36.53125 
Q 39.546875 41.84375 41.421875 45.53125 
Q 43.3125 49.21875 43.3125 52.78125 
Q 43.3125 58.59375 39.234375 62.25 
Q 35.15625 65.921875 28.609375 65.921875 
Q 23.96875 65.921875 18.8125 64.3125 
Q 13.671875 62.703125 7.8125 59.421875 
L 7.8125 69.390625 
Q 13.765625 71.78125 18.9375 73 
Q 24.125 74.21875 28.421875 74.21875 
Q 39.75 74.21875 46.484375 68.546875 
Q 53.21875 62.890625 53.21875 53.421875 
Q 53.21875 48.921875 51.53125 44.890625 
Q 49.859375 40.875 45.40625 35.40625 
Q 44.1875 33.984375 37.640625 27.21875 
Q 31.109375 20.453125 19.1875 8.296875 
z
" id="DejaVuSans-50"/>
      </defs>
      <g transform="translate(243.420188 322.182437)scale(0.1 -0.1)">
       <use xlink:href="#DejaVuSans-48"/>
       <use x="63.623047" xlink:href="#DejaVuSans-46"/>
       <use x="95.410156" xlink:href="#DejaVuSans-50"/>
       <use x="159.033203" xlink:href="#DejaVuSans-48"/>
      </g>
     </g>
    </g>
    <g id="xtick_6">
     <g id="line2d_6">
      <g>
       <use style="stroke:#000000;stroke-width:0.8;" x="299.948923" xlink:href="#m9b4b3dd882" y="307.584"/>
      </g>
     </g>
     <g id="text_6">
      <!-- 0.25 -->
      <g transform="translate(288.81611 322.182437)scale(0.1 -0.1)">
       <use xlink:href="#DejaVuSans-48"/>
       <use x="63.623047" xlink:href="#DejaVuSans-46"/>
       <use x="95.410156" xlink:href="#DejaVuSans-50"/>
       <use x="159.033203" xlink:href="#DejaVuSans-53"/>
      </g>
     </g>
    </g>
    <g id="xtick_7">
     <g id="line2d_7">
      <g>
       <use style="stroke:#000000;stroke-width:0.8;" x="345.344845" xlink:href="#m9b4b3dd882" y="307.584"/>
      </g>
     </g>
     <g id="text_7">
      <!-- 0.30 -->
      <defs>
       <path d="M 40.578125 39.3125 
Q 47.65625 37.796875 51.625 33 
Q 55.609375 28.21875 55.609375 21.1875 
Q 55.609375 10.40625 48.1875 4.484375 
Q 40.765625 -1.421875 27.09375 -1.421875 
Q 22.515625 -1.421875 17.65625 -0.515625 
Q 12.796875 0.390625 7.625 2.203125 
L 7.625 11.71875 
Q 11.71875 9.328125 16.59375 8.109375 
Q 21.484375 6.890625 26.8125 6.890625 
Q 36.078125 6.890625 40.9375 10.546875 
Q 45.796875 14.203125 45.796875 21.1875 
Q 45.796875 27.640625 41.28125 31.265625 
Q 36.765625 34.90625 28.71875 34.90625 
L 20.21875 34.90625 
L 20.21875 43.015625 
L 29.109375 43.015625 
Q 36.375 43.015625 40.234375 45.921875 
Q 44.09375 48.828125 44.09375 54.296875 
Q 44.09375 59.90625 40.109375 62.90625 
Q 36.140625 65.921875 28.71875 65.921875 
Q 24.65625 65.921875 20.015625 65.03125 
Q 15.375 64.15625 9.8125 62.3125 
L 9.8125 71.09375 
Q 15.4375 72.65625 20.34375 73.4375 
Q 25.25 74.21875 29.59375 74.21875 
Q 40.828125 74.21875 47.359375 69.109375 
Q 53.90625 64.015625 53.90625 55.328125 
Q 53.90625 49.265625 50.4375 45.09375 
Q 46.96875 40.921875 40.578125 39.3125 
z
" id="DejaVuSans-51"/>
      </defs>
      <g transform="translate(334.212032 322.182437)scale(0.1 -0.1)">
       <use xlink:href="#DejaVuSans-48"/>
       <use x="63.623047" xlink:href="#DejaVuSans-46"/>
       <use x="95.410156" xlink:href="#DejaVuSans-51"/>
       <use x="159.033203" xlink:href="#DejaVuSans-48"/>
      </g>
     </g>
    </g>
    <g id="xtick_8">
     <g id="line2d_8">
      <g>
       <use style="stroke:#000000;stroke-width:0.8;" x="390.740767" xlink:href="#m9b4b3dd882" y="307.584"/>
      </g>
     </g>
     <g id="text_8">
      <!-- 0.35 -->
      <g transform="translate(379.607954 322.182437)scale(0.1 -0.1)">
       <use xlink:href="#DejaVuSans-48"/>
       <use x="63.623047" xlink:href="#DejaVuSans-46"/>
       <use x="95.410156" xlink:href="#DejaVuSans-51"/>
       <use x="159.033203" xlink:href="#DejaVuSans-53"/>
      </g>
     </g>
    </g>
    <g id="text_9">
     <!-- j_d2_a1_b2_mmdt -->
     <defs>
      <path d="M 9.421875 54.6875 
L 18.40625 54.6875 
L 18.40625 -0.984375 
Q 18.40625 -11.421875 14.421875 -16.109375 
Q 10.453125 -20.796875 1.609375 -20.796875 
L -1.8125 -20.796875 
L -1.8125 -13.1875 
L 0.59375 -13.1875 
Q 5.71875 -13.1875 7.5625 -10.8125 
Q 9.421875 -8.453125 9.421875 -0.984375 
z
M 9.421875 75.984375 
L 18.40625 75.984375 
L 18.40625 64.59375 
L 9.421875 64.59375 
z
" id="DejaVuSans-106"/>
      <path d="M 50.984375 -16.609375 
L 50.984375 -23.578125 
L -0.984375 -23.578125 
L -0.984375 -16.609375 
z
" id="DejaVuSans-95"/>
      <path d="M 45.40625 46.390625 
L 45.40625 75.984375 
L 54.390625 75.984375 
L 54.390625 0 
L 45.40625 0 
L 45.40625 8.203125 
Q 42.578125 3.328125 38.25 0.953125 
Q 33.9375 -1.421875 27.875 -1.421875 
Q 17.96875 -1.421875 11.734375 6.484375 
Q 5.515625 14.40625 5.515625 27.296875 
Q 5.515625 40.1875 11.734375 48.09375 
Q 17.96875 56 27.875 56 
Q 33.9375 56 38.25 53.625 
Q 42.578125 51.265625 45.40625 46.390625 
z
M 14.796875 27.296875 
Q 14.796875 17.390625 18.875 11.75 
Q 22.953125 6.109375 30.078125 6.109375 
Q 37.203125 6.109375 41.296875 11.75 
Q 45.40625 17.390625 45.40625 27.296875 
Q 45.40625 37.203125 41.296875 42.84375 
Q 37.203125 48.484375 30.078125 48.484375 
Q 22.953125 48.484375 18.875 42.84375 
Q 14.796875 37.203125 14.796875 27.296875 
z
" id="DejaVuSans-100"/>
      <path d="M 34.28125 27.484375 
Q 23.390625 27.484375 19.1875 25 
Q 14.984375 22.515625 14.984375 16.5 
Q 14.984375 11.71875 18.140625 8.90625 
Q 21.296875 6.109375 26.703125 6.109375 
Q 34.1875 6.109375 38.703125 11.40625 
Q 43.21875 16.703125 43.21875 25.484375 
L 43.21875 27.484375 
z
M 52.203125 31.203125 
L 52.203125 0 
L 43.21875 0 
L 43.21875 8.296875 
Q 40.140625 3.328125 35.546875 0.953125 
Q 30.953125 -1.421875 24.3125 -1.421875 
Q 15.921875 -1.421875 10.953125 3.296875 
Q 6 8.015625 6 15.921875 
Q 6 25.140625 12.171875 29.828125 
Q 18.359375 34.515625 30.609375 34.515625 
L 43.21875 34.515625 
L 43.21875 35.40625 
Q 43.21875 41.609375 39.140625 45 
Q 35.0625 48.390625 27.6875 48.390625 
Q 23 48.390625 18.546875 47.265625 
Q 14.109375 46.140625 10.015625 43.890625 
L 10.015625 52.203125 
Q 14.9375 54.109375 19.578125 55.046875 
Q 24.21875 56 28.609375 56 
Q 40.484375 56 46.34375 49.84375 
Q 52.203125 43.703125 52.203125 31.203125 
z
" id="DejaVuSans-97"/>
      <path d="M 48.6875 27.296875 
Q 48.6875 37.203125 44.609375 42.84375 
Q 40.53125 48.484375 33.40625 48.484375 
Q 26.265625 48.484375 22.1875 42.84375 
Q 18.109375 37.203125 18.109375 27.296875 
Q 18.109375 17.390625 22.1875 11.75 
Q 26.265625 6.109375 33.40625 6.109375 
Q 40.53125 6.109375 44.609375 11.75 
Q 48.6875 17.390625 48.6875 27.296875 
z
M 18.109375 46.390625 
Q 20.953125 51.265625 25.265625 53.625 
Q 29.59375 56 35.59375 56 
Q 45.5625 56 51.78125 48.09375 
Q 58.015625 40.1875 58.015625 27.296875 
Q 58.015625 14.40625 51.78125 6.484375 
Q 45.5625 -1.421875 35.59375 -1.421875 
Q 29.59375 -1.421875 25.265625 0.953125 
Q 20.953125 3.328125 18.109375 8.203125 
L 18.109375 0 
L 9.078125 0 
L 9.078125 75.984375 
L 18.109375 75.984375 
z
" id="DejaVuSans-98"/>
      <path d="M 52 44.1875 
Q 55.375 50.25 60.0625 53.125 
Q 64.75 56 71.09375 56 
Q 79.640625 56 84.28125 50.015625 
Q 88.921875 44.046875 88.921875 33.015625 
L 88.921875 0 
L 79.890625 0 
L 79.890625 32.71875 
Q 79.890625 40.578125 77.09375 44.375 
Q 74.3125 48.1875 68.609375 48.1875 
Q 61.625 48.1875 57.5625 43.546875 
Q 53.515625 38.921875 53.515625 30.90625 
L 53.515625 0 
L 44.484375 0 
L 44.484375 32.71875 
Q 44.484375 40.625 41.703125 44.40625 
Q 38.921875 48.1875 33.109375 48.1875 
Q 26.21875 48.1875 22.15625 43.53125 
Q 18.109375 38.875 18.109375 30.90625 
L 18.109375 0 
L 9.078125 0 
L 9.078125 54.6875 
L 18.109375 54.6875 
L 18.109375 46.1875 
Q 21.1875 51.21875 25.484375 53.609375 
Q 29.78125 56 35.6875 56 
Q 41.65625 56 45.828125 52.96875 
Q 50 49.953125 52 44.1875 
z
" id="DejaVuSans-109"/>
      <path d="M 18.3125 70.21875 
L 18.3125 54.6875 
L 36.8125 54.6875 
L 36.8125 47.703125 
L 18.3125 47.703125 
L 18.3125 18.015625 
Q 18.3125 11.328125 20.140625 9.421875 
Q 21.96875 7.515625 27.59375 7.515625 
L 36.8125 7.515625 
L 36.8125 0 
L 27.59375 0 
Q 17.1875 0 13.234375 3.875 
Q 9.28125 7.765625 9.28125 18.015625 
L 9.28125 47.703125 
L 2.6875 47.703125 
L 2.6875 54.6875 
L 9.28125 54.6875 
L 9.28125 70.21875 
z
" id="DejaVuSans-116"/>
     </defs>
     <g transform="translate(190.939687 335.860562)scale(0.1 -0.1)">
      <use xlink:href="#DejaVuSans-106"/>
      <use x="27.783203" xlink:href="#DejaVuSans-95"/>
      <use x="77.783203" xlink:href="#DejaVuSans-100"/>
      <use x="141.259766" xlink:href="#DejaVuSans-50"/>
      <use x="204.882812" xlink:href="#DejaVuSans-95"/>
      <use x="254.882812" xlink:href="#DejaVuSans-97"/>
      <use x="316.162109" xlink:href="#DejaVuSans-49"/>
      <use x="379.785156" xlink:href="#DejaVuSans-95"/>
      <use x="429.785156" xlink:href="#DejaVuSans-98"/>
      <use x="493.261719" xlink:href="#DejaVuSans-50"/>
      <use x="556.884766" xlink:href="#DejaVuSans-95"/>
      <use x="606.884766" xlink:href="#DejaVuSans-109"/>
      <use x="704.296875" xlink:href="#DejaVuSans-109"/>
      <use x="801.708984" xlink:href="#DejaVuSans-100"/>
      <use x="865.185547" xlink:href="#DejaVuSans-116"/>
     </g>
    </g>
   </g>
   <g id="matplotlib.axis_2">
    <g id="ytick_1">
     <g id="line2d_9">
      <defs>
       <path d="M 0 0 
L -3.5 0 
" id="mc63b0ab193" style="stroke:#000000;stroke-width:0.8;"/>
      </defs>
      <g>
       <use style="stroke:#000000;stroke-width:0.8;" x="57.6" xlink:href="#mc63b0ab193" y="307.584"/>
      </g>
     </g>
     <g id="text_10">
      <!-- 0.000 -->
      <g transform="translate(21.971875 311.383219)scale(0.1 -0.1)">
       <use xlink:href="#DejaVuSans-48"/>
       <use x="63.623047" xlink:href="#DejaVuSans-46"/>
       <use x="95.410156" xlink:href="#DejaVuSans-48"/>
       <use x="159.033203" xlink:href="#DejaVuSans-48"/>
       <use x="222.65625" xlink:href="#DejaVuSans-48"/>
      </g>
     </g>
    </g>
    <g id="ytick_2">
     <g id="line2d_10">
      <g>
       <use style="stroke:#000000;stroke-width:0.8;" x="57.6" xlink:href="#mc63b0ab193" y="277.526327"/>
      </g>
     </g>
     <g id="text_11">
      <!-- 0.001 -->
      <g transform="translate(21.971875 281.325546)scale(0.1 -0.1)">
       <use xlink:href="#DejaVuSans-48"/>
       <use x="63.623047" xlink:href="#DejaVuSans-46"/>
       <use x="95.410156" xlink:href="#DejaVuSans-48"/>
       <use x="159.033203" xlink:href="#DejaVuSans-48"/>
       <use x="222.65625" xlink:href="#DejaVuSans-49"/>
      </g>
     </g>
    </g>
    <g id="ytick_3">
     <g id="line2d_11">
      <g>
       <use style="stroke:#000000;stroke-width:0.8;" x="57.6" xlink:href="#mc63b0ab193" y="247.468654"/>
      </g>
     </g>
     <g id="text_12">
      <!-- 0.002 -->
      <g transform="translate(21.971875 251.267872)scale(0.1 -0.1)">
       <use xlink:href="#DejaVuSans-48"/>
       <use x="63.623047" xlink:href="#DejaVuSans-46"/>
       <use x="95.410156" xlink:href="#DejaVuSans-48"/>
       <use x="159.033203" xlink:href="#DejaVuSans-48"/>
       <use x="222.65625" xlink:href="#DejaVuSans-50"/>
      </g>
     </g>
    </g>
    <g id="ytick_4">
     <g id="line2d_12">
      <g>
       <use style="stroke:#000000;stroke-width:0.8;" x="57.6" xlink:href="#mc63b0ab193" y="217.41098"/>
      </g>
     </g>
     <g id="text_13">
      <!-- 0.003 -->
      <g transform="translate(21.971875 221.210199)scale(0.1 -0.1)">
       <use xlink:href="#DejaVuSans-48"/>
       <use x="63.623047" xlink:href="#DejaVuSans-46"/>
       <use x="95.410156" xlink:href="#DejaVuSans-48"/>
       <use x="159.033203" xlink:href="#DejaVuSans-48"/>
       <use x="222.65625" xlink:href="#DejaVuSans-51"/>
      </g>
     </g>
    </g>
    <g id="ytick_5">
     <g id="line2d_13">
      <g>
       <use style="stroke:#000000;stroke-width:0.8;" x="57.6" xlink:href="#mc63b0ab193" y="187.353307"/>
      </g>
     </g>
     <g id="text_14">
      <!-- 0.004 -->
      <defs>
       <path d="M 37.796875 64.3125 
L 12.890625 25.390625 
L 37.796875 25.390625 
z
M 35.203125 72.90625 
L 47.609375 72.90625 
L 47.609375 25.390625 
L 58.015625 25.390625 
L 58.015625 17.1875 
L 47.609375 17.1875 
L 47.609375 0 
L 37.796875 0 
L 37.796875 17.1875 
L 4.890625 17.1875 
L 4.890625 26.703125 
z
" id="DejaVuSans-52"/>
      </defs>
      <g transform="translate(21.971875 191.152526)scale(0.1 -0.1)">
       <use xlink:href="#DejaVuSans-48"/>
       <use x="63.623047" xlink:href="#DejaVuSans-46"/>
       <use x="95.410156" xlink:href="#DejaVuSans-48"/>
       <use x="159.033203" xlink:href="#DejaVuSans-48"/>
       <use x="222.65625" xlink:href="#DejaVuSans-52"/>
      </g>
     </g>
    </g>
    <g id="ytick_6">
     <g id="line2d_14">
      <g>
       <use style="stroke:#000000;stroke-width:0.8;" x="57.6" xlink:href="#mc63b0ab193" y="157.295634"/>
      </g>
     </g>
     <g id="text_15">
      <!-- 0.005 -->
      <g transform="translate(21.971875 161.094853)scale(0.1 -0.1)">
       <use xlink:href="#DejaVuSans-48"/>
       <use x="63.623047" xlink:href="#DejaVuSans-46"/>
       <use x="95.410156" xlink:href="#DejaVuSans-48"/>
       <use x="159.033203" xlink:href="#DejaVuSans-48"/>
       <use x="222.65625" xlink:href="#DejaVuSans-53"/>
      </g>
     </g>
    </g>
    <g id="ytick_7">
     <g id="line2d_15">
      <g>
       <use style="stroke:#000000;stroke-width:0.8;" x="57.6" xlink:href="#mc63b0ab193" y="127.237961"/>
      </g>
     </g>
     <g id="text_16">
      <!-- 0.006 -->
      <defs>
       <path d="M 33.015625 40.375 
Q 26.375 40.375 22.484375 35.828125 
Q 18.609375 31.296875 18.609375 23.390625 
Q 18.609375 15.53125 22.484375 10.953125 
Q 26.375 6.390625 33.015625 6.390625 
Q 39.65625 6.390625 43.53125 10.953125 
Q 47.40625 15.53125 47.40625 23.390625 
Q 47.40625 31.296875 43.53125 35.828125 
Q 39.65625 40.375 33.015625 40.375 
z
M 52.59375 71.296875 
L 52.59375 62.3125 
Q 48.875 64.0625 45.09375 64.984375 
Q 41.3125 65.921875 37.59375 65.921875 
Q 27.828125 65.921875 22.671875 59.328125 
Q 17.53125 52.734375 16.796875 39.40625 
Q 19.671875 43.65625 24.015625 45.921875 
Q 28.375 48.1875 33.59375 48.1875 
Q 44.578125 48.1875 50.953125 41.515625 
Q 57.328125 34.859375 57.328125 23.390625 
Q 57.328125 12.15625 50.6875 5.359375 
Q 44.046875 -1.421875 33.015625 -1.421875 
Q 20.359375 -1.421875 13.671875 8.265625 
Q 6.984375 17.96875 6.984375 36.375 
Q 6.984375 53.65625 15.1875 63.9375 
Q 23.390625 74.21875 37.203125 74.21875 
Q 40.921875 74.21875 44.703125 73.484375 
Q 48.484375 72.75 52.59375 71.296875 
z
" id="DejaVuSans-54"/>
      </defs>
      <g transform="translate(21.971875 131.03718)scale(0.1 -0.1)">
       <use xlink:href="#DejaVuSans-48"/>
       <use x="63.623047" xlink:href="#DejaVuSans-46"/>
       <use x="95.410156" xlink:href="#DejaVuSans-48"/>
       <use x="159.033203" xlink:href="#DejaVuSans-48"/>
       <use x="222.65625" xlink:href="#DejaVuSans-54"/>
      </g>
     </g>
    </g>
    <g id="ytick_8">
     <g id="line2d_16">
      <g>
       <use style="stroke:#000000;stroke-width:0.8;" x="57.6" xlink:href="#mc63b0ab193" y="97.180288"/>
      </g>
     </g>
     <g id="text_17">
      <!-- 0.007 -->
      <defs>
       <path d="M 8.203125 72.90625 
L 55.078125 72.90625 
L 55.078125 68.703125 
L 28.609375 0 
L 18.3125 0 
L 43.21875 64.59375 
L 8.203125 64.59375 
z
" id="DejaVuSans-55"/>
      </defs>
      <g transform="translate(21.971875 100.979507)scale(0.1 -0.1)">
       <use xlink:href="#DejaVuSans-48"/>
       <use x="63.623047" xlink:href="#DejaVuSans-46"/>
       <use x="95.410156" xlink:href="#DejaVuSans-48"/>
       <use x="159.033203" xlink:href="#DejaVuSans-48"/>
       <use x="222.65625" xlink:href="#DejaVuSans-55"/>
      </g>
     </g>
    </g>
    <g id="ytick_9">
     <g id="line2d_17">
      <g>
       <use style="stroke:#000000;stroke-width:0.8;" x="57.6" xlink:href="#mc63b0ab193" y="67.122615"/>
      </g>
     </g>
     <g id="text_18">
      <!-- 0.008 -->
      <defs>
       <path d="M 31.78125 34.625 
Q 24.75 34.625 20.71875 30.859375 
Q 16.703125 27.09375 16.703125 20.515625 
Q 16.703125 13.921875 20.71875 10.15625 
Q 24.75 6.390625 31.78125 6.390625 
Q 38.8125 6.390625 42.859375 10.171875 
Q 46.921875 13.96875 46.921875 20.515625 
Q 46.921875 27.09375 42.890625 30.859375 
Q 38.875 34.625 31.78125 34.625 
z
M 21.921875 38.8125 
Q 15.578125 40.375 12.03125 44.71875 
Q 8.5 49.078125 8.5 55.328125 
Q 8.5 64.0625 14.71875 69.140625 
Q 20.953125 74.21875 31.78125 74.21875 
Q 42.671875 74.21875 48.875 69.140625 
Q 55.078125 64.0625 55.078125 55.328125 
Q 55.078125 49.078125 51.53125 44.71875 
Q 48 40.375 41.703125 38.8125 
Q 48.828125 37.15625 52.796875 32.3125 
Q 56.78125 27.484375 56.78125 20.515625 
Q 56.78125 9.90625 50.3125 4.234375 
Q 43.84375 -1.421875 31.78125 -1.421875 
Q 19.734375 -1.421875 13.25 4.234375 
Q 6.78125 9.90625 6.78125 20.515625 
Q 6.78125 27.484375 10.78125 32.3125 
Q 14.796875 37.15625 21.921875 38.8125 
z
M 18.3125 54.390625 
Q 18.3125 48.734375 21.84375 45.5625 
Q 25.390625 42.390625 31.78125 42.390625 
Q 38.140625 42.390625 41.71875 45.5625 
Q 45.3125 48.734375 45.3125 54.390625 
Q 45.3125 60.0625 41.71875 63.234375 
Q 38.140625 66.40625 31.78125 66.40625 
Q 25.390625 66.40625 21.84375 63.234375 
Q 18.3125 60.0625 18.3125 54.390625 
z
" id="DejaVuSans-56"/>
      </defs>
      <g transform="translate(21.971875 70.921833)scale(0.1 -0.1)">
       <use xlink:href="#DejaVuSans-48"/>
       <use x="63.623047" xlink:href="#DejaVuSans-46"/>
       <use x="95.410156" xlink:href="#DejaVuSans-48"/>
       <use x="159.033203" xlink:href="#DejaVuSans-48"/>
       <use x="222.65625" xlink:href="#DejaVuSans-56"/>
      </g>
     </g>
    </g>
    <g id="text_19">
     <!-- Prob. Density (a.u.) -->
     <defs>
      <path d="M 19.671875 64.796875 
L 19.671875 37.40625 
L 32.078125 37.40625 
Q 38.96875 37.40625 42.71875 40.96875 
Q 46.484375 44.53125 46.484375 51.125 
Q 46.484375 57.671875 42.71875 61.234375 
Q 38.96875 64.796875 32.078125 64.796875 
z
M 9.8125 72.90625 
L 32.078125 72.90625 
Q 44.34375 72.90625 50.609375 67.359375 
Q 56.890625 61.8125 56.890625 51.125 
Q 56.890625 40.328125 50.609375 34.8125 
Q 44.34375 29.296875 32.078125 29.296875 
L 19.671875 29.296875 
L 19.671875 0 
L 9.8125 0 
z
" id="DejaVuSans-80"/>
      <path d="M 41.109375 46.296875 
Q 39.59375 47.171875 37.8125 47.578125 
Q 36.03125 48 33.890625 48 
Q 26.265625 48 22.1875 43.046875 
Q 18.109375 38.09375 18.109375 28.8125 
L 18.109375 0 
L 9.078125 0 
L 9.078125 54.6875 
L 18.109375 54.6875 
L 18.109375 46.1875 
Q 20.953125 51.171875 25.484375 53.578125 
Q 30.03125 56 36.53125 56 
Q 37.453125 56 38.578125 55.875 
Q 39.703125 55.765625 41.0625 55.515625 
z
" id="DejaVuSans-114"/>
      <path d="M 30.609375 48.390625 
Q 23.390625 48.390625 19.1875 42.75 
Q 14.984375 37.109375 14.984375 27.296875 
Q 14.984375 17.484375 19.15625 11.84375 
Q 23.34375 6.203125 30.609375 6.203125 
Q 37.796875 6.203125 41.984375 11.859375 
Q 46.1875 17.53125 46.1875 27.296875 
Q 46.1875 37.015625 41.984375 42.703125 
Q 37.796875 48.390625 30.609375 48.390625 
z
M 30.609375 56 
Q 42.328125 56 49.015625 48.375 
Q 55.71875 40.765625 55.71875 27.296875 
Q 55.71875 13.875 49.015625 6.21875 
Q 42.328125 -1.421875 30.609375 -1.421875 
Q 18.84375 -1.421875 12.171875 6.21875 
Q 5.515625 13.875 5.515625 27.296875 
Q 5.515625 40.765625 12.171875 48.375 
Q 18.84375 56 30.609375 56 
z
" id="DejaVuSans-111"/>
      <path id="DejaVuSans-32"/>
      <path d="M 19.671875 64.796875 
L 19.671875 8.109375 
L 31.59375 8.109375 
Q 46.6875 8.109375 53.6875 14.9375 
Q 60.6875 21.78125 60.6875 36.53125 
Q 60.6875 51.171875 53.6875 57.984375 
Q 46.6875 64.796875 31.59375 64.796875 
z
M 9.8125 72.90625 
L 30.078125 72.90625 
Q 51.265625 72.90625 61.171875 64.09375 
Q 71.09375 55.28125 71.09375 36.53125 
Q 71.09375 17.671875 61.125 8.828125 
Q 51.171875 0 30.078125 0 
L 9.8125 0 
z
" id="DejaVuSans-68"/>
      <path d="M 56.203125 29.59375 
L 56.203125 25.203125 
L 14.890625 25.203125 
Q 15.484375 15.921875 20.484375 11.0625 
Q 25.484375 6.203125 34.421875 6.203125 
Q 39.59375 6.203125 44.453125 7.46875 
Q 49.3125 8.734375 54.109375 11.28125 
L 54.109375 2.78125 
Q 49.265625 0.734375 44.1875 -0.34375 
Q 39.109375 -1.421875 33.890625 -1.421875 
Q 20.796875 -1.421875 13.15625 6.1875 
Q 5.515625 13.8125 5.515625 26.8125 
Q 5.515625 40.234375 12.765625 48.109375 
Q 20.015625 56 32.328125 56 
Q 43.359375 56 49.78125 48.890625 
Q 56.203125 41.796875 56.203125 29.59375 
z
M 47.21875 32.234375 
Q 47.125 39.59375 43.09375 43.984375 
Q 39.0625 48.390625 32.421875 48.390625 
Q 24.90625 48.390625 20.390625 44.140625 
Q 15.875 39.890625 15.1875 32.171875 
z
" id="DejaVuSans-101"/>
      <path d="M 54.890625 33.015625 
L 54.890625 0 
L 45.90625 0 
L 45.90625 32.71875 
Q 45.90625 40.484375 42.875 44.328125 
Q 39.84375 48.1875 33.796875 48.1875 
Q 26.515625 48.1875 22.3125 43.546875 
Q 18.109375 38.921875 18.109375 30.90625 
L 18.109375 0 
L 9.078125 0 
L 9.078125 54.6875 
L 18.109375 54.6875 
L 18.109375 46.1875 
Q 21.34375 51.125 25.703125 53.5625 
Q 30.078125 56 35.796875 56 
Q 45.21875 56 50.046875 50.171875 
Q 54.890625 44.34375 54.890625 33.015625 
z
" id="DejaVuSans-110"/>
      <path d="M 44.28125 53.078125 
L 44.28125 44.578125 
Q 40.484375 46.53125 36.375 47.5 
Q 32.28125 48.484375 27.875 48.484375 
Q 21.1875 48.484375 17.84375 46.4375 
Q 14.5 44.390625 14.5 40.28125 
Q 14.5 37.15625 16.890625 35.375 
Q 19.28125 33.59375 26.515625 31.984375 
L 29.59375 31.296875 
Q 39.15625 29.25 43.1875 25.515625 
Q 47.21875 21.78125 47.21875 15.09375 
Q 47.21875 7.46875 41.1875 3.015625 
Q 35.15625 -1.421875 24.609375 -1.421875 
Q 20.21875 -1.421875 15.453125 -0.5625 
Q 10.6875 0.296875 5.421875 2 
L 5.421875 11.28125 
Q 10.40625 8.6875 15.234375 7.390625 
Q 20.0625 6.109375 24.8125 6.109375 
Q 31.15625 6.109375 34.5625 8.28125 
Q 37.984375 10.453125 37.984375 14.40625 
Q 37.984375 18.0625 35.515625 20.015625 
Q 33.0625 21.96875 24.703125 23.78125 
L 21.578125 24.515625 
Q 13.234375 26.265625 9.515625 29.90625 
Q 5.8125 33.546875 5.8125 39.890625 
Q 5.8125 47.609375 11.28125 51.796875 
Q 16.75 56 26.8125 56 
Q 31.78125 56 36.171875 55.265625 
Q 40.578125 54.546875 44.28125 53.078125 
z
" id="DejaVuSans-115"/>
      <path d="M 9.421875 54.6875 
L 18.40625 54.6875 
L 18.40625 0 
L 9.421875 0 
z
M 9.421875 75.984375 
L 18.40625 75.984375 
L 18.40625 64.59375 
L 9.421875 64.59375 
z
" id="DejaVuSans-105"/>
      <path d="M 32.171875 -5.078125 
Q 28.375 -14.84375 24.75 -17.8125 
Q 21.140625 -20.796875 15.09375 -20.796875 
L 7.90625 -20.796875 
L 7.90625 -13.28125 
L 13.1875 -13.28125 
Q 16.890625 -13.28125 18.9375 -11.515625 
Q 21 -9.765625 23.484375 -3.21875 
L 25.09375 0.875 
L 2.984375 54.6875 
L 12.5 54.6875 
L 29.59375 11.921875 
L 46.6875 54.6875 
L 56.203125 54.6875 
z
" id="DejaVuSans-121"/>
      <path d="M 31 75.875 
Q 24.46875 64.65625 21.28125 53.65625 
Q 18.109375 42.671875 18.109375 31.390625 
Q 18.109375 20.125 21.3125 9.0625 
Q 24.515625 -2 31 -13.1875 
L 23.1875 -13.1875 
Q 15.875 -1.703125 12.234375 9.375 
Q 8.59375 20.453125 8.59375 31.390625 
Q 8.59375 42.28125 12.203125 53.3125 
Q 15.828125 64.359375 23.1875 75.875 
z
" id="DejaVuSans-40"/>
      <path d="M 8.5 21.578125 
L 8.5 54.6875 
L 17.484375 54.6875 
L 17.484375 21.921875 
Q 17.484375 14.15625 20.5 10.265625 
Q 23.53125 6.390625 29.59375 6.390625 
Q 36.859375 6.390625 41.078125 11.03125 
Q 45.3125 15.671875 45.3125 23.6875 
L 45.3125 54.6875 
L 54.296875 54.6875 
L 54.296875 0 
L 45.3125 0 
L 45.3125 8.40625 
Q 42.046875 3.421875 37.71875 1 
Q 33.40625 -1.421875 27.6875 -1.421875 
Q 18.265625 -1.421875 13.375 4.4375 
Q 8.5 10.296875 8.5 21.578125 
z
M 31.109375 56 
z
" id="DejaVuSans-117"/>
      <path d="M 8.015625 75.875 
L 15.828125 75.875 
Q 23.140625 64.359375 26.78125 53.3125 
Q 30.421875 42.28125 30.421875 31.390625 
Q 30.421875 20.453125 26.78125 9.375 
Q 23.140625 -1.703125 15.828125 -13.1875 
L 8.015625 -13.1875 
Q 14.5 -2 17.703125 9.0625 
Q 20.90625 20.125 20.90625 31.390625 
Q 20.90625 42.671875 17.703125 53.65625 
Q 14.5 64.65625 8.015625 75.875 
z
" id="DejaVuSans-41"/>
     </defs>
     <g transform="translate(15.892187 222.917844)rotate(-90)scale(0.1 -0.1)">
      <use xlink:href="#DejaVuSans-80"/>
      <use x="60.287109" xlink:href="#DejaVuSans-114"/>
      <use x="101.369141" xlink:href="#DejaVuSans-111"/>
      <use x="162.550781" xlink:href="#DejaVuSans-98"/>
      <use x="226.027344" xlink:href="#DejaVuSans-46"/>
      <use x="257.814453" xlink:href="#DejaVuSans-32"/>
      <use x="289.601562" xlink:href="#DejaVuSans-68"/>
      <use x="366.603516" xlink:href="#DejaVuSans-101"/>
      <use x="428.126953" xlink:href="#DejaVuSans-110"/>
      <use x="491.505859" xlink:href="#DejaVuSans-115"/>
      <use x="543.605469" xlink:href="#DejaVuSans-105"/>
      <use x="571.388672" xlink:href="#DejaVuSans-116"/>
      <use x="610.597656" xlink:href="#DejaVuSans-121"/>
      <use x="669.777344" xlink:href="#DejaVuSans-32"/>
      <use x="701.564453" xlink:href="#DejaVuSans-40"/>
      <use x="740.578125" xlink:href="#DejaVuSans-97"/>
      <use x="801.857422" xlink:href="#DejaVuSans-46"/>
      <use x="833.644531" xlink:href="#DejaVuSans-117"/>
      <use x="897.023438" xlink:href="#DejaVuSans-46"/>
      <use x="928.810547" xlink:href="#DejaVuSans-41"/>
     </g>
    </g>
   </g>
   <g id="patch_9">
    <path d="M 57.6 307.584 
L 57.6 41.472 
" style="fill:none;stroke:#000000;stroke-linecap:square;stroke-linejoin:miter;stroke-width:0.8;"/>
   </g>
   <g id="patch_10">
    <path d="M 414.72 307.584 
L 414.72 41.472 
" style="fill:none;stroke:#000000;stroke-linecap:square;stroke-linejoin:miter;stroke-width:0.8;"/>
   </g>
   <g id="patch_11">
    <path d="M 57.6 307.584 
L 414.72 307.584 
" style="fill:none;stroke:#000000;stroke-linecap:square;stroke-linejoin:miter;stroke-width:0.8;"/>
   </g>
   <g id="patch_12">
    <path d="M 57.6 41.472 
L 414.72 41.472 
" style="fill:none;stroke:#000000;stroke-linecap:square;stroke-linejoin:miter;stroke-width:0.8;"/>
   </g>
   <g id="legend_1">
    <g id="patch_13">
     <path d="M 325.405938 137.54075 
L 407.72 137.54075 
Q 409.72 137.54075 409.72 135.54075 
L 409.72 48.472 
Q 409.72 46.472 407.72 46.472 
L 325.405938 46.472 
Q 323.405938 46.472 323.405938 48.472 
L 323.405938 135.54075 
Q 323.405938 137.54075 325.405938 137.54075 
z
" style="fill:#ffffff;opacity:0.8;stroke:#cccccc;stroke-linejoin:miter;"/>
    </g>
    <g id="patch_14">
     <path d="M 327.405938 58.070438 
L 347.405938 58.070438 
L 347.405938 51.070438 
L 327.405938 51.070438 
z
" style="fill:none;stroke:#1f77b4;stroke-linejoin:miter;"/>
    </g>
    <g id="text_20">
     <!-- quark -->
     <defs>
      <path d="M 14.796875 27.296875 
Q 14.796875 17.390625 18.875 11.75 
Q 22.953125 6.109375 30.078125 6.109375 
Q 37.203125 6.109375 41.296875 11.75 
Q 45.40625 17.390625 45.40625 27.296875 
Q 45.40625 37.203125 41.296875 42.84375 
Q 37.203125 48.484375 30.078125 48.484375 
Q 22.953125 48.484375 18.875 42.84375 
Q 14.796875 37.203125 14.796875 27.296875 
z
M 45.40625 8.203125 
Q 42.578125 3.328125 38.25 0.953125 
Q 33.9375 -1.421875 27.875 -1.421875 
Q 17.96875 -1.421875 11.734375 6.484375 
Q 5.515625 14.40625 5.515625 27.296875 
Q 5.515625 40.1875 11.734375 48.09375 
Q 17.96875 56 27.875 56 
Q 33.9375 56 38.25 53.625 
Q 42.578125 51.265625 45.40625 46.390625 
L 45.40625 54.6875 
L 54.390625 54.6875 
L 54.390625 -20.796875 
L 45.40625 -20.796875 
z
" id="DejaVuSans-113"/>
      <path d="M 9.078125 75.984375 
L 18.109375 75.984375 
L 18.109375 31.109375 
L 44.921875 54.6875 
L 56.390625 54.6875 
L 27.390625 29.109375 
L 57.625 0 
L 45.90625 0 
L 18.109375 26.703125 
L 18.109375 0 
L 9.078125 0 
z
" id="DejaVuSans-107"/>
     </defs>
     <g transform="translate(355.405938 58.070438)scale(0.1 -0.1)">
      <use xlink:href="#DejaVuSans-113"/>
      <use x="63.476562" xlink:href="#DejaVuSans-117"/>
      <use x="126.855469" xlink:href="#DejaVuSans-97"/>
      <use x="188.134766" xlink:href="#DejaVuSans-114"/>
      <use x="229.248047" xlink:href="#DejaVuSans-107"/>
     </g>
    </g>
    <g id="patch_15">
     <path d="M 327.405938 72.748563 
L 347.405938 72.748563 
L 347.405938 65.748563 
L 327.405938 65.748563 
z
" style="fill:none;stroke:#ff7f0e;stroke-linejoin:miter;"/>
    </g>
    <g id="text_21">
     <!-- gluon -->
     <defs>
      <path d="M 45.40625 27.984375 
Q 45.40625 37.75 41.375 43.109375 
Q 37.359375 48.484375 30.078125 48.484375 
Q 22.859375 48.484375 18.828125 43.109375 
Q 14.796875 37.75 14.796875 27.984375 
Q 14.796875 18.265625 18.828125 12.890625 
Q 22.859375 7.515625 30.078125 7.515625 
Q 37.359375 7.515625 41.375 12.890625 
Q 45.40625 18.265625 45.40625 27.984375 
z
M 54.390625 6.78125 
Q 54.390625 -7.171875 48.1875 -13.984375 
Q 42 -20.796875 29.203125 -20.796875 
Q 24.46875 -20.796875 20.265625 -20.09375 
Q 16.0625 -19.390625 12.109375 -17.921875 
L 12.109375 -9.1875 
Q 16.0625 -11.328125 19.921875 -12.34375 
Q 23.78125 -13.375 27.78125 -13.375 
Q 36.625 -13.375 41.015625 -8.765625 
Q 45.40625 -4.15625 45.40625 5.171875 
L 45.40625 9.625 
Q 42.625 4.78125 38.28125 2.390625 
Q 33.9375 0 27.875 0 
Q 17.828125 0 11.671875 7.65625 
Q 5.515625 15.328125 5.515625 27.984375 
Q 5.515625 40.671875 11.671875 48.328125 
Q 17.828125 56 27.875 56 
Q 33.9375 56 38.28125 53.609375 
Q 42.625 51.21875 45.40625 46.390625 
L 45.40625 54.6875 
L 54.390625 54.6875 
z
" id="DejaVuSans-103"/>
      <path d="M 9.421875 75.984375 
L 18.40625 75.984375 
L 18.40625 0 
L 9.421875 0 
z
" id="DejaVuSans-108"/>
     </defs>
     <g transform="translate(355.405938 72.748563)scale(0.1 -0.1)">
      <use xlink:href="#DejaVuSans-103"/>
      <use x="63.476562" xlink:href="#DejaVuSans-108"/>
      <use x="91.259766" xlink:href="#DejaVuSans-117"/>
      <use x="154.638672" xlink:href="#DejaVuSans-111"/>
      <use x="215.820312" xlink:href="#DejaVuSans-110"/>
     </g>
    </g>
    <g id="patch_16">
     <path d="M 327.405938 87.426688 
L 347.405938 87.426688 
L 347.405938 80.426688 
L 327.405938 80.426688 
z
" style="fill:none;stroke:#2ca02c;stroke-linejoin:miter;"/>
    </g>
    <g id="text_22">
     <!-- W -->
     <defs>
      <path d="M 3.328125 72.90625 
L 13.28125 72.90625 
L 28.609375 11.28125 
L 43.890625 72.90625 
L 54.984375 72.90625 
L 70.3125 11.28125 
L 85.59375 72.90625 
L 95.609375 72.90625 
L 77.296875 0 
L 64.890625 0 
L 49.515625 63.28125 
L 33.984375 0 
L 21.578125 0 
z
" id="DejaVuSans-87"/>
     </defs>
     <g transform="translate(355.405938 87.426688)scale(0.1 -0.1)">
      <use xlink:href="#DejaVuSans-87"/>
     </g>
    </g>
    <g id="patch_17">
     <path d="M 327.405938 102.104813 
L 347.405938 102.104813 
L 347.405938 95.104813 
L 327.405938 95.104813 
z
" style="fill:none;stroke:#d62728;stroke-linejoin:miter;"/>
    </g>
    <g id="text_23">
     <!-- Z -->
     <defs>
      <path d="M 5.609375 72.90625 
L 62.890625 72.90625 
L 62.890625 65.375 
L 16.796875 8.296875 
L 64.015625 8.296875 
L 64.015625 0 
L 4.5 0 
L 4.5 7.515625 
L 50.59375 64.59375 
L 5.609375 64.59375 
z
" id="DejaVuSans-90"/>
     </defs>
     <g transform="translate(355.405938 102.104813)scale(0.1 -0.1)">
      <use xlink:href="#DejaVuSans-90"/>
     </g>
    </g>
    <g id="patch_18">
     <path d="M 327.405938 116.782938 
L 347.405938 116.782938 
L 347.405938 109.782938 
L 327.405938 109.782938 
z
" style="fill:none;stroke:#9467bd;stroke-linejoin:miter;"/>
    </g>
    <g id="text_24">
     <!-- top -->
     <defs>
      <path d="M 18.109375 8.203125 
L 18.109375 -20.796875 
L 9.078125 -20.796875 
L 9.078125 54.6875 
L 18.109375 54.6875 
L 18.109375 46.390625 
Q 20.953125 51.265625 25.265625 53.625 
Q 29.59375 56 35.59375 56 
Q 45.5625 56 51.78125 48.09375 
Q 58.015625 40.1875 58.015625 27.296875 
Q 58.015625 14.40625 51.78125 6.484375 
Q 45.5625 -1.421875 35.59375 -1.421875 
Q 29.59375 -1.421875 25.265625 0.953125 
Q 20.953125 3.328125 18.109375 8.203125 
z
M 48.6875 27.296875 
Q 48.6875 37.203125 44.609375 42.84375 
Q 40.53125 48.484375 33.40625 48.484375 
Q 26.265625 48.484375 22.1875 42.84375 
Q 18.109375 37.203125 18.109375 27.296875 
Q 18.109375 17.390625 22.1875 11.75 
Q 26.265625 6.109375 33.40625 6.109375 
Q 40.53125 6.109375 44.609375 11.75 
Q 48.6875 17.390625 48.6875 27.296875 
z
" id="DejaVuSans-112"/>
     </defs>
     <g transform="translate(355.405938 116.782938)scale(0.1 -0.1)">
      <use xlink:href="#DejaVuSans-116"/>
      <use x="39.208984" xlink:href="#DejaVuSans-111"/>
      <use x="100.390625" xlink:href="#DejaVuSans-112"/>
     </g>
    </g>
    <g id="patch_19">
     <path d="M 327.405938 131.461063 
L 347.405938 131.461063 
L 347.405938 124.461063 
L 327.405938 124.461063 
z
" style="fill:none;stroke:#000000;stroke-linejoin:miter;"/>
    </g>
    <g id="text_25">
     <!-- undefined -->
     <defs>
      <path d="M 37.109375 75.984375 
L 37.109375 68.5 
L 28.515625 68.5 
Q 23.6875 68.5 21.796875 66.546875 
Q 19.921875 64.59375 19.921875 59.515625 
L 19.921875 54.6875 
L 34.71875 54.6875 
L 34.71875 47.703125 
L 19.921875 47.703125 
L 19.921875 0 
L 10.890625 0 
L 10.890625 47.703125 
L 2.296875 47.703125 
L 2.296875 54.6875 
L 10.890625 54.6875 
L 10.890625 58.5 
Q 10.890625 67.625 15.140625 71.796875 
Q 19.390625 75.984375 28.609375 75.984375 
z
" id="DejaVuSans-102"/>
     </defs>
     <g transform="translate(355.405938 131.461063)scale(0.1 -0.1)">
      <use xlink:href="#DejaVuSans-117"/>
      <use x="63.378906" xlink:href="#DejaVuSans-110"/>
      <use x="126.757812" xlink:href="#DejaVuSans-100"/>
      <use x="190.234375" xlink:href="#DejaVuSans-101"/>
      <use x="251.757812" xlink:href="#DejaVuSans-102"/>
      <use x="286.962891" xlink:href="#DejaVuSans-105"/>
      <use x="314.746094" xlink:href="#DejaVuSans-110"/>
      <use x="378.125" xlink:href="#DejaVuSans-101"/>
      <use x="439.648438" xlink:href="#DejaVuSans-100"/>
     </g>
    </g>
   </g>
  </g>
 </g>
 <defs>
  <clipPath id="p2cda527220">
   <rect height="266.112" width="357.12" x="57.6" y="41.472"/>
  </clipPath>
 </defs>
</svg>
