<?xml version="1.0" encoding="utf-8" standalone="no"?>
<!DOCTYPE svg PUBLIC "-//W3C//DTD SVG 1.1//EN"
  "http://www.w3.org/Graphics/SVG/1.1/DTD/svg11.dtd">
<!-- Created with matplotlib (https://matplotlib.org/) -->
<svg height="345.6pt" version="1.1" viewBox="0 0 460.8 345.6" width="460.8pt" xmlns="http://www.w3.org/2000/svg" xmlns:xlink="http://www.w3.org/1999/xlink">
 <defs>
  <style type="text/css">
*{stroke-linecap:butt;stroke-linejoin:round;}
  </style>
 </defs>
 <g id="figure_1">
  <g id="patch_1">
   <path d="M 0 345.6 
L 460.8 345.6 
L 460.8 0 
L 0 0 
z
" style="fill:#ffffff;"/>
  </g>
  <g id="axes_1">
   <g id="patch_2">
    <path d="M 57.6 307.584 
L 414.72 307.584 
L 414.72 41.472 
L 57.6 41.472 
z
" style="fill:#ffffff;"/>
   </g>
   <g id="patch_3">
    <path clip-path="url(#p2a2425b2ba)" d="M 73.832727 307.584 
L 73.832727 306.971987 
L 77.079273 306.971987 
L 77.079273 307.124197 
L 80.325818 307.124197 
L 80.325818 306.930763 
L 83.572364 306.930763 
L 83.572364 306.673908 
L 90.065455 306.585119 
L 90.065455 306.448763 
L 93.311999 306.448763 
L 93.311999 306.7405 
L 96.558545 306.7405 
L 96.558545 305.906513 
L 99.805091 305.906513 
L 99.805091 305.47525 
L 103.051636 305.47525 
L 103.051636 304.520763 
L 106.298182 304.520763 
L 106.298182 305.319869 
L 109.544728 305.319869 
L 109.544728 304.197316 
L 112.791273 304.197316 
L 112.791273 303.531396 
L 116.037817 303.531396 
L 116.037817 302.12979 
L 119.284365 302.12979 
L 119.284365 300.192278 
L 122.530908 300.192278 
L 122.530908 300.883566 
L 125.777456 300.883566 
L 125.777456 297.54762 
L 129.023999 297.54762 
L 129.023999 296.872185 
L 132.270548 296.872185 
L 132.270548 292.752989 
L 135.517091 292.752989 
L 135.517091 286.163541 
L 138.763639 286.163541 
L 138.763639 287.809319 
L 142.010182 287.809319 
L 142.010182 282.35511 
L 145.256725 282.35511 
L 145.256725 276.561596 
L 148.503273 276.561596 
L 148.503273 266.994533 
L 151.749817 266.994533 
L 151.749817 274.719215 
L 154.996365 274.719215 
L 154.996365 262.713618 
L 158.242908 262.713618 
L 158.242908 251.564195 
L 161.489456 251.564195 
L 161.489456 247.914313 
L 164.736004 247.914313 
L 164.736004 241.860774 
L 167.982542 241.860774 
L 167.982542 239.488831 
L 171.229091 239.488831 
L 171.229091 218.173021 
L 174.475639 218.173021 
L 174.475639 211.555026 
L 177.722177 211.555026 
L 177.722177 206.79211 
L 180.968725 206.79211 
L 180.968725 192.731661 
L 184.215273 192.731661 
L 184.215273 190.676817 
L 187.461822 190.676817 
L 187.461822 194.510617 
L 190.70836 194.510617 
L 190.70836 204.737259 
L 193.954908 204.737259 
L 193.954908 207.397777 
L 197.201456 207.397777 
L 197.201456 209.268695 
L 200.448004 209.268695 
L 200.448004 223.28475 
L 203.694542 223.28475 
L 203.694542 227.12806 
L 206.94109 227.12806 
L 206.94109 232.030507 
L 210.187639 232.030507 
L 210.187639 242.688416 
L 213.434177 242.688416 
L 213.434177 248.02213 
L 216.680725 248.02213 
L 216.680725 255.53435 
L 219.927273 255.53435 
L 219.927273 256.799599 
L 223.173821 256.799599 
L 223.173821 258.524649 
L 226.420359 258.524649 
L 226.420359 267.359202 
L 229.666908 267.359202 
L 229.666908 261.077347 
L 232.913456 261.077347 
L 232.913456 275.033147 
L 236.160004 275.033147 
L 236.160004 268.770317 
L 239.406542 268.770317 
L 239.406542 277.44632 
L 242.65309 277.44632 
L 242.65309 278.134436 
L 245.899628 278.134436 
L 245.899628 283.287399 
L 249.146177 283.287399 
L 249.146177 281.232556 
L 252.392725 281.232556 
L 252.392725 286.556753 
L 255.639273 286.556753 
L 255.639273 291.072331 
L 258.885821 291.072331 
L 258.885821 288.015437 
L 262.13237 288.015437 
L 262.13237 291.291134 
L 265.378918 291.291134 
L 265.378918 290.400069 
L 268.625446 290.400069 
L 268.625446 292.886172 
L 271.871994 292.886172 
L 271.871994 294.08166 
L 275.118542 294.08166 
L 275.118542 296.700949 
L 278.36509 296.700949 
L 278.36509 298.305502 
L 281.611639 298.305502 
L 281.611639 298.743107 
L 288.104735 298.695541 
L 288.104735 300.10983 
L 291.351263 300.10983 
L 291.351263 300.988212 
L 294.597811 300.988212 
L 294.597811 302.874987 
L 297.844359 302.874987 
L 297.844359 303.043053 
L 301.090908 303.043053 
L 301.090908 304.60004 
L 304.337456 304.60004 
L 304.337456 304.248053 
L 307.584004 304.248053 
L 307.584004 305.240592 
L 310.830552 305.240592 
L 310.830552 304.761763 
L 314.0771 304.761763 
L 314.0771 305.646487 
L 320.570176 305.751132 
L 320.570176 305.798698 
L 323.816725 305.798698 
L 323.816725 305.992132 
L 327.063273 305.992132 
L 327.063273 305.833579 
L 330.309821 305.833579 
L 330.309821 306.055553 
L 333.556369 306.055553 
L 333.556369 307.203474 
L 336.802918 307.203474 
L 336.802918 306.699277 
L 340.049445 306.699277 
L 340.049445 307.124197 
L 346.542542 307.19079 
L 346.542542 307.308118 
L 349.78909 307.308118 
L 349.78909 307.438132 
L 359.528735 307.374711 
L 359.528735 307.584 
L 382.254552 307.584 
L 382.254552 307.469842 
L 385.5011 307.469842 
L 385.5011 307.584 
L 395.240725 307.584 
L 395.240725 307.434961 
L 398.487273 307.434961 
L 398.487273 307.584 
L 398.487273 307.584 
" style="fill:none;stroke:#1f77b4;stroke-linejoin:miter;"/>
   </g>
   <g id="patch_4">
    <path clip-path="url(#p2a2425b2ba)" d="M 73.832727 307.584 
L 73.832727 307.444474 
L 77.079273 307.444474 
L 77.079273 307.584 
L 90.065455 307.584 
L 90.065455 307.301776 
L 93.311999 307.301776 
L 93.311999 307.492039 
L 96.558545 307.492039 
L 96.558545 306.464619 
L 103.051636 306.47096 
L 103.051636 306.991013 
L 106.298182 306.991013 
L 106.298182 305.833579 
L 109.544728 305.833579 
L 109.544728 304.555646 
L 116.037817 304.615895 
L 116.037817 303.829473 
L 119.284365 303.829473 
L 119.284365 302.361277 
L 122.530908 302.361277 
L 122.530908 301.260922 
L 125.777456 301.260922 
L 125.777456 299.891027 
L 129.023999 299.891027 
L 129.023999 297.722027 
L 132.270548 297.722027 
L 132.270548 292.182199 
L 135.517091 292.182199 
L 135.517091 288.132765 
L 138.763639 288.132765 
L 138.763639 282.104596 
L 142.010182 282.104596 
L 142.010182 279.212595 
L 145.256725 279.212595 
L 145.256725 271.95406 
L 148.503273 271.95406 
L 148.503273 266.109811 
L 151.749817 266.109811 
L 151.749817 257.995088 
L 154.996365 257.995088 
L 154.996365 251.269281 
L 158.242908 251.269281 
L 158.242908 239.235139 
L 161.489456 239.235139 
L 161.489456 228.532837 
L 164.736004 228.532837 
L 164.736004 221.686538 
L 167.982542 221.686538 
L 167.982542 203.173937 
L 171.229091 203.173937 
L 171.229091 182.929942 
L 174.475639 182.929942 
L 174.475639 159.587813 
L 177.722177 159.587813 
L 177.722177 135.291203 
L 180.968725 135.291203 
L 180.968725 115.513365 
L 184.215273 115.513365 
L 184.215273 96.090663 
L 187.461822 96.090663 
L 187.461822 90.604769 
L 190.70836 90.604769 
L 190.70836 80.229076 
L 193.954908 80.229076 
L 193.954908 88.515012 
L 197.201456 88.515012 
L 197.201456 108.483171 
L 200.448004 108.483171 
L 200.448004 125.483149 
L 203.694542 125.483149 
L 203.694542 136.702337 
L 206.94109 136.702337 
L 206.94109 151.070383 
L 210.187639 151.070383 
L 210.187639 155.17372 
L 213.434177 155.17372 
L 213.434177 175.059397 
L 216.680725 175.059397 
L 216.680725 185.527007 
L 219.927273 185.527007 
L 219.927273 199.289401 
L 223.173821 199.289401 
L 223.173821 204.937038 
L 226.420359 204.937038 
L 226.420359 206.084948 
L 229.666908 206.084948 
L 229.666908 222.672749 
L 232.913456 222.672749 
L 232.913456 227.121732 
L 236.160004 227.121732 
L 236.160004 240.747732 
L 239.406542 240.747732 
L 239.406542 250.115021 
L 242.65309 250.115021 
L 242.65309 251.02194 
L 245.899628 251.02194 
L 245.899628 255.879993 
L 249.146177 255.879993 
L 249.146177 258.175839 
L 252.392725 258.175839 
L 252.392725 265.345584 
L 255.639273 265.345584 
L 255.639273 269.804086 
L 258.885821 269.804086 
L 258.885821 267.010391 
L 262.13237 267.010391 
L 262.13237 277.170437 
L 265.378918 277.170437 
L 265.378918 280.033896 
L 268.625446 280.033896 
L 268.625446 282.377305 
L 271.871994 282.377305 
L 271.871994 284.267254 
L 275.118542 284.267254 
L 275.118542 286.544069 
L 278.36509 286.544069 
L 278.36509 291.402122 
L 281.611639 291.402122 
L 281.611639 287.993241 
L 284.858187 287.993241 
L 284.858187 294.081658 
L 288.104735 294.081658 
L 288.104735 292.911541 
L 291.351263 292.911541 
L 291.351263 297.008539 
L 294.597811 297.008539 
L 294.597811 300.56646 
L 297.844359 300.56646 
L 297.844359 302.443725 
L 301.090908 302.443725 
L 301.090908 302.738633 
L 304.337456 302.738633 
L 304.337456 302.006118 
L 307.584004 302.006118 
L 307.584004 304.612724 
L 314.0771 304.581014 
L 314.0771 304.086329 
L 317.323628 304.086329 
L 317.323628 304.241711 
L 320.570176 304.241711 
L 320.570176 305.440368 
L 323.816725 305.440368 
L 323.816725 305.678197 
L 330.309821 305.713079 
L 330.309821 306.283869 
L 333.556369 306.283869 
L 333.556369 306.965645 
L 336.802918 306.965645 
L 336.802918 306.058724 
L 340.049445 306.058724 
L 340.049445 307.197132 
L 343.295994 307.197132 
L 343.295994 307.584 
L 349.78909 307.584 
L 349.78909 307.140053 
L 353.035638 307.140053 
L 353.035638 307.428618 
L 356.282187 307.428618 
L 356.282187 307.584 
L 366.021811 307.584 
L 366.021811 307.301776 
L 369.268359 307.301776 
L 369.268359 307.584 
L 398.487273 307.584 
L 398.487273 307.584 
" style="fill:none;stroke:#ff7f0e;stroke-linejoin:miter;"/>
   </g>
   <g id="patch_5">
    <path clip-path="url(#p2a2425b2ba)" d="M 73.832727 307.584 
L 83.572364 307.501553 
L 83.572364 307.425447 
L 86.818909 307.425447 
L 86.818909 306.959303 
L 90.065455 306.959303 
L 90.065455 307.492039 
L 93.311999 307.492039 
L 93.311999 307.184447 
L 96.558545 307.184447 
L 96.558545 306.470961 
L 99.805091 306.470961 
L 99.805091 305.468908 
L 103.051636 305.468908 
L 103.051636 301.051633 
L 106.298182 301.051633 
L 106.298182 298.971422 
L 109.544728 298.971422 
L 109.544728 287.504898 
L 112.791273 287.504898 
L 112.791273 279.466281 
L 116.037817 279.466281 
L 116.037817 272.261653 
L 119.284365 272.261653 
L 119.284365 257.896783 
L 122.530908 257.896783 
L 122.530908 253.764913 
L 125.777456 253.764913 
L 125.777456 244.705206 
L 129.023999 244.705206 
L 129.023999 238.331388 
L 132.270548 238.331388 
L 132.270548 235.087401 
L 135.517091 235.087401 
L 135.517091 230.191304 
L 138.763639 230.191304 
L 138.763639 223.148386 
L 142.010182 223.148386 
L 142.010182 227.968396 
L 145.256725 227.968396 
L 145.256725 224.803686 
L 148.503273 224.803686 
L 148.503273 229.886876 
L 151.749817 229.886876 
L 151.749817 225.574256 
L 154.996365 225.574256 
L 154.996365 223.452814 
L 158.242908 223.452814 
L 158.242908 225.704262 
L 161.489456 225.704262 
L 161.489456 224.356566 
L 164.736004 224.356566 
L 164.736004 230.66695 
L 167.982542 230.66695 
L 167.982542 221.864113 
L 171.229091 221.864113 
L 171.229091 220.03442 
L 174.475639 220.03442 
L 174.475639 227.403941 
L 177.722177 227.403941 
L 177.722177 232.255651 
L 180.968725 232.255651 
L 180.968725 228.04133 
L 184.215273 228.04133 
L 184.215273 233.863383 
L 187.461822 233.863383 
L 187.461822 238.994141 
L 190.70836 238.994141 
L 190.70836 242.279354 
L 193.954908 242.279354 
L 193.954908 244.702034 
L 197.201456 244.702034 
L 197.201456 250.818993 
L 200.448004 250.818993 
L 200.448004 259.044707 
L 203.694542 259.044707 
L 203.694542 259.60598 
L 206.94109 259.60598 
L 206.94109 266.848666 
L 210.187639 266.848666 
L 210.187639 267.038931 
L 213.434177 267.038931 
L 213.434177 269.721638 
L 216.680725 269.721638 
L 216.680725 271.158122 
L 219.927273 271.158122 
L 219.927273 277.734883 
L 223.173821 277.734883 
L 223.173821 279.9356 
L 226.420359 279.9356 
L 226.420359 279.396513 
L 229.666908 279.396513 
L 229.666908 286.553581 
L 232.913456 286.553581 
L 232.913456 283.994545 
L 236.160004 283.994545 
L 236.160004 285.602265 
L 239.406542 285.602265 
L 239.406542 288.814542 
L 242.65309 288.814542 
L 242.65309 291.684344 
L 245.899628 291.684344 
L 245.899628 293.098634 
L 249.146177 293.098634 
L 249.146177 295.990633 
L 252.392725 295.990633 
L 252.392725 293.850172 
L 255.639273 293.850172 
L 255.639273 294.684158 
L 258.885821 294.684158 
L 258.885821 297.335159 
L 262.13237 297.335159 
L 262.13237 298.429172 
L 265.378918 298.429172 
L 265.378918 298.235738 
L 268.625446 298.235738 
L 268.625446 302.538856 
L 271.871994 302.538856 
L 271.871994 299.215593 
L 275.118542 299.215593 
L 275.118542 301.952211 
L 278.36509 301.952211 
L 278.36509 300.426936 
L 281.611639 300.426936 
L 281.611639 303.670922 
L 288.104735 303.769224 
L 288.104735 305.085211 
L 297.844359 305.056671 
L 297.844359 305.906513 
L 301.090908 305.906513 
L 301.090908 305.265961 
L 304.337456 305.265961 
L 304.337456 306.451934 
L 307.584004 306.451934 
L 307.584004 306.334605 
L 314.0771 306.363145 
L 314.0771 305.995303 
L 317.323628 305.995303 
L 317.323628 307.165421 
L 320.570176 307.165421 
L 320.570176 307.333487 
L 327.063273 307.434961 
L 327.063273 306.994184 
L 330.309821 306.994184 
L 330.309821 307.140053 
L 333.556369 307.140053 
L 333.556369 306.835632 
L 336.802918 306.835632 
L 336.802918 307.285921 
L 343.295994 307.368368 
L 343.295994 307.488868 
L 398.487273 307.584 
L 398.487273 307.584 
" style="fill:none;stroke:#2ca02c;stroke-linejoin:miter;"/>
   </g>
   <g id="patch_6">
    <path clip-path="url(#p2a2425b2ba)" d="M 73.832727 307.584 
L 73.832727 307.40325 
L 86.818909 307.381053 
L 86.818909 307.212987 
L 90.065455 307.212987 
L 90.065455 307.482526 
L 93.311999 307.482526 
L 93.311999 306.956132 
L 96.558545 306.956132 
L 96.558545 305.741619 
L 99.805091 305.741619 
L 99.805091 303.747027 
L 103.051636 303.747027 
L 103.051636 300.160567 
L 106.298182 300.160567 
L 106.298182 291.46237 
L 109.544728 291.46237 
L 109.544728 281.15645 
L 112.791273 281.15645 
L 112.791273 269.670897 
L 116.037817 269.670897 
L 116.037817 259.146177 
L 119.284365 259.146177 
L 119.284365 249.097113 
L 122.530908 249.097113 
L 122.530908 239.888382 
L 125.777456 239.888382 
L 125.777456 239.095615 
L 129.023999 239.095615 
L 129.023999 229.915424 
L 132.270548 229.915424 
L 132.270548 223.180109 
L 135.517091 223.180109 
L 135.517091 229.500011 
L 138.763639 229.500011 
L 138.763639 231.459717 
L 142.010182 231.459717 
L 142.010182 226.198952 
L 145.256725 226.198952 
L 145.256725 224.762453 
L 148.503273 224.762453 
L 148.503273 219.460454 
L 151.749817 219.460454 
L 151.749817 222.412714 
L 154.996365 222.412714 
L 154.996365 224.147276 
L 158.242908 224.147276 
L 158.242908 224.381931 
L 161.489456 224.381931 
L 161.489456 219.834633 
L 164.736004 219.834633 
L 164.736004 224.017255 
L 167.982542 224.017255 
L 167.982542 222.342948 
L 171.229091 222.342948 
L 171.229091 221.521649 
L 174.475639 221.521649 
L 174.475639 231.792685 
L 177.722177 231.792685 
L 177.722177 228.076213 
L 180.968725 228.076213 
L 180.968725 230.054948 
L 184.215273 230.054948 
L 184.215273 234.443684 
L 187.461822 234.443684 
L 187.461822 235.493295 
L 190.70836 235.493295 
L 190.70836 242.022495 
L 193.954908 242.022495 
L 193.954908 246.709305 
L 197.201456 246.709305 
L 197.201456 253.76807 
L 200.448004 253.76807 
L 200.448004 253.993217 
L 203.694542 253.993217 
L 203.694542 260.265558 
L 206.94109 260.265558 
L 206.94109 263.569796 
L 210.187639 263.569796 
L 210.187639 261.660823 
L 213.434177 261.660823 
L 213.434177 266.366663 
L 216.680725 266.366663 
L 216.680725 272.826097 
L 219.927273 272.826097 
L 219.927273 277.658782 
L 223.173821 277.658782 
L 223.173821 275.432702 
L 226.420359 275.432702 
L 226.420359 282.047518 
L 229.666908 282.047518 
L 229.666908 281.048636 
L 232.913456 281.048636 
L 232.913456 287.711019 
L 239.406542 287.726872 
L 239.406542 288.583055 
L 242.65309 288.583055 
L 242.65309 289.388504 
L 245.899628 289.388504 
L 245.899628 291.475054 
L 249.146177 291.475054 
L 249.146177 296.28237 
L 252.392725 296.28237 
L 252.392725 297.341502 
L 255.639273 297.341502 
L 255.639273 295.968436 
L 258.885821 295.968436 
L 258.885821 298.483081 
L 262.13237 298.483081 
L 262.13237 299.332923 
L 265.378918 299.332923 
L 265.378918 300.902593 
L 268.625446 300.902593 
L 268.625446 300.395225 
L 271.871994 300.395225 
L 271.871994 300.867711 
L 275.118542 300.867711 
L 275.118542 302.202724 
L 278.36509 302.202724 
L 278.36509 301.543145 
L 281.611639 301.543145 
L 281.611639 302.180526 
L 284.858187 302.180526 
L 284.858187 304.948855 
L 291.351263 304.939342 
L 291.351263 304.029251 
L 294.597811 304.029251 
L 294.597811 304.644434 
L 297.844359 304.644434 
L 297.844359 304.933 
L 301.090908 304.933 
L 301.090908 306.195079 
L 310.830552 306.210934 
L 310.830552 307.060776 
L 314.0771 307.060776 
L 314.0771 306.296553 
L 317.323628 306.296553 
L 317.323628 306.784895 
L 320.570176 306.784895 
L 320.570176 307.048092 
L 323.816725 307.048092 
L 323.816725 307.368368 
L 327.063273 307.368368 
L 327.063273 307.488868 
L 333.556369 307.393737 
L 333.556369 307.025895 
L 336.802918 307.025895 
L 336.802918 307.434961 
L 340.049445 307.434961 
L 340.049445 307.289092 
L 343.295994 307.289092 
L 343.295994 307.501553 
L 398.487273 307.584 
L 398.487273 307.584 
" style="fill:none;stroke:#d62728;stroke-linejoin:miter;"/>
   </g>
   <g id="patch_7">
    <path clip-path="url(#p2a2425b2ba)" d="M 73.832727 307.584 
L 93.311999 307.584 
L 93.311999 307.40325 
L 103.051636 307.466671 
L 103.051636 304.777618 
L 106.298182 304.777618 
L 106.298182 304.00071 
L 109.544728 304.00071 
L 109.544728 297.899606 
L 112.791273 297.899606 
L 112.791273 290.409581 
L 116.037817 290.409581 
L 116.037817 283.93112 
L 119.284365 283.93112 
L 119.284365 279.932426 
L 122.530908 279.932426 
L 122.530908 273.951817 
L 125.777456 273.951817 
L 125.777456 261.733757 
L 129.023999 261.733757 
L 129.023999 260.757068 
L 132.270548 260.757068 
L 132.270548 251.421503 
L 135.517091 251.421503 
L 135.517091 245.678715 
L 138.763639 245.678715 
L 138.763639 248.342408 
L 142.010182 248.342408 
L 142.010182 234.95422 
L 145.256725 234.95422 
L 145.256725 226.256017 
L 148.503273 226.256017 
L 148.503273 216.549436 
L 154.996365 216.53675 
L 154.996365 190.125056 
L 158.242908 190.125056 
L 158.242908 176.40075 
L 161.489456 176.40075 
L 161.489456 157.729581 
L 164.736004 157.729581 
L 164.736004 130.436332 
L 167.982542 130.436332 
L 167.982542 85.848181 
L 171.229091 85.848181 
L 171.229091 65.413918 
L 174.475639 65.413918 
L 174.475639 54.144 
L 177.722177 54.144 
L 177.722177 69.539452 
L 180.968725 69.539452 
L 180.968725 62.116019 
L 184.215273 62.116019 
L 184.215273 83.311327 
L 187.461822 83.311327 
L 187.461822 102.286902 
L 190.70836 102.286902 
L 190.70836 125.448266 
L 193.954908 125.448266 
L 193.954908 156.378732 
L 197.201456 156.378732 
L 197.201456 183.021897 
L 200.448004 183.021897 
L 200.448004 184.375929 
L 203.694542 184.375929 
L 203.694542 211.298151 
L 206.94109 211.298151 
L 206.94109 225.605957 
L 210.187639 225.605957 
L 210.187639 238.286994 
L 213.434177 238.286994 
L 213.434177 245.447236 
L 216.680725 245.447236 
L 216.680725 258.64832 
L 219.927273 258.64832 
L 219.927273 265.412171 
L 223.173821 265.412171 
L 223.173821 271.376923 
L 226.420359 271.376923 
L 226.420359 274.436992 
L 229.666908 274.436992 
L 229.666908 284.092845 
L 232.913456 284.092845 
L 232.913456 284.428975 
L 236.160004 284.428975 
L 236.160004 285.237596 
L 239.406542 285.237596 
L 239.406542 294.538291 
L 245.899628 294.503409 
L 245.899628 293.231817 
L 249.146177 293.231817 
L 249.146177 298.476738 
L 252.392725 298.476738 
L 252.392725 297.014882 
L 255.639273 297.014882 
L 255.639273 297.601527 
L 258.885821 297.601527 
L 258.885821 298.695539 
L 262.13237 298.695539 
L 262.13237 300.537921 
L 265.378918 300.537921 
L 265.378918 303.433092 
L 268.625446 303.433092 
L 268.625446 301.267263 
L 271.871994 301.267263 
L 271.871994 302.919383 
L 278.36509 302.890843 
L 278.36509 303.896066 
L 281.611639 303.896066 
L 281.611639 302.906698 
L 284.858187 302.906698 
L 284.858187 304.596869 
L 288.104735 304.596869 
L 288.104735 304.891777 
L 291.351263 304.891777 
L 291.351263 305.874803 
L 294.597811 305.874803 
L 294.597811 305.510132 
L 297.844359 305.510132 
L 297.844359 306.055553 
L 304.337456 305.963592 
L 304.337456 306.756355 
L 307.584004 306.756355 
L 307.584004 306.366316 
L 310.830552 306.366316 
L 310.830552 306.997355 
L 314.0771 306.997355 
L 314.0771 307.292263 
L 317.323628 307.292263 
L 317.323628 307.016382 
L 320.570176 307.016382 
L 320.570176 306.7405 
L 323.816725 306.7405 
L 323.816725 307.073461 
L 327.063273 307.073461 
L 327.063273 307.584 
L 330.309821 307.584 
L 330.309821 307.447645 
L 333.556369 307.447645 
L 333.556369 307.584 
L 346.542542 307.584 
L 346.542542 307.193961 
L 349.78909 307.193961 
L 349.78909 307.352513 
L 359.528735 307.276408 
L 359.528735 307.584 
L 398.487273 307.584 
L 398.487273 307.584 
" style="fill:none;stroke:#9467bd;stroke-linejoin:miter;"/>
   </g>
   <g id="patch_8">
    <path clip-path="url(#p2a2425b2ba)" d="M 73.832727 307.584 
L 398.487273 307.584 
L 398.487273 307.584 
" style="fill:none;stroke:#000000;stroke-linejoin:miter;"/>
   </g>
   <g id="matplotlib.axis_1">
    <g id="xtick_1">
     <g id="line2d_1">
      <defs>
       <path d="M 0 0 
L 0 3.5 
" id="maf100cab96" style="stroke:#000000;stroke-width:0.8;"/>
      </defs>
      <g>
       <use style="stroke:#000000;stroke-width:0.8;" x="72.43806" xlink:href="#maf100cab96" y="307.584"/>
      </g>
     </g>
     <g id="text_1">
      <!-- 0.0 -->
      <defs>
       <path d="M 31.78125 66.40625 
Q 24.171875 66.40625 20.328125 58.90625 
Q 16.5 51.421875 16.5 36.375 
Q 16.5 21.390625 20.328125 13.890625 
Q 24.171875 6.390625 31.78125 6.390625 
Q 39.453125 6.390625 43.28125 13.890625 
Q 47.125 21.390625 47.125 36.375 
Q 47.125 51.421875 43.28125 58.90625 
Q 39.453125 66.40625 31.78125 66.40625 
z
M 31.78125 74.21875 
Q 44.046875 74.21875 50.515625 64.515625 
Q 56.984375 54.828125 56.984375 36.375 
Q 56.984375 17.96875 50.515625 8.265625 
Q 44.046875 -1.421875 31.78125 -1.421875 
Q 19.53125 -1.421875 13.0625 8.265625 
Q 6.59375 17.96875 6.59375 36.375 
Q 6.59375 54.828125 13.0625 64.515625 
Q 19.53125 74.21875 31.78125 74.21875 
z
" id="DejaVuSans-48"/>
       <path d="M 10.6875 12.40625 
L 21 12.40625 
L 21 0 
L 10.6875 0 
z
" id="DejaVuSans-46"/>
      </defs>
      <g transform="translate(64.486498 322.182437)scale(0.1 -0.1)">
       <use xlink:href="#DejaVuSans-48"/>
       <use x="63.623047" xlink:href="#DejaVuSans-46"/>
       <use x="95.410156" xlink:href="#DejaVuSans-48"/>
      </g>
     </g>
    </g>
    <g id="xtick_2">
     <g id="line2d_2">
      <g>
       <use style="stroke:#000000;stroke-width:0.8;" x="115.012238" xlink:href="#maf100cab96" y="307.584"/>
      </g>
     </g>
     <g id="text_2">
      <!-- 0.5 -->
      <defs>
       <path d="M 10.796875 72.90625 
L 49.515625 72.90625 
L 49.515625 64.59375 
L 19.828125 64.59375 
L 19.828125 46.734375 
Q 21.96875 47.46875 24.109375 47.828125 
Q 26.265625 48.1875 28.421875 48.1875 
Q 40.625 48.1875 47.75 41.5 
Q 54.890625 34.8125 54.890625 23.390625 
Q 54.890625 11.625 47.5625 5.09375 
Q 40.234375 -1.421875 26.90625 -1.421875 
Q 22.3125 -1.421875 17.546875 -0.640625 
Q 12.796875 0.140625 7.71875 1.703125 
L 7.71875 11.625 
Q 12.109375 9.234375 16.796875 8.0625 
Q 21.484375 6.890625 26.703125 6.890625 
Q 35.15625 6.890625 40.078125 11.328125 
Q 45.015625 15.765625 45.015625 23.390625 
Q 45.015625 31 40.078125 35.4375 
Q 35.15625 39.890625 26.703125 39.890625 
Q 22.75 39.890625 18.8125 39.015625 
Q 14.890625 38.140625 10.796875 36.28125 
z
" id="DejaVuSans-53"/>
      </defs>
      <g transform="translate(107.060676 322.182437)scale(0.1 -0.1)">
       <use xlink:href="#DejaVuSans-48"/>
       <use x="63.623047" xlink:href="#DejaVuSans-46"/>
       <use x="95.410156" xlink:href="#DejaVuSans-53"/>
      </g>
     </g>
    </g>
    <g id="xtick_3">
     <g id="line2d_3">
      <g>
       <use style="stroke:#000000;stroke-width:0.8;" x="157.586416" xlink:href="#maf100cab96" y="307.584"/>
      </g>
     </g>
     <g id="text_3">
      <!-- 1.0 -->
      <defs>
       <path d="M 12.40625 8.296875 
L 28.515625 8.296875 
L 28.515625 63.921875 
L 10.984375 60.40625 
L 10.984375 69.390625 
L 28.421875 72.90625 
L 38.28125 72.90625 
L 38.28125 8.296875 
L 54.390625 8.296875 
L 54.390625 0 
L 12.40625 0 
z
" id="DejaVuSans-49"/>
      </defs>
      <g transform="translate(149.634853 322.182437)scale(0.1 -0.1)">
       <use xlink:href="#DejaVuSans-49"/>
       <use x="63.623047" xlink:href="#DejaVuSans-46"/>
       <use x="95.410156" xlink:href="#DejaVuSans-48"/>
      </g>
     </g>
    </g>
    <g id="xtick_4">
     <g id="line2d_4">
      <g>
       <use style="stroke:#000000;stroke-width:0.8;" x="200.160594" xlink:href="#maf100cab96" y="307.584"/>
      </g>
     </g>
     <g id="text_4">
      <!-- 1.5 -->
      <g transform="translate(192.209031 322.182437)scale(0.1 -0.1)">
       <use xlink:href="#DejaVuSans-49"/>
       <use x="63.623047" xlink:href="#DejaVuSans-46"/>
       <use x="95.410156" xlink:href="#DejaVuSans-53"/>
      </g>
     </g>
    </g>
    <g id="xtick_5">
     <g id="line2d_5">
      <g>
       <use style="stroke:#000000;stroke-width:0.8;" x="242.734771" xlink:href="#maf100cab96" y="307.584"/>
      </g>
     </g>
     <g id="text_5">
      <!-- 2.0 -->
      <defs>
       <path d="M 19.1875 8.296875 
L 53.609375 8.296875 
L 53.609375 0 
L 7.328125 0 
L 7.328125 8.296875 
Q 12.9375 14.109375 22.625 23.890625 
Q 32.328125 33.6875 34.8125 36.53125 
Q 39.546875 41.84375 41.421875 45.53125 
Q 43.3125 49.21875 43.3125 52.78125 
Q 43.3125 58.59375 39.234375 62.25 
Q 35.15625 65.921875 28.609375 65.921875 
Q 23.96875 65.921875 18.8125 64.3125 
Q 13.671875 62.703125 7.8125 59.421875 
L 7.8125 69.390625 
Q 13.765625 71.78125 18.9375 73 
Q 24.125 74.21875 28.421875 74.21875 
Q 39.75 74.21875 46.484375 68.546875 
Q 53.21875 62.890625 53.21875 53.421875 
Q 53.21875 48.921875 51.53125 44.890625 
Q 49.859375 40.875 45.40625 35.40625 
Q 44.1875 33.984375 37.640625 27.21875 
Q 31.109375 20.453125 19.1875 8.296875 
z
" id="DejaVuSans-50"/>
      </defs>
      <g transform="translate(234.783209 322.182437)scale(0.1 -0.1)">
       <use xlink:href="#DejaVuSans-50"/>
       <use x="63.623047" xlink:href="#DejaVuSans-46"/>
       <use x="95.410156" xlink:href="#DejaVuSans-48"/>
      </g>
     </g>
    </g>
    <g id="xtick_6">
     <g id="line2d_6">
      <g>
       <use style="stroke:#000000;stroke-width:0.8;" x="285.308949" xlink:href="#maf100cab96" y="307.584"/>
      </g>
     </g>
     <g id="text_6">
      <!-- 2.5 -->
      <g transform="translate(277.357387 322.182437)scale(0.1 -0.1)">
       <use xlink:href="#DejaVuSans-50"/>
       <use x="63.623047" xlink:href="#DejaVuSans-46"/>
       <use x="95.410156" xlink:href="#DejaVuSans-53"/>
      </g>
     </g>
    </g>
    <g id="xtick_7">
     <g id="line2d_7">
      <g>
       <use style="stroke:#000000;stroke-width:0.8;" x="327.883127" xlink:href="#maf100cab96" y="307.584"/>
      </g>
     </g>
     <g id="text_7">
      <!-- 3.0 -->
      <defs>
       <path d="M 40.578125 39.3125 
Q 47.65625 37.796875 51.625 33 
Q 55.609375 28.21875 55.609375 21.1875 
Q 55.609375 10.40625 48.1875 4.484375 
Q 40.765625 -1.421875 27.09375 -1.421875 
Q 22.515625 -1.421875 17.65625 -0.515625 
Q 12.796875 0.390625 7.625 2.203125 
L 7.625 11.71875 
Q 11.71875 9.328125 16.59375 8.109375 
Q 21.484375 6.890625 26.8125 6.890625 
Q 36.078125 6.890625 40.9375 10.546875 
Q 45.796875 14.203125 45.796875 21.1875 
Q 45.796875 27.640625 41.28125 31.265625 
Q 36.765625 34.90625 28.71875 34.90625 
L 20.21875 34.90625 
L 20.21875 43.015625 
L 29.109375 43.015625 
Q 36.375 43.015625 40.234375 45.921875 
Q 44.09375 48.828125 44.09375 54.296875 
Q 44.09375 59.90625 40.109375 62.90625 
Q 36.140625 65.921875 28.71875 65.921875 
Q 24.65625 65.921875 20.015625 65.03125 
Q 15.375 64.15625 9.8125 62.3125 
L 9.8125 71.09375 
Q 15.4375 72.65625 20.34375 73.4375 
Q 25.25 74.21875 29.59375 74.21875 
Q 40.828125 74.21875 47.359375 69.109375 
Q 53.90625 64.015625 53.90625 55.328125 
Q 53.90625 49.265625 50.4375 45.09375 
Q 46.96875 40.921875 40.578125 39.3125 
z
" id="DejaVuSans-51"/>
      </defs>
      <g transform="translate(319.931564 322.182437)scale(0.1 -0.1)">
       <use xlink:href="#DejaVuSans-51"/>
       <use x="63.623047" xlink:href="#DejaVuSans-46"/>
       <use x="95.410156" xlink:href="#DejaVuSans-48"/>
      </g>
     </g>
    </g>
    <g id="xtick_8">
     <g id="line2d_8">
      <g>
       <use style="stroke:#000000;stroke-width:0.8;" x="370.457305" xlink:href="#maf100cab96" y="307.584"/>
      </g>
     </g>
     <g id="text_8">
      <!-- 3.5 -->
      <g transform="translate(362.505742 322.182437)scale(0.1 -0.1)">
       <use xlink:href="#DejaVuSans-51"/>
       <use x="63.623047" xlink:href="#DejaVuSans-46"/>
       <use x="95.410156" xlink:href="#DejaVuSans-53"/>
      </g>
     </g>
    </g>
    <g id="xtick_9">
     <g id="line2d_9">
      <g>
       <use style="stroke:#000000;stroke-width:0.8;" x="413.031482" xlink:href="#maf100cab96" y="307.584"/>
      </g>
     </g>
     <g id="text_9">
      <!-- 4.0 -->
      <defs>
       <path d="M 37.796875 64.3125 
L 12.890625 25.390625 
L 37.796875 25.390625 
z
M 35.203125 72.90625 
L 47.609375 72.90625 
L 47.609375 25.390625 
L 58.015625 25.390625 
L 58.015625 17.1875 
L 47.609375 17.1875 
L 47.609375 0 
L 37.796875 0 
L 37.796875 17.1875 
L 4.890625 17.1875 
L 4.890625 26.703125 
z
" id="DejaVuSans-52"/>
      </defs>
      <g transform="translate(405.07992 322.182437)scale(0.1 -0.1)">
       <use xlink:href="#DejaVuSans-52"/>
       <use x="63.623047" xlink:href="#DejaVuSans-46"/>
       <use x="95.410156" xlink:href="#DejaVuSans-48"/>
      </g>
     </g>
    </g>
    <g id="text_10">
     <!-- j_d2_a1_b1_mmdt -->
     <defs>
      <path d="M 9.421875 54.6875 
L 18.40625 54.6875 
L 18.40625 -0.984375 
Q 18.40625 -11.421875 14.421875 -16.109375 
Q 10.453125 -20.796875 1.609375 -20.796875 
L -1.8125 -20.796875 
L -1.8125 -13.1875 
L 0.59375 -13.1875 
Q 5.71875 -13.1875 7.5625 -10.8125 
Q 9.421875 -8.453125 9.421875 -0.984375 
z
M 9.421875 75.984375 
L 18.40625 75.984375 
L 18.40625 64.59375 
L 9.421875 64.59375 
z
" id="DejaVuSans-106"/>
      <path d="M 50.984375 -16.609375 
L 50.984375 -23.578125 
L -0.984375 -23.578125 
L -0.984375 -16.609375 
z
" id="DejaVuSans-95"/>
      <path d="M 45.40625 46.390625 
L 45.40625 75.984375 
L 54.390625 75.984375 
L 54.390625 0 
L 45.40625 0 
L 45.40625 8.203125 
Q 42.578125 3.328125 38.25 0.953125 
Q 33.9375 -1.421875 27.875 -1.421875 
Q 17.96875 -1.421875 11.734375 6.484375 
Q 5.515625 14.40625 5.515625 27.296875 
Q 5.515625 40.1875 11.734375 48.09375 
Q 17.96875 56 27.875 56 
Q 33.9375 56 38.25 53.625 
Q 42.578125 51.265625 45.40625 46.390625 
z
M 14.796875 27.296875 
Q 14.796875 17.390625 18.875 11.75 
Q 22.953125 6.109375 30.078125 6.109375 
Q 37.203125 6.109375 41.296875 11.75 
Q 45.40625 17.390625 45.40625 27.296875 
Q 45.40625 37.203125 41.296875 42.84375 
Q 37.203125 48.484375 30.078125 48.484375 
Q 22.953125 48.484375 18.875 42.84375 
Q 14.796875 37.203125 14.796875 27.296875 
z
" id="DejaVuSans-100"/>
      <path d="M 34.28125 27.484375 
Q 23.390625 27.484375 19.1875 25 
Q 14.984375 22.515625 14.984375 16.5 
Q 14.984375 11.71875 18.140625 8.90625 
Q 21.296875 6.109375 26.703125 6.109375 
Q 34.1875 6.109375 38.703125 11.40625 
Q 43.21875 16.703125 43.21875 25.484375 
L 43.21875 27.484375 
z
M 52.203125 31.203125 
L 52.203125 0 
L 43.21875 0 
L 43.21875 8.296875 
Q 40.140625 3.328125 35.546875 0.953125 
Q 30.953125 -1.421875 24.3125 -1.421875 
Q 15.921875 -1.421875 10.953125 3.296875 
Q 6 8.015625 6 15.921875 
Q 6 25.140625 12.171875 29.828125 
Q 18.359375 34.515625 30.609375 34.515625 
L 43.21875 34.515625 
L 43.21875 35.40625 
Q 43.21875 41.609375 39.140625 45 
Q 35.0625 48.390625 27.6875 48.390625 
Q 23 48.390625 18.546875 47.265625 
Q 14.109375 46.140625 10.015625 43.890625 
L 10.015625 52.203125 
Q 14.9375 54.109375 19.578125 55.046875 
Q 24.21875 56 28.609375 56 
Q 40.484375 56 46.34375 49.84375 
Q 52.203125 43.703125 52.203125 31.203125 
z
" id="DejaVuSans-97"/>
      <path d="M 48.6875 27.296875 
Q 48.6875 37.203125 44.609375 42.84375 
Q 40.53125 48.484375 33.40625 48.484375 
Q 26.265625 48.484375 22.1875 42.84375 
Q 18.109375 37.203125 18.109375 27.296875 
Q 18.109375 17.390625 22.1875 11.75 
Q 26.265625 6.109375 33.40625 6.109375 
Q 40.53125 6.109375 44.609375 11.75 
Q 48.6875 17.390625 48.6875 27.296875 
z
M 18.109375 46.390625 
Q 20.953125 51.265625 25.265625 53.625 
Q 29.59375 56 35.59375 56 
Q 45.5625 56 51.78125 48.09375 
Q 58.015625 40.1875 58.015625 27.296875 
Q 58.015625 14.40625 51.78125 6.484375 
Q 45.5625 -1.421875 35.59375 -1.421875 
Q 29.59375 -1.421875 25.265625 0.953125 
Q 20.953125 3.328125 18.109375 8.203125 
L 18.109375 0 
L 9.078125 0 
L 9.078125 75.984375 
L 18.109375 75.984375 
z
" id="DejaVuSans-98"/>
      <path d="M 52 44.1875 
Q 55.375 50.25 60.0625 53.125 
Q 64.75 56 71.09375 56 
Q 79.640625 56 84.28125 50.015625 
Q 88.921875 44.046875 88.921875 33.015625 
L 88.921875 0 
L 79.890625 0 
L 79.890625 32.71875 
Q 79.890625 40.578125 77.09375 44.375 
Q 74.3125 48.1875 68.609375 48.1875 
Q 61.625 48.1875 57.5625 43.546875 
Q 53.515625 38.921875 53.515625 30.90625 
L 53.515625 0 
L 44.484375 0 
L 44.484375 32.71875 
Q 44.484375 40.625 41.703125 44.40625 
Q 38.921875 48.1875 33.109375 48.1875 
Q 26.21875 48.1875 22.15625 43.53125 
Q 18.109375 38.875 18.109375 30.90625 
L 18.109375 0 
L 9.078125 0 
L 9.078125 54.6875 
L 18.109375 54.6875 
L 18.109375 46.1875 
Q 21.1875 51.21875 25.484375 53.609375 
Q 29.78125 56 35.6875 56 
Q 41.65625 56 45.828125 52.96875 
Q 50 49.953125 52 44.1875 
z
" id="DejaVuSans-109"/>
      <path d="M 18.3125 70.21875 
L 18.3125 54.6875 
L 36.8125 54.6875 
L 36.8125 47.703125 
L 18.3125 47.703125 
L 18.3125 18.015625 
Q 18.3125 11.328125 20.140625 9.421875 
Q 21.96875 7.515625 27.59375 7.515625 
L 36.8125 7.515625 
L 36.8125 0 
L 27.59375 0 
Q 17.1875 0 13.234375 3.875 
Q 9.28125 7.765625 9.28125 18.015625 
L 9.28125 47.703125 
L 2.6875 47.703125 
L 2.6875 54.6875 
L 9.28125 54.6875 
L 9.28125 70.21875 
z
" id="DejaVuSans-116"/>
     </defs>
     <g transform="translate(190.939687 335.860562)scale(0.1 -0.1)">
      <use xlink:href="#DejaVuSans-106"/>
      <use x="27.783203" xlink:href="#DejaVuSans-95"/>
      <use x="77.783203" xlink:href="#DejaVuSans-100"/>
      <use x="141.259766" xlink:href="#DejaVuSans-50"/>
      <use x="204.882812" xlink:href="#DejaVuSans-95"/>
      <use x="254.882812" xlink:href="#DejaVuSans-97"/>
      <use x="316.162109" xlink:href="#DejaVuSans-49"/>
      <use x="379.785156" xlink:href="#DejaVuSans-95"/>
      <use x="429.785156" xlink:href="#DejaVuSans-98"/>
      <use x="493.261719" xlink:href="#DejaVuSans-49"/>
      <use x="556.884766" xlink:href="#DejaVuSans-95"/>
      <use x="606.884766" xlink:href="#DejaVuSans-109"/>
      <use x="704.296875" xlink:href="#DejaVuSans-109"/>
      <use x="801.708984" xlink:href="#DejaVuSans-100"/>
      <use x="865.185547" xlink:href="#DejaVuSans-116"/>
     </g>
    </g>
   </g>
   <g id="matplotlib.axis_2">
    <g id="ytick_1">
     <g id="line2d_10">
      <defs>
       <path d="M 0 0 
L -3.5 0 
" id="m8536ecee2e" style="stroke:#000000;stroke-width:0.8;"/>
      </defs>
      <g>
       <use style="stroke:#000000;stroke-width:0.8;" x="57.6" xlink:href="#m8536ecee2e" y="307.584"/>
      </g>
     </g>
     <g id="text_11">
      <!-- 0.000 -->
      <g transform="translate(21.971875 311.383219)scale(0.1 -0.1)">
       <use xlink:href="#DejaVuSans-48"/>
       <use x="63.623047" xlink:href="#DejaVuSans-46"/>
       <use x="95.410156" xlink:href="#DejaVuSans-48"/>
       <use x="159.033203" xlink:href="#DejaVuSans-48"/>
       <use x="222.65625" xlink:href="#DejaVuSans-48"/>
      </g>
     </g>
    </g>
    <g id="ytick_2">
     <g id="line2d_11">
      <g>
       <use style="stroke:#000000;stroke-width:0.8;" x="57.6" xlink:href="#m8536ecee2e" y="275.113004"/>
      </g>
     </g>
     <g id="text_12">
      <!-- 0.002 -->
      <g transform="translate(21.971875 278.912222)scale(0.1 -0.1)">
       <use xlink:href="#DejaVuSans-48"/>
       <use x="63.623047" xlink:href="#DejaVuSans-46"/>
       <use x="95.410156" xlink:href="#DejaVuSans-48"/>
       <use x="159.033203" xlink:href="#DejaVuSans-48"/>
       <use x="222.65625" xlink:href="#DejaVuSans-50"/>
      </g>
     </g>
    </g>
    <g id="ytick_3">
     <g id="line2d_12">
      <g>
       <use style="stroke:#000000;stroke-width:0.8;" x="57.6" xlink:href="#m8536ecee2e" y="242.642007"/>
      </g>
     </g>
     <g id="text_13">
      <!-- 0.004 -->
      <g transform="translate(21.971875 246.441226)scale(0.1 -0.1)">
       <use xlink:href="#DejaVuSans-48"/>
       <use x="63.623047" xlink:href="#DejaVuSans-46"/>
       <use x="95.410156" xlink:href="#DejaVuSans-48"/>
       <use x="159.033203" xlink:href="#DejaVuSans-48"/>
       <use x="222.65625" xlink:href="#DejaVuSans-52"/>
      </g>
     </g>
    </g>
    <g id="ytick_4">
     <g id="line2d_13">
      <g>
       <use style="stroke:#000000;stroke-width:0.8;" x="57.6" xlink:href="#m8536ecee2e" y="210.171011"/>
      </g>
     </g>
     <g id="text_14">
      <!-- 0.006 -->
      <defs>
       <path d="M 33.015625 40.375 
Q 26.375 40.375 22.484375 35.828125 
Q 18.609375 31.296875 18.609375 23.390625 
Q 18.609375 15.53125 22.484375 10.953125 
Q 26.375 6.390625 33.015625 6.390625 
Q 39.65625 6.390625 43.53125 10.953125 
Q 47.40625 15.53125 47.40625 23.390625 
Q 47.40625 31.296875 43.53125 35.828125 
Q 39.65625 40.375 33.015625 40.375 
z
M 52.59375 71.296875 
L 52.59375 62.3125 
Q 48.875 64.0625 45.09375 64.984375 
Q 41.3125 65.921875 37.59375 65.921875 
Q 27.828125 65.921875 22.671875 59.328125 
Q 17.53125 52.734375 16.796875 39.40625 
Q 19.671875 43.65625 24.015625 45.921875 
Q 28.375 48.1875 33.59375 48.1875 
Q 44.578125 48.1875 50.953125 41.515625 
Q 57.328125 34.859375 57.328125 23.390625 
Q 57.328125 12.15625 50.6875 5.359375 
Q 44.046875 -1.421875 33.015625 -1.421875 
Q 20.359375 -1.421875 13.671875 8.265625 
Q 6.984375 17.96875 6.984375 36.375 
Q 6.984375 53.65625 15.1875 63.9375 
Q 23.390625 74.21875 37.203125 74.21875 
Q 40.921875 74.21875 44.703125 73.484375 
Q 48.484375 72.75 52.59375 71.296875 
z
" id="DejaVuSans-54"/>
      </defs>
      <g transform="translate(21.971875 213.970229)scale(0.1 -0.1)">
       <use xlink:href="#DejaVuSans-48"/>
       <use x="63.623047" xlink:href="#DejaVuSans-46"/>
       <use x="95.410156" xlink:href="#DejaVuSans-48"/>
       <use x="159.033203" xlink:href="#DejaVuSans-48"/>
       <use x="222.65625" xlink:href="#DejaVuSans-54"/>
      </g>
     </g>
    </g>
    <g id="ytick_5">
     <g id="line2d_14">
      <g>
       <use style="stroke:#000000;stroke-width:0.8;" x="57.6" xlink:href="#m8536ecee2e" y="177.700014"/>
      </g>
     </g>
     <g id="text_15">
      <!-- 0.008 -->
      <defs>
       <path d="M 31.78125 34.625 
Q 24.75 34.625 20.71875 30.859375 
Q 16.703125 27.09375 16.703125 20.515625 
Q 16.703125 13.921875 20.71875 10.15625 
Q 24.75 6.390625 31.78125 6.390625 
Q 38.8125 6.390625 42.859375 10.171875 
Q 46.921875 13.96875 46.921875 20.515625 
Q 46.921875 27.09375 42.890625 30.859375 
Q 38.875 34.625 31.78125 34.625 
z
M 21.921875 38.8125 
Q 15.578125 40.375 12.03125 44.71875 
Q 8.5 49.078125 8.5 55.328125 
Q 8.5 64.0625 14.71875 69.140625 
Q 20.953125 74.21875 31.78125 74.21875 
Q 42.671875 74.21875 48.875 69.140625 
Q 55.078125 64.0625 55.078125 55.328125 
Q 55.078125 49.078125 51.53125 44.71875 
Q 48 40.375 41.703125 38.8125 
Q 48.828125 37.15625 52.796875 32.3125 
Q 56.78125 27.484375 56.78125 20.515625 
Q 56.78125 9.90625 50.3125 4.234375 
Q 43.84375 -1.421875 31.78125 -1.421875 
Q 19.734375 -1.421875 13.25 4.234375 
Q 6.78125 9.90625 6.78125 20.515625 
Q 6.78125 27.484375 10.78125 32.3125 
Q 14.796875 37.15625 21.921875 38.8125 
z
M 18.3125 54.390625 
Q 18.3125 48.734375 21.84375 45.5625 
Q 25.390625 42.390625 31.78125 42.390625 
Q 38.140625 42.390625 41.71875 45.5625 
Q 45.3125 48.734375 45.3125 54.390625 
Q 45.3125 60.0625 41.71875 63.234375 
Q 38.140625 66.40625 31.78125 66.40625 
Q 25.390625 66.40625 21.84375 63.234375 
Q 18.3125 60.0625 18.3125 54.390625 
z
" id="DejaVuSans-56"/>
      </defs>
      <g transform="translate(21.971875 181.499233)scale(0.1 -0.1)">
       <use xlink:href="#DejaVuSans-48"/>
       <use x="63.623047" xlink:href="#DejaVuSans-46"/>
       <use x="95.410156" xlink:href="#DejaVuSans-48"/>
       <use x="159.033203" xlink:href="#DejaVuSans-48"/>
       <use x="222.65625" xlink:href="#DejaVuSans-56"/>
      </g>
     </g>
    </g>
    <g id="ytick_6">
     <g id="line2d_15">
      <g>
       <use style="stroke:#000000;stroke-width:0.8;" x="57.6" xlink:href="#m8536ecee2e" y="145.229018"/>
      </g>
     </g>
     <g id="text_16">
      <!-- 0.010 -->
      <g transform="translate(21.971875 149.028237)scale(0.1 -0.1)">
       <use xlink:href="#DejaVuSans-48"/>
       <use x="63.623047" xlink:href="#DejaVuSans-46"/>
       <use x="95.410156" xlink:href="#DejaVuSans-48"/>
       <use x="159.033203" xlink:href="#DejaVuSans-49"/>
       <use x="222.65625" xlink:href="#DejaVuSans-48"/>
      </g>
     </g>
    </g>
    <g id="ytick_7">
     <g id="line2d_16">
      <g>
       <use style="stroke:#000000;stroke-width:0.8;" x="57.6" xlink:href="#m8536ecee2e" y="112.758021"/>
      </g>
     </g>
     <g id="text_17">
      <!-- 0.012 -->
      <g transform="translate(21.971875 116.55724)scale(0.1 -0.1)">
       <use xlink:href="#DejaVuSans-48"/>
       <use x="63.623047" xlink:href="#DejaVuSans-46"/>
       <use x="95.410156" xlink:href="#DejaVuSans-48"/>
       <use x="159.033203" xlink:href="#DejaVuSans-49"/>
       <use x="222.65625" xlink:href="#DejaVuSans-50"/>
      </g>
     </g>
    </g>
    <g id="ytick_8">
     <g id="line2d_17">
      <g>
       <use style="stroke:#000000;stroke-width:0.8;" x="57.6" xlink:href="#m8536ecee2e" y="80.287025"/>
      </g>
     </g>
     <g id="text_18">
      <!-- 0.014 -->
      <g transform="translate(21.971875 84.086244)scale(0.1 -0.1)">
       <use xlink:href="#DejaVuSans-48"/>
       <use x="63.623047" xlink:href="#DejaVuSans-46"/>
       <use x="95.410156" xlink:href="#DejaVuSans-48"/>
       <use x="159.033203" xlink:href="#DejaVuSans-49"/>
       <use x="222.65625" xlink:href="#DejaVuSans-52"/>
      </g>
     </g>
    </g>
    <g id="ytick_9">
     <g id="line2d_18">
      <g>
       <use style="stroke:#000000;stroke-width:0.8;" x="57.6" xlink:href="#m8536ecee2e" y="47.816028"/>
      </g>
     </g>
     <g id="text_19">
      <!-- 0.016 -->
      <g transform="translate(21.971875 51.615247)scale(0.1 -0.1)">
       <use xlink:href="#DejaVuSans-48"/>
       <use x="63.623047" xlink:href="#DejaVuSans-46"/>
       <use x="95.410156" xlink:href="#DejaVuSans-48"/>
       <use x="159.033203" xlink:href="#DejaVuSans-49"/>
       <use x="222.65625" xlink:href="#DejaVuSans-54"/>
      </g>
     </g>
    </g>
    <g id="text_20">
     <!-- Prob. Density (a.u.) -->
     <defs>
      <path d="M 19.671875 64.796875 
L 19.671875 37.40625 
L 32.078125 37.40625 
Q 38.96875 37.40625 42.71875 40.96875 
Q 46.484375 44.53125 46.484375 51.125 
Q 46.484375 57.671875 42.71875 61.234375 
Q 38.96875 64.796875 32.078125 64.796875 
z
M 9.8125 72.90625 
L 32.078125 72.90625 
Q 44.34375 72.90625 50.609375 67.359375 
Q 56.890625 61.8125 56.890625 51.125 
Q 56.890625 40.328125 50.609375 34.8125 
Q 44.34375 29.296875 32.078125 29.296875 
L 19.671875 29.296875 
L 19.671875 0 
L 9.8125 0 
z
" id="DejaVuSans-80"/>
      <path d="M 41.109375 46.296875 
Q 39.59375 47.171875 37.8125 47.578125 
Q 36.03125 48 33.890625 48 
Q 26.265625 48 22.1875 43.046875 
Q 18.109375 38.09375 18.109375 28.8125 
L 18.109375 0 
L 9.078125 0 
L 9.078125 54.6875 
L 18.109375 54.6875 
L 18.109375 46.1875 
Q 20.953125 51.171875 25.484375 53.578125 
Q 30.03125 56 36.53125 56 
Q 37.453125 56 38.578125 55.875 
Q 39.703125 55.765625 41.0625 55.515625 
z
" id="DejaVuSans-114"/>
      <path d="M 30.609375 48.390625 
Q 23.390625 48.390625 19.1875 42.75 
Q 14.984375 37.109375 14.984375 27.296875 
Q 14.984375 17.484375 19.15625 11.84375 
Q 23.34375 6.203125 30.609375 6.203125 
Q 37.796875 6.203125 41.984375 11.859375 
Q 46.1875 17.53125 46.1875 27.296875 
Q 46.1875 37.015625 41.984375 42.703125 
Q 37.796875 48.390625 30.609375 48.390625 
z
M 30.609375 56 
Q 42.328125 56 49.015625 48.375 
Q 55.71875 40.765625 55.71875 27.296875 
Q 55.71875 13.875 49.015625 6.21875 
Q 42.328125 -1.421875 30.609375 -1.421875 
Q 18.84375 -1.421875 12.171875 6.21875 
Q 5.515625 13.875 5.515625 27.296875 
Q 5.515625 40.765625 12.171875 48.375 
Q 18.84375 56 30.609375 56 
z
" id="DejaVuSans-111"/>
      <path id="DejaVuSans-32"/>
      <path d="M 19.671875 64.796875 
L 19.671875 8.109375 
L 31.59375 8.109375 
Q 46.6875 8.109375 53.6875 14.9375 
Q 60.6875 21.78125 60.6875 36.53125 
Q 60.6875 51.171875 53.6875 57.984375 
Q 46.6875 64.796875 31.59375 64.796875 
z
M 9.8125 72.90625 
L 30.078125 72.90625 
Q 51.265625 72.90625 61.171875 64.09375 
Q 71.09375 55.28125 71.09375 36.53125 
Q 71.09375 17.671875 61.125 8.828125 
Q 51.171875 0 30.078125 0 
L 9.8125 0 
z
" id="DejaVuSans-68"/>
      <path d="M 56.203125 29.59375 
L 56.203125 25.203125 
L 14.890625 25.203125 
Q 15.484375 15.921875 20.484375 11.0625 
Q 25.484375 6.203125 34.421875 6.203125 
Q 39.59375 6.203125 44.453125 7.46875 
Q 49.3125 8.734375 54.109375 11.28125 
L 54.109375 2.78125 
Q 49.265625 0.734375 44.1875 -0.34375 
Q 39.109375 -1.421875 33.890625 -1.421875 
Q 20.796875 -1.421875 13.15625 6.1875 
Q 5.515625 13.8125 5.515625 26.8125 
Q 5.515625 40.234375 12.765625 48.109375 
Q 20.015625 56 32.328125 56 
Q 43.359375 56 49.78125 48.890625 
Q 56.203125 41.796875 56.203125 29.59375 
z
M 47.21875 32.234375 
Q 47.125 39.59375 43.09375 43.984375 
Q 39.0625 48.390625 32.421875 48.390625 
Q 24.90625 48.390625 20.390625 44.140625 
Q 15.875 39.890625 15.1875 32.171875 
z
" id="DejaVuSans-101"/>
      <path d="M 54.890625 33.015625 
L 54.890625 0 
L 45.90625 0 
L 45.90625 32.71875 
Q 45.90625 40.484375 42.875 44.328125 
Q 39.84375 48.1875 33.796875 48.1875 
Q 26.515625 48.1875 22.3125 43.546875 
Q 18.109375 38.921875 18.109375 30.90625 
L 18.109375 0 
L 9.078125 0 
L 9.078125 54.6875 
L 18.109375 54.6875 
L 18.109375 46.1875 
Q 21.34375 51.125 25.703125 53.5625 
Q 30.078125 56 35.796875 56 
Q 45.21875 56 50.046875 50.171875 
Q 54.890625 44.34375 54.890625 33.015625 
z
" id="DejaVuSans-110"/>
      <path d="M 44.28125 53.078125 
L 44.28125 44.578125 
Q 40.484375 46.53125 36.375 47.5 
Q 32.28125 48.484375 27.875 48.484375 
Q 21.1875 48.484375 17.84375 46.4375 
Q 14.5 44.390625 14.5 40.28125 
Q 14.5 37.15625 16.890625 35.375 
Q 19.28125 33.59375 26.515625 31.984375 
L 29.59375 31.296875 
Q 39.15625 29.25 43.1875 25.515625 
Q 47.21875 21.78125 47.21875 15.09375 
Q 47.21875 7.46875 41.1875 3.015625 
Q 35.15625 -1.421875 24.609375 -1.421875 
Q 20.21875 -1.421875 15.453125 -0.5625 
Q 10.6875 0.296875 5.421875 2 
L 5.421875 11.28125 
Q 10.40625 8.6875 15.234375 7.390625 
Q 20.0625 6.109375 24.8125 6.109375 
Q 31.15625 6.109375 34.5625 8.28125 
Q 37.984375 10.453125 37.984375 14.40625 
Q 37.984375 18.0625 35.515625 20.015625 
Q 33.0625 21.96875 24.703125 23.78125 
L 21.578125 24.515625 
Q 13.234375 26.265625 9.515625 29.90625 
Q 5.8125 33.546875 5.8125 39.890625 
Q 5.8125 47.609375 11.28125 51.796875 
Q 16.75 56 26.8125 56 
Q 31.78125 56 36.171875 55.265625 
Q 40.578125 54.546875 44.28125 53.078125 
z
" id="DejaVuSans-115"/>
      <path d="M 9.421875 54.6875 
L 18.40625 54.6875 
L 18.40625 0 
L 9.421875 0 
z
M 9.421875 75.984375 
L 18.40625 75.984375 
L 18.40625 64.59375 
L 9.421875 64.59375 
z
" id="DejaVuSans-105"/>
      <path d="M 32.171875 -5.078125 
Q 28.375 -14.84375 24.75 -17.8125 
Q 21.140625 -20.796875 15.09375 -20.796875 
L 7.90625 -20.796875 
L 7.90625 -13.28125 
L 13.1875 -13.28125 
Q 16.890625 -13.28125 18.9375 -11.515625 
Q 21 -9.765625 23.484375 -3.21875 
L 25.09375 0.875 
L 2.984375 54.6875 
L 12.5 54.6875 
L 29.59375 11.921875 
L 46.6875 54.6875 
L 56.203125 54.6875 
z
" id="DejaVuSans-121"/>
      <path d="M 31 75.875 
Q 24.46875 64.65625 21.28125 53.65625 
Q 18.109375 42.671875 18.109375 31.390625 
Q 18.109375 20.125 21.3125 9.0625 
Q 24.515625 -2 31 -13.1875 
L 23.1875 -13.1875 
Q 15.875 -1.703125 12.234375 9.375 
Q 8.59375 20.453125 8.59375 31.390625 
Q 8.59375 42.28125 12.203125 53.3125 
Q 15.828125 64.359375 23.1875 75.875 
z
" id="DejaVuSans-40"/>
      <path d="M 8.5 21.578125 
L 8.5 54.6875 
L 17.484375 54.6875 
L 17.484375 21.921875 
Q 17.484375 14.15625 20.5 10.265625 
Q 23.53125 6.390625 29.59375 6.390625 
Q 36.859375 6.390625 41.078125 11.03125 
Q 45.3125 15.671875 45.3125 23.6875 
L 45.3125 54.6875 
L 54.296875 54.6875 
L 54.296875 0 
L 45.3125 0 
L 45.3125 8.40625 
Q 42.046875 3.421875 37.71875 1 
Q 33.40625 -1.421875 27.6875 -1.421875 
Q 18.265625 -1.421875 13.375 4.4375 
Q 8.5 10.296875 8.5 21.578125 
z
M 31.109375 56 
z
" id="DejaVuSans-117"/>
      <path d="M 8.015625 75.875 
L 15.828125 75.875 
Q 23.140625 64.359375 26.78125 53.3125 
Q 30.421875 42.28125 30.421875 31.390625 
Q 30.421875 20.453125 26.78125 9.375 
Q 23.140625 -1.703125 15.828125 -13.1875 
L 8.015625 -13.1875 
Q 14.5 -2 17.703125 9.0625 
Q 20.90625 20.125 20.90625 31.390625 
Q 20.90625 42.671875 17.703125 53.65625 
Q 14.5 64.65625 8.015625 75.875 
z
" id="DejaVuSans-41"/>
     </defs>
     <g transform="translate(15.892187 222.917844)rotate(-90)scale(0.1 -0.1)">
      <use xlink:href="#DejaVuSans-80"/>
      <use x="60.287109" xlink:href="#DejaVuSans-114"/>
      <use x="101.369141" xlink:href="#DejaVuSans-111"/>
      <use x="162.550781" xlink:href="#DejaVuSans-98"/>
      <use x="226.027344" xlink:href="#DejaVuSans-46"/>
      <use x="257.814453" xlink:href="#DejaVuSans-32"/>
      <use x="289.601562" xlink:href="#DejaVuSans-68"/>
      <use x="366.603516" xlink:href="#DejaVuSans-101"/>
      <use x="428.126953" xlink:href="#DejaVuSans-110"/>
      <use x="491.505859" xlink:href="#DejaVuSans-115"/>
      <use x="543.605469" xlink:href="#DejaVuSans-105"/>
      <use x="571.388672" xlink:href="#DejaVuSans-116"/>
      <use x="610.597656" xlink:href="#DejaVuSans-121"/>
      <use x="669.777344" xlink:href="#DejaVuSans-32"/>
      <use x="701.564453" xlink:href="#DejaVuSans-40"/>
      <use x="740.578125" xlink:href="#DejaVuSans-97"/>
      <use x="801.857422" xlink:href="#DejaVuSans-46"/>
      <use x="833.644531" xlink:href="#DejaVuSans-117"/>
      <use x="897.023438" xlink:href="#DejaVuSans-46"/>
      <use x="928.810547" xlink:href="#DejaVuSans-41"/>
     </g>
    </g>
   </g>
   <g id="patch_9">
    <path d="M 57.6 307.584 
L 57.6 41.472 
" style="fill:none;stroke:#000000;stroke-linecap:square;stroke-linejoin:miter;stroke-width:0.8;"/>
   </g>
   <g id="patch_10">
    <path d="M 414.72 307.584 
L 414.72 41.472 
" style="fill:none;stroke:#000000;stroke-linecap:square;stroke-linejoin:miter;stroke-width:0.8;"/>
   </g>
   <g id="patch_11">
    <path d="M 57.6 307.584 
L 414.72 307.584 
" style="fill:none;stroke:#000000;stroke-linecap:square;stroke-linejoin:miter;stroke-width:0.8;"/>
   </g>
   <g id="patch_12">
    <path d="M 57.6 41.472 
L 414.72 41.472 
" style="fill:none;stroke:#000000;stroke-linecap:square;stroke-linejoin:miter;stroke-width:0.8;"/>
   </g>
   <g id="legend_1">
    <g id="patch_13">
     <path d="M 325.405938 137.54075 
L 407.72 137.54075 
Q 409.72 137.54075 409.72 135.54075 
L 409.72 48.472 
Q 409.72 46.472 407.72 46.472 
L 325.405938 46.472 
Q 323.405938 46.472 323.405938 48.472 
L 323.405938 135.54075 
Q 323.405938 137.54075 325.405938 137.54075 
z
" style="fill:#ffffff;opacity:0.8;stroke:#cccccc;stroke-linejoin:miter;"/>
    </g>
    <g id="patch_14">
     <path d="M 327.405938 58.070438 
L 347.405938 58.070438 
L 347.405938 51.070438 
L 327.405938 51.070438 
z
" style="fill:none;stroke:#1f77b4;stroke-linejoin:miter;"/>
    </g>
    <g id="text_21">
     <!-- quark -->
     <defs>
      <path d="M 14.796875 27.296875 
Q 14.796875 17.390625 18.875 11.75 
Q 22.953125 6.109375 30.078125 6.109375 
Q 37.203125 6.109375 41.296875 11.75 
Q 45.40625 17.390625 45.40625 27.296875 
Q 45.40625 37.203125 41.296875 42.84375 
Q 37.203125 48.484375 30.078125 48.484375 
Q 22.953125 48.484375 18.875 42.84375 
Q 14.796875 37.203125 14.796875 27.296875 
z
M 45.40625 8.203125 
Q 42.578125 3.328125 38.25 0.953125 
Q 33.9375 -1.421875 27.875 -1.421875 
Q 17.96875 -1.421875 11.734375 6.484375 
Q 5.515625 14.40625 5.515625 27.296875 
Q 5.515625 40.1875 11.734375 48.09375 
Q 17.96875 56 27.875 56 
Q 33.9375 56 38.25 53.625 
Q 42.578125 51.265625 45.40625 46.390625 
L 45.40625 54.6875 
L 54.390625 54.6875 
L 54.390625 -20.796875 
L 45.40625 -20.796875 
z
" id="DejaVuSans-113"/>
      <path d="M 9.078125 75.984375 
L 18.109375 75.984375 
L 18.109375 31.109375 
L 44.921875 54.6875 
L 56.390625 54.6875 
L 27.390625 29.109375 
L 57.625 0 
L 45.90625 0 
L 18.109375 26.703125 
L 18.109375 0 
L 9.078125 0 
z
" id="DejaVuSans-107"/>
     </defs>
     <g transform="translate(355.405938 58.070438)scale(0.1 -0.1)">
      <use xlink:href="#DejaVuSans-113"/>
      <use x="63.476562" xlink:href="#DejaVuSans-117"/>
      <use x="126.855469" xlink:href="#DejaVuSans-97"/>
      <use x="188.134766" xlink:href="#DejaVuSans-114"/>
      <use x="229.248047" xlink:href="#DejaVuSans-107"/>
     </g>
    </g>
    <g id="patch_15">
     <path d="M 327.405938 72.748563 
L 347.405938 72.748563 
L 347.405938 65.748563 
L 327.405938 65.748563 
z
" style="fill:none;stroke:#ff7f0e;stroke-linejoin:miter;"/>
    </g>
    <g id="text_22">
     <!-- gluon -->
     <defs>
      <path d="M 45.40625 27.984375 
Q 45.40625 37.75 41.375 43.109375 
Q 37.359375 48.484375 30.078125 48.484375 
Q 22.859375 48.484375 18.828125 43.109375 
Q 14.796875 37.75 14.796875 27.984375 
Q 14.796875 18.265625 18.828125 12.890625 
Q 22.859375 7.515625 30.078125 7.515625 
Q 37.359375 7.515625 41.375 12.890625 
Q 45.40625 18.265625 45.40625 27.984375 
z
M 54.390625 6.78125 
Q 54.390625 -7.171875 48.1875 -13.984375 
Q 42 -20.796875 29.203125 -20.796875 
Q 24.46875 -20.796875 20.265625 -20.09375 
Q 16.0625 -19.390625 12.109375 -17.921875 
L 12.109375 -9.1875 
Q 16.0625 -11.328125 19.921875 -12.34375 
Q 23.78125 -13.375 27.78125 -13.375 
Q 36.625 -13.375 41.015625 -8.765625 
Q 45.40625 -4.15625 45.40625 5.171875 
L 45.40625 9.625 
Q 42.625 4.78125 38.28125 2.390625 
Q 33.9375 0 27.875 0 
Q 17.828125 0 11.671875 7.65625 
Q 5.515625 15.328125 5.515625 27.984375 
Q 5.515625 40.671875 11.671875 48.328125 
Q 17.828125 56 27.875 56 
Q 33.9375 56 38.28125 53.609375 
Q 42.625 51.21875 45.40625 46.390625 
L 45.40625 54.6875 
L 54.390625 54.6875 
z
" id="DejaVuSans-103"/>
      <path d="M 9.421875 75.984375 
L 18.40625 75.984375 
L 18.40625 0 
L 9.421875 0 
z
" id="DejaVuSans-108"/>
     </defs>
     <g transform="translate(355.405938 72.748563)scale(0.1 -0.1)">
      <use xlink:href="#DejaVuSans-103"/>
      <use x="63.476562" xlink:href="#DejaVuSans-108"/>
      <use x="91.259766" xlink:href="#DejaVuSans-117"/>
      <use x="154.638672" xlink:href="#DejaVuSans-111"/>
      <use x="215.820312" xlink:href="#DejaVuSans-110"/>
     </g>
    </g>
    <g id="patch_16">
     <path d="M 327.405938 87.426688 
L 347.405938 87.426688 
L 347.405938 80.426688 
L 327.405938 80.426688 
z
" style="fill:none;stroke:#2ca02c;stroke-linejoin:miter;"/>
    </g>
    <g id="text_23">
     <!-- W -->
     <defs>
      <path d="M 3.328125 72.90625 
L 13.28125 72.90625 
L 28.609375 11.28125 
L 43.890625 72.90625 
L 54.984375 72.90625 
L 70.3125 11.28125 
L 85.59375 72.90625 
L 95.609375 72.90625 
L 77.296875 0 
L 64.890625 0 
L 49.515625 63.28125 
L 33.984375 0 
L 21.578125 0 
z
" id="DejaVuSans-87"/>
     </defs>
     <g transform="translate(355.405938 87.426688)scale(0.1 -0.1)">
      <use xlink:href="#DejaVuSans-87"/>
     </g>
    </g>
    <g id="patch_17">
     <path d="M 327.405938 102.104813 
L 347.405938 102.104813 
L 347.405938 95.104813 
L 327.405938 95.104813 
z
" style="fill:none;stroke:#d62728;stroke-linejoin:miter;"/>
    </g>
    <g id="text_24">
     <!-- Z -->
     <defs>
      <path d="M 5.609375 72.90625 
L 62.890625 72.90625 
L 62.890625 65.375 
L 16.796875 8.296875 
L 64.015625 8.296875 
L 64.015625 0 
L 4.5 0 
L 4.5 7.515625 
L 50.59375 64.59375 
L 5.609375 64.59375 
z
" id="DejaVuSans-90"/>
     </defs>
     <g transform="translate(355.405938 102.104813)scale(0.1 -0.1)">
      <use xlink:href="#DejaVuSans-90"/>
     </g>
    </g>
    <g id="patch_18">
     <path d="M 327.405938 116.782938 
L 347.405938 116.782938 
L 347.405938 109.782938 
L 327.405938 109.782938 
z
" style="fill:none;stroke:#9467bd;stroke-linejoin:miter;"/>
    </g>
    <g id="text_25">
     <!-- top -->
     <defs>
      <path d="M 18.109375 8.203125 
L 18.109375 -20.796875 
L 9.078125 -20.796875 
L 9.078125 54.6875 
L 18.109375 54.6875 
L 18.109375 46.390625 
Q 20.953125 51.265625 25.265625 53.625 
Q 29.59375 56 35.59375 56 
Q 45.5625 56 51.78125 48.09375 
Q 58.015625 40.1875 58.015625 27.296875 
Q 58.015625 14.40625 51.78125 6.484375 
Q 45.5625 -1.421875 35.59375 -1.421875 
Q 29.59375 -1.421875 25.265625 0.953125 
Q 20.953125 3.328125 18.109375 8.203125 
z
M 48.6875 27.296875 
Q 48.6875 37.203125 44.609375 42.84375 
Q 40.53125 48.484375 33.40625 48.484375 
Q 26.265625 48.484375 22.1875 42.84375 
Q 18.109375 37.203125 18.109375 27.296875 
Q 18.109375 17.390625 22.1875 11.75 
Q 26.265625 6.109375 33.40625 6.109375 
Q 40.53125 6.109375 44.609375 11.75 
Q 48.6875 17.390625 48.6875 27.296875 
z
" id="DejaVuSans-112"/>
     </defs>
     <g transform="translate(355.405938 116.782938)scale(0.1 -0.1)">
      <use xlink:href="#DejaVuSans-116"/>
      <use x="39.208984" xlink:href="#DejaVuSans-111"/>
      <use x="100.390625" xlink:href="#DejaVuSans-112"/>
     </g>
    </g>
    <g id="patch_19">
     <path d="M 327.405938 131.461063 
L 347.405938 131.461063 
L 347.405938 124.461063 
L 327.405938 124.461063 
z
" style="fill:none;stroke:#000000;stroke-linejoin:miter;"/>
    </g>
    <g id="text_26">
     <!-- undefined -->
     <defs>
      <path d="M 37.109375 75.984375 
L 37.109375 68.5 
L 28.515625 68.5 
Q 23.6875 68.5 21.796875 66.546875 
Q 19.921875 64.59375 19.921875 59.515625 
L 19.921875 54.6875 
L 34.71875 54.6875 
L 34.71875 47.703125 
L 19.921875 47.703125 
L 19.921875 0 
L 10.890625 0 
L 10.890625 47.703125 
L 2.296875 47.703125 
L 2.296875 54.6875 
L 10.890625 54.6875 
L 10.890625 58.5 
Q 10.890625 67.625 15.140625 71.796875 
Q 19.390625 75.984375 28.609375 75.984375 
z
" id="DejaVuSans-102"/>
     </defs>
     <g transform="translate(355.405938 131.461063)scale(0.1 -0.1)">
      <use xlink:href="#DejaVuSans-117"/>
      <use x="63.378906" xlink:href="#DejaVuSans-110"/>
      <use x="126.757812" xlink:href="#DejaVuSans-100"/>
      <use x="190.234375" xlink:href="#DejaVuSans-101"/>
      <use x="251.757812" xlink:href="#DejaVuSans-102"/>
      <use x="286.962891" xlink:href="#DejaVuSans-105"/>
      <use x="314.746094" xlink:href="#DejaVuSans-110"/>
      <use x="378.125" xlink:href="#DejaVuSans-101"/>
      <use x="439.648438" xlink:href="#DejaVuSans-100"/>
     </g>
    </g>
   </g>
  </g>
 </g>
 <defs>
  <clipPath id="p2a2425b2ba">
   <rect height="266.112" width="357.12" x="57.6" y="41.472"/>
  </clipPath>
 </defs>
</svg>
