<?xml version="1.0" encoding="utf-8" standalone="no"?>
<!DOCTYPE svg PUBLIC "-//W3C//DTD SVG 1.1//EN"
  "http://www.w3.org/Graphics/SVG/1.1/DTD/svg11.dtd">
<!-- Created with matplotlib (https://matplotlib.org/) -->
<svg height="345.6pt" version="1.1" viewBox="0 0 460.8 345.6" width="460.8pt" xmlns="http://www.w3.org/2000/svg" xmlns:xlink="http://www.w3.org/1999/xlink">
 <defs>
  <style type="text/css">
*{stroke-linecap:butt;stroke-linejoin:round;}
  </style>
 </defs>
 <g id="figure_1">
  <g id="patch_1">
   <path d="M 0 345.6 
L 460.8 345.6 
L 460.8 0 
L 0 0 
z
" style="fill:#ffffff;"/>
  </g>
  <g id="axes_1">
   <g id="patch_2">
    <path d="M 57.6 307.584 
L 414.72 307.584 
L 414.72 41.472 
L 57.6 41.472 
z
" style="fill:#ffffff;"/>
   </g>
   <g id="patch_3">
    <path clip-path="url(#pfa0300123c)" d="M 73.832727 307.584 
L 73.832727 303.361094 
L 77.079273 303.361094 
L 77.079273 299.95266 
L 80.325818 299.95266 
L 80.325818 293.502501 
L 83.572364 293.502501 
L 83.572364 288.094558 
L 86.818909 288.094558 
L 86.818909 278.22052 
L 90.065455 278.22052 
L 90.065455 265.150356 
L 93.312 265.150356 
L 93.312 253.882841 
L 96.558545 253.882841 
L 96.558545 257.661839 
L 99.80509 257.661839 
L 99.80509 243.055374 
L 103.051636 243.055374 
L 103.051636 244.931361 
L 106.298182 244.931361 
L 106.298182 240.218224 
L 109.544726 240.218224 
L 109.544726 228.198001 
L 112.791273 228.198001 
L 112.791273 232.521264 
L 116.03782 232.521264 
L 116.03782 222.261223 
L 119.284363 222.261223 
L 119.284363 228.213434 
L 122.53091 228.213434 
L 122.53091 222.083661 
L 125.777453 222.083661 
L 125.777453 212.294561 
L 129.024 212.294561 
L 129.024 211.271636 
L 132.270547 211.271636 
L 132.270547 205.269242 
L 135.51709 205.269242 
L 135.51709 198.710989 
L 138.763634 198.710989 
L 138.763634 197.02029 
L 142.010184 197.02029 
L 142.010184 206.527614 
L 145.256728 206.527614 
L 145.256728 203.933656 
L 148.503271 203.933656 
L 148.503271 205.659115 
L 151.749821 205.659115 
L 151.749821 204.906397 
L 154.996365 204.906397 
L 154.996365 204.014725 
L 158.242908 204.014725 
L 158.242908 214.988878 
L 161.489452 214.988878 
L 161.489452 220.091869 
L 164.736002 220.091869 
L 164.736002 225.484377 
L 167.982545 225.484377 
L 167.982545 236.593633 
L 171.229089 236.593633 
L 171.229089 236.883135 
L 174.475639 236.883135 
L 174.475639 237.852015 
L 177.722182 237.852015 
L 177.722182 245.857765 
L 180.968726 245.857765 
L 180.968726 254.160766 
L 184.215276 254.160766 
L 184.215276 257.484278 
L 187.46182 257.484278 
L 187.46182 262.842039 
L 190.70837 262.842039 
L 190.70837 264.443962 
L 193.954913 264.443962 
L 193.954913 264.787512 
L 197.201457 264.787512 
L 197.201457 275.059131 
L 200.448 275.059131 
L 200.448 272.403412 
L 203.694544 272.403412 
L 203.694544 275.738501 
L 206.941087 275.738501 
L 206.941087 276.545256 
L 210.18763 276.545256 
L 210.18763 281.36647 
L 213.434188 281.36647 
L 213.434188 284.307837 
L 216.680731 284.307837 
L 216.680731 288.082976 
L 219.927274 288.082976 
L 219.927274 287.843651 
L 223.173818 287.843651 
L 223.173818 290.800459 
L 226.420361 290.800459 
L 226.420361 293.59128 
L 229.666905 293.59128 
L 229.666905 293.988867 
L 232.913448 293.988867 
L 232.913448 293.676203 
L 236.160005 293.676203 
L 236.160005 296.370525 
L 242.653092 296.405265 
L 242.653092 298.563039 
L 245.899636 298.563039 
L 245.899636 298.864124 
L 249.146179 298.864124 
L 249.146179 299.180649 
L 252.392722 299.180649 
L 252.392722 300.153383 
L 255.63928 300.153383 
L 255.63928 300.956276 
L 258.885823 300.956276 
L 258.885823 303.048429 
L 262.132366 303.048429 
L 262.132366 304.013444 
L 265.37891 304.013444 
L 265.37891 302.492581 
L 268.625453 302.492581 
L 268.625453 303.793421 
L 271.871997 303.793421 
L 271.871997 304.631054 
L 275.11854 304.631054 
L 275.11854 303.940103 
L 278.365097 303.940103 
L 278.365097 304.221887 
L 281.611641 304.221887 
L 281.611641 305.503428 
L 284.858184 305.503428 
L 284.858184 305.920314 
L 288.104728 305.920314 
L 288.104728 305.64625 
L 291.351271 305.64625 
L 291.351271 307.178694 
L 294.597814 307.178694 
L 294.597814 305.812232 
L 301.090915 305.719591 
L 301.090915 306.171218 
L 304.337458 306.171218 
L 304.337458 306.410542 
L 307.584002 306.410542 
L 307.584002 306.236839 
L 310.830545 306.236839 
L 310.830545 307.240455 
L 314.077089 307.240455 
L 314.077089 306.676886 
L 317.323632 306.676886 
L 317.323632 307.055172 
L 327.063263 307.143953 
L 327.063263 307.387137 
L 333.556377 307.302216 
L 333.556377 307.584 
L 336.80292 307.584 
L 336.80292 307.445038 
L 340.049464 307.445038 
L 340.049464 307.584 
L 346.54255 307.584 
L 346.54255 307.379417 
L 349.789094 307.379417 
L 349.789094 307.584 
L 372.514898 307.584 
L 372.514898 307.452758 
L 375.761441 307.452758 
L 375.761441 307.205714 
L 379.008012 307.205714 
L 379.008012 307.584 
L 398.487273 307.584 
L 398.487273 307.584 
" style="fill:none;stroke:#1f77b4;stroke-linejoin:miter;"/>
   </g>
   <g id="patch_4">
    <path clip-path="url(#pfa0300123c)" d="M 73.832727 307.584 
L 73.832727 307.082192 
L 77.079273 307.082192 
L 77.079273 303.851322 
L 80.325818 303.851322 
L 80.325818 297.632763 
L 83.572364 297.632763 
L 83.572364 291.993214 
L 86.818909 291.993214 
L 86.818909 280.115809 
L 90.065455 280.115809 
L 90.065455 268.647569 
L 93.312 268.647569 
L 93.312 250.624947 
L 96.558545 250.624947 
L 96.558545 248.625438 
L 99.80509 248.625438 
L 99.80509 234.582538 
L 103.051636 234.582538 
L 103.051636 222.157009 
L 106.298182 222.157009 
L 106.298182 215.220479 
L 109.544726 215.220479 
L 109.544726 207.284188 
L 112.791273 207.284188 
L 112.791273 199.919206 
L 116.03782 199.919206 
L 116.03782 183.270761 
L 119.284363 183.270761 
L 119.284363 171.273684 
L 122.53091 171.273684 
L 122.53091 161.08698 
L 125.777453 161.08698 
L 125.777453 156.16928 
L 129.024 156.16928 
L 129.024 170.825924 
L 132.270547 170.825924 
L 132.270547 155.922227 
L 135.51709 155.922227 
L 135.51709 137.745193 
L 138.763634 137.745193 
L 138.763634 123.524741 
L 142.010184 123.524741 
L 142.010184 115.368417 
L 145.256728 115.368417 
L 145.256728 120.540928 
L 148.503271 120.540928 
L 148.503271 114.719923 
L 151.749821 114.719923 
L 151.749821 118.414019 
L 154.996365 118.414019 
L 154.996365 131.136785 
L 158.242908 131.136785 
L 158.242908 145.615858 
L 161.489452 145.615858 
L 161.489452 132.009168 
L 164.736002 132.009168 
L 164.736002 153.278076 
L 167.982545 153.278076 
L 167.982545 152.556253 
L 171.229089 152.556253 
L 171.229089 161.133317 
L 174.475639 161.133317 
L 174.475639 168.830267 
L 177.722182 168.830267 
L 177.722182 197.078195 
L 180.968726 197.078195 
L 180.968726 184.204878 
L 184.215276 184.204878 
L 184.215276 197.367701 
L 187.46182 197.367701 
L 187.46182 194.005583 
L 190.70837 194.005583 
L 190.70837 199.401964 
L 193.954913 199.401964 
L 193.954913 222.76304 
L 197.201457 222.76304 
L 197.201457 226.020935 
L 200.448 226.020935 
L 200.448 237.639699 
L 203.694544 237.639699 
L 203.694544 237.369505 
L 206.941087 237.369505 
L 206.941087 245.105071 
L 210.18763 245.105071 
L 210.18763 243.819674 
L 213.434188 243.819674 
L 213.434188 245.282628 
L 216.680731 245.282628 
L 216.680731 258.040121 
L 219.927274 258.040121 
L 219.927274 257.692729 
L 223.173818 257.692729 
L 223.173818 262.479195 
L 226.420361 262.479195 
L 226.420361 268.732489 
L 229.666905 268.732489 
L 229.666905 262.502363 
L 232.913448 262.502363 
L 232.913448 266.366276 
L 236.160005 266.366276 
L 236.160005 280.185292 
L 239.406549 280.185292 
L 239.406549 281.22365 
L 242.653092 281.22365 
L 242.653092 284.913866 
L 245.899636 284.913866 
L 245.899636 285.10687 
L 249.146179 285.10687 
L 249.146179 282.420266 
L 252.392722 282.420266 
L 252.392722 287.507827 
L 255.63928 287.507827 
L 255.63928 290.734835 
L 258.885823 290.734835 
L 258.885823 292.062698 
L 262.132366 292.062698 
L 262.132366 293.259318 
L 265.37891 293.259318 
L 265.37891 296.189101 
L 268.625453 296.189101 
L 268.625453 296.563526 
L 271.871997 296.563526 
L 271.871997 296.82601 
L 275.11854 296.82601 
L 275.11854 301.22648 
L 278.365097 301.22648 
L 278.365097 299.018526 
L 281.611641 299.018526 
L 281.611641 302.056394 
L 284.858184 302.056394 
L 284.858184 300.520091 
L 288.104728 300.520091 
L 288.104728 302.218516 
L 291.351271 302.218516 
L 291.351271 300.431309 
L 294.597814 300.431309 
L 294.597814 302.461699 
L 297.844358 302.461699 
L 297.844358 304.148546 
L 301.090915 304.148546 
L 301.090915 304.549993 
L 304.337458 304.549993 
L 304.337458 304.399451 
L 307.584002 304.399451 
L 307.584002 305.715731 
L 310.830545 305.715731 
L 310.830545 306.252279 
L 314.077089 306.252279 
L 314.077089 305.302704 
L 317.323632 305.302704 
L 317.323632 305.835393 
L 320.570176 305.835393 
L 320.570176 306.402821 
L 323.816719 306.402821 
L 323.816719 307.252035 
L 327.063263 307.252035 
L 327.063263 306.256139 
L 330.309806 306.256139 
L 330.309806 306.622845 
L 333.556377 306.622845 
L 333.556377 307.255895 
L 336.80292 307.255895 
L 336.80292 307.406437 
L 340.049464 307.406437 
L 340.049464 306.653725 
L 343.296007 306.653725 
L 343.296007 307.302216 
L 346.54255 307.302216 
L 346.54255 306.900769 
L 353.035637 306.97797 
L 353.035637 307.584 
L 356.282181 307.584 
L 356.282181 306.545644 
L 359.528724 306.545644 
L 359.528724 307.584 
L 362.775268 307.584 
L 362.775268 307.383277 
L 369.268355 307.321516 
L 369.268355 307.584 
L 385.501099 307.584 
L 385.501099 307.325376 
L 388.747642 307.325376 
L 388.747642 307.584 
L 395.240729 307.584 
L 395.240729 306.885329 
L 398.487273 306.885329 
L 398.487273 307.584 
L 398.487273 307.584 
" style="fill:none;stroke:#ff7f0e;stroke-linejoin:miter;"/>
   </g>
   <g id="patch_5">
    <path clip-path="url(#pfa0300123c)" d="M 73.832727 307.584 
L 73.832727 303.511636 
L 77.079273 303.511636 
L 77.079273 250.918309 
L 80.325818 250.918309 
L 80.325818 158.157197 
L 83.572364 158.157197 
L 83.572364 109.744355 
L 86.818909 109.744355 
L 86.818909 101.259928 
L 90.065455 101.259928 
L 90.065455 120.428983 
L 93.312 120.428983 
L 93.312 134.865612 
L 96.558545 134.865612 
L 96.558545 152.722237 
L 99.80509 152.722237 
L 99.80509 161.619674 
L 103.051636 161.619674 
L 103.051636 177.627355 
L 106.298182 177.627355 
L 106.298182 188.809936 
L 109.544726 188.809936 
L 109.544726 196.248283 
L 112.791273 196.248283 
L 112.791273 199.710759 
L 116.03782 199.710759 
L 116.03782 214.896232 
L 119.284363 214.896232 
L 119.284363 218.779457 
L 122.53091 218.779457 
L 122.53091 225.820201 
L 125.777453 225.820201 
L 125.777453 219.443384 
L 129.024 219.443384 
L 129.024 238.048875 
L 132.270547 238.048875 
L 132.270547 238.16081 
L 135.51709 238.16081 
L 135.51709 238.75526 
L 138.763634 238.75526 
L 138.763634 240.372631 
L 142.010184 240.372631 
L 142.010184 243.244513 
L 145.256728 243.244513 
L 145.256728 252.524097 
L 148.503271 252.524097 
L 148.503271 250.265963 
L 151.749821 250.265963 
L 151.749821 259.449049 
L 154.996365 259.449049 
L 154.996365 265.408982 
L 158.242908 265.408982 
L 158.242908 270.759024 
L 161.489452 270.759024 
L 161.489452 267.875558 
L 164.736002 267.875558 
L 164.736002 274.595922 
L 167.982545 274.595922 
L 167.982545 276.522092 
L 171.229089 276.522092 
L 171.229089 278.818832 
L 174.475639 278.818832 
L 174.475639 280.10423 
L 177.722182 280.10423 
L 177.722182 282.482027 
L 180.968726 282.482027 
L 180.968726 285.311454 
L 184.215276 285.311454 
L 184.215276 290.665355 
L 187.46182 290.665355 
L 187.46182 291.047503 
L 190.70837 291.047503 
L 190.70837 289.098171 
L 193.954913 289.098171 
L 193.954913 291.425788 
L 197.201457 291.425788 
L 197.201457 295.081265 
L 200.448 295.081265 
L 200.448 293.359678 
L 203.694544 293.359678 
L 203.694544 295.972938 
L 206.941087 295.972938 
L 206.941087 298.335296 
L 210.18763 298.335296 
L 210.18763 296.798993 
L 213.434188 296.798993 
L 213.434188 301.593186 
L 216.680731 301.593186 
L 216.680731 299.404532 
L 219.927274 299.404532 
L 219.927274 299.759658 
L 223.173818 299.759658 
L 223.173818 301.365442 
L 226.420361 301.365442 
L 226.420361 301.685827 
L 229.666905 301.685827 
L 229.666905 301.504405 
L 232.913448 301.504405 
L 232.913448 303.005969 
L 236.160005 303.005969 
L 236.160005 303.855182 
L 239.406549 303.855182 
L 239.406549 304.553852 
L 242.653092 304.553852 
L 242.653092 305.542028 
L 249.146179 305.495707 
L 249.146179 305.723451 
L 252.392722 305.723451 
L 252.392722 305.993655 
L 255.63928 305.993655 
L 255.63928 304.665794 
L 258.885823 304.665794 
L 258.885823 306.167358 
L 262.132366 306.167358 
L 262.132366 305.735031 
L 265.37891 305.735031 
L 265.37891 306.95481 
L 268.625453 306.95481 
L 268.625453 306.113317 
L 271.871997 306.113317 
L 271.871997 306.893049 
L 275.11854 306.893049 
L 275.11854 306.545644 
L 278.365097 306.545644 
L 278.365097 306.263859 
L 281.611641 306.263859 
L 281.611641 306.618985 
L 284.858184 306.618985 
L 284.858184 307.136233 
L 288.104728 307.136233 
L 288.104728 307.352396 
L 294.597814 307.398717 
L 294.597814 307.078332 
L 297.844358 307.078332 
L 297.844358 307.360116 
L 304.337458 307.406437 
L 304.337458 307.584 
L 320.570176 307.584 
L 320.570176 307.414157 
L 330.309806 307.333096 
L 330.309806 306.92007 
L 333.556377 306.92007 
L 333.556377 307.475918 
L 372.514898 307.584 
L 372.514898 307.317656 
L 375.761441 307.317656 
L 375.761441 307.584 
L 379.008012 307.584 
L 379.008012 307.394857 
L 382.254556 307.394857 
L 382.254556 307.584 
L 398.487273 307.584 
L 398.487273 307.584 
" style="fill:none;stroke:#2ca02c;stroke-linejoin:miter;"/>
   </g>
   <g id="patch_6">
    <path clip-path="url(#pfa0300123c)" d="M 73.832727 307.584 
L 73.832727 302.218517 
L 77.079273 302.218517 
L 77.079273 230.942501 
L 80.325818 230.942501 
L 80.325818 120.108592 
L 83.572364 120.108592 
L 83.572364 82.627403 
L 86.818909 82.627403 
L 86.818909 92.01508 
L 90.065455 92.01508 
L 90.065455 106.478729 
L 93.312 106.478729 
L 93.312 125.92956 
L 96.558545 125.92956 
L 96.558545 150.730464 
L 99.80509 150.730464 
L 99.80509 158.550936 
L 103.051636 158.550936 
L 103.051636 158.840442 
L 106.298182 158.840442 
L 106.298182 185.683293 
L 109.544726 185.683293 
L 109.544726 199.351771 
L 112.791273 199.351771 
L 112.791273 213.761371 
L 116.03782 213.761371 
L 116.03782 203.516763 
L 119.284363 203.516763 
L 119.284363 214.390558 
L 122.53091 214.390558 
L 122.53091 223.037104 
L 125.777453 223.037104 
L 125.777453 224.326353 
L 129.024 224.326353 
L 129.024 232.58303 
L 132.270547 232.58303 
L 132.270547 236.180605 
L 135.51709 236.180605 
L 135.51709 240.696882 
L 138.763634 240.696882 
L 138.763634 250.022789 
L 142.010184 250.022789 
L 142.010184 248.490334 
L 145.256728 248.490334 
L 145.256728 255.863051 
L 148.503271 255.863051 
L 148.503271 257.217935 
L 151.749821 257.217935 
L 151.749821 255.318785 
L 154.996365 255.318785 
L 154.996365 263.552294 
L 158.242908 263.552294 
L 158.242908 264.382206 
L 161.489452 264.382206 
L 161.489452 271.650697 
L 164.736002 271.650697 
L 164.736002 277.45623 
L 167.982545 277.45623 
L 167.982545 275.499179 
L 171.229089 275.499179 
L 171.229089 278.436683 
L 174.475639 278.436683 
L 174.475639 277.965757 
L 177.722182 277.965757 
L 177.722182 280.513399 
L 180.968726 280.513399 
L 180.968726 285.944503 
L 184.215276 285.944503 
L 184.215276 286.905656 
L 187.46182 286.905656 
L 187.46182 287.990332 
L 190.70837 287.990332 
L 190.70837 291.526148 
L 193.954913 291.526148 
L 193.954913 292.398523 
L 197.201457 292.398523 
L 197.201457 292.576085 
L 200.448 292.576085 
L 200.448 295.810817 
L 203.694544 295.810817 
L 203.694544 296.779692 
L 206.941087 296.779692 
L 206.941087 297.744707 
L 210.18763 297.744707 
L 210.18763 299.30803 
L 213.434188 299.30803 
L 213.434188 299.93336 
L 216.680731 299.93336 
L 216.680731 300.307786 
L 219.927274 300.307786 
L 219.927274 300.767132 
L 223.173818 300.767132 
L 223.173818 300.276905 
L 226.420361 300.276905 
L 226.420361 300.936975 
L 229.666905 300.936975 
L 229.666905 303.411275 
L 232.913448 303.411275 
L 232.913448 304.125386 
L 236.160005 304.125386 
L 236.160005 304.465071 
L 239.406549 304.465071 
L 239.406549 302.971228 
L 242.653092 302.971228 
L 242.653092 304.013444 
L 245.899636 304.013444 
L 245.899636 304.847218 
L 249.146179 304.847218 
L 249.146179 304.218027 
L 252.392722 304.218027 
L 252.392722 305.113562 
L 255.63928 305.113562 
L 255.63928 305.812232 
L 258.885823 305.812232 
L 258.885823 306.893049 
L 262.132366 306.893049 
L 262.132366 306.144197 
L 268.625453 306.043836 
L 268.625453 306.441422 
L 271.871997 306.441422 
L 271.871997 306.213679 
L 275.11854 306.213679 
L 275.11854 307.213434 
L 278.365097 307.213434 
L 278.365097 306.989551 
L 281.611641 306.989551 
L 281.611641 306.873749 
L 288.104728 306.854449 
L 288.104728 307.197994 
L 291.351271 307.197994 
L 291.351271 306.804268 
L 294.597814 306.804268 
L 294.597814 306.549504 
L 297.844358 306.549504 
L 297.844358 307.514519 
L 301.090915 307.514519 
L 301.090915 307.356256 
L 317.323632 307.356256 
L 317.323632 307.109213 
L 320.570176 307.109213 
L 320.570176 307.456618 
L 323.816719 307.456618 
L 323.816719 307.584 
L 330.309806 307.475918 
L 330.309806 307.306076 
L 333.556377 307.306076 
L 333.556377 307.584 
L 340.049464 307.584 
L 340.049464 307.317656 
L 346.54255 307.321516 
L 346.54255 307.584 
L 349.789094 307.584 
L 349.789094 307.414157 
L 353.035637 307.414157 
L 353.035637 307.584 
L 356.282181 307.584 
L 356.282181 307.410297 
L 359.528724 307.410297 
L 359.528724 307.584 
L 372.514898 307.584 
L 372.514898 307.402577 
L 375.761441 307.402577 
L 375.761441 307.584 
L 398.487273 307.584 
L 398.487273 307.584 
" style="fill:none;stroke:#d62728;stroke-linejoin:miter;"/>
   </g>
   <g id="patch_7">
    <path clip-path="url(#pfa0300123c)" d="M 73.832727 307.584 
L 73.832727 307.244315 
L 77.079273 307.244315 
L 77.079273 291.545448 
L 80.325818 291.545448 
L 80.325818 249.320246 
L 83.572364 249.320246 
L 83.572364 223.917199 
L 86.818909 223.917199 
L 86.818909 203.234978 
L 90.065455 203.234978 
L 90.065455 189.107163 
L 93.312 189.107163 
L 93.312 183.066162 
L 96.558545 183.066162 
L 96.558545 168.023519 
L 99.80509 168.023519 
L 99.80509 158.107014 
L 103.051636 158.107014 
L 103.051636 156.601606 
L 106.298182 156.601606 
L 106.298182 157.941057 
L 109.544726 157.941057 
L 109.544726 146.19487 
L 112.791273 146.19487 
L 112.791273 136.787904 
L 116.03782 136.787904 
L 116.03782 139.767888 
L 119.284363 139.767888 
L 119.284363 125.86779 
L 122.53091 125.86779 
L 122.53091 99.040382 
L 125.777453 99.040382 
L 125.777453 96.099013 
L 129.024 96.099013 
L 129.024 62.504905 
L 132.270547 62.504905 
L 132.270547 73.722255 
L 135.51709 73.722255 
L 135.51709 54.144 
L 138.763634 54.144 
L 138.763634 76.875881 
L 142.010184 76.875881 
L 142.010184 97.866915 
L 145.256728 97.866915 
L 145.256728 86.433444 
L 148.503271 86.433444 
L 148.503271 123.200503 
L 151.749821 123.200503 
L 151.749821 139.030623 
L 154.996365 139.030623 
L 154.996365 163.449337 
L 158.242908 163.449337 
L 158.242908 182.220826 
L 161.489452 182.220826 
L 161.489452 199.930774 
L 164.736002 199.930774 
L 164.736002 210.89335 
L 167.982545 210.89335 
L 167.982545 221.018283 
L 171.229089 221.018283 
L 171.229089 233.459255 
L 174.475639 233.459255 
L 174.475639 242.260194 
L 177.722182 242.260194 
L 177.722182 250.787075 
L 180.968726 250.787075 
L 180.968726 260.097534 
L 184.215276 260.097534 
L 184.215276 264.752771 
L 187.46182 264.752771 
L 187.46182 271.859143 
L 190.70837 271.859143 
L 190.70837 276.861782 
L 193.954913 276.861782 
L 193.954913 280.26249 
L 197.201457 280.26249 
L 197.201457 286.585269 
L 200.448 286.585269 
L 200.448 287.824353 
L 203.694544 287.824353 
L 203.694544 291.398767 
L 206.941087 291.398767 
L 206.941087 289.742802 
L 210.18763 289.742802 
L 210.18763 295.034944 
L 213.434188 295.034944 
L 213.434188 295.949778 
L 216.680731 295.949778 
L 216.680731 295.833977 
L 219.927274 295.833977 
L 219.927274 296.717929 
L 226.420361 296.74881 
L 226.420361 298.590058 
L 229.666905 298.590058 
L 229.666905 300.292345 
L 232.913448 300.292345 
L 232.913448 302.662423 
L 236.160005 302.662423 
L 236.160005 300.821173 
L 239.406549 300.821173 
L 239.406549 300.952418 
L 242.653092 300.952418 
L 242.653092 304.35699 
L 245.899636 304.35699 
L 245.899636 304.522972 
L 249.146179 304.522972 
L 249.146179 304.218028 
L 252.392722 304.218028 
L 252.392722 304.399451 
L 255.63928 304.399451 
L 255.63928 304.777736 
L 258.885823 304.777736 
L 258.885823 306.487743 
L 262.132366 306.487743 
L 262.132366 306.91235 
L 265.37891 306.91235 
L 265.37891 303.635158 
L 268.625453 303.635158 
L 268.625453 304.140826 
L 271.871997 304.140826 
L 271.871997 306.113317 
L 275.11854 306.113317 
L 275.11854 305.758191 
L 278.365097 305.758191 
L 278.365097 306.256139 
L 281.611641 306.256139 
L 281.611641 305.978215 
L 284.858184 305.978215 
L 284.858184 305.507287 
L 288.104728 305.507287 
L 288.104728 306.750227 
L 291.351271 306.750227 
L 291.351271 306.514763 
L 294.597814 306.514763 
L 294.597814 306.997271 
L 297.844358 306.997271 
L 297.844358 307.402577 
L 301.090915 307.402577 
L 301.090915 306.811988 
L 304.337458 306.811988 
L 304.337458 306.661446 
L 307.584002 306.661446 
L 307.584002 307.394857 
L 314.077089 307.379417 
L 314.077089 306.765667 
L 317.323632 306.765667 
L 317.323632 307.390997 
L 320.570176 307.390997 
L 320.570176 306.92779 
L 323.816719 306.92779 
L 323.816719 307.584 
L 327.063263 307.584 
L 327.063263 307.147813 
L 330.309806 307.147813 
L 330.309806 307.584 
L 340.049464 307.584 
L 340.049464 306.93165 
L 343.296007 306.93165 
L 343.296007 307.584 
L 356.282181 307.584 
L 356.282181 307.418017 
L 359.528724 307.418017 
L 359.528724 307.584 
L 382.254556 307.584 
L 382.254556 307.336956 
L 385.501099 307.336956 
L 385.501099 307.584 
L 395.240729 307.584 
L 395.240729 307.302216 
L 398.487273 307.302216 
L 398.487273 307.584 
L 398.487273 307.584 
" style="fill:none;stroke:#9467bd;stroke-linejoin:miter;"/>
   </g>
   <g id="patch_8">
    <path clip-path="url(#pfa0300123c)" d="M 73.832727 307.584 
L 398.487273 307.584 
L 398.487273 307.584 
" style="fill:none;stroke:#000000;stroke-linejoin:miter;"/>
   </g>
   <g id="matplotlib.axis_1">
    <g id="xtick_1">
     <g id="line2d_1">
      <defs>
       <path d="M 0 0 
L 0 3.5 
" id="m6c226767e6" style="stroke:#000000;stroke-width:0.8;"/>
      </defs>
      <g>
       <use style="stroke:#000000;stroke-width:0.8;" x="73.817379" xlink:href="#m6c226767e6" y="307.584"/>
      </g>
     </g>
     <g id="text_1">
      <!-- 0 -->
      <defs>
       <path d="M 31.78125 66.40625 
Q 24.171875 66.40625 20.328125 58.90625 
Q 16.5 51.421875 16.5 36.375 
Q 16.5 21.390625 20.328125 13.890625 
Q 24.171875 6.390625 31.78125 6.390625 
Q 39.453125 6.390625 43.28125 13.890625 
Q 47.125 21.390625 47.125 36.375 
Q 47.125 51.421875 43.28125 58.90625 
Q 39.453125 66.40625 31.78125 66.40625 
z
M 31.78125 74.21875 
Q 44.046875 74.21875 50.515625 64.515625 
Q 56.984375 54.828125 56.984375 36.375 
Q 56.984375 17.96875 50.515625 8.265625 
Q 44.046875 -1.421875 31.78125 -1.421875 
Q 19.53125 -1.421875 13.0625 8.265625 
Q 6.59375 17.96875 6.59375 36.375 
Q 6.59375 54.828125 13.0625 64.515625 
Q 19.53125 74.21875 31.78125 74.21875 
z
" id="DejaVuSans-48"/>
      </defs>
      <g transform="translate(70.636129 322.182437)scale(0.1 -0.1)">
       <use xlink:href="#DejaVuSans-48"/>
      </g>
     </g>
    </g>
    <g id="xtick_2">
     <g id="line2d_2">
      <g>
       <use style="stroke:#000000;stroke-width:0.8;" x="130.927002" xlink:href="#m6c226767e6" y="307.584"/>
      </g>
     </g>
     <g id="text_2">
      <!-- 1 -->
      <defs>
       <path d="M 12.40625 8.296875 
L 28.515625 8.296875 
L 28.515625 63.921875 
L 10.984375 60.40625 
L 10.984375 69.390625 
L 28.421875 72.90625 
L 38.28125 72.90625 
L 38.28125 8.296875 
L 54.390625 8.296875 
L 54.390625 0 
L 12.40625 0 
z
" id="DejaVuSans-49"/>
      </defs>
      <g transform="translate(127.745752 322.182437)scale(0.1 -0.1)">
       <use xlink:href="#DejaVuSans-49"/>
      </g>
     </g>
    </g>
    <g id="xtick_3">
     <g id="line2d_3">
      <g>
       <use style="stroke:#000000;stroke-width:0.8;" x="188.036626" xlink:href="#m6c226767e6" y="307.584"/>
      </g>
     </g>
     <g id="text_3">
      <!-- 2 -->
      <defs>
       <path d="M 19.1875 8.296875 
L 53.609375 8.296875 
L 53.609375 0 
L 7.328125 0 
L 7.328125 8.296875 
Q 12.9375 14.109375 22.625 23.890625 
Q 32.328125 33.6875 34.8125 36.53125 
Q 39.546875 41.84375 41.421875 45.53125 
Q 43.3125 49.21875 43.3125 52.78125 
Q 43.3125 58.59375 39.234375 62.25 
Q 35.15625 65.921875 28.609375 65.921875 
Q 23.96875 65.921875 18.8125 64.3125 
Q 13.671875 62.703125 7.8125 59.421875 
L 7.8125 69.390625 
Q 13.765625 71.78125 18.9375 73 
Q 24.125 74.21875 28.421875 74.21875 
Q 39.75 74.21875 46.484375 68.546875 
Q 53.21875 62.890625 53.21875 53.421875 
Q 53.21875 48.921875 51.53125 44.890625 
Q 49.859375 40.875 45.40625 35.40625 
Q 44.1875 33.984375 37.640625 27.21875 
Q 31.109375 20.453125 19.1875 8.296875 
z
" id="DejaVuSans-50"/>
      </defs>
      <g transform="translate(184.855376 322.182437)scale(0.1 -0.1)">
       <use xlink:href="#DejaVuSans-50"/>
      </g>
     </g>
    </g>
    <g id="xtick_4">
     <g id="line2d_4">
      <g>
       <use style="stroke:#000000;stroke-width:0.8;" x="245.146249" xlink:href="#m6c226767e6" y="307.584"/>
      </g>
     </g>
     <g id="text_4">
      <!-- 3 -->
      <defs>
       <path d="M 40.578125 39.3125 
Q 47.65625 37.796875 51.625 33 
Q 55.609375 28.21875 55.609375 21.1875 
Q 55.609375 10.40625 48.1875 4.484375 
Q 40.765625 -1.421875 27.09375 -1.421875 
Q 22.515625 -1.421875 17.65625 -0.515625 
Q 12.796875 0.390625 7.625 2.203125 
L 7.625 11.71875 
Q 11.71875 9.328125 16.59375 8.109375 
Q 21.484375 6.890625 26.8125 6.890625 
Q 36.078125 6.890625 40.9375 10.546875 
Q 45.796875 14.203125 45.796875 21.1875 
Q 45.796875 27.640625 41.28125 31.265625 
Q 36.765625 34.90625 28.71875 34.90625 
L 20.21875 34.90625 
L 20.21875 43.015625 
L 29.109375 43.015625 
Q 36.375 43.015625 40.234375 45.921875 
Q 44.09375 48.828125 44.09375 54.296875 
Q 44.09375 59.90625 40.109375 62.90625 
Q 36.140625 65.921875 28.71875 65.921875 
Q 24.65625 65.921875 20.015625 65.03125 
Q 15.375 64.15625 9.8125 62.3125 
L 9.8125 71.09375 
Q 15.4375 72.65625 20.34375 73.4375 
Q 25.25 74.21875 29.59375 74.21875 
Q 40.828125 74.21875 47.359375 69.109375 
Q 53.90625 64.015625 53.90625 55.328125 
Q 53.90625 49.265625 50.4375 45.09375 
Q 46.96875 40.921875 40.578125 39.3125 
z
" id="DejaVuSans-51"/>
      </defs>
      <g transform="translate(241.964999 322.182437)scale(0.1 -0.1)">
       <use xlink:href="#DejaVuSans-51"/>
      </g>
     </g>
    </g>
    <g id="xtick_5">
     <g id="line2d_5">
      <g>
       <use style="stroke:#000000;stroke-width:0.8;" x="302.255872" xlink:href="#m6c226767e6" y="307.584"/>
      </g>
     </g>
     <g id="text_5">
      <!-- 4 -->
      <defs>
       <path d="M 37.796875 64.3125 
L 12.890625 25.390625 
L 37.796875 25.390625 
z
M 35.203125 72.90625 
L 47.609375 72.90625 
L 47.609375 25.390625 
L 58.015625 25.390625 
L 58.015625 17.1875 
L 47.609375 17.1875 
L 47.609375 0 
L 37.796875 0 
L 37.796875 17.1875 
L 4.890625 17.1875 
L 4.890625 26.703125 
z
" id="DejaVuSans-52"/>
      </defs>
      <g transform="translate(299.074622 322.182437)scale(0.1 -0.1)">
       <use xlink:href="#DejaVuSans-52"/>
      </g>
     </g>
    </g>
    <g id="xtick_6">
     <g id="line2d_6">
      <g>
       <use style="stroke:#000000;stroke-width:0.8;" x="359.365496" xlink:href="#m6c226767e6" y="307.584"/>
      </g>
     </g>
     <g id="text_6">
      <!-- 5 -->
      <defs>
       <path d="M 10.796875 72.90625 
L 49.515625 72.90625 
L 49.515625 64.59375 
L 19.828125 64.59375 
L 19.828125 46.734375 
Q 21.96875 47.46875 24.109375 47.828125 
Q 26.265625 48.1875 28.421875 48.1875 
Q 40.625 48.1875 47.75 41.5 
Q 54.890625 34.8125 54.890625 23.390625 
Q 54.890625 11.625 47.5625 5.09375 
Q 40.234375 -1.421875 26.90625 -1.421875 
Q 22.3125 -1.421875 17.546875 -0.640625 
Q 12.796875 0.140625 7.71875 1.703125 
L 7.71875 11.625 
Q 12.109375 9.234375 16.796875 8.0625 
Q 21.484375 6.890625 26.703125 6.890625 
Q 35.15625 6.890625 40.078125 11.328125 
Q 45.015625 15.765625 45.015625 23.390625 
Q 45.015625 31 40.078125 35.4375 
Q 35.15625 39.890625 26.703125 39.890625 
Q 22.75 39.890625 18.8125 39.015625 
Q 14.890625 38.140625 10.796875 36.28125 
z
" id="DejaVuSans-53"/>
      </defs>
      <g transform="translate(356.184246 322.182437)scale(0.1 -0.1)">
       <use xlink:href="#DejaVuSans-53"/>
      </g>
     </g>
    </g>
    <g id="text_7">
     <!-- j_d2_b2_mmdt -->
     <defs>
      <path d="M 9.421875 54.6875 
L 18.40625 54.6875 
L 18.40625 -0.984375 
Q 18.40625 -11.421875 14.421875 -16.109375 
Q 10.453125 -20.796875 1.609375 -20.796875 
L -1.8125 -20.796875 
L -1.8125 -13.1875 
L 0.59375 -13.1875 
Q 5.71875 -13.1875 7.5625 -10.8125 
Q 9.421875 -8.453125 9.421875 -0.984375 
z
M 9.421875 75.984375 
L 18.40625 75.984375 
L 18.40625 64.59375 
L 9.421875 64.59375 
z
" id="DejaVuSans-106"/>
      <path d="M 50.984375 -16.609375 
L 50.984375 -23.578125 
L -0.984375 -23.578125 
L -0.984375 -16.609375 
z
" id="DejaVuSans-95"/>
      <path d="M 45.40625 46.390625 
L 45.40625 75.984375 
L 54.390625 75.984375 
L 54.390625 0 
L 45.40625 0 
L 45.40625 8.203125 
Q 42.578125 3.328125 38.25 0.953125 
Q 33.9375 -1.421875 27.875 -1.421875 
Q 17.96875 -1.421875 11.734375 6.484375 
Q 5.515625 14.40625 5.515625 27.296875 
Q 5.515625 40.1875 11.734375 48.09375 
Q 17.96875 56 27.875 56 
Q 33.9375 56 38.25 53.625 
Q 42.578125 51.265625 45.40625 46.390625 
z
M 14.796875 27.296875 
Q 14.796875 17.390625 18.875 11.75 
Q 22.953125 6.109375 30.078125 6.109375 
Q 37.203125 6.109375 41.296875 11.75 
Q 45.40625 17.390625 45.40625 27.296875 
Q 45.40625 37.203125 41.296875 42.84375 
Q 37.203125 48.484375 30.078125 48.484375 
Q 22.953125 48.484375 18.875 42.84375 
Q 14.796875 37.203125 14.796875 27.296875 
z
" id="DejaVuSans-100"/>
      <path d="M 48.6875 27.296875 
Q 48.6875 37.203125 44.609375 42.84375 
Q 40.53125 48.484375 33.40625 48.484375 
Q 26.265625 48.484375 22.1875 42.84375 
Q 18.109375 37.203125 18.109375 27.296875 
Q 18.109375 17.390625 22.1875 11.75 
Q 26.265625 6.109375 33.40625 6.109375 
Q 40.53125 6.109375 44.609375 11.75 
Q 48.6875 17.390625 48.6875 27.296875 
z
M 18.109375 46.390625 
Q 20.953125 51.265625 25.265625 53.625 
Q 29.59375 56 35.59375 56 
Q 45.5625 56 51.78125 48.09375 
Q 58.015625 40.1875 58.015625 27.296875 
Q 58.015625 14.40625 51.78125 6.484375 
Q 45.5625 -1.421875 35.59375 -1.421875 
Q 29.59375 -1.421875 25.265625 0.953125 
Q 20.953125 3.328125 18.109375 8.203125 
L 18.109375 0 
L 9.078125 0 
L 9.078125 75.984375 
L 18.109375 75.984375 
z
" id="DejaVuSans-98"/>
      <path d="M 52 44.1875 
Q 55.375 50.25 60.0625 53.125 
Q 64.75 56 71.09375 56 
Q 79.640625 56 84.28125 50.015625 
Q 88.921875 44.046875 88.921875 33.015625 
L 88.921875 0 
L 79.890625 0 
L 79.890625 32.71875 
Q 79.890625 40.578125 77.09375 44.375 
Q 74.3125 48.1875 68.609375 48.1875 
Q 61.625 48.1875 57.5625 43.546875 
Q 53.515625 38.921875 53.515625 30.90625 
L 53.515625 0 
L 44.484375 0 
L 44.484375 32.71875 
Q 44.484375 40.625 41.703125 44.40625 
Q 38.921875 48.1875 33.109375 48.1875 
Q 26.21875 48.1875 22.15625 43.53125 
Q 18.109375 38.875 18.109375 30.90625 
L 18.109375 0 
L 9.078125 0 
L 9.078125 54.6875 
L 18.109375 54.6875 
L 18.109375 46.1875 
Q 21.1875 51.21875 25.484375 53.609375 
Q 29.78125 56 35.6875 56 
Q 41.65625 56 45.828125 52.96875 
Q 50 49.953125 52 44.1875 
z
" id="DejaVuSans-109"/>
      <path d="M 18.3125 70.21875 
L 18.3125 54.6875 
L 36.8125 54.6875 
L 36.8125 47.703125 
L 18.3125 47.703125 
L 18.3125 18.015625 
Q 18.3125 11.328125 20.140625 9.421875 
Q 21.96875 7.515625 27.59375 7.515625 
L 36.8125 7.515625 
L 36.8125 0 
L 27.59375 0 
Q 17.1875 0 13.234375 3.875 
Q 9.28125 7.765625 9.28125 18.015625 
L 9.28125 47.703125 
L 2.6875 47.703125 
L 2.6875 54.6875 
L 9.28125 54.6875 
L 9.28125 70.21875 
z
" id="DejaVuSans-116"/>
     </defs>
     <g transform="translate(199.685 335.860562)scale(0.1 -0.1)">
      <use xlink:href="#DejaVuSans-106"/>
      <use x="27.783203" xlink:href="#DejaVuSans-95"/>
      <use x="77.783203" xlink:href="#DejaVuSans-100"/>
      <use x="141.259766" xlink:href="#DejaVuSans-50"/>
      <use x="204.882812" xlink:href="#DejaVuSans-95"/>
      <use x="254.882812" xlink:href="#DejaVuSans-98"/>
      <use x="318.359375" xlink:href="#DejaVuSans-50"/>
      <use x="381.982422" xlink:href="#DejaVuSans-95"/>
      <use x="431.982422" xlink:href="#DejaVuSans-109"/>
      <use x="529.394531" xlink:href="#DejaVuSans-109"/>
      <use x="626.806641" xlink:href="#DejaVuSans-100"/>
      <use x="690.283203" xlink:href="#DejaVuSans-116"/>
     </g>
    </g>
   </g>
   <g id="matplotlib.axis_2">
    <g id="ytick_1">
     <g id="line2d_7">
      <defs>
       <path d="M 0 0 
L -3.5 0 
" id="mfe336dfb64" style="stroke:#000000;stroke-width:0.8;"/>
      </defs>
      <g>
       <use style="stroke:#000000;stroke-width:0.8;" x="57.6" xlink:href="#mfe336dfb64" y="307.584"/>
      </g>
     </g>
     <g id="text_8">
      <!-- 0.000 -->
      <defs>
       <path d="M 10.6875 12.40625 
L 21 12.40625 
L 21 0 
L 10.6875 0 
z
" id="DejaVuSans-46"/>
      </defs>
      <g transform="translate(21.971875 311.383219)scale(0.1 -0.1)">
       <use xlink:href="#DejaVuSans-48"/>
       <use x="63.623047" xlink:href="#DejaVuSans-46"/>
       <use x="95.410156" xlink:href="#DejaVuSans-48"/>
       <use x="159.033203" xlink:href="#DejaVuSans-48"/>
       <use x="222.65625" xlink:href="#DejaVuSans-48"/>
      </g>
     </g>
    </g>
    <g id="ytick_2">
     <g id="line2d_8">
      <g>
       <use style="stroke:#000000;stroke-width:0.8;" x="57.6" xlink:href="#mfe336dfb64" y="268.057686"/>
      </g>
     </g>
     <g id="text_9">
      <!-- 0.002 -->
      <g transform="translate(21.971875 271.856905)scale(0.1 -0.1)">
       <use xlink:href="#DejaVuSans-48"/>
       <use x="63.623047" xlink:href="#DejaVuSans-46"/>
       <use x="95.410156" xlink:href="#DejaVuSans-48"/>
       <use x="159.033203" xlink:href="#DejaVuSans-48"/>
       <use x="222.65625" xlink:href="#DejaVuSans-50"/>
      </g>
     </g>
    </g>
    <g id="ytick_3">
     <g id="line2d_9">
      <g>
       <use style="stroke:#000000;stroke-width:0.8;" x="57.6" xlink:href="#mfe336dfb64" y="228.531372"/>
      </g>
     </g>
     <g id="text_10">
      <!-- 0.004 -->
      <g transform="translate(21.971875 232.33059)scale(0.1 -0.1)">
       <use xlink:href="#DejaVuSans-48"/>
       <use x="63.623047" xlink:href="#DejaVuSans-46"/>
       <use x="95.410156" xlink:href="#DejaVuSans-48"/>
       <use x="159.033203" xlink:href="#DejaVuSans-48"/>
       <use x="222.65625" xlink:href="#DejaVuSans-52"/>
      </g>
     </g>
    </g>
    <g id="ytick_4">
     <g id="line2d_10">
      <g>
       <use style="stroke:#000000;stroke-width:0.8;" x="57.6" xlink:href="#mfe336dfb64" y="189.005057"/>
      </g>
     </g>
     <g id="text_11">
      <!-- 0.006 -->
      <defs>
       <path d="M 33.015625 40.375 
Q 26.375 40.375 22.484375 35.828125 
Q 18.609375 31.296875 18.609375 23.390625 
Q 18.609375 15.53125 22.484375 10.953125 
Q 26.375 6.390625 33.015625 6.390625 
Q 39.65625 6.390625 43.53125 10.953125 
Q 47.40625 15.53125 47.40625 23.390625 
Q 47.40625 31.296875 43.53125 35.828125 
Q 39.65625 40.375 33.015625 40.375 
z
M 52.59375 71.296875 
L 52.59375 62.3125 
Q 48.875 64.0625 45.09375 64.984375 
Q 41.3125 65.921875 37.59375 65.921875 
Q 27.828125 65.921875 22.671875 59.328125 
Q 17.53125 52.734375 16.796875 39.40625 
Q 19.671875 43.65625 24.015625 45.921875 
Q 28.375 48.1875 33.59375 48.1875 
Q 44.578125 48.1875 50.953125 41.515625 
Q 57.328125 34.859375 57.328125 23.390625 
Q 57.328125 12.15625 50.6875 5.359375 
Q 44.046875 -1.421875 33.015625 -1.421875 
Q 20.359375 -1.421875 13.671875 8.265625 
Q 6.984375 17.96875 6.984375 36.375 
Q 6.984375 53.65625 15.1875 63.9375 
Q 23.390625 74.21875 37.203125 74.21875 
Q 40.921875 74.21875 44.703125 73.484375 
Q 48.484375 72.75 52.59375 71.296875 
z
" id="DejaVuSans-54"/>
      </defs>
      <g transform="translate(21.971875 192.804276)scale(0.1 -0.1)">
       <use xlink:href="#DejaVuSans-48"/>
       <use x="63.623047" xlink:href="#DejaVuSans-46"/>
       <use x="95.410156" xlink:href="#DejaVuSans-48"/>
       <use x="159.033203" xlink:href="#DejaVuSans-48"/>
       <use x="222.65625" xlink:href="#DejaVuSans-54"/>
      </g>
     </g>
    </g>
    <g id="ytick_5">
     <g id="line2d_11">
      <g>
       <use style="stroke:#000000;stroke-width:0.8;" x="57.6" xlink:href="#mfe336dfb64" y="149.478743"/>
      </g>
     </g>
     <g id="text_12">
      <!-- 0.008 -->
      <defs>
       <path d="M 31.78125 34.625 
Q 24.75 34.625 20.71875 30.859375 
Q 16.703125 27.09375 16.703125 20.515625 
Q 16.703125 13.921875 20.71875 10.15625 
Q 24.75 6.390625 31.78125 6.390625 
Q 38.8125 6.390625 42.859375 10.171875 
Q 46.921875 13.96875 46.921875 20.515625 
Q 46.921875 27.09375 42.890625 30.859375 
Q 38.875 34.625 31.78125 34.625 
z
M 21.921875 38.8125 
Q 15.578125 40.375 12.03125 44.71875 
Q 8.5 49.078125 8.5 55.328125 
Q 8.5 64.0625 14.71875 69.140625 
Q 20.953125 74.21875 31.78125 74.21875 
Q 42.671875 74.21875 48.875 69.140625 
Q 55.078125 64.0625 55.078125 55.328125 
Q 55.078125 49.078125 51.53125 44.71875 
Q 48 40.375 41.703125 38.8125 
Q 48.828125 37.15625 52.796875 32.3125 
Q 56.78125 27.484375 56.78125 20.515625 
Q 56.78125 9.90625 50.3125 4.234375 
Q 43.84375 -1.421875 31.78125 -1.421875 
Q 19.734375 -1.421875 13.25 4.234375 
Q 6.78125 9.90625 6.78125 20.515625 
Q 6.78125 27.484375 10.78125 32.3125 
Q 14.796875 37.15625 21.921875 38.8125 
z
M 18.3125 54.390625 
Q 18.3125 48.734375 21.84375 45.5625 
Q 25.390625 42.390625 31.78125 42.390625 
Q 38.140625 42.390625 41.71875 45.5625 
Q 45.3125 48.734375 45.3125 54.390625 
Q 45.3125 60.0625 41.71875 63.234375 
Q 38.140625 66.40625 31.78125 66.40625 
Q 25.390625 66.40625 21.84375 63.234375 
Q 18.3125 60.0625 18.3125 54.390625 
z
" id="DejaVuSans-56"/>
      </defs>
      <g transform="translate(21.971875 153.277962)scale(0.1 -0.1)">
       <use xlink:href="#DejaVuSans-48"/>
       <use x="63.623047" xlink:href="#DejaVuSans-46"/>
       <use x="95.410156" xlink:href="#DejaVuSans-48"/>
       <use x="159.033203" xlink:href="#DejaVuSans-48"/>
       <use x="222.65625" xlink:href="#DejaVuSans-56"/>
      </g>
     </g>
    </g>
    <g id="ytick_6">
     <g id="line2d_12">
      <g>
       <use style="stroke:#000000;stroke-width:0.8;" x="57.6" xlink:href="#mfe336dfb64" y="109.952429"/>
      </g>
     </g>
     <g id="text_13">
      <!-- 0.010 -->
      <g transform="translate(21.971875 113.751648)scale(0.1 -0.1)">
       <use xlink:href="#DejaVuSans-48"/>
       <use x="63.623047" xlink:href="#DejaVuSans-46"/>
       <use x="95.410156" xlink:href="#DejaVuSans-48"/>
       <use x="159.033203" xlink:href="#DejaVuSans-49"/>
       <use x="222.65625" xlink:href="#DejaVuSans-48"/>
      </g>
     </g>
    </g>
    <g id="ytick_7">
     <g id="line2d_13">
      <g>
       <use style="stroke:#000000;stroke-width:0.8;" x="57.6" xlink:href="#mfe336dfb64" y="70.426115"/>
      </g>
     </g>
     <g id="text_14">
      <!-- 0.012 -->
      <g transform="translate(21.971875 74.225333)scale(0.1 -0.1)">
       <use xlink:href="#DejaVuSans-48"/>
       <use x="63.623047" xlink:href="#DejaVuSans-46"/>
       <use x="95.410156" xlink:href="#DejaVuSans-48"/>
       <use x="159.033203" xlink:href="#DejaVuSans-49"/>
       <use x="222.65625" xlink:href="#DejaVuSans-50"/>
      </g>
     </g>
    </g>
    <g id="text_15">
     <!-- Prob. Density (a.u.) -->
     <defs>
      <path d="M 19.671875 64.796875 
L 19.671875 37.40625 
L 32.078125 37.40625 
Q 38.96875 37.40625 42.71875 40.96875 
Q 46.484375 44.53125 46.484375 51.125 
Q 46.484375 57.671875 42.71875 61.234375 
Q 38.96875 64.796875 32.078125 64.796875 
z
M 9.8125 72.90625 
L 32.078125 72.90625 
Q 44.34375 72.90625 50.609375 67.359375 
Q 56.890625 61.8125 56.890625 51.125 
Q 56.890625 40.328125 50.609375 34.8125 
Q 44.34375 29.296875 32.078125 29.296875 
L 19.671875 29.296875 
L 19.671875 0 
L 9.8125 0 
z
" id="DejaVuSans-80"/>
      <path d="M 41.109375 46.296875 
Q 39.59375 47.171875 37.8125 47.578125 
Q 36.03125 48 33.890625 48 
Q 26.265625 48 22.1875 43.046875 
Q 18.109375 38.09375 18.109375 28.8125 
L 18.109375 0 
L 9.078125 0 
L 9.078125 54.6875 
L 18.109375 54.6875 
L 18.109375 46.1875 
Q 20.953125 51.171875 25.484375 53.578125 
Q 30.03125 56 36.53125 56 
Q 37.453125 56 38.578125 55.875 
Q 39.703125 55.765625 41.0625 55.515625 
z
" id="DejaVuSans-114"/>
      <path d="M 30.609375 48.390625 
Q 23.390625 48.390625 19.1875 42.75 
Q 14.984375 37.109375 14.984375 27.296875 
Q 14.984375 17.484375 19.15625 11.84375 
Q 23.34375 6.203125 30.609375 6.203125 
Q 37.796875 6.203125 41.984375 11.859375 
Q 46.1875 17.53125 46.1875 27.296875 
Q 46.1875 37.015625 41.984375 42.703125 
Q 37.796875 48.390625 30.609375 48.390625 
z
M 30.609375 56 
Q 42.328125 56 49.015625 48.375 
Q 55.71875 40.765625 55.71875 27.296875 
Q 55.71875 13.875 49.015625 6.21875 
Q 42.328125 -1.421875 30.609375 -1.421875 
Q 18.84375 -1.421875 12.171875 6.21875 
Q 5.515625 13.875 5.515625 27.296875 
Q 5.515625 40.765625 12.171875 48.375 
Q 18.84375 56 30.609375 56 
z
" id="DejaVuSans-111"/>
      <path id="DejaVuSans-32"/>
      <path d="M 19.671875 64.796875 
L 19.671875 8.109375 
L 31.59375 8.109375 
Q 46.6875 8.109375 53.6875 14.9375 
Q 60.6875 21.78125 60.6875 36.53125 
Q 60.6875 51.171875 53.6875 57.984375 
Q 46.6875 64.796875 31.59375 64.796875 
z
M 9.8125 72.90625 
L 30.078125 72.90625 
Q 51.265625 72.90625 61.171875 64.09375 
Q 71.09375 55.28125 71.09375 36.53125 
Q 71.09375 17.671875 61.125 8.828125 
Q 51.171875 0 30.078125 0 
L 9.8125 0 
z
" id="DejaVuSans-68"/>
      <path d="M 56.203125 29.59375 
L 56.203125 25.203125 
L 14.890625 25.203125 
Q 15.484375 15.921875 20.484375 11.0625 
Q 25.484375 6.203125 34.421875 6.203125 
Q 39.59375 6.203125 44.453125 7.46875 
Q 49.3125 8.734375 54.109375 11.28125 
L 54.109375 2.78125 
Q 49.265625 0.734375 44.1875 -0.34375 
Q 39.109375 -1.421875 33.890625 -1.421875 
Q 20.796875 -1.421875 13.15625 6.1875 
Q 5.515625 13.8125 5.515625 26.8125 
Q 5.515625 40.234375 12.765625 48.109375 
Q 20.015625 56 32.328125 56 
Q 43.359375 56 49.78125 48.890625 
Q 56.203125 41.796875 56.203125 29.59375 
z
M 47.21875 32.234375 
Q 47.125 39.59375 43.09375 43.984375 
Q 39.0625 48.390625 32.421875 48.390625 
Q 24.90625 48.390625 20.390625 44.140625 
Q 15.875 39.890625 15.1875 32.171875 
z
" id="DejaVuSans-101"/>
      <path d="M 54.890625 33.015625 
L 54.890625 0 
L 45.90625 0 
L 45.90625 32.71875 
Q 45.90625 40.484375 42.875 44.328125 
Q 39.84375 48.1875 33.796875 48.1875 
Q 26.515625 48.1875 22.3125 43.546875 
Q 18.109375 38.921875 18.109375 30.90625 
L 18.109375 0 
L 9.078125 0 
L 9.078125 54.6875 
L 18.109375 54.6875 
L 18.109375 46.1875 
Q 21.34375 51.125 25.703125 53.5625 
Q 30.078125 56 35.796875 56 
Q 45.21875 56 50.046875 50.171875 
Q 54.890625 44.34375 54.890625 33.015625 
z
" id="DejaVuSans-110"/>
      <path d="M 44.28125 53.078125 
L 44.28125 44.578125 
Q 40.484375 46.53125 36.375 47.5 
Q 32.28125 48.484375 27.875 48.484375 
Q 21.1875 48.484375 17.84375 46.4375 
Q 14.5 44.390625 14.5 40.28125 
Q 14.5 37.15625 16.890625 35.375 
Q 19.28125 33.59375 26.515625 31.984375 
L 29.59375 31.296875 
Q 39.15625 29.25 43.1875 25.515625 
Q 47.21875 21.78125 47.21875 15.09375 
Q 47.21875 7.46875 41.1875 3.015625 
Q 35.15625 -1.421875 24.609375 -1.421875 
Q 20.21875 -1.421875 15.453125 -0.5625 
Q 10.6875 0.296875 5.421875 2 
L 5.421875 11.28125 
Q 10.40625 8.6875 15.234375 7.390625 
Q 20.0625 6.109375 24.8125 6.109375 
Q 31.15625 6.109375 34.5625 8.28125 
Q 37.984375 10.453125 37.984375 14.40625 
Q 37.984375 18.0625 35.515625 20.015625 
Q 33.0625 21.96875 24.703125 23.78125 
L 21.578125 24.515625 
Q 13.234375 26.265625 9.515625 29.90625 
Q 5.8125 33.546875 5.8125 39.890625 
Q 5.8125 47.609375 11.28125 51.796875 
Q 16.75 56 26.8125 56 
Q 31.78125 56 36.171875 55.265625 
Q 40.578125 54.546875 44.28125 53.078125 
z
" id="DejaVuSans-115"/>
      <path d="M 9.421875 54.6875 
L 18.40625 54.6875 
L 18.40625 0 
L 9.421875 0 
z
M 9.421875 75.984375 
L 18.40625 75.984375 
L 18.40625 64.59375 
L 9.421875 64.59375 
z
" id="DejaVuSans-105"/>
      <path d="M 32.171875 -5.078125 
Q 28.375 -14.84375 24.75 -17.8125 
Q 21.140625 -20.796875 15.09375 -20.796875 
L 7.90625 -20.796875 
L 7.90625 -13.28125 
L 13.1875 -13.28125 
Q 16.890625 -13.28125 18.9375 -11.515625 
Q 21 -9.765625 23.484375 -3.21875 
L 25.09375 0.875 
L 2.984375 54.6875 
L 12.5 54.6875 
L 29.59375 11.921875 
L 46.6875 54.6875 
L 56.203125 54.6875 
z
" id="DejaVuSans-121"/>
      <path d="M 31 75.875 
Q 24.46875 64.65625 21.28125 53.65625 
Q 18.109375 42.671875 18.109375 31.390625 
Q 18.109375 20.125 21.3125 9.0625 
Q 24.515625 -2 31 -13.1875 
L 23.1875 -13.1875 
Q 15.875 -1.703125 12.234375 9.375 
Q 8.59375 20.453125 8.59375 31.390625 
Q 8.59375 42.28125 12.203125 53.3125 
Q 15.828125 64.359375 23.1875 75.875 
z
" id="DejaVuSans-40"/>
      <path d="M 34.28125 27.484375 
Q 23.390625 27.484375 19.1875 25 
Q 14.984375 22.515625 14.984375 16.5 
Q 14.984375 11.71875 18.140625 8.90625 
Q 21.296875 6.109375 26.703125 6.109375 
Q 34.1875 6.109375 38.703125 11.40625 
Q 43.21875 16.703125 43.21875 25.484375 
L 43.21875 27.484375 
z
M 52.203125 31.203125 
L 52.203125 0 
L 43.21875 0 
L 43.21875 8.296875 
Q 40.140625 3.328125 35.546875 0.953125 
Q 30.953125 -1.421875 24.3125 -1.421875 
Q 15.921875 -1.421875 10.953125 3.296875 
Q 6 8.015625 6 15.921875 
Q 6 25.140625 12.171875 29.828125 
Q 18.359375 34.515625 30.609375 34.515625 
L 43.21875 34.515625 
L 43.21875 35.40625 
Q 43.21875 41.609375 39.140625 45 
Q 35.0625 48.390625 27.6875 48.390625 
Q 23 48.390625 18.546875 47.265625 
Q 14.109375 46.140625 10.015625 43.890625 
L 10.015625 52.203125 
Q 14.9375 54.109375 19.578125 55.046875 
Q 24.21875 56 28.609375 56 
Q 40.484375 56 46.34375 49.84375 
Q 52.203125 43.703125 52.203125 31.203125 
z
" id="DejaVuSans-97"/>
      <path d="M 8.5 21.578125 
L 8.5 54.6875 
L 17.484375 54.6875 
L 17.484375 21.921875 
Q 17.484375 14.15625 20.5 10.265625 
Q 23.53125 6.390625 29.59375 6.390625 
Q 36.859375 6.390625 41.078125 11.03125 
Q 45.3125 15.671875 45.3125 23.6875 
L 45.3125 54.6875 
L 54.296875 54.6875 
L 54.296875 0 
L 45.3125 0 
L 45.3125 8.40625 
Q 42.046875 3.421875 37.71875 1 
Q 33.40625 -1.421875 27.6875 -1.421875 
Q 18.265625 -1.421875 13.375 4.4375 
Q 8.5 10.296875 8.5 21.578125 
z
M 31.109375 56 
z
" id="DejaVuSans-117"/>
      <path d="M 8.015625 75.875 
L 15.828125 75.875 
Q 23.140625 64.359375 26.78125 53.3125 
Q 30.421875 42.28125 30.421875 31.390625 
Q 30.421875 20.453125 26.78125 9.375 
Q 23.140625 -1.703125 15.828125 -13.1875 
L 8.015625 -13.1875 
Q 14.5 -2 17.703125 9.0625 
Q 20.90625 20.125 20.90625 31.390625 
Q 20.90625 42.671875 17.703125 53.65625 
Q 14.5 64.65625 8.015625 75.875 
z
" id="DejaVuSans-41"/>
     </defs>
     <g transform="translate(15.892187 222.917844)rotate(-90)scale(0.1 -0.1)">
      <use xlink:href="#DejaVuSans-80"/>
      <use x="60.287109" xlink:href="#DejaVuSans-114"/>
      <use x="101.369141" xlink:href="#DejaVuSans-111"/>
      <use x="162.550781" xlink:href="#DejaVuSans-98"/>
      <use x="226.027344" xlink:href="#DejaVuSans-46"/>
      <use x="257.814453" xlink:href="#DejaVuSans-32"/>
      <use x="289.601562" xlink:href="#DejaVuSans-68"/>
      <use x="366.603516" xlink:href="#DejaVuSans-101"/>
      <use x="428.126953" xlink:href="#DejaVuSans-110"/>
      <use x="491.505859" xlink:href="#DejaVuSans-115"/>
      <use x="543.605469" xlink:href="#DejaVuSans-105"/>
      <use x="571.388672" xlink:href="#DejaVuSans-116"/>
      <use x="610.597656" xlink:href="#DejaVuSans-121"/>
      <use x="669.777344" xlink:href="#DejaVuSans-32"/>
      <use x="701.564453" xlink:href="#DejaVuSans-40"/>
      <use x="740.578125" xlink:href="#DejaVuSans-97"/>
      <use x="801.857422" xlink:href="#DejaVuSans-46"/>
      <use x="833.644531" xlink:href="#DejaVuSans-117"/>
      <use x="897.023438" xlink:href="#DejaVuSans-46"/>
      <use x="928.810547" xlink:href="#DejaVuSans-41"/>
     </g>
    </g>
   </g>
   <g id="patch_9">
    <path d="M 57.6 307.584 
L 57.6 41.472 
" style="fill:none;stroke:#000000;stroke-linecap:square;stroke-linejoin:miter;stroke-width:0.8;"/>
   </g>
   <g id="patch_10">
    <path d="M 414.72 307.584 
L 414.72 41.472 
" style="fill:none;stroke:#000000;stroke-linecap:square;stroke-linejoin:miter;stroke-width:0.8;"/>
   </g>
   <g id="patch_11">
    <path d="M 57.6 307.584 
L 414.72 307.584 
" style="fill:none;stroke:#000000;stroke-linecap:square;stroke-linejoin:miter;stroke-width:0.8;"/>
   </g>
   <g id="patch_12">
    <path d="M 57.6 41.472 
L 414.72 41.472 
" style="fill:none;stroke:#000000;stroke-linecap:square;stroke-linejoin:miter;stroke-width:0.8;"/>
   </g>
   <g id="legend_1">
    <g id="patch_13">
     <path d="M 325.405938 137.54075 
L 407.72 137.54075 
Q 409.72 137.54075 409.72 135.54075 
L 409.72 48.472 
Q 409.72 46.472 407.72 46.472 
L 325.405938 46.472 
Q 323.405938 46.472 323.405938 48.472 
L 323.405938 135.54075 
Q 323.405938 137.54075 325.405938 137.54075 
z
" style="fill:#ffffff;opacity:0.8;stroke:#cccccc;stroke-linejoin:miter;"/>
    </g>
    <g id="patch_14">
     <path d="M 327.405938 58.070438 
L 347.405938 58.070438 
L 347.405938 51.070438 
L 327.405938 51.070438 
z
" style="fill:none;stroke:#1f77b4;stroke-linejoin:miter;"/>
    </g>
    <g id="text_16">
     <!-- quark -->
     <defs>
      <path d="M 14.796875 27.296875 
Q 14.796875 17.390625 18.875 11.75 
Q 22.953125 6.109375 30.078125 6.109375 
Q 37.203125 6.109375 41.296875 11.75 
Q 45.40625 17.390625 45.40625 27.296875 
Q 45.40625 37.203125 41.296875 42.84375 
Q 37.203125 48.484375 30.078125 48.484375 
Q 22.953125 48.484375 18.875 42.84375 
Q 14.796875 37.203125 14.796875 27.296875 
z
M 45.40625 8.203125 
Q 42.578125 3.328125 38.25 0.953125 
Q 33.9375 -1.421875 27.875 -1.421875 
Q 17.96875 -1.421875 11.734375 6.484375 
Q 5.515625 14.40625 5.515625 27.296875 
Q 5.515625 40.1875 11.734375 48.09375 
Q 17.96875 56 27.875 56 
Q 33.9375 56 38.25 53.625 
Q 42.578125 51.265625 45.40625 46.390625 
L 45.40625 54.6875 
L 54.390625 54.6875 
L 54.390625 -20.796875 
L 45.40625 -20.796875 
z
" id="DejaVuSans-113"/>
      <path d="M 9.078125 75.984375 
L 18.109375 75.984375 
L 18.109375 31.109375 
L 44.921875 54.6875 
L 56.390625 54.6875 
L 27.390625 29.109375 
L 57.625 0 
L 45.90625 0 
L 18.109375 26.703125 
L 18.109375 0 
L 9.078125 0 
z
" id="DejaVuSans-107"/>
     </defs>
     <g transform="translate(355.405938 58.070438)scale(0.1 -0.1)">
      <use xlink:href="#DejaVuSans-113"/>
      <use x="63.476562" xlink:href="#DejaVuSans-117"/>
      <use x="126.855469" xlink:href="#DejaVuSans-97"/>
      <use x="188.134766" xlink:href="#DejaVuSans-114"/>
      <use x="229.248047" xlink:href="#DejaVuSans-107"/>
     </g>
    </g>
    <g id="patch_15">
     <path d="M 327.405938 72.748563 
L 347.405938 72.748563 
L 347.405938 65.748563 
L 327.405938 65.748563 
z
" style="fill:none;stroke:#ff7f0e;stroke-linejoin:miter;"/>
    </g>
    <g id="text_17">
     <!-- gluon -->
     <defs>
      <path d="M 45.40625 27.984375 
Q 45.40625 37.75 41.375 43.109375 
Q 37.359375 48.484375 30.078125 48.484375 
Q 22.859375 48.484375 18.828125 43.109375 
Q 14.796875 37.75 14.796875 27.984375 
Q 14.796875 18.265625 18.828125 12.890625 
Q 22.859375 7.515625 30.078125 7.515625 
Q 37.359375 7.515625 41.375 12.890625 
Q 45.40625 18.265625 45.40625 27.984375 
z
M 54.390625 6.78125 
Q 54.390625 -7.171875 48.1875 -13.984375 
Q 42 -20.796875 29.203125 -20.796875 
Q 24.46875 -20.796875 20.265625 -20.09375 
Q 16.0625 -19.390625 12.109375 -17.921875 
L 12.109375 -9.1875 
Q 16.0625 -11.328125 19.921875 -12.34375 
Q 23.78125 -13.375 27.78125 -13.375 
Q 36.625 -13.375 41.015625 -8.765625 
Q 45.40625 -4.15625 45.40625 5.171875 
L 45.40625 9.625 
Q 42.625 4.78125 38.28125 2.390625 
Q 33.9375 0 27.875 0 
Q 17.828125 0 11.671875 7.65625 
Q 5.515625 15.328125 5.515625 27.984375 
Q 5.515625 40.671875 11.671875 48.328125 
Q 17.828125 56 27.875 56 
Q 33.9375 56 38.28125 53.609375 
Q 42.625 51.21875 45.40625 46.390625 
L 45.40625 54.6875 
L 54.390625 54.6875 
z
" id="DejaVuSans-103"/>
      <path d="M 9.421875 75.984375 
L 18.40625 75.984375 
L 18.40625 0 
L 9.421875 0 
z
" id="DejaVuSans-108"/>
     </defs>
     <g transform="translate(355.405938 72.748563)scale(0.1 -0.1)">
      <use xlink:href="#DejaVuSans-103"/>
      <use x="63.476562" xlink:href="#DejaVuSans-108"/>
      <use x="91.259766" xlink:href="#DejaVuSans-117"/>
      <use x="154.638672" xlink:href="#DejaVuSans-111"/>
      <use x="215.820312" xlink:href="#DejaVuSans-110"/>
     </g>
    </g>
    <g id="patch_16">
     <path d="M 327.405938 87.426688 
L 347.405938 87.426688 
L 347.405938 80.426688 
L 327.405938 80.426688 
z
" style="fill:none;stroke:#2ca02c;stroke-linejoin:miter;"/>
    </g>
    <g id="text_18">
     <!-- W -->
     <defs>
      <path d="M 3.328125 72.90625 
L 13.28125 72.90625 
L 28.609375 11.28125 
L 43.890625 72.90625 
L 54.984375 72.90625 
L 70.3125 11.28125 
L 85.59375 72.90625 
L 95.609375 72.90625 
L 77.296875 0 
L 64.890625 0 
L 49.515625 63.28125 
L 33.984375 0 
L 21.578125 0 
z
" id="DejaVuSans-87"/>
     </defs>
     <g transform="translate(355.405938 87.426688)scale(0.1 -0.1)">
      <use xlink:href="#DejaVuSans-87"/>
     </g>
    </g>
    <g id="patch_17">
     <path d="M 327.405938 102.104813 
L 347.405938 102.104813 
L 347.405938 95.104813 
L 327.405938 95.104813 
z
" style="fill:none;stroke:#d62728;stroke-linejoin:miter;"/>
    </g>
    <g id="text_19">
     <!-- Z -->
     <defs>
      <path d="M 5.609375 72.90625 
L 62.890625 72.90625 
L 62.890625 65.375 
L 16.796875 8.296875 
L 64.015625 8.296875 
L 64.015625 0 
L 4.5 0 
L 4.5 7.515625 
L 50.59375 64.59375 
L 5.609375 64.59375 
z
" id="DejaVuSans-90"/>
     </defs>
     <g transform="translate(355.405938 102.104813)scale(0.1 -0.1)">
      <use xlink:href="#DejaVuSans-90"/>
     </g>
    </g>
    <g id="patch_18">
     <path d="M 327.405938 116.782938 
L 347.405938 116.782938 
L 347.405938 109.782938 
L 327.405938 109.782938 
z
" style="fill:none;stroke:#9467bd;stroke-linejoin:miter;"/>
    </g>
    <g id="text_20">
     <!-- top -->
     <defs>
      <path d="M 18.109375 8.203125 
L 18.109375 -20.796875 
L 9.078125 -20.796875 
L 9.078125 54.6875 
L 18.109375 54.6875 
L 18.109375 46.390625 
Q 20.953125 51.265625 25.265625 53.625 
Q 29.59375 56 35.59375 56 
Q 45.5625 56 51.78125 48.09375 
Q 58.015625 40.1875 58.015625 27.296875 
Q 58.015625 14.40625 51.78125 6.484375 
Q 45.5625 -1.421875 35.59375 -1.421875 
Q 29.59375 -1.421875 25.265625 0.953125 
Q 20.953125 3.328125 18.109375 8.203125 
z
M 48.6875 27.296875 
Q 48.6875 37.203125 44.609375 42.84375 
Q 40.53125 48.484375 33.40625 48.484375 
Q 26.265625 48.484375 22.1875 42.84375 
Q 18.109375 37.203125 18.109375 27.296875 
Q 18.109375 17.390625 22.1875 11.75 
Q 26.265625 6.109375 33.40625 6.109375 
Q 40.53125 6.109375 44.609375 11.75 
Q 48.6875 17.390625 48.6875 27.296875 
z
" id="DejaVuSans-112"/>
     </defs>
     <g transform="translate(355.405938 116.782938)scale(0.1 -0.1)">
      <use xlink:href="#DejaVuSans-116"/>
      <use x="39.208984" xlink:href="#DejaVuSans-111"/>
      <use x="100.390625" xlink:href="#DejaVuSans-112"/>
     </g>
    </g>
    <g id="patch_19">
     <path d="M 327.405938 131.461063 
L 347.405938 131.461063 
L 347.405938 124.461063 
L 327.405938 124.461063 
z
" style="fill:none;stroke:#000000;stroke-linejoin:miter;"/>
    </g>
    <g id="text_21">
     <!-- undefined -->
     <defs>
      <path d="M 37.109375 75.984375 
L 37.109375 68.5 
L 28.515625 68.5 
Q 23.6875 68.5 21.796875 66.546875 
Q 19.921875 64.59375 19.921875 59.515625 
L 19.921875 54.6875 
L 34.71875 54.6875 
L 34.71875 47.703125 
L 19.921875 47.703125 
L 19.921875 0 
L 10.890625 0 
L 10.890625 47.703125 
L 2.296875 47.703125 
L 2.296875 54.6875 
L 10.890625 54.6875 
L 10.890625 58.5 
Q 10.890625 67.625 15.140625 71.796875 
Q 19.390625 75.984375 28.609375 75.984375 
z
" id="DejaVuSans-102"/>
     </defs>
     <g transform="translate(355.405938 131.461063)scale(0.1 -0.1)">
      <use xlink:href="#DejaVuSans-117"/>
      <use x="63.378906" xlink:href="#DejaVuSans-110"/>
      <use x="126.757812" xlink:href="#DejaVuSans-100"/>
      <use x="190.234375" xlink:href="#DejaVuSans-101"/>
      <use x="251.757812" xlink:href="#DejaVuSans-102"/>
      <use x="286.962891" xlink:href="#DejaVuSans-105"/>
      <use x="314.746094" xlink:href="#DejaVuSans-110"/>
      <use x="378.125" xlink:href="#DejaVuSans-101"/>
      <use x="439.648438" xlink:href="#DejaVuSans-100"/>
     </g>
    </g>
   </g>
  </g>
 </g>
 <defs>
  <clipPath id="pfa0300123c">
   <rect height="266.112" width="357.12" x="57.6" y="41.472"/>
  </clipPath>
 </defs>
</svg>
