<?xml version="1.0" encoding="utf-8" standalone="no"?>
<!DOCTYPE svg PUBLIC "-//W3C//DTD SVG 1.1//EN"
  "http://www.w3.org/Graphics/SVG/1.1/DTD/svg11.dtd">
<!-- Created with matplotlib (https://matplotlib.org/) -->
<svg height="345.6pt" version="1.1" viewBox="0 0 460.8 345.6" width="460.8pt" xmlns="http://www.w3.org/2000/svg" xmlns:xlink="http://www.w3.org/1999/xlink">
 <defs>
  <style type="text/css">
*{stroke-linecap:butt;stroke-linejoin:round;}
  </style>
 </defs>
 <g id="figure_1">
  <g id="patch_1">
   <path d="M 0 345.6 
L 460.8 345.6 
L 460.8 0 
L 0 0 
z
" style="fill:#ffffff;"/>
  </g>
  <g id="axes_1">
   <g id="patch_2">
    <path d="M 57.6 307.584 
L 414.72 307.584 
L 414.72 41.472 
L 57.6 41.472 
z
" style="fill:#ffffff;"/>
   </g>
   <g id="patch_3">
    <path clip-path="url(#p6aafb962a5)" d="M 73.832727 307.584 
L 73.832727 307.015833 
L 83.572363 306.936008 
L 83.572363 307.128527 
L 86.818908 307.128527 
L 86.818908 306.363145 
L 90.065455 306.363145 
L 90.065455 307.105049 
L 93.311999 307.105049 
L 93.311999 306.245756 
L 96.558544 306.245756 
L 96.558544 306.550969 
L 99.805091 306.550969 
L 99.805091 306.424188 
L 106.298182 306.485231 
L 106.298182 305.823152 
L 109.544725 305.823152 
L 109.544725 305.362984 
L 112.791272 305.362984 
L 112.791272 304.959163 
L 116.037818 304.959163 
L 116.037818 304.672732 
L 119.284361 304.672732 
L 119.284361 304.907511 
L 122.530908 304.907511 
L 122.530908 304.592906 
L 125.777454 304.592906 
L 125.777454 304.442647 
L 129.023997 304.442647 
L 129.023997 303.944914 
L 132.27054 303.944914 
L 132.27054 303.414312 
L 135.517091 303.414312 
L 135.517091 300.409131 
L 138.763633 300.409131 
L 138.763633 300.977299 
L 142.010176 300.977299 
L 142.010176 298.967583 
L 145.256727 298.967583 
L 145.256727 302.231022 
L 148.50327 302.231022 
L 148.50327 296.995435 
L 151.749812 296.995435 
L 151.749812 292.450099 
L 154.996363 292.450099 
L 154.996363 298.070726 
L 158.242906 298.070726 
L 158.242906 293.323479 
L 161.489449 293.323479 
L 161.489449 289.85813 
L 164.735999 289.85813 
L 164.735999 282.021184 
L 167.982542 282.021184 
L 167.982542 287.956415 
L 171.229085 287.956415 
L 171.229085 285.087406 
L 174.475635 285.087406 
L 174.475635 276.583683 
L 177.722178 276.583683 
L 177.722178 274.879184 
L 180.968721 274.879184 
L 180.968721 270.03333 
L 184.215271 270.03333 
L 184.215271 271.03819 
L 187.461814 271.03819 
L 187.461814 268.939262 
L 190.708357 268.939262 
L 190.708357 259.9425 
L 193.954907 259.9425 
L 193.954907 258.45869 
L 197.20145 258.45869 
L 197.20145 250.208529 
L 200.447993 250.208529 
L 200.447993 245.681971 
L 203.694536 245.681971 
L 203.694536 243.47036 
L 206.941094 243.47036 
L 206.941094 240.78448 
L 210.187636 240.78448 
L 210.187636 237.793374 
L 213.434179 237.793374 
L 213.434179 220.095688 
L 216.680722 220.095688 
L 216.680722 214.244972 
L 219.927265 214.244972 
L 219.927265 210.56832 
L 223.173808 210.56832 
L 223.173808 201.383742 
L 226.420366 201.383742 
L 226.420366 197.228147 
L 229.666909 197.228147 
L 229.666909 194.410776 
L 232.913452 194.410776 
L 232.913452 190.10022 
L 236.159994 190.10022 
L 236.159994 191.76246 
L 239.406537 191.76246 
L 239.406537 189.109465 
L 242.65308 189.109465 
L 242.65308 203.773801 
L 245.899623 203.773801 
L 245.899623 206.81655 
L 252.392724 206.736707 
L 252.392724 212.333856 
L 255.639267 212.333856 
L 255.639267 208.624347 
L 258.88581 208.624347 
L 258.88581 225.181014 
L 262.132352 225.181014 
L 262.132352 227.124981 
L 265.378895 227.124981 
L 265.378895 233.27622 
L 268.625453 233.27622 
L 268.625453 233.778639 
L 271.871996 233.778639 
L 271.871996 240.67178 
L 275.118539 240.67178 
L 275.118539 239.925176 
L 278.365082 239.925176 
L 278.365082 255.721162 
L 281.611625 255.721162 
L 281.611625 254.796121 
L 284.858168 254.796121 
L 284.858168 257.557137 
L 288.104725 257.557137 
L 288.104725 253.279449 
L 291.351268 253.279449 
L 291.351268 259.684243 
L 294.597811 259.684243 
L 294.597811 267.502407 
L 297.844354 267.502407 
L 297.844354 265.394081 
L 301.090897 265.394081 
L 301.090897 261.008398 
L 304.33744 261.008398 
L 304.33744 272.315391 
L 307.583997 272.315391 
L 307.583997 271.733135 
L 310.83054 271.733135 
L 310.83054 269.460469 
L 314.077083 269.460469 
L 314.077083 276.039 
L 317.323626 276.039 
L 317.323626 277.029766 
L 320.570184 277.029766 
L 320.570184 281.31215 
L 323.816727 281.31215 
L 323.816727 282.955608 
L 327.06327 282.955608 
L 327.06327 278.198972 
L 330.309813 278.198972 
L 330.309813 287.209815 
L 333.556355 287.209815 
L 333.556355 286.237828 
L 336.802898 286.237828 
L 336.802898 288.327366 
L 340.049441 288.327366 
L 340.049441 288.20528 
L 343.295984 288.20528 
L 343.295984 289.693784 
L 346.542527 289.693784 
L 346.542527 290.214997 
L 349.78907 290.214997 
L 349.78907 293.595823 
L 353.035613 293.595823 
L 353.035613 288.22876 
L 356.282185 288.22876 
L 356.282185 292.393752 
L 359.528728 292.393752 
L 359.528728 293.23896 
L 362.775271 293.23896 
L 362.775271 295.220501 
L 366.021814 295.220501 
L 366.021814 297.375778 
L 369.268357 297.375778 
L 369.268357 295.896666 
L 372.5149 295.896666 
L 372.5149 299.329144 
L 375.761443 299.329144 
L 375.761443 298.601327 
L 379.007986 298.601327 
L 379.007986 296.863958 
L 382.254529 296.863958 
L 382.254529 299.794008 
L 385.501072 299.794008 
L 385.501072 299.995919 
L 388.747614 299.995919 
L 388.747614 300.639216 
L 391.994157 300.639216 
L 391.994157 301.320077 
L 395.24073 301.320077 
L 395.24073 303.569266 
L 398.487273 303.569266 
L 398.487273 307.584 
L 398.487273 307.584 
" style="fill:none;stroke:#1f77b4;stroke-linejoin:miter;"/>
   </g>
   <g id="patch_4">
    <path clip-path="url(#p6aafb962a5)" d="M 73.832727 307.584 
L 73.832727 307.377394 
L 77.079272 307.377394 
L 77.079272 307.584 
L 90.065455 307.584 
L 90.065455 307.452523 
L 93.311999 307.452523 
L 93.311999 307.584 
L 96.558544 307.584 
L 96.558544 307.166092 
L 99.805091 307.166092 
L 99.805091 307.584 
L 103.051636 307.584 
L 103.051636 307.447828 
L 106.298182 307.447828 
L 106.298182 305.926455 
L 109.544725 305.926455 
L 109.544725 306.95479 
L 112.791272 306.95479 
L 112.791272 306.311494 
L 116.037818 306.311494 
L 116.037818 306.959486 
L 119.284361 306.959486 
L 119.284361 305.362984 
L 122.530908 305.362984 
L 122.530908 304.653948 
L 125.777454 304.653948 
L 125.777454 305.400549 
L 132.27054 305.456896 
L 132.27054 303.104403 
L 135.517091 303.104403 
L 135.517091 303.592745 
L 138.763633 303.592745 
L 138.763633 302.564408 
L 142.010176 302.564408 
L 142.010176 300.737824 
L 145.256727 300.737824 
L 145.256727 301.841287 
L 148.50327 301.841287 
L 148.50327 299.779923 
L 151.749812 299.779923 
L 151.749812 295.596146 
L 154.996363 295.596146 
L 154.996363 297.770206 
L 158.242906 297.770206 
L 158.242906 293.008874 
L 161.489449 293.008874 
L 161.489449 288.045628 
L 164.735999 288.045628 
L 164.735999 283.993332 
L 167.982542 283.993332 
L 167.982542 281.636144 
L 171.229085 281.636144 
L 171.229085 276.461602 
L 174.475635 276.461602 
L 174.475635 276.588385 
L 177.722178 276.588385 
L 177.722178 271.287057 
L 180.968721 271.287057 
L 180.968721 265.60538 
L 184.215271 265.60538 
L 184.215271 263.985404 
L 187.461814 263.985404 
L 187.461814 252.523464 
L 190.708357 252.523464 
L 190.708357 253.810052 
L 193.954907 253.810052 
L 193.954907 243.634697 
L 197.20145 243.634697 
L 197.20145 236.530268 
L 200.447993 236.530268 
L 200.447993 227.538199 
L 203.694536 227.538199 
L 203.694536 222.758087 
L 206.941094 222.758087 
L 206.941094 207.74627 
L 210.187636 207.74627 
L 210.187636 202.84875 
L 213.434179 202.84875 
L 213.434179 187.602174 
L 216.680722 187.602174 
L 216.680722 170.143965 
L 219.927265 170.143965 
L 219.927265 157.240452 
L 223.173808 157.240452 
L 223.173808 132.626127 
L 226.420366 132.626127 
L 226.420366 134.678142 
L 229.666909 134.678142 
L 229.666909 101.71978 
L 232.913452 101.71978 
L 232.913452 96.831653 
L 236.159994 96.831653 
L 236.159994 83.477375 
L 239.406537 83.477375 
L 239.406537 88.656593 
L 242.65308 88.656593 
L 242.65308 80.077753 
L 245.899623 80.077753 
L 245.899623 70.991803 
L 249.146181 70.991803 
L 249.146181 95.36191 
L 252.392724 95.36191 
L 252.392724 100.569318 
L 255.639267 100.569318 
L 255.639267 126.103982 
L 258.88581 126.103982 
L 258.88581 126.470225 
L 262.132352 126.470225 
L 262.132352 132.381987 
L 265.378895 132.381987 
L 265.378895 146.56738 
L 268.625453 146.56738 
L 268.625453 143.989492 
L 271.871996 143.989492 
L 271.871996 155.089865 
L 275.118539 155.089865 
L 275.118539 167.500329 
L 278.365082 167.500329 
L 278.365082 180.882785 
L 281.611625 180.882785 
L 281.611625 184.676794 
L 284.858168 184.676794 
L 284.858168 192.574801 
L 288.104725 192.574801 
L 288.104725 206.107516 
L 291.351268 206.107516 
L 291.351268 200.909479 
L 294.597811 200.909479 
L 294.597811 205.614467 
L 297.844354 205.614467 
L 297.844354 206.511319 
L 301.090897 206.511319 
L 301.090897 229.360091 
L 304.33744 229.360091 
L 304.33744 226.965336 
L 307.583997 226.965336 
L 307.583997 232.07884 
L 310.83054 232.07884 
L 310.83054 242.60636 
L 314.077083 242.60636 
L 314.077083 251.396517 
L 317.323626 251.396517 
L 317.323626 254.270221 
L 320.570184 254.270221 
L 320.570184 247.48978 
L 323.816727 247.48978 
L 323.816727 252.565714 
L 327.06327 252.565714 
L 327.06327 258.740428 
L 330.309813 258.740428 
L 330.309813 263.91497 
L 333.556355 263.91497 
L 333.556355 261.318305 
L 336.802898 261.318305 
L 336.802898 269.286731 
L 340.049441 269.286731 
L 340.049441 267.685529 
L 343.295984 267.685529 
L 343.295984 267.084502 
L 346.542527 267.084502 
L 346.542527 277.424199 
L 349.78907 277.424199 
L 349.78907 278.903306 
L 356.282185 278.87983 
L 356.282185 277.405413 
L 359.528728 277.405413 
L 359.528728 289.374484 
L 362.775271 289.374484 
L 362.775271 282.857 
L 366.021814 282.857 
L 366.021814 283.603598 
L 369.268357 283.603598 
L 369.268357 291.609588 
L 372.5149 291.609588 
L 372.5149 289.200748 
L 375.761443 289.200748 
L 375.761443 287.796764 
L 379.007986 287.796764 
L 379.007986 292.15897 
L 382.254529 292.15897 
L 382.254529 291.046117 
L 385.501072 291.046117 
L 385.501072 295.54919 
L 388.747614 295.54919 
L 388.747614 297.587079 
L 391.994157 297.587079 
L 391.994157 298.779761 
L 395.24073 298.779761 
L 395.24073 299.587404 
L 398.487273 299.587404 
L 398.487273 307.584 
L 398.487273 307.584 
" style="fill:none;stroke:#ff7f0e;stroke-linejoin:miter;"/>
   </g>
   <g id="patch_5">
    <path clip-path="url(#p6aafb962a5)" d="M 73.832727 307.584 
L 80.325818 307.584 
L 80.325818 307.461915 
L 83.572363 307.461915 
L 83.572363 307.584 
L 86.818908 307.584 
L 86.818908 307.34922 
L 90.065455 307.34922 
L 90.065455 307.175483 
L 96.558544 307.067485 
L 96.558544 307.447828 
L 99.805091 307.447828 
L 99.805091 307.227135 
L 103.051636 307.227135 
L 103.051636 306.813922 
L 109.544725 306.921921 
L 109.544725 305.372375 
L 112.791272 305.372375 
L 112.791272 303.376747 
L 116.037818 303.376747 
L 116.037818 300.611043 
L 119.284361 300.611043 
L 119.284361 299.592098 
L 122.530908 299.592098 
L 122.530908 294.187469 
L 125.777454 294.187469 
L 125.777454 284.627238 
L 129.023997 284.627238 
L 129.023997 280.321379 
L 132.27054 280.321379 
L 132.27054 273.11364 
L 135.517091 273.11364 
L 135.517091 269.554381 
L 138.763633 269.554381 
L 138.763633 258.768601 
L 142.010176 258.768601 
L 142.010176 252.415461 
L 145.256727 252.415461 
L 145.256727 249.508888 
L 148.50327 249.508888 
L 148.50327 245.31102 
L 151.749812 245.31102 
L 151.749812 238.732498 
L 154.996363 238.732498 
L 154.996363 235.600537 
L 158.242906 235.600537 
L 158.242906 232.900567 
L 161.489449 232.900567 
L 161.489449 227.383244 
L 164.735999 227.383244 
L 164.735999 226.589694 
L 167.982542 226.589694 
L 167.982542 222.091314 
L 171.229085 222.091314 
L 171.229085 228.073498 
L 174.475635 228.073498 
L 174.475635 226.491083 
L 177.722178 226.491083 
L 177.722178 220.748377 
L 180.968721 220.748377 
L 180.968721 230.947202 
L 184.215271 230.947202 
L 184.215271 227.89037 
L 187.461814 227.89037 
L 187.461814 219.527509 
L 190.708357 219.527509 
L 190.708357 223.434252 
L 193.954907 223.434252 
L 193.954907 226.007438 
L 197.20145 226.007438 
L 197.20145 222.462265 
L 200.447993 222.462265 
L 200.447993 221.612354 
L 203.694536 221.612354 
L 203.694536 233.243341 
L 206.941094 233.243341 
L 206.941094 220.565233 
L 210.187636 220.565233 
L 210.187636 223.922593 
L 213.434179 223.922593 
L 213.434179 218.499184 
L 216.680722 218.499184 
L 216.680722 219.968905 
L 219.927265 219.968905 
L 219.927265 226.786905 
L 223.173808 226.786905 
L 223.173808 233.388914 
L 226.420366 233.388914 
L 226.420366 229.054882 
L 229.666909 229.054882 
L 229.666909 225.134051 
L 232.913452 225.134051 
L 232.913452 227.801152 
L 236.159994 227.801152 
L 236.159994 240.36656 
L 239.406537 240.36656 
L 239.406537 237.722946 
L 242.65308 237.722946 
L 242.65308 241.160121 
L 245.899623 241.160121 
L 245.899623 240.760993 
L 249.146181 240.760993 
L 249.146181 247.283182 
L 252.392724 247.283182 
L 252.392724 249.532364 
L 255.639267 249.532364 
L 255.639267 258.515035 
L 258.88581 258.515035 
L 258.88581 254.533179 
L 262.132352 254.533179 
L 262.132352 258.989293 
L 265.378895 258.989293 
L 265.378895 265.746252 
L 268.625453 265.746252 
L 268.625453 271.258882 
L 271.871996 271.258882 
L 271.871996 262.229251 
L 275.118539 262.229251 
L 275.118539 271.404448 
L 278.365082 271.404448 
L 278.365082 265.187478 
L 281.611625 265.187478 
L 281.611625 272.737998 
L 284.858168 272.737998 
L 284.858168 274.963704 
L 288.104725 274.963704 
L 288.104725 279.438608 
L 291.351268 279.438608 
L 291.351268 281.25111 
L 294.597811 281.25111 
L 294.597811 278.090974 
L 297.844354 278.090974 
L 297.844354 280.974065 
L 301.090897 280.974065 
L 301.090897 286.77782 
L 304.33744 286.77782 
L 304.33744 284.796281 
L 307.583997 284.796281 
L 307.583997 280.584332 
L 310.83054 280.584332 
L 310.83054 289.783002 
L 314.077083 289.783002 
L 314.077083 287.637114 
L 317.323626 287.637114 
L 317.323626 292.201232 
L 320.570184 292.201232 
L 320.570184 291.576719 
L 323.816727 291.576719 
L 323.816727 293.253046 
L 327.06327 293.253046 
L 327.06327 296.136142 
L 330.309813 296.136142 
L 330.309813 294.450423 
L 333.556355 294.450423 
L 333.556355 292.896179 
L 336.802898 292.896179 
L 336.802898 295.366064 
L 340.049441 295.366064 
L 340.049441 296.24414 
L 343.295984 296.24414 
L 343.295984 296.079795 
L 346.542527 296.079795 
L 346.542527 298.371243 
L 349.78907 298.371243 
L 349.78907 296.018752 
L 353.035613 296.018752 
L 353.035613 300.564086 
L 356.282185 300.564086 
L 356.282185 302.517454 
L 359.528728 302.517454 
L 359.528728 299.587403 
L 362.775271 299.587403 
L 362.775271 299.953659 
L 366.021814 299.953659 
L 366.021814 301.789637 
L 369.268357 301.789637 
L 369.268357 300.578173 
L 372.5149 300.578173 
L 372.5149 301.151036 
L 375.761443 301.151036 
L 375.761443 304.123347 
L 379.007986 304.123347 
L 379.007986 303.113794 
L 382.254529 303.113794 
L 382.254529 304.705601 
L 385.501072 304.705601 
L 385.501072 305.306637 
L 388.747614 305.306637 
L 388.747614 304.409778 
L 391.994157 304.409778 
L 391.994157 305.419331 
L 395.24073 305.419331 
L 395.24073 304.837077 
L 398.487273 304.837077 
L 398.487273 307.584 
L 398.487273 307.584 
" style="fill:none;stroke:#2ca02c;stroke-linejoin:miter;"/>
   </g>
   <g id="patch_6">
    <path clip-path="url(#p6aafb962a5)" d="M 73.832727 307.584 
L 73.832727 307.438437 
L 83.572363 307.400872 
L 83.572363 307.584 
L 86.818908 307.584 
L 86.818908 307.405567 
L 90.065455 307.405567 
L 90.065455 307.123832 
L 93.311999 307.123832 
L 93.311999 307.372698 
L 99.805091 307.433741 
L 99.805091 307.086267 
L 103.051636 307.086267 
L 103.051636 306.734097 
L 106.298182 306.734097 
L 106.298182 305.37707 
L 109.544725 305.37707 
L 109.544725 303.897958 
L 112.791272 303.897958 
L 112.791272 302.461106 
L 116.037818 302.461106 
L 116.037818 299.46062 
L 119.284361 299.46062 
L 119.284361 292.863311 
L 122.530908 292.863311 
L 122.530908 286.303568 
L 125.777454 286.303568 
L 125.777454 277.325588 
L 129.023997 277.325588 
L 129.023997 269.145865 
L 132.27054 269.145865 
L 132.27054 265.333043 
L 135.517091 265.333043 
L 135.517091 254.181003 
L 138.763633 254.181003 
L 138.763633 249.396194 
L 142.010176 249.396194 
L 142.010176 243.357655 
L 145.256727 243.357655 
L 145.256727 235.112201 
L 148.50327 235.112201 
L 148.50327 238.845192 
L 151.749812 238.845192 
L 151.749812 230.012786 
L 154.996363 230.012786 
L 154.996363 226.970037 
L 158.242906 226.970037 
L 158.242906 219.579168 
L 161.489449 219.579168 
L 161.489449 225.965177 
L 164.735999 225.965177 
L 164.735999 233.29969 
L 167.982542 233.29969 
L 167.982542 228.970355 
L 171.229085 228.970355 
L 171.229085 221.762624 
L 174.475635 221.762624 
L 174.475635 227.181331 
L 177.722178 227.181331 
L 177.722178 220.856369 
L 180.968721 220.856369 
L 180.968721 222.636011 
L 184.215271 222.636011 
L 184.215271 211.723439 
L 187.461814 211.723439 
L 187.461814 228.176794 
L 190.708357 228.176794 
L 190.708357 222.542091 
L 193.954907 222.542091 
L 193.954907 221.199153 
L 197.20145 221.199153 
L 197.20145 220.734282 
L 200.447993 220.734282 
L 200.447993 220.274113 
L 203.694536 220.274113 
L 203.694536 222.452867 
L 206.941094 222.452867 
L 206.941094 224.049376 
L 210.187636 224.049376 
L 210.187636 220.931504 
L 213.434179 220.931504 
L 213.434179 220.123854 
L 216.680722 220.123854 
L 216.680722 224.194939 
L 219.927265 224.194939 
L 219.927265 229.299039 
L 223.173808 229.299039 
L 223.173808 225.307791 
L 226.420366 225.307791 
L 226.420366 228.336451 
L 229.666909 228.336451 
L 229.666909 231.059902 
L 232.913452 231.059902 
L 232.913452 229.580783 
L 236.159994 229.580783 
L 236.159994 232.56249 
L 239.406537 232.56249 
L 239.406537 237.028002 
L 242.65308 237.028002 
L 242.65308 241.864464 
L 245.899623 241.864464 
L 245.899623 243.296614 
L 249.146181 243.296614 
L 249.146181 250.710959 
L 252.392724 250.710959 
L 252.392724 252.922587 
L 255.639267 252.922587 
L 255.639267 253.354579 
L 258.88581 253.354579 
L 258.88581 253.645704 
L 262.132352 253.645704 
L 262.132352 258.801469 
L 265.378895 258.801469 
L 265.378895 264.600531 
L 268.625453 264.600531 
L 268.625453 262.595506 
L 271.871996 262.595506 
L 271.871996 258.853123 
L 275.118539 258.853123 
L 275.118539 264.478444 
L 278.365082 264.478444 
L 278.365082 268.30535 
L 281.611625 268.30535 
L 281.611625 273.287374 
L 284.858168 273.287374 
L 284.858168 277.349066 
L 288.104725 277.349066 
L 288.104725 272.888254 
L 291.351268 272.888254 
L 291.351268 276.470989 
L 294.597811 276.470989 
L 294.597811 280.668856 
L 297.844354 280.668856 
L 297.844354 286.500781 
L 301.090897 286.500781 
L 301.090897 278.522965 
L 304.33744 278.522965 
L 304.33744 287.580767 
L 307.583997 287.580767 
L 307.583997 289.787697 
L 310.83054 289.787697 
L 310.83054 285.603923 
L 314.077083 285.603923 
L 314.077083 286.111048 
L 317.323626 286.111048 
L 317.323626 289.876913 
L 320.570184 289.876913 
L 320.570184 290.280735 
L 323.816727 290.280735 
L 323.816727 290.106997 
L 327.06327 290.106997 
L 327.06327 297.760816 
L 330.309813 297.760816 
L 330.309813 294.86833 
L 333.556355 294.86833 
L 333.556355 297.540123 
L 336.802898 297.540123 
L 336.802898 296.770046 
L 340.049441 296.770046 
L 340.049441 297.037695 
L 343.295984 297.037695 
L 343.295984 297.389864 
L 346.542527 297.389864 
L 346.542527 298.81263 
L 349.78907 298.81263 
L 349.78907 300.456087 
L 353.035613 300.456087 
L 353.035613 300.737824 
L 356.282185 300.737824 
L 356.282185 299.930181 
L 359.528728 299.930181 
L 359.528728 300.296437 
L 362.775271 300.296437 
L 362.775271 301.939895 
L 369.268357 301.869462 
L 369.268357 301.061819 
L 372.5149 301.061819 
L 372.5149 301.949287 
L 375.761443 301.949287 
L 375.761443 302.315543 
L 379.007986 302.315543 
L 379.007986 304.545951 
L 385.501072 304.475516 
L 385.501072 304.973249 
L 388.747614 304.973249 
L 388.747614 304.395692 
L 391.994157 304.395692 
L 391.994157 303.808742 
L 395.24073 303.808742 
L 395.24073 304.724383 
L 398.487273 304.724383 
L 398.487273 307.584 
L 398.487273 307.584 
" style="fill:none;stroke:#d62728;stroke-linejoin:miter;"/>
   </g>
   <g id="patch_7">
    <path clip-path="url(#p6aafb962a5)" d="M 73.832727 307.584 
L 93.311999 307.584 
L 93.311999 307.438437 
L 96.558544 307.438437 
L 96.558544 307.584 
L 99.805091 307.584 
L 99.805091 307.316351 
L 103.051636 307.316351 
L 103.051636 307.584 
L 109.544725 307.480697 
L 109.544725 307.410263 
L 112.791272 307.410263 
L 112.791272 305.607155 
L 116.037818 305.607155 
L 116.037818 305.405244 
L 119.284361 305.405244 
L 119.284361 305.006118 
L 122.530908 305.006118 
L 122.530908 298.21629 
L 125.777454 298.21629 
L 125.777454 299.188275 
L 129.023997 299.188275 
L 129.023997 289.468394 
L 132.27054 289.468394 
L 132.27054 286.186176 
L 135.517091 286.186176 
L 135.517091 281.917882 
L 138.763633 281.917882 
L 138.763633 279.800169 
L 142.010176 279.800169 
L 142.010176 276.893596 
L 145.256727 276.893596 
L 145.256727 271.488967 
L 148.50327 271.488967 
L 148.50327 258.186345 
L 151.749812 258.186345 
L 151.749812 262.172907 
L 154.996363 262.172907 
L 154.996363 255.091948 
L 158.242906 255.091948 
L 158.242906 251.166432 
L 161.489449 251.166432 
L 161.489449 242.845838 
L 164.735999 242.845838 
L 164.735999 249.260024 
L 167.982542 249.260024 
L 167.982542 245.869806 
L 171.229085 245.869806 
L 171.229085 233.233959 
L 174.475635 233.233959 
L 174.475635 233.680034 
L 177.722178 233.680034 
L 177.722178 219.405434 
L 180.968721 219.405434 
L 180.968721 218.386484 
L 184.215271 218.386484 
L 184.215271 211.657703 
L 187.461814 211.657703 
L 187.461814 216.066864 
L 190.708357 216.066864 
L 190.708357 190.203527 
L 193.954907 190.203527 
L 193.954907 169.12969 
L 197.20145 169.12969 
L 197.20145 181.7139 
L 200.447993 181.7139 
L 200.447993 149.351849 
L 203.694536 149.351849 
L 203.694536 138.335987 
L 206.941094 138.335987 
L 206.941094 111.402064 
L 210.187636 111.402064 
L 210.187636 82.552312 
L 213.434179 82.552312 
L 213.434179 57.759595 
L 216.680722 57.759595 
L 216.680722 60.008799 
L 219.927265 60.008799 
L 219.927265 54.144 
L 223.173808 54.144 
L 223.173808 64.549434 
L 226.420366 64.549434 
L 226.420366 56.332102 
L 229.666909 56.332102 
L 229.666909 64.07517 
L 232.913452 64.07517 
L 232.913452 73.184607 
L 236.159994 73.184607 
L 236.159994 81.397215 
L 239.406537 81.397215 
L 239.406537 117.337301 
L 242.65308 117.337301 
L 242.65308 121.079679 
L 245.899623 121.079679 
L 245.899623 137.781926 
L 249.146181 137.781926 
L 249.146181 162.466656 
L 252.392724 162.466656 
L 252.392724 182.159986 
L 255.639267 182.159986 
L 255.639267 180.812335 
L 258.88581 180.812335 
L 258.88581 190.461795 
L 262.132352 190.461795 
L 262.132352 213.690894 
L 265.378895 213.690894 
L 265.378895 218.44284 
L 268.625453 218.44284 
L 268.625453 228.247238 
L 271.871996 228.247238 
L 271.871996 237.361382 
L 278.365082 237.427125 
L 278.365082 257.214358 
L 281.611625 257.214358 
L 281.611625 257.791918 
L 284.858168 257.791918 
L 284.858168 266.168857 
L 288.104725 266.168857 
L 288.104725 262.989938 
L 291.351268 262.989938 
L 291.351268 275.583527 
L 294.597811 275.583527 
L 294.597811 271.042881 
L 297.844354 271.042881 
L 297.844354 283.148131 
L 301.090897 283.148131 
L 301.090897 282.110399 
L 304.33744 282.110399 
L 304.33744 284.495762 
L 307.583997 284.495762 
L 307.583997 283.265516 
L 310.83054 283.265516 
L 310.83054 288.872054 
L 314.077083 288.872054 
L 314.077083 294.117033 
L 317.323626 294.117033 
L 317.323626 293.661561 
L 320.570184 293.661561 
L 320.570184 294.337729 
L 323.816727 294.337729 
L 323.816727 292.769399 
L 327.06327 292.769399 
L 327.06327 297.225517 
L 330.309813 297.225517 
L 330.309813 298.319591 
L 333.556355 298.319591 
L 333.556355 296.558743 
L 336.802898 296.558743 
L 336.802898 295.248672 
L 340.049441 295.248672 
L 340.049441 299.902007 
L 343.295984 299.902007 
L 343.295984 298.671762 
L 346.542527 298.671762 
L 346.542527 300.841127 
L 349.78907 300.841127 
L 349.78907 301.521987 
L 353.035613 301.521987 
L 353.035613 303.019883 
L 356.282185 303.019883 
L 356.282185 302.123023 
L 359.528728 302.123023 
L 359.528728 301.98685 
L 366.021814 301.98685 
L 366.021814 302.935362 
L 369.268357 302.935362 
L 369.268357 301.939894 
L 372.5149 301.939894 
L 372.5149 305.278463 
L 375.761443 305.278463 
L 375.761443 302.029111 
L 379.007986 302.029111 
L 379.007986 306.151844 
L 382.254529 306.151844 
L 382.254529 303.644396 
L 385.501072 303.644396 
L 385.501072 304.54595 
L 388.747614 304.54595 
L 388.747614 306.47584 
L 391.994157 306.47584 
L 391.994157 305.179855 
L 395.24073 305.179855 
L 395.24073 305.494461 
L 398.487273 305.494461 
L 398.487273 307.584 
L 398.487273 307.584 
" style="fill:none;stroke:#9467bd;stroke-linejoin:miter;"/>
   </g>
   <g id="patch_8">
    <path clip-path="url(#p6aafb962a5)" d="M 73.832727 307.584 
L 398.487262 307.584 
L 398.487262 307.584 
" style="fill:none;stroke:#000000;stroke-linejoin:miter;"/>
   </g>
   <g id="matplotlib.axis_1">
    <g id="xtick_1">
     <g id="line2d_1">
      <defs>
       <path d="M 0 0 
L 0 3.5 
" id="m8548441178" style="stroke:#000000;stroke-width:0.8;"/>
      </defs>
      <g>
       <use style="stroke:#000000;stroke-width:0.8;" x="69.847574" xlink:href="#m8548441178" y="307.584"/>
      </g>
     </g>
     <g id="text_1">
      <!-- 0.0 -->
      <defs>
       <path d="M 31.78125 66.40625 
Q 24.171875 66.40625 20.328125 58.90625 
Q 16.5 51.421875 16.5 36.375 
Q 16.5 21.390625 20.328125 13.890625 
Q 24.171875 6.390625 31.78125 6.390625 
Q 39.453125 6.390625 43.28125 13.890625 
Q 47.125 21.390625 47.125 36.375 
Q 47.125 51.421875 43.28125 58.90625 
Q 39.453125 66.40625 31.78125 66.40625 
z
M 31.78125 74.21875 
Q 44.046875 74.21875 50.515625 64.515625 
Q 56.984375 54.828125 56.984375 36.375 
Q 56.984375 17.96875 50.515625 8.265625 
Q 44.046875 -1.421875 31.78125 -1.421875 
Q 19.53125 -1.421875 13.0625 8.265625 
Q 6.59375 17.96875 6.59375 36.375 
Q 6.59375 54.828125 13.0625 64.515625 
Q 19.53125 74.21875 31.78125 74.21875 
z
" id="DejaVuSans-48"/>
       <path d="M 10.6875 12.40625 
L 21 12.40625 
L 21 0 
L 10.6875 0 
z
" id="DejaVuSans-46"/>
      </defs>
      <g transform="translate(61.896012 322.182437)scale(0.1 -0.1)">
       <use xlink:href="#DejaVuSans-48"/>
       <use x="63.623047" xlink:href="#DejaVuSans-46"/>
       <use x="95.410156" xlink:href="#DejaVuSans-48"/>
      </g>
     </g>
    </g>
    <g id="xtick_2">
     <g id="line2d_2">
      <g>
       <use style="stroke:#000000;stroke-width:0.8;" x="131.947338" xlink:href="#m8548441178" y="307.584"/>
      </g>
     </g>
     <g id="text_2">
      <!-- 0.5 -->
      <defs>
       <path d="M 10.796875 72.90625 
L 49.515625 72.90625 
L 49.515625 64.59375 
L 19.828125 64.59375 
L 19.828125 46.734375 
Q 21.96875 47.46875 24.109375 47.828125 
Q 26.265625 48.1875 28.421875 48.1875 
Q 40.625 48.1875 47.75 41.5 
Q 54.890625 34.8125 54.890625 23.390625 
Q 54.890625 11.625 47.5625 5.09375 
Q 40.234375 -1.421875 26.90625 -1.421875 
Q 22.3125 -1.421875 17.546875 -0.640625 
Q 12.796875 0.140625 7.71875 1.703125 
L 7.71875 11.625 
Q 12.109375 9.234375 16.796875 8.0625 
Q 21.484375 6.890625 26.703125 6.890625 
Q 35.15625 6.890625 40.078125 11.328125 
Q 45.015625 15.765625 45.015625 23.390625 
Q 45.015625 31 40.078125 35.4375 
Q 35.15625 39.890625 26.703125 39.890625 
Q 22.75 39.890625 18.8125 39.015625 
Q 14.890625 38.140625 10.796875 36.28125 
z
" id="DejaVuSans-53"/>
      </defs>
      <g transform="translate(123.995776 322.182437)scale(0.1 -0.1)">
       <use xlink:href="#DejaVuSans-48"/>
       <use x="63.623047" xlink:href="#DejaVuSans-46"/>
       <use x="95.410156" xlink:href="#DejaVuSans-53"/>
      </g>
     </g>
    </g>
    <g id="xtick_3">
     <g id="line2d_3">
      <g>
       <use style="stroke:#000000;stroke-width:0.8;" x="194.047102" xlink:href="#m8548441178" y="307.584"/>
      </g>
     </g>
     <g id="text_3">
      <!-- 1.0 -->
      <defs>
       <path d="M 12.40625 8.296875 
L 28.515625 8.296875 
L 28.515625 63.921875 
L 10.984375 60.40625 
L 10.984375 69.390625 
L 28.421875 72.90625 
L 38.28125 72.90625 
L 38.28125 8.296875 
L 54.390625 8.296875 
L 54.390625 0 
L 12.40625 0 
z
" id="DejaVuSans-49"/>
      </defs>
      <g transform="translate(186.09554 322.182437)scale(0.1 -0.1)">
       <use xlink:href="#DejaVuSans-49"/>
       <use x="63.623047" xlink:href="#DejaVuSans-46"/>
       <use x="95.410156" xlink:href="#DejaVuSans-48"/>
      </g>
     </g>
    </g>
    <g id="xtick_4">
     <g id="line2d_4">
      <g>
       <use style="stroke:#000000;stroke-width:0.8;" x="256.146867" xlink:href="#m8548441178" y="307.584"/>
      </g>
     </g>
     <g id="text_4">
      <!-- 1.5 -->
      <g transform="translate(248.195304 322.182437)scale(0.1 -0.1)">
       <use xlink:href="#DejaVuSans-49"/>
       <use x="63.623047" xlink:href="#DejaVuSans-46"/>
       <use x="95.410156" xlink:href="#DejaVuSans-53"/>
      </g>
     </g>
    </g>
    <g id="xtick_5">
     <g id="line2d_5">
      <g>
       <use style="stroke:#000000;stroke-width:0.8;" x="318.246631" xlink:href="#m8548441178" y="307.584"/>
      </g>
     </g>
     <g id="text_5">
      <!-- 2.0 -->
      <defs>
       <path d="M 19.1875 8.296875 
L 53.609375 8.296875 
L 53.609375 0 
L 7.328125 0 
L 7.328125 8.296875 
Q 12.9375 14.109375 22.625 23.890625 
Q 32.328125 33.6875 34.8125 36.53125 
Q 39.546875 41.84375 41.421875 45.53125 
Q 43.3125 49.21875 43.3125 52.78125 
Q 43.3125 58.59375 39.234375 62.25 
Q 35.15625 65.921875 28.609375 65.921875 
Q 23.96875 65.921875 18.8125 64.3125 
Q 13.671875 62.703125 7.8125 59.421875 
L 7.8125 69.390625 
Q 13.765625 71.78125 18.9375 73 
Q 24.125 74.21875 28.421875 74.21875 
Q 39.75 74.21875 46.484375 68.546875 
Q 53.21875 62.890625 53.21875 53.421875 
Q 53.21875 48.921875 51.53125 44.890625 
Q 49.859375 40.875 45.40625 35.40625 
Q 44.1875 33.984375 37.640625 27.21875 
Q 31.109375 20.453125 19.1875 8.296875 
z
" id="DejaVuSans-50"/>
      </defs>
      <g transform="translate(310.295068 322.182437)scale(0.1 -0.1)">
       <use xlink:href="#DejaVuSans-50"/>
       <use x="63.623047" xlink:href="#DejaVuSans-46"/>
       <use x="95.410156" xlink:href="#DejaVuSans-48"/>
      </g>
     </g>
    </g>
    <g id="xtick_6">
     <g id="line2d_6">
      <g>
       <use style="stroke:#000000;stroke-width:0.8;" x="380.346395" xlink:href="#m8548441178" y="307.584"/>
      </g>
     </g>
     <g id="text_6">
      <!-- 2.5 -->
      <g transform="translate(372.394832 322.182437)scale(0.1 -0.1)">
       <use xlink:href="#DejaVuSans-50"/>
       <use x="63.623047" xlink:href="#DejaVuSans-46"/>
       <use x="95.410156" xlink:href="#DejaVuSans-53"/>
      </g>
     </g>
    </g>
    <g id="text_7">
     <!-- j_d2_a1_b1_mmdt -->
     <defs>
      <path d="M 9.421875 54.6875 
L 18.40625 54.6875 
L 18.40625 -0.984375 
Q 18.40625 -11.421875 14.421875 -16.109375 
Q 10.453125 -20.796875 1.609375 -20.796875 
L -1.8125 -20.796875 
L -1.8125 -13.1875 
L 0.59375 -13.1875 
Q 5.71875 -13.1875 7.5625 -10.8125 
Q 9.421875 -8.453125 9.421875 -0.984375 
z
M 9.421875 75.984375 
L 18.40625 75.984375 
L 18.40625 64.59375 
L 9.421875 64.59375 
z
" id="DejaVuSans-106"/>
      <path d="M 50.984375 -16.609375 
L 50.984375 -23.578125 
L -0.984375 -23.578125 
L -0.984375 -16.609375 
z
" id="DejaVuSans-95"/>
      <path d="M 45.40625 46.390625 
L 45.40625 75.984375 
L 54.390625 75.984375 
L 54.390625 0 
L 45.40625 0 
L 45.40625 8.203125 
Q 42.578125 3.328125 38.25 0.953125 
Q 33.9375 -1.421875 27.875 -1.421875 
Q 17.96875 -1.421875 11.734375 6.484375 
Q 5.515625 14.40625 5.515625 27.296875 
Q 5.515625 40.1875 11.734375 48.09375 
Q 17.96875 56 27.875 56 
Q 33.9375 56 38.25 53.625 
Q 42.578125 51.265625 45.40625 46.390625 
z
M 14.796875 27.296875 
Q 14.796875 17.390625 18.875 11.75 
Q 22.953125 6.109375 30.078125 6.109375 
Q 37.203125 6.109375 41.296875 11.75 
Q 45.40625 17.390625 45.40625 27.296875 
Q 45.40625 37.203125 41.296875 42.84375 
Q 37.203125 48.484375 30.078125 48.484375 
Q 22.953125 48.484375 18.875 42.84375 
Q 14.796875 37.203125 14.796875 27.296875 
z
" id="DejaVuSans-100"/>
      <path d="M 34.28125 27.484375 
Q 23.390625 27.484375 19.1875 25 
Q 14.984375 22.515625 14.984375 16.5 
Q 14.984375 11.71875 18.140625 8.90625 
Q 21.296875 6.109375 26.703125 6.109375 
Q 34.1875 6.109375 38.703125 11.40625 
Q 43.21875 16.703125 43.21875 25.484375 
L 43.21875 27.484375 
z
M 52.203125 31.203125 
L 52.203125 0 
L 43.21875 0 
L 43.21875 8.296875 
Q 40.140625 3.328125 35.546875 0.953125 
Q 30.953125 -1.421875 24.3125 -1.421875 
Q 15.921875 -1.421875 10.953125 3.296875 
Q 6 8.015625 6 15.921875 
Q 6 25.140625 12.171875 29.828125 
Q 18.359375 34.515625 30.609375 34.515625 
L 43.21875 34.515625 
L 43.21875 35.40625 
Q 43.21875 41.609375 39.140625 45 
Q 35.0625 48.390625 27.6875 48.390625 
Q 23 48.390625 18.546875 47.265625 
Q 14.109375 46.140625 10.015625 43.890625 
L 10.015625 52.203125 
Q 14.9375 54.109375 19.578125 55.046875 
Q 24.21875 56 28.609375 56 
Q 40.484375 56 46.34375 49.84375 
Q 52.203125 43.703125 52.203125 31.203125 
z
" id="DejaVuSans-97"/>
      <path d="M 48.6875 27.296875 
Q 48.6875 37.203125 44.609375 42.84375 
Q 40.53125 48.484375 33.40625 48.484375 
Q 26.265625 48.484375 22.1875 42.84375 
Q 18.109375 37.203125 18.109375 27.296875 
Q 18.109375 17.390625 22.1875 11.75 
Q 26.265625 6.109375 33.40625 6.109375 
Q 40.53125 6.109375 44.609375 11.75 
Q 48.6875 17.390625 48.6875 27.296875 
z
M 18.109375 46.390625 
Q 20.953125 51.265625 25.265625 53.625 
Q 29.59375 56 35.59375 56 
Q 45.5625 56 51.78125 48.09375 
Q 58.015625 40.1875 58.015625 27.296875 
Q 58.015625 14.40625 51.78125 6.484375 
Q 45.5625 -1.421875 35.59375 -1.421875 
Q 29.59375 -1.421875 25.265625 0.953125 
Q 20.953125 3.328125 18.109375 8.203125 
L 18.109375 0 
L 9.078125 0 
L 9.078125 75.984375 
L 18.109375 75.984375 
z
" id="DejaVuSans-98"/>
      <path d="M 52 44.1875 
Q 55.375 50.25 60.0625 53.125 
Q 64.75 56 71.09375 56 
Q 79.640625 56 84.28125 50.015625 
Q 88.921875 44.046875 88.921875 33.015625 
L 88.921875 0 
L 79.890625 0 
L 79.890625 32.71875 
Q 79.890625 40.578125 77.09375 44.375 
Q 74.3125 48.1875 68.609375 48.1875 
Q 61.625 48.1875 57.5625 43.546875 
Q 53.515625 38.921875 53.515625 30.90625 
L 53.515625 0 
L 44.484375 0 
L 44.484375 32.71875 
Q 44.484375 40.625 41.703125 44.40625 
Q 38.921875 48.1875 33.109375 48.1875 
Q 26.21875 48.1875 22.15625 43.53125 
Q 18.109375 38.875 18.109375 30.90625 
L 18.109375 0 
L 9.078125 0 
L 9.078125 54.6875 
L 18.109375 54.6875 
L 18.109375 46.1875 
Q 21.1875 51.21875 25.484375 53.609375 
Q 29.78125 56 35.6875 56 
Q 41.65625 56 45.828125 52.96875 
Q 50 49.953125 52 44.1875 
z
" id="DejaVuSans-109"/>
      <path d="M 18.3125 70.21875 
L 18.3125 54.6875 
L 36.8125 54.6875 
L 36.8125 47.703125 
L 18.3125 47.703125 
L 18.3125 18.015625 
Q 18.3125 11.328125 20.140625 9.421875 
Q 21.96875 7.515625 27.59375 7.515625 
L 36.8125 7.515625 
L 36.8125 0 
L 27.59375 0 
Q 17.1875 0 13.234375 3.875 
Q 9.28125 7.765625 9.28125 18.015625 
L 9.28125 47.703125 
L 2.6875 47.703125 
L 2.6875 54.6875 
L 9.28125 54.6875 
L 9.28125 70.21875 
z
" id="DejaVuSans-116"/>
     </defs>
     <g transform="translate(190.939687 335.860562)scale(0.1 -0.1)">
      <use xlink:href="#DejaVuSans-106"/>
      <use x="27.783203" xlink:href="#DejaVuSans-95"/>
      <use x="77.783203" xlink:href="#DejaVuSans-100"/>
      <use x="141.259766" xlink:href="#DejaVuSans-50"/>
      <use x="204.882812" xlink:href="#DejaVuSans-95"/>
      <use x="254.882812" xlink:href="#DejaVuSans-97"/>
      <use x="316.162109" xlink:href="#DejaVuSans-49"/>
      <use x="379.785156" xlink:href="#DejaVuSans-95"/>
      <use x="429.785156" xlink:href="#DejaVuSans-98"/>
      <use x="493.261719" xlink:href="#DejaVuSans-49"/>
      <use x="556.884766" xlink:href="#DejaVuSans-95"/>
      <use x="606.884766" xlink:href="#DejaVuSans-109"/>
      <use x="704.296875" xlink:href="#DejaVuSans-109"/>
      <use x="801.708984" xlink:href="#DejaVuSans-100"/>
      <use x="865.185547" xlink:href="#DejaVuSans-116"/>
     </g>
    </g>
   </g>
   <g id="matplotlib.axis_2">
    <g id="ytick_1">
     <g id="line2d_7">
      <defs>
       <path d="M 0 0 
L -3.5 0 
" id="mf08c529a55" style="stroke:#000000;stroke-width:0.8;"/>
      </defs>
      <g>
       <use style="stroke:#000000;stroke-width:0.8;" x="57.6" xlink:href="#mf08c529a55" y="307.584"/>
      </g>
     </g>
     <g id="text_8">
      <!-- 0.000 -->
      <g transform="translate(21.971875 311.383219)scale(0.1 -0.1)">
       <use xlink:href="#DejaVuSans-48"/>
       <use x="63.623047" xlink:href="#DejaVuSans-46"/>
       <use x="95.410156" xlink:href="#DejaVuSans-48"/>
       <use x="159.033203" xlink:href="#DejaVuSans-48"/>
       <use x="222.65625" xlink:href="#DejaVuSans-48"/>
      </g>
     </g>
    </g>
    <g id="ytick_2">
     <g id="line2d_8">
      <g>
       <use style="stroke:#000000;stroke-width:0.8;" x="57.6" xlink:href="#mf08c529a55" y="259.501969"/>
      </g>
     </g>
     <g id="text_9">
      <!-- 0.002 -->
      <g transform="translate(21.971875 263.301187)scale(0.1 -0.1)">
       <use xlink:href="#DejaVuSans-48"/>
       <use x="63.623047" xlink:href="#DejaVuSans-46"/>
       <use x="95.410156" xlink:href="#DejaVuSans-48"/>
       <use x="159.033203" xlink:href="#DejaVuSans-48"/>
       <use x="222.65625" xlink:href="#DejaVuSans-50"/>
      </g>
     </g>
    </g>
    <g id="ytick_3">
     <g id="line2d_9">
      <g>
       <use style="stroke:#000000;stroke-width:0.8;" x="57.6" xlink:href="#mf08c529a55" y="211.419937"/>
      </g>
     </g>
     <g id="text_10">
      <!-- 0.004 -->
      <defs>
       <path d="M 37.796875 64.3125 
L 12.890625 25.390625 
L 37.796875 25.390625 
z
M 35.203125 72.90625 
L 47.609375 72.90625 
L 47.609375 25.390625 
L 58.015625 25.390625 
L 58.015625 17.1875 
L 47.609375 17.1875 
L 47.609375 0 
L 37.796875 0 
L 37.796875 17.1875 
L 4.890625 17.1875 
L 4.890625 26.703125 
z
" id="DejaVuSans-52"/>
      </defs>
      <g transform="translate(21.971875 215.219156)scale(0.1 -0.1)">
       <use xlink:href="#DejaVuSans-48"/>
       <use x="63.623047" xlink:href="#DejaVuSans-46"/>
       <use x="95.410156" xlink:href="#DejaVuSans-48"/>
       <use x="159.033203" xlink:href="#DejaVuSans-48"/>
       <use x="222.65625" xlink:href="#DejaVuSans-52"/>
      </g>
     </g>
    </g>
    <g id="ytick_4">
     <g id="line2d_10">
      <g>
       <use style="stroke:#000000;stroke-width:0.8;" x="57.6" xlink:href="#mf08c529a55" y="163.337906"/>
      </g>
     </g>
     <g id="text_11">
      <!-- 0.006 -->
      <defs>
       <path d="M 33.015625 40.375 
Q 26.375 40.375 22.484375 35.828125 
Q 18.609375 31.296875 18.609375 23.390625 
Q 18.609375 15.53125 22.484375 10.953125 
Q 26.375 6.390625 33.015625 6.390625 
Q 39.65625 6.390625 43.53125 10.953125 
Q 47.40625 15.53125 47.40625 23.390625 
Q 47.40625 31.296875 43.53125 35.828125 
Q 39.65625 40.375 33.015625 40.375 
z
M 52.59375 71.296875 
L 52.59375 62.3125 
Q 48.875 64.0625 45.09375 64.984375 
Q 41.3125 65.921875 37.59375 65.921875 
Q 27.828125 65.921875 22.671875 59.328125 
Q 17.53125 52.734375 16.796875 39.40625 
Q 19.671875 43.65625 24.015625 45.921875 
Q 28.375 48.1875 33.59375 48.1875 
Q 44.578125 48.1875 50.953125 41.515625 
Q 57.328125 34.859375 57.328125 23.390625 
Q 57.328125 12.15625 50.6875 5.359375 
Q 44.046875 -1.421875 33.015625 -1.421875 
Q 20.359375 -1.421875 13.671875 8.265625 
Q 6.984375 17.96875 6.984375 36.375 
Q 6.984375 53.65625 15.1875 63.9375 
Q 23.390625 74.21875 37.203125 74.21875 
Q 40.921875 74.21875 44.703125 73.484375 
Q 48.484375 72.75 52.59375 71.296875 
z
" id="DejaVuSans-54"/>
      </defs>
      <g transform="translate(21.971875 167.137125)scale(0.1 -0.1)">
       <use xlink:href="#DejaVuSans-48"/>
       <use x="63.623047" xlink:href="#DejaVuSans-46"/>
       <use x="95.410156" xlink:href="#DejaVuSans-48"/>
       <use x="159.033203" xlink:href="#DejaVuSans-48"/>
       <use x="222.65625" xlink:href="#DejaVuSans-54"/>
      </g>
     </g>
    </g>
    <g id="ytick_5">
     <g id="line2d_11">
      <g>
       <use style="stroke:#000000;stroke-width:0.8;" x="57.6" xlink:href="#mf08c529a55" y="115.255874"/>
      </g>
     </g>
     <g id="text_12">
      <!-- 0.008 -->
      <defs>
       <path d="M 31.78125 34.625 
Q 24.75 34.625 20.71875 30.859375 
Q 16.703125 27.09375 16.703125 20.515625 
Q 16.703125 13.921875 20.71875 10.15625 
Q 24.75 6.390625 31.78125 6.390625 
Q 38.8125 6.390625 42.859375 10.171875 
Q 46.921875 13.96875 46.921875 20.515625 
Q 46.921875 27.09375 42.890625 30.859375 
Q 38.875 34.625 31.78125 34.625 
z
M 21.921875 38.8125 
Q 15.578125 40.375 12.03125 44.71875 
Q 8.5 49.078125 8.5 55.328125 
Q 8.5 64.0625 14.71875 69.140625 
Q 20.953125 74.21875 31.78125 74.21875 
Q 42.671875 74.21875 48.875 69.140625 
Q 55.078125 64.0625 55.078125 55.328125 
Q 55.078125 49.078125 51.53125 44.71875 
Q 48 40.375 41.703125 38.8125 
Q 48.828125 37.15625 52.796875 32.3125 
Q 56.78125 27.484375 56.78125 20.515625 
Q 56.78125 9.90625 50.3125 4.234375 
Q 43.84375 -1.421875 31.78125 -1.421875 
Q 19.734375 -1.421875 13.25 4.234375 
Q 6.78125 9.90625 6.78125 20.515625 
Q 6.78125 27.484375 10.78125 32.3125 
Q 14.796875 37.15625 21.921875 38.8125 
z
M 18.3125 54.390625 
Q 18.3125 48.734375 21.84375 45.5625 
Q 25.390625 42.390625 31.78125 42.390625 
Q 38.140625 42.390625 41.71875 45.5625 
Q 45.3125 48.734375 45.3125 54.390625 
Q 45.3125 60.0625 41.71875 63.234375 
Q 38.140625 66.40625 31.78125 66.40625 
Q 25.390625 66.40625 21.84375 63.234375 
Q 18.3125 60.0625 18.3125 54.390625 
z
" id="DejaVuSans-56"/>
      </defs>
      <g transform="translate(21.971875 119.055093)scale(0.1 -0.1)">
       <use xlink:href="#DejaVuSans-48"/>
       <use x="63.623047" xlink:href="#DejaVuSans-46"/>
       <use x="95.410156" xlink:href="#DejaVuSans-48"/>
       <use x="159.033203" xlink:href="#DejaVuSans-48"/>
       <use x="222.65625" xlink:href="#DejaVuSans-56"/>
      </g>
     </g>
    </g>
    <g id="ytick_6">
     <g id="line2d_12">
      <g>
       <use style="stroke:#000000;stroke-width:0.8;" x="57.6" xlink:href="#mf08c529a55" y="67.173843"/>
      </g>
     </g>
     <g id="text_13">
      <!-- 0.010 -->
      <g transform="translate(21.971875 70.973062)scale(0.1 -0.1)">
       <use xlink:href="#DejaVuSans-48"/>
       <use x="63.623047" xlink:href="#DejaVuSans-46"/>
       <use x="95.410156" xlink:href="#DejaVuSans-48"/>
       <use x="159.033203" xlink:href="#DejaVuSans-49"/>
       <use x="222.65625" xlink:href="#DejaVuSans-48"/>
      </g>
     </g>
    </g>
    <g id="text_14">
     <!-- Prob. Density (a.u.) -->
     <defs>
      <path d="M 19.671875 64.796875 
L 19.671875 37.40625 
L 32.078125 37.40625 
Q 38.96875 37.40625 42.71875 40.96875 
Q 46.484375 44.53125 46.484375 51.125 
Q 46.484375 57.671875 42.71875 61.234375 
Q 38.96875 64.796875 32.078125 64.796875 
z
M 9.8125 72.90625 
L 32.078125 72.90625 
Q 44.34375 72.90625 50.609375 67.359375 
Q 56.890625 61.8125 56.890625 51.125 
Q 56.890625 40.328125 50.609375 34.8125 
Q 44.34375 29.296875 32.078125 29.296875 
L 19.671875 29.296875 
L 19.671875 0 
L 9.8125 0 
z
" id="DejaVuSans-80"/>
      <path d="M 41.109375 46.296875 
Q 39.59375 47.171875 37.8125 47.578125 
Q 36.03125 48 33.890625 48 
Q 26.265625 48 22.1875 43.046875 
Q 18.109375 38.09375 18.109375 28.8125 
L 18.109375 0 
L 9.078125 0 
L 9.078125 54.6875 
L 18.109375 54.6875 
L 18.109375 46.1875 
Q 20.953125 51.171875 25.484375 53.578125 
Q 30.03125 56 36.53125 56 
Q 37.453125 56 38.578125 55.875 
Q 39.703125 55.765625 41.0625 55.515625 
z
" id="DejaVuSans-114"/>
      <path d="M 30.609375 48.390625 
Q 23.390625 48.390625 19.1875 42.75 
Q 14.984375 37.109375 14.984375 27.296875 
Q 14.984375 17.484375 19.15625 11.84375 
Q 23.34375 6.203125 30.609375 6.203125 
Q 37.796875 6.203125 41.984375 11.859375 
Q 46.1875 17.53125 46.1875 27.296875 
Q 46.1875 37.015625 41.984375 42.703125 
Q 37.796875 48.390625 30.609375 48.390625 
z
M 30.609375 56 
Q 42.328125 56 49.015625 48.375 
Q 55.71875 40.765625 55.71875 27.296875 
Q 55.71875 13.875 49.015625 6.21875 
Q 42.328125 -1.421875 30.609375 -1.421875 
Q 18.84375 -1.421875 12.171875 6.21875 
Q 5.515625 13.875 5.515625 27.296875 
Q 5.515625 40.765625 12.171875 48.375 
Q 18.84375 56 30.609375 56 
z
" id="DejaVuSans-111"/>
      <path id="DejaVuSans-32"/>
      <path d="M 19.671875 64.796875 
L 19.671875 8.109375 
L 31.59375 8.109375 
Q 46.6875 8.109375 53.6875 14.9375 
Q 60.6875 21.78125 60.6875 36.53125 
Q 60.6875 51.171875 53.6875 57.984375 
Q 46.6875 64.796875 31.59375 64.796875 
z
M 9.8125 72.90625 
L 30.078125 72.90625 
Q 51.265625 72.90625 61.171875 64.09375 
Q 71.09375 55.28125 71.09375 36.53125 
Q 71.09375 17.671875 61.125 8.828125 
Q 51.171875 0 30.078125 0 
L 9.8125 0 
z
" id="DejaVuSans-68"/>
      <path d="M 56.203125 29.59375 
L 56.203125 25.203125 
L 14.890625 25.203125 
Q 15.484375 15.921875 20.484375 11.0625 
Q 25.484375 6.203125 34.421875 6.203125 
Q 39.59375 6.203125 44.453125 7.46875 
Q 49.3125 8.734375 54.109375 11.28125 
L 54.109375 2.78125 
Q 49.265625 0.734375 44.1875 -0.34375 
Q 39.109375 -1.421875 33.890625 -1.421875 
Q 20.796875 -1.421875 13.15625 6.1875 
Q 5.515625 13.8125 5.515625 26.8125 
Q 5.515625 40.234375 12.765625 48.109375 
Q 20.015625 56 32.328125 56 
Q 43.359375 56 49.78125 48.890625 
Q 56.203125 41.796875 56.203125 29.59375 
z
M 47.21875 32.234375 
Q 47.125 39.59375 43.09375 43.984375 
Q 39.0625 48.390625 32.421875 48.390625 
Q 24.90625 48.390625 20.390625 44.140625 
Q 15.875 39.890625 15.1875 32.171875 
z
" id="DejaVuSans-101"/>
      <path d="M 54.890625 33.015625 
L 54.890625 0 
L 45.90625 0 
L 45.90625 32.71875 
Q 45.90625 40.484375 42.875 44.328125 
Q 39.84375 48.1875 33.796875 48.1875 
Q 26.515625 48.1875 22.3125 43.546875 
Q 18.109375 38.921875 18.109375 30.90625 
L 18.109375 0 
L 9.078125 0 
L 9.078125 54.6875 
L 18.109375 54.6875 
L 18.109375 46.1875 
Q 21.34375 51.125 25.703125 53.5625 
Q 30.078125 56 35.796875 56 
Q 45.21875 56 50.046875 50.171875 
Q 54.890625 44.34375 54.890625 33.015625 
z
" id="DejaVuSans-110"/>
      <path d="M 44.28125 53.078125 
L 44.28125 44.578125 
Q 40.484375 46.53125 36.375 47.5 
Q 32.28125 48.484375 27.875 48.484375 
Q 21.1875 48.484375 17.84375 46.4375 
Q 14.5 44.390625 14.5 40.28125 
Q 14.5 37.15625 16.890625 35.375 
Q 19.28125 33.59375 26.515625 31.984375 
L 29.59375 31.296875 
Q 39.15625 29.25 43.1875 25.515625 
Q 47.21875 21.78125 47.21875 15.09375 
Q 47.21875 7.46875 41.1875 3.015625 
Q 35.15625 -1.421875 24.609375 -1.421875 
Q 20.21875 -1.421875 15.453125 -0.5625 
Q 10.6875 0.296875 5.421875 2 
L 5.421875 11.28125 
Q 10.40625 8.6875 15.234375 7.390625 
Q 20.0625 6.109375 24.8125 6.109375 
Q 31.15625 6.109375 34.5625 8.28125 
Q 37.984375 10.453125 37.984375 14.40625 
Q 37.984375 18.0625 35.515625 20.015625 
Q 33.0625 21.96875 24.703125 23.78125 
L 21.578125 24.515625 
Q 13.234375 26.265625 9.515625 29.90625 
Q 5.8125 33.546875 5.8125 39.890625 
Q 5.8125 47.609375 11.28125 51.796875 
Q 16.75 56 26.8125 56 
Q 31.78125 56 36.171875 55.265625 
Q 40.578125 54.546875 44.28125 53.078125 
z
" id="DejaVuSans-115"/>
      <path d="M 9.421875 54.6875 
L 18.40625 54.6875 
L 18.40625 0 
L 9.421875 0 
z
M 9.421875 75.984375 
L 18.40625 75.984375 
L 18.40625 64.59375 
L 9.421875 64.59375 
z
" id="DejaVuSans-105"/>
      <path d="M 32.171875 -5.078125 
Q 28.375 -14.84375 24.75 -17.8125 
Q 21.140625 -20.796875 15.09375 -20.796875 
L 7.90625 -20.796875 
L 7.90625 -13.28125 
L 13.1875 -13.28125 
Q 16.890625 -13.28125 18.9375 -11.515625 
Q 21 -9.765625 23.484375 -3.21875 
L 25.09375 0.875 
L 2.984375 54.6875 
L 12.5 54.6875 
L 29.59375 11.921875 
L 46.6875 54.6875 
L 56.203125 54.6875 
z
" id="DejaVuSans-121"/>
      <path d="M 31 75.875 
Q 24.46875 64.65625 21.28125 53.65625 
Q 18.109375 42.671875 18.109375 31.390625 
Q 18.109375 20.125 21.3125 9.0625 
Q 24.515625 -2 31 -13.1875 
L 23.1875 -13.1875 
Q 15.875 -1.703125 12.234375 9.375 
Q 8.59375 20.453125 8.59375 31.390625 
Q 8.59375 42.28125 12.203125 53.3125 
Q 15.828125 64.359375 23.1875 75.875 
z
" id="DejaVuSans-40"/>
      <path d="M 8.5 21.578125 
L 8.5 54.6875 
L 17.484375 54.6875 
L 17.484375 21.921875 
Q 17.484375 14.15625 20.5 10.265625 
Q 23.53125 6.390625 29.59375 6.390625 
Q 36.859375 6.390625 41.078125 11.03125 
Q 45.3125 15.671875 45.3125 23.6875 
L 45.3125 54.6875 
L 54.296875 54.6875 
L 54.296875 0 
L 45.3125 0 
L 45.3125 8.40625 
Q 42.046875 3.421875 37.71875 1 
Q 33.40625 -1.421875 27.6875 -1.421875 
Q 18.265625 -1.421875 13.375 4.4375 
Q 8.5 10.296875 8.5 21.578125 
z
M 31.109375 56 
z
" id="DejaVuSans-117"/>
      <path d="M 8.015625 75.875 
L 15.828125 75.875 
Q 23.140625 64.359375 26.78125 53.3125 
Q 30.421875 42.28125 30.421875 31.390625 
Q 30.421875 20.453125 26.78125 9.375 
Q 23.140625 -1.703125 15.828125 -13.1875 
L 8.015625 -13.1875 
Q 14.5 -2 17.703125 9.0625 
Q 20.90625 20.125 20.90625 31.390625 
Q 20.90625 42.671875 17.703125 53.65625 
Q 14.5 64.65625 8.015625 75.875 
z
" id="DejaVuSans-41"/>
     </defs>
     <g transform="translate(15.892187 222.917844)rotate(-90)scale(0.1 -0.1)">
      <use xlink:href="#DejaVuSans-80"/>
      <use x="60.287109" xlink:href="#DejaVuSans-114"/>
      <use x="101.369141" xlink:href="#DejaVuSans-111"/>
      <use x="162.550781" xlink:href="#DejaVuSans-98"/>
      <use x="226.027344" xlink:href="#DejaVuSans-46"/>
      <use x="257.814453" xlink:href="#DejaVuSans-32"/>
      <use x="289.601562" xlink:href="#DejaVuSans-68"/>
      <use x="366.603516" xlink:href="#DejaVuSans-101"/>
      <use x="428.126953" xlink:href="#DejaVuSans-110"/>
      <use x="491.505859" xlink:href="#DejaVuSans-115"/>
      <use x="543.605469" xlink:href="#DejaVuSans-105"/>
      <use x="571.388672" xlink:href="#DejaVuSans-116"/>
      <use x="610.597656" xlink:href="#DejaVuSans-121"/>
      <use x="669.777344" xlink:href="#DejaVuSans-32"/>
      <use x="701.564453" xlink:href="#DejaVuSans-40"/>
      <use x="740.578125" xlink:href="#DejaVuSans-97"/>
      <use x="801.857422" xlink:href="#DejaVuSans-46"/>
      <use x="833.644531" xlink:href="#DejaVuSans-117"/>
      <use x="897.023438" xlink:href="#DejaVuSans-46"/>
      <use x="928.810547" xlink:href="#DejaVuSans-41"/>
     </g>
    </g>
   </g>
   <g id="patch_9">
    <path d="M 57.6 307.584 
L 57.6 41.472 
" style="fill:none;stroke:#000000;stroke-linecap:square;stroke-linejoin:miter;stroke-width:0.8;"/>
   </g>
   <g id="patch_10">
    <path d="M 414.72 307.584 
L 414.72 41.472 
" style="fill:none;stroke:#000000;stroke-linecap:square;stroke-linejoin:miter;stroke-width:0.8;"/>
   </g>
   <g id="patch_11">
    <path d="M 57.6 307.584 
L 414.72 307.584 
" style="fill:none;stroke:#000000;stroke-linecap:square;stroke-linejoin:miter;stroke-width:0.8;"/>
   </g>
   <g id="patch_12">
    <path d="M 57.6 41.472 
L 414.72 41.472 
" style="fill:none;stroke:#000000;stroke-linecap:square;stroke-linejoin:miter;stroke-width:0.8;"/>
   </g>
   <g id="legend_1">
    <g id="patch_13">
     <path d="M 325.405938 137.54075 
L 407.72 137.54075 
Q 409.72 137.54075 409.72 135.54075 
L 409.72 48.472 
Q 409.72 46.472 407.72 46.472 
L 325.405938 46.472 
Q 323.405938 46.472 323.405938 48.472 
L 323.405938 135.54075 
Q 323.405938 137.54075 325.405938 137.54075 
z
" style="fill:#ffffff;opacity:0.8;stroke:#cccccc;stroke-linejoin:miter;"/>
    </g>
    <g id="patch_14">
     <path d="M 327.405938 58.070438 
L 347.405938 58.070438 
L 347.405938 51.070438 
L 327.405938 51.070438 
z
" style="fill:none;stroke:#1f77b4;stroke-linejoin:miter;"/>
    </g>
    <g id="text_15">
     <!-- quark -->
     <defs>
      <path d="M 14.796875 27.296875 
Q 14.796875 17.390625 18.875 11.75 
Q 22.953125 6.109375 30.078125 6.109375 
Q 37.203125 6.109375 41.296875 11.75 
Q 45.40625 17.390625 45.40625 27.296875 
Q 45.40625 37.203125 41.296875 42.84375 
Q 37.203125 48.484375 30.078125 48.484375 
Q 22.953125 48.484375 18.875 42.84375 
Q 14.796875 37.203125 14.796875 27.296875 
z
M 45.40625 8.203125 
Q 42.578125 3.328125 38.25 0.953125 
Q 33.9375 -1.421875 27.875 -1.421875 
Q 17.96875 -1.421875 11.734375 6.484375 
Q 5.515625 14.40625 5.515625 27.296875 
Q 5.515625 40.1875 11.734375 48.09375 
Q 17.96875 56 27.875 56 
Q 33.9375 56 38.25 53.625 
Q 42.578125 51.265625 45.40625 46.390625 
L 45.40625 54.6875 
L 54.390625 54.6875 
L 54.390625 -20.796875 
L 45.40625 -20.796875 
z
" id="DejaVuSans-113"/>
      <path d="M 9.078125 75.984375 
L 18.109375 75.984375 
L 18.109375 31.109375 
L 44.921875 54.6875 
L 56.390625 54.6875 
L 27.390625 29.109375 
L 57.625 0 
L 45.90625 0 
L 18.109375 26.703125 
L 18.109375 0 
L 9.078125 0 
z
" id="DejaVuSans-107"/>
     </defs>
     <g transform="translate(355.405938 58.070438)scale(0.1 -0.1)">
      <use xlink:href="#DejaVuSans-113"/>
      <use x="63.476562" xlink:href="#DejaVuSans-117"/>
      <use x="126.855469" xlink:href="#DejaVuSans-97"/>
      <use x="188.134766" xlink:href="#DejaVuSans-114"/>
      <use x="229.248047" xlink:href="#DejaVuSans-107"/>
     </g>
    </g>
    <g id="patch_15">
     <path d="M 327.405938 72.748563 
L 347.405938 72.748563 
L 347.405938 65.748563 
L 327.405938 65.748563 
z
" style="fill:none;stroke:#ff7f0e;stroke-linejoin:miter;"/>
    </g>
    <g id="text_16">
     <!-- gluon -->
     <defs>
      <path d="M 45.40625 27.984375 
Q 45.40625 37.75 41.375 43.109375 
Q 37.359375 48.484375 30.078125 48.484375 
Q 22.859375 48.484375 18.828125 43.109375 
Q 14.796875 37.75 14.796875 27.984375 
Q 14.796875 18.265625 18.828125 12.890625 
Q 22.859375 7.515625 30.078125 7.515625 
Q 37.359375 7.515625 41.375 12.890625 
Q 45.40625 18.265625 45.40625 27.984375 
z
M 54.390625 6.78125 
Q 54.390625 -7.171875 48.1875 -13.984375 
Q 42 -20.796875 29.203125 -20.796875 
Q 24.46875 -20.796875 20.265625 -20.09375 
Q 16.0625 -19.390625 12.109375 -17.921875 
L 12.109375 -9.1875 
Q 16.0625 -11.328125 19.921875 -12.34375 
Q 23.78125 -13.375 27.78125 -13.375 
Q 36.625 -13.375 41.015625 -8.765625 
Q 45.40625 -4.15625 45.40625 5.171875 
L 45.40625 9.625 
Q 42.625 4.78125 38.28125 2.390625 
Q 33.9375 0 27.875 0 
Q 17.828125 0 11.671875 7.65625 
Q 5.515625 15.328125 5.515625 27.984375 
Q 5.515625 40.671875 11.671875 48.328125 
Q 17.828125 56 27.875 56 
Q 33.9375 56 38.28125 53.609375 
Q 42.625 51.21875 45.40625 46.390625 
L 45.40625 54.6875 
L 54.390625 54.6875 
z
" id="DejaVuSans-103"/>
      <path d="M 9.421875 75.984375 
L 18.40625 75.984375 
L 18.40625 0 
L 9.421875 0 
z
" id="DejaVuSans-108"/>
     </defs>
     <g transform="translate(355.405938 72.748563)scale(0.1 -0.1)">
      <use xlink:href="#DejaVuSans-103"/>
      <use x="63.476562" xlink:href="#DejaVuSans-108"/>
      <use x="91.259766" xlink:href="#DejaVuSans-117"/>
      <use x="154.638672" xlink:href="#DejaVuSans-111"/>
      <use x="215.820312" xlink:href="#DejaVuSans-110"/>
     </g>
    </g>
    <g id="patch_16">
     <path d="M 327.405938 87.426688 
L 347.405938 87.426688 
L 347.405938 80.426688 
L 327.405938 80.426688 
z
" style="fill:none;stroke:#2ca02c;stroke-linejoin:miter;"/>
    </g>
    <g id="text_17">
     <!-- W -->
     <defs>
      <path d="M 3.328125 72.90625 
L 13.28125 72.90625 
L 28.609375 11.28125 
L 43.890625 72.90625 
L 54.984375 72.90625 
L 70.3125 11.28125 
L 85.59375 72.90625 
L 95.609375 72.90625 
L 77.296875 0 
L 64.890625 0 
L 49.515625 63.28125 
L 33.984375 0 
L 21.578125 0 
z
" id="DejaVuSans-87"/>
     </defs>
     <g transform="translate(355.405938 87.426688)scale(0.1 -0.1)">
      <use xlink:href="#DejaVuSans-87"/>
     </g>
    </g>
    <g id="patch_17">
     <path d="M 327.405938 102.104813 
L 347.405938 102.104813 
L 347.405938 95.104813 
L 327.405938 95.104813 
z
" style="fill:none;stroke:#d62728;stroke-linejoin:miter;"/>
    </g>
    <g id="text_18">
     <!-- Z -->
     <defs>
      <path d="M 5.609375 72.90625 
L 62.890625 72.90625 
L 62.890625 65.375 
L 16.796875 8.296875 
L 64.015625 8.296875 
L 64.015625 0 
L 4.5 0 
L 4.5 7.515625 
L 50.59375 64.59375 
L 5.609375 64.59375 
z
" id="DejaVuSans-90"/>
     </defs>
     <g transform="translate(355.405938 102.104813)scale(0.1 -0.1)">
      <use xlink:href="#DejaVuSans-90"/>
     </g>
    </g>
    <g id="patch_18">
     <path d="M 327.405938 116.782938 
L 347.405938 116.782938 
L 347.405938 109.782938 
L 327.405938 109.782938 
z
" style="fill:none;stroke:#9467bd;stroke-linejoin:miter;"/>
    </g>
    <g id="text_19">
     <!-- top -->
     <defs>
      <path d="M 18.109375 8.203125 
L 18.109375 -20.796875 
L 9.078125 -20.796875 
L 9.078125 54.6875 
L 18.109375 54.6875 
L 18.109375 46.390625 
Q 20.953125 51.265625 25.265625 53.625 
Q 29.59375 56 35.59375 56 
Q 45.5625 56 51.78125 48.09375 
Q 58.015625 40.1875 58.015625 27.296875 
Q 58.015625 14.40625 51.78125 6.484375 
Q 45.5625 -1.421875 35.59375 -1.421875 
Q 29.59375 -1.421875 25.265625 0.953125 
Q 20.953125 3.328125 18.109375 8.203125 
z
M 48.6875 27.296875 
Q 48.6875 37.203125 44.609375 42.84375 
Q 40.53125 48.484375 33.40625 48.484375 
Q 26.265625 48.484375 22.1875 42.84375 
Q 18.109375 37.203125 18.109375 27.296875 
Q 18.109375 17.390625 22.1875 11.75 
Q 26.265625 6.109375 33.40625 6.109375 
Q 40.53125 6.109375 44.609375 11.75 
Q 48.6875 17.390625 48.6875 27.296875 
z
" id="DejaVuSans-112"/>
     </defs>
     <g transform="translate(355.405938 116.782938)scale(0.1 -0.1)">
      <use xlink:href="#DejaVuSans-116"/>
      <use x="39.208984" xlink:href="#DejaVuSans-111"/>
      <use x="100.390625" xlink:href="#DejaVuSans-112"/>
     </g>
    </g>
    <g id="patch_19">
     <path d="M 327.405938 131.461063 
L 347.405938 131.461063 
L 347.405938 124.461063 
L 327.405938 124.461063 
z
" style="fill:none;stroke:#000000;stroke-linejoin:miter;"/>
    </g>
    <g id="text_20">
     <!-- undefined -->
     <defs>
      <path d="M 37.109375 75.984375 
L 37.109375 68.5 
L 28.515625 68.5 
Q 23.6875 68.5 21.796875 66.546875 
Q 19.921875 64.59375 19.921875 59.515625 
L 19.921875 54.6875 
L 34.71875 54.6875 
L 34.71875 47.703125 
L 19.921875 47.703125 
L 19.921875 0 
L 10.890625 0 
L 10.890625 47.703125 
L 2.296875 47.703125 
L 2.296875 54.6875 
L 10.890625 54.6875 
L 10.890625 58.5 
Q 10.890625 67.625 15.140625 71.796875 
Q 19.390625 75.984375 28.609375 75.984375 
z
" id="DejaVuSans-102"/>
     </defs>
     <g transform="translate(355.405938 131.461063)scale(0.1 -0.1)">
      <use xlink:href="#DejaVuSans-117"/>
      <use x="63.378906" xlink:href="#DejaVuSans-110"/>
      <use x="126.757812" xlink:href="#DejaVuSans-100"/>
      <use x="190.234375" xlink:href="#DejaVuSans-101"/>
      <use x="251.757812" xlink:href="#DejaVuSans-102"/>
      <use x="286.962891" xlink:href="#DejaVuSans-105"/>
      <use x="314.746094" xlink:href="#DejaVuSans-110"/>
      <use x="378.125" xlink:href="#DejaVuSans-101"/>
      <use x="439.648438" xlink:href="#DejaVuSans-100"/>
     </g>
    </g>
   </g>
  </g>
 </g>
 <defs>
  <clipPath id="p6aafb962a5">
   <rect height="266.112" width="357.12" x="57.6" y="41.472"/>
  </clipPath>
 </defs>
</svg>
