<?xml version="1.0" encoding="utf-8" standalone="no"?>
<!DOCTYPE svg PUBLIC "-//W3C//DTD SVG 1.1//EN"
  "http://www.w3.org/Graphics/SVG/1.1/DTD/svg11.dtd">
<!-- Created with matplotlib (https://matplotlib.org/) -->
<svg height="345.6pt" version="1.1" viewBox="0 0 460.8 345.6" width="460.8pt" xmlns="http://www.w3.org/2000/svg" xmlns:xlink="http://www.w3.org/1999/xlink">
 <defs>
  <style type="text/css">
*{stroke-linecap:butt;stroke-linejoin:round;}
  </style>
 </defs>
 <g id="figure_1">
  <g id="patch_1">
   <path d="M 0 345.6 
L 460.8 345.6 
L 460.8 0 
L 0 0 
z
" style="fill:#ffffff;"/>
  </g>
  <g id="axes_1">
   <g id="patch_2">
    <path d="M 57.6 307.584 
L 414.72 307.584 
L 414.72 41.472 
L 57.6 41.472 
z
" style="fill:#ffffff;"/>
   </g>
   <g id="patch_3">
    <path clip-path="url(#p1a11b17f3d)" d="M 73.832727 307.584 
L 73.832727 306.014471 
L 77.079275 306.014471 
L 77.079275 305.848328 
L 86.818917 305.752883 
L 86.818917 305.590275 
L 90.065465 305.590275 
L 90.065465 305.438271 
L 96.558545 305.328687 
L 96.558545 305.27036 
L 103.05164 305.266825 
L 103.05164 305.070633 
L 109.544735 305.005236 
L 109.544735 304.823185 
L 112.791275 304.823185 
L 112.791275 304.706531 
L 119.28437 304.621691 
L 119.28437 304.559829 
L 122.530917 304.559829 
L 122.530917 304.413128 
L 125.777457 304.413128 
L 125.777457 304.280566 
L 132.270552 304.176285 
L 132.270552 303.967721 
L 138.76364 303.919999 
L 138.76364 303.780368 
L 142.010187 303.780368 
L 142.010187 303.446313 
L 145.256734 303.446313 
L 145.256734 303.211237 
L 151.749822 303.1317 
L 151.749822 302.887787 
L 154.996369 302.887787 
L 154.996369 302.642106 
L 158.242917 302.642106 
L 158.242917 302.361076 
L 161.489457 302.361076 
L 161.489457 302.046463 
L 164.736004 302.046463 
L 164.736004 301.705338 
L 167.982552 301.705338 
L 167.982552 301.512681 
L 171.229092 301.512681 
L 171.229092 301.012483 
L 174.475639 301.012483 
L 174.475639 300.611263 
L 177.722187 300.611263 
L 177.722187 300.169392 
L 180.968731 300.169392 
L 180.968731 299.895431 
L 184.215278 299.895431 
L 184.215278 299.059409 
L 187.461822 299.059409 
L 187.461822 298.431951 
L 190.708369 298.431951 
L 190.708369 297.496952 
L 193.954913 297.496952 
L 193.954913 296.166031 
L 197.201457 296.166031 
L 197.201457 295.128518 
L 200.448004 295.128518 
L 200.448004 293.599641 
L 203.694548 293.599641 
L 203.694548 291.563496 
L 206.941094 291.563496 
L 206.941094 289.490232 
L 210.187639 289.490232 
L 210.187639 287.196037 
L 213.434185 287.196037 
L 213.434185 283.834274 
L 216.680731 283.834274 
L 216.680731 279.846824 
L 219.927276 279.846824 
L 219.927276 273.642944 
L 223.173822 273.642944 
L 223.173822 265.850089 
L 226.420367 265.850089 
L 226.420367 253.272658 
L 229.666912 253.272658 
L 229.666912 225.459482 
L 232.913458 225.459482 
L 232.913458 110.024892 
L 236.160003 110.024892 
L 236.160003 177.777986 
L 239.406549 177.777986 
L 239.406549 226.882311 
L 242.653094 226.882311 
L 242.653094 253.988485 
L 245.899639 253.988485 
L 245.899639 266.325548 
L 249.146185 266.325548 
L 249.146185 273.632339 
L 252.392731 273.632339 
L 252.392731 279.381976 
L 255.639276 279.381976 
L 255.639276 283.851951 
L 258.885822 283.851951 
L 258.885822 286.734722 
L 262.132366 286.734722 
L 262.132366 289.446046 
L 265.378911 289.446046 
L 265.378911 292.023042 
L 268.625457 292.023042 
L 268.625457 293.567827 
L 271.872004 293.567827 
L 271.872004 295.094936 
L 275.118548 295.094936 
L 275.118548 296.337479 
L 278.365092 296.337479 
L 278.365092 297.162896 
L 281.611639 297.162896 
L 281.611639 298.446092 
L 284.858183 298.446092 
L 284.858183 299.252065 
L 288.10473 299.252065 
L 288.10473 299.775242 
L 291.351274 299.775242 
L 291.351274 300.255998 
L 294.597822 300.255998 
L 294.597822 300.605961 
L 297.844365 300.605961 
L 297.844365 301.084949 
L 301.090909 301.084949 
L 301.090909 301.277606 
L 304.337457 301.277606 
L 304.337457 301.818457 
L 307.584004 301.818457 
L 307.584004 302.141907 
L 310.830544 302.141907 
L 310.830544 302.45652 
L 314.077092 302.45652 
L 314.077092 302.617361 
L 317.323639 302.617361 
L 317.323639 302.817087 
L 320.570187 302.817087 
L 320.570187 303.038024 
L 323.816727 303.038024 
L 323.816727 303.384451 
L 327.063274 303.384451 
L 327.063274 303.508175 
L 333.556362 303.56827 
L 333.556362 303.640736 
L 336.802909 303.640736 
L 336.802909 304.126795 
L 340.049457 304.126795 
L 340.049457 304.354801 
L 343.296004 304.354801 
L 343.296004 304.241682 
L 346.542544 304.241682 
L 346.542544 304.478525 
L 353.035639 304.51034 
L 353.035639 304.667646 
L 356.282179 304.667646 
L 356.282179 304.824952 
L 359.528727 304.824952 
L 359.528727 305.010538 
L 369.268369 305.029981 
L 369.268369 305.166077 
L 372.514916 305.166077 
L 372.514916 305.316314 
L 375.761449 305.316314 
L 375.761449 305.438271 
L 382.254544 305.408224 
L 382.254544 305.630927 
L 385.501091 305.630927 
L 385.501091 305.765256 
L 391.994186 305.708696 
L 391.994186 305.947307 
L 398.487267 306.056891 
L 398.487267 307.584 
L 398.487267 307.584 
" style="fill:none;stroke:#1f77b4;stroke-linejoin:miter;"/>
   </g>
   <g id="patch_4">
    <path clip-path="url(#p1a11b17f3d)" d="M 73.832727 307.584 
L 73.832727 304.533317 
L 77.079275 304.533317 
L 77.079275 304.407826 
L 80.325822 304.407826 
L 80.325822 304.056095 
L 83.57237 304.056095 
L 83.57237 303.773297 
L 86.818917 303.773297 
L 86.818917 303.642503 
L 90.065465 303.642503 
L 90.065465 303.373845 
L 93.312012 303.373845 
L 93.312012 303.108722 
L 99.805092 303.131699 
L 99.805092 302.868344 
L 103.05164 302.868344 
L 103.05164 302.675687 
L 106.298187 302.675687 
L 106.298187 302.286841 
L 109.544735 302.286841 
L 109.544735 302.145442 
L 112.791275 302.145442 
L 112.791275 301.818457 
L 116.037822 301.818457 
L 116.037822 301.553334 
L 119.28437 301.553334 
L 119.28437 301.215744 
L 122.530917 301.215744 
L 122.530917 300.864014 
L 125.777457 300.864014 
L 125.777457 300.581216 
L 132.270552 300.482237 
L 132.270552 300.28251 
L 135.517099 300.28251 
L 135.517099 299.761101 
L 138.76364 299.761101 
L 138.76364 299.427046 
L 142.010187 299.427046 
L 142.010187 299.084155 
L 145.256734 299.084155 
L 145.256734 298.589258 
L 148.503275 298.589258 
L 148.503275 297.880496 
L 151.749822 297.880496 
L 151.749822 297.661328 
L 154.996369 297.661328 
L 154.996369 296.993217 
L 158.242917 296.993217 
L 158.242917 296.791723 
L 161.489457 296.791723 
L 161.489457 295.975144 
L 164.736004 295.975144 
L 164.736004 295.29643 
L 167.982552 295.29643 
L 167.982552 294.771485 
L 171.229092 294.771485 
L 171.229092 294.011465 
L 174.475639 294.011465 
L 174.475639 293.097676 
L 177.722187 293.097676 
L 177.722187 292.104348 
L 180.968731 292.104348 
L 180.968731 291.008506 
L 184.215278 291.008506 
L 184.215278 289.955084 
L 187.461822 289.955084 
L 187.461822 288.115132 
L 190.708369 288.115132 
L 190.708369 286.699373 
L 193.954913 286.699373 
L 193.954913 284.567782 
L 197.201457 284.567782 
L 197.201457 282.047347 
L 200.448004 282.047347 
L 200.448004 279.252949 
L 203.694548 279.252949 
L 203.694548 276.060866 
L 206.941094 276.060866 
L 206.941094 271.919646 
L 210.187639 271.919646 
L 210.187639 266.864634 
L 213.434185 266.864634 
L 213.434185 260.747354 
L 216.680731 260.747354 
L 216.680731 253.604949 
L 219.927276 253.604949 
L 219.927276 243.245704 
L 223.173822 243.245704 
L 223.173822 229.434553 
L 226.420367 229.434553 
L 226.420367 207.864155 
L 229.666912 207.864155 
L 229.666912 170.492383 
L 232.913458 170.492383 
L 232.913458 54.144 
L 236.160003 54.144 
L 236.160003 125.311896 
L 239.406549 125.311896 
L 239.406549 172.123786 
L 242.653094 172.123786 
L 242.653094 208.436796 
L 245.899639 208.436796 
L 245.899639 229.30376 
L 249.146185 229.30376 
L 249.146185 243.351756 
L 252.392731 243.351756 
L 252.392731 253.592572 
L 255.639276 253.592572 
L 255.639276 261.533891 
L 258.885822 261.533891 
L 258.885822 266.869935 
L 262.132366 266.869935 
L 262.132366 272.230723 
L 265.378911 272.230723 
L 265.378911 276.064404 
L 268.625457 276.064404 
L 268.625457 279.226435 
L 271.872004 279.226435 
L 271.872004 281.971344 
L 275.118548 281.971344 
L 275.118548 284.620806 
L 278.365092 284.620806 
L 278.365092 286.30699 
L 281.611639 286.30699 
L 281.611639 288.405 
L 284.858183 288.405 
L 284.858183 289.972759 
L 288.10473 289.972759 
L 288.10473 291.301909 
L 291.351274 291.301909 
L 291.351274 292.210395 
L 294.597822 292.210395 
L 294.597822 293.421125 
L 297.844365 293.421125 
L 297.844365 293.93193 
L 301.090909 293.93193 
L 301.090909 294.893444 
L 304.337457 294.893444 
L 304.337457 295.619879 
L 307.584004 295.619879 
L 307.584004 296.14659 
L 310.830544 296.14659 
L 310.830544 296.791724 
L 314.077092 296.791724 
L 314.077092 297.228293 
L 317.323639 297.228293 
L 317.323639 297.691375 
L 320.570187 297.691375 
L 320.570187 298.396602 
L 323.816727 298.396602 
L 323.816727 298.688236 
L 327.063274 298.688236 
L 327.063274 298.877359 
L 330.309822 298.877359 
L 330.309822 299.457094 
L 333.556362 299.457094 
L 333.556362 299.886593 
L 336.802909 299.886593 
L 336.802909 300.056273 
L 340.049457 300.056273 
L 340.049457 300.545865 
L 343.296004 300.545865 
L 343.296004 300.671357 
L 346.542544 300.671357 
L 346.542544 301.04253 
L 349.789092 301.04253 
L 349.789092 301.198068 
L 353.035639 301.198068 
L 353.035639 301.620498 
L 359.528727 301.698267 
L 359.528727 301.887389 
L 362.775274 301.887389 
L 362.775274 302.217909 
L 366.021821 302.217909 
L 366.021821 302.578476 
L 372.514916 302.613826 
L 372.514916 303.08221 
L 379.007997 303.06807 
L 379.007997 303.395055 
L 382.254544 303.395055 
L 382.254544 303.566502 
L 385.501091 303.566502 
L 385.501091 303.996 
L 388.747639 303.996 
L 388.747639 303.842229 
L 391.994186 303.842229 
L 391.994186 304.148005 
L 395.240734 304.148005 
L 395.240734 304.466153 
L 398.487267 304.466153 
L 398.487267 307.584 
L 398.487267 307.584 
" style="fill:none;stroke:#ff7f0e;stroke-linejoin:miter;"/>
   </g>
   <g id="patch_5">
    <path clip-path="url(#p1a11b17f3d)" d="M 73.832727 307.584 
L 73.832727 306.756816 
L 83.57237 306.721466 
L 83.57237 306.565927 
L 96.558545 306.498763 
L 96.558545 306.325549 
L 109.544735 306.367969 
L 109.544735 306.210662 
L 116.037822 306.125823 
L 116.037822 306.058658 
L 122.530917 306.035681 
L 122.530917 305.897817 
L 125.777457 305.897817 
L 125.777457 305.706929 
L 132.270552 305.650369 
L 132.270552 305.547855 
L 135.517099 305.547855 
L 135.517099 305.413526 
L 138.76364 305.413526 
L 138.76364 305.238545 
L 145.256734 305.288034 
L 145.256734 304.918629 
L 151.749822 304.893884 
L 151.749822 304.573969 
L 154.996369 304.573969 
L 154.996369 304.407825 
L 158.242917 304.407825 
L 158.242917 304.248752 
L 161.489457 304.248752 
L 161.489457 303.971256 
L 164.736004 303.971256 
L 164.736004 303.50464 
L 167.982552 303.50464 
L 167.982552 303.292542 
L 171.229092 303.292542 
L 171.229092 302.698666 
L 174.475639 302.698666 
L 174.475639 302.412333 
L 177.722187 302.412333 
L 177.722187 301.6965 
L 180.968731 301.6965 
L 180.968731 301.016018 
L 184.215278 301.016018 
L 184.215278 300.247161 
L 187.461822 300.247161 
L 187.461822 299.253834 
L 190.708369 299.253834 
L 190.708369 298.380694 
L 193.954913 298.380694 
L 193.954913 297.132849 
L 197.201457 297.132849 
L 197.201457 295.443131 
L 200.448004 295.443131 
L 200.448004 294.062722 
L 203.694548 294.062722 
L 203.694548 291.747314 
L 206.941094 291.747314 
L 206.941094 289.140272 
L 210.187639 289.140272 
L 210.187639 286.050702 
L 213.434185 286.050702 
L 213.434185 282.171068 
L 216.680731 282.171068 
L 216.680731 276.469155 
L 219.927276 276.469155 
L 219.927276 268.754073 
L 223.173822 268.754073 
L 223.173822 258.488508 
L 226.420367 258.488508 
L 226.420367 241.605481 
L 229.666912 241.605481 
L 229.666912 206.959186 
L 232.913458 206.959186 
L 232.913458 82.771993 
L 236.160003 82.771993 
L 236.160003 153.635862 
L 239.406549 153.635862 
L 239.406549 207.837633 
L 242.653094 207.837633 
L 242.653094 242.144558 
L 245.899639 242.144558 
L 245.899639 258.6794 
L 249.146185 258.6794 
L 249.146185 269.088133 
L 252.392731 269.088133 
L 252.392731 276.421434 
L 255.639276 276.421434 
L 255.639276 281.895344 
L 258.885822 281.895344 
L 258.885822 285.569948 
L 262.132366 285.569948 
L 262.132366 288.587047 
L 265.378911 288.587047 
L 265.378911 291.664243 
L 268.625457 291.664243 
L 268.625457 293.779925 
L 271.872004 293.779925 
L 271.872004 295.388339 
L 275.118548 295.388339 
L 275.118548 296.80056 
L 278.365092 296.80056 
L 278.365092 298.117339 
L 281.611639 298.117339 
L 281.611639 299.345743 
L 284.858183 299.345743 
L 284.858183 300.134041 
L 288.10473 300.134041 
L 288.10473 300.955923 
L 291.351274 300.955923 
L 291.351274 301.638173 
L 294.597822 301.638173 
L 294.597822 302.230282 
L 297.844365 302.230282 
L 297.844365 302.647409 
L 301.090909 302.647409 
L 301.090909 303.334961 
L 304.337457 303.334961 
L 304.337457 303.624829 
L 307.584004 303.624829 
L 307.584004 303.817485 
L 310.830544 303.817485 
L 310.830544 304.072003 
L 314.077092 304.072003 
L 314.077092 304.381313 
L 317.323639 304.381313 
L 317.323639 304.542154 
L 320.570187 304.542154 
L 320.570187 304.692391 
L 323.816727 304.692391 
L 323.816727 304.925699 
L 327.063274 304.925699 
L 327.063274 305.240312 
L 333.556362 305.288034 
L 333.556362 305.390549 
L 336.802909 305.390549 
L 336.802909 305.505435 
L 340.049457 305.505435 
L 340.049457 305.712231 
L 346.542544 305.790001 
L 346.542544 305.834188 
L 353.035639 305.90312 
L 353.035639 306.058658 
L 362.775274 306.147033 
L 362.775274 306.256617 
L 372.514916 306.337922 
L 372.514916 306.442203 
L 379.007997 306.509368 
L 379.007997 306.5783 
L 391.994186 306.680814 
L 391.994186 306.732071 
L 398.487267 306.744444 
L 398.487267 307.584 
L 398.487267 307.584 
" style="fill:none;stroke:#2ca02c;stroke-linejoin:miter;"/>
   </g>
   <g id="patch_6">
    <path clip-path="url(#p1a11b17f3d)" d="M 73.832727 307.584 
L 73.832727 306.645464 
L 90.065465 306.553555 
L 90.065465 306.447506 
L 96.558545 306.353829 
L 96.558545 306.263687 
L 103.05164 306.207127 
L 103.05164 306.116986 
L 109.544735 306.147033 
L 109.544735 305.929632 
L 112.791275 305.929632 
L 112.791275 305.816513 
L 122.530917 305.744046 
L 122.530917 305.592042 
L 129.024005 305.560227 
L 129.024005 305.245615 
L 135.517099 305.288034 
L 135.517099 305.113053 
L 138.76364 305.113053 
L 138.76364 304.938071 
L 142.010187 304.938071 
L 142.010187 304.747183 
L 145.256734 304.747183 
L 145.256734 304.559829 
L 148.503275 304.559829 
L 148.503275 304.434337 
L 151.749822 304.434337 
L 151.749822 304.13033 
L 154.996369 304.13033 
L 154.996369 303.776833 
L 158.242917 303.776833 
L 158.242917 303.557664 
L 161.489457 303.557664 
L 161.489457 303.126398 
L 164.736004 303.126398 
L 164.736004 302.834763 
L 167.982552 302.834763 
L 167.982552 302.283306 
L 171.229092 302.283306 
L 171.229092 301.952785 
L 174.475639 301.952785 
L 174.475639 301.449052 
L 177.722187 301.449052 
L 177.722187 300.644846 
L 180.968731 300.644846 
L 180.968731 299.851243 
L 184.215278 299.851243 
L 184.215278 299.407604 
L 187.461822 299.407604 
L 187.461822 298.230458 
L 190.708369 298.230458 
L 190.708369 296.987915 
L 193.954913 296.987915 
L 193.954913 295.83021 
L 197.201457 295.83021 
L 197.201457 294.200588 
L 200.448004 294.200588 
L 200.448004 292.392448 
L 203.694548 292.392448 
L 203.694548 290.244952 
L 206.941094 290.244952 
L 206.941094 287.570745 
L 210.187639 287.570745 
L 210.187639 284.23196 
L 213.434185 284.23196 
L 213.434185 280.177347 
L 216.680731 280.177347 
L 216.680731 274.737018 
L 219.927276 274.737018 
L 219.927276 267.672375 
L 223.173822 267.672375 
L 223.173822 257.127544 
L 226.420367 257.127544 
L 226.420367 240.472508 
L 229.666912 240.472508 
L 229.666912 206.411264 
L 232.913458 206.411264 
L 232.913458 83.296949 
L 236.160003 83.296949 
L 236.160003 153.998194 
L 239.406549 153.998194 
L 239.406549 207.219001 
L 242.653094 207.219001 
L 242.653094 240.170271 
L 245.899639 240.170271 
L 245.899639 257.472206 
L 249.146185 257.472206 
L 249.146185 267.619351 
L 252.392731 267.619351 
L 252.392731 275.101122 
L 255.639276 275.101122 
L 255.639276 280.136693 
L 258.885822 280.136693 
L 258.885822 284.224891 
L 262.132366 284.224891 
L 262.132366 288.065639 
L 265.378911 288.065639 
L 265.378911 290.255556 
L 268.625457 290.255556 
L 268.625457 292.41189 
L 271.872004 292.41189 
L 271.872004 294.013233 
L 275.118548 294.013233 
L 275.118548 295.837281 
L 278.365092 295.837281 
L 278.365092 297.122242 
L 281.611639 297.122242 
L 281.611639 298.062547 
L 284.858183 298.062547 
L 284.858183 299.575516 
L 288.10473 299.575516 
L 288.10473 299.973201 
L 291.351274 299.973201 
L 291.351274 300.818059 
L 294.597822 300.818059 
L 294.597822 301.625801 
L 297.844365 301.625801 
L 297.844365 301.864412 
L 301.090909 301.864412 
L 301.090909 302.447683 
L 304.337457 302.447683 
L 304.337457 302.914299 
L 307.584004 302.914299 
L 307.584004 303.248354 
L 310.830544 303.248354 
L 310.830544 303.578874 
L 314.077092 303.578874 
L 314.077092 303.840462 
L 317.323639 303.840462 
L 317.323639 304.084375 
L 320.570187 304.084375 
L 320.570187 304.416663 
L 323.816727 304.416663 
L 323.816727 304.595179 
L 327.063274 304.595179 
L 327.063274 304.860302 
L 333.556362 304.846162 
L 333.556362 305.143101 
L 336.802909 305.143101 
L 336.802909 305.295104 
L 343.296004 305.385246 
L 343.296004 305.526645 
L 346.542544 305.526645 
L 346.542544 305.676881 
L 349.789092 305.676881 
L 349.789092 305.86777 
L 362.775274 305.894282 
L 362.775274 306.115218 
L 369.268369 306.124056 
L 369.268369 306.283129 
L 379.007997 306.332619 
L 379.007997 306.401551 
L 385.501091 306.472251 
L 385.501091 306.518205 
L 395.240734 306.618952 
L 395.240734 306.749746 
L 398.487267 306.749746 
L 398.487267 307.584 
L 398.487267 307.584 
" style="fill:none;stroke:#d62728;stroke-linejoin:miter;"/>
   </g>
   <g id="patch_7">
    <path clip-path="url(#p1a11b17f3d)" d="M 73.832727 307.584 
L 73.832727 302.516614 
L 77.079275 302.516614 
L 77.079275 301.936879 
L 80.325822 301.936879 
L 80.325822 301.783107 
L 83.57237 301.783107 
L 83.57237 301.454355 
L 86.818917 301.454355 
L 86.818917 301.005413 
L 90.065465 301.005413 
L 90.065465 300.738522 
L 93.312012 300.738522 
L 93.312012 300.399164 
L 96.558545 300.399164 
L 96.558545 299.893664 
L 99.805092 299.893664 
L 99.805092 299.667424 
L 103.05164 299.667424 
L 103.05164 299.439419 
L 106.298187 299.439419 
L 106.298187 299.19904 
L 112.791275 299.091224 
L 112.791275 298.483208 
L 119.28437 298.555675 
L 119.28437 298.34181 
L 122.530917 298.34181 
L 122.530917 297.921147 
L 125.777457 297.921147 
L 125.777457 298.112036 
L 129.024005 298.112036 
L 129.024005 297.696677 
L 132.270552 297.696677 
L 132.270552 297.161129 
L 135.517099 297.161129 
L 135.517099 297.546441 
L 138.76364 297.546441 
L 138.76364 296.881865 
L 145.256734 296.779352 
L 145.256734 296.500088 
L 148.503275 296.500088 
L 148.503275 296.192545 
L 154.996369 296.203151 
L 154.996369 295.793093 
L 158.242917 295.793093 
L 158.242917 295.354756 
L 161.489457 295.354756 
L 161.489457 295.183309 
L 164.736004 295.183309 
L 164.736004 294.709622 
L 167.982552 294.709622 
L 167.982552 294.534641 
L 171.229092 294.534641 
L 171.229092 293.908952 
L 174.475639 293.908952 
L 174.475639 293.078234 
L 177.722187 293.078234 
L 177.722187 292.565661 
L 180.968731 292.565661 
L 180.968731 291.805643 
L 184.215278 291.805643 
L 184.215278 290.75222 
L 187.461822 290.75222 
L 187.461822 290.054063 
L 190.708369 290.054063 
L 190.708369 288.926406 
L 193.954913 288.926406 
L 193.954913 287.349806 
L 197.201457 287.349806 
L 197.201457 285.9694 
L 200.448004 285.9694 
L 200.448004 283.676969 
L 203.694548 283.676969 
L 203.694548 281.791059 
L 206.941094 281.791059 
L 206.941094 278.894148 
L 210.187639 278.894148 
L 210.187639 275.369777 
L 213.434185 275.369777 
L 213.434185 271.186133 
L 216.680731 271.186133 
L 216.680731 265.731669 
L 219.927276 265.731669 
L 219.927276 256.641478 
L 223.173822 256.641478 
L 223.173822 244.034002 
L 226.420367 244.034002 
L 226.420367 225.335752 
L 229.666912 225.335752 
L 229.666912 190.111506 
L 232.913458 190.111506 
L 232.913458 78.920668 
L 236.160003 78.920668 
L 236.160003 151.187881 
L 239.406549 151.187881 
L 239.406549 190.558681 
L 242.653094 190.558681 
L 242.653094 224.402532 
L 245.899639 224.402532 
L 245.899639 244.433458 
L 249.146185 244.433458 
L 249.146185 256.908385 
L 252.392731 256.908385 
L 252.392731 265.427658 
L 255.639276 265.427658 
L 255.639276 271.385861 
L 258.885822 271.385861 
L 258.885822 275.670253 
L 262.132366 275.670253 
L 262.132366 279.046152 
L 265.378911 279.046152 
L 265.378911 281.644357 
L 268.625457 281.644357 
L 268.625457 283.616876 
L 271.872004 283.616876 
L 271.872004 285.435618 
L 275.118548 285.435618 
L 275.118548 287.068776 
L 278.365092 287.068776 
L 278.365092 288.905197 
L 281.611639 288.905197 
L 281.611639 289.675822 
L 284.858183 289.675822 
L 284.858183 291.089811 
L 288.10473 291.089811 
L 288.10473 291.84276 
L 291.351274 291.84276 
L 291.351274 292.360634 
L 294.597822 292.360634 
L 294.597822 293.336287 
L 297.844365 293.336287 
L 297.844365 293.808203 
L 301.090909 293.808203 
L 301.090909 294.098072 
L 304.337457 294.098072 
L 304.337457 294.594736 
L 307.584004 294.594736 
L 307.584004 295.123215 
L 310.830544 295.123215 
L 310.830544 295.383037 
L 314.077092 295.383037 
L 314.077092 295.830211 
L 320.570187 295.86556 
L 320.570187 296.265013 
L 323.816727 296.265013 
L 323.816727 296.770514 
L 327.063274 296.770514 
L 327.063274 296.918983 
L 333.556362 296.880097 
L 333.556362 297.212386 
L 336.802909 297.212386 
L 336.802909 297.438625 
L 340.049457 297.438625 
L 340.049457 297.714352 
L 343.296004 297.714352 
L 343.296004 297.914078 
L 346.542544 297.914078 
L 346.542544 298.175666 
L 349.789092 298.175666 
L 349.789092 298.442555 
L 356.282179 298.477907 
L 356.282179 298.753635 
L 359.528727 298.753635 
L 359.528727 299.114202 
L 362.775274 299.114202 
L 362.775274 299.315694 
L 369.268369 299.292718 
L 369.268369 299.837103 
L 375.761449 299.746963 
L 375.761449 300.44512 
L 382.254544 300.517586 
L 382.254544 301.053134 
L 385.501091 301.053134 
L 385.501091 301.219278 
L 388.747639 301.219278 
L 388.747639 301.468495 
L 391.994186 301.468495 
L 391.994186 302.009346 
L 395.240734 302.009346 
L 395.240734 302.525451 
L 398.487267 302.525451 
L 398.487267 307.584 
L 398.487267 307.584 
" style="fill:none;stroke:#9467bd;stroke-linejoin:miter;"/>
   </g>
   <g id="patch_8">
    <path clip-path="url(#p1a11b17f3d)" d="M 73.832733 307.584 
L 398.487273 307.584 
L 398.487273 307.584 
" style="fill:none;stroke:#000000;stroke-linejoin:miter;"/>
   </g>
   <g id="matplotlib.axis_1">
    <g id="xtick_1">
     <g id="line2d_1">
      <defs>
       <path d="M 0 0 
L 0 3.5 
" id="mc640b90f47" style="stroke:#000000;stroke-width:0.8;"/>
      </defs>
      <g>
       <use style="stroke:#000000;stroke-width:0.8;" x="87.551181" xlink:href="#mc640b90f47" y="307.584"/>
      </g>
     </g>
     <g id="text_1">
      <!-- −0.3 -->
      <defs>
       <path d="M 10.59375 35.5 
L 73.1875 35.5 
L 73.1875 27.203125 
L 10.59375 27.203125 
z
" id="DejaVuSans-8722"/>
       <path d="M 31.78125 66.40625 
Q 24.171875 66.40625 20.328125 58.90625 
Q 16.5 51.421875 16.5 36.375 
Q 16.5 21.390625 20.328125 13.890625 
Q 24.171875 6.390625 31.78125 6.390625 
Q 39.453125 6.390625 43.28125 13.890625 
Q 47.125 21.390625 47.125 36.375 
Q 47.125 51.421875 43.28125 58.90625 
Q 39.453125 66.40625 31.78125 66.40625 
z
M 31.78125 74.21875 
Q 44.046875 74.21875 50.515625 64.515625 
Q 56.984375 54.828125 56.984375 36.375 
Q 56.984375 17.96875 50.515625 8.265625 
Q 44.046875 -1.421875 31.78125 -1.421875 
Q 19.53125 -1.421875 13.0625 8.265625 
Q 6.59375 17.96875 6.59375 36.375 
Q 6.59375 54.828125 13.0625 64.515625 
Q 19.53125 74.21875 31.78125 74.21875 
z
" id="DejaVuSans-48"/>
       <path d="M 10.6875 12.40625 
L 21 12.40625 
L 21 0 
L 10.6875 0 
z
" id="DejaVuSans-46"/>
       <path d="M 40.578125 39.3125 
Q 47.65625 37.796875 51.625 33 
Q 55.609375 28.21875 55.609375 21.1875 
Q 55.609375 10.40625 48.1875 4.484375 
Q 40.765625 -1.421875 27.09375 -1.421875 
Q 22.515625 -1.421875 17.65625 -0.515625 
Q 12.796875 0.390625 7.625 2.203125 
L 7.625 11.71875 
Q 11.71875 9.328125 16.59375 8.109375 
Q 21.484375 6.890625 26.8125 6.890625 
Q 36.078125 6.890625 40.9375 10.546875 
Q 45.796875 14.203125 45.796875 21.1875 
Q 45.796875 27.640625 41.28125 31.265625 
Q 36.765625 34.90625 28.71875 34.90625 
L 20.21875 34.90625 
L 20.21875 43.015625 
L 29.109375 43.015625 
Q 36.375 43.015625 40.234375 45.921875 
Q 44.09375 48.828125 44.09375 54.296875 
Q 44.09375 59.90625 40.109375 62.90625 
Q 36.140625 65.921875 28.71875 65.921875 
Q 24.65625 65.921875 20.015625 65.03125 
Q 15.375 64.15625 9.8125 62.3125 
L 9.8125 71.09375 
Q 15.4375 72.65625 20.34375 73.4375 
Q 25.25 74.21875 29.59375 74.21875 
Q 40.828125 74.21875 47.359375 69.109375 
Q 53.90625 64.015625 53.90625 55.328125 
Q 53.90625 49.265625 50.4375 45.09375 
Q 46.96875 40.921875 40.578125 39.3125 
z
" id="DejaVuSans-51"/>
      </defs>
      <g transform="translate(75.409774 322.182437)scale(0.1 -0.1)">
       <use xlink:href="#DejaVuSans-8722"/>
       <use x="83.789062" xlink:href="#DejaVuSans-48"/>
       <use x="147.412109" xlink:href="#DejaVuSans-46"/>
       <use x="179.199219" xlink:href="#DejaVuSans-51"/>
      </g>
     </g>
    </g>
    <g id="xtick_2">
     <g id="line2d_2">
      <g>
       <use style="stroke:#000000;stroke-width:0.8;" x="137.077475" xlink:href="#mc640b90f47" y="307.584"/>
      </g>
     </g>
     <g id="text_2">
      <!-- −0.2 -->
      <defs>
       <path d="M 19.1875 8.296875 
L 53.609375 8.296875 
L 53.609375 0 
L 7.328125 0 
L 7.328125 8.296875 
Q 12.9375 14.109375 22.625 23.890625 
Q 32.328125 33.6875 34.8125 36.53125 
Q 39.546875 41.84375 41.421875 45.53125 
Q 43.3125 49.21875 43.3125 52.78125 
Q 43.3125 58.59375 39.234375 62.25 
Q 35.15625 65.921875 28.609375 65.921875 
Q 23.96875 65.921875 18.8125 64.3125 
Q 13.671875 62.703125 7.8125 59.421875 
L 7.8125 69.390625 
Q 13.765625 71.78125 18.9375 73 
Q 24.125 74.21875 28.421875 74.21875 
Q 39.75 74.21875 46.484375 68.546875 
Q 53.21875 62.890625 53.21875 53.421875 
Q 53.21875 48.921875 51.53125 44.890625 
Q 49.859375 40.875 45.40625 35.40625 
Q 44.1875 33.984375 37.640625 27.21875 
Q 31.109375 20.453125 19.1875 8.296875 
z
" id="DejaVuSans-50"/>
      </defs>
      <g transform="translate(124.936069 322.182437)scale(0.1 -0.1)">
       <use xlink:href="#DejaVuSans-8722"/>
       <use x="83.789062" xlink:href="#DejaVuSans-48"/>
       <use x="147.412109" xlink:href="#DejaVuSans-46"/>
       <use x="179.199219" xlink:href="#DejaVuSans-50"/>
      </g>
     </g>
    </g>
    <g id="xtick_3">
     <g id="line2d_3">
      <g>
       <use style="stroke:#000000;stroke-width:0.8;" x="186.603769" xlink:href="#mc640b90f47" y="307.584"/>
      </g>
     </g>
     <g id="text_3">
      <!-- −0.1 -->
      <defs>
       <path d="M 12.40625 8.296875 
L 28.515625 8.296875 
L 28.515625 63.921875 
L 10.984375 60.40625 
L 10.984375 69.390625 
L 28.421875 72.90625 
L 38.28125 72.90625 
L 38.28125 8.296875 
L 54.390625 8.296875 
L 54.390625 0 
L 12.40625 0 
z
" id="DejaVuSans-49"/>
      </defs>
      <g transform="translate(174.462363 322.182437)scale(0.1 -0.1)">
       <use xlink:href="#DejaVuSans-8722"/>
       <use x="83.789062" xlink:href="#DejaVuSans-48"/>
       <use x="147.412109" xlink:href="#DejaVuSans-46"/>
       <use x="179.199219" xlink:href="#DejaVuSans-49"/>
      </g>
     </g>
    </g>
    <g id="xtick_4">
     <g id="line2d_4">
      <g>
       <use style="stroke:#000000;stroke-width:0.8;" x="236.130064" xlink:href="#mc640b90f47" y="307.584"/>
      </g>
     </g>
     <g id="text_4">
      <!-- 0.0 -->
      <g transform="translate(228.178501 322.182437)scale(0.1 -0.1)">
       <use xlink:href="#DejaVuSans-48"/>
       <use x="63.623047" xlink:href="#DejaVuSans-46"/>
       <use x="95.410156" xlink:href="#DejaVuSans-48"/>
      </g>
     </g>
    </g>
    <g id="xtick_5">
     <g id="line2d_5">
      <g>
       <use style="stroke:#000000;stroke-width:0.8;" x="285.656358" xlink:href="#mc640b90f47" y="307.584"/>
      </g>
     </g>
     <g id="text_5">
      <!-- 0.1 -->
      <g transform="translate(277.704795 322.182437)scale(0.1 -0.1)">
       <use xlink:href="#DejaVuSans-48"/>
       <use x="63.623047" xlink:href="#DejaVuSans-46"/>
       <use x="95.410156" xlink:href="#DejaVuSans-49"/>
      </g>
     </g>
    </g>
    <g id="xtick_6">
     <g id="line2d_6">
      <g>
       <use style="stroke:#000000;stroke-width:0.8;" x="335.182652" xlink:href="#mc640b90f47" y="307.584"/>
      </g>
     </g>
     <g id="text_6">
      <!-- 0.2 -->
      <g transform="translate(327.23109 322.182437)scale(0.1 -0.1)">
       <use xlink:href="#DejaVuSans-48"/>
       <use x="63.623047" xlink:href="#DejaVuSans-46"/>
       <use x="95.410156" xlink:href="#DejaVuSans-50"/>
      </g>
     </g>
    </g>
    <g id="xtick_7">
     <g id="line2d_7">
      <g>
       <use style="stroke:#000000;stroke-width:0.8;" x="384.708947" xlink:href="#mc640b90f47" y="307.584"/>
      </g>
     </g>
     <g id="text_7">
      <!-- 0.3 -->
      <g transform="translate(376.757384 322.182437)scale(0.1 -0.1)">
       <use xlink:href="#DejaVuSans-48"/>
       <use x="63.623047" xlink:href="#DejaVuSans-46"/>
       <use x="95.410156" xlink:href="#DejaVuSans-51"/>
      </g>
     </g>
    </g>
    <g id="text_8">
     <!-- j1_costhetarel -->
     <defs>
      <path d="M 9.421875 54.6875 
L 18.40625 54.6875 
L 18.40625 -0.984375 
Q 18.40625 -11.421875 14.421875 -16.109375 
Q 10.453125 -20.796875 1.609375 -20.796875 
L -1.8125 -20.796875 
L -1.8125 -13.1875 
L 0.59375 -13.1875 
Q 5.71875 -13.1875 7.5625 -10.8125 
Q 9.421875 -8.453125 9.421875 -0.984375 
z
M 9.421875 75.984375 
L 18.40625 75.984375 
L 18.40625 64.59375 
L 9.421875 64.59375 
z
" id="DejaVuSans-106"/>
      <path d="M 50.984375 -16.609375 
L 50.984375 -23.578125 
L -0.984375 -23.578125 
L -0.984375 -16.609375 
z
" id="DejaVuSans-95"/>
      <path d="M 48.78125 52.59375 
L 48.78125 44.1875 
Q 44.96875 46.296875 41.140625 47.34375 
Q 37.3125 48.390625 33.40625 48.390625 
Q 24.65625 48.390625 19.8125 42.84375 
Q 14.984375 37.3125 14.984375 27.296875 
Q 14.984375 17.28125 19.8125 11.734375 
Q 24.65625 6.203125 33.40625 6.203125 
Q 37.3125 6.203125 41.140625 7.25 
Q 44.96875 8.296875 48.78125 10.40625 
L 48.78125 2.09375 
Q 45.015625 0.34375 40.984375 -0.53125 
Q 36.96875 -1.421875 32.421875 -1.421875 
Q 20.0625 -1.421875 12.78125 6.34375 
Q 5.515625 14.109375 5.515625 27.296875 
Q 5.515625 40.671875 12.859375 48.328125 
Q 20.21875 56 33.015625 56 
Q 37.15625 56 41.109375 55.140625 
Q 45.0625 54.296875 48.78125 52.59375 
z
" id="DejaVuSans-99"/>
      <path d="M 30.609375 48.390625 
Q 23.390625 48.390625 19.1875 42.75 
Q 14.984375 37.109375 14.984375 27.296875 
Q 14.984375 17.484375 19.15625 11.84375 
Q 23.34375 6.203125 30.609375 6.203125 
Q 37.796875 6.203125 41.984375 11.859375 
Q 46.1875 17.53125 46.1875 27.296875 
Q 46.1875 37.015625 41.984375 42.703125 
Q 37.796875 48.390625 30.609375 48.390625 
z
M 30.609375 56 
Q 42.328125 56 49.015625 48.375 
Q 55.71875 40.765625 55.71875 27.296875 
Q 55.71875 13.875 49.015625 6.21875 
Q 42.328125 -1.421875 30.609375 -1.421875 
Q 18.84375 -1.421875 12.171875 6.21875 
Q 5.515625 13.875 5.515625 27.296875 
Q 5.515625 40.765625 12.171875 48.375 
Q 18.84375 56 30.609375 56 
z
" id="DejaVuSans-111"/>
      <path d="M 44.28125 53.078125 
L 44.28125 44.578125 
Q 40.484375 46.53125 36.375 47.5 
Q 32.28125 48.484375 27.875 48.484375 
Q 21.1875 48.484375 17.84375 46.4375 
Q 14.5 44.390625 14.5 40.28125 
Q 14.5 37.15625 16.890625 35.375 
Q 19.28125 33.59375 26.515625 31.984375 
L 29.59375 31.296875 
Q 39.15625 29.25 43.1875 25.515625 
Q 47.21875 21.78125 47.21875 15.09375 
Q 47.21875 7.46875 41.1875 3.015625 
Q 35.15625 -1.421875 24.609375 -1.421875 
Q 20.21875 -1.421875 15.453125 -0.5625 
Q 10.6875 0.296875 5.421875 2 
L 5.421875 11.28125 
Q 10.40625 8.6875 15.234375 7.390625 
Q 20.0625 6.109375 24.8125 6.109375 
Q 31.15625 6.109375 34.5625 8.28125 
Q 37.984375 10.453125 37.984375 14.40625 
Q 37.984375 18.0625 35.515625 20.015625 
Q 33.0625 21.96875 24.703125 23.78125 
L 21.578125 24.515625 
Q 13.234375 26.265625 9.515625 29.90625 
Q 5.8125 33.546875 5.8125 39.890625 
Q 5.8125 47.609375 11.28125 51.796875 
Q 16.75 56 26.8125 56 
Q 31.78125 56 36.171875 55.265625 
Q 40.578125 54.546875 44.28125 53.078125 
z
" id="DejaVuSans-115"/>
      <path d="M 18.3125 70.21875 
L 18.3125 54.6875 
L 36.8125 54.6875 
L 36.8125 47.703125 
L 18.3125 47.703125 
L 18.3125 18.015625 
Q 18.3125 11.328125 20.140625 9.421875 
Q 21.96875 7.515625 27.59375 7.515625 
L 36.8125 7.515625 
L 36.8125 0 
L 27.59375 0 
Q 17.1875 0 13.234375 3.875 
Q 9.28125 7.765625 9.28125 18.015625 
L 9.28125 47.703125 
L 2.6875 47.703125 
L 2.6875 54.6875 
L 9.28125 54.6875 
L 9.28125 70.21875 
z
" id="DejaVuSans-116"/>
      <path d="M 54.890625 33.015625 
L 54.890625 0 
L 45.90625 0 
L 45.90625 32.71875 
Q 45.90625 40.484375 42.875 44.328125 
Q 39.84375 48.1875 33.796875 48.1875 
Q 26.515625 48.1875 22.3125 43.546875 
Q 18.109375 38.921875 18.109375 30.90625 
L 18.109375 0 
L 9.078125 0 
L 9.078125 75.984375 
L 18.109375 75.984375 
L 18.109375 46.1875 
Q 21.34375 51.125 25.703125 53.5625 
Q 30.078125 56 35.796875 56 
Q 45.21875 56 50.046875 50.171875 
Q 54.890625 44.34375 54.890625 33.015625 
z
" id="DejaVuSans-104"/>
      <path d="M 56.203125 29.59375 
L 56.203125 25.203125 
L 14.890625 25.203125 
Q 15.484375 15.921875 20.484375 11.0625 
Q 25.484375 6.203125 34.421875 6.203125 
Q 39.59375 6.203125 44.453125 7.46875 
Q 49.3125 8.734375 54.109375 11.28125 
L 54.109375 2.78125 
Q 49.265625 0.734375 44.1875 -0.34375 
Q 39.109375 -1.421875 33.890625 -1.421875 
Q 20.796875 -1.421875 13.15625 6.1875 
Q 5.515625 13.8125 5.515625 26.8125 
Q 5.515625 40.234375 12.765625 48.109375 
Q 20.015625 56 32.328125 56 
Q 43.359375 56 49.78125 48.890625 
Q 56.203125 41.796875 56.203125 29.59375 
z
M 47.21875 32.234375 
Q 47.125 39.59375 43.09375 43.984375 
Q 39.0625 48.390625 32.421875 48.390625 
Q 24.90625 48.390625 20.390625 44.140625 
Q 15.875 39.890625 15.1875 32.171875 
z
" id="DejaVuSans-101"/>
      <path d="M 34.28125 27.484375 
Q 23.390625 27.484375 19.1875 25 
Q 14.984375 22.515625 14.984375 16.5 
Q 14.984375 11.71875 18.140625 8.90625 
Q 21.296875 6.109375 26.703125 6.109375 
Q 34.1875 6.109375 38.703125 11.40625 
Q 43.21875 16.703125 43.21875 25.484375 
L 43.21875 27.484375 
z
M 52.203125 31.203125 
L 52.203125 0 
L 43.21875 0 
L 43.21875 8.296875 
Q 40.140625 3.328125 35.546875 0.953125 
Q 30.953125 -1.421875 24.3125 -1.421875 
Q 15.921875 -1.421875 10.953125 3.296875 
Q 6 8.015625 6 15.921875 
Q 6 25.140625 12.171875 29.828125 
Q 18.359375 34.515625 30.609375 34.515625 
L 43.21875 34.515625 
L 43.21875 35.40625 
Q 43.21875 41.609375 39.140625 45 
Q 35.0625 48.390625 27.6875 48.390625 
Q 23 48.390625 18.546875 47.265625 
Q 14.109375 46.140625 10.015625 43.890625 
L 10.015625 52.203125 
Q 14.9375 54.109375 19.578125 55.046875 
Q 24.21875 56 28.609375 56 
Q 40.484375 56 46.34375 49.84375 
Q 52.203125 43.703125 52.203125 31.203125 
z
" id="DejaVuSans-97"/>
      <path d="M 41.109375 46.296875 
Q 39.59375 47.171875 37.8125 47.578125 
Q 36.03125 48 33.890625 48 
Q 26.265625 48 22.1875 43.046875 
Q 18.109375 38.09375 18.109375 28.8125 
L 18.109375 0 
L 9.078125 0 
L 9.078125 54.6875 
L 18.109375 54.6875 
L 18.109375 46.1875 
Q 20.953125 51.171875 25.484375 53.578125 
Q 30.03125 56 36.53125 56 
Q 37.453125 56 38.578125 55.875 
Q 39.703125 55.765625 41.0625 55.515625 
z
" id="DejaVuSans-114"/>
      <path d="M 9.421875 75.984375 
L 18.40625 75.984375 
L 18.40625 0 
L 9.421875 0 
z
" id="DejaVuSans-108"/>
     </defs>
     <g transform="translate(200.927188 335.860562)scale(0.1 -0.1)">
      <use xlink:href="#DejaVuSans-106"/>
      <use x="27.783203" xlink:href="#DejaVuSans-49"/>
      <use x="91.40625" xlink:href="#DejaVuSans-95"/>
      <use x="141.40625" xlink:href="#DejaVuSans-99"/>
      <use x="196.386719" xlink:href="#DejaVuSans-111"/>
      <use x="257.568359" xlink:href="#DejaVuSans-115"/>
      <use x="309.667969" xlink:href="#DejaVuSans-116"/>
      <use x="348.876953" xlink:href="#DejaVuSans-104"/>
      <use x="412.255859" xlink:href="#DejaVuSans-101"/>
      <use x="473.779297" xlink:href="#DejaVuSans-116"/>
      <use x="512.988281" xlink:href="#DejaVuSans-97"/>
      <use x="574.267578" xlink:href="#DejaVuSans-114"/>
      <use x="615.349609" xlink:href="#DejaVuSans-101"/>
      <use x="676.873047" xlink:href="#DejaVuSans-108"/>
     </g>
    </g>
   </g>
   <g id="matplotlib.axis_2">
    <g id="ytick_1">
     <g id="line2d_8">
      <defs>
       <path d="M 0 0 
L -3.5 0 
" id="m05e1804292" style="stroke:#000000;stroke-width:0.8;"/>
      </defs>
      <g>
       <use style="stroke:#000000;stroke-width:0.8;" x="57.6" xlink:href="#m05e1804292" y="307.584"/>
      </g>
     </g>
     <g id="text_9">
      <!-- 0.000 -->
      <g transform="translate(21.971875 311.383219)scale(0.1 -0.1)">
       <use xlink:href="#DejaVuSans-48"/>
       <use x="63.623047" xlink:href="#DejaVuSans-46"/>
       <use x="95.410156" xlink:href="#DejaVuSans-48"/>
       <use x="159.033203" xlink:href="#DejaVuSans-48"/>
       <use x="222.65625" xlink:href="#DejaVuSans-48"/>
      </g>
     </g>
    </g>
    <g id="ytick_2">
     <g id="line2d_9">
      <g>
       <use style="stroke:#000000;stroke-width:0.8;" x="57.6" xlink:href="#m05e1804292" y="262.337135"/>
      </g>
     </g>
     <g id="text_10">
      <!-- 0.005 -->
      <defs>
       <path d="M 10.796875 72.90625 
L 49.515625 72.90625 
L 49.515625 64.59375 
L 19.828125 64.59375 
L 19.828125 46.734375 
Q 21.96875 47.46875 24.109375 47.828125 
Q 26.265625 48.1875 28.421875 48.1875 
Q 40.625 48.1875 47.75 41.5 
Q 54.890625 34.8125 54.890625 23.390625 
Q 54.890625 11.625 47.5625 5.09375 
Q 40.234375 -1.421875 26.90625 -1.421875 
Q 22.3125 -1.421875 17.546875 -0.640625 
Q 12.796875 0.140625 7.71875 1.703125 
L 7.71875 11.625 
Q 12.109375 9.234375 16.796875 8.0625 
Q 21.484375 6.890625 26.703125 6.890625 
Q 35.15625 6.890625 40.078125 11.328125 
Q 45.015625 15.765625 45.015625 23.390625 
Q 45.015625 31 40.078125 35.4375 
Q 35.15625 39.890625 26.703125 39.890625 
Q 22.75 39.890625 18.8125 39.015625 
Q 14.890625 38.140625 10.796875 36.28125 
z
" id="DejaVuSans-53"/>
      </defs>
      <g transform="translate(21.971875 266.136353)scale(0.1 -0.1)">
       <use xlink:href="#DejaVuSans-48"/>
       <use x="63.623047" xlink:href="#DejaVuSans-46"/>
       <use x="95.410156" xlink:href="#DejaVuSans-48"/>
       <use x="159.033203" xlink:href="#DejaVuSans-48"/>
       <use x="222.65625" xlink:href="#DejaVuSans-53"/>
      </g>
     </g>
    </g>
    <g id="ytick_3">
     <g id="line2d_10">
      <g>
       <use style="stroke:#000000;stroke-width:0.8;" x="57.6" xlink:href="#m05e1804292" y="217.090269"/>
      </g>
     </g>
     <g id="text_11">
      <!-- 0.010 -->
      <g transform="translate(21.971875 220.889488)scale(0.1 -0.1)">
       <use xlink:href="#DejaVuSans-48"/>
       <use x="63.623047" xlink:href="#DejaVuSans-46"/>
       <use x="95.410156" xlink:href="#DejaVuSans-48"/>
       <use x="159.033203" xlink:href="#DejaVuSans-49"/>
       <use x="222.65625" xlink:href="#DejaVuSans-48"/>
      </g>
     </g>
    </g>
    <g id="ytick_4">
     <g id="line2d_11">
      <g>
       <use style="stroke:#000000;stroke-width:0.8;" x="57.6" xlink:href="#m05e1804292" y="171.843404"/>
      </g>
     </g>
     <g id="text_12">
      <!-- 0.015 -->
      <g transform="translate(21.971875 175.642622)scale(0.1 -0.1)">
       <use xlink:href="#DejaVuSans-48"/>
       <use x="63.623047" xlink:href="#DejaVuSans-46"/>
       <use x="95.410156" xlink:href="#DejaVuSans-48"/>
       <use x="159.033203" xlink:href="#DejaVuSans-49"/>
       <use x="222.65625" xlink:href="#DejaVuSans-53"/>
      </g>
     </g>
    </g>
    <g id="ytick_5">
     <g id="line2d_12">
      <g>
       <use style="stroke:#000000;stroke-width:0.8;" x="57.6" xlink:href="#m05e1804292" y="126.596538"/>
      </g>
     </g>
     <g id="text_13">
      <!-- 0.020 -->
      <g transform="translate(21.971875 130.395757)scale(0.1 -0.1)">
       <use xlink:href="#DejaVuSans-48"/>
       <use x="63.623047" xlink:href="#DejaVuSans-46"/>
       <use x="95.410156" xlink:href="#DejaVuSans-48"/>
       <use x="159.033203" xlink:href="#DejaVuSans-50"/>
       <use x="222.65625" xlink:href="#DejaVuSans-48"/>
      </g>
     </g>
    </g>
    <g id="ytick_6">
     <g id="line2d_13">
      <g>
       <use style="stroke:#000000;stroke-width:0.8;" x="57.6" xlink:href="#m05e1804292" y="81.349673"/>
      </g>
     </g>
     <g id="text_14">
      <!-- 0.025 -->
      <g transform="translate(21.971875 85.148891)scale(0.1 -0.1)">
       <use xlink:href="#DejaVuSans-48"/>
       <use x="63.623047" xlink:href="#DejaVuSans-46"/>
       <use x="95.410156" xlink:href="#DejaVuSans-48"/>
       <use x="159.033203" xlink:href="#DejaVuSans-50"/>
       <use x="222.65625" xlink:href="#DejaVuSans-53"/>
      </g>
     </g>
    </g>
    <g id="text_15">
     <!-- Prob. Density (a.u.) -->
     <defs>
      <path d="M 19.671875 64.796875 
L 19.671875 37.40625 
L 32.078125 37.40625 
Q 38.96875 37.40625 42.71875 40.96875 
Q 46.484375 44.53125 46.484375 51.125 
Q 46.484375 57.671875 42.71875 61.234375 
Q 38.96875 64.796875 32.078125 64.796875 
z
M 9.8125 72.90625 
L 32.078125 72.90625 
Q 44.34375 72.90625 50.609375 67.359375 
Q 56.890625 61.8125 56.890625 51.125 
Q 56.890625 40.328125 50.609375 34.8125 
Q 44.34375 29.296875 32.078125 29.296875 
L 19.671875 29.296875 
L 19.671875 0 
L 9.8125 0 
z
" id="DejaVuSans-80"/>
      <path d="M 48.6875 27.296875 
Q 48.6875 37.203125 44.609375 42.84375 
Q 40.53125 48.484375 33.40625 48.484375 
Q 26.265625 48.484375 22.1875 42.84375 
Q 18.109375 37.203125 18.109375 27.296875 
Q 18.109375 17.390625 22.1875 11.75 
Q 26.265625 6.109375 33.40625 6.109375 
Q 40.53125 6.109375 44.609375 11.75 
Q 48.6875 17.390625 48.6875 27.296875 
z
M 18.109375 46.390625 
Q 20.953125 51.265625 25.265625 53.625 
Q 29.59375 56 35.59375 56 
Q 45.5625 56 51.78125 48.09375 
Q 58.015625 40.1875 58.015625 27.296875 
Q 58.015625 14.40625 51.78125 6.484375 
Q 45.5625 -1.421875 35.59375 -1.421875 
Q 29.59375 -1.421875 25.265625 0.953125 
Q 20.953125 3.328125 18.109375 8.203125 
L 18.109375 0 
L 9.078125 0 
L 9.078125 75.984375 
L 18.109375 75.984375 
z
" id="DejaVuSans-98"/>
      <path id="DejaVuSans-32"/>
      <path d="M 19.671875 64.796875 
L 19.671875 8.109375 
L 31.59375 8.109375 
Q 46.6875 8.109375 53.6875 14.9375 
Q 60.6875 21.78125 60.6875 36.53125 
Q 60.6875 51.171875 53.6875 57.984375 
Q 46.6875 64.796875 31.59375 64.796875 
z
M 9.8125 72.90625 
L 30.078125 72.90625 
Q 51.265625 72.90625 61.171875 64.09375 
Q 71.09375 55.28125 71.09375 36.53125 
Q 71.09375 17.671875 61.125 8.828125 
Q 51.171875 0 30.078125 0 
L 9.8125 0 
z
" id="DejaVuSans-68"/>
      <path d="M 54.890625 33.015625 
L 54.890625 0 
L 45.90625 0 
L 45.90625 32.71875 
Q 45.90625 40.484375 42.875 44.328125 
Q 39.84375 48.1875 33.796875 48.1875 
Q 26.515625 48.1875 22.3125 43.546875 
Q 18.109375 38.921875 18.109375 30.90625 
L 18.109375 0 
L 9.078125 0 
L 9.078125 54.6875 
L 18.109375 54.6875 
L 18.109375 46.1875 
Q 21.34375 51.125 25.703125 53.5625 
Q 30.078125 56 35.796875 56 
Q 45.21875 56 50.046875 50.171875 
Q 54.890625 44.34375 54.890625 33.015625 
z
" id="DejaVuSans-110"/>
      <path d="M 9.421875 54.6875 
L 18.40625 54.6875 
L 18.40625 0 
L 9.421875 0 
z
M 9.421875 75.984375 
L 18.40625 75.984375 
L 18.40625 64.59375 
L 9.421875 64.59375 
z
" id="DejaVuSans-105"/>
      <path d="M 32.171875 -5.078125 
Q 28.375 -14.84375 24.75 -17.8125 
Q 21.140625 -20.796875 15.09375 -20.796875 
L 7.90625 -20.796875 
L 7.90625 -13.28125 
L 13.1875 -13.28125 
Q 16.890625 -13.28125 18.9375 -11.515625 
Q 21 -9.765625 23.484375 -3.21875 
L 25.09375 0.875 
L 2.984375 54.6875 
L 12.5 54.6875 
L 29.59375 11.921875 
L 46.6875 54.6875 
L 56.203125 54.6875 
z
" id="DejaVuSans-121"/>
      <path d="M 31 75.875 
Q 24.46875 64.65625 21.28125 53.65625 
Q 18.109375 42.671875 18.109375 31.390625 
Q 18.109375 20.125 21.3125 9.0625 
Q 24.515625 -2 31 -13.1875 
L 23.1875 -13.1875 
Q 15.875 -1.703125 12.234375 9.375 
Q 8.59375 20.453125 8.59375 31.390625 
Q 8.59375 42.28125 12.203125 53.3125 
Q 15.828125 64.359375 23.1875 75.875 
z
" id="DejaVuSans-40"/>
      <path d="M 8.5 21.578125 
L 8.5 54.6875 
L 17.484375 54.6875 
L 17.484375 21.921875 
Q 17.484375 14.15625 20.5 10.265625 
Q 23.53125 6.390625 29.59375 6.390625 
Q 36.859375 6.390625 41.078125 11.03125 
Q 45.3125 15.671875 45.3125 23.6875 
L 45.3125 54.6875 
L 54.296875 54.6875 
L 54.296875 0 
L 45.3125 0 
L 45.3125 8.40625 
Q 42.046875 3.421875 37.71875 1 
Q 33.40625 -1.421875 27.6875 -1.421875 
Q 18.265625 -1.421875 13.375 4.4375 
Q 8.5 10.296875 8.5 21.578125 
z
M 31.109375 56 
z
" id="DejaVuSans-117"/>
      <path d="M 8.015625 75.875 
L 15.828125 75.875 
Q 23.140625 64.359375 26.78125 53.3125 
Q 30.421875 42.28125 30.421875 31.390625 
Q 30.421875 20.453125 26.78125 9.375 
Q 23.140625 -1.703125 15.828125 -13.1875 
L 8.015625 -13.1875 
Q 14.5 -2 17.703125 9.0625 
Q 20.90625 20.125 20.90625 31.390625 
Q 20.90625 42.671875 17.703125 53.65625 
Q 14.5 64.65625 8.015625 75.875 
z
" id="DejaVuSans-41"/>
     </defs>
     <g transform="translate(15.892187 222.917844)rotate(-90)scale(0.1 -0.1)">
      <use xlink:href="#DejaVuSans-80"/>
      <use x="60.287109" xlink:href="#DejaVuSans-114"/>
      <use x="101.369141" xlink:href="#DejaVuSans-111"/>
      <use x="162.550781" xlink:href="#DejaVuSans-98"/>
      <use x="226.027344" xlink:href="#DejaVuSans-46"/>
      <use x="257.814453" xlink:href="#DejaVuSans-32"/>
      <use x="289.601562" xlink:href="#DejaVuSans-68"/>
      <use x="366.603516" xlink:href="#DejaVuSans-101"/>
      <use x="428.126953" xlink:href="#DejaVuSans-110"/>
      <use x="491.505859" xlink:href="#DejaVuSans-115"/>
      <use x="543.605469" xlink:href="#DejaVuSans-105"/>
      <use x="571.388672" xlink:href="#DejaVuSans-116"/>
      <use x="610.597656" xlink:href="#DejaVuSans-121"/>
      <use x="669.777344" xlink:href="#DejaVuSans-32"/>
      <use x="701.564453" xlink:href="#DejaVuSans-40"/>
      <use x="740.578125" xlink:href="#DejaVuSans-97"/>
      <use x="801.857422" xlink:href="#DejaVuSans-46"/>
      <use x="833.644531" xlink:href="#DejaVuSans-117"/>
      <use x="897.023438" xlink:href="#DejaVuSans-46"/>
      <use x="928.810547" xlink:href="#DejaVuSans-41"/>
     </g>
    </g>
   </g>
   <g id="patch_9">
    <path d="M 57.6 307.584 
L 57.6 41.472 
" style="fill:none;stroke:#000000;stroke-linecap:square;stroke-linejoin:miter;stroke-width:0.8;"/>
   </g>
   <g id="patch_10">
    <path d="M 414.72 307.584 
L 414.72 41.472 
" style="fill:none;stroke:#000000;stroke-linecap:square;stroke-linejoin:miter;stroke-width:0.8;"/>
   </g>
   <g id="patch_11">
    <path d="M 57.6 307.584 
L 414.72 307.584 
" style="fill:none;stroke:#000000;stroke-linecap:square;stroke-linejoin:miter;stroke-width:0.8;"/>
   </g>
   <g id="patch_12">
    <path d="M 57.6 41.472 
L 414.72 41.472 
" style="fill:none;stroke:#000000;stroke-linecap:square;stroke-linejoin:miter;stroke-width:0.8;"/>
   </g>
   <g id="legend_1">
    <g id="patch_13">
     <path d="M 325.405938 137.54075 
L 407.72 137.54075 
Q 409.72 137.54075 409.72 135.54075 
L 409.72 48.472 
Q 409.72 46.472 407.72 46.472 
L 325.405938 46.472 
Q 323.405938 46.472 323.405938 48.472 
L 323.405938 135.54075 
Q 323.405938 137.54075 325.405938 137.54075 
z
" style="fill:#ffffff;opacity:0.8;stroke:#cccccc;stroke-linejoin:miter;"/>
    </g>
    <g id="patch_14">
     <path d="M 327.405938 58.070438 
L 347.405938 58.070438 
L 347.405938 51.070438 
L 327.405938 51.070438 
z
" style="fill:none;stroke:#1f77b4;stroke-linejoin:miter;"/>
    </g>
    <g id="text_16">
     <!-- quark -->
     <defs>
      <path d="M 14.796875 27.296875 
Q 14.796875 17.390625 18.875 11.75 
Q 22.953125 6.109375 30.078125 6.109375 
Q 37.203125 6.109375 41.296875 11.75 
Q 45.40625 17.390625 45.40625 27.296875 
Q 45.40625 37.203125 41.296875 42.84375 
Q 37.203125 48.484375 30.078125 48.484375 
Q 22.953125 48.484375 18.875 42.84375 
Q 14.796875 37.203125 14.796875 27.296875 
z
M 45.40625 8.203125 
Q 42.578125 3.328125 38.25 0.953125 
Q 33.9375 -1.421875 27.875 -1.421875 
Q 17.96875 -1.421875 11.734375 6.484375 
Q 5.515625 14.40625 5.515625 27.296875 
Q 5.515625 40.1875 11.734375 48.09375 
Q 17.96875 56 27.875 56 
Q 33.9375 56 38.25 53.625 
Q 42.578125 51.265625 45.40625 46.390625 
L 45.40625 54.6875 
L 54.390625 54.6875 
L 54.390625 -20.796875 
L 45.40625 -20.796875 
z
" id="DejaVuSans-113"/>
      <path d="M 9.078125 75.984375 
L 18.109375 75.984375 
L 18.109375 31.109375 
L 44.921875 54.6875 
L 56.390625 54.6875 
L 27.390625 29.109375 
L 57.625 0 
L 45.90625 0 
L 18.109375 26.703125 
L 18.109375 0 
L 9.078125 0 
z
" id="DejaVuSans-107"/>
     </defs>
     <g transform="translate(355.405938 58.070438)scale(0.1 -0.1)">
      <use xlink:href="#DejaVuSans-113"/>
      <use x="63.476562" xlink:href="#DejaVuSans-117"/>
      <use x="126.855469" xlink:href="#DejaVuSans-97"/>
      <use x="188.134766" xlink:href="#DejaVuSans-114"/>
      <use x="229.248047" xlink:href="#DejaVuSans-107"/>
     </g>
    </g>
    <g id="patch_15">
     <path d="M 327.405938 72.748563 
L 347.405938 72.748563 
L 347.405938 65.748563 
L 327.405938 65.748563 
z
" style="fill:none;stroke:#ff7f0e;stroke-linejoin:miter;"/>
    </g>
    <g id="text_17">
     <!-- gluon -->
     <defs>
      <path d="M 45.40625 27.984375 
Q 45.40625 37.75 41.375 43.109375 
Q 37.359375 48.484375 30.078125 48.484375 
Q 22.859375 48.484375 18.828125 43.109375 
Q 14.796875 37.75 14.796875 27.984375 
Q 14.796875 18.265625 18.828125 12.890625 
Q 22.859375 7.515625 30.078125 7.515625 
Q 37.359375 7.515625 41.375 12.890625 
Q 45.40625 18.265625 45.40625 27.984375 
z
M 54.390625 6.78125 
Q 54.390625 -7.171875 48.1875 -13.984375 
Q 42 -20.796875 29.203125 -20.796875 
Q 24.46875 -20.796875 20.265625 -20.09375 
Q 16.0625 -19.390625 12.109375 -17.921875 
L 12.109375 -9.1875 
Q 16.0625 -11.328125 19.921875 -12.34375 
Q 23.78125 -13.375 27.78125 -13.375 
Q 36.625 -13.375 41.015625 -8.765625 
Q 45.40625 -4.15625 45.40625 5.171875 
L 45.40625 9.625 
Q 42.625 4.78125 38.28125 2.390625 
Q 33.9375 0 27.875 0 
Q 17.828125 0 11.671875 7.65625 
Q 5.515625 15.328125 5.515625 27.984375 
Q 5.515625 40.671875 11.671875 48.328125 
Q 17.828125 56 27.875 56 
Q 33.9375 56 38.28125 53.609375 
Q 42.625 51.21875 45.40625 46.390625 
L 45.40625 54.6875 
L 54.390625 54.6875 
z
" id="DejaVuSans-103"/>
     </defs>
     <g transform="translate(355.405938 72.748563)scale(0.1 -0.1)">
      <use xlink:href="#DejaVuSans-103"/>
      <use x="63.476562" xlink:href="#DejaVuSans-108"/>
      <use x="91.259766" xlink:href="#DejaVuSans-117"/>
      <use x="154.638672" xlink:href="#DejaVuSans-111"/>
      <use x="215.820312" xlink:href="#DejaVuSans-110"/>
     </g>
    </g>
    <g id="patch_16">
     <path d="M 327.405938 87.426688 
L 347.405938 87.426688 
L 347.405938 80.426688 
L 327.405938 80.426688 
z
" style="fill:none;stroke:#2ca02c;stroke-linejoin:miter;"/>
    </g>
    <g id="text_18">
     <!-- W -->
     <defs>
      <path d="M 3.328125 72.90625 
L 13.28125 72.90625 
L 28.609375 11.28125 
L 43.890625 72.90625 
L 54.984375 72.90625 
L 70.3125 11.28125 
L 85.59375 72.90625 
L 95.609375 72.90625 
L 77.296875 0 
L 64.890625 0 
L 49.515625 63.28125 
L 33.984375 0 
L 21.578125 0 
z
" id="DejaVuSans-87"/>
     </defs>
     <g transform="translate(355.405938 87.426688)scale(0.1 -0.1)">
      <use xlink:href="#DejaVuSans-87"/>
     </g>
    </g>
    <g id="patch_17">
     <path d="M 327.405938 102.104813 
L 347.405938 102.104813 
L 347.405938 95.104813 
L 327.405938 95.104813 
z
" style="fill:none;stroke:#d62728;stroke-linejoin:miter;"/>
    </g>
    <g id="text_19">
     <!-- Z -->
     <defs>
      <path d="M 5.609375 72.90625 
L 62.890625 72.90625 
L 62.890625 65.375 
L 16.796875 8.296875 
L 64.015625 8.296875 
L 64.015625 0 
L 4.5 0 
L 4.5 7.515625 
L 50.59375 64.59375 
L 5.609375 64.59375 
z
" id="DejaVuSans-90"/>
     </defs>
     <g transform="translate(355.405938 102.104813)scale(0.1 -0.1)">
      <use xlink:href="#DejaVuSans-90"/>
     </g>
    </g>
    <g id="patch_18">
     <path d="M 327.405938 116.782938 
L 347.405938 116.782938 
L 347.405938 109.782938 
L 327.405938 109.782938 
z
" style="fill:none;stroke:#9467bd;stroke-linejoin:miter;"/>
    </g>
    <g id="text_20">
     <!-- top -->
     <defs>
      <path d="M 18.109375 8.203125 
L 18.109375 -20.796875 
L 9.078125 -20.796875 
L 9.078125 54.6875 
L 18.109375 54.6875 
L 18.109375 46.390625 
Q 20.953125 51.265625 25.265625 53.625 
Q 29.59375 56 35.59375 56 
Q 45.5625 56 51.78125 48.09375 
Q 58.015625 40.1875 58.015625 27.296875 
Q 58.015625 14.40625 51.78125 6.484375 
Q 45.5625 -1.421875 35.59375 -1.421875 
Q 29.59375 -1.421875 25.265625 0.953125 
Q 20.953125 3.328125 18.109375 8.203125 
z
M 48.6875 27.296875 
Q 48.6875 37.203125 44.609375 42.84375 
Q 40.53125 48.484375 33.40625 48.484375 
Q 26.265625 48.484375 22.1875 42.84375 
Q 18.109375 37.203125 18.109375 27.296875 
Q 18.109375 17.390625 22.1875 11.75 
Q 26.265625 6.109375 33.40625 6.109375 
Q 40.53125 6.109375 44.609375 11.75 
Q 48.6875 17.390625 48.6875 27.296875 
z
" id="DejaVuSans-112"/>
     </defs>
     <g transform="translate(355.405938 116.782938)scale(0.1 -0.1)">
      <use xlink:href="#DejaVuSans-116"/>
      <use x="39.208984" xlink:href="#DejaVuSans-111"/>
      <use x="100.390625" xlink:href="#DejaVuSans-112"/>
     </g>
    </g>
    <g id="patch_19">
     <path d="M 327.405938 131.461063 
L 347.405938 131.461063 
L 347.405938 124.461063 
L 327.405938 124.461063 
z
" style="fill:none;stroke:#000000;stroke-linejoin:miter;"/>
    </g>
    <g id="text_21">
     <!-- undefined -->
     <defs>
      <path d="M 45.40625 46.390625 
L 45.40625 75.984375 
L 54.390625 75.984375 
L 54.390625 0 
L 45.40625 0 
L 45.40625 8.203125 
Q 42.578125 3.328125 38.25 0.953125 
Q 33.9375 -1.421875 27.875 -1.421875 
Q 17.96875 -1.421875 11.734375 6.484375 
Q 5.515625 14.40625 5.515625 27.296875 
Q 5.515625 40.1875 11.734375 48.09375 
Q 17.96875 56 27.875 56 
Q 33.9375 56 38.25 53.625 
Q 42.578125 51.265625 45.40625 46.390625 
z
M 14.796875 27.296875 
Q 14.796875 17.390625 18.875 11.75 
Q 22.953125 6.109375 30.078125 6.109375 
Q 37.203125 6.109375 41.296875 11.75 
Q 45.40625 17.390625 45.40625 27.296875 
Q 45.40625 37.203125 41.296875 42.84375 
Q 37.203125 48.484375 30.078125 48.484375 
Q 22.953125 48.484375 18.875 42.84375 
Q 14.796875 37.203125 14.796875 27.296875 
z
" id="DejaVuSans-100"/>
      <path d="M 37.109375 75.984375 
L 37.109375 68.5 
L 28.515625 68.5 
Q 23.6875 68.5 21.796875 66.546875 
Q 19.921875 64.59375 19.921875 59.515625 
L 19.921875 54.6875 
L 34.71875 54.6875 
L 34.71875 47.703125 
L 19.921875 47.703125 
L 19.921875 0 
L 10.890625 0 
L 10.890625 47.703125 
L 2.296875 47.703125 
L 2.296875 54.6875 
L 10.890625 54.6875 
L 10.890625 58.5 
Q 10.890625 67.625 15.140625 71.796875 
Q 19.390625 75.984375 28.609375 75.984375 
z
" id="DejaVuSans-102"/>
     </defs>
     <g transform="translate(355.405938 131.461063)scale(0.1 -0.1)">
      <use xlink:href="#DejaVuSans-117"/>
      <use x="63.378906" xlink:href="#DejaVuSans-110"/>
      <use x="126.757812" xlink:href="#DejaVuSans-100"/>
      <use x="190.234375" xlink:href="#DejaVuSans-101"/>
      <use x="251.757812" xlink:href="#DejaVuSans-102"/>
      <use x="286.962891" xlink:href="#DejaVuSans-105"/>
      <use x="314.746094" xlink:href="#DejaVuSans-110"/>
      <use x="378.125" xlink:href="#DejaVuSans-101"/>
      <use x="439.648438" xlink:href="#DejaVuSans-100"/>
     </g>
    </g>
   </g>
  </g>
 </g>
 <defs>
  <clipPath id="p1a11b17f3d">
   <rect height="266.112" width="357.12" x="57.6" y="41.472"/>
  </clipPath>
 </defs>
</svg>
