<?xml version="1.0" encoding="utf-8" standalone="no"?>
<!DOCTYPE svg PUBLIC "-//W3C//DTD SVG 1.1//EN"
  "http://www.w3.org/Graphics/SVG/1.1/DTD/svg11.dtd">
<!-- Created with matplotlib (https://matplotlib.org/) -->
<svg height="345.6pt" version="1.1" viewBox="0 0 460.8 345.6" width="460.8pt" xmlns="http://www.w3.org/2000/svg" xmlns:xlink="http://www.w3.org/1999/xlink">
 <defs>
  <style type="text/css">
*{stroke-linecap:butt;stroke-linejoin:round;}
  </style>
 </defs>
 <g id="figure_1">
  <g id="patch_1">
   <path d="M 0 345.6 
L 460.8 345.6 
L 460.8 0 
L 0 0 
z
" style="fill:#ffffff;"/>
  </g>
  <g id="axes_1">
   <g id="patch_2">
    <path d="M 57.6 307.584 
L 414.72 307.584 
L 414.72 41.472 
L 57.6 41.472 
z
" style="fill:#ffffff;"/>
   </g>
   <g id="patch_3">
    <path clip-path="url(#p8bc51ec0e0)" d="M 73.832731 307.584 
L 167.982545 307.584 
L 167.982545 293.107081 
L 171.229091 293.107081 
L 171.229091 78.7168 
L 174.475637 78.7168 
L 174.475637 91.29258 
L 177.722182 91.29258 
L 177.722182 132.109296 
L 180.968728 132.109296 
L 180.968728 159.832772 
L 184.215273 159.832772 
L 184.215273 180.166397 
L 187.461819 180.166397 
L 187.461819 194.558983 
L 190.708363 194.558983 
L 190.708363 206.391214 
L 193.95491 206.391214 
L 193.95491 215.919836 
L 197.201454 215.919836 
L 197.201454 223.869292 
L 200.448001 223.869292 
L 200.448001 230.523241 
L 203.694547 230.523241 
L 203.694547 236.031134 
L 206.94109 236.031134 
L 206.94109 240.626804 
L 210.187636 240.626804 
L 210.187636 245.203306 
L 213.434182 245.203306 
L 213.434182 248.606928 
L 216.680729 248.606928 
L 216.680729 251.608111 
L 219.927272 251.608111 
L 219.927272 254.843086 
L 223.173818 254.843086 
L 223.173818 257.83276 
L 226.420364 257.83276 
L 226.420364 259.630394 
L 229.666911 259.630394 
L 229.666911 261.991477 
L 232.913454 261.991477 
L 232.913454 263.202675 
L 236.16 263.202675 
L 236.16 264.808666 
L 239.406546 264.808666 
L 239.406546 268.20463 
L 242.653093 268.20463 
L 242.653093 268.806395 
L 245.899639 268.806395 
L 245.899639 270.328066 
L 249.146178 270.328066 
L 249.146178 271.378283 
L 252.392725 271.378283 
L 252.392725 273.045602 
L 255.639271 273.045602 
L 255.639271 273.398229 
L 258.885818 273.398229 
L 258.885818 274.877735 
L 262.132364 274.877735 
L 262.132364 275.924122 
L 265.37891 275.924122 
L 265.37891 276.583381 
L 268.625457 276.583381 
L 268.625457 277.648934 
L 271.872003 277.648934 
L 271.872003 278.461509 
L 275.118542 278.461509 
L 275.118542 279.208926 
L 278.365089 279.208926 
L 278.365089 280.052171 
L 281.611635 280.052171 
L 281.611635 281.110055 
L 288.104728 281.15605 
L 288.104728 282.01462 
L 291.351274 282.01462 
L 291.351274 282.267593 
L 294.597813 282.267593 
L 294.597813 282.528229 
L 297.844367 282.528229 
L 297.844367 283.559287 
L 304.33746 283.478796 
L 304.33746 283.816092 
L 307.583999 283.816092 
L 307.583999 285.034959 
L 310.830553 285.034959 
L 310.830553 285.19594 
L 314.077092 285.19594 
L 314.077092 285.740217 
L 317.323631 285.740217 
L 317.323631 286.173335 
L 323.816724 286.207834 
L 323.816724 286.575791 
L 327.063277 286.575791 
L 327.063277 287.250386 
L 330.309817 287.250386 
L 330.309817 287.840653 
L 333.55637 287.840653 
L 333.55637 287.511024 
L 336.802909 287.511024 
L 336.802909 288.258439 
L 340.049448 288.258439 
L 340.049448 288.79505 
L 343.296002 288.79505 
L 343.296002 288.511414 
L 346.542541 288.511414 
L 346.542541 288.802716 
L 349.789095 288.802716 
L 349.789095 289.711116 
L 353.035634 289.711116 
L 353.035634 289.323993 
L 356.282188 289.323993 
L 356.282188 289.902762 
L 359.528727 289.902762 
L 359.528727 290.914653 
L 362.775266 290.914653 
L 362.775266 296.782845 
L 366.02182 296.782845 
L 366.02182 305.357076 
L 369.268359 305.357076 
L 369.268359 306.069999 
L 372.514912 306.069999 
L 372.514912 306.200318 
L 375.761452 306.200318 
L 375.761452 306.54528 
L 382.254544 306.598941 
L 382.254544 306.725427 
L 385.501098 306.725427 
L 385.501098 306.878744 
L 391.994176 306.94007 
L 391.994176 307.009063 
L 398.487269 307.066556 
L 398.487269 307.584 
L 398.487269 307.584 
" style="fill:none;stroke:#1f77b4;stroke-linejoin:miter;"/>
   </g>
   <g id="patch_4">
    <path clip-path="url(#p8bc51ec0e0)" d="M 73.832731 307.584 
L 167.982545 307.584 
L 167.982545 300.692419 
L 171.229091 300.692419 
L 171.229091 146.29874 
L 174.475637 146.29874 
L 174.475637 61.414989 
L 177.722182 61.414989 
L 177.722182 54.144 
L 180.968728 54.144 
L 180.968728 65.865046 
L 184.215273 65.865046 
L 184.215273 80.80958 
L 187.461819 80.80958 
L 187.461819 98.877942 
L 190.708363 98.877942 
L 190.708363 113.466013 
L 193.95491 113.466013 
L 193.95491 126.049505 
L 197.201454 126.049505 
L 197.201454 139.572005 
L 200.448001 139.572005 
L 200.448001 150.185334 
L 203.694547 150.185334 
L 203.694547 160.825502 
L 206.94109 160.825502 
L 206.94109 167.655746 
L 210.187636 167.655746 
L 210.187636 175.678042 
L 213.434182 175.678042 
L 213.434182 182.93759 
L 216.680729 182.93759 
L 216.680729 189.894315 
L 219.927272 189.894315 
L 219.927272 195.751037 
L 223.173818 195.751037 
L 223.173818 200.557503 
L 226.420364 200.557503 
L 226.420364 206.303039 
L 229.666911 206.303039 
L 229.666911 209.591683 
L 232.913454 209.591683 
L 232.913454 215.383213 
L 236.16 215.383213 
L 236.16 217.682965 
L 239.406546 217.682965 
L 239.406546 222.002665 
L 242.653093 222.002665 
L 242.653093 224.934864 
L 245.899639 224.934864 
L 245.899639 227.211605 
L 249.146178 227.211605 
L 249.146178 231.262989 
L 252.392725 231.262989 
L 252.392725 232.945642 
L 255.639271 232.945642 
L 255.639271 236.636747 
L 258.885818 236.636747 
L 258.885818 237.564299 
L 262.132364 237.564299 
L 262.132364 241.853336 
L 265.37891 241.853336 
L 265.37891 242.995558 
L 268.625457 242.995558 
L 268.625457 244.770182 
L 271.872003 244.770182 
L 271.872003 246.452825 
L 275.118542 246.452825 
L 275.118542 248.208309 
L 278.365089 248.208309 
L 278.365089 248.848405 
L 281.611635 248.848405 
L 281.611635 251.178825 
L 284.858181 251.178825 
L 284.858181 252.708161 
L 288.104728 252.708161 
L 288.104728 255.716988 
L 291.351274 255.716988 
L 291.351274 256.203767 
L 294.597813 256.203767 
L 294.597813 256.552564 
L 297.844367 256.552564 
L 297.844367 258.81399 
L 301.090906 258.81399 
L 301.090906 259.795211 
L 304.33746 259.795211 
L 304.33746 261.167397 
L 307.583999 261.167397 
L 307.583999 261.910983 
L 310.830553 261.910983 
L 310.830553 263.447976 
L 314.077092 263.447976 
L 314.077092 264.126407 
L 317.323631 264.126407 
L 317.323631 265.602079 
L 320.570185 265.602079 
L 320.570185 266.092696 
L 323.816724 266.092696 
L 323.816724 267.215737 
L 327.063277 267.215737 
L 327.063277 268.262123 
L 330.309817 268.262123 
L 330.309817 269.155192 
L 333.55637 269.155192 
L 333.55637 270.147918 
L 336.802909 270.147918 
L 336.802909 270.473714 
L 340.049448 270.473714 
L 340.049448 271.673416 
L 343.296002 271.673416 
L 343.296002 272.202361 
L 346.542541 272.202361 
L 346.542541 272.846292 
L 349.789095 272.846292 
L 349.789095 273.720189 
L 353.035634 273.720189 
L 353.035634 274.367957 
L 356.282188 274.367957 
L 356.282188 274.586433 
L 359.528727 274.586433 
L 359.528727 275.525497 
L 362.775266 275.525497 
L 362.775266 287.66434 
L 366.02182 287.66434 
L 366.02182 303.310299 
L 369.268359 303.310299 
L 369.268359 304.870296 
L 372.514912 304.870296 
L 372.514912 305.491228 
L 375.761452 305.491228 
L 375.761452 305.897517 
L 382.254544 305.997173 
L 382.254544 306.26931 
L 385.501098 306.26931 
L 385.501098 306.533781 
L 391.994176 306.587442 
L 391.994176 306.6641 
L 398.487269 306.656435 
L 398.487269 307.584 
L 398.487269 307.584 
" style="fill:none;stroke:#ff7f0e;stroke-linejoin:miter;"/>
   </g>
   <g id="patch_5">
    <path clip-path="url(#p8bc51ec0e0)" d="M 73.832731 307.584 
L 167.982545 307.584 
L 167.982545 305.882186 
L 171.229091 305.882186 
L 171.229091 268.36178 
L 174.475637 268.36178 
L 174.475637 238.231229 
L 177.722182 238.231229 
L 177.722182 205.022848 
L 180.968728 205.022848 
L 180.968728 173.554622 
L 184.215273 173.554622 
L 184.215273 152.473581 
L 187.461819 152.473581 
L 187.461819 141.480778 
L 190.708363 141.480778 
L 190.708363 139.698478 
L 193.95491 139.698478 
L 193.95491 141.304465 
L 197.201454 141.304465 
L 197.201454 147.55212 
L 200.448001 147.55212 
L 200.448001 157.180394 
L 203.694547 157.180394 
L 203.694547 166.808678 
L 206.94109 166.808678 
L 206.94109 178.537409 
L 210.187636 178.537409 
L 210.187636 188.204028 
L 213.434182 188.204028 
L 213.434182 198.96684 
L 216.680729 198.96684 
L 216.680729 208.503139 
L 219.927272 208.503139 
L 219.927272 217.361007 
L 223.173818 217.361007 
L 223.173818 226.008065 
L 226.420364 226.008065 
L 226.420364 235.41021 
L 229.666911 235.41021 
L 229.666911 241.328231 
L 232.913454 241.328231 
L 232.913454 247.00094 
L 236.16 247.00094 
L 236.16 253.030118 
L 239.406546 253.030118 
L 239.406546 258.300376 
L 242.653093 258.300376 
L 242.653093 263.034024 
L 245.899639 263.034024 
L 245.899639 266.050532 
L 249.146178 266.050532 
L 249.146178 269.44266 
L 252.392725 269.44266 
L 252.392725 273.294741 
L 255.639271 273.294741 
L 255.639271 275.540829 
L 258.885818 275.540829 
L 258.885818 278.365686 
L 262.132364 278.365686 
L 262.132364 279.987009 
L 265.37891 279.987009 
L 265.37891 282.302092 
L 268.625457 282.302092 
L 268.625457 284.394863 
L 271.872003 284.394863 
L 271.872003 286.200167 
L 275.118542 286.200167 
L 275.118542 287.196726 
L 278.365089 287.196726 
L 278.365089 288.12429 
L 281.611635 288.12429 
L 281.611635 289.297162 
L 284.858181 289.297162 
L 284.858181 290.362711 
L 288.104728 290.362711 
L 288.104728 290.749836 
L 291.351274 290.749836 
L 291.351274 292.183345 
L 294.597813 292.183345 
L 294.597813 293.202901 
L 301.090906 293.302558 
L 301.090906 294.210957 
L 304.33746 294.210957 
L 304.33746 294.851055 
L 307.583999 294.851055 
L 307.583999 294.969876 
L 310.830553 294.969876 
L 310.830553 295.406827 
L 317.323631 295.483485 
L 317.323631 296.464713 
L 323.816724 296.403386 
L 323.816724 297.177636 
L 330.309817 297.246628 
L 330.309817 297.296456 
L 333.55637 297.296456 
L 333.55637 297.744907 
L 340.049448 297.829231 
L 340.049448 298.040042 
L 343.296002 298.040042 
L 343.296002 297.890558 
L 349.789095 297.925054 
L 349.789095 298.687804 
L 353.035634 298.687804 
L 353.035634 298.492326 
L 356.282188 298.492326 
L 356.282188 298.607313 
L 359.528727 298.607313 
L 359.528727 299.209081 
L 362.775266 299.209081 
L 362.775266 302.122095 
L 366.02182 302.122095 
L 366.02182 306.457123 
L 369.268359 306.457123 
L 369.268359 306.595108 
L 372.514912 306.595108 
L 372.514912 306.72926 
L 375.761452 306.72926 
L 375.761452 306.920906 
L 382.254544 306.932404 
L 382.254544 307.078055 
L 388.747637 307.081888 
L 388.747637 307.200708 
L 398.487269 307.219873 
L 398.487269 307.584 
L 398.487269 307.584 
" style="fill:none;stroke:#2ca02c;stroke-linejoin:miter;"/>
   </g>
   <g id="patch_6">
    <path clip-path="url(#p8bc51ec0e0)" d="M 73.832731 307.584 
L 167.982545 307.584 
L 167.982545 305.78253 
L 171.229091 305.78253 
L 171.229091 271.240298 
L 174.475637 271.240298 
L 174.475637 246.744134 
L 177.722182 246.744134 
L 177.722182 224.244928 
L 180.968728 224.244928 
L 180.968728 197.058058 
L 184.215273 197.058058 
L 184.215273 175.26027 
L 187.461819 175.26027 
L 187.461819 160.848494 
L 190.708363 160.848494 
L 190.708363 152.124793 
L 193.95491 152.124793 
L 193.95491 150.350151 
L 197.201454 150.350151 
L 197.201454 151.024753 
L 200.448001 151.024753 
L 200.448001 154.934311 
L 203.694547 154.934311 
L 203.694547 162.270501 
L 206.94109 162.270501 
L 206.94109 170.484454 
L 210.187636 170.484454 
L 210.187636 180.664677 
L 213.434182 180.664677 
L 213.434182 189.001274 
L 216.680729 189.001274 
L 216.680729 198.679379 
L 219.927272 198.679379 
L 219.927272 207.705902 
L 223.173818 207.705902 
L 223.173818 214.796786 
L 226.420364 214.796786 
L 226.420364 222.175149 
L 229.666911 222.175149 
L 229.666911 230.5539 
L 232.913454 230.5539 
L 232.913454 236.648233 
L 236.16 236.648233 
L 236.16 242.807727 
L 239.406546 242.807727 
L 239.406546 249.91012 
L 242.653093 249.91012 
L 242.653093 253.49773 
L 245.899639 253.49773 
L 245.899639 257.690944 
L 249.146178 257.690944 
L 249.146178 260.630791 
L 252.392725 260.630791 
L 252.392725 265.000313 
L 255.639271 265.000313 
L 255.639271 268.584085 
L 258.885818 268.584085 
L 258.885818 271.201968 
L 262.132364 271.201968 
L 262.132364 272.455327 
L 265.37891 272.455327 
L 265.37891 275.556161 
L 268.625457 275.556161 
L 268.625457 278.166379 
L 271.872003 278.166379 
L 271.872003 280.328139 
L 275.118542 280.328139 
L 275.118542 282.282925 
L 278.365089 282.282925 
L 278.365089 283.743267 
L 281.611635 283.743267 
L 281.611635 284.785819 
L 284.858181 284.785819 
L 284.858181 286.295988 
L 288.104728 286.295988 
L 288.104728 287.580015 
L 291.351274 287.580015 
L 291.351274 287.863652 
L 294.597813 287.863652 
L 294.597813 289.251167 
L 297.844367 289.251167 
L 297.844367 290.397207 
L 301.090906 290.397207 
L 301.090906 291.550916 
L 304.33746 291.550916 
L 304.33746 292.141184 
L 307.583999 292.141184 
L 307.583999 292.305999 
L 310.830553 292.305999 
L 310.830553 292.934599 
L 314.077092 292.934599 
L 314.077092 293.651353 
L 317.323631 293.651353 
L 317.323631 293.946488 
L 320.570185 293.946488 
L 320.570185 294.858722 
L 323.816724 294.858722 
L 323.816724 295.199851 
L 327.063277 295.199851 
L 327.063277 295.460489 
L 333.55637 295.487319 
L 333.55637 295.962603 
L 336.802909 295.962603 
L 336.802909 296.181077 
L 340.049448 296.181077 
L 340.049448 296.437883 
L 343.296002 296.437883 
L 343.296002 296.943828 
L 349.789095 296.978324 
L 349.789095 297.277292 
L 353.035634 297.277292 
L 353.035634 297.687413 
L 359.528727 297.756406 
L 359.528727 297.863727 
L 362.775266 297.863727 
L 362.775266 301.179198 
L 366.02182 301.179198 
L 366.02182 306.219482 
L 369.268359 306.219482 
L 369.268359 306.660267 
L 372.514912 306.660267 
L 372.514912 306.82125 
L 379.008005 306.882577 
L 379.008005 307.00523 
L 385.501098 307.066556 
L 385.501098 307.12405 
L 398.487269 307.204541 
L 398.487269 307.584 
L 398.487269 307.584 
" style="fill:none;stroke:#d62728;stroke-linejoin:miter;"/>
   </g>
   <g id="patch_7">
    <path clip-path="url(#p8bc51ec0e0)" d="M 73.832731 307.584 
L 167.982545 307.584 
L 167.982545 307.139382 
L 171.229091 307.139382 
L 171.229091 294.709238 
L 174.475637 294.709238 
L 174.475637 279.331584 
L 177.722182 279.331584 
L 177.722182 263.662615 
L 180.968728 263.662615 
L 180.968728 247.292244 
L 184.215273 247.292244 
L 184.215273 231.56196 
L 187.461819 231.56196 
L 187.461819 219.610937 
L 190.708363 219.610937 
L 190.708363 208.963084 
L 193.95491 208.963084 
L 193.95491 200.089882 
L 197.201454 200.089882 
L 197.201454 191.251176 
L 200.448001 191.251176 
L 200.448001 185.628293 
L 203.694547 185.628293 
L 203.694547 178.828717 
L 206.94109 178.828717 
L 206.94109 176.904592 
L 210.187636 176.904592 
L 210.187636 174.512846 
L 213.434182 174.512846 
L 213.434182 170.614774 
L 216.680729 170.614774 
L 216.680729 169.319249 
L 219.927272 169.319249 
L 219.927272 169.503238 
L 223.173818 169.503238 
L 223.173818 169.077771 
L 226.420364 169.077771 
L 226.420364 168.797977 
L 229.666911 168.797977 
L 229.666911 171.940958 
L 232.913454 171.940958 
L 232.913454 174.213871 
L 236.16 174.213871 
L 236.16 177.468027 
L 239.406546 177.468027 
L 239.406546 179.277148 
L 242.653093 179.277148 
L 242.653093 182.316657 
L 245.899639 182.316657 
L 245.899639 187.065653 
L 249.146178 187.065653 
L 249.146178 191.538656 
L 252.392725 191.538656 
L 252.392725 195.187583 
L 255.639271 195.187583 
L 255.639271 196.609609 
L 258.885818 196.609609 
L 258.885818 200.615019 
L 262.132364 200.615019 
L 262.132364 203.777153 
L 265.37891 203.777153 
L 265.37891 206.567509 
L 268.625457 206.567509 
L 268.625457 210.722392 
L 271.872003 210.722392 
L 271.872003 213.949709 
L 275.118542 213.949709 
L 275.118542 216.548436 
L 278.365089 216.548436 
L 278.365089 219.346449 
L 281.611635 219.346449 
L 281.611635 222.769252 
L 284.858181 222.769252 
L 284.858181 225.858573 
L 288.104728 225.858573 
L 288.104728 229.729824 
L 291.351274 229.729824 
L 291.351274 232.152225 
L 294.597813 232.152225 
L 294.597813 235.908485 
L 297.844367 235.908485 
L 297.844367 237.667794 
L 301.090906 237.667794 
L 301.090906 241.205573 
L 304.33746 241.205573 
L 304.33746 242.439767 
L 307.583999 242.439767 
L 307.583999 245.379619 
L 310.830553 245.379619 
L 310.830553 247.779023 
L 314.077092 247.779023 
L 314.077092 249.584324 
L 317.323631 249.584324 
L 317.323631 251.404954 
L 320.570185 251.404954 
L 320.570185 254.229825 
L 323.816724 254.229825 
L 323.816724 256.146274 
L 327.063277 256.146274 
L 327.063277 258.607009 
L 330.309817 258.607009 
L 330.309817 261.121404 
L 333.55637 261.121404 
L 333.55637 262.106458 
L 336.802909 262.106458 
L 336.802909 264.571022 
L 340.049448 264.571022 
L 340.049448 266.468313 
L 343.296002 266.468313 
L 343.296002 267.932494 
L 346.542541 267.932494 
L 346.542541 269.500155 
L 349.789095 269.500155 
L 349.789095 271.76541 
L 353.035634 271.76541 
L 353.035634 272.382507 
L 356.282188 272.382507 
L 356.282188 274.498277 
L 359.528727 274.498277 
L 359.528727 276.920677 
L 362.775266 276.920677 
L 362.775266 288.062963 
L 366.02182 288.062963 
L 366.02182 301.240525 
L 369.268359 301.240525 
L 369.268359 304.329855 
L 372.514912 304.329855 
L 372.514912 305.238256 
L 375.761452 305.238256 
L 375.761452 305.510393 
L 379.008005 305.510393 
L 379.008005 305.958844 
L 382.254544 305.958844 
L 382.254544 306.196485 
L 385.501098 306.196485 
L 385.501098 306.418794 
L 388.747637 306.418794 
L 388.747637 306.575943 
L 391.994176 306.575943 
L 391.994176 306.767589 
L 398.487269 306.771422 
L 398.487269 307.584 
L 398.487269 307.584 
" style="fill:none;stroke:#9467bd;stroke-linejoin:miter;"/>
   </g>
   <g id="patch_8">
    <path clip-path="url(#p8bc51ec0e0)" d="M 73.832727 307.584 
L 398.487273 307.584 
L 398.487273 307.584 
" style="fill:none;stroke:#000000;stroke-linejoin:miter;"/>
   </g>
   <g id="matplotlib.axis_1">
    <g id="xtick_1">
     <g id="line2d_1">
      <defs>
       <path d="M 0 0 
L 0 3.5 
" id="m58a407baeb" style="stroke:#000000;stroke-width:0.8;"/>
      </defs>
      <g>
       <use style="stroke:#000000;stroke-width:0.8;" x="73.302689" xlink:href="#m58a407baeb" y="307.584"/>
      </g>
     </g>
     <g id="text_1">
      <!-- −0.2 -->
      <defs>
       <path d="M 10.59375 35.5 
L 73.1875 35.5 
L 73.1875 27.203125 
L 10.59375 27.203125 
z
" id="DejaVuSans-8722"/>
       <path d="M 31.78125 66.40625 
Q 24.171875 66.40625 20.328125 58.90625 
Q 16.5 51.421875 16.5 36.375 
Q 16.5 21.390625 20.328125 13.890625 
Q 24.171875 6.390625 31.78125 6.390625 
Q 39.453125 6.390625 43.28125 13.890625 
Q 47.125 21.390625 47.125 36.375 
Q 47.125 51.421875 43.28125 58.90625 
Q 39.453125 66.40625 31.78125 66.40625 
z
M 31.78125 74.21875 
Q 44.046875 74.21875 50.515625 64.515625 
Q 56.984375 54.828125 56.984375 36.375 
Q 56.984375 17.96875 50.515625 8.265625 
Q 44.046875 -1.421875 31.78125 -1.421875 
Q 19.53125 -1.421875 13.0625 8.265625 
Q 6.59375 17.96875 6.59375 36.375 
Q 6.59375 54.828125 13.0625 64.515625 
Q 19.53125 74.21875 31.78125 74.21875 
z
" id="DejaVuSans-48"/>
       <path d="M 10.6875 12.40625 
L 21 12.40625 
L 21 0 
L 10.6875 0 
z
" id="DejaVuSans-46"/>
       <path d="M 19.1875 8.296875 
L 53.609375 8.296875 
L 53.609375 0 
L 7.328125 0 
L 7.328125 8.296875 
Q 12.9375 14.109375 22.625 23.890625 
Q 32.328125 33.6875 34.8125 36.53125 
Q 39.546875 41.84375 41.421875 45.53125 
Q 43.3125 49.21875 43.3125 52.78125 
Q 43.3125 58.59375 39.234375 62.25 
Q 35.15625 65.921875 28.609375 65.921875 
Q 23.96875 65.921875 18.8125 64.3125 
Q 13.671875 62.703125 7.8125 59.421875 
L 7.8125 69.390625 
Q 13.765625 71.78125 18.9375 73 
Q 24.125 74.21875 28.421875 74.21875 
Q 39.75 74.21875 46.484375 68.546875 
Q 53.21875 62.890625 53.21875 53.421875 
Q 53.21875 48.921875 51.53125 44.890625 
Q 49.859375 40.875 45.40625 35.40625 
Q 44.1875 33.984375 37.640625 27.21875 
Q 31.109375 20.453125 19.1875 8.296875 
z
" id="DejaVuSans-50"/>
      </defs>
      <g transform="translate(61.161282 322.182437)scale(0.1 -0.1)">
       <use xlink:href="#DejaVuSans-8722"/>
       <use x="83.789062" xlink:href="#DejaVuSans-48"/>
       <use x="147.412109" xlink:href="#DejaVuSans-46"/>
       <use x="179.199219" xlink:href="#DejaVuSans-50"/>
      </g>
     </g>
    </g>
    <g id="xtick_2">
     <g id="line2d_2">
      <g>
       <use style="stroke:#000000;stroke-width:0.8;" x="121.911729" xlink:href="#m58a407baeb" y="307.584"/>
      </g>
     </g>
     <g id="text_2">
      <!-- −0.1 -->
      <defs>
       <path d="M 12.40625 8.296875 
L 28.515625 8.296875 
L 28.515625 63.921875 
L 10.984375 60.40625 
L 10.984375 69.390625 
L 28.421875 72.90625 
L 38.28125 72.90625 
L 38.28125 8.296875 
L 54.390625 8.296875 
L 54.390625 0 
L 12.40625 0 
z
" id="DejaVuSans-49"/>
      </defs>
      <g transform="translate(109.770323 322.182437)scale(0.1 -0.1)">
       <use xlink:href="#DejaVuSans-8722"/>
       <use x="83.789062" xlink:href="#DejaVuSans-48"/>
       <use x="147.412109" xlink:href="#DejaVuSans-46"/>
       <use x="179.199219" xlink:href="#DejaVuSans-49"/>
      </g>
     </g>
    </g>
    <g id="xtick_3">
     <g id="line2d_3">
      <g>
       <use style="stroke:#000000;stroke-width:0.8;" x="170.52077" xlink:href="#m58a407baeb" y="307.584"/>
      </g>
     </g>
     <g id="text_3">
      <!-- 0.0 -->
      <g transform="translate(162.569208 322.182437)scale(0.1 -0.1)">
       <use xlink:href="#DejaVuSans-48"/>
       <use x="63.623047" xlink:href="#DejaVuSans-46"/>
       <use x="95.410156" xlink:href="#DejaVuSans-48"/>
      </g>
     </g>
    </g>
    <g id="xtick_4">
     <g id="line2d_4">
      <g>
       <use style="stroke:#000000;stroke-width:0.8;" x="219.129811" xlink:href="#m58a407baeb" y="307.584"/>
      </g>
     </g>
     <g id="text_4">
      <!-- 0.1 -->
      <g transform="translate(211.178249 322.182437)scale(0.1 -0.1)">
       <use xlink:href="#DejaVuSans-48"/>
       <use x="63.623047" xlink:href="#DejaVuSans-46"/>
       <use x="95.410156" xlink:href="#DejaVuSans-49"/>
      </g>
     </g>
    </g>
    <g id="xtick_5">
     <g id="line2d_5">
      <g>
       <use style="stroke:#000000;stroke-width:0.8;" x="267.738852" xlink:href="#m58a407baeb" y="307.584"/>
      </g>
     </g>
     <g id="text_5">
      <!-- 0.2 -->
      <g transform="translate(259.78729 322.182437)scale(0.1 -0.1)">
       <use xlink:href="#DejaVuSans-48"/>
       <use x="63.623047" xlink:href="#DejaVuSans-46"/>
       <use x="95.410156" xlink:href="#DejaVuSans-50"/>
      </g>
     </g>
    </g>
    <g id="xtick_6">
     <g id="line2d_6">
      <g>
       <use style="stroke:#000000;stroke-width:0.8;" x="316.347893" xlink:href="#m58a407baeb" y="307.584"/>
      </g>
     </g>
     <g id="text_6">
      <!-- 0.3 -->
      <defs>
       <path d="M 40.578125 39.3125 
Q 47.65625 37.796875 51.625 33 
Q 55.609375 28.21875 55.609375 21.1875 
Q 55.609375 10.40625 48.1875 4.484375 
Q 40.765625 -1.421875 27.09375 -1.421875 
Q 22.515625 -1.421875 17.65625 -0.515625 
Q 12.796875 0.390625 7.625 2.203125 
L 7.625 11.71875 
Q 11.71875 9.328125 16.59375 8.109375 
Q 21.484375 6.890625 26.8125 6.890625 
Q 36.078125 6.890625 40.9375 10.546875 
Q 45.796875 14.203125 45.796875 21.1875 
Q 45.796875 27.640625 41.28125 31.265625 
Q 36.765625 34.90625 28.71875 34.90625 
L 20.21875 34.90625 
L 20.21875 43.015625 
L 29.109375 43.015625 
Q 36.375 43.015625 40.234375 45.921875 
Q 44.09375 48.828125 44.09375 54.296875 
Q 44.09375 59.90625 40.109375 62.90625 
Q 36.140625 65.921875 28.71875 65.921875 
Q 24.65625 65.921875 20.015625 65.03125 
Q 15.375 64.15625 9.8125 62.3125 
L 9.8125 71.09375 
Q 15.4375 72.65625 20.34375 73.4375 
Q 25.25 74.21875 29.59375 74.21875 
Q 40.828125 74.21875 47.359375 69.109375 
Q 53.90625 64.015625 53.90625 55.328125 
Q 53.90625 49.265625 50.4375 45.09375 
Q 46.96875 40.921875 40.578125 39.3125 
z
" id="DejaVuSans-51"/>
      </defs>
      <g transform="translate(308.396331 322.182437)scale(0.1 -0.1)">
       <use xlink:href="#DejaVuSans-48"/>
       <use x="63.623047" xlink:href="#DejaVuSans-46"/>
       <use x="95.410156" xlink:href="#DejaVuSans-51"/>
      </g>
     </g>
    </g>
    <g id="xtick_7">
     <g id="line2d_7">
      <g>
       <use style="stroke:#000000;stroke-width:0.8;" x="364.956934" xlink:href="#m58a407baeb" y="307.584"/>
      </g>
     </g>
     <g id="text_7">
      <!-- 0.4 -->
      <defs>
       <path d="M 37.796875 64.3125 
L 12.890625 25.390625 
L 37.796875 25.390625 
z
M 35.203125 72.90625 
L 47.609375 72.90625 
L 47.609375 25.390625 
L 58.015625 25.390625 
L 58.015625 17.1875 
L 47.609375 17.1875 
L 47.609375 0 
L 37.796875 0 
L 37.796875 17.1875 
L 4.890625 17.1875 
L 4.890625 26.703125 
z
" id="DejaVuSans-52"/>
      </defs>
      <g transform="translate(357.005372 322.182437)scale(0.1 -0.1)">
       <use xlink:href="#DejaVuSans-48"/>
       <use x="63.623047" xlink:href="#DejaVuSans-46"/>
       <use x="95.410156" xlink:href="#DejaVuSans-52"/>
      </g>
     </g>
    </g>
    <g id="xtick_8">
     <g id="line2d_8">
      <g>
       <use style="stroke:#000000;stroke-width:0.8;" x="413.565975" xlink:href="#m58a407baeb" y="307.584"/>
      </g>
     </g>
     <g id="text_8">
      <!-- 0.5 -->
      <defs>
       <path d="M 10.796875 72.90625 
L 49.515625 72.90625 
L 49.515625 64.59375 
L 19.828125 64.59375 
L 19.828125 46.734375 
Q 21.96875 47.46875 24.109375 47.828125 
Q 26.265625 48.1875 28.421875 48.1875 
Q 40.625 48.1875 47.75 41.5 
Q 54.890625 34.8125 54.890625 23.390625 
Q 54.890625 11.625 47.5625 5.09375 
Q 40.234375 -1.421875 26.90625 -1.421875 
Q 22.3125 -1.421875 17.546875 -0.640625 
Q 12.796875 0.140625 7.71875 1.703125 
L 7.71875 11.625 
Q 12.109375 9.234375 16.796875 8.0625 
Q 21.484375 6.890625 26.703125 6.890625 
Q 35.15625 6.890625 40.078125 11.328125 
Q 45.015625 15.765625 45.015625 23.390625 
Q 45.015625 31 40.078125 35.4375 
Q 35.15625 39.890625 26.703125 39.890625 
Q 22.75 39.890625 18.8125 39.015625 
Q 14.890625 38.140625 10.796875 36.28125 
z
" id="DejaVuSans-53"/>
      </defs>
      <g transform="translate(405.614412 322.182437)scale(0.1 -0.1)">
       <use xlink:href="#DejaVuSans-48"/>
       <use x="63.623047" xlink:href="#DejaVuSans-46"/>
       <use x="95.410156" xlink:href="#DejaVuSans-53"/>
      </g>
     </g>
    </g>
    <g id="text_9">
     <!-- j1_deltaR -->
     <defs>
      <path d="M 9.421875 54.6875 
L 18.40625 54.6875 
L 18.40625 -0.984375 
Q 18.40625 -11.421875 14.421875 -16.109375 
Q 10.453125 -20.796875 1.609375 -20.796875 
L -1.8125 -20.796875 
L -1.8125 -13.1875 
L 0.59375 -13.1875 
Q 5.71875 -13.1875 7.5625 -10.8125 
Q 9.421875 -8.453125 9.421875 -0.984375 
z
M 9.421875 75.984375 
L 18.40625 75.984375 
L 18.40625 64.59375 
L 9.421875 64.59375 
z
" id="DejaVuSans-106"/>
      <path d="M 50.984375 -16.609375 
L 50.984375 -23.578125 
L -0.984375 -23.578125 
L -0.984375 -16.609375 
z
" id="DejaVuSans-95"/>
      <path d="M 45.40625 46.390625 
L 45.40625 75.984375 
L 54.390625 75.984375 
L 54.390625 0 
L 45.40625 0 
L 45.40625 8.203125 
Q 42.578125 3.328125 38.25 0.953125 
Q 33.9375 -1.421875 27.875 -1.421875 
Q 17.96875 -1.421875 11.734375 6.484375 
Q 5.515625 14.40625 5.515625 27.296875 
Q 5.515625 40.1875 11.734375 48.09375 
Q 17.96875 56 27.875 56 
Q 33.9375 56 38.25 53.625 
Q 42.578125 51.265625 45.40625 46.390625 
z
M 14.796875 27.296875 
Q 14.796875 17.390625 18.875 11.75 
Q 22.953125 6.109375 30.078125 6.109375 
Q 37.203125 6.109375 41.296875 11.75 
Q 45.40625 17.390625 45.40625 27.296875 
Q 45.40625 37.203125 41.296875 42.84375 
Q 37.203125 48.484375 30.078125 48.484375 
Q 22.953125 48.484375 18.875 42.84375 
Q 14.796875 37.203125 14.796875 27.296875 
z
" id="DejaVuSans-100"/>
      <path d="M 56.203125 29.59375 
L 56.203125 25.203125 
L 14.890625 25.203125 
Q 15.484375 15.921875 20.484375 11.0625 
Q 25.484375 6.203125 34.421875 6.203125 
Q 39.59375 6.203125 44.453125 7.46875 
Q 49.3125 8.734375 54.109375 11.28125 
L 54.109375 2.78125 
Q 49.265625 0.734375 44.1875 -0.34375 
Q 39.109375 -1.421875 33.890625 -1.421875 
Q 20.796875 -1.421875 13.15625 6.1875 
Q 5.515625 13.8125 5.515625 26.8125 
Q 5.515625 40.234375 12.765625 48.109375 
Q 20.015625 56 32.328125 56 
Q 43.359375 56 49.78125 48.890625 
Q 56.203125 41.796875 56.203125 29.59375 
z
M 47.21875 32.234375 
Q 47.125 39.59375 43.09375 43.984375 
Q 39.0625 48.390625 32.421875 48.390625 
Q 24.90625 48.390625 20.390625 44.140625 
Q 15.875 39.890625 15.1875 32.171875 
z
" id="DejaVuSans-101"/>
      <path d="M 9.421875 75.984375 
L 18.40625 75.984375 
L 18.40625 0 
L 9.421875 0 
z
" id="DejaVuSans-108"/>
      <path d="M 18.3125 70.21875 
L 18.3125 54.6875 
L 36.8125 54.6875 
L 36.8125 47.703125 
L 18.3125 47.703125 
L 18.3125 18.015625 
Q 18.3125 11.328125 20.140625 9.421875 
Q 21.96875 7.515625 27.59375 7.515625 
L 36.8125 7.515625 
L 36.8125 0 
L 27.59375 0 
Q 17.1875 0 13.234375 3.875 
Q 9.28125 7.765625 9.28125 18.015625 
L 9.28125 47.703125 
L 2.6875 47.703125 
L 2.6875 54.6875 
L 9.28125 54.6875 
L 9.28125 70.21875 
z
" id="DejaVuSans-116"/>
      <path d="M 34.28125 27.484375 
Q 23.390625 27.484375 19.1875 25 
Q 14.984375 22.515625 14.984375 16.5 
Q 14.984375 11.71875 18.140625 8.90625 
Q 21.296875 6.109375 26.703125 6.109375 
Q 34.1875 6.109375 38.703125 11.40625 
Q 43.21875 16.703125 43.21875 25.484375 
L 43.21875 27.484375 
z
M 52.203125 31.203125 
L 52.203125 0 
L 43.21875 0 
L 43.21875 8.296875 
Q 40.140625 3.328125 35.546875 0.953125 
Q 30.953125 -1.421875 24.3125 -1.421875 
Q 15.921875 -1.421875 10.953125 3.296875 
Q 6 8.015625 6 15.921875 
Q 6 25.140625 12.171875 29.828125 
Q 18.359375 34.515625 30.609375 34.515625 
L 43.21875 34.515625 
L 43.21875 35.40625 
Q 43.21875 41.609375 39.140625 45 
Q 35.0625 48.390625 27.6875 48.390625 
Q 23 48.390625 18.546875 47.265625 
Q 14.109375 46.140625 10.015625 43.890625 
L 10.015625 52.203125 
Q 14.9375 54.109375 19.578125 55.046875 
Q 24.21875 56 28.609375 56 
Q 40.484375 56 46.34375 49.84375 
Q 52.203125 43.703125 52.203125 31.203125 
z
" id="DejaVuSans-97"/>
      <path d="M 44.390625 34.1875 
Q 47.5625 33.109375 50.5625 29.59375 
Q 53.5625 26.078125 56.59375 19.921875 
L 66.609375 0 
L 56 0 
L 46.6875 18.703125 
Q 43.0625 26.03125 39.671875 28.421875 
Q 36.28125 30.8125 30.421875 30.8125 
L 19.671875 30.8125 
L 19.671875 0 
L 9.8125 0 
L 9.8125 72.90625 
L 32.078125 72.90625 
Q 44.578125 72.90625 50.734375 67.671875 
Q 56.890625 62.453125 56.890625 51.90625 
Q 56.890625 45.015625 53.6875 40.46875 
Q 50.484375 35.9375 44.390625 34.1875 
z
M 19.671875 64.796875 
L 19.671875 38.921875 
L 32.078125 38.921875 
Q 39.203125 38.921875 42.84375 42.21875 
Q 46.484375 45.515625 46.484375 51.90625 
Q 46.484375 58.296875 42.84375 61.546875 
Q 39.203125 64.796875 32.078125 64.796875 
z
" id="DejaVuSans-82"/>
     </defs>
     <g transform="translate(212.951406 335.860562)scale(0.1 -0.1)">
      <use xlink:href="#DejaVuSans-106"/>
      <use x="27.783203" xlink:href="#DejaVuSans-49"/>
      <use x="91.40625" xlink:href="#DejaVuSans-95"/>
      <use x="141.40625" xlink:href="#DejaVuSans-100"/>
      <use x="204.882812" xlink:href="#DejaVuSans-101"/>
      <use x="266.40625" xlink:href="#DejaVuSans-108"/>
      <use x="294.189453" xlink:href="#DejaVuSans-116"/>
      <use x="333.398438" xlink:href="#DejaVuSans-97"/>
      <use x="394.677734" xlink:href="#DejaVuSans-82"/>
     </g>
    </g>
   </g>
   <g id="matplotlib.axis_2">
    <g id="ytick_1">
     <g id="line2d_9">
      <defs>
       <path d="M 0 0 
L -3.5 0 
" id="mabf43ff773" style="stroke:#000000;stroke-width:0.8;"/>
      </defs>
      <g>
       <use style="stroke:#000000;stroke-width:0.8;" x="57.6" xlink:href="#mabf43ff773" y="307.584"/>
      </g>
     </g>
     <g id="text_10">
      <!-- 0.000 -->
      <g transform="translate(21.971875 311.383219)scale(0.1 -0.1)">
       <use xlink:href="#DejaVuSans-48"/>
       <use x="63.623047" xlink:href="#DejaVuSans-46"/>
       <use x="95.410156" xlink:href="#DejaVuSans-48"/>
       <use x="159.033203" xlink:href="#DejaVuSans-48"/>
       <use x="222.65625" xlink:href="#DejaVuSans-48"/>
      </g>
     </g>
    </g>
    <g id="ytick_2">
     <g id="line2d_10">
      <g>
       <use style="stroke:#000000;stroke-width:0.8;" x="57.6" xlink:href="#mabf43ff773" y="268.335646"/>
      </g>
     </g>
     <g id="text_11">
      <!-- 0.002 -->
      <g transform="translate(21.971875 272.134865)scale(0.1 -0.1)">
       <use xlink:href="#DejaVuSans-48"/>
       <use x="63.623047" xlink:href="#DejaVuSans-46"/>
       <use x="95.410156" xlink:href="#DejaVuSans-48"/>
       <use x="159.033203" xlink:href="#DejaVuSans-48"/>
       <use x="222.65625" xlink:href="#DejaVuSans-50"/>
      </g>
     </g>
    </g>
    <g id="ytick_3">
     <g id="line2d_11">
      <g>
       <use style="stroke:#000000;stroke-width:0.8;" x="57.6" xlink:href="#mabf43ff773" y="229.087293"/>
      </g>
     </g>
     <g id="text_12">
      <!-- 0.004 -->
      <g transform="translate(21.971875 232.886511)scale(0.1 -0.1)">
       <use xlink:href="#DejaVuSans-48"/>
       <use x="63.623047" xlink:href="#DejaVuSans-46"/>
       <use x="95.410156" xlink:href="#DejaVuSans-48"/>
       <use x="159.033203" xlink:href="#DejaVuSans-48"/>
       <use x="222.65625" xlink:href="#DejaVuSans-52"/>
      </g>
     </g>
    </g>
    <g id="ytick_4">
     <g id="line2d_12">
      <g>
       <use style="stroke:#000000;stroke-width:0.8;" x="57.6" xlink:href="#mabf43ff773" y="189.838939"/>
      </g>
     </g>
     <g id="text_13">
      <!-- 0.006 -->
      <defs>
       <path d="M 33.015625 40.375 
Q 26.375 40.375 22.484375 35.828125 
Q 18.609375 31.296875 18.609375 23.390625 
Q 18.609375 15.53125 22.484375 10.953125 
Q 26.375 6.390625 33.015625 6.390625 
Q 39.65625 6.390625 43.53125 10.953125 
Q 47.40625 15.53125 47.40625 23.390625 
Q 47.40625 31.296875 43.53125 35.828125 
Q 39.65625 40.375 33.015625 40.375 
z
M 52.59375 71.296875 
L 52.59375 62.3125 
Q 48.875 64.0625 45.09375 64.984375 
Q 41.3125 65.921875 37.59375 65.921875 
Q 27.828125 65.921875 22.671875 59.328125 
Q 17.53125 52.734375 16.796875 39.40625 
Q 19.671875 43.65625 24.015625 45.921875 
Q 28.375 48.1875 33.59375 48.1875 
Q 44.578125 48.1875 50.953125 41.515625 
Q 57.328125 34.859375 57.328125 23.390625 
Q 57.328125 12.15625 50.6875 5.359375 
Q 44.046875 -1.421875 33.015625 -1.421875 
Q 20.359375 -1.421875 13.671875 8.265625 
Q 6.984375 17.96875 6.984375 36.375 
Q 6.984375 53.65625 15.1875 63.9375 
Q 23.390625 74.21875 37.203125 74.21875 
Q 40.921875 74.21875 44.703125 73.484375 
Q 48.484375 72.75 52.59375 71.296875 
z
" id="DejaVuSans-54"/>
      </defs>
      <g transform="translate(21.971875 193.638158)scale(0.1 -0.1)">
       <use xlink:href="#DejaVuSans-48"/>
       <use x="63.623047" xlink:href="#DejaVuSans-46"/>
       <use x="95.410156" xlink:href="#DejaVuSans-48"/>
       <use x="159.033203" xlink:href="#DejaVuSans-48"/>
       <use x="222.65625" xlink:href="#DejaVuSans-54"/>
      </g>
     </g>
    </g>
    <g id="ytick_5">
     <g id="line2d_13">
      <g>
       <use style="stroke:#000000;stroke-width:0.8;" x="57.6" xlink:href="#mabf43ff773" y="150.590585"/>
      </g>
     </g>
     <g id="text_14">
      <!-- 0.008 -->
      <defs>
       <path d="M 31.78125 34.625 
Q 24.75 34.625 20.71875 30.859375 
Q 16.703125 27.09375 16.703125 20.515625 
Q 16.703125 13.921875 20.71875 10.15625 
Q 24.75 6.390625 31.78125 6.390625 
Q 38.8125 6.390625 42.859375 10.171875 
Q 46.921875 13.96875 46.921875 20.515625 
Q 46.921875 27.09375 42.890625 30.859375 
Q 38.875 34.625 31.78125 34.625 
z
M 21.921875 38.8125 
Q 15.578125 40.375 12.03125 44.71875 
Q 8.5 49.078125 8.5 55.328125 
Q 8.5 64.0625 14.71875 69.140625 
Q 20.953125 74.21875 31.78125 74.21875 
Q 42.671875 74.21875 48.875 69.140625 
Q 55.078125 64.0625 55.078125 55.328125 
Q 55.078125 49.078125 51.53125 44.71875 
Q 48 40.375 41.703125 38.8125 
Q 48.828125 37.15625 52.796875 32.3125 
Q 56.78125 27.484375 56.78125 20.515625 
Q 56.78125 9.90625 50.3125 4.234375 
Q 43.84375 -1.421875 31.78125 -1.421875 
Q 19.734375 -1.421875 13.25 4.234375 
Q 6.78125 9.90625 6.78125 20.515625 
Q 6.78125 27.484375 10.78125 32.3125 
Q 14.796875 37.15625 21.921875 38.8125 
z
M 18.3125 54.390625 
Q 18.3125 48.734375 21.84375 45.5625 
Q 25.390625 42.390625 31.78125 42.390625 
Q 38.140625 42.390625 41.71875 45.5625 
Q 45.3125 48.734375 45.3125 54.390625 
Q 45.3125 60.0625 41.71875 63.234375 
Q 38.140625 66.40625 31.78125 66.40625 
Q 25.390625 66.40625 21.84375 63.234375 
Q 18.3125 60.0625 18.3125 54.390625 
z
" id="DejaVuSans-56"/>
      </defs>
      <g transform="translate(21.971875 154.389804)scale(0.1 -0.1)">
       <use xlink:href="#DejaVuSans-48"/>
       <use x="63.623047" xlink:href="#DejaVuSans-46"/>
       <use x="95.410156" xlink:href="#DejaVuSans-48"/>
       <use x="159.033203" xlink:href="#DejaVuSans-48"/>
       <use x="222.65625" xlink:href="#DejaVuSans-56"/>
      </g>
     </g>
    </g>
    <g id="ytick_6">
     <g id="line2d_14">
      <g>
       <use style="stroke:#000000;stroke-width:0.8;" x="57.6" xlink:href="#mabf43ff773" y="111.342231"/>
      </g>
     </g>
     <g id="text_15">
      <!-- 0.010 -->
      <g transform="translate(21.971875 115.14145)scale(0.1 -0.1)">
       <use xlink:href="#DejaVuSans-48"/>
       <use x="63.623047" xlink:href="#DejaVuSans-46"/>
       <use x="95.410156" xlink:href="#DejaVuSans-48"/>
       <use x="159.033203" xlink:href="#DejaVuSans-49"/>
       <use x="222.65625" xlink:href="#DejaVuSans-48"/>
      </g>
     </g>
    </g>
    <g id="ytick_7">
     <g id="line2d_15">
      <g>
       <use style="stroke:#000000;stroke-width:0.8;" x="57.6" xlink:href="#mabf43ff773" y="72.093878"/>
      </g>
     </g>
     <g id="text_16">
      <!-- 0.012 -->
      <g transform="translate(21.971875 75.893096)scale(0.1 -0.1)">
       <use xlink:href="#DejaVuSans-48"/>
       <use x="63.623047" xlink:href="#DejaVuSans-46"/>
       <use x="95.410156" xlink:href="#DejaVuSans-48"/>
       <use x="159.033203" xlink:href="#DejaVuSans-49"/>
       <use x="222.65625" xlink:href="#DejaVuSans-50"/>
      </g>
     </g>
    </g>
    <g id="text_17">
     <!-- Prob. Density (a.u.) -->
     <defs>
      <path d="M 19.671875 64.796875 
L 19.671875 37.40625 
L 32.078125 37.40625 
Q 38.96875 37.40625 42.71875 40.96875 
Q 46.484375 44.53125 46.484375 51.125 
Q 46.484375 57.671875 42.71875 61.234375 
Q 38.96875 64.796875 32.078125 64.796875 
z
M 9.8125 72.90625 
L 32.078125 72.90625 
Q 44.34375 72.90625 50.609375 67.359375 
Q 56.890625 61.8125 56.890625 51.125 
Q 56.890625 40.328125 50.609375 34.8125 
Q 44.34375 29.296875 32.078125 29.296875 
L 19.671875 29.296875 
L 19.671875 0 
L 9.8125 0 
z
" id="DejaVuSans-80"/>
      <path d="M 41.109375 46.296875 
Q 39.59375 47.171875 37.8125 47.578125 
Q 36.03125 48 33.890625 48 
Q 26.265625 48 22.1875 43.046875 
Q 18.109375 38.09375 18.109375 28.8125 
L 18.109375 0 
L 9.078125 0 
L 9.078125 54.6875 
L 18.109375 54.6875 
L 18.109375 46.1875 
Q 20.953125 51.171875 25.484375 53.578125 
Q 30.03125 56 36.53125 56 
Q 37.453125 56 38.578125 55.875 
Q 39.703125 55.765625 41.0625 55.515625 
z
" id="DejaVuSans-114"/>
      <path d="M 30.609375 48.390625 
Q 23.390625 48.390625 19.1875 42.75 
Q 14.984375 37.109375 14.984375 27.296875 
Q 14.984375 17.484375 19.15625 11.84375 
Q 23.34375 6.203125 30.609375 6.203125 
Q 37.796875 6.203125 41.984375 11.859375 
Q 46.1875 17.53125 46.1875 27.296875 
Q 46.1875 37.015625 41.984375 42.703125 
Q 37.796875 48.390625 30.609375 48.390625 
z
M 30.609375 56 
Q 42.328125 56 49.015625 48.375 
Q 55.71875 40.765625 55.71875 27.296875 
Q 55.71875 13.875 49.015625 6.21875 
Q 42.328125 -1.421875 30.609375 -1.421875 
Q 18.84375 -1.421875 12.171875 6.21875 
Q 5.515625 13.875 5.515625 27.296875 
Q 5.515625 40.765625 12.171875 48.375 
Q 18.84375 56 30.609375 56 
z
" id="DejaVuSans-111"/>
      <path d="M 48.6875 27.296875 
Q 48.6875 37.203125 44.609375 42.84375 
Q 40.53125 48.484375 33.40625 48.484375 
Q 26.265625 48.484375 22.1875 42.84375 
Q 18.109375 37.203125 18.109375 27.296875 
Q 18.109375 17.390625 22.1875 11.75 
Q 26.265625 6.109375 33.40625 6.109375 
Q 40.53125 6.109375 44.609375 11.75 
Q 48.6875 17.390625 48.6875 27.296875 
z
M 18.109375 46.390625 
Q 20.953125 51.265625 25.265625 53.625 
Q 29.59375 56 35.59375 56 
Q 45.5625 56 51.78125 48.09375 
Q 58.015625 40.1875 58.015625 27.296875 
Q 58.015625 14.40625 51.78125 6.484375 
Q 45.5625 -1.421875 35.59375 -1.421875 
Q 29.59375 -1.421875 25.265625 0.953125 
Q 20.953125 3.328125 18.109375 8.203125 
L 18.109375 0 
L 9.078125 0 
L 9.078125 75.984375 
L 18.109375 75.984375 
z
" id="DejaVuSans-98"/>
      <path id="DejaVuSans-32"/>
      <path d="M 19.671875 64.796875 
L 19.671875 8.109375 
L 31.59375 8.109375 
Q 46.6875 8.109375 53.6875 14.9375 
Q 60.6875 21.78125 60.6875 36.53125 
Q 60.6875 51.171875 53.6875 57.984375 
Q 46.6875 64.796875 31.59375 64.796875 
z
M 9.8125 72.90625 
L 30.078125 72.90625 
Q 51.265625 72.90625 61.171875 64.09375 
Q 71.09375 55.28125 71.09375 36.53125 
Q 71.09375 17.671875 61.125 8.828125 
Q 51.171875 0 30.078125 0 
L 9.8125 0 
z
" id="DejaVuSans-68"/>
      <path d="M 54.890625 33.015625 
L 54.890625 0 
L 45.90625 0 
L 45.90625 32.71875 
Q 45.90625 40.484375 42.875 44.328125 
Q 39.84375 48.1875 33.796875 48.1875 
Q 26.515625 48.1875 22.3125 43.546875 
Q 18.109375 38.921875 18.109375 30.90625 
L 18.109375 0 
L 9.078125 0 
L 9.078125 54.6875 
L 18.109375 54.6875 
L 18.109375 46.1875 
Q 21.34375 51.125 25.703125 53.5625 
Q 30.078125 56 35.796875 56 
Q 45.21875 56 50.046875 50.171875 
Q 54.890625 44.34375 54.890625 33.015625 
z
" id="DejaVuSans-110"/>
      <path d="M 44.28125 53.078125 
L 44.28125 44.578125 
Q 40.484375 46.53125 36.375 47.5 
Q 32.28125 48.484375 27.875 48.484375 
Q 21.1875 48.484375 17.84375 46.4375 
Q 14.5 44.390625 14.5 40.28125 
Q 14.5 37.15625 16.890625 35.375 
Q 19.28125 33.59375 26.515625 31.984375 
L 29.59375 31.296875 
Q 39.15625 29.25 43.1875 25.515625 
Q 47.21875 21.78125 47.21875 15.09375 
Q 47.21875 7.46875 41.1875 3.015625 
Q 35.15625 -1.421875 24.609375 -1.421875 
Q 20.21875 -1.421875 15.453125 -0.5625 
Q 10.6875 0.296875 5.421875 2 
L 5.421875 11.28125 
Q 10.40625 8.6875 15.234375 7.390625 
Q 20.0625 6.109375 24.8125 6.109375 
Q 31.15625 6.109375 34.5625 8.28125 
Q 37.984375 10.453125 37.984375 14.40625 
Q 37.984375 18.0625 35.515625 20.015625 
Q 33.0625 21.96875 24.703125 23.78125 
L 21.578125 24.515625 
Q 13.234375 26.265625 9.515625 29.90625 
Q 5.8125 33.546875 5.8125 39.890625 
Q 5.8125 47.609375 11.28125 51.796875 
Q 16.75 56 26.8125 56 
Q 31.78125 56 36.171875 55.265625 
Q 40.578125 54.546875 44.28125 53.078125 
z
" id="DejaVuSans-115"/>
      <path d="M 9.421875 54.6875 
L 18.40625 54.6875 
L 18.40625 0 
L 9.421875 0 
z
M 9.421875 75.984375 
L 18.40625 75.984375 
L 18.40625 64.59375 
L 9.421875 64.59375 
z
" id="DejaVuSans-105"/>
      <path d="M 32.171875 -5.078125 
Q 28.375 -14.84375 24.75 -17.8125 
Q 21.140625 -20.796875 15.09375 -20.796875 
L 7.90625 -20.796875 
L 7.90625 -13.28125 
L 13.1875 -13.28125 
Q 16.890625 -13.28125 18.9375 -11.515625 
Q 21 -9.765625 23.484375 -3.21875 
L 25.09375 0.875 
L 2.984375 54.6875 
L 12.5 54.6875 
L 29.59375 11.921875 
L 46.6875 54.6875 
L 56.203125 54.6875 
z
" id="DejaVuSans-121"/>
      <path d="M 31 75.875 
Q 24.46875 64.65625 21.28125 53.65625 
Q 18.109375 42.671875 18.109375 31.390625 
Q 18.109375 20.125 21.3125 9.0625 
Q 24.515625 -2 31 -13.1875 
L 23.1875 -13.1875 
Q 15.875 -1.703125 12.234375 9.375 
Q 8.59375 20.453125 8.59375 31.390625 
Q 8.59375 42.28125 12.203125 53.3125 
Q 15.828125 64.359375 23.1875 75.875 
z
" id="DejaVuSans-40"/>
      <path d="M 8.5 21.578125 
L 8.5 54.6875 
L 17.484375 54.6875 
L 17.484375 21.921875 
Q 17.484375 14.15625 20.5 10.265625 
Q 23.53125 6.390625 29.59375 6.390625 
Q 36.859375 6.390625 41.078125 11.03125 
Q 45.3125 15.671875 45.3125 23.6875 
L 45.3125 54.6875 
L 54.296875 54.6875 
L 54.296875 0 
L 45.3125 0 
L 45.3125 8.40625 
Q 42.046875 3.421875 37.71875 1 
Q 33.40625 -1.421875 27.6875 -1.421875 
Q 18.265625 -1.421875 13.375 4.4375 
Q 8.5 10.296875 8.5 21.578125 
z
M 31.109375 56 
z
" id="DejaVuSans-117"/>
      <path d="M 8.015625 75.875 
L 15.828125 75.875 
Q 23.140625 64.359375 26.78125 53.3125 
Q 30.421875 42.28125 30.421875 31.390625 
Q 30.421875 20.453125 26.78125 9.375 
Q 23.140625 -1.703125 15.828125 -13.1875 
L 8.015625 -13.1875 
Q 14.5 -2 17.703125 9.0625 
Q 20.90625 20.125 20.90625 31.390625 
Q 20.90625 42.671875 17.703125 53.65625 
Q 14.5 64.65625 8.015625 75.875 
z
" id="DejaVuSans-41"/>
     </defs>
     <g transform="translate(15.892187 222.917844)rotate(-90)scale(0.1 -0.1)">
      <use xlink:href="#DejaVuSans-80"/>
      <use x="60.287109" xlink:href="#DejaVuSans-114"/>
      <use x="101.369141" xlink:href="#DejaVuSans-111"/>
      <use x="162.550781" xlink:href="#DejaVuSans-98"/>
      <use x="226.027344" xlink:href="#DejaVuSans-46"/>
      <use x="257.814453" xlink:href="#DejaVuSans-32"/>
      <use x="289.601562" xlink:href="#DejaVuSans-68"/>
      <use x="366.603516" xlink:href="#DejaVuSans-101"/>
      <use x="428.126953" xlink:href="#DejaVuSans-110"/>
      <use x="491.505859" xlink:href="#DejaVuSans-115"/>
      <use x="543.605469" xlink:href="#DejaVuSans-105"/>
      <use x="571.388672" xlink:href="#DejaVuSans-116"/>
      <use x="610.597656" xlink:href="#DejaVuSans-121"/>
      <use x="669.777344" xlink:href="#DejaVuSans-32"/>
      <use x="701.564453" xlink:href="#DejaVuSans-40"/>
      <use x="740.578125" xlink:href="#DejaVuSans-97"/>
      <use x="801.857422" xlink:href="#DejaVuSans-46"/>
      <use x="833.644531" xlink:href="#DejaVuSans-117"/>
      <use x="897.023438" xlink:href="#DejaVuSans-46"/>
      <use x="928.810547" xlink:href="#DejaVuSans-41"/>
     </g>
    </g>
   </g>
   <g id="patch_9">
    <path d="M 57.6 307.584 
L 57.6 41.472 
" style="fill:none;stroke:#000000;stroke-linecap:square;stroke-linejoin:miter;stroke-width:0.8;"/>
   </g>
   <g id="patch_10">
    <path d="M 414.72 307.584 
L 414.72 41.472 
" style="fill:none;stroke:#000000;stroke-linecap:square;stroke-linejoin:miter;stroke-width:0.8;"/>
   </g>
   <g id="patch_11">
    <path d="M 57.6 307.584 
L 414.72 307.584 
" style="fill:none;stroke:#000000;stroke-linecap:square;stroke-linejoin:miter;stroke-width:0.8;"/>
   </g>
   <g id="patch_12">
    <path d="M 57.6 41.472 
L 414.72 41.472 
" style="fill:none;stroke:#000000;stroke-linecap:square;stroke-linejoin:miter;stroke-width:0.8;"/>
   </g>
   <g id="legend_1">
    <g id="patch_13">
     <path d="M 325.405938 137.54075 
L 407.72 137.54075 
Q 409.72 137.54075 409.72 135.54075 
L 409.72 48.472 
Q 409.72 46.472 407.72 46.472 
L 325.405938 46.472 
Q 323.405938 46.472 323.405938 48.472 
L 323.405938 135.54075 
Q 323.405938 137.54075 325.405938 137.54075 
z
" style="fill:#ffffff;opacity:0.8;stroke:#cccccc;stroke-linejoin:miter;"/>
    </g>
    <g id="patch_14">
     <path d="M 327.405938 58.070438 
L 347.405938 58.070438 
L 347.405938 51.070438 
L 327.405938 51.070438 
z
" style="fill:none;stroke:#1f77b4;stroke-linejoin:miter;"/>
    </g>
    <g id="text_18">
     <!-- quark -->
     <defs>
      <path d="M 14.796875 27.296875 
Q 14.796875 17.390625 18.875 11.75 
Q 22.953125 6.109375 30.078125 6.109375 
Q 37.203125 6.109375 41.296875 11.75 
Q 45.40625 17.390625 45.40625 27.296875 
Q 45.40625 37.203125 41.296875 42.84375 
Q 37.203125 48.484375 30.078125 48.484375 
Q 22.953125 48.484375 18.875 42.84375 
Q 14.796875 37.203125 14.796875 27.296875 
z
M 45.40625 8.203125 
Q 42.578125 3.328125 38.25 0.953125 
Q 33.9375 -1.421875 27.875 -1.421875 
Q 17.96875 -1.421875 11.734375 6.484375 
Q 5.515625 14.40625 5.515625 27.296875 
Q 5.515625 40.1875 11.734375 48.09375 
Q 17.96875 56 27.875 56 
Q 33.9375 56 38.25 53.625 
Q 42.578125 51.265625 45.40625 46.390625 
L 45.40625 54.6875 
L 54.390625 54.6875 
L 54.390625 -20.796875 
L 45.40625 -20.796875 
z
" id="DejaVuSans-113"/>
      <path d="M 9.078125 75.984375 
L 18.109375 75.984375 
L 18.109375 31.109375 
L 44.921875 54.6875 
L 56.390625 54.6875 
L 27.390625 29.109375 
L 57.625 0 
L 45.90625 0 
L 18.109375 26.703125 
L 18.109375 0 
L 9.078125 0 
z
" id="DejaVuSans-107"/>
     </defs>
     <g transform="translate(355.405938 58.070438)scale(0.1 -0.1)">
      <use xlink:href="#DejaVuSans-113"/>
      <use x="63.476562" xlink:href="#DejaVuSans-117"/>
      <use x="126.855469" xlink:href="#DejaVuSans-97"/>
      <use x="188.134766" xlink:href="#DejaVuSans-114"/>
      <use x="229.248047" xlink:href="#DejaVuSans-107"/>
     </g>
    </g>
    <g id="patch_15">
     <path d="M 327.405938 72.748563 
L 347.405938 72.748563 
L 347.405938 65.748563 
L 327.405938 65.748563 
z
" style="fill:none;stroke:#ff7f0e;stroke-linejoin:miter;"/>
    </g>
    <g id="text_19">
     <!-- gluon -->
     <defs>
      <path d="M 45.40625 27.984375 
Q 45.40625 37.75 41.375 43.109375 
Q 37.359375 48.484375 30.078125 48.484375 
Q 22.859375 48.484375 18.828125 43.109375 
Q 14.796875 37.75 14.796875 27.984375 
Q 14.796875 18.265625 18.828125 12.890625 
Q 22.859375 7.515625 30.078125 7.515625 
Q 37.359375 7.515625 41.375 12.890625 
Q 45.40625 18.265625 45.40625 27.984375 
z
M 54.390625 6.78125 
Q 54.390625 -7.171875 48.1875 -13.984375 
Q 42 -20.796875 29.203125 -20.796875 
Q 24.46875 -20.796875 20.265625 -20.09375 
Q 16.0625 -19.390625 12.109375 -17.921875 
L 12.109375 -9.1875 
Q 16.0625 -11.328125 19.921875 -12.34375 
Q 23.78125 -13.375 27.78125 -13.375 
Q 36.625 -13.375 41.015625 -8.765625 
Q 45.40625 -4.15625 45.40625 5.171875 
L 45.40625 9.625 
Q 42.625 4.78125 38.28125 2.390625 
Q 33.9375 0 27.875 0 
Q 17.828125 0 11.671875 7.65625 
Q 5.515625 15.328125 5.515625 27.984375 
Q 5.515625 40.671875 11.671875 48.328125 
Q 17.828125 56 27.875 56 
Q 33.9375 56 38.28125 53.609375 
Q 42.625 51.21875 45.40625 46.390625 
L 45.40625 54.6875 
L 54.390625 54.6875 
z
" id="DejaVuSans-103"/>
     </defs>
     <g transform="translate(355.405938 72.748563)scale(0.1 -0.1)">
      <use xlink:href="#DejaVuSans-103"/>
      <use x="63.476562" xlink:href="#DejaVuSans-108"/>
      <use x="91.259766" xlink:href="#DejaVuSans-117"/>
      <use x="154.638672" xlink:href="#DejaVuSans-111"/>
      <use x="215.820312" xlink:href="#DejaVuSans-110"/>
     </g>
    </g>
    <g id="patch_16">
     <path d="M 327.405938 87.426688 
L 347.405938 87.426688 
L 347.405938 80.426688 
L 327.405938 80.426688 
z
" style="fill:none;stroke:#2ca02c;stroke-linejoin:miter;"/>
    </g>
    <g id="text_20">
     <!-- W -->
     <defs>
      <path d="M 3.328125 72.90625 
L 13.28125 72.90625 
L 28.609375 11.28125 
L 43.890625 72.90625 
L 54.984375 72.90625 
L 70.3125 11.28125 
L 85.59375 72.90625 
L 95.609375 72.90625 
L 77.296875 0 
L 64.890625 0 
L 49.515625 63.28125 
L 33.984375 0 
L 21.578125 0 
z
" id="DejaVuSans-87"/>
     </defs>
     <g transform="translate(355.405938 87.426688)scale(0.1 -0.1)">
      <use xlink:href="#DejaVuSans-87"/>
     </g>
    </g>
    <g id="patch_17">
     <path d="M 327.405938 102.104813 
L 347.405938 102.104813 
L 347.405938 95.104813 
L 327.405938 95.104813 
z
" style="fill:none;stroke:#d62728;stroke-linejoin:miter;"/>
    </g>
    <g id="text_21">
     <!-- Z -->
     <defs>
      <path d="M 5.609375 72.90625 
L 62.890625 72.90625 
L 62.890625 65.375 
L 16.796875 8.296875 
L 64.015625 8.296875 
L 64.015625 0 
L 4.5 0 
L 4.5 7.515625 
L 50.59375 64.59375 
L 5.609375 64.59375 
z
" id="DejaVuSans-90"/>
     </defs>
     <g transform="translate(355.405938 102.104813)scale(0.1 -0.1)">
      <use xlink:href="#DejaVuSans-90"/>
     </g>
    </g>
    <g id="patch_18">
     <path d="M 327.405938 116.782938 
L 347.405938 116.782938 
L 347.405938 109.782938 
L 327.405938 109.782938 
z
" style="fill:none;stroke:#9467bd;stroke-linejoin:miter;"/>
    </g>
    <g id="text_22">
     <!-- top -->
     <defs>
      <path d="M 18.109375 8.203125 
L 18.109375 -20.796875 
L 9.078125 -20.796875 
L 9.078125 54.6875 
L 18.109375 54.6875 
L 18.109375 46.390625 
Q 20.953125 51.265625 25.265625 53.625 
Q 29.59375 56 35.59375 56 
Q 45.5625 56 51.78125 48.09375 
Q 58.015625 40.1875 58.015625 27.296875 
Q 58.015625 14.40625 51.78125 6.484375 
Q 45.5625 -1.421875 35.59375 -1.421875 
Q 29.59375 -1.421875 25.265625 0.953125 
Q 20.953125 3.328125 18.109375 8.203125 
z
M 48.6875 27.296875 
Q 48.6875 37.203125 44.609375 42.84375 
Q 40.53125 48.484375 33.40625 48.484375 
Q 26.265625 48.484375 22.1875 42.84375 
Q 18.109375 37.203125 18.109375 27.296875 
Q 18.109375 17.390625 22.1875 11.75 
Q 26.265625 6.109375 33.40625 6.109375 
Q 40.53125 6.109375 44.609375 11.75 
Q 48.6875 17.390625 48.6875 27.296875 
z
" id="DejaVuSans-112"/>
     </defs>
     <g transform="translate(355.405938 116.782938)scale(0.1 -0.1)">
      <use xlink:href="#DejaVuSans-116"/>
      <use x="39.208984" xlink:href="#DejaVuSans-111"/>
      <use x="100.390625" xlink:href="#DejaVuSans-112"/>
     </g>
    </g>
    <g id="patch_19">
     <path d="M 327.405938 131.461063 
L 347.405938 131.461063 
L 347.405938 124.461063 
L 327.405938 124.461063 
z
" style="fill:none;stroke:#000000;stroke-linejoin:miter;"/>
    </g>
    <g id="text_23">
     <!-- undefined -->
     <defs>
      <path d="M 37.109375 75.984375 
L 37.109375 68.5 
L 28.515625 68.5 
Q 23.6875 68.5 21.796875 66.546875 
Q 19.921875 64.59375 19.921875 59.515625 
L 19.921875 54.6875 
L 34.71875 54.6875 
L 34.71875 47.703125 
L 19.921875 47.703125 
L 19.921875 0 
L 10.890625 0 
L 10.890625 47.703125 
L 2.296875 47.703125 
L 2.296875 54.6875 
L 10.890625 54.6875 
L 10.890625 58.5 
Q 10.890625 67.625 15.140625 71.796875 
Q 19.390625 75.984375 28.609375 75.984375 
z
" id="DejaVuSans-102"/>
     </defs>
     <g transform="translate(355.405938 131.461063)scale(0.1 -0.1)">
      <use xlink:href="#DejaVuSans-117"/>
      <use x="63.378906" xlink:href="#DejaVuSans-110"/>
      <use x="126.757812" xlink:href="#DejaVuSans-100"/>
      <use x="190.234375" xlink:href="#DejaVuSans-101"/>
      <use x="251.757812" xlink:href="#DejaVuSans-102"/>
      <use x="286.962891" xlink:href="#DejaVuSans-105"/>
      <use x="314.746094" xlink:href="#DejaVuSans-110"/>
      <use x="378.125" xlink:href="#DejaVuSans-101"/>
      <use x="439.648438" xlink:href="#DejaVuSans-100"/>
     </g>
    </g>
   </g>
  </g>
 </g>
 <defs>
  <clipPath id="p8bc51ec0e0">
   <rect height="266.112" width="357.12" x="57.6" y="41.472"/>
  </clipPath>
 </defs>
</svg>
