<?xml version="1.0" encoding="utf-8" standalone="no"?>
<!DOCTYPE svg PUBLIC "-//W3C//DTD SVG 1.1//EN"
  "http://www.w3.org/Graphics/SVG/1.1/DTD/svg11.dtd">
<!-- Created with matplotlib (https://matplotlib.org/) -->
<svg height="345.6pt" version="1.1" viewBox="0 0 460.8 345.6" width="460.8pt" xmlns="http://www.w3.org/2000/svg" xmlns:xlink="http://www.w3.org/1999/xlink">
 <defs>
  <style type="text/css">
*{stroke-linecap:butt;stroke-linejoin:round;}
  </style>
 </defs>
 <g id="figure_1">
  <g id="patch_1">
   <path d="M 0 345.6 
L 460.8 345.6 
L 460.8 0 
L 0 0 
z
" style="fill:#ffffff;"/>
  </g>
  <g id="axes_1">
   <g id="patch_2">
    <path d="M 57.6 307.584 
L 414.72 307.584 
L 414.72 41.472 
L 57.6 41.472 
z
" style="fill:#ffffff;"/>
   </g>
   <g id="patch_3">
    <path clip-path="url(#p65a1f06196)" d="M 73.83273 307.584 
L 73.83273 306.145109 
L 77.079274 306.145109 
L 77.079274 306.022466 
L 86.818907 305.949917 
L 86.818907 305.716723 
L 93.311995 305.66663 
L 93.311995 305.595808 
L 96.558539 305.595808 
L 96.558539 305.423072 
L 103.051642 305.405799 
L 103.051642 305.30043 
L 109.54473 305.257246 
L 109.54473 305.029234 
L 112.791274 305.029234 
L 112.791274 304.878954 
L 122.530907 304.771857 
L 122.530907 304.485115 
L 125.777451 304.485115 
L 125.777451 304.626759 
L 129.024002 304.626759 
L 129.024002 304.277832 
L 135.51709 304.286469 
L 135.51709 304.018728 
L 142.010179 303.944452 
L 142.010179 303.818355 
L 145.25673 303.818355 
L 145.25673 303.38306 
L 151.749818 303.374423 
L 151.749818 303.082499 
L 154.996362 303.082499 
L 154.996362 302.849306 
L 158.242907 302.849306 
L 158.242907 302.555655 
L 161.489451 302.555655 
L 161.489451 302.431284 
L 164.736002 302.431284 
L 164.736002 301.954533 
L 167.982546 301.954533 
L 167.982546 301.679883 
L 171.22909 301.679883 
L 171.22909 301.298136 
L 174.475634 301.298136 
L 174.475634 300.852477 
L 177.722182 300.852477 
L 177.722182 300.486277 
L 180.968726 300.486277 
L 180.968726 299.909337 
L 184.21527 299.909337 
L 184.21527 299.653689 
L 187.461818 299.653689 
L 187.461818 298.632819 
L 190.708362 298.632819 
L 190.708362 297.896964 
L 193.954906 297.896964 
L 193.954906 296.736178 
L 197.201454 296.736178 
L 197.201454 295.452749 
L 200.447998 295.452749 
L 200.447998 294.167592 
L 203.694546 294.167592 
L 203.694546 292.231223 
L 206.94109 292.231223 
L 206.94109 289.73346 
L 210.187636 289.73346 
L 210.187636 287.607078 
L 213.43418 287.607078 
L 213.43418 284.579016 
L 216.680726 284.579016 
L 216.680726 280.531812 
L 219.927272 280.531812 
L 219.927272 274.273583 
L 223.173817 274.273583 
L 223.173817 266.393364 
L 226.420362 266.393364 
L 226.420362 254.032379 
L 229.666907 254.032379 
L 229.666907 226.517248 
L 232.913453 226.517248 
L 232.913453 110.823846 
L 236.159998 110.823846 
L 236.159998 176.974825 
L 239.406544 176.974825 
L 239.406544 228.197973 
L 242.653089 228.197973 
L 242.653089 254.633499 
L 245.899635 254.633499 
L 245.899635 267.010034 
L 249.14618 267.010034 
L 249.14618 274.277039 
L 252.392726 274.277039 
L 252.392726 280.068877 
L 255.639272 280.068877 
L 255.639272 284.385554 
L 258.885816 284.385554 
L 258.885816 287.189057 
L 262.132362 287.189057 
L 262.132362 290.106568 
L 265.378908 290.106568 
L 265.378908 292.478234 
L 268.625454 292.478234 
L 268.625454 293.982765 
L 271.871998 293.982765 
L 271.871998 295.639303 
L 275.118542 295.639303 
L 275.118542 296.591079 
L 278.36509 296.591079 
L 278.36509 297.674134 
L 281.611634 297.674134 
L 281.611634 298.8021 
L 284.858181 298.8021 
L 284.858181 299.560411 
L 288.104726 299.560411 
L 288.104726 300.064801 
L 291.35127 300.064801 
L 291.35127 300.375725 
L 294.597817 300.375725 
L 294.597817 300.971665 
L 297.844362 300.971665 
L 297.844362 301.213495 
L 301.090906 301.213495 
L 301.090906 301.717884 
L 304.33745 301.717884 
L 304.33745 302.035718 
L 307.584001 302.035718 
L 307.584001 302.396738 
L 310.830545 302.396738 
L 310.830545 302.623021 
L 314.077089 302.623021 
L 314.077089 302.809576 
L 317.323634 302.809576 
L 317.323634 303.054862 
L 320.570178 303.054862 
L 320.570178 303.453882 
L 327.063273 303.462519 
L 327.063273 303.593798 
L 330.309817 303.593798 
L 330.309817 303.80799 
L 333.556361 303.80799 
L 333.556361 304.055003 
L 336.802906 304.055003 
L 336.802906 304.376292 
L 343.296001 304.403929 
L 343.296001 304.538664 
L 349.789089 304.573211 
L 349.789089 304.785676 
L 356.282185 304.863407 
L 356.282185 305.108693 
L 369.268361 305.205425 
L 369.268361 305.379888 
L 372.514905 305.379888 
L 372.514905 305.552624 
L 379.007994 305.557806 
L 379.007994 305.678722 
L 385.501082 305.775454 
L 385.501082 305.889459 
L 391.994184 305.936098 
L 391.994184 306.077742 
L 395.240729 306.077742 
L 395.240729 306.200384 
L 398.487273 306.200384 
L 398.487273 307.584 
L 398.487273 307.584 
" style="fill:none;stroke:#1f77b4;stroke-linejoin:miter;"/>
   </g>
   <g id="patch_4">
    <path clip-path="url(#p65a1f06196)" d="M 73.83273 307.584 
L 73.83273 304.811587 
L 80.325819 304.707946 
L 80.325819 304.39702 
L 83.572363 304.39702 
L 83.572363 304.074004 
L 90.065451 304.020455 
L 90.065451 303.778625 
L 93.311995 303.778625 
L 93.311995 303.445244 
L 99.805098 303.483246 
L 99.805098 303.279417 
L 103.051642 303.279417 
L 103.051642 302.982312 
L 106.298186 302.982312 
L 106.298186 302.800939 
L 109.54473 302.800939 
L 109.54473 302.521107 
L 112.791274 302.521107 
L 112.791274 302.180817 
L 116.037818 302.180817 
L 116.037818 301.990808 
L 119.284363 301.990808 
L 119.284363 301.733431 
L 122.530907 301.733431 
L 122.530907 301.379321 
L 125.777451 301.379321 
L 125.777451 301.002757 
L 129.024002 301.002757 
L 129.024002 300.783382 
L 132.270546 300.783382 
L 132.270546 300.669376 
L 135.51709 300.669376 
L 135.51709 300.349814 
L 138.763635 300.349814 
L 138.763635 299.791878 
L 142.010179 299.791878 
L 142.010179 299.52241 
L 145.25673 299.52241 
L 145.25673 299.125117 
L 148.503274 299.125117 
L 148.503274 298.634547 
L 151.749818 298.634547 
L 151.749818 297.966059 
L 154.996362 297.966059 
L 154.996362 297.487579 
L 158.242907 297.487579 
L 158.242907 296.97628 
L 161.489451 296.97628 
L 161.489451 296.696449 
L 164.736002 296.696449 
L 164.736002 295.739491 
L 167.982546 295.739491 
L 167.982546 295.288648 
L 171.22909 295.288648 
L 171.22909 294.500972 
L 174.475634 294.500972 
L 174.475634 293.753025 
L 177.722182 293.753025 
L 177.722182 292.621604 
L 180.968726 292.621604 
L 180.968726 291.676738 
L 184.21527 291.676738 
L 184.21527 290.614414 
L 187.461818 290.614414 
L 187.461818 288.583035 
L 190.708362 288.583035 
L 190.708362 287.529345 
L 193.954906 287.529345 
L 193.954906 285.532518 
L 197.201454 285.532518 
L 197.201454 282.739376 
L 200.447998 282.739376 
L 200.447998 280.293436 
L 203.694546 280.293436 
L 203.694546 276.472513 
L 206.94109 276.472513 
L 206.94109 273.124889 
L 210.187636 273.124889 
L 210.187636 267.916895 
L 213.43418 267.916895 
L 213.43418 261.789957 
L 216.680726 261.789957 
L 216.680726 254.633503 
L 219.927272 254.633503 
L 219.927272 244.450699 
L 223.173817 244.450699 
L 223.173817 230.28981 
L 226.420362 230.28981 
L 226.420362 208.918914 
L 229.666907 208.918914 
L 229.666907 171.347079 
L 232.913453 171.347079 
L 232.913453 54.144 
L 236.159998 54.144 
L 236.159998 123.682301 
L 239.406544 123.682301 
L 239.406544 173.095188 
L 242.653089 173.095188 
L 242.653089 209.504491 
L 245.899635 209.504491 
L 245.899635 230.567909 
L 249.14618 230.567909 
L 249.14618 244.334971 
L 252.392726 244.334971 
L 252.392726 254.814868 
L 255.639272 254.814868 
L 255.639272 262.187246 
L 258.885816 262.187246 
L 258.885816 268.233005 
L 262.132362 268.233005 
L 262.132362 272.915879 
L 265.378908 272.915879 
L 265.378908 277.052904 
L 268.625454 277.052904 
L 268.625454 280.082694 
L 271.871998 280.082694 
L 271.871998 282.860293 
L 275.118542 282.860293 
L 275.118542 285.176682 
L 278.36509 285.176682 
L 278.36509 287.094048 
L 281.611634 287.094048 
L 281.611634 289.272255 
L 284.858181 289.272255 
L 284.858181 290.759512 
L 288.104726 290.759512 
L 288.104726 291.673284 
L 291.35127 291.673284 
L 291.35127 292.980896 
L 294.597817 292.980896 
L 294.597817 293.730569 
L 297.844362 293.730569 
L 297.844362 294.55625 
L 301.090906 294.55625 
L 301.090906 295.533935 
L 304.33745 295.533935 
L 304.33745 295.920863 
L 307.584001 295.920863 
L 307.584001 296.779361 
L 310.830545 296.779361 
L 310.830545 297.212929 
L 314.077089 297.212929 
L 314.077089 297.613677 
L 317.323634 297.613677 
L 317.323634 298.320166 
L 320.570178 298.320166 
L 320.570178 298.753734 
L 323.816722 298.753734 
L 323.816722 298.997291 
L 327.063273 298.997291 
L 327.063273 299.543137 
L 330.309817 299.543137 
L 330.309817 299.993979 
L 333.556361 299.993979 
L 333.556361 300.180533 
L 336.802906 300.180533 
L 336.802906 300.617557 
L 340.04945 300.617557 
L 340.04945 300.797201 
L 343.296001 300.797201 
L 343.296001 301.232496 
L 349.789089 301.336138 
L 349.789089 301.719612 
L 353.035633 301.719612 
L 353.035633 301.933805 
L 356.282185 301.933805 
L 356.282185 302.163543 
L 362.775273 302.274094 
L 362.775273 302.762937 
L 366.021817 302.762937 
L 366.021817 302.96331 
L 372.514905 303.047952 
L 372.514905 303.365786 
L 379.007994 303.471154 
L 379.007994 303.80799 
L 382.254538 303.80799 
L 382.254538 303.980726 
L 385.501082 303.980726 
L 385.501082 304.205283 
L 391.994184 304.20701 
L 391.994184 304.454023 
L 395.240729 304.454023 
L 395.240729 304.728673 
L 398.487273 304.728673 
L 398.487273 307.584 
L 398.487273 307.584 
" style="fill:none;stroke:#ff7f0e;stroke-linejoin:miter;"/>
   </g>
   <g id="patch_5">
    <path clip-path="url(#p65a1f06196)" d="M 73.83273 307.584 
L 73.83273 306.823961 
L 83.572363 306.792869 
L 83.572363 306.680591 
L 96.558539 306.582131 
L 96.558539 306.459489 
L 112.791274 306.355847 
L 112.791274 306.221113 
L 119.284363 306.240114 
L 119.284363 306.103652 
L 125.777451 306.022466 
L 125.777451 305.891187 
L 129.024002 305.891187 
L 129.024002 305.746089 
L 135.51709 305.685631 
L 135.51709 305.550897 
L 142.010179 305.443801 
L 142.010179 305.274519 
L 148.503274 305.277974 
L 148.503274 304.961867 
L 151.749818 304.961867 
L 151.749818 304.809859 
L 154.996362 304.809859 
L 154.996362 304.504116 
L 161.489451 304.438477 
L 161.489451 304.24674 
L 164.736002 304.24674 
L 164.736002 303.764807 
L 167.982546 303.764807 
L 167.982546 303.529886 
L 171.22909 303.529886 
L 171.22909 303.058316 
L 174.475634 303.058316 
L 174.475634 302.522835 
L 177.722182 302.522835 
L 177.722182 302.056447 
L 180.968726 302.056447 
L 180.968726 301.533057 
L 184.21527 301.533057 
L 184.21527 300.678013 
L 187.461818 300.678013 
L 187.461818 299.727966 
L 190.708362 299.727966 
L 190.708362 298.705368 
L 193.954906 298.705368 
L 193.954906 297.589493 
L 197.201454 297.589493 
L 197.201454 296.093599 
L 200.447998 296.093599 
L 200.447998 294.497517 
L 203.694546 294.497517 
L 203.694546 292.315863 
L 206.94109 292.315863 
L 206.94109 289.906195 
L 210.187636 289.906195 
L 210.187636 286.710577 
L 213.43418 286.710577 
L 213.43418 282.822289 
L 216.680726 282.822289 
L 216.680726 277.474383 
L 219.927272 277.474383 
L 219.927272 269.740994 
L 223.173817 269.740994 
L 223.173817 259.527109 
L 226.420362 259.527109 
L 226.420362 242.555798 
L 229.666907 242.555798 
L 229.666907 208.179601 
L 232.913453 208.179601 
L 232.913453 83.332913 
L 236.159998 83.332913 
L 236.159998 152.73826 
L 239.406544 152.73826 
L 239.406544 209.333467 
L 242.653089 209.333467 
L 242.653089 243.07573 
L 245.899635 243.07573 
L 245.899635 259.855306 
L 249.14618 259.855306 
L 249.14618 269.979368 
L 252.392726 269.979368 
L 252.392726 277.090909 
L 255.639272 277.090909 
L 255.639272 282.485456 
L 258.885816 282.485456 
L 258.885816 286.270101 
L 262.132362 286.270101 
L 262.132362 289.379349 
L 265.378908 289.379349 
L 265.378908 292.31068 
L 268.625454 292.31068 
L 268.625454 294.336874 
L 271.871998 294.336874 
L 271.871998 295.744672 
L 275.118542 295.744672 
L 275.118542 297.494489 
L 278.36509 297.494489 
L 278.36509 298.617273 
L 281.611634 298.617273 
L 281.611634 299.805696 
L 284.858181 299.805696 
L 284.858181 300.520823 
L 288.104726 300.520823 
L 288.104726 301.263588 
L 291.35127 301.263588 
L 291.35127 301.951078 
L 294.597817 301.951078 
L 294.597817 302.593656 
L 297.844362 302.593656 
L 297.844362 303.020314 
L 301.090906 303.020314 
L 301.090906 303.624891 
L 307.584001 303.709531 
L 307.584001 304.013546 
L 310.830545 304.013546 
L 310.830545 304.326198 
L 314.077089 304.326198 
L 314.077089 304.545573 
L 317.323634 304.545573 
L 317.323634 304.73731 
L 323.816722 304.837497 
L 323.816722 305.243427 
L 330.309817 305.315976 
L 330.309817 305.442073 
L 336.802906 305.50944 
L 336.802906 305.682176 
L 340.04945 305.682176 
L 340.04945 305.905006 
L 343.296001 305.905006 
L 343.296001 305.791 
L 346.542545 305.791 
L 346.542545 306.031103 
L 353.035633 306.067378 
L 353.035633 306.162382 
L 359.528729 306.183111 
L 359.528729 306.276388 
L 369.268361 306.376575 
L 369.268361 306.457761 
L 372.514905 306.457761 
L 372.514905 306.594223 
L 379.007994 306.544129 
L 379.007994 306.708228 
L 395.240729 306.813597 
L 395.240729 306.830871 
L 398.487273 306.830871 
L 398.487273 307.584 
L 398.487273 307.584 
" style="fill:none;stroke:#2ca02c;stroke-linejoin:miter;"/>
   </g>
   <g id="patch_6">
    <path clip-path="url(#p65a1f06196)" d="M 73.83273 307.584 
L 73.83273 306.732411 
L 90.065451 306.677136 
L 90.065451 306.514764 
L 99.805098 306.40594 
L 99.805098 306.295389 
L 109.54473 306.188293 
L 109.54473 306.158928 
L 112.791274 306.158928 
L 112.791274 305.967191 
L 119.284363 305.872186 
L 119.284363 305.839366 
L 125.777451 305.754725 
L 125.777451 305.656266 
L 132.270546 305.547442 
L 132.270546 305.347069 
L 138.763635 305.307339 
L 138.763635 305.101783 
L 142.010179 305.101783 
L 142.010179 304.891045 
L 145.25673 304.891045 
L 145.25673 304.77013 
L 148.503274 304.77013 
L 148.503274 304.593939 
L 154.996362 304.526572 
L 154.996362 303.966907 
L 158.242907 303.966907 
L 158.242907 303.75617 
L 161.489451 303.75617 
L 161.489451 303.44179 
L 164.736002 303.44179 
L 164.736002 303.056589 
L 167.982546 303.056589 
L 167.982546 302.612657 
L 171.22909 302.612657 
L 171.22909 302.272368 
L 174.475634 302.272368 
L 174.475634 301.690247 
L 177.722182 301.690247 
L 177.722182 301.111581 
L 180.968726 301.111581 
L 180.968726 300.277266 
L 184.21527 300.277266 
L 184.21527 299.61396 
L 187.461818 299.61396 
L 187.461818 298.802101 
L 190.708362 298.802101 
L 190.708362 297.522127 
L 193.954906 297.522127 
L 193.954906 296.181693 
L 197.201454 296.181693 
L 197.201454 294.955268 
L 200.447998 294.955268 
L 200.447998 293.00508 
L 203.694546 293.00508 
L 203.694546 290.804421 
L 206.94109 290.804421 
L 206.94109 288.227199 
L 210.187636 288.227199 
L 210.187636 285.123134 
L 213.43418 285.123134 
L 213.43418 280.839278 
L 216.680726 280.839278 
L 216.680726 275.410188 
L 219.927272 275.410188 
L 219.927272 268.447197 
L 223.173817 268.447197 
L 223.173817 258.300678 
L 226.420362 258.300678 
L 226.420362 241.36565 
L 229.666907 241.36565 
L 229.666907 207.806493 
L 232.913453 207.806493 
L 232.913453 83.683543 
L 236.159998 83.683543 
L 236.159998 152.952427 
L 239.406544 152.952427 
L 239.406544 208.607992 
L 242.653089 208.607992 
L 242.653089 241.279273 
L 245.899635 241.279273 
L 245.899635 258.414693 
L 249.14618 258.414693 
L 249.14618 268.514568 
L 252.392726 268.514568 
L 252.392726 275.876576 
L 255.639272 275.876576 
L 255.639272 280.85828 
L 258.885816 280.85828 
L 258.885816 285.273416 
L 262.132362 285.273416 
L 262.132362 288.417208 
L 265.378908 288.417208 
L 265.378908 290.750873 
L 268.625454 290.750873 
L 268.625454 293.115629 
L 271.871998 293.115629 
L 271.871998 294.606343 
L 275.118542 294.606343 
L 275.118542 296.366521 
L 278.36509 296.366521 
L 278.36509 297.437486 
L 281.611634 297.437486 
L 281.611634 298.955835 
L 284.858181 298.955835 
L 284.858181 299.643325 
L 288.104726 299.643325 
L 288.104726 300.493186 
L 291.35127 300.493186 
L 291.35127 301.291227 
L 294.597817 301.291227 
L 294.597817 301.802525 
L 297.844362 301.802525 
L 297.844362 302.249911 
L 301.090906 302.249911 
L 301.090906 302.76812 
L 304.33745 302.76812 
L 304.33745 303.1015 
L 307.584001 303.1015 
L 307.584001 303.531613 
L 310.830545 303.531613 
L 310.830545 303.788989 
L 314.077089 303.788989 
L 314.077089 303.992818 
L 317.323634 303.992818 
L 317.323634 304.403929 
L 320.570178 304.403929 
L 320.570178 304.64576 
L 323.816722 304.64576 
L 323.816722 304.77013 
L 327.063273 304.77013 
L 327.063273 304.975686 
L 330.309817 304.975686 
L 330.309817 305.11042 
L 333.556361 305.11042 
L 333.556361 305.357433 
L 340.04945 305.353978 
L 340.04945 305.580262 
L 346.542545 305.654539 
L 346.542545 305.925734 
L 359.528729 305.965463 
L 359.528729 306.122653 
L 366.021817 306.207294 
L 366.021817 306.24875 
L 369.268361 306.24875 
L 369.268361 306.440487 
L 382.254538 306.525128 
L 382.254538 306.587313 
L 391.994184 306.6875 
L 391.994184 306.704774 
L 395.240729 306.704774 
L 395.240729 306.820507 
L 398.487273 306.820507 
L 398.487273 307.584 
L 398.487273 307.584 
" style="fill:none;stroke:#d62728;stroke-linejoin:miter;"/>
   </g>
   <g id="patch_7">
    <path clip-path="url(#p65a1f06196)" d="M 73.83273 307.584 
L 73.83273 302.987493 
L 77.079274 302.987493 
L 77.079274 302.415738 
L 83.572363 302.305187 
L 83.572363 301.992535 
L 86.818907 301.992535 
L 86.818907 301.704065 
L 90.065451 301.704065 
L 90.065451 301.223858 
L 93.311995 301.223858 
L 93.311995 300.99412 
L 96.558539 300.99412 
L 96.558539 300.557097 
L 99.805098 300.557097 
L 99.805098 300.351542 
L 103.051642 300.351542 
L 103.051642 299.916248 
L 109.54473 299.940431 
L 109.54473 299.460225 
L 116.037818 299.379038 
L 116.037818 298.878103 
L 122.530907 298.814191 
L 122.530907 298.722642 
L 125.777451 298.722642 
L 125.777451 298.235526 
L 132.270546 298.323622 
L 132.270546 297.898691 
L 135.51709 297.898691 
L 135.51709 297.375301 
L 138.763635 297.375301 
L 138.763635 297.744955 
L 142.010179 297.744955 
L 142.010179 297.054014 
L 148.503274 296.96246 
L 148.503274 296.544442 
L 154.996362 296.4598 
L 154.996362 296.262881 
L 158.242907 296.262881 
L 158.242907 295.882862 
L 161.489451 295.882862 
L 161.489451 295.271375 
L 167.982546 295.231646 
L 167.982546 294.60634 
L 171.22909 294.60634 
L 171.22909 294.428425 
L 174.475634 294.428425 
L 174.475634 293.677021 
L 177.722182 293.677021 
L 177.722182 292.732156 
L 180.968726 292.732156 
L 180.968726 292.264041 
L 184.21527 292.264041 
L 184.21527 291.165442 
L 187.461818 291.165442 
L 187.461818 290.474498 
L 190.708362 290.474498 
L 190.708362 289.444988 
L 193.954906 289.444988 
L 193.954906 287.909365 
L 197.201454 287.909365 
L 197.201454 286.171645 
L 200.447998 286.171645 
L 200.447998 284.651567 
L 203.694546 284.651567 
L 203.694546 282.241899 
L 206.94109 282.241899 
L 206.94109 279.333026 
L 210.187636 279.333026 
L 210.187636 276.165041 
L 213.43418 276.165041 
L 213.43418 271.646272 
L 216.680726 271.646272 
L 216.680726 266.573011 
L 219.927272 266.573011 
L 219.927272 257.761753 
L 223.173817 257.761753 
L 223.173817 245.19002 
L 226.420362 245.19002 
L 226.420362 226.344511 
L 229.666907 226.344511 
L 229.666907 191.057998 
L 232.913453 191.057998 
L 232.913453 79.078406 
L 236.159998 79.078406 
L 236.159998 149.841466 
L 239.406544 149.841466 
L 239.406544 191.284289 
L 242.653089 191.284289 
L 242.653089 225.700215 
L 245.899635 225.700215 
L 245.899635 245.666772 
L 249.14618 245.666772 
L 249.14618 257.948306 
L 252.392726 257.948306 
L 252.392726 266.073806 
L 255.639272 266.073806 
L 255.639272 272.045292 
L 258.885816 272.045292 
L 258.885816 276.403419 
L 262.132362 276.403419 
L 262.132362 279.704403 
L 265.378908 279.704403 
L 265.378908 282.098523 
L 268.625454 282.098523 
L 268.625454 284.014172 
L 271.871998 284.014172 
L 271.871998 286.052452 
L 275.118542 286.052452 
L 275.118542 288.051011 
L 278.36509 288.051011 
L 278.36509 289.073606 
L 281.611634 289.073606 
L 281.611634 290.286213 
L 284.858181 290.286213 
L 284.858181 291.42109 
L 288.104726 291.42109 
L 288.104726 291.979028 
L 291.35127 291.979028 
L 291.35127 293.086264 
L 294.597817 293.086264 
L 294.597817 293.511195 
L 297.844362 293.511195 
L 297.844362 294.153773 
L 301.090906 294.153773 
L 301.090906 294.378331 
L 304.33745 294.378331 
L 304.33745 295.048545 
L 307.584001 295.048545 
L 307.584001 295.506298 
L 310.830545 295.506298 
L 310.830545 295.818949 
L 314.077089 295.818949 
L 314.077089 295.967502 
L 317.323634 295.967502 
L 317.323634 296.416617 
L 320.570178 296.416617 
L 320.570178 296.703358 
L 323.816722 296.703358 
L 323.816722 297.143835 
L 330.309817 297.107559 
L 330.309817 297.48067 
L 333.556361 297.48067 
L 333.556361 297.594677 
L 336.802906 297.594677 
L 336.802906 298.055881 
L 343.296001 298.123247 
L 343.296001 298.499812 
L 346.542545 298.499812 
L 346.542545 298.764098 
L 353.035633 298.715731 
L 353.035633 299.037021 
L 356.282185 299.037021 
L 356.282185 299.449861 
L 359.528729 299.449861 
L 359.528729 299.643325 
L 366.021817 299.741784 
L 366.021817 300.037163 
L 369.268361 300.037163 
L 369.268361 300.304903 
L 372.514905 300.304903 
L 372.514905 300.472457 
L 375.761449 300.472457 
L 375.761449 301.045941 
L 382.254538 301.146128 
L 382.254538 301.560695 
L 385.501082 301.560695 
L 385.501082 301.797343 
L 388.74764 301.797343 
L 388.74764 302.096176 
L 391.994184 302.096176 
L 391.994184 302.483104 
L 395.240729 302.483104 
L 395.240729 303.009949 
L 398.487273 303.009949 
L 398.487273 307.584 
L 398.487273 307.584 
" style="fill:none;stroke:#9467bd;stroke-linejoin:miter;"/>
   </g>
   <g id="patch_8">
    <path clip-path="url(#p65a1f06196)" d="M 73.832727 307.584 
L 398.48727 307.584 
L 398.48727 307.584 
" style="fill:none;stroke:#000000;stroke-linejoin:miter;"/>
   </g>
   <g id="matplotlib.axis_1">
    <g id="xtick_1">
     <g id="line2d_1">
      <defs>
       <path d="M 0 0 
L 0 3.5 
" id="mb9c321f271" style="stroke:#000000;stroke-width:0.8;"/>
      </defs>
      <g>
       <use style="stroke:#000000;stroke-width:0.8;" x="92.808106" xlink:href="#mb9c321f271" y="307.584"/>
      </g>
     </g>
     <g id="text_1">
      <!-- −0.3 -->
      <defs>
       <path d="M 10.59375 35.5 
L 73.1875 35.5 
L 73.1875 27.203125 
L 10.59375 27.203125 
z
" id="DejaVuSans-8722"/>
       <path d="M 31.78125 66.40625 
Q 24.171875 66.40625 20.328125 58.90625 
Q 16.5 51.421875 16.5 36.375 
Q 16.5 21.390625 20.328125 13.890625 
Q 24.171875 6.390625 31.78125 6.390625 
Q 39.453125 6.390625 43.28125 13.890625 
Q 47.125 21.390625 47.125 36.375 
Q 47.125 51.421875 43.28125 58.90625 
Q 39.453125 66.40625 31.78125 66.40625 
z
M 31.78125 74.21875 
Q 44.046875 74.21875 50.515625 64.515625 
Q 56.984375 54.828125 56.984375 36.375 
Q 56.984375 17.96875 50.515625 8.265625 
Q 44.046875 -1.421875 31.78125 -1.421875 
Q 19.53125 -1.421875 13.0625 8.265625 
Q 6.59375 17.96875 6.59375 36.375 
Q 6.59375 54.828125 13.0625 64.515625 
Q 19.53125 74.21875 31.78125 74.21875 
z
" id="DejaVuSans-48"/>
       <path d="M 10.6875 12.40625 
L 21 12.40625 
L 21 0 
L 10.6875 0 
z
" id="DejaVuSans-46"/>
       <path d="M 40.578125 39.3125 
Q 47.65625 37.796875 51.625 33 
Q 55.609375 28.21875 55.609375 21.1875 
Q 55.609375 10.40625 48.1875 4.484375 
Q 40.765625 -1.421875 27.09375 -1.421875 
Q 22.515625 -1.421875 17.65625 -0.515625 
Q 12.796875 0.390625 7.625 2.203125 
L 7.625 11.71875 
Q 11.71875 9.328125 16.59375 8.109375 
Q 21.484375 6.890625 26.8125 6.890625 
Q 36.078125 6.890625 40.9375 10.546875 
Q 45.796875 14.203125 45.796875 21.1875 
Q 45.796875 27.640625 41.28125 31.265625 
Q 36.765625 34.90625 28.71875 34.90625 
L 20.21875 34.90625 
L 20.21875 43.015625 
L 29.109375 43.015625 
Q 36.375 43.015625 40.234375 45.921875 
Q 44.09375 48.828125 44.09375 54.296875 
Q 44.09375 59.90625 40.109375 62.90625 
Q 36.140625 65.921875 28.71875 65.921875 
Q 24.65625 65.921875 20.015625 65.03125 
Q 15.375 64.15625 9.8125 62.3125 
L 9.8125 71.09375 
Q 15.4375 72.65625 20.34375 73.4375 
Q 25.25 74.21875 29.59375 74.21875 
Q 40.828125 74.21875 47.359375 69.109375 
Q 53.90625 64.015625 53.90625 55.328125 
Q 53.90625 49.265625 50.4375 45.09375 
Q 46.96875 40.921875 40.578125 39.3125 
z
" id="DejaVuSans-51"/>
      </defs>
      <g transform="translate(80.6667 322.182437)scale(0.1 -0.1)">
       <use xlink:href="#DejaVuSans-8722"/>
       <use x="83.789062" xlink:href="#DejaVuSans-48"/>
       <use x="147.412109" xlink:href="#DejaVuSans-46"/>
       <use x="179.199219" xlink:href="#DejaVuSans-51"/>
      </g>
     </g>
    </g>
    <g id="xtick_2">
     <g id="line2d_2">
      <g>
       <use style="stroke:#000000;stroke-width:0.8;" x="140.581372" xlink:href="#mb9c321f271" y="307.584"/>
      </g>
     </g>
     <g id="text_2">
      <!-- −0.2 -->
      <defs>
       <path d="M 19.1875 8.296875 
L 53.609375 8.296875 
L 53.609375 0 
L 7.328125 0 
L 7.328125 8.296875 
Q 12.9375 14.109375 22.625 23.890625 
Q 32.328125 33.6875 34.8125 36.53125 
Q 39.546875 41.84375 41.421875 45.53125 
Q 43.3125 49.21875 43.3125 52.78125 
Q 43.3125 58.59375 39.234375 62.25 
Q 35.15625 65.921875 28.609375 65.921875 
Q 23.96875 65.921875 18.8125 64.3125 
Q 13.671875 62.703125 7.8125 59.421875 
L 7.8125 69.390625 
Q 13.765625 71.78125 18.9375 73 
Q 24.125 74.21875 28.421875 74.21875 
Q 39.75 74.21875 46.484375 68.546875 
Q 53.21875 62.890625 53.21875 53.421875 
Q 53.21875 48.921875 51.53125 44.890625 
Q 49.859375 40.875 45.40625 35.40625 
Q 44.1875 33.984375 37.640625 27.21875 
Q 31.109375 20.453125 19.1875 8.296875 
z
" id="DejaVuSans-50"/>
      </defs>
      <g transform="translate(128.439965 322.182437)scale(0.1 -0.1)">
       <use xlink:href="#DejaVuSans-8722"/>
       <use x="83.789062" xlink:href="#DejaVuSans-48"/>
       <use x="147.412109" xlink:href="#DejaVuSans-46"/>
       <use x="179.199219" xlink:href="#DejaVuSans-50"/>
      </g>
     </g>
    </g>
    <g id="xtick_3">
     <g id="line2d_3">
      <g>
       <use style="stroke:#000000;stroke-width:0.8;" x="188.354637" xlink:href="#mb9c321f271" y="307.584"/>
      </g>
     </g>
     <g id="text_3">
      <!-- −0.1 -->
      <defs>
       <path d="M 12.40625 8.296875 
L 28.515625 8.296875 
L 28.515625 63.921875 
L 10.984375 60.40625 
L 10.984375 69.390625 
L 28.421875 72.90625 
L 38.28125 72.90625 
L 38.28125 8.296875 
L 54.390625 8.296875 
L 54.390625 0 
L 12.40625 0 
z
" id="DejaVuSans-49"/>
      </defs>
      <g transform="translate(176.213231 322.182437)scale(0.1 -0.1)">
       <use xlink:href="#DejaVuSans-8722"/>
       <use x="83.789062" xlink:href="#DejaVuSans-48"/>
       <use x="147.412109" xlink:href="#DejaVuSans-46"/>
       <use x="179.199219" xlink:href="#DejaVuSans-49"/>
      </g>
     </g>
    </g>
    <g id="xtick_4">
     <g id="line2d_4">
      <g>
       <use style="stroke:#000000;stroke-width:0.8;" x="236.127903" xlink:href="#mb9c321f271" y="307.584"/>
      </g>
     </g>
     <g id="text_4">
      <!-- 0.0 -->
      <g transform="translate(228.17634 322.182437)scale(0.1 -0.1)">
       <use xlink:href="#DejaVuSans-48"/>
       <use x="63.623047" xlink:href="#DejaVuSans-46"/>
       <use x="95.410156" xlink:href="#DejaVuSans-48"/>
      </g>
     </g>
    </g>
    <g id="xtick_5">
     <g id="line2d_5">
      <g>
       <use style="stroke:#000000;stroke-width:0.8;" x="283.901169" xlink:href="#mb9c321f271" y="307.584"/>
      </g>
     </g>
     <g id="text_5">
      <!-- 0.1 -->
      <g transform="translate(275.949606 322.182437)scale(0.1 -0.1)">
       <use xlink:href="#DejaVuSans-48"/>
       <use x="63.623047" xlink:href="#DejaVuSans-46"/>
       <use x="95.410156" xlink:href="#DejaVuSans-49"/>
      </g>
     </g>
    </g>
    <g id="xtick_6">
     <g id="line2d_6">
      <g>
       <use style="stroke:#000000;stroke-width:0.8;" x="331.674434" xlink:href="#mb9c321f271" y="307.584"/>
      </g>
     </g>
     <g id="text_6">
      <!-- 0.2 -->
      <g transform="translate(323.722872 322.182437)scale(0.1 -0.1)">
       <use xlink:href="#DejaVuSans-48"/>
       <use x="63.623047" xlink:href="#DejaVuSans-46"/>
       <use x="95.410156" xlink:href="#DejaVuSans-50"/>
      </g>
     </g>
    </g>
    <g id="xtick_7">
     <g id="line2d_7">
      <g>
       <use style="stroke:#000000;stroke-width:0.8;" x="379.4477" xlink:href="#mb9c321f271" y="307.584"/>
      </g>
     </g>
     <g id="text_7">
      <!-- 0.3 -->
      <g transform="translate(371.496138 322.182437)scale(0.1 -0.1)">
       <use xlink:href="#DejaVuSans-48"/>
       <use x="63.623047" xlink:href="#DejaVuSans-46"/>
       <use x="95.410156" xlink:href="#DejaVuSans-51"/>
      </g>
     </g>
    </g>
    <g id="text_8">
     <!-- j1_etarot -->
     <defs>
      <path d="M 9.421875 54.6875 
L 18.40625 54.6875 
L 18.40625 -0.984375 
Q 18.40625 -11.421875 14.421875 -16.109375 
Q 10.453125 -20.796875 1.609375 -20.796875 
L -1.8125 -20.796875 
L -1.8125 -13.1875 
L 0.59375 -13.1875 
Q 5.71875 -13.1875 7.5625 -10.8125 
Q 9.421875 -8.453125 9.421875 -0.984375 
z
M 9.421875 75.984375 
L 18.40625 75.984375 
L 18.40625 64.59375 
L 9.421875 64.59375 
z
" id="DejaVuSans-106"/>
      <path d="M 50.984375 -16.609375 
L 50.984375 -23.578125 
L -0.984375 -23.578125 
L -0.984375 -16.609375 
z
" id="DejaVuSans-95"/>
      <path d="M 56.203125 29.59375 
L 56.203125 25.203125 
L 14.890625 25.203125 
Q 15.484375 15.921875 20.484375 11.0625 
Q 25.484375 6.203125 34.421875 6.203125 
Q 39.59375 6.203125 44.453125 7.46875 
Q 49.3125 8.734375 54.109375 11.28125 
L 54.109375 2.78125 
Q 49.265625 0.734375 44.1875 -0.34375 
Q 39.109375 -1.421875 33.890625 -1.421875 
Q 20.796875 -1.421875 13.15625 6.1875 
Q 5.515625 13.8125 5.515625 26.8125 
Q 5.515625 40.234375 12.765625 48.109375 
Q 20.015625 56 32.328125 56 
Q 43.359375 56 49.78125 48.890625 
Q 56.203125 41.796875 56.203125 29.59375 
z
M 47.21875 32.234375 
Q 47.125 39.59375 43.09375 43.984375 
Q 39.0625 48.390625 32.421875 48.390625 
Q 24.90625 48.390625 20.390625 44.140625 
Q 15.875 39.890625 15.1875 32.171875 
z
" id="DejaVuSans-101"/>
      <path d="M 18.3125 70.21875 
L 18.3125 54.6875 
L 36.8125 54.6875 
L 36.8125 47.703125 
L 18.3125 47.703125 
L 18.3125 18.015625 
Q 18.3125 11.328125 20.140625 9.421875 
Q 21.96875 7.515625 27.59375 7.515625 
L 36.8125 7.515625 
L 36.8125 0 
L 27.59375 0 
Q 17.1875 0 13.234375 3.875 
Q 9.28125 7.765625 9.28125 18.015625 
L 9.28125 47.703125 
L 2.6875 47.703125 
L 2.6875 54.6875 
L 9.28125 54.6875 
L 9.28125 70.21875 
z
" id="DejaVuSans-116"/>
      <path d="M 34.28125 27.484375 
Q 23.390625 27.484375 19.1875 25 
Q 14.984375 22.515625 14.984375 16.5 
Q 14.984375 11.71875 18.140625 8.90625 
Q 21.296875 6.109375 26.703125 6.109375 
Q 34.1875 6.109375 38.703125 11.40625 
Q 43.21875 16.703125 43.21875 25.484375 
L 43.21875 27.484375 
z
M 52.203125 31.203125 
L 52.203125 0 
L 43.21875 0 
L 43.21875 8.296875 
Q 40.140625 3.328125 35.546875 0.953125 
Q 30.953125 -1.421875 24.3125 -1.421875 
Q 15.921875 -1.421875 10.953125 3.296875 
Q 6 8.015625 6 15.921875 
Q 6 25.140625 12.171875 29.828125 
Q 18.359375 34.515625 30.609375 34.515625 
L 43.21875 34.515625 
L 43.21875 35.40625 
Q 43.21875 41.609375 39.140625 45 
Q 35.0625 48.390625 27.6875 48.390625 
Q 23 48.390625 18.546875 47.265625 
Q 14.109375 46.140625 10.015625 43.890625 
L 10.015625 52.203125 
Q 14.9375 54.109375 19.578125 55.046875 
Q 24.21875 56 28.609375 56 
Q 40.484375 56 46.34375 49.84375 
Q 52.203125 43.703125 52.203125 31.203125 
z
" id="DejaVuSans-97"/>
      <path d="M 41.109375 46.296875 
Q 39.59375 47.171875 37.8125 47.578125 
Q 36.03125 48 33.890625 48 
Q 26.265625 48 22.1875 43.046875 
Q 18.109375 38.09375 18.109375 28.8125 
L 18.109375 0 
L 9.078125 0 
L 9.078125 54.6875 
L 18.109375 54.6875 
L 18.109375 46.1875 
Q 20.953125 51.171875 25.484375 53.578125 
Q 30.03125 56 36.53125 56 
Q 37.453125 56 38.578125 55.875 
Q 39.703125 55.765625 41.0625 55.515625 
z
" id="DejaVuSans-114"/>
      <path d="M 30.609375 48.390625 
Q 23.390625 48.390625 19.1875 42.75 
Q 14.984375 37.109375 14.984375 27.296875 
Q 14.984375 17.484375 19.15625 11.84375 
Q 23.34375 6.203125 30.609375 6.203125 
Q 37.796875 6.203125 41.984375 11.859375 
Q 46.1875 17.53125 46.1875 27.296875 
Q 46.1875 37.015625 41.984375 42.703125 
Q 37.796875 48.390625 30.609375 48.390625 
z
M 30.609375 56 
Q 42.328125 56 49.015625 48.375 
Q 55.71875 40.765625 55.71875 27.296875 
Q 55.71875 13.875 49.015625 6.21875 
Q 42.328125 -1.421875 30.609375 -1.421875 
Q 18.84375 -1.421875 12.171875 6.21875 
Q 5.515625 13.875 5.515625 27.296875 
Q 5.515625 40.765625 12.171875 48.375 
Q 18.84375 56 30.609375 56 
z
" id="DejaVuSans-111"/>
     </defs>
     <g transform="translate(213.915469 335.860562)scale(0.1 -0.1)">
      <use xlink:href="#DejaVuSans-106"/>
      <use x="27.783203" xlink:href="#DejaVuSans-49"/>
      <use x="91.40625" xlink:href="#DejaVuSans-95"/>
      <use x="141.40625" xlink:href="#DejaVuSans-101"/>
      <use x="202.929688" xlink:href="#DejaVuSans-116"/>
      <use x="242.138672" xlink:href="#DejaVuSans-97"/>
      <use x="303.417969" xlink:href="#DejaVuSans-114"/>
      <use x="344.5" xlink:href="#DejaVuSans-111"/>
      <use x="405.681641" xlink:href="#DejaVuSans-116"/>
     </g>
    </g>
   </g>
   <g id="matplotlib.axis_2">
    <g id="ytick_1">
     <g id="line2d_8">
      <defs>
       <path d="M 0 0 
L -3.5 0 
" id="m79cd8c1338" style="stroke:#000000;stroke-width:0.8;"/>
      </defs>
      <g>
       <use style="stroke:#000000;stroke-width:0.8;" x="57.6" xlink:href="#m79cd8c1338" y="307.584"/>
      </g>
     </g>
     <g id="text_9">
      <!-- 0.000 -->
      <g transform="translate(21.971875 311.383219)scale(0.1 -0.1)">
       <use xlink:href="#DejaVuSans-48"/>
       <use x="63.623047" xlink:href="#DejaVuSans-46"/>
       <use x="95.410156" xlink:href="#DejaVuSans-48"/>
       <use x="159.033203" xlink:href="#DejaVuSans-48"/>
       <use x="222.65625" xlink:href="#DejaVuSans-48"/>
      </g>
     </g>
    </g>
    <g id="ytick_2">
     <g id="line2d_9">
      <g>
       <use style="stroke:#000000;stroke-width:0.8;" x="57.6" xlink:href="#m79cd8c1338" y="263.364364"/>
      </g>
     </g>
     <g id="text_10">
      <!-- 0.005 -->
      <defs>
       <path d="M 10.796875 72.90625 
L 49.515625 72.90625 
L 49.515625 64.59375 
L 19.828125 64.59375 
L 19.828125 46.734375 
Q 21.96875 47.46875 24.109375 47.828125 
Q 26.265625 48.1875 28.421875 48.1875 
Q 40.625 48.1875 47.75 41.5 
Q 54.890625 34.8125 54.890625 23.390625 
Q 54.890625 11.625 47.5625 5.09375 
Q 40.234375 -1.421875 26.90625 -1.421875 
Q 22.3125 -1.421875 17.546875 -0.640625 
Q 12.796875 0.140625 7.71875 1.703125 
L 7.71875 11.625 
Q 12.109375 9.234375 16.796875 8.0625 
Q 21.484375 6.890625 26.703125 6.890625 
Q 35.15625 6.890625 40.078125 11.328125 
Q 45.015625 15.765625 45.015625 23.390625 
Q 45.015625 31 40.078125 35.4375 
Q 35.15625 39.890625 26.703125 39.890625 
Q 22.75 39.890625 18.8125 39.015625 
Q 14.890625 38.140625 10.796875 36.28125 
z
" id="DejaVuSans-53"/>
      </defs>
      <g transform="translate(21.971875 267.163582)scale(0.1 -0.1)">
       <use xlink:href="#DejaVuSans-48"/>
       <use x="63.623047" xlink:href="#DejaVuSans-46"/>
       <use x="95.410156" xlink:href="#DejaVuSans-48"/>
       <use x="159.033203" xlink:href="#DejaVuSans-48"/>
       <use x="222.65625" xlink:href="#DejaVuSans-53"/>
      </g>
     </g>
    </g>
    <g id="ytick_3">
     <g id="line2d_10">
      <g>
       <use style="stroke:#000000;stroke-width:0.8;" x="57.6" xlink:href="#m79cd8c1338" y="219.144727"/>
      </g>
     </g>
     <g id="text_11">
      <!-- 0.010 -->
      <g transform="translate(21.971875 222.943946)scale(0.1 -0.1)">
       <use xlink:href="#DejaVuSans-48"/>
       <use x="63.623047" xlink:href="#DejaVuSans-46"/>
       <use x="95.410156" xlink:href="#DejaVuSans-48"/>
       <use x="159.033203" xlink:href="#DejaVuSans-49"/>
       <use x="222.65625" xlink:href="#DejaVuSans-48"/>
      </g>
     </g>
    </g>
    <g id="ytick_4">
     <g id="line2d_11">
      <g>
       <use style="stroke:#000000;stroke-width:0.8;" x="57.6" xlink:href="#m79cd8c1338" y="174.925091"/>
      </g>
     </g>
     <g id="text_12">
      <!-- 0.015 -->
      <g transform="translate(21.971875 178.72431)scale(0.1 -0.1)">
       <use xlink:href="#DejaVuSans-48"/>
       <use x="63.623047" xlink:href="#DejaVuSans-46"/>
       <use x="95.410156" xlink:href="#DejaVuSans-48"/>
       <use x="159.033203" xlink:href="#DejaVuSans-49"/>
       <use x="222.65625" xlink:href="#DejaVuSans-53"/>
      </g>
     </g>
    </g>
    <g id="ytick_5">
     <g id="line2d_12">
      <g>
       <use style="stroke:#000000;stroke-width:0.8;" x="57.6" xlink:href="#m79cd8c1338" y="130.705455"/>
      </g>
     </g>
     <g id="text_13">
      <!-- 0.020 -->
      <g transform="translate(21.971875 134.504673)scale(0.1 -0.1)">
       <use xlink:href="#DejaVuSans-48"/>
       <use x="63.623047" xlink:href="#DejaVuSans-46"/>
       <use x="95.410156" xlink:href="#DejaVuSans-48"/>
       <use x="159.033203" xlink:href="#DejaVuSans-50"/>
       <use x="222.65625" xlink:href="#DejaVuSans-48"/>
      </g>
     </g>
    </g>
    <g id="ytick_6">
     <g id="line2d_13">
      <g>
       <use style="stroke:#000000;stroke-width:0.8;" x="57.6" xlink:href="#m79cd8c1338" y="86.485818"/>
      </g>
     </g>
     <g id="text_14">
      <!-- 0.025 -->
      <g transform="translate(21.971875 90.285037)scale(0.1 -0.1)">
       <use xlink:href="#DejaVuSans-48"/>
       <use x="63.623047" xlink:href="#DejaVuSans-46"/>
       <use x="95.410156" xlink:href="#DejaVuSans-48"/>
       <use x="159.033203" xlink:href="#DejaVuSans-50"/>
       <use x="222.65625" xlink:href="#DejaVuSans-53"/>
      </g>
     </g>
    </g>
    <g id="ytick_7">
     <g id="line2d_14">
      <g>
       <use style="stroke:#000000;stroke-width:0.8;" x="57.6" xlink:href="#m79cd8c1338" y="42.266182"/>
      </g>
     </g>
     <g id="text_15">
      <!-- 0.030 -->
      <g transform="translate(21.971875 46.065401)scale(0.1 -0.1)">
       <use xlink:href="#DejaVuSans-48"/>
       <use x="63.623047" xlink:href="#DejaVuSans-46"/>
       <use x="95.410156" xlink:href="#DejaVuSans-48"/>
       <use x="159.033203" xlink:href="#DejaVuSans-51"/>
       <use x="222.65625" xlink:href="#DejaVuSans-48"/>
      </g>
     </g>
    </g>
    <g id="text_16">
     <!-- Prob. Density (a.u.) -->
     <defs>
      <path d="M 19.671875 64.796875 
L 19.671875 37.40625 
L 32.078125 37.40625 
Q 38.96875 37.40625 42.71875 40.96875 
Q 46.484375 44.53125 46.484375 51.125 
Q 46.484375 57.671875 42.71875 61.234375 
Q 38.96875 64.796875 32.078125 64.796875 
z
M 9.8125 72.90625 
L 32.078125 72.90625 
Q 44.34375 72.90625 50.609375 67.359375 
Q 56.890625 61.8125 56.890625 51.125 
Q 56.890625 40.328125 50.609375 34.8125 
Q 44.34375 29.296875 32.078125 29.296875 
L 19.671875 29.296875 
L 19.671875 0 
L 9.8125 0 
z
" id="DejaVuSans-80"/>
      <path d="M 48.6875 27.296875 
Q 48.6875 37.203125 44.609375 42.84375 
Q 40.53125 48.484375 33.40625 48.484375 
Q 26.265625 48.484375 22.1875 42.84375 
Q 18.109375 37.203125 18.109375 27.296875 
Q 18.109375 17.390625 22.1875 11.75 
Q 26.265625 6.109375 33.40625 6.109375 
Q 40.53125 6.109375 44.609375 11.75 
Q 48.6875 17.390625 48.6875 27.296875 
z
M 18.109375 46.390625 
Q 20.953125 51.265625 25.265625 53.625 
Q 29.59375 56 35.59375 56 
Q 45.5625 56 51.78125 48.09375 
Q 58.015625 40.1875 58.015625 27.296875 
Q 58.015625 14.40625 51.78125 6.484375 
Q 45.5625 -1.421875 35.59375 -1.421875 
Q 29.59375 -1.421875 25.265625 0.953125 
Q 20.953125 3.328125 18.109375 8.203125 
L 18.109375 0 
L 9.078125 0 
L 9.078125 75.984375 
L 18.109375 75.984375 
z
" id="DejaVuSans-98"/>
      <path id="DejaVuSans-32"/>
      <path d="M 19.671875 64.796875 
L 19.671875 8.109375 
L 31.59375 8.109375 
Q 46.6875 8.109375 53.6875 14.9375 
Q 60.6875 21.78125 60.6875 36.53125 
Q 60.6875 51.171875 53.6875 57.984375 
Q 46.6875 64.796875 31.59375 64.796875 
z
M 9.8125 72.90625 
L 30.078125 72.90625 
Q 51.265625 72.90625 61.171875 64.09375 
Q 71.09375 55.28125 71.09375 36.53125 
Q 71.09375 17.671875 61.125 8.828125 
Q 51.171875 0 30.078125 0 
L 9.8125 0 
z
" id="DejaVuSans-68"/>
      <path d="M 54.890625 33.015625 
L 54.890625 0 
L 45.90625 0 
L 45.90625 32.71875 
Q 45.90625 40.484375 42.875 44.328125 
Q 39.84375 48.1875 33.796875 48.1875 
Q 26.515625 48.1875 22.3125 43.546875 
Q 18.109375 38.921875 18.109375 30.90625 
L 18.109375 0 
L 9.078125 0 
L 9.078125 54.6875 
L 18.109375 54.6875 
L 18.109375 46.1875 
Q 21.34375 51.125 25.703125 53.5625 
Q 30.078125 56 35.796875 56 
Q 45.21875 56 50.046875 50.171875 
Q 54.890625 44.34375 54.890625 33.015625 
z
" id="DejaVuSans-110"/>
      <path d="M 44.28125 53.078125 
L 44.28125 44.578125 
Q 40.484375 46.53125 36.375 47.5 
Q 32.28125 48.484375 27.875 48.484375 
Q 21.1875 48.484375 17.84375 46.4375 
Q 14.5 44.390625 14.5 40.28125 
Q 14.5 37.15625 16.890625 35.375 
Q 19.28125 33.59375 26.515625 31.984375 
L 29.59375 31.296875 
Q 39.15625 29.25 43.1875 25.515625 
Q 47.21875 21.78125 47.21875 15.09375 
Q 47.21875 7.46875 41.1875 3.015625 
Q 35.15625 -1.421875 24.609375 -1.421875 
Q 20.21875 -1.421875 15.453125 -0.5625 
Q 10.6875 0.296875 5.421875 2 
L 5.421875 11.28125 
Q 10.40625 8.6875 15.234375 7.390625 
Q 20.0625 6.109375 24.8125 6.109375 
Q 31.15625 6.109375 34.5625 8.28125 
Q 37.984375 10.453125 37.984375 14.40625 
Q 37.984375 18.0625 35.515625 20.015625 
Q 33.0625 21.96875 24.703125 23.78125 
L 21.578125 24.515625 
Q 13.234375 26.265625 9.515625 29.90625 
Q 5.8125 33.546875 5.8125 39.890625 
Q 5.8125 47.609375 11.28125 51.796875 
Q 16.75 56 26.8125 56 
Q 31.78125 56 36.171875 55.265625 
Q 40.578125 54.546875 44.28125 53.078125 
z
" id="DejaVuSans-115"/>
      <path d="M 9.421875 54.6875 
L 18.40625 54.6875 
L 18.40625 0 
L 9.421875 0 
z
M 9.421875 75.984375 
L 18.40625 75.984375 
L 18.40625 64.59375 
L 9.421875 64.59375 
z
" id="DejaVuSans-105"/>
      <path d="M 32.171875 -5.078125 
Q 28.375 -14.84375 24.75 -17.8125 
Q 21.140625 -20.796875 15.09375 -20.796875 
L 7.90625 -20.796875 
L 7.90625 -13.28125 
L 13.1875 -13.28125 
Q 16.890625 -13.28125 18.9375 -11.515625 
Q 21 -9.765625 23.484375 -3.21875 
L 25.09375 0.875 
L 2.984375 54.6875 
L 12.5 54.6875 
L 29.59375 11.921875 
L 46.6875 54.6875 
L 56.203125 54.6875 
z
" id="DejaVuSans-121"/>
      <path d="M 31 75.875 
Q 24.46875 64.65625 21.28125 53.65625 
Q 18.109375 42.671875 18.109375 31.390625 
Q 18.109375 20.125 21.3125 9.0625 
Q 24.515625 -2 31 -13.1875 
L 23.1875 -13.1875 
Q 15.875 -1.703125 12.234375 9.375 
Q 8.59375 20.453125 8.59375 31.390625 
Q 8.59375 42.28125 12.203125 53.3125 
Q 15.828125 64.359375 23.1875 75.875 
z
" id="DejaVuSans-40"/>
      <path d="M 8.5 21.578125 
L 8.5 54.6875 
L 17.484375 54.6875 
L 17.484375 21.921875 
Q 17.484375 14.15625 20.5 10.265625 
Q 23.53125 6.390625 29.59375 6.390625 
Q 36.859375 6.390625 41.078125 11.03125 
Q 45.3125 15.671875 45.3125 23.6875 
L 45.3125 54.6875 
L 54.296875 54.6875 
L 54.296875 0 
L 45.3125 0 
L 45.3125 8.40625 
Q 42.046875 3.421875 37.71875 1 
Q 33.40625 -1.421875 27.6875 -1.421875 
Q 18.265625 -1.421875 13.375 4.4375 
Q 8.5 10.296875 8.5 21.578125 
z
M 31.109375 56 
z
" id="DejaVuSans-117"/>
      <path d="M 8.015625 75.875 
L 15.828125 75.875 
Q 23.140625 64.359375 26.78125 53.3125 
Q 30.421875 42.28125 30.421875 31.390625 
Q 30.421875 20.453125 26.78125 9.375 
Q 23.140625 -1.703125 15.828125 -13.1875 
L 8.015625 -13.1875 
Q 14.5 -2 17.703125 9.0625 
Q 20.90625 20.125 20.90625 31.390625 
Q 20.90625 42.671875 17.703125 53.65625 
Q 14.5 64.65625 8.015625 75.875 
z
" id="DejaVuSans-41"/>
     </defs>
     <g transform="translate(15.892187 222.917844)rotate(-90)scale(0.1 -0.1)">
      <use xlink:href="#DejaVuSans-80"/>
      <use x="60.287109" xlink:href="#DejaVuSans-114"/>
      <use x="101.369141" xlink:href="#DejaVuSans-111"/>
      <use x="162.550781" xlink:href="#DejaVuSans-98"/>
      <use x="226.027344" xlink:href="#DejaVuSans-46"/>
      <use x="257.814453" xlink:href="#DejaVuSans-32"/>
      <use x="289.601562" xlink:href="#DejaVuSans-68"/>
      <use x="366.603516" xlink:href="#DejaVuSans-101"/>
      <use x="428.126953" xlink:href="#DejaVuSans-110"/>
      <use x="491.505859" xlink:href="#DejaVuSans-115"/>
      <use x="543.605469" xlink:href="#DejaVuSans-105"/>
      <use x="571.388672" xlink:href="#DejaVuSans-116"/>
      <use x="610.597656" xlink:href="#DejaVuSans-121"/>
      <use x="669.777344" xlink:href="#DejaVuSans-32"/>
      <use x="701.564453" xlink:href="#DejaVuSans-40"/>
      <use x="740.578125" xlink:href="#DejaVuSans-97"/>
      <use x="801.857422" xlink:href="#DejaVuSans-46"/>
      <use x="833.644531" xlink:href="#DejaVuSans-117"/>
      <use x="897.023438" xlink:href="#DejaVuSans-46"/>
      <use x="928.810547" xlink:href="#DejaVuSans-41"/>
     </g>
    </g>
   </g>
   <g id="patch_9">
    <path d="M 57.6 307.584 
L 57.6 41.472 
" style="fill:none;stroke:#000000;stroke-linecap:square;stroke-linejoin:miter;stroke-width:0.8;"/>
   </g>
   <g id="patch_10">
    <path d="M 414.72 307.584 
L 414.72 41.472 
" style="fill:none;stroke:#000000;stroke-linecap:square;stroke-linejoin:miter;stroke-width:0.8;"/>
   </g>
   <g id="patch_11">
    <path d="M 57.6 307.584 
L 414.72 307.584 
" style="fill:none;stroke:#000000;stroke-linecap:square;stroke-linejoin:miter;stroke-width:0.8;"/>
   </g>
   <g id="patch_12">
    <path d="M 57.6 41.472 
L 414.72 41.472 
" style="fill:none;stroke:#000000;stroke-linecap:square;stroke-linejoin:miter;stroke-width:0.8;"/>
   </g>
   <g id="legend_1">
    <g id="patch_13">
     <path d="M 325.405938 137.54075 
L 407.72 137.54075 
Q 409.72 137.54075 409.72 135.54075 
L 409.72 48.472 
Q 409.72 46.472 407.72 46.472 
L 325.405938 46.472 
Q 323.405938 46.472 323.405938 48.472 
L 323.405938 135.54075 
Q 323.405938 137.54075 325.405938 137.54075 
z
" style="fill:#ffffff;opacity:0.8;stroke:#cccccc;stroke-linejoin:miter;"/>
    </g>
    <g id="patch_14">
     <path d="M 327.405938 58.070438 
L 347.405938 58.070438 
L 347.405938 51.070438 
L 327.405938 51.070438 
z
" style="fill:none;stroke:#1f77b4;stroke-linejoin:miter;"/>
    </g>
    <g id="text_17">
     <!-- quark -->
     <defs>
      <path d="M 14.796875 27.296875 
Q 14.796875 17.390625 18.875 11.75 
Q 22.953125 6.109375 30.078125 6.109375 
Q 37.203125 6.109375 41.296875 11.75 
Q 45.40625 17.390625 45.40625 27.296875 
Q 45.40625 37.203125 41.296875 42.84375 
Q 37.203125 48.484375 30.078125 48.484375 
Q 22.953125 48.484375 18.875 42.84375 
Q 14.796875 37.203125 14.796875 27.296875 
z
M 45.40625 8.203125 
Q 42.578125 3.328125 38.25 0.953125 
Q 33.9375 -1.421875 27.875 -1.421875 
Q 17.96875 -1.421875 11.734375 6.484375 
Q 5.515625 14.40625 5.515625 27.296875 
Q 5.515625 40.1875 11.734375 48.09375 
Q 17.96875 56 27.875 56 
Q 33.9375 56 38.25 53.625 
Q 42.578125 51.265625 45.40625 46.390625 
L 45.40625 54.6875 
L 54.390625 54.6875 
L 54.390625 -20.796875 
L 45.40625 -20.796875 
z
" id="DejaVuSans-113"/>
      <path d="M 9.078125 75.984375 
L 18.109375 75.984375 
L 18.109375 31.109375 
L 44.921875 54.6875 
L 56.390625 54.6875 
L 27.390625 29.109375 
L 57.625 0 
L 45.90625 0 
L 18.109375 26.703125 
L 18.109375 0 
L 9.078125 0 
z
" id="DejaVuSans-107"/>
     </defs>
     <g transform="translate(355.405938 58.070438)scale(0.1 -0.1)">
      <use xlink:href="#DejaVuSans-113"/>
      <use x="63.476562" xlink:href="#DejaVuSans-117"/>
      <use x="126.855469" xlink:href="#DejaVuSans-97"/>
      <use x="188.134766" xlink:href="#DejaVuSans-114"/>
      <use x="229.248047" xlink:href="#DejaVuSans-107"/>
     </g>
    </g>
    <g id="patch_15">
     <path d="M 327.405938 72.748563 
L 347.405938 72.748563 
L 347.405938 65.748563 
L 327.405938 65.748563 
z
" style="fill:none;stroke:#ff7f0e;stroke-linejoin:miter;"/>
    </g>
    <g id="text_18">
     <!-- gluon -->
     <defs>
      <path d="M 45.40625 27.984375 
Q 45.40625 37.75 41.375 43.109375 
Q 37.359375 48.484375 30.078125 48.484375 
Q 22.859375 48.484375 18.828125 43.109375 
Q 14.796875 37.75 14.796875 27.984375 
Q 14.796875 18.265625 18.828125 12.890625 
Q 22.859375 7.515625 30.078125 7.515625 
Q 37.359375 7.515625 41.375 12.890625 
Q 45.40625 18.265625 45.40625 27.984375 
z
M 54.390625 6.78125 
Q 54.390625 -7.171875 48.1875 -13.984375 
Q 42 -20.796875 29.203125 -20.796875 
Q 24.46875 -20.796875 20.265625 -20.09375 
Q 16.0625 -19.390625 12.109375 -17.921875 
L 12.109375 -9.1875 
Q 16.0625 -11.328125 19.921875 -12.34375 
Q 23.78125 -13.375 27.78125 -13.375 
Q 36.625 -13.375 41.015625 -8.765625 
Q 45.40625 -4.15625 45.40625 5.171875 
L 45.40625 9.625 
Q 42.625 4.78125 38.28125 2.390625 
Q 33.9375 0 27.875 0 
Q 17.828125 0 11.671875 7.65625 
Q 5.515625 15.328125 5.515625 27.984375 
Q 5.515625 40.671875 11.671875 48.328125 
Q 17.828125 56 27.875 56 
Q 33.9375 56 38.28125 53.609375 
Q 42.625 51.21875 45.40625 46.390625 
L 45.40625 54.6875 
L 54.390625 54.6875 
z
" id="DejaVuSans-103"/>
      <path d="M 9.421875 75.984375 
L 18.40625 75.984375 
L 18.40625 0 
L 9.421875 0 
z
" id="DejaVuSans-108"/>
     </defs>
     <g transform="translate(355.405938 72.748563)scale(0.1 -0.1)">
      <use xlink:href="#DejaVuSans-103"/>
      <use x="63.476562" xlink:href="#DejaVuSans-108"/>
      <use x="91.259766" xlink:href="#DejaVuSans-117"/>
      <use x="154.638672" xlink:href="#DejaVuSans-111"/>
      <use x="215.820312" xlink:href="#DejaVuSans-110"/>
     </g>
    </g>
    <g id="patch_16">
     <path d="M 327.405938 87.426688 
L 347.405938 87.426688 
L 347.405938 80.426688 
L 327.405938 80.426688 
z
" style="fill:none;stroke:#2ca02c;stroke-linejoin:miter;"/>
    </g>
    <g id="text_19">
     <!-- W -->
     <defs>
      <path d="M 3.328125 72.90625 
L 13.28125 72.90625 
L 28.609375 11.28125 
L 43.890625 72.90625 
L 54.984375 72.90625 
L 70.3125 11.28125 
L 85.59375 72.90625 
L 95.609375 72.90625 
L 77.296875 0 
L 64.890625 0 
L 49.515625 63.28125 
L 33.984375 0 
L 21.578125 0 
z
" id="DejaVuSans-87"/>
     </defs>
     <g transform="translate(355.405938 87.426688)scale(0.1 -0.1)">
      <use xlink:href="#DejaVuSans-87"/>
     </g>
    </g>
    <g id="patch_17">
     <path d="M 327.405938 102.104813 
L 347.405938 102.104813 
L 347.405938 95.104813 
L 327.405938 95.104813 
z
" style="fill:none;stroke:#d62728;stroke-linejoin:miter;"/>
    </g>
    <g id="text_20">
     <!-- Z -->
     <defs>
      <path d="M 5.609375 72.90625 
L 62.890625 72.90625 
L 62.890625 65.375 
L 16.796875 8.296875 
L 64.015625 8.296875 
L 64.015625 0 
L 4.5 0 
L 4.5 7.515625 
L 50.59375 64.59375 
L 5.609375 64.59375 
z
" id="DejaVuSans-90"/>
     </defs>
     <g transform="translate(355.405938 102.104813)scale(0.1 -0.1)">
      <use xlink:href="#DejaVuSans-90"/>
     </g>
    </g>
    <g id="patch_18">
     <path d="M 327.405938 116.782938 
L 347.405938 116.782938 
L 347.405938 109.782938 
L 327.405938 109.782938 
z
" style="fill:none;stroke:#9467bd;stroke-linejoin:miter;"/>
    </g>
    <g id="text_21">
     <!-- top -->
     <defs>
      <path d="M 18.109375 8.203125 
L 18.109375 -20.796875 
L 9.078125 -20.796875 
L 9.078125 54.6875 
L 18.109375 54.6875 
L 18.109375 46.390625 
Q 20.953125 51.265625 25.265625 53.625 
Q 29.59375 56 35.59375 56 
Q 45.5625 56 51.78125 48.09375 
Q 58.015625 40.1875 58.015625 27.296875 
Q 58.015625 14.40625 51.78125 6.484375 
Q 45.5625 -1.421875 35.59375 -1.421875 
Q 29.59375 -1.421875 25.265625 0.953125 
Q 20.953125 3.328125 18.109375 8.203125 
z
M 48.6875 27.296875 
Q 48.6875 37.203125 44.609375 42.84375 
Q 40.53125 48.484375 33.40625 48.484375 
Q 26.265625 48.484375 22.1875 42.84375 
Q 18.109375 37.203125 18.109375 27.296875 
Q 18.109375 17.390625 22.1875 11.75 
Q 26.265625 6.109375 33.40625 6.109375 
Q 40.53125 6.109375 44.609375 11.75 
Q 48.6875 17.390625 48.6875 27.296875 
z
" id="DejaVuSans-112"/>
     </defs>
     <g transform="translate(355.405938 116.782938)scale(0.1 -0.1)">
      <use xlink:href="#DejaVuSans-116"/>
      <use x="39.208984" xlink:href="#DejaVuSans-111"/>
      <use x="100.390625" xlink:href="#DejaVuSans-112"/>
     </g>
    </g>
    <g id="patch_19">
     <path d="M 327.405938 131.461063 
L 347.405938 131.461063 
L 347.405938 124.461063 
L 327.405938 124.461063 
z
" style="fill:none;stroke:#000000;stroke-linejoin:miter;"/>
    </g>
    <g id="text_22">
     <!-- undefined -->
     <defs>
      <path d="M 45.40625 46.390625 
L 45.40625 75.984375 
L 54.390625 75.984375 
L 54.390625 0 
L 45.40625 0 
L 45.40625 8.203125 
Q 42.578125 3.328125 38.25 0.953125 
Q 33.9375 -1.421875 27.875 -1.421875 
Q 17.96875 -1.421875 11.734375 6.484375 
Q 5.515625 14.40625 5.515625 27.296875 
Q 5.515625 40.1875 11.734375 48.09375 
Q 17.96875 56 27.875 56 
Q 33.9375 56 38.25 53.625 
Q 42.578125 51.265625 45.40625 46.390625 
z
M 14.796875 27.296875 
Q 14.796875 17.390625 18.875 11.75 
Q 22.953125 6.109375 30.078125 6.109375 
Q 37.203125 6.109375 41.296875 11.75 
Q 45.40625 17.390625 45.40625 27.296875 
Q 45.40625 37.203125 41.296875 42.84375 
Q 37.203125 48.484375 30.078125 48.484375 
Q 22.953125 48.484375 18.875 42.84375 
Q 14.796875 37.203125 14.796875 27.296875 
z
" id="DejaVuSans-100"/>
      <path d="M 37.109375 75.984375 
L 37.109375 68.5 
L 28.515625 68.5 
Q 23.6875 68.5 21.796875 66.546875 
Q 19.921875 64.59375 19.921875 59.515625 
L 19.921875 54.6875 
L 34.71875 54.6875 
L 34.71875 47.703125 
L 19.921875 47.703125 
L 19.921875 0 
L 10.890625 0 
L 10.890625 47.703125 
L 2.296875 47.703125 
L 2.296875 54.6875 
L 10.890625 54.6875 
L 10.890625 58.5 
Q 10.890625 67.625 15.140625 71.796875 
Q 19.390625 75.984375 28.609375 75.984375 
z
" id="DejaVuSans-102"/>
     </defs>
     <g transform="translate(355.405938 131.461063)scale(0.1 -0.1)">
      <use xlink:href="#DejaVuSans-117"/>
      <use x="63.378906" xlink:href="#DejaVuSans-110"/>
      <use x="126.757812" xlink:href="#DejaVuSans-100"/>
      <use x="190.234375" xlink:href="#DejaVuSans-101"/>
      <use x="251.757812" xlink:href="#DejaVuSans-102"/>
      <use x="286.962891" xlink:href="#DejaVuSans-105"/>
      <use x="314.746094" xlink:href="#DejaVuSans-110"/>
      <use x="378.125" xlink:href="#DejaVuSans-101"/>
      <use x="439.648438" xlink:href="#DejaVuSans-100"/>
     </g>
    </g>
   </g>
  </g>
 </g>
 <defs>
  <clipPath id="p65a1f06196">
   <rect height="266.112" width="357.12" x="57.6" y="41.472"/>
  </clipPath>
 </defs>
</svg>
