<?xml version="1.0" encoding="utf-8" standalone="no"?>
<!DOCTYPE svg PUBLIC "-//W3C//DTD SVG 1.1//EN"
  "http://www.w3.org/Graphics/SVG/1.1/DTD/svg11.dtd">
<!-- Created with matplotlib (https://matplotlib.org/) -->
<svg height="345.6pt" version="1.1" viewBox="0 0 460.8 345.6" width="460.8pt" xmlns="http://www.w3.org/2000/svg" xmlns:xlink="http://www.w3.org/1999/xlink">
 <defs>
  <style type="text/css">
*{stroke-linecap:butt;stroke-linejoin:round;}
  </style>
 </defs>
 <g id="figure_1">
  <g id="patch_1">
   <path d="M 0 345.6 
L 460.8 345.6 
L 460.8 0 
L 0 0 
z
" style="fill:#ffffff;"/>
  </g>
  <g id="axes_1">
   <g id="patch_2">
    <path d="M 57.6 307.584 
L 414.72 307.584 
L 414.72 41.472 
L 57.6 41.472 
z
" style="fill:#ffffff;"/>
   </g>
   <g id="patch_3">
    <path clip-path="url(#pc56e438d7d)" d="M 73.83273 307.584 
L 73.83273 305.857768 
L 77.079274 305.857768 
L 77.079274 305.407975 
L 83.572363 305.344153 
L 83.572363 304.900438 
L 86.818907 304.900438 
L 86.818907 304.760638 
L 90.065451 304.760638 
L 90.065451 304.47192 
L 93.311995 304.47192 
L 93.311995 304.180162 
L 96.558539 304.180162 
L 96.558539 303.864092 
L 99.805096 303.864092 
L 99.805096 303.389985 
L 106.298184 303.365672 
L 106.298184 302.77 
L 109.544729 302.77 
L 109.544729 302.642356 
L 112.791273 302.642356 
L 112.791273 302.326286 
L 119.284361 302.31109 
L 119.284361 301.724536 
L 125.777449 301.773162 
L 125.777449 300.940438 
L 132.270544 300.913085 
L 132.270544 300.217123 
L 135.517088 300.217123 
L 135.517088 299.919287 
L 138.763639 299.919287 
L 138.763639 299.803799 
L 142.010183 299.803799 
L 142.010183 299.192932 
L 145.256727 299.192932 
L 145.256727 298.91637 
L 148.503271 298.91637 
L 148.503271 297.977274 
L 151.749815 297.977274 
L 151.749815 297.685517 
L 154.996366 297.685517 
L 154.996366 296.804168 
L 158.24291 296.804168 
L 158.24291 296.418196 
L 161.489454 296.418196 
L 161.489454 296.217613 
L 164.735998 296.217613 
L 164.735998 295.09617 
L 167.982542 295.09617 
L 167.982542 294.758825 
L 171.229093 294.758825 
L 171.229093 293.409446 
L 174.475637 293.409446 
L 174.475637 292.853283 
L 177.722181 292.853283 
L 177.722181 291.522141 
L 180.968725 291.522141 
L 180.968725 290.476675 
L 184.215273 290.476675 
L 184.215273 288.875046 
L 187.461817 288.875046 
L 187.461817 287.695862 
L 190.708361 287.695862 
L 190.708361 285.553266 
L 193.954908 285.553266 
L 193.954908 283.966835 
L 197.201453 283.966835 
L 197.201453 281.9063 
L 200.448 281.9063 
L 200.448 279.76978 
L 203.694544 279.76978 
L 203.694544 276.958575 
L 206.941088 276.958575 
L 206.941088 272.892203 
L 210.187636 272.892203 
L 210.187636 268.938282 
L 213.434181 268.938282 
L 213.434181 263.145684 
L 216.680725 263.145684 
L 216.680725 255.894291 
L 219.927271 255.894291 
L 219.927271 247.79194 
L 223.173817 247.79194 
L 223.173817 234.103654 
L 226.420363 234.103654 
L 226.420363 212.018209 
L 229.666908 212.018209 
L 229.666908 173.77063 
L 232.913453 173.77063 
L 232.913453 91.817136 
L 236.159999 91.817136 
L 236.159999 89.762691 
L 239.406544 89.762691 
L 239.406544 173.408951 
L 242.653089 173.408951 
L 242.653089 213.510427 
L 245.899635 213.510427 
L 245.899635 235.200776 
L 249.14618 235.200776 
L 249.14618 247.144605 
L 252.392725 247.144605 
L 252.392725 256.714858 
L 255.639271 256.714858 
L 255.639271 263.559003 
L 258.885817 263.559003 
L 258.885817 269.266507 
L 262.132363 269.266507 
L 262.132363 273.463563 
L 265.378908 273.463563 
L 265.378908 276.283887 
L 268.625453 276.283887 
L 268.625453 279.982523 
L 271.871997 279.982523 
L 271.871997 282.419914 
L 275.118544 282.419914 
L 275.118544 284.042813 
L 278.365088 284.042813 
L 278.365088 285.392193 
L 281.611636 285.392193 
L 281.611636 287.808309 
L 284.85818 287.808309 
L 284.85818 289.033083 
L 288.104724 289.033083 
L 288.104724 290.242661 
L 291.351271 290.242661 
L 291.351271 291.382339 
L 294.597815 291.382339 
L 294.597815 292.874557 
L 297.84436 292.874557 
L 297.84436 293.521895 
L 301.09091 293.521895 
L 301.09091 294.111487 
L 304.337454 294.111487 
L 304.337454 295.102247 
L 307.583998 295.102247 
L 307.583998 295.51861 
L 310.830542 295.51861 
L 310.830542 296.290552 
L 314.077087 296.290552 
L 314.077087 296.919654 
L 317.323637 296.919654 
L 317.323637 297.256998 
L 320.570181 297.256998 
L 320.570181 297.904336 
L 323.816725 297.904336 
L 323.816725 298.98627 
L 330.309814 298.977152 
L 330.309814 299.484689 
L 333.556364 299.484689 
L 333.556364 299.970953 
L 336.802908 299.970953 
L 336.802908 300.132027 
L 340.049453 300.132027 
L 340.049453 300.499763 
L 343.295997 300.499763 
L 343.295997 301.080238 
L 346.542541 301.080238 
L 346.542541 301.329448 
L 349.789085 301.329448 
L 349.789085 301.840023 
L 353.035629 301.840023 
L 353.035629 302.010215 
L 356.282173 302.010215 
L 356.282173 302.566378 
L 362.775274 302.624122 
L 362.775274 302.879409 
L 366.021818 302.879409 
L 366.021818 303.113423 
L 369.268363 303.113423 
L 369.268363 303.420377 
L 372.514907 303.420377 
L 372.514907 303.788113 
L 375.761451 303.788113 
L 375.761451 304.171045 
L 379.007995 304.171045 
L 379.007995 304.341237 
L 382.254539 304.341237 
L 382.254539 304.845734 
L 388.747628 304.848773 
L 388.747628 305.079748 
L 391.994184 305.079748 
L 391.994184 305.550815 
L 395.240729 305.550815 
L 395.240729 305.888159 
L 398.487273 305.888159 
L 398.487273 307.584 
L 398.487273 307.584 
" style="fill:none;stroke:#1f77b4;stroke-linejoin:miter;"/>
   </g>
   <g id="patch_4">
    <path clip-path="url(#pc56e438d7d)" d="M 73.83273 307.584 
L 73.83273 304.313884 
L 77.079274 304.313884 
L 77.079274 303.681743 
L 80.325818 303.681743 
L 80.325818 303.241068 
L 83.572363 303.241068 
L 83.572363 302.52687 
L 86.818907 302.52687 
L 86.818907 301.912964 
L 90.065451 301.912964 
L 90.065451 301.63944 
L 93.311995 301.63944 
L 93.311995 301.03769 
L 96.558539 301.03769 
L 96.558539 300.381235 
L 99.805096 300.381235 
L 99.805096 299.940558 
L 103.05164 299.940558 
L 103.05164 299.530274 
L 106.298184 299.530274 
L 106.298184 299.183813 
L 109.544729 299.183813 
L 109.544729 298.092763 
L 112.791273 298.092763 
L 112.791273 297.57307 
L 116.037817 297.57307 
L 116.037817 296.798088 
L 119.284361 296.798088 
L 119.284361 296.254084 
L 122.530905 296.254084 
L 122.530905 295.549 
L 125.777449 295.549 
L 125.777449 294.515691 
L 129.023994 294.515691 
L 129.023994 293.968647 
L 132.270544 293.968647 
L 132.270544 292.956615 
L 135.517088 292.956615 
L 135.517088 292.5828 
L 138.763639 292.5828 
L 138.763639 291.324596 
L 142.010183 291.324596 
L 142.010183 290.309521 
L 145.256727 290.309521 
L 145.256727 289.121217 
L 148.503271 289.121217 
L 148.503271 287.972422 
L 151.749815 287.972422 
L 151.749815 286.793236 
L 154.996366 286.793236 
L 154.996366 285.756887 
L 158.24291 285.756887 
L 158.24291 284.705348 
L 161.489454 284.705348 
L 161.489454 283.167542 
L 164.735998 283.167542 
L 164.735998 281.739142 
L 167.982542 281.739142 
L 167.982542 280.022028 
L 171.229093 280.022028 
L 171.229093 277.779143 
L 174.475637 277.779143 
L 174.475637 276.198793 
L 177.722181 276.198793 
L 177.722181 273.618561 
L 180.968725 273.618561 
L 180.968725 271.880168 
L 184.215273 271.880168 
L 184.215273 268.989944 
L 187.461817 268.989944 
L 187.461817 265.695517 
L 190.708361 265.695517 
L 190.708361 262.656378 
L 193.954908 262.656378 
L 193.954908 258.656863 
L 197.201453 258.656863 
L 197.201453 254.341288 
L 200.448 254.341288 
L 200.448 248.320749 
L 203.694544 248.320749 
L 203.694544 242.558529 
L 206.941088 242.558529 
L 206.941088 237.741497 
L 210.187636 237.741497 
L 210.187636 228.56328 
L 213.434181 228.56328 
L 213.434181 218.275803 
L 216.680725 218.275803 
L 216.680725 204.703003 
L 219.927271 204.703003 
L 219.927271 189.224658 
L 223.173817 189.224658 
L 223.173817 168.403487 
L 226.420363 168.403487 
L 226.420363 141.786682 
L 229.666908 141.786682 
L 229.666908 100.144369 
L 232.913453 100.144369 
L 232.913453 54.536024 
L 236.159999 54.536024 
L 236.159999 54.144 
L 239.406544 54.144 
L 239.406544 100.19606 
L 242.653089 100.19606 
L 242.653089 140.005779 
L 245.899635 140.005779 
L 245.899635 167.86252 
L 249.14618 167.86252 
L 249.14618 188.361545 
L 252.392725 188.361545 
L 252.392725 203.937142 
L 255.639271 203.937142 
L 255.639271 217.762188 
L 258.885817 217.762188 
L 258.885817 227.055882 
L 262.132363 227.055882 
L 262.132363 236.620051 
L 265.378908 236.620051 
L 265.378908 242.464341 
L 268.625453 242.464341 
L 268.625453 248.636823 
L 271.871997 248.636823 
L 271.871997 254.320019 
L 275.118544 254.320019 
L 275.118544 258.380307 
L 278.365088 258.380307 
L 278.365088 262.680695 
L 281.611636 262.680695 
L 281.611636 265.938648 
L 284.85818 265.938648 
L 284.85818 269.078082 
L 288.104724 269.078082 
L 288.104724 271.275384 
L 291.351271 271.275384 
L 291.351271 273.797868 
L 294.597815 273.797868 
L 294.597815 276.065069 
L 297.84436 276.065069 
L 297.84436 278.086097 
L 301.09091 278.086097 
L 301.09091 279.988598 
L 304.337454 279.988598 
L 304.337454 281.176905 
L 307.583998 281.176905 
L 307.583998 283.462337 
L 310.830542 283.462337 
L 310.830542 284.586819 
L 314.077087 284.586819 
L 314.077087 285.841983 
L 317.323637 285.841983 
L 317.323637 286.987741 
L 320.570181 286.987741 
L 320.570181 288.522508 
L 323.816725 288.522508 
L 323.816725 289.768556 
L 327.06327 289.768556 
L 327.06327 290.306482 
L 330.309814 290.306482 
L 330.309814 291.537335 
L 333.556364 291.537335 
L 333.556364 292.421725 
L 336.802908 292.421725 
L 336.802908 292.944456 
L 340.049453 292.944456 
L 340.049453 294.123644 
L 343.295997 294.123644 
L 343.295997 294.94421 
L 346.542541 294.94421 
L 346.542541 295.749583 
L 349.789085 295.749583 
L 349.789085 296.248006 
L 353.035629 296.248006 
L 353.035629 296.837597 
L 356.282173 296.837597 
L 356.282173 297.706791 
L 359.52873 297.706791 
L 359.52873 298.165701 
L 362.775274 298.165701 
L 362.775274 298.740099 
L 366.021818 298.740099 
L 366.021818 299.636645 
L 369.268363 299.636645 
L 369.268363 300.034773 
L 372.514907 300.034773 
L 372.514907 300.317413 
L 375.761451 300.317413 
L 375.761451 301.147098 
L 379.007995 301.147098 
L 379.007995 301.308173 
L 382.254539 301.308173 
L 382.254539 302.025412 
L 385.501084 302.025412 
L 385.501084 302.739609 
L 388.747628 302.739609 
L 388.747628 303.16205 
L 391.994184 303.16205 
L 391.994184 303.927913 
L 395.240729 303.927913 
L 395.240729 304.338197 
L 398.487273 304.338197 
L 398.487273 307.584 
L 398.487273 307.584 
" style="fill:none;stroke:#ff7f0e;stroke-linejoin:miter;"/>
   </g>
   <g id="patch_5">
    <path clip-path="url(#pc56e438d7d)" d="M 73.83273 307.584 
L 73.83273 306.638827 
L 80.325818 306.538535 
L 80.325818 306.362265 
L 86.818907 306.313639 
L 86.818907 306.06139 
L 90.065451 306.06139 
L 90.065451 305.936786 
L 96.558539 305.833455 
L 96.558539 305.824337 
L 99.805096 305.824337 
L 99.805096 305.669341 
L 103.05164 305.669341 
L 103.05164 305.38974 
L 106.298184 305.38974 
L 106.298184 305.277292 
L 109.544729 305.277292 
L 109.544729 305.040239 
L 112.791273 305.040239 
L 112.791273 304.891321 
L 116.037817 304.891321 
L 116.037817 304.760638 
L 119.284361 304.760638 
L 119.284361 304.632994 
L 122.530905 304.632994 
L 122.530905 304.429372 
L 125.777449 304.429372 
L 125.777449 304.237906 
L 129.023994 304.237906 
L 129.023994 304.006931 
L 132.270544 304.006931 
L 132.270544 303.724291 
L 138.763639 303.617921 
L 138.763639 302.830784 
L 142.010183 302.830784 
L 142.010183 302.709218 
L 145.256727 302.709218 
L 145.256727 302.055802 
L 148.503271 302.055802 
L 148.503271 301.53307 
L 151.749815 301.53307 
L 151.749815 301.171413 
L 154.996366 301.171413 
L 154.996366 300.411628 
L 158.24291 300.411628 
L 158.24291 299.59106 
L 161.489454 299.59106 
L 161.489454 298.840392 
L 164.735998 298.840392 
L 164.735998 297.688556 
L 167.982542 297.688556 
L 167.982542 296.573191 
L 171.229093 296.573191 
L 171.229093 295.339302 
L 174.475637 295.339302 
L 174.475637 293.804535 
L 177.722181 293.804535 
L 177.722181 291.938503 
L 180.968725 291.938503 
L 180.968725 290.376383 
L 184.215273 290.376383 
L 184.215273 287.780956 
L 187.461817 287.780956 
L 187.461817 284.775244 
L 190.708361 284.775244 
L 190.708361 282.343934 
L 193.954908 282.343934 
L 193.954908 278.380895 
L 197.201453 278.380895 
L 197.201453 273.290328 
L 200.448 273.290328 
L 200.448 267.242444 
L 203.694544 267.242444 
L 203.694544 260.37095 
L 206.941088 260.37095 
L 206.941088 253.198576 
L 210.187636 253.198576 
L 210.187636 245.546016 
L 213.434181 245.546016 
L 213.434181 235.759974 
L 216.680725 235.759974 
L 216.680725 224.983185 
L 219.927271 224.983185 
L 219.927271 215.312633 
L 223.173817 215.312633 
L 223.173817 205.988544 
L 226.420363 205.988544 
L 226.420363 198.721972 
L 229.666908 198.721972 
L 229.666908 193.4916 
L 232.913453 193.4916 
L 232.913453 185.723564 
L 236.159999 185.723564 
L 236.159999 185.86032 
L 239.406544 185.86032 
L 239.406544 193.67091 
L 242.653089 193.67091 
L 242.653089 199.530387 
L 245.899635 199.530387 
L 245.899635 207.258912 
L 249.14618 207.258912 
L 249.14618 216.95073 
L 252.392725 216.95073 
L 252.392725 226.803628 
L 255.639271 226.803628 
L 255.639271 236.179387 
L 258.885817 236.179387 
L 258.885817 245.7466 
L 262.132363 245.7466 
L 262.132363 253.666601 
L 265.378908 253.666601 
L 265.378908 261.091217 
L 268.625453 261.091217 
L 268.625453 267.367049 
L 271.871997 267.367049 
L 271.871997 271.840661 
L 275.118544 271.840661 
L 275.118544 276.982888 
L 278.365088 276.982888 
L 278.365088 280.146635 
L 281.611636 280.146635 
L 281.611636 284.47741 
L 284.85818 284.47741 
L 284.85818 287.762721 
L 288.104724 287.762721 
L 288.104724 289.71689 
L 291.351271 289.71689 
L 291.351271 291.768311 
L 294.597815 291.768311 
L 294.597815 293.509736 
L 297.84436 293.509736 
L 297.84436 295.27548 
L 301.09091 295.27548 
L 301.09091 296.2632 
L 304.337454 296.2632 
L 304.337454 297.721987 
L 307.583998 297.721987 
L 307.583998 298.545594 
L 310.830542 298.545594 
L 310.830542 299.217245 
L 314.077087 299.217245 
L 314.077087 300.338688 
L 317.323637 300.338688 
L 317.323637 301.007299 
L 320.570181 301.007299 
L 320.570181 301.542188 
L 323.816725 301.542188 
L 323.816725 302.052763 
L 327.06327 302.052763 
L 327.06327 302.481282 
L 330.309814 302.481282 
L 330.309814 302.80647 
L 333.556364 302.80647 
L 333.556364 303.174207 
L 336.802908 303.174207 
L 336.802908 303.484199 
L 340.049453 303.484199 
L 340.049453 303.815465 
L 343.295997 303.815465 
L 343.295997 304.110262 
L 346.542541 304.110262 
L 346.542541 304.316924 
L 349.789085 304.316924 
L 349.789085 304.639072 
L 356.282173 304.64819 
L 356.282173 304.845734 
L 359.52873 304.845734 
L 359.52873 305.058474 
L 362.775274 305.058474 
L 362.775274 305.286409 
L 366.021818 305.286409 
L 366.021818 305.49915 
L 375.761451 305.474836 
L 375.761451 305.714928 
L 379.007995 305.714928 
L 379.007995 305.997568 
L 382.254539 305.997568 
L 382.254539 306.137369 
L 385.501084 306.137369 
L 385.501084 306.258934 
L 391.994184 306.265013 
L 391.994184 306.520301 
L 398.487273 306.623632 
L 398.487273 307.584 
L 398.487273 307.584 
" style="fill:none;stroke:#2ca02c;stroke-linejoin:miter;"/>
   </g>
   <g id="patch_6">
    <path clip-path="url(#pc56e438d7d)" d="M 73.83273 307.584 
L 73.83273 306.620592 
L 77.079274 306.620592 
L 77.079274 306.325795 
L 83.572363 306.265013 
L 83.572363 306.116095 
L 86.818907 306.116095 
L 86.818907 305.821298 
L 93.311995 305.721007 
L 93.311995 305.559932 
L 96.558539 305.559932 
L 96.558539 305.286409 
L 99.805096 305.286409 
L 99.805096 305.155726 
L 103.05164 305.155726 
L 103.05164 305.0372 
L 106.298184 305.0372 
L 106.298184 304.724168 
L 109.544729 304.724168 
L 109.544729 304.593485 
L 112.791273 304.593485 
L 112.791273 304.414176 
L 116.037817 304.414176 
L 116.037817 304.240945 
L 119.284361 304.240945 
L 119.284361 304.052518 
L 122.530905 304.052518 
L 122.530905 303.678704 
L 125.777449 303.678704 
L 125.777449 303.459886 
L 129.023994 303.459886 
L 129.023994 303.046562 
L 132.270544 303.046562 
L 132.270544 302.788236 
L 135.517088 302.788236 
L 135.517088 302.216876 
L 138.763639 302.216876 
L 138.763639 301.979823 
L 142.010183 301.979823 
L 142.010183 301.67591 
L 145.256727 301.67591 
L 145.256727 300.879655 
L 148.503271 300.879655 
L 148.503271 300.317414 
L 151.749815 300.317414 
L 151.749815 299.530277 
L 154.996366 299.530277 
L 154.996366 298.727944 
L 158.24291 298.727944 
L 158.24291 297.661204 
L 161.489454 297.661204 
L 161.489454 296.573193 
L 164.735998 296.573193 
L 164.735998 295.509492 
L 167.982542 295.509492 
L 167.982542 294.202662 
L 171.229093 294.202662 
L 171.229093 292.768187 
L 174.475637 292.768187 
L 174.475637 291.136169 
L 177.722181 291.136169 
L 177.722181 289.264059 
L 180.968725 289.264059 
L 180.968725 286.179331 
L 184.215273 286.179331 
L 184.215273 283.614296 
L 187.461817 283.614296 
L 187.461817 280.566037 
L 190.708361 280.566037 
L 190.708361 276.718484 
L 193.954908 276.718484 
L 193.954908 272.816225 
L 197.201453 272.816225 
L 197.201453 267.680076 
L 200.448 267.680076 
L 200.448 261.817574 
L 203.694544 261.817574 
L 203.694544 255.253035 
L 206.941088 255.253035 
L 206.941088 249.256806 
L 210.187636 249.256806 
L 210.187636 240.270068 
L 213.434181 240.270068 
L 213.434181 232.532421 
L 216.680725 232.532421 
L 216.680725 224.685348 
L 219.927271 224.685348 
L 219.927271 217.309358 
L 223.173817 217.309358 
L 223.173817 211.656552 
L 226.420363 211.656552 
L 226.420363 204.706032 
L 229.666908 204.706032 
L 229.666908 200.910158 
L 232.913453 200.910158 
L 232.913453 193.129942 
L 236.159999 193.129942 
L 236.159999 194.704212 
L 239.406544 194.704212 
L 239.406544 201.794538 
L 242.653089 201.794538 
L 242.653089 207.246761 
L 245.899635 207.246761 
L 245.899635 211.87233 
L 249.14618 211.87233 
L 249.14618 218.75295 
L 252.392725 218.75295 
L 252.392725 224.694471 
L 255.639271 224.694471 
L 255.639271 233.644737 
L 258.885817 233.644737 
L 258.885817 242.251584 
L 262.132363 242.251584 
L 262.132363 249.657974 
L 265.378908 249.657974 
L 265.378908 255.997623 
L 268.625453 255.997623 
L 268.625453 261.082102 
L 271.871997 261.082102 
L 271.871997 267.63145 
L 275.118544 267.63145 
L 275.118544 272.484963 
L 278.365088 272.484963 
L 278.365088 276.186635 
L 281.611636 276.186635 
L 281.611636 280.152713 
L 284.85818 280.152713 
L 284.85818 283.331654 
L 288.104724 283.331654 
L 288.104724 285.562383 
L 291.351271 285.562383 
L 291.351271 289.023968 
L 294.597815 289.023968 
L 294.597815 290.99029 
L 297.84436 290.99029 
L 297.84436 292.926223 
L 301.09091 292.926223 
L 301.09091 294.14188 
L 304.337454 294.14188 
L 304.337454 295.345379 
L 307.583998 295.345379 
L 307.583998 297.14455 
L 310.830542 297.14455 
L 310.830542 297.627774 
L 314.077087 297.627774 
L 314.077087 298.730982 
L 317.323637 298.730982 
L 317.323637 299.065288 
L 320.570181 299.065288 
L 320.570181 300.201927 
L 323.816725 300.201927 
L 323.816725 300.393393 
L 327.06327 300.393393 
L 327.06327 301.484443 
L 330.309814 301.484443 
L 330.309814 301.870414 
L 333.556364 301.870414 
L 333.556364 302.222954 
L 336.802908 302.222954 
L 336.802908 302.611965 
L 340.049453 302.611965 
L 340.049453 303.028327 
L 343.295997 303.028327 
L 343.295997 303.210676 
L 346.542541 303.210676 
L 346.542541 303.499395 
L 349.789085 303.499395 
L 349.789085 303.927913 
L 353.035629 303.927913 
L 353.035629 304.18624 
L 356.282173 304.18624 
L 356.282173 304.46888 
L 359.52873 304.46888 
L 359.52873 304.590446 
L 362.775274 304.590446 
L 362.775274 304.827499 
L 366.021818 304.827499 
L 366.021818 305.131414 
L 369.268363 305.131414 
L 369.268363 305.246901 
L 372.514907 305.246901 
L 372.514907 305.386701 
L 375.761451 305.386701 
L 375.761451 305.657185 
L 379.007995 305.657185 
L 379.007995 305.790907 
L 382.254539 305.790907 
L 382.254539 305.930707 
L 385.501084 305.930707 
L 385.501084 306.070508 
L 388.747628 306.070508 
L 388.747628 306.240699 
L 391.994184 306.240699 
L 391.994184 306.438244 
L 395.240729 306.438244 
L 395.240729 306.623631 
L 398.487273 306.623631 
L 398.487273 307.584 
L 398.487273 307.584 
" style="fill:none;stroke:#d62728;stroke-linejoin:miter;"/>
   </g>
   <g id="patch_7">
    <path clip-path="url(#pc56e438d7d)" d="M 73.83273 307.584 
L 73.83273 304.350354 
L 77.079274 304.350354 
L 77.079274 303.58449 
L 80.325818 303.58449 
L 80.325818 303.213715 
L 83.572363 303.213715 
L 83.572363 302.466087 
L 86.818907 302.466087 
L 86.818907 301.821788 
L 90.065451 301.821788 
L 90.065451 301.068081 
L 93.311995 301.068081 
L 93.311995 300.00742 
L 96.558539 300.00742 
L 96.558539 299.837229 
L 99.805096 299.837229 
L 99.805096 298.977152 
L 103.05164 298.977152 
L 103.05164 297.940805 
L 106.298184 297.940805 
L 106.298184 296.798088 
L 109.544729 296.798088 
L 109.544729 296.378687 
L 112.791273 296.378687 
L 112.791273 295.050582 
L 116.037817 295.050582 
L 116.037817 294.205701 
L 119.284361 294.205701 
L 119.284361 293.193668 
L 122.530905 293.193668 
L 122.530905 292.136047 
L 125.777449 292.136047 
L 125.777449 290.604318 
L 129.023994 290.604318 
L 129.023994 289.741205 
L 132.270544 289.741205 
L 132.270544 288.589368 
L 135.517088 288.589368 
L 135.517088 286.847939 
L 138.763639 286.847939 
L 138.763639 285.24935 
L 142.010183 285.24935 
L 142.010183 283.495769 
L 145.256727 283.495769 
L 145.256727 282.274034 
L 148.503271 282.274034 
L 148.503271 280.262124 
L 151.749815 280.262124 
L 151.749815 278.666577 
L 154.996366 278.666577 
L 154.996366 276.706329 
L 158.24291 276.706329 
L 158.24291 273.743162 
L 161.489454 273.743162 
L 161.489454 272.342121 
L 164.735998 272.342121 
L 164.735998 270.059721 
L 167.982542 270.059721 
L 167.982542 266.99019 
L 171.229093 266.99019 
L 171.229093 264.081736 
L 174.475637 264.081736 
L 174.475637 261.267495 
L 177.722181 261.267495 
L 177.722181 258.112867 
L 180.968725 258.112867 
L 180.968725 255.484004 
L 184.215273 255.484004 
L 184.215273 252.256437 
L 187.461817 252.256437 
L 187.461817 249.071423 
L 190.708361 249.071423 
L 190.708361 244.874364 
L 193.954908 244.874364 
L 193.954908 241.780516 
L 197.201453 241.780516 
L 197.201453 238.987549 
L 200.448 238.987549 
L 200.448 235.483418 
L 203.694544 235.483418 
L 203.694544 230.316881 
L 206.941088 230.316881 
L 206.941088 227.362833 
L 210.187636 227.362833 
L 210.187636 223.612528 
L 213.434181 223.612528 
L 213.434181 219.771057 
L 216.680725 219.771057 
L 216.680725 217.005442 
L 219.927271 217.005442 
L 219.927271 215.181963 
L 223.173817 215.181963 
L 223.173817 213.151813 
L 226.420363 213.151813 
L 226.420363 211.173333 
L 229.666908 211.173333 
L 229.666908 210.753934 
L 232.913453 210.753934 
L 232.913453 209.483566 
L 236.159999 209.483566 
L 236.159999 207.620576 
L 239.406544 207.620576 
L 239.406544 208.717713 
L 242.653089 208.717713 
L 242.653089 209.398472 
L 245.899635 209.398472 
L 245.899635 211.905762 
L 249.14618 211.905762 
L 249.14618 213.914646 
L 252.392725 213.914646 
L 252.392725 217.242487 
L 255.639271 217.242487 
L 255.639271 219.597833 
L 258.885817 219.597833 
L 258.885817 224.311533 
L 262.132363 224.311533 
L 262.132363 226.934312 
L 265.378908 226.934312 
L 265.378908 230.408054 
L 268.625453 230.408054 
L 268.625453 233.705515 
L 271.871997 233.705515 
L 271.871997 237.17622 
L 275.118544 237.17622 
L 275.118544 242.291095 
L 278.365088 242.291095 
L 278.365088 245.579448 
L 281.611636 245.579448 
L 281.611636 248.582122 
L 284.85818 248.582122 
L 284.85818 252.25948 
L 288.104724 252.25948 
L 288.104724 255.186168 
L 291.351271 255.186168 
L 291.351271 259.109697 
L 294.597815 259.109697 
L 294.597815 262.249131 
L 297.84436 262.249131 
L 297.84436 264.960048 
L 301.09091 264.960048 
L 301.09091 267.567629 
L 304.337454 267.567629 
L 304.337454 270.324126 
L 307.583998 270.324126 
L 307.583998 272.396826 
L 310.830542 272.396826 
L 310.830542 274.624517 
L 314.077087 274.624517 
L 314.077087 276.572605 
L 317.323637 276.572605 
L 317.323637 278.365698 
L 320.570181 278.365698 
L 320.570181 280.687597 
L 323.816725 280.687597 
L 323.816725 282.161585 
L 327.06327 282.161585 
L 327.06327 284.422703 
L 330.309814 284.422703 
L 330.309814 285.370917 
L 333.556364 285.370917 
L 333.556364 287.358517 
L 336.802908 287.358517 
L 336.802908 288.562015 
L 340.049453 288.562015 
L 340.049453 289.780712 
L 343.295997 289.780712 
L 343.295997 291.275968 
L 346.542541 291.275968 
L 346.542541 292.348786 
L 349.789085 292.348786 
L 349.789085 293.667772 
L 353.035629 293.667772 
L 353.035629 294.451871 
L 356.282173 294.451871 
L 356.282173 295.44567 
L 359.52873 295.44567 
L 359.52873 296.320943 
L 362.775274 296.320943 
L 362.775274 297.415033 
L 366.021818 297.415033 
L 366.021818 298.13531 
L 369.268363 298.13531 
L 369.268363 298.797843 
L 372.514907 298.797843 
L 372.514907 299.815954 
L 375.761451 299.815954 
L 375.761451 300.572701 
L 379.007995 300.572701 
L 379.007995 301.198764 
L 382.254539 301.198764 
L 382.254539 301.861297 
L 385.501084 301.861297 
L 385.501084 302.590692 
L 388.747628 302.590692 
L 388.747628 303.225871 
L 391.994184 303.225871 
L 391.994184 303.696938 
L 395.240729 303.696938 
L 395.240729 304.569172 
L 398.487273 304.569172 
L 398.487273 307.584 
L 398.487273 307.584 
" style="fill:none;stroke:#9467bd;stroke-linejoin:miter;"/>
   </g>
   <g id="patch_8">
    <path clip-path="url(#pc56e438d7d)" d="M 73.832727 307.584 
L 398.48727 307.584 
L 398.48727 307.584 
" style="fill:none;stroke:#000000;stroke-linejoin:miter;"/>
   </g>
   <g id="matplotlib.axis_1">
    <g id="xtick_1">
     <g id="line2d_1">
      <defs>
       <path d="M 0 0 
L 0 3.5 
" id="m968ad40b78" style="stroke:#000000;stroke-width:0.8;"/>
      </defs>
      <g>
       <use style="stroke:#000000;stroke-width:0.8;" x="67.921914" xlink:href="#m968ad40b78" y="307.584"/>
      </g>
     </g>
     <g id="text_1">
      <!-- −0.4 -->
      <defs>
       <path d="M 10.59375 35.5 
L 73.1875 35.5 
L 73.1875 27.203125 
L 10.59375 27.203125 
z
" id="DejaVuSans-8722"/>
       <path d="M 31.78125 66.40625 
Q 24.171875 66.40625 20.328125 58.90625 
Q 16.5 51.421875 16.5 36.375 
Q 16.5 21.390625 20.328125 13.890625 
Q 24.171875 6.390625 31.78125 6.390625 
Q 39.453125 6.390625 43.28125 13.890625 
Q 47.125 21.390625 47.125 36.375 
Q 47.125 51.421875 43.28125 58.90625 
Q 39.453125 66.40625 31.78125 66.40625 
z
M 31.78125 74.21875 
Q 44.046875 74.21875 50.515625 64.515625 
Q 56.984375 54.828125 56.984375 36.375 
Q 56.984375 17.96875 50.515625 8.265625 
Q 44.046875 -1.421875 31.78125 -1.421875 
Q 19.53125 -1.421875 13.0625 8.265625 
Q 6.59375 17.96875 6.59375 36.375 
Q 6.59375 54.828125 13.0625 64.515625 
Q 19.53125 74.21875 31.78125 74.21875 
z
" id="DejaVuSans-48"/>
       <path d="M 10.6875 12.40625 
L 21 12.40625 
L 21 0 
L 10.6875 0 
z
" id="DejaVuSans-46"/>
       <path d="M 37.796875 64.3125 
L 12.890625 25.390625 
L 37.796875 25.390625 
z
M 35.203125 72.90625 
L 47.609375 72.90625 
L 47.609375 25.390625 
L 58.015625 25.390625 
L 58.015625 17.1875 
L 47.609375 17.1875 
L 47.609375 0 
L 37.796875 0 
L 37.796875 17.1875 
L 4.890625 17.1875 
L 4.890625 26.703125 
z
" id="DejaVuSans-52"/>
      </defs>
      <g transform="translate(55.780508 322.182437)scale(0.1 -0.1)">
       <use xlink:href="#DejaVuSans-8722"/>
       <use x="83.789062" xlink:href="#DejaVuSans-48"/>
       <use x="147.412109" xlink:href="#DejaVuSans-46"/>
       <use x="179.199219" xlink:href="#DejaVuSans-52"/>
      </g>
     </g>
    </g>
    <g id="xtick_2">
     <g id="line2d_2">
      <g>
       <use style="stroke:#000000;stroke-width:0.8;" x="109.981962" xlink:href="#m968ad40b78" y="307.584"/>
      </g>
     </g>
     <g id="text_2">
      <!-- −0.3 -->
      <defs>
       <path d="M 40.578125 39.3125 
Q 47.65625 37.796875 51.625 33 
Q 55.609375 28.21875 55.609375 21.1875 
Q 55.609375 10.40625 48.1875 4.484375 
Q 40.765625 -1.421875 27.09375 -1.421875 
Q 22.515625 -1.421875 17.65625 -0.515625 
Q 12.796875 0.390625 7.625 2.203125 
L 7.625 11.71875 
Q 11.71875 9.328125 16.59375 8.109375 
Q 21.484375 6.890625 26.8125 6.890625 
Q 36.078125 6.890625 40.9375 10.546875 
Q 45.796875 14.203125 45.796875 21.1875 
Q 45.796875 27.640625 41.28125 31.265625 
Q 36.765625 34.90625 28.71875 34.90625 
L 20.21875 34.90625 
L 20.21875 43.015625 
L 29.109375 43.015625 
Q 36.375 43.015625 40.234375 45.921875 
Q 44.09375 48.828125 44.09375 54.296875 
Q 44.09375 59.90625 40.109375 62.90625 
Q 36.140625 65.921875 28.71875 65.921875 
Q 24.65625 65.921875 20.015625 65.03125 
Q 15.375 64.15625 9.8125 62.3125 
L 9.8125 71.09375 
Q 15.4375 72.65625 20.34375 73.4375 
Q 25.25 74.21875 29.59375 74.21875 
Q 40.828125 74.21875 47.359375 69.109375 
Q 53.90625 64.015625 53.90625 55.328125 
Q 53.90625 49.265625 50.4375 45.09375 
Q 46.96875 40.921875 40.578125 39.3125 
z
" id="DejaVuSans-51"/>
      </defs>
      <g transform="translate(97.840556 322.182437)scale(0.1 -0.1)">
       <use xlink:href="#DejaVuSans-8722"/>
       <use x="83.789062" xlink:href="#DejaVuSans-48"/>
       <use x="147.412109" xlink:href="#DejaVuSans-46"/>
       <use x="179.199219" xlink:href="#DejaVuSans-51"/>
      </g>
     </g>
    </g>
    <g id="xtick_3">
     <g id="line2d_3">
      <g>
       <use style="stroke:#000000;stroke-width:0.8;" x="152.042011" xlink:href="#m968ad40b78" y="307.584"/>
      </g>
     </g>
     <g id="text_3">
      <!-- −0.2 -->
      <defs>
       <path d="M 19.1875 8.296875 
L 53.609375 8.296875 
L 53.609375 0 
L 7.328125 0 
L 7.328125 8.296875 
Q 12.9375 14.109375 22.625 23.890625 
Q 32.328125 33.6875 34.8125 36.53125 
Q 39.546875 41.84375 41.421875 45.53125 
Q 43.3125 49.21875 43.3125 52.78125 
Q 43.3125 58.59375 39.234375 62.25 
Q 35.15625 65.921875 28.609375 65.921875 
Q 23.96875 65.921875 18.8125 64.3125 
Q 13.671875 62.703125 7.8125 59.421875 
L 7.8125 69.390625 
Q 13.765625 71.78125 18.9375 73 
Q 24.125 74.21875 28.421875 74.21875 
Q 39.75 74.21875 46.484375 68.546875 
Q 53.21875 62.890625 53.21875 53.421875 
Q 53.21875 48.921875 51.53125 44.890625 
Q 49.859375 40.875 45.40625 35.40625 
Q 44.1875 33.984375 37.640625 27.21875 
Q 31.109375 20.453125 19.1875 8.296875 
z
" id="DejaVuSans-50"/>
      </defs>
      <g transform="translate(139.900604 322.182437)scale(0.1 -0.1)">
       <use xlink:href="#DejaVuSans-8722"/>
       <use x="83.789062" xlink:href="#DejaVuSans-48"/>
       <use x="147.412109" xlink:href="#DejaVuSans-46"/>
       <use x="179.199219" xlink:href="#DejaVuSans-50"/>
      </g>
     </g>
    </g>
    <g id="xtick_4">
     <g id="line2d_4">
      <g>
       <use style="stroke:#000000;stroke-width:0.8;" x="194.102059" xlink:href="#m968ad40b78" y="307.584"/>
      </g>
     </g>
     <g id="text_4">
      <!-- −0.1 -->
      <defs>
       <path d="M 12.40625 8.296875 
L 28.515625 8.296875 
L 28.515625 63.921875 
L 10.984375 60.40625 
L 10.984375 69.390625 
L 28.421875 72.90625 
L 38.28125 72.90625 
L 38.28125 8.296875 
L 54.390625 8.296875 
L 54.390625 0 
L 12.40625 0 
z
" id="DejaVuSans-49"/>
      </defs>
      <g transform="translate(181.960653 322.182437)scale(0.1 -0.1)">
       <use xlink:href="#DejaVuSans-8722"/>
       <use x="83.789062" xlink:href="#DejaVuSans-48"/>
       <use x="147.412109" xlink:href="#DejaVuSans-46"/>
       <use x="179.199219" xlink:href="#DejaVuSans-49"/>
      </g>
     </g>
    </g>
    <g id="xtick_5">
     <g id="line2d_5">
      <g>
       <use style="stroke:#000000;stroke-width:0.8;" x="236.162107" xlink:href="#m968ad40b78" y="307.584"/>
      </g>
     </g>
     <g id="text_5">
      <!-- 0.0 -->
      <g transform="translate(228.210545 322.182437)scale(0.1 -0.1)">
       <use xlink:href="#DejaVuSans-48"/>
       <use x="63.623047" xlink:href="#DejaVuSans-46"/>
       <use x="95.410156" xlink:href="#DejaVuSans-48"/>
      </g>
     </g>
    </g>
    <g id="xtick_6">
     <g id="line2d_6">
      <g>
       <use style="stroke:#000000;stroke-width:0.8;" x="278.222156" xlink:href="#m968ad40b78" y="307.584"/>
      </g>
     </g>
     <g id="text_6">
      <!-- 0.1 -->
      <g transform="translate(270.270593 322.182437)scale(0.1 -0.1)">
       <use xlink:href="#DejaVuSans-48"/>
       <use x="63.623047" xlink:href="#DejaVuSans-46"/>
       <use x="95.410156" xlink:href="#DejaVuSans-49"/>
      </g>
     </g>
    </g>
    <g id="xtick_7">
     <g id="line2d_7">
      <g>
       <use style="stroke:#000000;stroke-width:0.8;" x="320.282204" xlink:href="#m968ad40b78" y="307.584"/>
      </g>
     </g>
     <g id="text_7">
      <!-- 0.2 -->
      <g transform="translate(312.330641 322.182437)scale(0.1 -0.1)">
       <use xlink:href="#DejaVuSans-48"/>
       <use x="63.623047" xlink:href="#DejaVuSans-46"/>
       <use x="95.410156" xlink:href="#DejaVuSans-50"/>
      </g>
     </g>
    </g>
    <g id="xtick_8">
     <g id="line2d_8">
      <g>
       <use style="stroke:#000000;stroke-width:0.8;" x="362.342252" xlink:href="#m968ad40b78" y="307.584"/>
      </g>
     </g>
     <g id="text_8">
      <!-- 0.3 -->
      <g transform="translate(354.39069 322.182437)scale(0.1 -0.1)">
       <use xlink:href="#DejaVuSans-48"/>
       <use x="63.623047" xlink:href="#DejaVuSans-46"/>
       <use x="95.410156" xlink:href="#DejaVuSans-51"/>
      </g>
     </g>
    </g>
    <g id="xtick_9">
     <g id="line2d_9">
      <g>
       <use style="stroke:#000000;stroke-width:0.8;" x="404.4023" xlink:href="#m968ad40b78" y="307.584"/>
      </g>
     </g>
     <g id="text_9">
      <!-- 0.4 -->
      <g transform="translate(396.450738 322.182437)scale(0.1 -0.1)">
       <use xlink:href="#DejaVuSans-48"/>
       <use x="63.623047" xlink:href="#DejaVuSans-46"/>
       <use x="95.410156" xlink:href="#DejaVuSans-52"/>
      </g>
     </g>
    </g>
    <g id="text_10">
     <!-- j1_etarel -->
     <defs>
      <path d="M 9.421875 54.6875 
L 18.40625 54.6875 
L 18.40625 -0.984375 
Q 18.40625 -11.421875 14.421875 -16.109375 
Q 10.453125 -20.796875 1.609375 -20.796875 
L -1.8125 -20.796875 
L -1.8125 -13.1875 
L 0.59375 -13.1875 
Q 5.71875 -13.1875 7.5625 -10.8125 
Q 9.421875 -8.453125 9.421875 -0.984375 
z
M 9.421875 75.984375 
L 18.40625 75.984375 
L 18.40625 64.59375 
L 9.421875 64.59375 
z
" id="DejaVuSans-106"/>
      <path d="M 50.984375 -16.609375 
L 50.984375 -23.578125 
L -0.984375 -23.578125 
L -0.984375 -16.609375 
z
" id="DejaVuSans-95"/>
      <path d="M 56.203125 29.59375 
L 56.203125 25.203125 
L 14.890625 25.203125 
Q 15.484375 15.921875 20.484375 11.0625 
Q 25.484375 6.203125 34.421875 6.203125 
Q 39.59375 6.203125 44.453125 7.46875 
Q 49.3125 8.734375 54.109375 11.28125 
L 54.109375 2.78125 
Q 49.265625 0.734375 44.1875 -0.34375 
Q 39.109375 -1.421875 33.890625 -1.421875 
Q 20.796875 -1.421875 13.15625 6.1875 
Q 5.515625 13.8125 5.515625 26.8125 
Q 5.515625 40.234375 12.765625 48.109375 
Q 20.015625 56 32.328125 56 
Q 43.359375 56 49.78125 48.890625 
Q 56.203125 41.796875 56.203125 29.59375 
z
M 47.21875 32.234375 
Q 47.125 39.59375 43.09375 43.984375 
Q 39.0625 48.390625 32.421875 48.390625 
Q 24.90625 48.390625 20.390625 44.140625 
Q 15.875 39.890625 15.1875 32.171875 
z
" id="DejaVuSans-101"/>
      <path d="M 18.3125 70.21875 
L 18.3125 54.6875 
L 36.8125 54.6875 
L 36.8125 47.703125 
L 18.3125 47.703125 
L 18.3125 18.015625 
Q 18.3125 11.328125 20.140625 9.421875 
Q 21.96875 7.515625 27.59375 7.515625 
L 36.8125 7.515625 
L 36.8125 0 
L 27.59375 0 
Q 17.1875 0 13.234375 3.875 
Q 9.28125 7.765625 9.28125 18.015625 
L 9.28125 47.703125 
L 2.6875 47.703125 
L 2.6875 54.6875 
L 9.28125 54.6875 
L 9.28125 70.21875 
z
" id="DejaVuSans-116"/>
      <path d="M 34.28125 27.484375 
Q 23.390625 27.484375 19.1875 25 
Q 14.984375 22.515625 14.984375 16.5 
Q 14.984375 11.71875 18.140625 8.90625 
Q 21.296875 6.109375 26.703125 6.109375 
Q 34.1875 6.109375 38.703125 11.40625 
Q 43.21875 16.703125 43.21875 25.484375 
L 43.21875 27.484375 
z
M 52.203125 31.203125 
L 52.203125 0 
L 43.21875 0 
L 43.21875 8.296875 
Q 40.140625 3.328125 35.546875 0.953125 
Q 30.953125 -1.421875 24.3125 -1.421875 
Q 15.921875 -1.421875 10.953125 3.296875 
Q 6 8.015625 6 15.921875 
Q 6 25.140625 12.171875 29.828125 
Q 18.359375 34.515625 30.609375 34.515625 
L 43.21875 34.515625 
L 43.21875 35.40625 
Q 43.21875 41.609375 39.140625 45 
Q 35.0625 48.390625 27.6875 48.390625 
Q 23 48.390625 18.546875 47.265625 
Q 14.109375 46.140625 10.015625 43.890625 
L 10.015625 52.203125 
Q 14.9375 54.109375 19.578125 55.046875 
Q 24.21875 56 28.609375 56 
Q 40.484375 56 46.34375 49.84375 
Q 52.203125 43.703125 52.203125 31.203125 
z
" id="DejaVuSans-97"/>
      <path d="M 41.109375 46.296875 
Q 39.59375 47.171875 37.8125 47.578125 
Q 36.03125 48 33.890625 48 
Q 26.265625 48 22.1875 43.046875 
Q 18.109375 38.09375 18.109375 28.8125 
L 18.109375 0 
L 9.078125 0 
L 9.078125 54.6875 
L 18.109375 54.6875 
L 18.109375 46.1875 
Q 20.953125 51.171875 25.484375 53.578125 
Q 30.03125 56 36.53125 56 
Q 37.453125 56 38.578125 55.875 
Q 39.703125 55.765625 41.0625 55.515625 
z
" id="DejaVuSans-114"/>
      <path d="M 9.421875 75.984375 
L 18.40625 75.984375 
L 18.40625 0 
L 9.421875 0 
z
" id="DejaVuSans-108"/>
     </defs>
     <g transform="translate(214.469375 335.860562)scale(0.1 -0.1)">
      <use xlink:href="#DejaVuSans-106"/>
      <use x="27.783203" xlink:href="#DejaVuSans-49"/>
      <use x="91.40625" xlink:href="#DejaVuSans-95"/>
      <use x="141.40625" xlink:href="#DejaVuSans-101"/>
      <use x="202.929688" xlink:href="#DejaVuSans-116"/>
      <use x="242.138672" xlink:href="#DejaVuSans-97"/>
      <use x="303.417969" xlink:href="#DejaVuSans-114"/>
      <use x="344.5" xlink:href="#DejaVuSans-101"/>
      <use x="406.023438" xlink:href="#DejaVuSans-108"/>
     </g>
    </g>
   </g>
   <g id="matplotlib.axis_2">
    <g id="ytick_1">
     <g id="line2d_10">
      <defs>
       <path d="M 0 0 
L -3.5 0 
" id="mede5fc97e2" style="stroke:#000000;stroke-width:0.8;"/>
      </defs>
      <g>
       <use style="stroke:#000000;stroke-width:0.8;" x="57.6" xlink:href="#mede5fc97e2" y="307.584"/>
      </g>
     </g>
     <g id="text_11">
      <!-- 0.000 -->
      <g transform="translate(21.971875 311.383219)scale(0.1 -0.1)">
       <use xlink:href="#DejaVuSans-48"/>
       <use x="63.623047" xlink:href="#DejaVuSans-46"/>
       <use x="95.410156" xlink:href="#DejaVuSans-48"/>
       <use x="159.033203" xlink:href="#DejaVuSans-48"/>
       <use x="222.65625" xlink:href="#DejaVuSans-48"/>
      </g>
     </g>
    </g>
    <g id="ytick_2">
     <g id="line2d_11">
      <g>
       <use style="stroke:#000000;stroke-width:0.8;" x="57.6" xlink:href="#mede5fc97e2" y="276.46375"/>
      </g>
     </g>
     <g id="text_12">
      <!-- 0.002 -->
      <g transform="translate(21.971875 280.262969)scale(0.1 -0.1)">
       <use xlink:href="#DejaVuSans-48"/>
       <use x="63.623047" xlink:href="#DejaVuSans-46"/>
       <use x="95.410156" xlink:href="#DejaVuSans-48"/>
       <use x="159.033203" xlink:href="#DejaVuSans-48"/>
       <use x="222.65625" xlink:href="#DejaVuSans-50"/>
      </g>
     </g>
    </g>
    <g id="ytick_3">
     <g id="line2d_12">
      <g>
       <use style="stroke:#000000;stroke-width:0.8;" x="57.6" xlink:href="#mede5fc97e2" y="245.3435"/>
      </g>
     </g>
     <g id="text_13">
      <!-- 0.004 -->
      <g transform="translate(21.971875 249.142719)scale(0.1 -0.1)">
       <use xlink:href="#DejaVuSans-48"/>
       <use x="63.623047" xlink:href="#DejaVuSans-46"/>
       <use x="95.410156" xlink:href="#DejaVuSans-48"/>
       <use x="159.033203" xlink:href="#DejaVuSans-48"/>
       <use x="222.65625" xlink:href="#DejaVuSans-52"/>
      </g>
     </g>
    </g>
    <g id="ytick_4">
     <g id="line2d_13">
      <g>
       <use style="stroke:#000000;stroke-width:0.8;" x="57.6" xlink:href="#mede5fc97e2" y="214.22325"/>
      </g>
     </g>
     <g id="text_14">
      <!-- 0.006 -->
      <defs>
       <path d="M 33.015625 40.375 
Q 26.375 40.375 22.484375 35.828125 
Q 18.609375 31.296875 18.609375 23.390625 
Q 18.609375 15.53125 22.484375 10.953125 
Q 26.375 6.390625 33.015625 6.390625 
Q 39.65625 6.390625 43.53125 10.953125 
Q 47.40625 15.53125 47.40625 23.390625 
Q 47.40625 31.296875 43.53125 35.828125 
Q 39.65625 40.375 33.015625 40.375 
z
M 52.59375 71.296875 
L 52.59375 62.3125 
Q 48.875 64.0625 45.09375 64.984375 
Q 41.3125 65.921875 37.59375 65.921875 
Q 27.828125 65.921875 22.671875 59.328125 
Q 17.53125 52.734375 16.796875 39.40625 
Q 19.671875 43.65625 24.015625 45.921875 
Q 28.375 48.1875 33.59375 48.1875 
Q 44.578125 48.1875 50.953125 41.515625 
Q 57.328125 34.859375 57.328125 23.390625 
Q 57.328125 12.15625 50.6875 5.359375 
Q 44.046875 -1.421875 33.015625 -1.421875 
Q 20.359375 -1.421875 13.671875 8.265625 
Q 6.984375 17.96875 6.984375 36.375 
Q 6.984375 53.65625 15.1875 63.9375 
Q 23.390625 74.21875 37.203125 74.21875 
Q 40.921875 74.21875 44.703125 73.484375 
Q 48.484375 72.75 52.59375 71.296875 
z
" id="DejaVuSans-54"/>
      </defs>
      <g transform="translate(21.971875 218.022469)scale(0.1 -0.1)">
       <use xlink:href="#DejaVuSans-48"/>
       <use x="63.623047" xlink:href="#DejaVuSans-46"/>
       <use x="95.410156" xlink:href="#DejaVuSans-48"/>
       <use x="159.033203" xlink:href="#DejaVuSans-48"/>
       <use x="222.65625" xlink:href="#DejaVuSans-54"/>
      </g>
     </g>
    </g>
    <g id="ytick_5">
     <g id="line2d_14">
      <g>
       <use style="stroke:#000000;stroke-width:0.8;" x="57.6" xlink:href="#mede5fc97e2" y="183.103"/>
      </g>
     </g>
     <g id="text_15">
      <!-- 0.008 -->
      <defs>
       <path d="M 31.78125 34.625 
Q 24.75 34.625 20.71875 30.859375 
Q 16.703125 27.09375 16.703125 20.515625 
Q 16.703125 13.921875 20.71875 10.15625 
Q 24.75 6.390625 31.78125 6.390625 
Q 38.8125 6.390625 42.859375 10.171875 
Q 46.921875 13.96875 46.921875 20.515625 
Q 46.921875 27.09375 42.890625 30.859375 
Q 38.875 34.625 31.78125 34.625 
z
M 21.921875 38.8125 
Q 15.578125 40.375 12.03125 44.71875 
Q 8.5 49.078125 8.5 55.328125 
Q 8.5 64.0625 14.71875 69.140625 
Q 20.953125 74.21875 31.78125 74.21875 
Q 42.671875 74.21875 48.875 69.140625 
Q 55.078125 64.0625 55.078125 55.328125 
Q 55.078125 49.078125 51.53125 44.71875 
Q 48 40.375 41.703125 38.8125 
Q 48.828125 37.15625 52.796875 32.3125 
Q 56.78125 27.484375 56.78125 20.515625 
Q 56.78125 9.90625 50.3125 4.234375 
Q 43.84375 -1.421875 31.78125 -1.421875 
Q 19.734375 -1.421875 13.25 4.234375 
Q 6.78125 9.90625 6.78125 20.515625 
Q 6.78125 27.484375 10.78125 32.3125 
Q 14.796875 37.15625 21.921875 38.8125 
z
M 18.3125 54.390625 
Q 18.3125 48.734375 21.84375 45.5625 
Q 25.390625 42.390625 31.78125 42.390625 
Q 38.140625 42.390625 41.71875 45.5625 
Q 45.3125 48.734375 45.3125 54.390625 
Q 45.3125 60.0625 41.71875 63.234375 
Q 38.140625 66.40625 31.78125 66.40625 
Q 25.390625 66.40625 21.84375 63.234375 
Q 18.3125 60.0625 18.3125 54.390625 
z
" id="DejaVuSans-56"/>
      </defs>
      <g transform="translate(21.971875 186.902219)scale(0.1 -0.1)">
       <use xlink:href="#DejaVuSans-48"/>
       <use x="63.623047" xlink:href="#DejaVuSans-46"/>
       <use x="95.410156" xlink:href="#DejaVuSans-48"/>
       <use x="159.033203" xlink:href="#DejaVuSans-48"/>
       <use x="222.65625" xlink:href="#DejaVuSans-56"/>
      </g>
     </g>
    </g>
    <g id="ytick_6">
     <g id="line2d_15">
      <g>
       <use style="stroke:#000000;stroke-width:0.8;" x="57.6" xlink:href="#mede5fc97e2" y="151.98275"/>
      </g>
     </g>
     <g id="text_16">
      <!-- 0.010 -->
      <g transform="translate(21.971875 155.781969)scale(0.1 -0.1)">
       <use xlink:href="#DejaVuSans-48"/>
       <use x="63.623047" xlink:href="#DejaVuSans-46"/>
       <use x="95.410156" xlink:href="#DejaVuSans-48"/>
       <use x="159.033203" xlink:href="#DejaVuSans-49"/>
       <use x="222.65625" xlink:href="#DejaVuSans-48"/>
      </g>
     </g>
    </g>
    <g id="ytick_7">
     <g id="line2d_16">
      <g>
       <use style="stroke:#000000;stroke-width:0.8;" x="57.6" xlink:href="#mede5fc97e2" y="120.8625"/>
      </g>
     </g>
     <g id="text_17">
      <!-- 0.012 -->
      <g transform="translate(21.971875 124.661719)scale(0.1 -0.1)">
       <use xlink:href="#DejaVuSans-48"/>
       <use x="63.623047" xlink:href="#DejaVuSans-46"/>
       <use x="95.410156" xlink:href="#DejaVuSans-48"/>
       <use x="159.033203" xlink:href="#DejaVuSans-49"/>
       <use x="222.65625" xlink:href="#DejaVuSans-50"/>
      </g>
     </g>
    </g>
    <g id="ytick_8">
     <g id="line2d_17">
      <g>
       <use style="stroke:#000000;stroke-width:0.8;" x="57.6" xlink:href="#mede5fc97e2" y="89.74225"/>
      </g>
     </g>
     <g id="text_18">
      <!-- 0.014 -->
      <g transform="translate(21.971875 93.541469)scale(0.1 -0.1)">
       <use xlink:href="#DejaVuSans-48"/>
       <use x="63.623047" xlink:href="#DejaVuSans-46"/>
       <use x="95.410156" xlink:href="#DejaVuSans-48"/>
       <use x="159.033203" xlink:href="#DejaVuSans-49"/>
       <use x="222.65625" xlink:href="#DejaVuSans-52"/>
      </g>
     </g>
    </g>
    <g id="ytick_9">
     <g id="line2d_18">
      <g>
       <use style="stroke:#000000;stroke-width:0.8;" x="57.6" xlink:href="#mede5fc97e2" y="58.622"/>
      </g>
     </g>
     <g id="text_19">
      <!-- 0.016 -->
      <g transform="translate(21.971875 62.421219)scale(0.1 -0.1)">
       <use xlink:href="#DejaVuSans-48"/>
       <use x="63.623047" xlink:href="#DejaVuSans-46"/>
       <use x="95.410156" xlink:href="#DejaVuSans-48"/>
       <use x="159.033203" xlink:href="#DejaVuSans-49"/>
       <use x="222.65625" xlink:href="#DejaVuSans-54"/>
      </g>
     </g>
    </g>
    <g id="text_20">
     <!-- Prob. Density (a.u.) -->
     <defs>
      <path d="M 19.671875 64.796875 
L 19.671875 37.40625 
L 32.078125 37.40625 
Q 38.96875 37.40625 42.71875 40.96875 
Q 46.484375 44.53125 46.484375 51.125 
Q 46.484375 57.671875 42.71875 61.234375 
Q 38.96875 64.796875 32.078125 64.796875 
z
M 9.8125 72.90625 
L 32.078125 72.90625 
Q 44.34375 72.90625 50.609375 67.359375 
Q 56.890625 61.8125 56.890625 51.125 
Q 56.890625 40.328125 50.609375 34.8125 
Q 44.34375 29.296875 32.078125 29.296875 
L 19.671875 29.296875 
L 19.671875 0 
L 9.8125 0 
z
" id="DejaVuSans-80"/>
      <path d="M 30.609375 48.390625 
Q 23.390625 48.390625 19.1875 42.75 
Q 14.984375 37.109375 14.984375 27.296875 
Q 14.984375 17.484375 19.15625 11.84375 
Q 23.34375 6.203125 30.609375 6.203125 
Q 37.796875 6.203125 41.984375 11.859375 
Q 46.1875 17.53125 46.1875 27.296875 
Q 46.1875 37.015625 41.984375 42.703125 
Q 37.796875 48.390625 30.609375 48.390625 
z
M 30.609375 56 
Q 42.328125 56 49.015625 48.375 
Q 55.71875 40.765625 55.71875 27.296875 
Q 55.71875 13.875 49.015625 6.21875 
Q 42.328125 -1.421875 30.609375 -1.421875 
Q 18.84375 -1.421875 12.171875 6.21875 
Q 5.515625 13.875 5.515625 27.296875 
Q 5.515625 40.765625 12.171875 48.375 
Q 18.84375 56 30.609375 56 
z
" id="DejaVuSans-111"/>
      <path d="M 48.6875 27.296875 
Q 48.6875 37.203125 44.609375 42.84375 
Q 40.53125 48.484375 33.40625 48.484375 
Q 26.265625 48.484375 22.1875 42.84375 
Q 18.109375 37.203125 18.109375 27.296875 
Q 18.109375 17.390625 22.1875 11.75 
Q 26.265625 6.109375 33.40625 6.109375 
Q 40.53125 6.109375 44.609375 11.75 
Q 48.6875 17.390625 48.6875 27.296875 
z
M 18.109375 46.390625 
Q 20.953125 51.265625 25.265625 53.625 
Q 29.59375 56 35.59375 56 
Q 45.5625 56 51.78125 48.09375 
Q 58.015625 40.1875 58.015625 27.296875 
Q 58.015625 14.40625 51.78125 6.484375 
Q 45.5625 -1.421875 35.59375 -1.421875 
Q 29.59375 -1.421875 25.265625 0.953125 
Q 20.953125 3.328125 18.109375 8.203125 
L 18.109375 0 
L 9.078125 0 
L 9.078125 75.984375 
L 18.109375 75.984375 
z
" id="DejaVuSans-98"/>
      <path id="DejaVuSans-32"/>
      <path d="M 19.671875 64.796875 
L 19.671875 8.109375 
L 31.59375 8.109375 
Q 46.6875 8.109375 53.6875 14.9375 
Q 60.6875 21.78125 60.6875 36.53125 
Q 60.6875 51.171875 53.6875 57.984375 
Q 46.6875 64.796875 31.59375 64.796875 
z
M 9.8125 72.90625 
L 30.078125 72.90625 
Q 51.265625 72.90625 61.171875 64.09375 
Q 71.09375 55.28125 71.09375 36.53125 
Q 71.09375 17.671875 61.125 8.828125 
Q 51.171875 0 30.078125 0 
L 9.8125 0 
z
" id="DejaVuSans-68"/>
      <path d="M 54.890625 33.015625 
L 54.890625 0 
L 45.90625 0 
L 45.90625 32.71875 
Q 45.90625 40.484375 42.875 44.328125 
Q 39.84375 48.1875 33.796875 48.1875 
Q 26.515625 48.1875 22.3125 43.546875 
Q 18.109375 38.921875 18.109375 30.90625 
L 18.109375 0 
L 9.078125 0 
L 9.078125 54.6875 
L 18.109375 54.6875 
L 18.109375 46.1875 
Q 21.34375 51.125 25.703125 53.5625 
Q 30.078125 56 35.796875 56 
Q 45.21875 56 50.046875 50.171875 
Q 54.890625 44.34375 54.890625 33.015625 
z
" id="DejaVuSans-110"/>
      <path d="M 44.28125 53.078125 
L 44.28125 44.578125 
Q 40.484375 46.53125 36.375 47.5 
Q 32.28125 48.484375 27.875 48.484375 
Q 21.1875 48.484375 17.84375 46.4375 
Q 14.5 44.390625 14.5 40.28125 
Q 14.5 37.15625 16.890625 35.375 
Q 19.28125 33.59375 26.515625 31.984375 
L 29.59375 31.296875 
Q 39.15625 29.25 43.1875 25.515625 
Q 47.21875 21.78125 47.21875 15.09375 
Q 47.21875 7.46875 41.1875 3.015625 
Q 35.15625 -1.421875 24.609375 -1.421875 
Q 20.21875 -1.421875 15.453125 -0.5625 
Q 10.6875 0.296875 5.421875 2 
L 5.421875 11.28125 
Q 10.40625 8.6875 15.234375 7.390625 
Q 20.0625 6.109375 24.8125 6.109375 
Q 31.15625 6.109375 34.5625 8.28125 
Q 37.984375 10.453125 37.984375 14.40625 
Q 37.984375 18.0625 35.515625 20.015625 
Q 33.0625 21.96875 24.703125 23.78125 
L 21.578125 24.515625 
Q 13.234375 26.265625 9.515625 29.90625 
Q 5.8125 33.546875 5.8125 39.890625 
Q 5.8125 47.609375 11.28125 51.796875 
Q 16.75 56 26.8125 56 
Q 31.78125 56 36.171875 55.265625 
Q 40.578125 54.546875 44.28125 53.078125 
z
" id="DejaVuSans-115"/>
      <path d="M 9.421875 54.6875 
L 18.40625 54.6875 
L 18.40625 0 
L 9.421875 0 
z
M 9.421875 75.984375 
L 18.40625 75.984375 
L 18.40625 64.59375 
L 9.421875 64.59375 
z
" id="DejaVuSans-105"/>
      <path d="M 32.171875 -5.078125 
Q 28.375 -14.84375 24.75 -17.8125 
Q 21.140625 -20.796875 15.09375 -20.796875 
L 7.90625 -20.796875 
L 7.90625 -13.28125 
L 13.1875 -13.28125 
Q 16.890625 -13.28125 18.9375 -11.515625 
Q 21 -9.765625 23.484375 -3.21875 
L 25.09375 0.875 
L 2.984375 54.6875 
L 12.5 54.6875 
L 29.59375 11.921875 
L 46.6875 54.6875 
L 56.203125 54.6875 
z
" id="DejaVuSans-121"/>
      <path d="M 31 75.875 
Q 24.46875 64.65625 21.28125 53.65625 
Q 18.109375 42.671875 18.109375 31.390625 
Q 18.109375 20.125 21.3125 9.0625 
Q 24.515625 -2 31 -13.1875 
L 23.1875 -13.1875 
Q 15.875 -1.703125 12.234375 9.375 
Q 8.59375 20.453125 8.59375 31.390625 
Q 8.59375 42.28125 12.203125 53.3125 
Q 15.828125 64.359375 23.1875 75.875 
z
" id="DejaVuSans-40"/>
      <path d="M 8.5 21.578125 
L 8.5 54.6875 
L 17.484375 54.6875 
L 17.484375 21.921875 
Q 17.484375 14.15625 20.5 10.265625 
Q 23.53125 6.390625 29.59375 6.390625 
Q 36.859375 6.390625 41.078125 11.03125 
Q 45.3125 15.671875 45.3125 23.6875 
L 45.3125 54.6875 
L 54.296875 54.6875 
L 54.296875 0 
L 45.3125 0 
L 45.3125 8.40625 
Q 42.046875 3.421875 37.71875 1 
Q 33.40625 -1.421875 27.6875 -1.421875 
Q 18.265625 -1.421875 13.375 4.4375 
Q 8.5 10.296875 8.5 21.578125 
z
M 31.109375 56 
z
" id="DejaVuSans-117"/>
      <path d="M 8.015625 75.875 
L 15.828125 75.875 
Q 23.140625 64.359375 26.78125 53.3125 
Q 30.421875 42.28125 30.421875 31.390625 
Q 30.421875 20.453125 26.78125 9.375 
Q 23.140625 -1.703125 15.828125 -13.1875 
L 8.015625 -13.1875 
Q 14.5 -2 17.703125 9.0625 
Q 20.90625 20.125 20.90625 31.390625 
Q 20.90625 42.671875 17.703125 53.65625 
Q 14.5 64.65625 8.015625 75.875 
z
" id="DejaVuSans-41"/>
     </defs>
     <g transform="translate(15.892187 222.917844)rotate(-90)scale(0.1 -0.1)">
      <use xlink:href="#DejaVuSans-80"/>
      <use x="60.287109" xlink:href="#DejaVuSans-114"/>
      <use x="101.369141" xlink:href="#DejaVuSans-111"/>
      <use x="162.550781" xlink:href="#DejaVuSans-98"/>
      <use x="226.027344" xlink:href="#DejaVuSans-46"/>
      <use x="257.814453" xlink:href="#DejaVuSans-32"/>
      <use x="289.601562" xlink:href="#DejaVuSans-68"/>
      <use x="366.603516" xlink:href="#DejaVuSans-101"/>
      <use x="428.126953" xlink:href="#DejaVuSans-110"/>
      <use x="491.505859" xlink:href="#DejaVuSans-115"/>
      <use x="543.605469" xlink:href="#DejaVuSans-105"/>
      <use x="571.388672" xlink:href="#DejaVuSans-116"/>
      <use x="610.597656" xlink:href="#DejaVuSans-121"/>
      <use x="669.777344" xlink:href="#DejaVuSans-32"/>
      <use x="701.564453" xlink:href="#DejaVuSans-40"/>
      <use x="740.578125" xlink:href="#DejaVuSans-97"/>
      <use x="801.857422" xlink:href="#DejaVuSans-46"/>
      <use x="833.644531" xlink:href="#DejaVuSans-117"/>
      <use x="897.023438" xlink:href="#DejaVuSans-46"/>
      <use x="928.810547" xlink:href="#DejaVuSans-41"/>
     </g>
    </g>
   </g>
   <g id="patch_9">
    <path d="M 57.6 307.584 
L 57.6 41.472 
" style="fill:none;stroke:#000000;stroke-linecap:square;stroke-linejoin:miter;stroke-width:0.8;"/>
   </g>
   <g id="patch_10">
    <path d="M 414.72 307.584 
L 414.72 41.472 
" style="fill:none;stroke:#000000;stroke-linecap:square;stroke-linejoin:miter;stroke-width:0.8;"/>
   </g>
   <g id="patch_11">
    <path d="M 57.6 307.584 
L 414.72 307.584 
" style="fill:none;stroke:#000000;stroke-linecap:square;stroke-linejoin:miter;stroke-width:0.8;"/>
   </g>
   <g id="patch_12">
    <path d="M 57.6 41.472 
L 414.72 41.472 
" style="fill:none;stroke:#000000;stroke-linecap:square;stroke-linejoin:miter;stroke-width:0.8;"/>
   </g>
   <g id="legend_1">
    <g id="patch_13">
     <path d="M 325.405938 137.54075 
L 407.72 137.54075 
Q 409.72 137.54075 409.72 135.54075 
L 409.72 48.472 
Q 409.72 46.472 407.72 46.472 
L 325.405938 46.472 
Q 323.405938 46.472 323.405938 48.472 
L 323.405938 135.54075 
Q 323.405938 137.54075 325.405938 137.54075 
z
" style="fill:#ffffff;opacity:0.8;stroke:#cccccc;stroke-linejoin:miter;"/>
    </g>
    <g id="patch_14">
     <path d="M 327.405938 58.070438 
L 347.405938 58.070438 
L 347.405938 51.070438 
L 327.405938 51.070438 
z
" style="fill:none;stroke:#1f77b4;stroke-linejoin:miter;"/>
    </g>
    <g id="text_21">
     <!-- quark -->
     <defs>
      <path d="M 14.796875 27.296875 
Q 14.796875 17.390625 18.875 11.75 
Q 22.953125 6.109375 30.078125 6.109375 
Q 37.203125 6.109375 41.296875 11.75 
Q 45.40625 17.390625 45.40625 27.296875 
Q 45.40625 37.203125 41.296875 42.84375 
Q 37.203125 48.484375 30.078125 48.484375 
Q 22.953125 48.484375 18.875 42.84375 
Q 14.796875 37.203125 14.796875 27.296875 
z
M 45.40625 8.203125 
Q 42.578125 3.328125 38.25 0.953125 
Q 33.9375 -1.421875 27.875 -1.421875 
Q 17.96875 -1.421875 11.734375 6.484375 
Q 5.515625 14.40625 5.515625 27.296875 
Q 5.515625 40.1875 11.734375 48.09375 
Q 17.96875 56 27.875 56 
Q 33.9375 56 38.25 53.625 
Q 42.578125 51.265625 45.40625 46.390625 
L 45.40625 54.6875 
L 54.390625 54.6875 
L 54.390625 -20.796875 
L 45.40625 -20.796875 
z
" id="DejaVuSans-113"/>
      <path d="M 9.078125 75.984375 
L 18.109375 75.984375 
L 18.109375 31.109375 
L 44.921875 54.6875 
L 56.390625 54.6875 
L 27.390625 29.109375 
L 57.625 0 
L 45.90625 0 
L 18.109375 26.703125 
L 18.109375 0 
L 9.078125 0 
z
" id="DejaVuSans-107"/>
     </defs>
     <g transform="translate(355.405938 58.070438)scale(0.1 -0.1)">
      <use xlink:href="#DejaVuSans-113"/>
      <use x="63.476562" xlink:href="#DejaVuSans-117"/>
      <use x="126.855469" xlink:href="#DejaVuSans-97"/>
      <use x="188.134766" xlink:href="#DejaVuSans-114"/>
      <use x="229.248047" xlink:href="#DejaVuSans-107"/>
     </g>
    </g>
    <g id="patch_15">
     <path d="M 327.405938 72.748563 
L 347.405938 72.748563 
L 347.405938 65.748563 
L 327.405938 65.748563 
z
" style="fill:none;stroke:#ff7f0e;stroke-linejoin:miter;"/>
    </g>
    <g id="text_22">
     <!-- gluon -->
     <defs>
      <path d="M 45.40625 27.984375 
Q 45.40625 37.75 41.375 43.109375 
Q 37.359375 48.484375 30.078125 48.484375 
Q 22.859375 48.484375 18.828125 43.109375 
Q 14.796875 37.75 14.796875 27.984375 
Q 14.796875 18.265625 18.828125 12.890625 
Q 22.859375 7.515625 30.078125 7.515625 
Q 37.359375 7.515625 41.375 12.890625 
Q 45.40625 18.265625 45.40625 27.984375 
z
M 54.390625 6.78125 
Q 54.390625 -7.171875 48.1875 -13.984375 
Q 42 -20.796875 29.203125 -20.796875 
Q 24.46875 -20.796875 20.265625 -20.09375 
Q 16.0625 -19.390625 12.109375 -17.921875 
L 12.109375 -9.1875 
Q 16.0625 -11.328125 19.921875 -12.34375 
Q 23.78125 -13.375 27.78125 -13.375 
Q 36.625 -13.375 41.015625 -8.765625 
Q 45.40625 -4.15625 45.40625 5.171875 
L 45.40625 9.625 
Q 42.625 4.78125 38.28125 2.390625 
Q 33.9375 0 27.875 0 
Q 17.828125 0 11.671875 7.65625 
Q 5.515625 15.328125 5.515625 27.984375 
Q 5.515625 40.671875 11.671875 48.328125 
Q 17.828125 56 27.875 56 
Q 33.9375 56 38.28125 53.609375 
Q 42.625 51.21875 45.40625 46.390625 
L 45.40625 54.6875 
L 54.390625 54.6875 
z
" id="DejaVuSans-103"/>
     </defs>
     <g transform="translate(355.405938 72.748563)scale(0.1 -0.1)">
      <use xlink:href="#DejaVuSans-103"/>
      <use x="63.476562" xlink:href="#DejaVuSans-108"/>
      <use x="91.259766" xlink:href="#DejaVuSans-117"/>
      <use x="154.638672" xlink:href="#DejaVuSans-111"/>
      <use x="215.820312" xlink:href="#DejaVuSans-110"/>
     </g>
    </g>
    <g id="patch_16">
     <path d="M 327.405938 87.426688 
L 347.405938 87.426688 
L 347.405938 80.426688 
L 327.405938 80.426688 
z
" style="fill:none;stroke:#2ca02c;stroke-linejoin:miter;"/>
    </g>
    <g id="text_23">
     <!-- W -->
     <defs>
      <path d="M 3.328125 72.90625 
L 13.28125 72.90625 
L 28.609375 11.28125 
L 43.890625 72.90625 
L 54.984375 72.90625 
L 70.3125 11.28125 
L 85.59375 72.90625 
L 95.609375 72.90625 
L 77.296875 0 
L 64.890625 0 
L 49.515625 63.28125 
L 33.984375 0 
L 21.578125 0 
z
" id="DejaVuSans-87"/>
     </defs>
     <g transform="translate(355.405938 87.426688)scale(0.1 -0.1)">
      <use xlink:href="#DejaVuSans-87"/>
     </g>
    </g>
    <g id="patch_17">
     <path d="M 327.405938 102.104813 
L 347.405938 102.104813 
L 347.405938 95.104813 
L 327.405938 95.104813 
z
" style="fill:none;stroke:#d62728;stroke-linejoin:miter;"/>
    </g>
    <g id="text_24">
     <!-- Z -->
     <defs>
      <path d="M 5.609375 72.90625 
L 62.890625 72.90625 
L 62.890625 65.375 
L 16.796875 8.296875 
L 64.015625 8.296875 
L 64.015625 0 
L 4.5 0 
L 4.5 7.515625 
L 50.59375 64.59375 
L 5.609375 64.59375 
z
" id="DejaVuSans-90"/>
     </defs>
     <g transform="translate(355.405938 102.104813)scale(0.1 -0.1)">
      <use xlink:href="#DejaVuSans-90"/>
     </g>
    </g>
    <g id="patch_18">
     <path d="M 327.405938 116.782938 
L 347.405938 116.782938 
L 347.405938 109.782938 
L 327.405938 109.782938 
z
" style="fill:none;stroke:#9467bd;stroke-linejoin:miter;"/>
    </g>
    <g id="text_25">
     <!-- top -->
     <defs>
      <path d="M 18.109375 8.203125 
L 18.109375 -20.796875 
L 9.078125 -20.796875 
L 9.078125 54.6875 
L 18.109375 54.6875 
L 18.109375 46.390625 
Q 20.953125 51.265625 25.265625 53.625 
Q 29.59375 56 35.59375 56 
Q 45.5625 56 51.78125 48.09375 
Q 58.015625 40.1875 58.015625 27.296875 
Q 58.015625 14.40625 51.78125 6.484375 
Q 45.5625 -1.421875 35.59375 -1.421875 
Q 29.59375 -1.421875 25.265625 0.953125 
Q 20.953125 3.328125 18.109375 8.203125 
z
M 48.6875 27.296875 
Q 48.6875 37.203125 44.609375 42.84375 
Q 40.53125 48.484375 33.40625 48.484375 
Q 26.265625 48.484375 22.1875 42.84375 
Q 18.109375 37.203125 18.109375 27.296875 
Q 18.109375 17.390625 22.1875 11.75 
Q 26.265625 6.109375 33.40625 6.109375 
Q 40.53125 6.109375 44.609375 11.75 
Q 48.6875 17.390625 48.6875 27.296875 
z
" id="DejaVuSans-112"/>
     </defs>
     <g transform="translate(355.405938 116.782938)scale(0.1 -0.1)">
      <use xlink:href="#DejaVuSans-116"/>
      <use x="39.208984" xlink:href="#DejaVuSans-111"/>
      <use x="100.390625" xlink:href="#DejaVuSans-112"/>
     </g>
    </g>
    <g id="patch_19">
     <path d="M 327.405938 131.461063 
L 347.405938 131.461063 
L 347.405938 124.461063 
L 327.405938 124.461063 
z
" style="fill:none;stroke:#000000;stroke-linejoin:miter;"/>
    </g>
    <g id="text_26">
     <!-- undefined -->
     <defs>
      <path d="M 45.40625 46.390625 
L 45.40625 75.984375 
L 54.390625 75.984375 
L 54.390625 0 
L 45.40625 0 
L 45.40625 8.203125 
Q 42.578125 3.328125 38.25 0.953125 
Q 33.9375 -1.421875 27.875 -1.421875 
Q 17.96875 -1.421875 11.734375 6.484375 
Q 5.515625 14.40625 5.515625 27.296875 
Q 5.515625 40.1875 11.734375 48.09375 
Q 17.96875 56 27.875 56 
Q 33.9375 56 38.25 53.625 
Q 42.578125 51.265625 45.40625 46.390625 
z
M 14.796875 27.296875 
Q 14.796875 17.390625 18.875 11.75 
Q 22.953125 6.109375 30.078125 6.109375 
Q 37.203125 6.109375 41.296875 11.75 
Q 45.40625 17.390625 45.40625 27.296875 
Q 45.40625 37.203125 41.296875 42.84375 
Q 37.203125 48.484375 30.078125 48.484375 
Q 22.953125 48.484375 18.875 42.84375 
Q 14.796875 37.203125 14.796875 27.296875 
z
" id="DejaVuSans-100"/>
      <path d="M 37.109375 75.984375 
L 37.109375 68.5 
L 28.515625 68.5 
Q 23.6875 68.5 21.796875 66.546875 
Q 19.921875 64.59375 19.921875 59.515625 
L 19.921875 54.6875 
L 34.71875 54.6875 
L 34.71875 47.703125 
L 19.921875 47.703125 
L 19.921875 0 
L 10.890625 0 
L 10.890625 47.703125 
L 2.296875 47.703125 
L 2.296875 54.6875 
L 10.890625 54.6875 
L 10.890625 58.5 
Q 10.890625 67.625 15.140625 71.796875 
Q 19.390625 75.984375 28.609375 75.984375 
z
" id="DejaVuSans-102"/>
     </defs>
     <g transform="translate(355.405938 131.461063)scale(0.1 -0.1)">
      <use xlink:href="#DejaVuSans-117"/>
      <use x="63.378906" xlink:href="#DejaVuSans-110"/>
      <use x="126.757812" xlink:href="#DejaVuSans-100"/>
      <use x="190.234375" xlink:href="#DejaVuSans-101"/>
      <use x="251.757812" xlink:href="#DejaVuSans-102"/>
      <use x="286.962891" xlink:href="#DejaVuSans-105"/>
      <use x="314.746094" xlink:href="#DejaVuSans-110"/>
      <use x="378.125" xlink:href="#DejaVuSans-101"/>
      <use x="439.648438" xlink:href="#DejaVuSans-100"/>
     </g>
    </g>
   </g>
  </g>
 </g>
 <defs>
  <clipPath id="pc56e438d7d">
   <rect height="266.112" width="357.12" x="57.6" y="41.472"/>
  </clipPath>
 </defs>
</svg>
