<?xml version="1.0" encoding="utf-8" standalone="no"?>
<!DOCTYPE svg PUBLIC "-//W3C//DTD SVG 1.1//EN"
  "http://www.w3.org/Graphics/SVG/1.1/DTD/svg11.dtd">
<!-- Created with matplotlib (https://matplotlib.org/) -->
<svg height="345.6pt" version="1.1" viewBox="0 0 460.8 345.6" width="460.8pt" xmlns="http://www.w3.org/2000/svg" xmlns:xlink="http://www.w3.org/1999/xlink">
 <defs>
  <style type="text/css">
*{stroke-linecap:butt;stroke-linejoin:round;}
  </style>
 </defs>
 <g id="figure_1">
  <g id="patch_1">
   <path d="M 0 345.6 
L 460.8 345.6 
L 460.8 0 
L 0 0 
z
" style="fill:#ffffff;"/>
  </g>
  <g id="axes_1">
   <g id="patch_2">
    <path d="M 57.6 307.584 
L 414.72 307.584 
L 414.72 41.472 
L 57.6 41.472 
z
" style="fill:#ffffff;"/>
   </g>
   <g id="patch_3">
    <path clip-path="url(#p9c5dab3d28)" d="M 73.832729 307.584 
L 73.832729 307.327104 
L 96.55854 307.24019 
L 96.55854 307.206348 
L 116.037816 307.143278 
L 116.037816 307.069439 
L 132.270546 306.979449 
L 132.270546 306.955605 
L 145.256724 306.894842 
L 145.256724 306.829465 
L 154.996362 306.723322 
L 154.996362 306.641792 
L 161.489454 306.58026 
L 161.489454 306.49873 
L 167.982546 306.419508 
L 167.982546 306.376436 
L 171.229092 306.376436 
L 171.229092 306.232605 
L 174.475638 306.232605 
L 174.475638 306.10108 
L 180.968724 306.031857 
L 180.968724 305.85726 
L 184.21527 305.85726 
L 184.21527 305.620362 
L 187.461816 305.620362 
L 187.461816 305.389618 
L 190.708363 305.389618 
L 190.708363 305.150412 
L 193.954909 305.150412 
L 193.954909 304.858135 
L 197.201455 304.858135 
L 197.201455 304.44741 
L 200.448001 304.44741 
L 200.448001 304.073603 
L 203.694544 304.073603 
L 203.694544 303.482128 
L 206.94109 303.482128 
L 206.94109 302.668368 
L 210.187636 302.668368 
L 210.187636 301.753081 
L 213.434182 301.753081 
L 213.434182 300.443989 
L 216.680726 300.443989 
L 216.680726 298.688021 
L 219.927272 298.688021 
L 219.927272 296.102912 
L 223.173817 296.102912 
L 223.173817 291.898742 
L 226.420363 291.898742 
L 226.420363 284.334929 
L 229.666908 284.334929 
L 229.666908 266.754482 
L 232.913453 266.754482 
L 232.913453 169.452515 
L 236.159999 169.452515 
L 236.159999 184.174013 
L 239.406544 184.174013 
L 239.406544 268.750429 
L 242.65309 268.750429 
L 242.65309 285.35559 
L 245.899635 285.35559 
L 245.899635 292.629431 
L 249.146181 292.629431 
L 249.146181 296.539786 
L 252.392727 296.539786 
L 252.392727 298.965683 
L 255.639271 298.965683 
L 255.639271 300.866251 
L 258.885817 300.866251 
L 258.885817 302.063048 
L 262.132363 302.063048 
L 262.132363 302.972182 
L 265.378909 302.972182 
L 265.378909 303.503664 
L 268.625452 303.503664 
L 268.625452 304.201282 
L 271.871998 304.201282 
L 271.871998 304.585087 
L 275.118544 304.585087 
L 275.118544 304.940434 
L 278.36509 304.940434 
L 278.36509 305.246556 
L 281.611636 305.246556 
L 281.611636 305.536525 
L 284.85818 305.536525 
L 284.85818 305.70343 
L 288.104726 305.70343 
L 288.104726 305.89341 
L 291.351272 305.89341 
L 291.351272 306.043394 
L 297.844364 306.113387 
L 297.844364 306.228759 
L 304.337456 306.322595 
L 304.337456 306.471041 
L 310.830542 306.547956 
L 310.830542 306.600258 
L 317.323634 306.704093 
L 317.323634 306.777163 
L 327.063272 306.853308 
L 327.063272 306.919455 
L 343.296002 307.004831 
L 343.296002 307.065594 
L 366.021812 307.169429 
L 366.021812 307.197118 
L 395.240727 307.300953 
L 395.240727 307.330181 
L 398.487273 307.330181 
L 398.487273 307.584 
L 398.487273 307.584 
" style="fill:none;stroke:#1f77b4;stroke-linejoin:miter;"/>
   </g>
   <g id="patch_4">
    <path clip-path="url(#p9c5dab3d28)" d="M 73.832729 307.584 
L 73.832729 307.286339 
L 99.805086 307.191734 
L 99.805086 307.15866 
L 112.79127 307.090206 
L 112.79127 307.040212 
L 125.777454 307.007138 
L 125.777454 306.92407 
L 132.270546 306.819466 
L 132.270546 306.804083 
L 142.010184 306.72486 
L 142.010184 306.597951 
L 151.749816 306.500269 
L 151.749816 306.343362 
L 158.242908 306.322595 
L 158.242908 306.183379 
L 161.489454 306.183379 
L 161.489454 306.065699 
L 164.736 306.065699 
L 164.736 305.950327 
L 167.982546 305.950327 
L 167.982546 305.708814 
L 171.229092 305.708814 
L 171.229092 305.580366 
L 174.475638 305.580366 
L 174.475638 305.386541 
L 177.722178 305.386541 
L 177.722178 305.164257 
L 180.968724 305.164257 
L 180.968724 304.924282 
L 184.21527 304.924282 
L 184.21527 304.494328 
L 187.461816 304.494328 
L 187.461816 304.209743 
L 190.708363 304.209743 
L 190.708363 303.760559 
L 193.954909 303.760559 
L 193.954909 303.240614 
L 197.201455 303.240614 
L 197.201455 302.529151 
L 200.448001 302.529151 
L 200.448001 301.782307 
L 203.694544 301.782307 
L 203.694544 300.706269 
L 206.94109 300.706269 
L 206.94109 299.327954 
L 210.187636 299.327954 
L 210.187636 297.610443 
L 213.434182 297.610443 
L 213.434182 295.319915 
L 216.680726 295.319915 
L 216.680726 291.980269 
L 219.927272 291.980269 
L 219.927272 287.160015 
L 223.173817 287.160015 
L 223.173817 278.704759 
L 226.420363 278.704759 
L 226.420363 263.800955 
L 229.666908 263.800955 
L 229.666908 229.99915 
L 232.913453 229.99915 
L 232.913453 54.144 
L 236.159999 54.144 
L 236.159999 70.264571 
L 239.406544 70.264571 
L 239.406544 229.492283 
L 242.65309 229.492283 
L 242.65309 263.644048 
L 245.899635 263.644048 
L 245.899635 278.417867 
L 249.146181 278.417867 
L 249.146181 286.656992 
L 252.392727 286.656992 
L 252.392727 291.95489 
L 255.639271 291.95489 
L 255.639271 295.160703 
L 258.885817 295.160703 
L 258.885817 297.459689 
L 262.132363 297.459689 
L 262.132363 299.197968 
L 265.378909 299.197968 
L 265.378909 300.56013 
L 268.625452 300.56013 
L 268.625452 301.615403 
L 271.871998 301.615403 
L 271.871998 302.565301 
L 275.118544 302.565301 
L 275.118544 303.138318 
L 278.36509 303.138318 
L 278.36509 303.665185 
L 281.611636 303.665185 
L 281.611636 304.108984 
L 284.85818 304.108984 
L 284.85818 304.540477 
L 288.104726 304.540477 
L 288.104726 304.85429 
L 291.351272 304.85429 
L 291.351272 305.201176 
L 294.597818 305.201176 
L 294.597818 305.371158 
L 297.844364 305.371158 
L 297.844364 305.49576 
L 301.09091 305.49576 
L 301.09091 305.769577 
L 307.583996 305.86649 
L 307.583996 306.042625 
L 314.077088 306.118002 
L 314.077088 306.23722 
L 317.323634 306.23722 
L 317.323634 306.397203 
L 320.57018 306.397203 
L 320.57018 306.554109 
L 330.309818 306.587183 
L 330.309818 306.687172 
L 336.80291 306.768702 
L 336.80291 306.816389 
L 346.542548 306.916379 
L 346.542548 306.938684 
L 362.775266 307.034058 
L 362.775266 307.102513 
L 379.007997 307.200964 
L 379.007997 307.233268 
L 398.487273 307.310952 
L 398.487273 307.584 
L 398.487273 307.584 
" style="fill:none;stroke:#ff7f0e;stroke-linejoin:miter;"/>
   </g>
   <g id="patch_5">
    <path clip-path="url(#p9c5dab3d28)" d="M 73.832729 307.584 
L 73.832729 307.270187 
L 103.051632 307.180966 
L 103.051632 307.127895 
L 122.530908 307.033289 
L 122.530908 307.003292 
L 132.270546 306.901765 
L 132.270546 306.871768 
L 142.010184 306.767933 
L 142.010184 306.744858 
L 148.50327 306.684096 
L 148.50327 306.515652 
L 154.996362 306.502576 
L 154.996362 306.389511 
L 161.489454 306.389511 
L 161.489454 306.269524 
L 167.982546 306.160305 
L 167.982546 306.018781 
L 171.229092 306.018781 
L 171.229092 305.874951 
L 174.475638 305.874951 
L 174.475638 305.743426 
L 177.722178 305.743426 
L 177.722178 305.568829 
L 180.968724 305.568829 
L 180.968724 305.328086 
L 184.21527 305.328086 
L 184.21527 305.07042 
L 187.461816 305.07042 
L 187.461816 304.8266 
L 190.708363 304.8266 
L 190.708363 304.440487 
L 193.954909 304.440487 
L 193.954909 304.048221 
L 197.201455 304.048221 
L 197.201455 303.496741 
L 200.448001 303.496741 
L 200.448001 302.989872 
L 203.694544 302.989872 
L 203.694544 302.229953 
L 206.94109 302.229953 
L 206.94109 301.273901 
L 210.187636 301.273901 
L 210.187636 300.037877 
L 213.434182 300.037877 
L 213.434182 298.39036 
L 216.680726 298.39036 
L 216.680726 296.253663 
L 219.927272 296.253663 
L 219.927272 293.267828 
L 223.173817 293.267828 
L 223.173817 288.466798 
L 226.420363 288.466798 
L 226.420363 280.598397 
L 229.666908 280.598397 
L 229.666908 265.558458 
L 232.913453 265.558458 
L 232.913453 194.606754 
L 236.159999 194.606754 
L 236.159999 204.350345 
L 239.406544 204.350345 
L 239.406544 266.262997 
L 242.65309 266.262997 
L 242.65309 281.434466 
L 245.899635 281.434466 
L 245.899635 288.710617 
L 249.146181 288.710617 
L 249.146181 293.460883 
L 252.392727 293.460883 
L 252.392727 296.420569 
L 255.639271 296.420569 
L 255.639271 298.606491 
L 258.885817 298.606491 
L 258.885817 300.142482 
L 262.132363 300.142482 
L 262.132363 301.293898 
L 265.378909 301.293898 
L 265.378909 302.276871 
L 268.625452 302.276871 
L 268.625452 302.98295 
L 271.871998 302.98295 
L 271.871998 303.477513 
L 275.118544 303.477513 
L 275.118544 304.167439 
L 278.36509 304.167439 
L 278.36509 304.45587 
L 281.611636 304.45587 
L 281.611636 304.819678 
L 284.85818 304.819678 
L 284.85818 305.051961 
L 288.104726 305.051961 
L 288.104726 305.348853 
L 291.351272 305.348853 
L 291.351272 305.501144 
L 294.597818 305.501144 
L 294.597818 305.691893 
L 297.844364 305.691893 
L 297.844364 305.951096 
L 301.09091 305.951096 
L 301.09091 306.066469 
L 304.337456 306.066469 
L 304.337456 306.215684 
L 310.830542 306.310289 
L 310.830542 306.402587 
L 317.323634 306.465657 
L 317.323634 306.552571 
L 327.063272 306.657944 
L 327.063272 306.72563 
L 336.80291 306.821004 
L 336.80291 306.893304 
L 353.03564 306.962527 
L 353.03564 307.025598 
L 369.268359 307.118665 
L 369.268359 307.182504 
L 388.747635 307.250958 
L 388.747635 307.300953 
L 398.487273 307.290954 
L 398.487273 307.584 
L 398.487273 307.584 
" style="fill:none;stroke:#2ca02c;stroke-linejoin:miter;"/>
   </g>
   <g id="patch_6">
    <path clip-path="url(#p9c5dab3d28)" d="M 73.832729 307.584 
L 73.832729 307.287878 
L 103.051632 307.181735 
L 103.051632 307.146354 
L 122.530908 307.035597 
L 122.530908 306.987909 
L 132.270546 306.920993 
L 132.270546 306.854077 
L 145.256724 306.744089 
L 145.256724 306.686403 
L 151.749816 306.628717 
L 151.749816 306.5718 
L 154.996362 306.5718 
L 154.996362 306.43566 
L 161.489454 306.370282 
L 161.489454 306.294906 
L 167.982546 306.201839 
L 167.982546 306.09262 
L 171.229092 306.09262 
L 171.229092 305.874951 
L 177.722178 305.826494 
L 177.722178 305.611902 
L 180.968724 305.611902 
L 180.968724 305.331162 
L 184.21527 305.331162 
L 184.21527 305.10734 
L 187.461816 305.10734 
L 187.461816 304.785066 
L 190.708363 304.785066 
L 190.708363 304.567397 
L 193.954909 304.567397 
L 193.954909 304.04053 
L 197.201455 304.04053 
L 197.201455 303.65134 
L 200.448001 303.65134 
L 200.448001 302.986796 
L 203.694544 302.986796 
L 203.694544 302.293792 
L 206.94109 302.293792 
L 206.94109 301.288514 
L 210.187636 301.288514 
L 210.187636 300.034801 
L 213.434182 300.034801 
L 213.434182 298.475735 
L 216.680726 298.475735 
L 216.680726 296.104449 
L 219.927272 296.104449 
L 219.927272 292.825565 
L 223.173817 292.825565 
L 223.173817 287.911471 
L 226.420363 287.911471 
L 226.420363 279.51621 
L 229.666908 279.51621 
L 229.666908 262.86259 
L 232.913453 262.86259 
L 232.913453 185.556949 
L 236.159999 185.556949 
L 236.159999 195.191313 
L 239.406544 195.191313 
L 239.406544 263.447149 
L 242.65309 263.447149 
L 242.65309 280.023077 
L 245.899635 280.023077 
L 245.899635 288.069149 
L 249.146181 288.069149 
L 249.146181 292.870176 
L 252.392727 292.870176 
L 252.392727 296.375959 
L 255.639271 296.375959 
L 255.639271 298.481888 
L 258.885817 298.481888 
L 258.885817 300.141713 
L 262.132363 300.141713 
L 262.132363 301.167757 
L 265.378909 301.167757 
L 265.378909 302.347632 
L 268.625452 302.347632 
L 268.625452 303.032175 
L 271.871998 303.032175 
L 271.871998 303.635958 
L 275.118544 303.635958 
L 275.118544 304.072065 
L 278.36509 304.072065 
L 278.36509 304.425874 
L 281.611636 304.425874 
L 281.611636 304.766606 
L 284.85818 304.766606 
L 284.85818 305.042731 
L 288.104726 305.042731 
L 288.104726 305.327316 
L 291.351272 305.327316 
L 291.351272 305.574214 
L 294.597818 305.574214 
L 294.597818 305.744964 
L 297.844364 305.744964 
L 297.844364 305.937252 
L 304.337456 306.034934 
L 304.337456 306.205685 
L 310.830542 306.223375 
L 310.830542 306.381051 
L 317.323634 306.473349 
L 317.323634 306.551802 
L 323.816726 306.63487 
L 323.816726 306.674866 
L 333.556364 306.764856 
L 333.556364 306.816389 
L 340.049456 306.874844 
L 340.049456 306.936376 
L 353.03564 307.033289 
L 353.03564 307.061748 
L 372.514905 307.142508 
L 372.514905 307.180966 
L 395.240727 307.284801 
L 395.240727 307.295569 
L 398.487273 307.295569 
L 398.487273 307.584 
L 398.487273 307.584 
" style="fill:none;stroke:#d62728;stroke-linejoin:miter;"/>
   </g>
   <g id="patch_7">
    <path clip-path="url(#p9c5dab3d28)" d="M 73.832729 307.584 
L 73.832729 307.346333 
L 99.805086 307.244036 
L 99.805086 307.217885 
L 116.037816 307.140201 
L 116.037816 307.08713 
L 129.024 307.040981 
L 129.024 306.920224 
L 142.010184 306.85177 
L 142.010184 306.747935 
L 148.50327 306.699478 
L 148.50327 306.563339 
L 154.996362 306.546418 
L 154.996362 306.383358 
L 161.489454 306.275677 
L 161.489454 306.207223 
L 164.736 306.207223 
L 164.736 306.05647 
L 167.982546 306.05647 
L 167.982546 305.905716 
L 171.229092 305.905716 
L 171.229092 305.696508 
L 174.475638 305.696508 
L 174.475638 305.532679 
L 177.722178 305.532679 
L 177.722178 305.24271 
L 180.968724 305.24271 
L 180.968724 305.068113 
L 184.21527 305.068113 
L 184.21527 304.652003 
L 187.461816 304.652003 
L 187.461816 304.342806 
L 190.708363 304.342806 
L 190.708363 303.806708 
L 193.954909 303.806708 
L 193.954909 303.307531 
L 197.201455 303.307531 
L 197.201455 302.662214 
L 200.448001 302.662214 
L 200.448001 301.819996 
L 203.694544 301.819996 
L 203.694544 300.902401 
L 206.94109 300.902401 
L 206.94109 299.486397 
L 210.187636 299.486397 
L 210.187636 297.678898 
L 213.434182 297.678898 
L 213.434182 295.312225 
L 216.680726 295.312225 
L 216.680726 291.807984 
L 219.927272 291.807984 
L 219.927272 286.731599 
L 223.173817 286.731599 
L 223.173817 278.93781 
L 226.420363 278.93781 
L 226.420363 263.966313 
L 229.666908 263.966313 
L 229.666908 231.662064 
L 232.913453 231.662064 
L 232.913453 75.387104 
L 236.159999 75.387104 
L 236.159999 89.461006 
L 239.406544 89.461006 
L 239.406544 231.1921 
L 242.65309 231.1921 
L 242.65309 263.51406 
L 245.899635 263.51406 
L 245.899635 278.493241 
L 249.146181 278.493241 
L 249.146181 286.712368 
L 252.392727 286.712368 
L 252.392727 291.799521 
L 255.639271 291.799521 
L 255.639271 295.051483 
L 258.885817 295.051483 
L 258.885817 297.485841 
L 262.132363 297.485841 
L 262.132363 299.187199 
L 265.378909 299.187199 
L 265.378909 300.587051 
L 268.625452 300.587051 
L 268.625452 301.650782 
L 271.871998 301.650782 
L 271.871998 302.559149 
L 275.118544 302.559149 
L 275.118544 303.222924 
L 278.36509 303.222924 
L 278.36509 303.722871 
L 281.611636 303.722871 
L 281.611636 304.245892 
L 284.85818 304.245892 
L 284.85818 304.648158 
L 288.104726 304.648158 
L 288.104726 304.985045 
L 291.351272 304.985045 
L 291.351272 305.238095 
L 294.597818 305.238095 
L 294.597818 305.428075 
L 297.844364 305.428075 
L 297.844364 305.724197 
L 301.09091 305.724197 
L 301.09091 305.89341 
L 304.337456 305.89341 
L 304.337456 306.018781 
L 307.583996 306.018781 
L 307.583996 306.211838 
L 314.077088 306.290291 
L 314.077088 306.414893 
L 320.57018 306.482578 
L 320.57018 306.52642 
L 323.816726 306.52642 
L 323.816726 306.682557 
L 333.556364 306.75255 
L 333.556364 306.865615 
L 343.296002 306.948683 
L 343.296002 307.007907 
L 359.52872 307.099436 
L 359.52872 307.154046 
L 379.007997 307.262496 
L 379.007997 307.290185 
L 398.487273 307.35787 
L 398.487273 307.584 
L 398.487273 307.584 
" style="fill:none;stroke:#9467bd;stroke-linejoin:miter;"/>
   </g>
   <g id="patch_8">
    <path clip-path="url(#p9c5dab3d28)" d="M 73.832727 307.584 
L 398.487271 307.584 
L 398.487271 307.584 
" style="fill:none;stroke:#000000;stroke-linejoin:miter;"/>
   </g>
   <g id="matplotlib.axis_1">
    <g id="xtick_1">
     <g id="line2d_1">
      <defs>
       <path d="M 0 0 
L 0 3.5 
" id="mdcec10902d" style="stroke:#000000;stroke-width:0.8;"/>
      </defs>
      <g>
       <use style="stroke:#000000;stroke-width:0.8;" x="81.692077" xlink:href="#mdcec10902d" y="307.584"/>
      </g>
     </g>
     <g id="text_1">
      <!-- −100 -->
      <defs>
       <path d="M 10.59375 35.5 
L 73.1875 35.5 
L 73.1875 27.203125 
L 10.59375 27.203125 
z
" id="DejaVuSans-8722"/>
       <path d="M 12.40625 8.296875 
L 28.515625 8.296875 
L 28.515625 63.921875 
L 10.984375 60.40625 
L 10.984375 69.390625 
L 28.421875 72.90625 
L 38.28125 72.90625 
L 38.28125 8.296875 
L 54.390625 8.296875 
L 54.390625 0 
L 12.40625 0 
z
" id="DejaVuSans-49"/>
       <path d="M 31.78125 66.40625 
Q 24.171875 66.40625 20.328125 58.90625 
Q 16.5 51.421875 16.5 36.375 
Q 16.5 21.390625 20.328125 13.890625 
Q 24.171875 6.390625 31.78125 6.390625 
Q 39.453125 6.390625 43.28125 13.890625 
Q 47.125 21.390625 47.125 36.375 
Q 47.125 51.421875 43.28125 58.90625 
Q 39.453125 66.40625 31.78125 66.40625 
z
M 31.78125 74.21875 
Q 44.046875 74.21875 50.515625 64.515625 
Q 56.984375 54.828125 56.984375 36.375 
Q 56.984375 17.96875 50.515625 8.265625 
Q 44.046875 -1.421875 31.78125 -1.421875 
Q 19.53125 -1.421875 13.0625 8.265625 
Q 6.59375 17.96875 6.59375 36.375 
Q 6.59375 54.828125 13.0625 64.515625 
Q 19.53125 74.21875 31.78125 74.21875 
z
" id="DejaVuSans-48"/>
      </defs>
      <g transform="translate(67.958484 322.182437)scale(0.1 -0.1)">
       <use xlink:href="#DejaVuSans-8722"/>
       <use x="83.789062" xlink:href="#DejaVuSans-49"/>
       <use x="147.412109" xlink:href="#DejaVuSans-48"/>
       <use x="211.035156" xlink:href="#DejaVuSans-48"/>
      </g>
     </g>
    </g>
    <g id="xtick_2">
     <g id="line2d_2">
      <g>
       <use style="stroke:#000000;stroke-width:0.8;" x="158.911455" xlink:href="#mdcec10902d" y="307.584"/>
      </g>
     </g>
     <g id="text_2">
      <!-- −50 -->
      <defs>
       <path d="M 10.796875 72.90625 
L 49.515625 72.90625 
L 49.515625 64.59375 
L 19.828125 64.59375 
L 19.828125 46.734375 
Q 21.96875 47.46875 24.109375 47.828125 
Q 26.265625 48.1875 28.421875 48.1875 
Q 40.625 48.1875 47.75 41.5 
Q 54.890625 34.8125 54.890625 23.390625 
Q 54.890625 11.625 47.5625 5.09375 
Q 40.234375 -1.421875 26.90625 -1.421875 
Q 22.3125 -1.421875 17.546875 -0.640625 
Q 12.796875 0.140625 7.71875 1.703125 
L 7.71875 11.625 
Q 12.109375 9.234375 16.796875 8.0625 
Q 21.484375 6.890625 26.703125 6.890625 
Q 35.15625 6.890625 40.078125 11.328125 
Q 45.015625 15.765625 45.015625 23.390625 
Q 45.015625 31 40.078125 35.4375 
Q 35.15625 39.890625 26.703125 39.890625 
Q 22.75 39.890625 18.8125 39.015625 
Q 14.890625 38.140625 10.796875 36.28125 
z
" id="DejaVuSans-53"/>
      </defs>
      <g transform="translate(148.359111 322.182437)scale(0.1 -0.1)">
       <use xlink:href="#DejaVuSans-8722"/>
       <use x="83.789062" xlink:href="#DejaVuSans-53"/>
       <use x="147.412109" xlink:href="#DejaVuSans-48"/>
      </g>
     </g>
    </g>
    <g id="xtick_3">
     <g id="line2d_3">
      <g>
       <use style="stroke:#000000;stroke-width:0.8;" x="236.130833" xlink:href="#mdcec10902d" y="307.584"/>
      </g>
     </g>
     <g id="text_3">
      <!-- 0 -->
      <g transform="translate(232.949583 322.182437)scale(0.1 -0.1)">
       <use xlink:href="#DejaVuSans-48"/>
      </g>
     </g>
    </g>
    <g id="xtick_4">
     <g id="line2d_4">
      <g>
       <use style="stroke:#000000;stroke-width:0.8;" x="313.350211" xlink:href="#mdcec10902d" y="307.584"/>
      </g>
     </g>
     <g id="text_4">
      <!-- 50 -->
      <g transform="translate(306.987711 322.182437)scale(0.1 -0.1)">
       <use xlink:href="#DejaVuSans-53"/>
       <use x="63.623047" xlink:href="#DejaVuSans-48"/>
      </g>
     </g>
    </g>
    <g id="xtick_5">
     <g id="line2d_5">
      <g>
       <use style="stroke:#000000;stroke-width:0.8;" x="390.569588" xlink:href="#mdcec10902d" y="307.584"/>
      </g>
     </g>
     <g id="text_5">
      <!-- 100 -->
      <g transform="translate(381.025838 322.182437)scale(0.1 -0.1)">
       <use xlink:href="#DejaVuSans-49"/>
       <use x="63.623047" xlink:href="#DejaVuSans-48"/>
       <use x="127.246094" xlink:href="#DejaVuSans-48"/>
      </g>
     </g>
    </g>
    <g id="text_6">
     <!-- j1_py -->
     <defs>
      <path d="M 9.421875 54.6875 
L 18.40625 54.6875 
L 18.40625 -0.984375 
Q 18.40625 -11.421875 14.421875 -16.109375 
Q 10.453125 -20.796875 1.609375 -20.796875 
L -1.8125 -20.796875 
L -1.8125 -13.1875 
L 0.59375 -13.1875 
Q 5.71875 -13.1875 7.5625 -10.8125 
Q 9.421875 -8.453125 9.421875 -0.984375 
z
M 9.421875 75.984375 
L 18.40625 75.984375 
L 18.40625 64.59375 
L 9.421875 64.59375 
z
" id="DejaVuSans-106"/>
      <path d="M 50.984375 -16.609375 
L 50.984375 -23.578125 
L -0.984375 -23.578125 
L -0.984375 -16.609375 
z
" id="DejaVuSans-95"/>
      <path d="M 18.109375 8.203125 
L 18.109375 -20.796875 
L 9.078125 -20.796875 
L 9.078125 54.6875 
L 18.109375 54.6875 
L 18.109375 46.390625 
Q 20.953125 51.265625 25.265625 53.625 
Q 29.59375 56 35.59375 56 
Q 45.5625 56 51.78125 48.09375 
Q 58.015625 40.1875 58.015625 27.296875 
Q 58.015625 14.40625 51.78125 6.484375 
Q 45.5625 -1.421875 35.59375 -1.421875 
Q 29.59375 -1.421875 25.265625 0.953125 
Q 20.953125 3.328125 18.109375 8.203125 
z
M 48.6875 27.296875 
Q 48.6875 37.203125 44.609375 42.84375 
Q 40.53125 48.484375 33.40625 48.484375 
Q 26.265625 48.484375 22.1875 42.84375 
Q 18.109375 37.203125 18.109375 27.296875 
Q 18.109375 17.390625 22.1875 11.75 
Q 26.265625 6.109375 33.40625 6.109375 
Q 40.53125 6.109375 44.609375 11.75 
Q 48.6875 17.390625 48.6875 27.296875 
z
" id="DejaVuSans-112"/>
      <path d="M 32.171875 -5.078125 
Q 28.375 -14.84375 24.75 -17.8125 
Q 21.140625 -20.796875 15.09375 -20.796875 
L 7.90625 -20.796875 
L 7.90625 -13.28125 
L 13.1875 -13.28125 
Q 16.890625 -13.28125 18.9375 -11.515625 
Q 21 -9.765625 23.484375 -3.21875 
L 25.09375 0.875 
L 2.984375 54.6875 
L 12.5 54.6875 
L 29.59375 11.921875 
L 46.6875 54.6875 
L 56.203125 54.6875 
z
" id="DejaVuSans-121"/>
     </defs>
     <g transform="translate(222.956094 335.860562)scale(0.1 -0.1)">
      <use xlink:href="#DejaVuSans-106"/>
      <use x="27.783203" xlink:href="#DejaVuSans-49"/>
      <use x="91.40625" xlink:href="#DejaVuSans-95"/>
      <use x="141.40625" xlink:href="#DejaVuSans-112"/>
      <use x="204.882812" xlink:href="#DejaVuSans-121"/>
     </g>
    </g>
   </g>
   <g id="matplotlib.axis_2">
    <g id="ytick_1">
     <g id="line2d_6">
      <defs>
       <path d="M 0 0 
L -3.5 0 
" id="m8bb38717a8" style="stroke:#000000;stroke-width:0.8;"/>
      </defs>
      <g>
       <use style="stroke:#000000;stroke-width:0.8;" x="57.6" xlink:href="#m8bb38717a8" y="307.584"/>
      </g>
     </g>
     <g id="text_7">
      <!-- 0.00 -->
      <defs>
       <path d="M 10.6875 12.40625 
L 21 12.40625 
L 21 0 
L 10.6875 0 
z
" id="DejaVuSans-46"/>
      </defs>
      <g transform="translate(28.334375 311.383219)scale(0.1 -0.1)">
       <use xlink:href="#DejaVuSans-48"/>
       <use x="63.623047" xlink:href="#DejaVuSans-46"/>
       <use x="95.410156" xlink:href="#DejaVuSans-48"/>
       <use x="159.033203" xlink:href="#DejaVuSans-48"/>
      </g>
     </g>
    </g>
    <g id="ytick_2">
     <g id="line2d_7">
      <g>
       <use style="stroke:#000000;stroke-width:0.8;" x="57.6" xlink:href="#m8bb38717a8" y="268.204264"/>
      </g>
     </g>
     <g id="text_8">
      <!-- 0.01 -->
      <g transform="translate(28.334375 272.003483)scale(0.1 -0.1)">
       <use xlink:href="#DejaVuSans-48"/>
       <use x="63.623047" xlink:href="#DejaVuSans-46"/>
       <use x="95.410156" xlink:href="#DejaVuSans-48"/>
       <use x="159.033203" xlink:href="#DejaVuSans-49"/>
      </g>
     </g>
    </g>
    <g id="ytick_3">
     <g id="line2d_8">
      <g>
       <use style="stroke:#000000;stroke-width:0.8;" x="57.6" xlink:href="#m8bb38717a8" y="228.824528"/>
      </g>
     </g>
     <g id="text_9">
      <!-- 0.02 -->
      <defs>
       <path d="M 19.1875 8.296875 
L 53.609375 8.296875 
L 53.609375 0 
L 7.328125 0 
L 7.328125 8.296875 
Q 12.9375 14.109375 22.625 23.890625 
Q 32.328125 33.6875 34.8125 36.53125 
Q 39.546875 41.84375 41.421875 45.53125 
Q 43.3125 49.21875 43.3125 52.78125 
Q 43.3125 58.59375 39.234375 62.25 
Q 35.15625 65.921875 28.609375 65.921875 
Q 23.96875 65.921875 18.8125 64.3125 
Q 13.671875 62.703125 7.8125 59.421875 
L 7.8125 69.390625 
Q 13.765625 71.78125 18.9375 73 
Q 24.125 74.21875 28.421875 74.21875 
Q 39.75 74.21875 46.484375 68.546875 
Q 53.21875 62.890625 53.21875 53.421875 
Q 53.21875 48.921875 51.53125 44.890625 
Q 49.859375 40.875 45.40625 35.40625 
Q 44.1875 33.984375 37.640625 27.21875 
Q 31.109375 20.453125 19.1875 8.296875 
z
" id="DejaVuSans-50"/>
      </defs>
      <g transform="translate(28.334375 232.623747)scale(0.1 -0.1)">
       <use xlink:href="#DejaVuSans-48"/>
       <use x="63.623047" xlink:href="#DejaVuSans-46"/>
       <use x="95.410156" xlink:href="#DejaVuSans-48"/>
       <use x="159.033203" xlink:href="#DejaVuSans-50"/>
      </g>
     </g>
    </g>
    <g id="ytick_4">
     <g id="line2d_9">
      <g>
       <use style="stroke:#000000;stroke-width:0.8;" x="57.6" xlink:href="#m8bb38717a8" y="189.444793"/>
      </g>
     </g>
     <g id="text_10">
      <!-- 0.03 -->
      <defs>
       <path d="M 40.578125 39.3125 
Q 47.65625 37.796875 51.625 33 
Q 55.609375 28.21875 55.609375 21.1875 
Q 55.609375 10.40625 48.1875 4.484375 
Q 40.765625 -1.421875 27.09375 -1.421875 
Q 22.515625 -1.421875 17.65625 -0.515625 
Q 12.796875 0.390625 7.625 2.203125 
L 7.625 11.71875 
Q 11.71875 9.328125 16.59375 8.109375 
Q 21.484375 6.890625 26.8125 6.890625 
Q 36.078125 6.890625 40.9375 10.546875 
Q 45.796875 14.203125 45.796875 21.1875 
Q 45.796875 27.640625 41.28125 31.265625 
Q 36.765625 34.90625 28.71875 34.90625 
L 20.21875 34.90625 
L 20.21875 43.015625 
L 29.109375 43.015625 
Q 36.375 43.015625 40.234375 45.921875 
Q 44.09375 48.828125 44.09375 54.296875 
Q 44.09375 59.90625 40.109375 62.90625 
Q 36.140625 65.921875 28.71875 65.921875 
Q 24.65625 65.921875 20.015625 65.03125 
Q 15.375 64.15625 9.8125 62.3125 
L 9.8125 71.09375 
Q 15.4375 72.65625 20.34375 73.4375 
Q 25.25 74.21875 29.59375 74.21875 
Q 40.828125 74.21875 47.359375 69.109375 
Q 53.90625 64.015625 53.90625 55.328125 
Q 53.90625 49.265625 50.4375 45.09375 
Q 46.96875 40.921875 40.578125 39.3125 
z
" id="DejaVuSans-51"/>
      </defs>
      <g transform="translate(28.334375 193.244011)scale(0.1 -0.1)">
       <use xlink:href="#DejaVuSans-48"/>
       <use x="63.623047" xlink:href="#DejaVuSans-46"/>
       <use x="95.410156" xlink:href="#DejaVuSans-48"/>
       <use x="159.033203" xlink:href="#DejaVuSans-51"/>
      </g>
     </g>
    </g>
    <g id="ytick_5">
     <g id="line2d_10">
      <g>
       <use style="stroke:#000000;stroke-width:0.8;" x="57.6" xlink:href="#m8bb38717a8" y="150.065057"/>
      </g>
     </g>
     <g id="text_11">
      <!-- 0.04 -->
      <defs>
       <path d="M 37.796875 64.3125 
L 12.890625 25.390625 
L 37.796875 25.390625 
z
M 35.203125 72.90625 
L 47.609375 72.90625 
L 47.609375 25.390625 
L 58.015625 25.390625 
L 58.015625 17.1875 
L 47.609375 17.1875 
L 47.609375 0 
L 37.796875 0 
L 37.796875 17.1875 
L 4.890625 17.1875 
L 4.890625 26.703125 
z
" id="DejaVuSans-52"/>
      </defs>
      <g transform="translate(28.334375 153.864275)scale(0.1 -0.1)">
       <use xlink:href="#DejaVuSans-48"/>
       <use x="63.623047" xlink:href="#DejaVuSans-46"/>
       <use x="95.410156" xlink:href="#DejaVuSans-48"/>
       <use x="159.033203" xlink:href="#DejaVuSans-52"/>
      </g>
     </g>
    </g>
    <g id="ytick_6">
     <g id="line2d_11">
      <g>
       <use style="stroke:#000000;stroke-width:0.8;" x="57.6" xlink:href="#m8bb38717a8" y="110.685321"/>
      </g>
     </g>
     <g id="text_12">
      <!-- 0.05 -->
      <g transform="translate(28.334375 114.48454)scale(0.1 -0.1)">
       <use xlink:href="#DejaVuSans-48"/>
       <use x="63.623047" xlink:href="#DejaVuSans-46"/>
       <use x="95.410156" xlink:href="#DejaVuSans-48"/>
       <use x="159.033203" xlink:href="#DejaVuSans-53"/>
      </g>
     </g>
    </g>
    <g id="ytick_7">
     <g id="line2d_12">
      <g>
       <use style="stroke:#000000;stroke-width:0.8;" x="57.6" xlink:href="#m8bb38717a8" y="71.305585"/>
      </g>
     </g>
     <g id="text_13">
      <!-- 0.06 -->
      <defs>
       <path d="M 33.015625 40.375 
Q 26.375 40.375 22.484375 35.828125 
Q 18.609375 31.296875 18.609375 23.390625 
Q 18.609375 15.53125 22.484375 10.953125 
Q 26.375 6.390625 33.015625 6.390625 
Q 39.65625 6.390625 43.53125 10.953125 
Q 47.40625 15.53125 47.40625 23.390625 
Q 47.40625 31.296875 43.53125 35.828125 
Q 39.65625 40.375 33.015625 40.375 
z
M 52.59375 71.296875 
L 52.59375 62.3125 
Q 48.875 64.0625 45.09375 64.984375 
Q 41.3125 65.921875 37.59375 65.921875 
Q 27.828125 65.921875 22.671875 59.328125 
Q 17.53125 52.734375 16.796875 39.40625 
Q 19.671875 43.65625 24.015625 45.921875 
Q 28.375 48.1875 33.59375 48.1875 
Q 44.578125 48.1875 50.953125 41.515625 
Q 57.328125 34.859375 57.328125 23.390625 
Q 57.328125 12.15625 50.6875 5.359375 
Q 44.046875 -1.421875 33.015625 -1.421875 
Q 20.359375 -1.421875 13.671875 8.265625 
Q 6.984375 17.96875 6.984375 36.375 
Q 6.984375 53.65625 15.1875 63.9375 
Q 23.390625 74.21875 37.203125 74.21875 
Q 40.921875 74.21875 44.703125 73.484375 
Q 48.484375 72.75 52.59375 71.296875 
z
" id="DejaVuSans-54"/>
      </defs>
      <g transform="translate(28.334375 75.104804)scale(0.1 -0.1)">
       <use xlink:href="#DejaVuSans-48"/>
       <use x="63.623047" xlink:href="#DejaVuSans-46"/>
       <use x="95.410156" xlink:href="#DejaVuSans-48"/>
       <use x="159.033203" xlink:href="#DejaVuSans-54"/>
      </g>
     </g>
    </g>
    <g id="text_14">
     <!-- Prob. Density (a.u.) -->
     <defs>
      <path d="M 19.671875 64.796875 
L 19.671875 37.40625 
L 32.078125 37.40625 
Q 38.96875 37.40625 42.71875 40.96875 
Q 46.484375 44.53125 46.484375 51.125 
Q 46.484375 57.671875 42.71875 61.234375 
Q 38.96875 64.796875 32.078125 64.796875 
z
M 9.8125 72.90625 
L 32.078125 72.90625 
Q 44.34375 72.90625 50.609375 67.359375 
Q 56.890625 61.8125 56.890625 51.125 
Q 56.890625 40.328125 50.609375 34.8125 
Q 44.34375 29.296875 32.078125 29.296875 
L 19.671875 29.296875 
L 19.671875 0 
L 9.8125 0 
z
" id="DejaVuSans-80"/>
      <path d="M 41.109375 46.296875 
Q 39.59375 47.171875 37.8125 47.578125 
Q 36.03125 48 33.890625 48 
Q 26.265625 48 22.1875 43.046875 
Q 18.109375 38.09375 18.109375 28.8125 
L 18.109375 0 
L 9.078125 0 
L 9.078125 54.6875 
L 18.109375 54.6875 
L 18.109375 46.1875 
Q 20.953125 51.171875 25.484375 53.578125 
Q 30.03125 56 36.53125 56 
Q 37.453125 56 38.578125 55.875 
Q 39.703125 55.765625 41.0625 55.515625 
z
" id="DejaVuSans-114"/>
      <path d="M 30.609375 48.390625 
Q 23.390625 48.390625 19.1875 42.75 
Q 14.984375 37.109375 14.984375 27.296875 
Q 14.984375 17.484375 19.15625 11.84375 
Q 23.34375 6.203125 30.609375 6.203125 
Q 37.796875 6.203125 41.984375 11.859375 
Q 46.1875 17.53125 46.1875 27.296875 
Q 46.1875 37.015625 41.984375 42.703125 
Q 37.796875 48.390625 30.609375 48.390625 
z
M 30.609375 56 
Q 42.328125 56 49.015625 48.375 
Q 55.71875 40.765625 55.71875 27.296875 
Q 55.71875 13.875 49.015625 6.21875 
Q 42.328125 -1.421875 30.609375 -1.421875 
Q 18.84375 -1.421875 12.171875 6.21875 
Q 5.515625 13.875 5.515625 27.296875 
Q 5.515625 40.765625 12.171875 48.375 
Q 18.84375 56 30.609375 56 
z
" id="DejaVuSans-111"/>
      <path d="M 48.6875 27.296875 
Q 48.6875 37.203125 44.609375 42.84375 
Q 40.53125 48.484375 33.40625 48.484375 
Q 26.265625 48.484375 22.1875 42.84375 
Q 18.109375 37.203125 18.109375 27.296875 
Q 18.109375 17.390625 22.1875 11.75 
Q 26.265625 6.109375 33.40625 6.109375 
Q 40.53125 6.109375 44.609375 11.75 
Q 48.6875 17.390625 48.6875 27.296875 
z
M 18.109375 46.390625 
Q 20.953125 51.265625 25.265625 53.625 
Q 29.59375 56 35.59375 56 
Q 45.5625 56 51.78125 48.09375 
Q 58.015625 40.1875 58.015625 27.296875 
Q 58.015625 14.40625 51.78125 6.484375 
Q 45.5625 -1.421875 35.59375 -1.421875 
Q 29.59375 -1.421875 25.265625 0.953125 
Q 20.953125 3.328125 18.109375 8.203125 
L 18.109375 0 
L 9.078125 0 
L 9.078125 75.984375 
L 18.109375 75.984375 
z
" id="DejaVuSans-98"/>
      <path id="DejaVuSans-32"/>
      <path d="M 19.671875 64.796875 
L 19.671875 8.109375 
L 31.59375 8.109375 
Q 46.6875 8.109375 53.6875 14.9375 
Q 60.6875 21.78125 60.6875 36.53125 
Q 60.6875 51.171875 53.6875 57.984375 
Q 46.6875 64.796875 31.59375 64.796875 
z
M 9.8125 72.90625 
L 30.078125 72.90625 
Q 51.265625 72.90625 61.171875 64.09375 
Q 71.09375 55.28125 71.09375 36.53125 
Q 71.09375 17.671875 61.125 8.828125 
Q 51.171875 0 30.078125 0 
L 9.8125 0 
z
" id="DejaVuSans-68"/>
      <path d="M 56.203125 29.59375 
L 56.203125 25.203125 
L 14.890625 25.203125 
Q 15.484375 15.921875 20.484375 11.0625 
Q 25.484375 6.203125 34.421875 6.203125 
Q 39.59375 6.203125 44.453125 7.46875 
Q 49.3125 8.734375 54.109375 11.28125 
L 54.109375 2.78125 
Q 49.265625 0.734375 44.1875 -0.34375 
Q 39.109375 -1.421875 33.890625 -1.421875 
Q 20.796875 -1.421875 13.15625 6.1875 
Q 5.515625 13.8125 5.515625 26.8125 
Q 5.515625 40.234375 12.765625 48.109375 
Q 20.015625 56 32.328125 56 
Q 43.359375 56 49.78125 48.890625 
Q 56.203125 41.796875 56.203125 29.59375 
z
M 47.21875 32.234375 
Q 47.125 39.59375 43.09375 43.984375 
Q 39.0625 48.390625 32.421875 48.390625 
Q 24.90625 48.390625 20.390625 44.140625 
Q 15.875 39.890625 15.1875 32.171875 
z
" id="DejaVuSans-101"/>
      <path d="M 54.890625 33.015625 
L 54.890625 0 
L 45.90625 0 
L 45.90625 32.71875 
Q 45.90625 40.484375 42.875 44.328125 
Q 39.84375 48.1875 33.796875 48.1875 
Q 26.515625 48.1875 22.3125 43.546875 
Q 18.109375 38.921875 18.109375 30.90625 
L 18.109375 0 
L 9.078125 0 
L 9.078125 54.6875 
L 18.109375 54.6875 
L 18.109375 46.1875 
Q 21.34375 51.125 25.703125 53.5625 
Q 30.078125 56 35.796875 56 
Q 45.21875 56 50.046875 50.171875 
Q 54.890625 44.34375 54.890625 33.015625 
z
" id="DejaVuSans-110"/>
      <path d="M 44.28125 53.078125 
L 44.28125 44.578125 
Q 40.484375 46.53125 36.375 47.5 
Q 32.28125 48.484375 27.875 48.484375 
Q 21.1875 48.484375 17.84375 46.4375 
Q 14.5 44.390625 14.5 40.28125 
Q 14.5 37.15625 16.890625 35.375 
Q 19.28125 33.59375 26.515625 31.984375 
L 29.59375 31.296875 
Q 39.15625 29.25 43.1875 25.515625 
Q 47.21875 21.78125 47.21875 15.09375 
Q 47.21875 7.46875 41.1875 3.015625 
Q 35.15625 -1.421875 24.609375 -1.421875 
Q 20.21875 -1.421875 15.453125 -0.5625 
Q 10.6875 0.296875 5.421875 2 
L 5.421875 11.28125 
Q 10.40625 8.6875 15.234375 7.390625 
Q 20.0625 6.109375 24.8125 6.109375 
Q 31.15625 6.109375 34.5625 8.28125 
Q 37.984375 10.453125 37.984375 14.40625 
Q 37.984375 18.0625 35.515625 20.015625 
Q 33.0625 21.96875 24.703125 23.78125 
L 21.578125 24.515625 
Q 13.234375 26.265625 9.515625 29.90625 
Q 5.8125 33.546875 5.8125 39.890625 
Q 5.8125 47.609375 11.28125 51.796875 
Q 16.75 56 26.8125 56 
Q 31.78125 56 36.171875 55.265625 
Q 40.578125 54.546875 44.28125 53.078125 
z
" id="DejaVuSans-115"/>
      <path d="M 9.421875 54.6875 
L 18.40625 54.6875 
L 18.40625 0 
L 9.421875 0 
z
M 9.421875 75.984375 
L 18.40625 75.984375 
L 18.40625 64.59375 
L 9.421875 64.59375 
z
" id="DejaVuSans-105"/>
      <path d="M 18.3125 70.21875 
L 18.3125 54.6875 
L 36.8125 54.6875 
L 36.8125 47.703125 
L 18.3125 47.703125 
L 18.3125 18.015625 
Q 18.3125 11.328125 20.140625 9.421875 
Q 21.96875 7.515625 27.59375 7.515625 
L 36.8125 7.515625 
L 36.8125 0 
L 27.59375 0 
Q 17.1875 0 13.234375 3.875 
Q 9.28125 7.765625 9.28125 18.015625 
L 9.28125 47.703125 
L 2.6875 47.703125 
L 2.6875 54.6875 
L 9.28125 54.6875 
L 9.28125 70.21875 
z
" id="DejaVuSans-116"/>
      <path d="M 31 75.875 
Q 24.46875 64.65625 21.28125 53.65625 
Q 18.109375 42.671875 18.109375 31.390625 
Q 18.109375 20.125 21.3125 9.0625 
Q 24.515625 -2 31 -13.1875 
L 23.1875 -13.1875 
Q 15.875 -1.703125 12.234375 9.375 
Q 8.59375 20.453125 8.59375 31.390625 
Q 8.59375 42.28125 12.203125 53.3125 
Q 15.828125 64.359375 23.1875 75.875 
z
" id="DejaVuSans-40"/>
      <path d="M 34.28125 27.484375 
Q 23.390625 27.484375 19.1875 25 
Q 14.984375 22.515625 14.984375 16.5 
Q 14.984375 11.71875 18.140625 8.90625 
Q 21.296875 6.109375 26.703125 6.109375 
Q 34.1875 6.109375 38.703125 11.40625 
Q 43.21875 16.703125 43.21875 25.484375 
L 43.21875 27.484375 
z
M 52.203125 31.203125 
L 52.203125 0 
L 43.21875 0 
L 43.21875 8.296875 
Q 40.140625 3.328125 35.546875 0.953125 
Q 30.953125 -1.421875 24.3125 -1.421875 
Q 15.921875 -1.421875 10.953125 3.296875 
Q 6 8.015625 6 15.921875 
Q 6 25.140625 12.171875 29.828125 
Q 18.359375 34.515625 30.609375 34.515625 
L 43.21875 34.515625 
L 43.21875 35.40625 
Q 43.21875 41.609375 39.140625 45 
Q 35.0625 48.390625 27.6875 48.390625 
Q 23 48.390625 18.546875 47.265625 
Q 14.109375 46.140625 10.015625 43.890625 
L 10.015625 52.203125 
Q 14.9375 54.109375 19.578125 55.046875 
Q 24.21875 56 28.609375 56 
Q 40.484375 56 46.34375 49.84375 
Q 52.203125 43.703125 52.203125 31.203125 
z
" id="DejaVuSans-97"/>
      <path d="M 8.5 21.578125 
L 8.5 54.6875 
L 17.484375 54.6875 
L 17.484375 21.921875 
Q 17.484375 14.15625 20.5 10.265625 
Q 23.53125 6.390625 29.59375 6.390625 
Q 36.859375 6.390625 41.078125 11.03125 
Q 45.3125 15.671875 45.3125 23.6875 
L 45.3125 54.6875 
L 54.296875 54.6875 
L 54.296875 0 
L 45.3125 0 
L 45.3125 8.40625 
Q 42.046875 3.421875 37.71875 1 
Q 33.40625 -1.421875 27.6875 -1.421875 
Q 18.265625 -1.421875 13.375 4.4375 
Q 8.5 10.296875 8.5 21.578125 
z
M 31.109375 56 
z
" id="DejaVuSans-117"/>
      <path d="M 8.015625 75.875 
L 15.828125 75.875 
Q 23.140625 64.359375 26.78125 53.3125 
Q 30.421875 42.28125 30.421875 31.390625 
Q 30.421875 20.453125 26.78125 9.375 
Q 23.140625 -1.703125 15.828125 -13.1875 
L 8.015625 -13.1875 
Q 14.5 -2 17.703125 9.0625 
Q 20.90625 20.125 20.90625 31.390625 
Q 20.90625 42.671875 17.703125 53.65625 
Q 14.5 64.65625 8.015625 75.875 
z
" id="DejaVuSans-41"/>
     </defs>
     <g transform="translate(22.254687 222.917844)rotate(-90)scale(0.1 -0.1)">
      <use xlink:href="#DejaVuSans-80"/>
      <use x="60.287109" xlink:href="#DejaVuSans-114"/>
      <use x="101.369141" xlink:href="#DejaVuSans-111"/>
      <use x="162.550781" xlink:href="#DejaVuSans-98"/>
      <use x="226.027344" xlink:href="#DejaVuSans-46"/>
      <use x="257.814453" xlink:href="#DejaVuSans-32"/>
      <use x="289.601562" xlink:href="#DejaVuSans-68"/>
      <use x="366.603516" xlink:href="#DejaVuSans-101"/>
      <use x="428.126953" xlink:href="#DejaVuSans-110"/>
      <use x="491.505859" xlink:href="#DejaVuSans-115"/>
      <use x="543.605469" xlink:href="#DejaVuSans-105"/>
      <use x="571.388672" xlink:href="#DejaVuSans-116"/>
      <use x="610.597656" xlink:href="#DejaVuSans-121"/>
      <use x="669.777344" xlink:href="#DejaVuSans-32"/>
      <use x="701.564453" xlink:href="#DejaVuSans-40"/>
      <use x="740.578125" xlink:href="#DejaVuSans-97"/>
      <use x="801.857422" xlink:href="#DejaVuSans-46"/>
      <use x="833.644531" xlink:href="#DejaVuSans-117"/>
      <use x="897.023438" xlink:href="#DejaVuSans-46"/>
      <use x="928.810547" xlink:href="#DejaVuSans-41"/>
     </g>
    </g>
   </g>
   <g id="patch_9">
    <path d="M 57.6 307.584 
L 57.6 41.472 
" style="fill:none;stroke:#000000;stroke-linecap:square;stroke-linejoin:miter;stroke-width:0.8;"/>
   </g>
   <g id="patch_10">
    <path d="M 414.72 307.584 
L 414.72 41.472 
" style="fill:none;stroke:#000000;stroke-linecap:square;stroke-linejoin:miter;stroke-width:0.8;"/>
   </g>
   <g id="patch_11">
    <path d="M 57.6 307.584 
L 414.72 307.584 
" style="fill:none;stroke:#000000;stroke-linecap:square;stroke-linejoin:miter;stroke-width:0.8;"/>
   </g>
   <g id="patch_12">
    <path d="M 57.6 41.472 
L 414.72 41.472 
" style="fill:none;stroke:#000000;stroke-linecap:square;stroke-linejoin:miter;stroke-width:0.8;"/>
   </g>
   <g id="legend_1">
    <g id="patch_13">
     <path d="M 325.405938 137.54075 
L 407.72 137.54075 
Q 409.72 137.54075 409.72 135.54075 
L 409.72 48.472 
Q 409.72 46.472 407.72 46.472 
L 325.405938 46.472 
Q 323.405938 46.472 323.405938 48.472 
L 323.405938 135.54075 
Q 323.405938 137.54075 325.405938 137.54075 
z
" style="fill:#ffffff;opacity:0.8;stroke:#cccccc;stroke-linejoin:miter;"/>
    </g>
    <g id="patch_14">
     <path d="M 327.405938 58.070438 
L 347.405938 58.070438 
L 347.405938 51.070438 
L 327.405938 51.070438 
z
" style="fill:none;stroke:#1f77b4;stroke-linejoin:miter;"/>
    </g>
    <g id="text_15">
     <!-- quark -->
     <defs>
      <path d="M 14.796875 27.296875 
Q 14.796875 17.390625 18.875 11.75 
Q 22.953125 6.109375 30.078125 6.109375 
Q 37.203125 6.109375 41.296875 11.75 
Q 45.40625 17.390625 45.40625 27.296875 
Q 45.40625 37.203125 41.296875 42.84375 
Q 37.203125 48.484375 30.078125 48.484375 
Q 22.953125 48.484375 18.875 42.84375 
Q 14.796875 37.203125 14.796875 27.296875 
z
M 45.40625 8.203125 
Q 42.578125 3.328125 38.25 0.953125 
Q 33.9375 -1.421875 27.875 -1.421875 
Q 17.96875 -1.421875 11.734375 6.484375 
Q 5.515625 14.40625 5.515625 27.296875 
Q 5.515625 40.1875 11.734375 48.09375 
Q 17.96875 56 27.875 56 
Q 33.9375 56 38.25 53.625 
Q 42.578125 51.265625 45.40625 46.390625 
L 45.40625 54.6875 
L 54.390625 54.6875 
L 54.390625 -20.796875 
L 45.40625 -20.796875 
z
" id="DejaVuSans-113"/>
      <path d="M 9.078125 75.984375 
L 18.109375 75.984375 
L 18.109375 31.109375 
L 44.921875 54.6875 
L 56.390625 54.6875 
L 27.390625 29.109375 
L 57.625 0 
L 45.90625 0 
L 18.109375 26.703125 
L 18.109375 0 
L 9.078125 0 
z
" id="DejaVuSans-107"/>
     </defs>
     <g transform="translate(355.405938 58.070438)scale(0.1 -0.1)">
      <use xlink:href="#DejaVuSans-113"/>
      <use x="63.476562" xlink:href="#DejaVuSans-117"/>
      <use x="126.855469" xlink:href="#DejaVuSans-97"/>
      <use x="188.134766" xlink:href="#DejaVuSans-114"/>
      <use x="229.248047" xlink:href="#DejaVuSans-107"/>
     </g>
    </g>
    <g id="patch_15">
     <path d="M 327.405938 72.748563 
L 347.405938 72.748563 
L 347.405938 65.748563 
L 327.405938 65.748563 
z
" style="fill:none;stroke:#ff7f0e;stroke-linejoin:miter;"/>
    </g>
    <g id="text_16">
     <!-- gluon -->
     <defs>
      <path d="M 45.40625 27.984375 
Q 45.40625 37.75 41.375 43.109375 
Q 37.359375 48.484375 30.078125 48.484375 
Q 22.859375 48.484375 18.828125 43.109375 
Q 14.796875 37.75 14.796875 27.984375 
Q 14.796875 18.265625 18.828125 12.890625 
Q 22.859375 7.515625 30.078125 7.515625 
Q 37.359375 7.515625 41.375 12.890625 
Q 45.40625 18.265625 45.40625 27.984375 
z
M 54.390625 6.78125 
Q 54.390625 -7.171875 48.1875 -13.984375 
Q 42 -20.796875 29.203125 -20.796875 
Q 24.46875 -20.796875 20.265625 -20.09375 
Q 16.0625 -19.390625 12.109375 -17.921875 
L 12.109375 -9.1875 
Q 16.0625 -11.328125 19.921875 -12.34375 
Q 23.78125 -13.375 27.78125 -13.375 
Q 36.625 -13.375 41.015625 -8.765625 
Q 45.40625 -4.15625 45.40625 5.171875 
L 45.40625 9.625 
Q 42.625 4.78125 38.28125 2.390625 
Q 33.9375 0 27.875 0 
Q 17.828125 0 11.671875 7.65625 
Q 5.515625 15.328125 5.515625 27.984375 
Q 5.515625 40.671875 11.671875 48.328125 
Q 17.828125 56 27.875 56 
Q 33.9375 56 38.28125 53.609375 
Q 42.625 51.21875 45.40625 46.390625 
L 45.40625 54.6875 
L 54.390625 54.6875 
z
" id="DejaVuSans-103"/>
      <path d="M 9.421875 75.984375 
L 18.40625 75.984375 
L 18.40625 0 
L 9.421875 0 
z
" id="DejaVuSans-108"/>
     </defs>
     <g transform="translate(355.405938 72.748563)scale(0.1 -0.1)">
      <use xlink:href="#DejaVuSans-103"/>
      <use x="63.476562" xlink:href="#DejaVuSans-108"/>
      <use x="91.259766" xlink:href="#DejaVuSans-117"/>
      <use x="154.638672" xlink:href="#DejaVuSans-111"/>
      <use x="215.820312" xlink:href="#DejaVuSans-110"/>
     </g>
    </g>
    <g id="patch_16">
     <path d="M 327.405938 87.426688 
L 347.405938 87.426688 
L 347.405938 80.426688 
L 327.405938 80.426688 
z
" style="fill:none;stroke:#2ca02c;stroke-linejoin:miter;"/>
    </g>
    <g id="text_17">
     <!-- W -->
     <defs>
      <path d="M 3.328125 72.90625 
L 13.28125 72.90625 
L 28.609375 11.28125 
L 43.890625 72.90625 
L 54.984375 72.90625 
L 70.3125 11.28125 
L 85.59375 72.90625 
L 95.609375 72.90625 
L 77.296875 0 
L 64.890625 0 
L 49.515625 63.28125 
L 33.984375 0 
L 21.578125 0 
z
" id="DejaVuSans-87"/>
     </defs>
     <g transform="translate(355.405938 87.426688)scale(0.1 -0.1)">
      <use xlink:href="#DejaVuSans-87"/>
     </g>
    </g>
    <g id="patch_17">
     <path d="M 327.405938 102.104813 
L 347.405938 102.104813 
L 347.405938 95.104813 
L 327.405938 95.104813 
z
" style="fill:none;stroke:#d62728;stroke-linejoin:miter;"/>
    </g>
    <g id="text_18">
     <!-- Z -->
     <defs>
      <path d="M 5.609375 72.90625 
L 62.890625 72.90625 
L 62.890625 65.375 
L 16.796875 8.296875 
L 64.015625 8.296875 
L 64.015625 0 
L 4.5 0 
L 4.5 7.515625 
L 50.59375 64.59375 
L 5.609375 64.59375 
z
" id="DejaVuSans-90"/>
     </defs>
     <g transform="translate(355.405938 102.104813)scale(0.1 -0.1)">
      <use xlink:href="#DejaVuSans-90"/>
     </g>
    </g>
    <g id="patch_18">
     <path d="M 327.405938 116.782938 
L 347.405938 116.782938 
L 347.405938 109.782938 
L 327.405938 109.782938 
z
" style="fill:none;stroke:#9467bd;stroke-linejoin:miter;"/>
    </g>
    <g id="text_19">
     <!-- top -->
     <g transform="translate(355.405938 116.782938)scale(0.1 -0.1)">
      <use xlink:href="#DejaVuSans-116"/>
      <use x="39.208984" xlink:href="#DejaVuSans-111"/>
      <use x="100.390625" xlink:href="#DejaVuSans-112"/>
     </g>
    </g>
    <g id="patch_19">
     <path d="M 327.405938 131.461063 
L 347.405938 131.461063 
L 347.405938 124.461063 
L 327.405938 124.461063 
z
" style="fill:none;stroke:#000000;stroke-linejoin:miter;"/>
    </g>
    <g id="text_20">
     <!-- undefined -->
     <defs>
      <path d="M 45.40625 46.390625 
L 45.40625 75.984375 
L 54.390625 75.984375 
L 54.390625 0 
L 45.40625 0 
L 45.40625 8.203125 
Q 42.578125 3.328125 38.25 0.953125 
Q 33.9375 -1.421875 27.875 -1.421875 
Q 17.96875 -1.421875 11.734375 6.484375 
Q 5.515625 14.40625 5.515625 27.296875 
Q 5.515625 40.1875 11.734375 48.09375 
Q 17.96875 56 27.875 56 
Q 33.9375 56 38.25 53.625 
Q 42.578125 51.265625 45.40625 46.390625 
z
M 14.796875 27.296875 
Q 14.796875 17.390625 18.875 11.75 
Q 22.953125 6.109375 30.078125 6.109375 
Q 37.203125 6.109375 41.296875 11.75 
Q 45.40625 17.390625 45.40625 27.296875 
Q 45.40625 37.203125 41.296875 42.84375 
Q 37.203125 48.484375 30.078125 48.484375 
Q 22.953125 48.484375 18.875 42.84375 
Q 14.796875 37.203125 14.796875 27.296875 
z
" id="DejaVuSans-100"/>
      <path d="M 37.109375 75.984375 
L 37.109375 68.5 
L 28.515625 68.5 
Q 23.6875 68.5 21.796875 66.546875 
Q 19.921875 64.59375 19.921875 59.515625 
L 19.921875 54.6875 
L 34.71875 54.6875 
L 34.71875 47.703125 
L 19.921875 47.703125 
L 19.921875 0 
L 10.890625 0 
L 10.890625 47.703125 
L 2.296875 47.703125 
L 2.296875 54.6875 
L 10.890625 54.6875 
L 10.890625 58.5 
Q 10.890625 67.625 15.140625 71.796875 
Q 19.390625 75.984375 28.609375 75.984375 
z
" id="DejaVuSans-102"/>
     </defs>
     <g transform="translate(355.405938 131.461063)scale(0.1 -0.1)">
      <use xlink:href="#DejaVuSans-117"/>
      <use x="63.378906" xlink:href="#DejaVuSans-110"/>
      <use x="126.757812" xlink:href="#DejaVuSans-100"/>
      <use x="190.234375" xlink:href="#DejaVuSans-101"/>
      <use x="251.757812" xlink:href="#DejaVuSans-102"/>
      <use x="286.962891" xlink:href="#DejaVuSans-105"/>
      <use x="314.746094" xlink:href="#DejaVuSans-110"/>
      <use x="378.125" xlink:href="#DejaVuSans-101"/>
      <use x="439.648438" xlink:href="#DejaVuSans-100"/>
     </g>
    </g>
   </g>
  </g>
 </g>
 <defs>
  <clipPath id="p9c5dab3d28">
   <rect height="266.112" width="357.12" x="57.6" y="41.472"/>
  </clipPath>
 </defs>
</svg>
