<?xml version="1.0" encoding="utf-8" standalone="no"?>
<!DOCTYPE svg PUBLIC "-//W3C//DTD SVG 1.1//EN"
  "http://www.w3.org/Graphics/SVG/1.1/DTD/svg11.dtd">
<!-- Created with matplotlib (https://matplotlib.org/) -->
<svg height="345.6pt" version="1.1" viewBox="0 0 460.8 345.6" width="460.8pt" xmlns="http://www.w3.org/2000/svg" xmlns:xlink="http://www.w3.org/1999/xlink">
 <defs>
  <style type="text/css">
*{stroke-linecap:butt;stroke-linejoin:round;}
  </style>
 </defs>
 <g id="figure_1">
  <g id="patch_1">
   <path d="M 0 345.6 
L 460.8 345.6 
L 460.8 0 
L 0 0 
z
" style="fill:#ffffff;"/>
  </g>
  <g id="axes_1">
   <g id="patch_2">
    <path d="M 57.6 307.584 
L 414.72 307.584 
L 414.72 41.472 
L 57.6 41.472 
z
" style="fill:#ffffff;"/>
   </g>
   <g id="patch_3">
    <path clip-path="url(#p03d3ba3d79)" d="M 73.83273 307.584 
L 73.83273 304.649655 
L 77.079279 304.649655 
L 77.079279 304.379682 
L 83.572364 304.472887 
L 83.572364 303.884733 
L 86.818912 303.884733 
L 86.818912 303.675825 
L 90.065448 303.675825 
L 90.065448 303.47656 
L 96.558546 303.421922 
L 96.558546 303.123024 
L 99.805095 303.123024 
L 99.805095 302.936614 
L 103.05163 302.936614 
L 103.05163 302.441664 
L 106.298179 302.441664 
L 106.298179 302.207045 
L 109.544728 302.207045 
L 109.544728 301.631746 
L 112.791277 301.631746 
L 112.791277 301.760304 
L 116.037812 301.760304 
L 116.037812 301.217146 
L 119.284361 301.217146 
L 119.284361 300.690057 
L 125.777452 300.648275 
L 125.777452 300.41687 
L 129.024001 300.41687 
L 129.024001 299.597311 
L 132.270544 299.597311 
L 132.270544 299.401259 
L 138.763635 299.324124 
L 138.763635 298.674904 
L 142.010184 298.674904 
L 142.010184 298.250661 
L 145.256726 298.250661 
L 145.256726 297.537161 
L 148.503275 297.537161 
L 148.503275 297.09685 
L 151.749817 297.09685 
L 151.749817 296.778667 
L 154.996366 296.778667 
L 154.996366 296.145518 
L 158.242908 296.145518 
L 158.242908 295.284176 
L 161.489457 295.284176 
L 161.489457 294.483899 
L 164.735999 294.483899 
L 164.735999 293.966454 
L 167.982541 293.966454 
L 167.982541 293.416866 
L 171.22909 293.416866 
L 171.22909 292.536241 
L 174.475632 292.536241 
L 174.475632 291.55277 
L 177.722181 291.55277 
L 177.722181 290.267185 
L 180.968727 290.267185 
L 180.968727 289.049096 
L 184.215272 289.049096 
L 184.215272 287.79565 
L 187.461818 287.79565 
L 187.461818 286.082609 
L 190.708364 286.082609 
L 190.708364 284.404924 
L 193.954909 284.404924 
L 193.954909 282.801154 
L 197.201455 282.801154 
L 197.201455 280.432468 
L 200.448 280.432468 
L 200.448 278.121633 
L 203.694546 278.121633 
L 203.694546 274.933386 
L 206.941088 274.933386 
L 206.941088 271.819057 
L 210.187635 271.819057 
L 210.187635 267.014185 
L 213.434181 267.014185 
L 213.434181 260.836955 
L 216.680726 260.836955 
L 216.680726 253.875525 
L 219.927272 253.875525 
L 219.927272 243.597281 
L 223.173817 243.597281 
L 223.173817 230.256131 
L 226.420362 230.256131 
L 226.420362 209.484317 
L 229.666908 209.484317 
L 229.666908 169.226256 
L 232.913453 169.226256 
L 232.913453 89.989273 
L 236.159999 89.989273 
L 236.159999 91.262005 
L 239.406544 91.262005 
L 239.406544 171.710636 
L 242.653089 171.710636 
L 242.653089 209.44251 
L 245.899635 209.44251 
L 245.899635 230.159706 
L 249.14618 230.159706 
L 249.14618 244.648244 
L 252.392726 244.648244 
L 252.392726 253.628044 
L 255.639271 253.628044 
L 255.639271 261.527959 
L 258.885817 261.527959 
L 258.885817 266.940268 
L 262.132363 266.940268 
L 262.132363 271.414096 
L 265.378908 271.414096 
L 265.378908 274.933382 
L 268.625454 274.933382 
L 268.625454 278.099134 
L 271.871999 278.099134 
L 271.871999 280.066076 
L 275.118545 280.066076 
L 275.118545 283.02292 
L 278.36509 283.02292 
L 278.36509 284.726318 
L 281.611636 284.726318 
L 281.611636 286.256165 
L 284.858181 286.256165 
L 284.858181 287.901711 
L 288.104724 287.901711 
L 288.104724 288.415944 
L 291.351269 288.415944 
L 291.351269 290.215762 
L 294.597815 290.215762 
L 294.597815 291.565624 
L 297.844364 291.565624 
L 297.844364 292.263055 
L 301.090906 292.263055 
L 301.090906 293.204746 
L 304.337455 293.204746 
L 304.337455 294.027518 
L 307.583997 294.027518 
L 307.583997 294.763515 
L 310.830546 294.763515 
L 310.830546 295.448088 
L 314.077088 295.448088 
L 314.077088 295.978393 
L 317.323637 295.978393 
L 317.323637 296.653324 
L 320.570179 296.653324 
L 320.570179 297.276831 
L 323.816728 297.276831 
L 323.816728 297.829633 
L 330.309813 297.922838 
L 330.309813 298.649192 
L 333.556362 298.649192 
L 333.556362 299.112003 
L 336.802904 299.112003 
L 336.802904 299.369121 
L 340.049453 299.369121 
L 340.049453 299.851214 
L 343.295995 299.851214 
L 343.295995 300.269028 
L 346.542544 300.269028 
L 346.542544 300.583996 
L 349.789086 300.583996 
L 349.789086 300.918248 
L 353.035628 300.918248 
L 353.035628 301.123941 
L 356.282177 301.123941 
L 356.282177 301.644602 
L 359.528726 301.644602 
L 359.528726 301.458192 
L 362.775275 301.458192 
L 362.775275 302.039919 
L 366.02181 302.039919 
L 366.02181 302.387027 
L 369.268359 302.387027 
L 369.268359 302.685925 
L 372.514908 302.685925 
L 372.514908 303.004108 
L 375.761457 303.004108 
L 375.761457 303.44442 
L 382.254542 303.479774 
L 382.254542 303.868663 
L 388.747639 303.942584 
L 388.747639 304.122566 
L 391.994175 304.122566 
L 391.994175 304.488957 
L 398.487273 304.595017 
L 398.487273 307.584 
L 398.487273 307.584 
" style="fill:none;stroke:#1f77b4;stroke-linejoin:miter;"/>
   </g>
   <g id="patch_4">
    <path clip-path="url(#p03d3ba3d79)" d="M 73.83273 307.584 
L 73.83273 302.415954 
L 77.079279 302.415954 
L 77.079279 301.824585 
L 80.325815 301.824585 
L 80.325815 301.426053 
L 83.572364 301.426053 
L 83.572364 300.6772 
L 86.818912 300.6772 
L 86.818912 300.269027 
L 90.065448 300.269027 
L 90.065448 299.963701 
L 93.311997 299.963701 
L 93.311997 299.761221 
L 96.558546 299.761221 
L 96.558546 298.896666 
L 99.805095 298.896666 
L 99.805095 298.369578 
L 103.05163 298.369578 
L 103.05163 297.569301 
L 106.298179 297.569301 
L 106.298179 296.634039 
L 109.544728 296.634039 
L 109.544728 296.437989 
L 112.791277 296.437989 
L 112.791277 295.67628 
L 116.037812 295.67628 
L 116.037812 295.39988 
L 119.284361 295.39988 
L 119.284361 294.79244 
L 122.53091 294.79244 
L 122.53091 294.15929 
L 125.777452 294.15929 
L 125.777452 293.269024 
L 129.024001 293.269024 
L 129.024001 292.378756 
L 132.270544 292.378756 
L 132.270544 291.157452 
L 135.517092 291.157452 
L 135.517092 290.331464 
L 138.763635 290.331464 
L 138.763635 289.17765 
L 142.010184 289.17765 
L 142.010184 288.666634 
L 145.256726 288.666634 
L 145.256726 287.757081 
L 148.503275 287.757081 
L 148.503275 286.564703 
L 151.749817 286.564703 
L 151.749817 284.954508 
L 154.996366 284.954508 
L 154.996366 283.945325 
L 158.242908 283.945325 
L 158.242908 282.804371 
L 161.489457 282.804371 
L 161.489457 281.374157 
L 164.735999 281.374157 
L 164.735999 279.886096 
L 167.982541 279.886096 
L 167.982541 278.349822 
L 171.22909 278.349822 
L 171.22909 275.958636 
L 174.475632 275.958636 
L 174.475632 274.560565 
L 177.722181 274.560565 
L 177.722181 271.921908 
L 180.968727 271.921908 
L 180.968727 269.013269 
L 184.215272 269.013269 
L 184.215272 266.676719 
L 187.461818 266.676719 
L 187.461818 263.456337 
L 190.708364 263.456337 
L 190.708364 259.281402 
L 193.954909 259.281402 
L 193.954909 254.839711 
L 197.201455 254.839711 
L 197.201455 251.278641 
L 200.448 251.278641 
L 200.448 245.606 
L 203.694546 245.606 
L 203.694546 239.875508 
L 206.941088 239.875508 
L 206.941088 232.669816 
L 210.187635 232.669816 
L 210.187635 224.139952 
L 213.434181 224.139952 
L 213.434181 213.893864 
L 216.680726 213.893864 
L 216.680726 200.976966 
L 219.927272 200.976966 
L 219.927272 185.051785 
L 223.173817 185.051785 
L 223.173817 162.917242 
L 226.420362 162.917242 
L 226.420362 134.502641 
L 229.666908 134.502641 
L 229.666908 97.529243 
L 232.913453 97.529243 
L 232.913453 54.144 
L 236.159999 54.144 
L 236.159999 54.262923 
L 239.406544 54.262923 
L 239.406544 99.849736 
L 242.653089 99.849736 
L 242.653089 136.546731 
L 245.899635 136.546731 
L 245.899635 163.283634 
L 249.14618 163.283634 
L 249.14618 185.816721 
L 252.392726 185.816721 
L 252.392726 200.623424 
L 255.639271 200.623424 
L 255.639271 212.556858 
L 258.885817 212.556858 
L 258.885817 224.612417 
L 262.132363 224.612417 
L 262.132363 232.978348 
L 265.378908 232.978348 
L 265.378908 239.534832 
L 268.625454 239.534832 
L 268.625454 246.287365 
L 271.871999 246.287365 
L 271.871999 250.51372 
L 275.118545 250.51372 
L 275.118545 255.479291 
L 278.36509 255.479291 
L 278.36509 259.548154 
L 281.611636 259.548154 
L 281.611636 263.118879 
L 284.858181 263.118879 
L 284.858181 265.783244 
L 288.104724 265.783244 
L 288.104724 268.807579 
L 291.351269 268.807579 
L 291.351269 271.089488 
L 294.597815 271.089488 
L 294.597815 273.612448 
L 297.844364 273.612448 
L 297.844364 276.180397 
L 301.090906 276.180397 
L 301.090906 277.600969 
L 304.337455 277.600969 
L 304.337455 279.127606 
L 307.583997 279.127606 
L 307.583997 282.020169 
L 310.830546 282.020169 
L 310.830546 282.852581 
L 314.077088 282.852581 
L 314.077088 284.752029 
L 317.323637 284.752029 
L 317.323637 285.558734 
L 320.570179 285.558734 
L 320.570179 286.577559 
L 323.816728 286.577559 
L 323.816728 287.631741 
L 327.06327 287.631741 
L 327.06327 288.58307 
L 330.309813 288.58307 
L 330.309813 289.746525 
L 333.556362 289.746525 
L 333.556362 290.460024 
L 336.802904 290.460024 
L 336.802904 291.077104 
L 340.049453 291.077104 
L 340.049453 292.21163 
L 343.295995 292.21163 
L 343.295995 293.651484 
L 346.542544 293.651484 
L 346.542544 294.287848 
L 349.789086 294.287848 
L 349.789086 294.435691 
L 353.035628 294.435691 
L 353.035628 295.030272 
L 356.282177 295.030272 
L 356.282177 295.480229 
L 359.528726 295.480229 
L 359.528726 296.695105 
L 362.775275 296.695105 
L 362.775275 297.180414 
L 366.02181 297.180414 
L 366.02181 297.694647 
L 369.268359 297.694647 
L 369.268359 298.157455 
L 372.514908 298.157455 
L 372.514908 298.482065 
L 375.761457 298.482065 
L 375.761457 299.372331 
L 379.007993 299.372331 
L 379.007993 300.040836 
L 382.254542 300.040836 
L 382.254542 300.394371 
L 385.50109 300.394371 
L 385.50109 300.866824 
L 388.747639 300.866824 
L 388.747639 301.422838 
L 391.994175 301.422838 
L 391.994175 301.937073 
L 395.240724 301.937073 
L 395.240724 302.322749 
L 398.487273 302.322749 
L 398.487273 307.584 
L 398.487273 307.584 
" style="fill:none;stroke:#ff7f0e;stroke-linejoin:miter;"/>
   </g>
   <g id="patch_5">
    <path clip-path="url(#p03d3ba3d79)" d="M 73.83273 307.584 
L 73.83273 306.1795 
L 77.079279 306.1795 
L 77.079279 305.848462 
L 83.572364 305.944881 
L 83.572364 305.629913 
L 90.065448 305.543136 
L 90.065448 305.347084 
L 96.558546 305.318159 
L 96.558546 305.131749 
L 99.805095 305.131749 
L 99.805095 304.900343 
L 103.05163 304.900343 
L 103.05163 304.69465 
L 106.298179 304.69465 
L 106.298179 304.575734 
L 109.544728 304.575734 
L 109.544728 304.447175 
L 112.791277 304.447175 
L 112.791277 304.193273 
L 116.037812 304.193273 
L 116.037812 304.032575 
L 119.284361 304.032575 
L 119.284361 303.695109 
L 122.53091 303.695109 
L 122.53091 303.441206 
L 125.777452 303.441206 
L 125.777452 303.248369 
L 129.024001 303.248369 
L 129.024001 302.849837 
L 132.270544 302.849837 
L 132.270544 302.73092 
L 135.517092 302.73092 
L 135.517092 302.16205 
L 142.010184 302.094556 
L 142.010184 301.609249 
L 145.256726 301.609249 
L 145.256726 300.670773 
L 148.503275 300.670773 
L 148.503275 300.291526 
L 151.749817 300.291526 
L 151.749817 299.642306 
L 154.996366 299.642306 
L 154.996366 298.771324 
L 158.242908 298.771324 
L 158.242908 298.067466 
L 161.489457 298.067466 
L 161.489457 296.859016 
L 164.735999 296.859016 
L 164.735999 295.624856 
L 167.982541 295.624856 
L 167.982541 294.197857 
L 171.22909 294.197857 
L 171.22909 293.108325 
L 174.475632 293.108325 
L 174.475632 291.462777 
L 177.722181 291.462777 
L 177.722181 289.267643 
L 180.968727 289.267643 
L 180.968727 286.96645 
L 184.215272 286.96645 
L 184.215272 284.241009 
L 187.461818 284.241009 
L 187.461818 280.647806 
L 190.708364 280.647806 
L 190.708364 277.774524 
L 193.954909 277.774524 
L 193.954909 273.528884 
L 197.201455 273.528884 
L 197.201455 269.032555 
L 200.448 269.032555 
L 200.448 263.498117 
L 203.694546 263.498117 
L 203.694546 255.839247 
L 206.941088 255.839247 
L 206.941088 249.854856 
L 210.187635 249.854856 
L 210.187635 242.482029 
L 213.434181 242.482029 
L 213.434181 233.990746 
L 216.680726 233.990746 
L 216.680726 223.770358 
L 219.927272 223.770358 
L 219.927272 213.868148 
L 223.173817 213.868148 
L 223.173817 206.000374 
L 226.420362 206.000374 
L 226.420362 200.025623 
L 229.666908 200.025623 
L 229.666908 196.79882 
L 232.913453 196.79882 
L 232.913453 190.107353 
L 236.159999 190.107353 
L 236.159999 190.28091 
L 239.406544 190.28091 
L 239.406544 196.011402 
L 242.653089 196.011402 
L 242.653089 199.488885 
L 245.899635 199.488885 
L 245.899635 207.796987 
L 249.14618 207.796987 
L 249.14618 214.951241 
L 252.392726 214.951241 
L 252.392726 224.159247 
L 255.639271 224.159247 
L 255.639271 232.991214 
L 258.885817 232.991214 
L 258.885817 241.980653 
L 262.132363 241.980653 
L 262.132363 249.642738 
L 265.378908 249.642738 
L 265.378908 257.070199 
L 268.625454 257.070199 
L 268.625454 263.584888 
L 271.871999 263.584888 
L 271.871999 268.360838 
L 275.118545 268.360838 
L 275.118545 273.413176 
L 278.36509 273.413176 
L 278.36509 277.302073 
L 281.611636 277.302073 
L 281.611636 280.917775 
L 284.858181 280.917775 
L 284.858181 284.572048 
L 288.104724 284.572048 
L 288.104724 286.988945 
L 291.351269 286.988945 
L 291.351269 289.325495 
L 294.597815 289.325495 
L 294.597815 291.575267 
L 297.844364 291.575267 
L 297.844364 293.54221 
L 301.090906 293.54221 
L 301.090906 294.287849 
L 304.337455 294.287849 
L 304.337455 295.830548 
L 307.583997 295.830548 
L 307.583997 296.714388 
L 310.830546 296.714388 
L 310.830546 298.179955 
L 314.077088 298.179955 
L 314.077088 298.80989 
L 317.323637 298.80989 
L 317.323637 299.574813 
L 320.570179 299.574813 
L 320.570179 300.490791 
L 323.816728 300.490791 
L 323.816728 300.677201 
L 327.06327 300.677201 
L 327.06327 301.22036 
L 330.309813 301.22036 
L 330.309813 302.075273 
L 333.556362 302.075273 
L 333.556362 302.197403 
L 336.802904 302.197403 
L 336.802904 302.734135 
L 340.049453 302.734135 
L 340.049453 303.132666 
L 343.295995 303.132666 
L 343.295995 303.454062 
L 346.542544 303.454062 
L 346.542544 303.627616 
L 349.789086 303.627616 
L 349.789086 303.788314 
L 353.035628 303.788314 
L 353.035628 303.974724 
L 356.282177 303.974724 
L 356.282177 304.173989 
L 359.528726 304.173989 
L 359.528726 304.437533 
L 362.775275 304.437533 
L 362.775275 304.57252 
L 366.02181 304.57252 
L 366.02181 304.909986 
L 372.514908 304.980693 
L 372.514908 305.122107 
L 379.007993 305.228167 
L 379.007993 305.440289 
L 382.254542 305.440289 
L 382.254542 305.678122 
L 391.994175 305.771327 
L 391.994175 305.986662 
L 395.240724 305.986662 
L 395.240724 306.102365 
L 398.487273 306.102365 
L 398.487273 307.584 
L 398.487273 307.584 
" style="fill:none;stroke:#2ca02c;stroke-linejoin:miter;"/>
   </g>
   <g id="patch_6">
    <path clip-path="url(#p03d3ba3d79)" d="M 73.83273 307.584 
L 73.83273 305.986662 
L 77.079279 305.986662 
L 77.079279 305.851676 
L 80.325815 305.851676 
L 80.325815 305.626699 
L 83.572364 305.626699 
L 83.572364 305.414577 
L 90.065448 305.437075 
L 90.065448 305.093181 
L 96.558546 305.064255 
L 96.558546 304.906772 
L 99.805095 304.906772 
L 99.805095 304.620729 
L 103.05163 304.620729 
L 103.05163 304.151491 
L 109.544728 304.128993 
L 109.544728 303.974723 
L 112.791277 303.974723 
L 112.791277 303.540839 
L 119.284361 303.637258 
L 119.284361 303.106954 
L 122.53091 303.106954 
L 122.53091 302.885191 
L 125.777452 302.885191 
L 125.777452 302.685925 
L 129.024001 302.685925 
L 129.024001 301.921003 
L 132.270544 301.921003 
L 132.270544 301.683169 
L 135.517092 301.683169 
L 135.517092 301.268569 
L 138.763635 301.268569 
L 138.763635 300.423298 
L 142.010184 300.423298 
L 142.010184 299.925134 
L 145.256726 299.925134 
L 145.256726 299.314483 
L 148.503275 299.314483 
L 148.503275 298.861314 
L 151.749817 298.861314 
L 151.749817 297.733215 
L 154.996366 297.733215 
L 154.996366 296.842946 
L 158.242908 296.842946 
L 158.242908 295.763056 
L 161.489457 295.763056 
L 161.489457 294.419621 
L 164.735999 294.419621 
L 164.735999 293.252955 
L 167.982541 293.252955 
L 167.982541 291.851667 
L 171.22909 291.851667 
L 171.22909 290.334679 
L 174.475632 290.334679 
L 174.475632 288.390234 
L 177.722181 288.390234 
L 177.722181 286.10832 
L 180.968727 286.10832 
L 180.968727 283.080772 
L 184.215272 283.080772 
L 184.215272 280.512815 
L 187.461818 280.512815 
L 187.461818 277.01603 
L 190.708364 277.01603 
L 190.708364 273.201058 
L 193.954909 273.201058 
L 193.954909 269.013273 
L 197.201455 269.013273 
L 197.201455 263.289205 
L 200.448 263.289205 
L 200.448 257.295175 
L 203.694546 257.295175 
L 203.694546 252.091774 
L 206.941088 252.091774 
L 206.941088 245.419586 
L 210.187635 245.419586 
L 210.187635 238.532081 
L 213.434181 238.532081 
L 213.434181 231.217098 
L 216.680726 231.217098 
L 216.680726 223.426463 
L 219.927272 223.426463 
L 219.927272 216.587163 
L 223.173817 216.587163 
L 223.173817 209.844265 
L 226.420362 209.844265 
L 226.420362 207.81304 
L 229.666908 207.81304 
L 229.666908 202.889268 
L 232.913453 202.889268 
L 232.913453 196.011387 
L 236.159999 196.011387 
L 236.159999 196.14316 
L 239.406544 196.14316 
L 239.406544 203.560997 
L 242.653089 203.560997 
L 242.653089 206.893857 
L 245.899635 206.893857 
L 245.899635 210.059597 
L 249.14618 210.059597 
L 249.14618 217.432433 
L 252.392726 217.432433 
L 252.392726 223.51003 
L 255.639271 223.51003 
L 255.639271 231.017841 
L 258.885817 231.017841 
L 258.885817 239.399848 
L 262.132363 239.399848 
L 262.132363 246.435202 
L 265.378908 246.435202 
L 265.378908 252.156051 
L 268.625454 252.156051 
L 268.625454 259.056422 
L 271.871999 259.056422 
L 271.871999 264.124836 
L 275.118545 264.124836 
L 275.118545 269.132188 
L 278.36509 269.132188 
L 278.36509 273.631731 
L 281.611636 273.631731 
L 281.611636 277.771313 
L 284.858181 277.771313 
L 284.858181 280.564238 
L 288.104724 280.564238 
L 288.104724 283.61429 
L 291.351269 283.61429 
L 291.351269 285.748357 
L 294.597815 285.748357 
L 294.597815 288.023842 
L 297.844364 288.023842 
L 297.844364 290.36039 
L 301.090906 290.36039 
L 301.090906 291.825956 
L 304.337455 291.825956 
L 304.337455 293.548639 
L 307.583997 293.548639 
L 307.583997 294.821365 
L 310.830546 294.821365 
L 310.830546 295.730917 
L 314.077088 295.730917 
L 314.077088 297.112921 
L 317.323637 297.112921 
L 317.323637 297.665721 
L 320.570179 297.665721 
L 320.570179 298.620267 
L 323.816728 298.620267 
L 323.816728 299.330552 
L 327.06327 299.330552 
L 327.06327 300.127614 
L 330.309813 300.127614 
L 330.309813 300.577568 
L 333.556362 300.577568 
L 333.556362 301.072517 
L 336.802904 301.072517 
L 336.802904 301.795658 
L 343.295995 301.869579 
L 343.295995 302.621646 
L 346.542544 302.621646 
L 346.542544 302.869121 
L 349.789086 302.869121 
L 349.789086 303.168019 
L 353.035628 303.168019 
L 353.035628 303.499057 
L 356.282177 303.499057 
L 356.282177 303.653328 
L 359.528726 303.653328 
L 359.528726 303.913658 
L 362.775275 303.913658 
L 362.775275 304.1997 
L 366.02181 304.1997 
L 366.02181 304.456817 
L 369.268359 304.456817 
L 369.268359 304.646441 
L 375.761457 304.720362 
L 375.761457 304.929269 
L 379.007993 304.929269 
L 379.007993 305.176744 
L 385.50109 305.244237 
L 385.50109 305.340656 
L 388.747639 305.340656 
L 388.747639 305.642768 
L 391.994175 305.642768 
L 391.994175 305.809894 
L 398.487273 305.903099 
L 398.487273 307.584 
L 398.487273 307.584 
" style="fill:none;stroke:#d62728;stroke-linejoin:miter;"/>
   </g>
   <g id="patch_7">
    <path clip-path="url(#p03d3ba3d79)" d="M 73.83273 307.584 
L 73.83273 301.75709 
L 77.079279 301.75709 
L 77.079279 301.274997 
L 80.325815 301.274997 
L 80.325815 300.98574 
L 83.572364 300.98574 
L 83.572364 300.005482 
L 86.818912 300.005482 
L 86.818912 298.745611 
L 90.065448 298.745611 
L 90.065448 298.472424 
L 93.311997 298.472424 
L 93.311997 297.553231 
L 96.558546 297.553231 
L 96.558546 296.920083 
L 99.805095 296.920083 
L 99.805095 296.055527 
L 103.05163 296.055527 
L 103.05163 295.152404 
L 106.298179 295.152404 
L 106.298179 294.522467 
L 109.544728 294.522467 
L 109.544728 293.18546 
L 112.791277 293.18546 
L 112.791277 292.362686 
L 116.037812 292.362686 
L 116.037812 291.260298 
L 119.284361 291.260298 
L 119.284361 289.968287 
L 122.53091 289.968287 
L 122.53091 289.078022 
L 125.777452 289.078022 
L 125.777452 287.715302 
L 129.024001 287.715302 
L 129.024001 286.532564 
L 132.270544 286.532564 
L 132.270544 284.687754 
L 135.517092 284.687754 
L 135.517092 283.611075 
L 138.763635 283.611075 
L 138.763635 282.151936 
L 142.010184 282.151936 
L 142.010184 280.364978 
L 145.256726 280.364978 
L 145.256726 278.449456 
L 148.503275 278.449456 
L 148.503275 276.710705 
L 151.749817 276.710705 
L 151.749817 274.997663 
L 154.996366 274.997663 
L 154.996366 272.673967 
L 158.242908 272.673967 
L 158.242908 270.46919 
L 161.489457 270.46919 
L 161.489457 268.833287 
L 164.735999 268.833287 
L 164.735999 266.114277 
L 167.982541 266.114277 
L 167.982541 263.414553 
L 171.22909 263.414553 
L 171.22909 261.135848 
L 174.475632 261.135848 
L 174.475632 258.355782 
L 177.722181 258.355782 
L 177.722181 254.518309 
L 180.968727 254.518309 
L 180.968727 251.799299 
L 184.215272 251.799299 
L 184.215272 248.128957 
L 187.461818 248.128957 
L 187.461818 245.728134 
L 190.708364 245.728134 
L 190.708364 241.832805 
L 193.954909 241.832805 
L 193.954909 239.573413 
L 197.201455 239.573413 
L 197.201455 237.796079 
L 200.448 237.796079 
L 200.448 234.247863 
L 203.694546 234.247863 
L 203.694546 231.602777 
L 206.941088 231.602777 
L 206.941088 226.331868 
L 210.187635 226.331868 
L 210.187635 225.226286 
L 213.434181 225.226286 
L 213.434181 220.421406 
L 216.680726 220.421406 
L 216.680726 218.97514 
L 219.927272 218.97514 
L 219.927272 216.712506 
L 223.173817 216.712506 
L 223.173817 215.703311 
L 226.420362 215.703311 
L 226.420362 214.035284 
L 229.666908 214.035284 
L 229.666908 213.035728 
L 232.913453 213.035728 
L 232.913453 211.917281 
L 236.159999 211.917281 
L 236.159999 212.43795 
L 239.406544 212.43795 
L 239.406544 212.171187 
L 242.653089 212.171187 
L 242.653089 213.633529 
L 245.899635 213.633529 
L 245.899635 214.960903 
L 249.14618 214.960903 
L 249.14618 216.487526 
L 252.392726 216.487526 
L 252.392726 218.525172 
L 255.639271 218.525172 
L 255.639271 221.993039 
L 258.885817 221.993039 
L 258.885817 223.99854 
L 262.132363 223.99854 
L 262.132363 228.228125 
L 265.378908 228.228125 
L 265.378908 230.831427 
L 268.625454 230.831427 
L 268.625454 233.679003 
L 271.871999 233.679003 
L 271.871999 236.487999 
L 275.118545 236.487999 
L 275.118545 240.830062 
L 278.36509 240.830062 
L 278.36509 242.642727 
L 281.611636 242.642727 
L 281.611636 246.216648 
L 284.858181 246.216648 
L 284.858181 249.623451 
L 288.104724 249.623451 
L 288.104724 253.113811 
L 291.351269 253.113811 
L 291.351269 256.559169 
L 294.597815 256.559169 
L 294.597815 258.188658 
L 297.844364 258.188658 
L 297.844364 261.399397 
L 301.090906 261.399397 
L 301.090906 264.275895 
L 304.337455 264.275895 
L 304.337455 266.651015 
L 307.583997 266.651015 
L 307.583997 269.029337 
L 310.830546 269.029337 
L 310.830546 270.954497 
L 314.077088 270.954497 
L 314.077088 272.927873 
L 317.323637 272.927873 
L 317.323637 274.361301 
L 320.570179 274.361301 
L 320.570179 276.463229 
L 323.816728 276.463229 
L 323.816728 278.288761 
L 327.06327 278.288761 
L 327.06327 279.892521 
L 330.309813 279.892521 
L 330.309813 281.380584 
L 333.556362 281.380584 
L 333.556362 283.656072 
L 336.802904 283.656072 
L 336.802904 284.578477 
L 340.049453 284.578477 
L 340.049453 285.629442 
L 343.295995 285.629442 
L 343.295995 287.175358 
L 346.542544 287.175358 
L 346.542544 288.473796 
L 349.789086 288.473796 
L 349.789086 289.450841 
L 353.035628 289.450841 
L 353.035628 291.302082 
L 356.282177 291.302082 
L 356.282177 291.842025 
L 359.528726 291.842025 
L 359.528726 293.310805 
L 362.775275 293.310805 
L 362.775275 293.966453 
L 366.02181 293.966453 
L 366.02181 295.043129 
L 369.268359 295.043129 
L 369.268359 295.766271 
L 372.514908 295.766271 
L 372.514908 296.810807 
L 375.761457 296.810807 
L 375.761457 297.315399 
L 379.007993 297.315399 
L 379.007993 298.31494 
L 382.254542 298.31494 
L 382.254542 298.941661 
L 385.50109 298.941661 
L 385.50109 299.97977 
L 388.747639 299.97977 
L 388.747639 300.220817 
L 391.994175 300.220817 
L 391.994175 300.988955 
L 395.240724 300.988955 
L 395.240724 301.882435 
L 398.487273 301.882435 
L 398.487273 307.584 
L 398.487273 307.584 
" style="fill:none;stroke:#9467bd;stroke-linejoin:miter;"/>
   </g>
   <g id="patch_8">
    <path clip-path="url(#p03d3ba3d79)" d="M 73.832727 307.584 
L 398.48727 307.584 
L 398.48727 307.584 
" style="fill:none;stroke:#000000;stroke-linejoin:miter;"/>
   </g>
   <g id="matplotlib.axis_1">
    <g id="xtick_1">
     <g id="line2d_1">
      <defs>
       <path d="M 0 0 
L 0 3.5 
" id="mdc01e2b656" style="stroke:#000000;stroke-width:0.8;"/>
      </defs>
      <g>
       <use style="stroke:#000000;stroke-width:0.8;" x="99.27068" xlink:href="#mdc01e2b656" y="307.584"/>
      </g>
     </g>
     <g id="text_1">
      <!-- −0.3 -->
      <defs>
       <path d="M 10.59375 35.5 
L 73.1875 35.5 
L 73.1875 27.203125 
L 10.59375 27.203125 
z
" id="DejaVuSans-8722"/>
       <path d="M 31.78125 66.40625 
Q 24.171875 66.40625 20.328125 58.90625 
Q 16.5 51.421875 16.5 36.375 
Q 16.5 21.390625 20.328125 13.890625 
Q 24.171875 6.390625 31.78125 6.390625 
Q 39.453125 6.390625 43.28125 13.890625 
Q 47.125 21.390625 47.125 36.375 
Q 47.125 51.421875 43.28125 58.90625 
Q 39.453125 66.40625 31.78125 66.40625 
z
M 31.78125 74.21875 
Q 44.046875 74.21875 50.515625 64.515625 
Q 56.984375 54.828125 56.984375 36.375 
Q 56.984375 17.96875 50.515625 8.265625 
Q 44.046875 -1.421875 31.78125 -1.421875 
Q 19.53125 -1.421875 13.0625 8.265625 
Q 6.59375 17.96875 6.59375 36.375 
Q 6.59375 54.828125 13.0625 64.515625 
Q 19.53125 74.21875 31.78125 74.21875 
z
" id="DejaVuSans-48"/>
       <path d="M 10.6875 12.40625 
L 21 12.40625 
L 21 0 
L 10.6875 0 
z
" id="DejaVuSans-46"/>
       <path d="M 40.578125 39.3125 
Q 47.65625 37.796875 51.625 33 
Q 55.609375 28.21875 55.609375 21.1875 
Q 55.609375 10.40625 48.1875 4.484375 
Q 40.765625 -1.421875 27.09375 -1.421875 
Q 22.515625 -1.421875 17.65625 -0.515625 
Q 12.796875 0.390625 7.625 2.203125 
L 7.625 11.71875 
Q 11.71875 9.328125 16.59375 8.109375 
Q 21.484375 6.890625 26.8125 6.890625 
Q 36.078125 6.890625 40.9375 10.546875 
Q 45.796875 14.203125 45.796875 21.1875 
Q 45.796875 27.640625 41.28125 31.265625 
Q 36.765625 34.90625 28.71875 34.90625 
L 20.21875 34.90625 
L 20.21875 43.015625 
L 29.109375 43.015625 
Q 36.375 43.015625 40.234375 45.921875 
Q 44.09375 48.828125 44.09375 54.296875 
Q 44.09375 59.90625 40.109375 62.90625 
Q 36.140625 65.921875 28.71875 65.921875 
Q 24.65625 65.921875 20.015625 65.03125 
Q 15.375 64.15625 9.8125 62.3125 
L 9.8125 71.09375 
Q 15.4375 72.65625 20.34375 73.4375 
Q 25.25 74.21875 29.59375 74.21875 
Q 40.828125 74.21875 47.359375 69.109375 
Q 53.90625 64.015625 53.90625 55.328125 
Q 53.90625 49.265625 50.4375 45.09375 
Q 46.96875 40.921875 40.578125 39.3125 
z
" id="DejaVuSans-51"/>
      </defs>
      <g transform="translate(87.129274 322.182437)scale(0.1 -0.1)">
       <use xlink:href="#DejaVuSans-8722"/>
       <use x="83.789062" xlink:href="#DejaVuSans-48"/>
       <use x="147.412109" xlink:href="#DejaVuSans-46"/>
       <use x="179.199219" xlink:href="#DejaVuSans-51"/>
      </g>
     </g>
    </g>
    <g id="xtick_2">
     <g id="line2d_2">
      <g>
       <use style="stroke:#000000;stroke-width:0.8;" x="144.878693" xlink:href="#mdc01e2b656" y="307.584"/>
      </g>
     </g>
     <g id="text_2">
      <!-- −0.2 -->
      <defs>
       <path d="M 19.1875 8.296875 
L 53.609375 8.296875 
L 53.609375 0 
L 7.328125 0 
L 7.328125 8.296875 
Q 12.9375 14.109375 22.625 23.890625 
Q 32.328125 33.6875 34.8125 36.53125 
Q 39.546875 41.84375 41.421875 45.53125 
Q 43.3125 49.21875 43.3125 52.78125 
Q 43.3125 58.59375 39.234375 62.25 
Q 35.15625 65.921875 28.609375 65.921875 
Q 23.96875 65.921875 18.8125 64.3125 
Q 13.671875 62.703125 7.8125 59.421875 
L 7.8125 69.390625 
Q 13.765625 71.78125 18.9375 73 
Q 24.125 74.21875 28.421875 74.21875 
Q 39.75 74.21875 46.484375 68.546875 
Q 53.21875 62.890625 53.21875 53.421875 
Q 53.21875 48.921875 51.53125 44.890625 
Q 49.859375 40.875 45.40625 35.40625 
Q 44.1875 33.984375 37.640625 27.21875 
Q 31.109375 20.453125 19.1875 8.296875 
z
" id="DejaVuSans-50"/>
      </defs>
      <g transform="translate(132.737287 322.182437)scale(0.1 -0.1)">
       <use xlink:href="#DejaVuSans-8722"/>
       <use x="83.789062" xlink:href="#DejaVuSans-48"/>
       <use x="147.412109" xlink:href="#DejaVuSans-46"/>
       <use x="179.199219" xlink:href="#DejaVuSans-50"/>
      </g>
     </g>
    </g>
    <g id="xtick_3">
     <g id="line2d_3">
      <g>
       <use style="stroke:#000000;stroke-width:0.8;" x="190.486705" xlink:href="#mdc01e2b656" y="307.584"/>
      </g>
     </g>
     <g id="text_3">
      <!-- −0.1 -->
      <defs>
       <path d="M 12.40625 8.296875 
L 28.515625 8.296875 
L 28.515625 63.921875 
L 10.984375 60.40625 
L 10.984375 69.390625 
L 28.421875 72.90625 
L 38.28125 72.90625 
L 38.28125 8.296875 
L 54.390625 8.296875 
L 54.390625 0 
L 12.40625 0 
z
" id="DejaVuSans-49"/>
      </defs>
      <g transform="translate(178.345299 322.182437)scale(0.1 -0.1)">
       <use xlink:href="#DejaVuSans-8722"/>
       <use x="83.789062" xlink:href="#DejaVuSans-48"/>
       <use x="147.412109" xlink:href="#DejaVuSans-46"/>
       <use x="179.199219" xlink:href="#DejaVuSans-49"/>
      </g>
     </g>
    </g>
    <g id="xtick_4">
     <g id="line2d_4">
      <g>
       <use style="stroke:#000000;stroke-width:0.8;" x="236.094718" xlink:href="#mdc01e2b656" y="307.584"/>
      </g>
     </g>
     <g id="text_4">
      <!-- 0.0 -->
      <g transform="translate(228.143155 322.182437)scale(0.1 -0.1)">
       <use xlink:href="#DejaVuSans-48"/>
       <use x="63.623047" xlink:href="#DejaVuSans-46"/>
       <use x="95.410156" xlink:href="#DejaVuSans-48"/>
      </g>
     </g>
    </g>
    <g id="xtick_5">
     <g id="line2d_5">
      <g>
       <use style="stroke:#000000;stroke-width:0.8;" x="281.70273" xlink:href="#mdc01e2b656" y="307.584"/>
      </g>
     </g>
     <g id="text_5">
      <!-- 0.1 -->
      <g transform="translate(273.751168 322.182437)scale(0.1 -0.1)">
       <use xlink:href="#DejaVuSans-48"/>
       <use x="63.623047" xlink:href="#DejaVuSans-46"/>
       <use x="95.410156" xlink:href="#DejaVuSans-49"/>
      </g>
     </g>
    </g>
    <g id="xtick_6">
     <g id="line2d_6">
      <g>
       <use style="stroke:#000000;stroke-width:0.8;" x="327.310743" xlink:href="#mdc01e2b656" y="307.584"/>
      </g>
     </g>
     <g id="text_6">
      <!-- 0.2 -->
      <g transform="translate(319.359181 322.182437)scale(0.1 -0.1)">
       <use xlink:href="#DejaVuSans-48"/>
       <use x="63.623047" xlink:href="#DejaVuSans-46"/>
       <use x="95.410156" xlink:href="#DejaVuSans-50"/>
      </g>
     </g>
    </g>
    <g id="xtick_7">
     <g id="line2d_7">
      <g>
       <use style="stroke:#000000;stroke-width:0.8;" x="372.918756" xlink:href="#mdc01e2b656" y="307.584"/>
      </g>
     </g>
     <g id="text_7">
      <!-- 0.3 -->
      <g transform="translate(364.967193 322.182437)scale(0.1 -0.1)">
       <use xlink:href="#DejaVuSans-48"/>
       <use x="63.623047" xlink:href="#DejaVuSans-46"/>
       <use x="95.410156" xlink:href="#DejaVuSans-51"/>
      </g>
     </g>
    </g>
    <g id="text_8">
     <!-- j1_phirel -->
     <defs>
      <path d="M 9.421875 54.6875 
L 18.40625 54.6875 
L 18.40625 -0.984375 
Q 18.40625 -11.421875 14.421875 -16.109375 
Q 10.453125 -20.796875 1.609375 -20.796875 
L -1.8125 -20.796875 
L -1.8125 -13.1875 
L 0.59375 -13.1875 
Q 5.71875 -13.1875 7.5625 -10.8125 
Q 9.421875 -8.453125 9.421875 -0.984375 
z
M 9.421875 75.984375 
L 18.40625 75.984375 
L 18.40625 64.59375 
L 9.421875 64.59375 
z
" id="DejaVuSans-106"/>
      <path d="M 50.984375 -16.609375 
L 50.984375 -23.578125 
L -0.984375 -23.578125 
L -0.984375 -16.609375 
z
" id="DejaVuSans-95"/>
      <path d="M 18.109375 8.203125 
L 18.109375 -20.796875 
L 9.078125 -20.796875 
L 9.078125 54.6875 
L 18.109375 54.6875 
L 18.109375 46.390625 
Q 20.953125 51.265625 25.265625 53.625 
Q 29.59375 56 35.59375 56 
Q 45.5625 56 51.78125 48.09375 
Q 58.015625 40.1875 58.015625 27.296875 
Q 58.015625 14.40625 51.78125 6.484375 
Q 45.5625 -1.421875 35.59375 -1.421875 
Q 29.59375 -1.421875 25.265625 0.953125 
Q 20.953125 3.328125 18.109375 8.203125 
z
M 48.6875 27.296875 
Q 48.6875 37.203125 44.609375 42.84375 
Q 40.53125 48.484375 33.40625 48.484375 
Q 26.265625 48.484375 22.1875 42.84375 
Q 18.109375 37.203125 18.109375 27.296875 
Q 18.109375 17.390625 22.1875 11.75 
Q 26.265625 6.109375 33.40625 6.109375 
Q 40.53125 6.109375 44.609375 11.75 
Q 48.6875 17.390625 48.6875 27.296875 
z
" id="DejaVuSans-112"/>
      <path d="M 54.890625 33.015625 
L 54.890625 0 
L 45.90625 0 
L 45.90625 32.71875 
Q 45.90625 40.484375 42.875 44.328125 
Q 39.84375 48.1875 33.796875 48.1875 
Q 26.515625 48.1875 22.3125 43.546875 
Q 18.109375 38.921875 18.109375 30.90625 
L 18.109375 0 
L 9.078125 0 
L 9.078125 75.984375 
L 18.109375 75.984375 
L 18.109375 46.1875 
Q 21.34375 51.125 25.703125 53.5625 
Q 30.078125 56 35.796875 56 
Q 45.21875 56 50.046875 50.171875 
Q 54.890625 44.34375 54.890625 33.015625 
z
" id="DejaVuSans-104"/>
      <path d="M 9.421875 54.6875 
L 18.40625 54.6875 
L 18.40625 0 
L 9.421875 0 
z
M 9.421875 75.984375 
L 18.40625 75.984375 
L 18.40625 64.59375 
L 9.421875 64.59375 
z
" id="DejaVuSans-105"/>
      <path d="M 41.109375 46.296875 
Q 39.59375 47.171875 37.8125 47.578125 
Q 36.03125 48 33.890625 48 
Q 26.265625 48 22.1875 43.046875 
Q 18.109375 38.09375 18.109375 28.8125 
L 18.109375 0 
L 9.078125 0 
L 9.078125 54.6875 
L 18.109375 54.6875 
L 18.109375 46.1875 
Q 20.953125 51.171875 25.484375 53.578125 
Q 30.03125 56 36.53125 56 
Q 37.453125 56 38.578125 55.875 
Q 39.703125 55.765625 41.0625 55.515625 
z
" id="DejaVuSans-114"/>
      <path d="M 56.203125 29.59375 
L 56.203125 25.203125 
L 14.890625 25.203125 
Q 15.484375 15.921875 20.484375 11.0625 
Q 25.484375 6.203125 34.421875 6.203125 
Q 39.59375 6.203125 44.453125 7.46875 
Q 49.3125 8.734375 54.109375 11.28125 
L 54.109375 2.78125 
Q 49.265625 0.734375 44.1875 -0.34375 
Q 39.109375 -1.421875 33.890625 -1.421875 
Q 20.796875 -1.421875 13.15625 6.1875 
Q 5.515625 13.8125 5.515625 26.8125 
Q 5.515625 40.234375 12.765625 48.109375 
Q 20.015625 56 32.328125 56 
Q 43.359375 56 49.78125 48.890625 
Q 56.203125 41.796875 56.203125 29.59375 
z
M 47.21875 32.234375 
Q 47.125 39.59375 43.09375 43.984375 
Q 39.0625 48.390625 32.421875 48.390625 
Q 24.90625 48.390625 20.390625 44.140625 
Q 15.875 39.890625 15.1875 32.171875 
z
" id="DejaVuSans-101"/>
      <path d="M 9.421875 75.984375 
L 18.40625 75.984375 
L 18.40625 0 
L 9.421875 0 
z
" id="DejaVuSans-108"/>
     </defs>
     <g transform="translate(214.838125 335.860562)scale(0.1 -0.1)">
      <use xlink:href="#DejaVuSans-106"/>
      <use x="27.783203" xlink:href="#DejaVuSans-49"/>
      <use x="91.40625" xlink:href="#DejaVuSans-95"/>
      <use x="141.40625" xlink:href="#DejaVuSans-112"/>
      <use x="204.882812" xlink:href="#DejaVuSans-104"/>
      <use x="268.261719" xlink:href="#DejaVuSans-105"/>
      <use x="296.044922" xlink:href="#DejaVuSans-114"/>
      <use x="337.126953" xlink:href="#DejaVuSans-101"/>
      <use x="398.650391" xlink:href="#DejaVuSans-108"/>
     </g>
    </g>
   </g>
   <g id="matplotlib.axis_2">
    <g id="ytick_1">
     <g id="line2d_8">
      <defs>
       <path d="M 0 0 
L -3.5 0 
" id="me5e27f4781" style="stroke:#000000;stroke-width:0.8;"/>
      </defs>
      <g>
       <use style="stroke:#000000;stroke-width:0.8;" x="57.6" xlink:href="#me5e27f4781" y="307.584"/>
      </g>
     </g>
     <g id="text_9">
      <!-- 0.000 -->
      <g transform="translate(21.971875 311.383219)scale(0.1 -0.1)">
       <use xlink:href="#DejaVuSans-48"/>
       <use x="63.623047" xlink:href="#DejaVuSans-46"/>
       <use x="95.410156" xlink:href="#DejaVuSans-48"/>
       <use x="159.033203" xlink:href="#DejaVuSans-48"/>
       <use x="222.65625" xlink:href="#DejaVuSans-48"/>
      </g>
     </g>
    </g>
    <g id="ytick_2">
     <g id="line2d_9">
      <g>
       <use style="stroke:#000000;stroke-width:0.8;" x="57.6" xlink:href="#me5e27f4781" y="274.673639"/>
      </g>
     </g>
     <g id="text_10">
      <!-- 0.002 -->
      <g transform="translate(21.971875 278.472858)scale(0.1 -0.1)">
       <use xlink:href="#DejaVuSans-48"/>
       <use x="63.623047" xlink:href="#DejaVuSans-46"/>
       <use x="95.410156" xlink:href="#DejaVuSans-48"/>
       <use x="159.033203" xlink:href="#DejaVuSans-48"/>
       <use x="222.65625" xlink:href="#DejaVuSans-50"/>
      </g>
     </g>
    </g>
    <g id="ytick_3">
     <g id="line2d_10">
      <g>
       <use style="stroke:#000000;stroke-width:0.8;" x="57.6" xlink:href="#me5e27f4781" y="241.763278"/>
      </g>
     </g>
     <g id="text_11">
      <!-- 0.004 -->
      <defs>
       <path d="M 37.796875 64.3125 
L 12.890625 25.390625 
L 37.796875 25.390625 
z
M 35.203125 72.90625 
L 47.609375 72.90625 
L 47.609375 25.390625 
L 58.015625 25.390625 
L 58.015625 17.1875 
L 47.609375 17.1875 
L 47.609375 0 
L 37.796875 0 
L 37.796875 17.1875 
L 4.890625 17.1875 
L 4.890625 26.703125 
z
" id="DejaVuSans-52"/>
      </defs>
      <g transform="translate(21.971875 245.562497)scale(0.1 -0.1)">
       <use xlink:href="#DejaVuSans-48"/>
       <use x="63.623047" xlink:href="#DejaVuSans-46"/>
       <use x="95.410156" xlink:href="#DejaVuSans-48"/>
       <use x="159.033203" xlink:href="#DejaVuSans-48"/>
       <use x="222.65625" xlink:href="#DejaVuSans-52"/>
      </g>
     </g>
    </g>
    <g id="ytick_4">
     <g id="line2d_11">
      <g>
       <use style="stroke:#000000;stroke-width:0.8;" x="57.6" xlink:href="#me5e27f4781" y="208.852917"/>
      </g>
     </g>
     <g id="text_12">
      <!-- 0.006 -->
      <defs>
       <path d="M 33.015625 40.375 
Q 26.375 40.375 22.484375 35.828125 
Q 18.609375 31.296875 18.609375 23.390625 
Q 18.609375 15.53125 22.484375 10.953125 
Q 26.375 6.390625 33.015625 6.390625 
Q 39.65625 6.390625 43.53125 10.953125 
Q 47.40625 15.53125 47.40625 23.390625 
Q 47.40625 31.296875 43.53125 35.828125 
Q 39.65625 40.375 33.015625 40.375 
z
M 52.59375 71.296875 
L 52.59375 62.3125 
Q 48.875 64.0625 45.09375 64.984375 
Q 41.3125 65.921875 37.59375 65.921875 
Q 27.828125 65.921875 22.671875 59.328125 
Q 17.53125 52.734375 16.796875 39.40625 
Q 19.671875 43.65625 24.015625 45.921875 
Q 28.375 48.1875 33.59375 48.1875 
Q 44.578125 48.1875 50.953125 41.515625 
Q 57.328125 34.859375 57.328125 23.390625 
Q 57.328125 12.15625 50.6875 5.359375 
Q 44.046875 -1.421875 33.015625 -1.421875 
Q 20.359375 -1.421875 13.671875 8.265625 
Q 6.984375 17.96875 6.984375 36.375 
Q 6.984375 53.65625 15.1875 63.9375 
Q 23.390625 74.21875 37.203125 74.21875 
Q 40.921875 74.21875 44.703125 73.484375 
Q 48.484375 72.75 52.59375 71.296875 
z
" id="DejaVuSans-54"/>
      </defs>
      <g transform="translate(21.971875 212.652136)scale(0.1 -0.1)">
       <use xlink:href="#DejaVuSans-48"/>
       <use x="63.623047" xlink:href="#DejaVuSans-46"/>
       <use x="95.410156" xlink:href="#DejaVuSans-48"/>
       <use x="159.033203" xlink:href="#DejaVuSans-48"/>
       <use x="222.65625" xlink:href="#DejaVuSans-54"/>
      </g>
     </g>
    </g>
    <g id="ytick_5">
     <g id="line2d_12">
      <g>
       <use style="stroke:#000000;stroke-width:0.8;" x="57.6" xlink:href="#me5e27f4781" y="175.942556"/>
      </g>
     </g>
     <g id="text_13">
      <!-- 0.008 -->
      <defs>
       <path d="M 31.78125 34.625 
Q 24.75 34.625 20.71875 30.859375 
Q 16.703125 27.09375 16.703125 20.515625 
Q 16.703125 13.921875 20.71875 10.15625 
Q 24.75 6.390625 31.78125 6.390625 
Q 38.8125 6.390625 42.859375 10.171875 
Q 46.921875 13.96875 46.921875 20.515625 
Q 46.921875 27.09375 42.890625 30.859375 
Q 38.875 34.625 31.78125 34.625 
z
M 21.921875 38.8125 
Q 15.578125 40.375 12.03125 44.71875 
Q 8.5 49.078125 8.5 55.328125 
Q 8.5 64.0625 14.71875 69.140625 
Q 20.953125 74.21875 31.78125 74.21875 
Q 42.671875 74.21875 48.875 69.140625 
Q 55.078125 64.0625 55.078125 55.328125 
Q 55.078125 49.078125 51.53125 44.71875 
Q 48 40.375 41.703125 38.8125 
Q 48.828125 37.15625 52.796875 32.3125 
Q 56.78125 27.484375 56.78125 20.515625 
Q 56.78125 9.90625 50.3125 4.234375 
Q 43.84375 -1.421875 31.78125 -1.421875 
Q 19.734375 -1.421875 13.25 4.234375 
Q 6.78125 9.90625 6.78125 20.515625 
Q 6.78125 27.484375 10.78125 32.3125 
Q 14.796875 37.15625 21.921875 38.8125 
z
M 18.3125 54.390625 
Q 18.3125 48.734375 21.84375 45.5625 
Q 25.390625 42.390625 31.78125 42.390625 
Q 38.140625 42.390625 41.71875 45.5625 
Q 45.3125 48.734375 45.3125 54.390625 
Q 45.3125 60.0625 41.71875 63.234375 
Q 38.140625 66.40625 31.78125 66.40625 
Q 25.390625 66.40625 21.84375 63.234375 
Q 18.3125 60.0625 18.3125 54.390625 
z
" id="DejaVuSans-56"/>
      </defs>
      <g transform="translate(21.971875 179.741774)scale(0.1 -0.1)">
       <use xlink:href="#DejaVuSans-48"/>
       <use x="63.623047" xlink:href="#DejaVuSans-46"/>
       <use x="95.410156" xlink:href="#DejaVuSans-48"/>
       <use x="159.033203" xlink:href="#DejaVuSans-48"/>
       <use x="222.65625" xlink:href="#DejaVuSans-56"/>
      </g>
     </g>
    </g>
    <g id="ytick_6">
     <g id="line2d_13">
      <g>
       <use style="stroke:#000000;stroke-width:0.8;" x="57.6" xlink:href="#me5e27f4781" y="143.032195"/>
      </g>
     </g>
     <g id="text_14">
      <!-- 0.010 -->
      <g transform="translate(21.971875 146.831413)scale(0.1 -0.1)">
       <use xlink:href="#DejaVuSans-48"/>
       <use x="63.623047" xlink:href="#DejaVuSans-46"/>
       <use x="95.410156" xlink:href="#DejaVuSans-48"/>
       <use x="159.033203" xlink:href="#DejaVuSans-49"/>
       <use x="222.65625" xlink:href="#DejaVuSans-48"/>
      </g>
     </g>
    </g>
    <g id="ytick_7">
     <g id="line2d_14">
      <g>
       <use style="stroke:#000000;stroke-width:0.8;" x="57.6" xlink:href="#me5e27f4781" y="110.121834"/>
      </g>
     </g>
     <g id="text_15">
      <!-- 0.012 -->
      <g transform="translate(21.971875 113.921052)scale(0.1 -0.1)">
       <use xlink:href="#DejaVuSans-48"/>
       <use x="63.623047" xlink:href="#DejaVuSans-46"/>
       <use x="95.410156" xlink:href="#DejaVuSans-48"/>
       <use x="159.033203" xlink:href="#DejaVuSans-49"/>
       <use x="222.65625" xlink:href="#DejaVuSans-50"/>
      </g>
     </g>
    </g>
    <g id="ytick_8">
     <g id="line2d_15">
      <g>
       <use style="stroke:#000000;stroke-width:0.8;" x="57.6" xlink:href="#me5e27f4781" y="77.211472"/>
      </g>
     </g>
     <g id="text_16">
      <!-- 0.014 -->
      <g transform="translate(21.971875 81.010691)scale(0.1 -0.1)">
       <use xlink:href="#DejaVuSans-48"/>
       <use x="63.623047" xlink:href="#DejaVuSans-46"/>
       <use x="95.410156" xlink:href="#DejaVuSans-48"/>
       <use x="159.033203" xlink:href="#DejaVuSans-49"/>
       <use x="222.65625" xlink:href="#DejaVuSans-52"/>
      </g>
     </g>
    </g>
    <g id="ytick_9">
     <g id="line2d_16">
      <g>
       <use style="stroke:#000000;stroke-width:0.8;" x="57.6" xlink:href="#me5e27f4781" y="44.301111"/>
      </g>
     </g>
     <g id="text_17">
      <!-- 0.016 -->
      <g transform="translate(21.971875 48.10033)scale(0.1 -0.1)">
       <use xlink:href="#DejaVuSans-48"/>
       <use x="63.623047" xlink:href="#DejaVuSans-46"/>
       <use x="95.410156" xlink:href="#DejaVuSans-48"/>
       <use x="159.033203" xlink:href="#DejaVuSans-49"/>
       <use x="222.65625" xlink:href="#DejaVuSans-54"/>
      </g>
     </g>
    </g>
    <g id="text_18">
     <!-- Prob. Density (a.u.) -->
     <defs>
      <path d="M 19.671875 64.796875 
L 19.671875 37.40625 
L 32.078125 37.40625 
Q 38.96875 37.40625 42.71875 40.96875 
Q 46.484375 44.53125 46.484375 51.125 
Q 46.484375 57.671875 42.71875 61.234375 
Q 38.96875 64.796875 32.078125 64.796875 
z
M 9.8125 72.90625 
L 32.078125 72.90625 
Q 44.34375 72.90625 50.609375 67.359375 
Q 56.890625 61.8125 56.890625 51.125 
Q 56.890625 40.328125 50.609375 34.8125 
Q 44.34375 29.296875 32.078125 29.296875 
L 19.671875 29.296875 
L 19.671875 0 
L 9.8125 0 
z
" id="DejaVuSans-80"/>
      <path d="M 30.609375 48.390625 
Q 23.390625 48.390625 19.1875 42.75 
Q 14.984375 37.109375 14.984375 27.296875 
Q 14.984375 17.484375 19.15625 11.84375 
Q 23.34375 6.203125 30.609375 6.203125 
Q 37.796875 6.203125 41.984375 11.859375 
Q 46.1875 17.53125 46.1875 27.296875 
Q 46.1875 37.015625 41.984375 42.703125 
Q 37.796875 48.390625 30.609375 48.390625 
z
M 30.609375 56 
Q 42.328125 56 49.015625 48.375 
Q 55.71875 40.765625 55.71875 27.296875 
Q 55.71875 13.875 49.015625 6.21875 
Q 42.328125 -1.421875 30.609375 -1.421875 
Q 18.84375 -1.421875 12.171875 6.21875 
Q 5.515625 13.875 5.515625 27.296875 
Q 5.515625 40.765625 12.171875 48.375 
Q 18.84375 56 30.609375 56 
z
" id="DejaVuSans-111"/>
      <path d="M 48.6875 27.296875 
Q 48.6875 37.203125 44.609375 42.84375 
Q 40.53125 48.484375 33.40625 48.484375 
Q 26.265625 48.484375 22.1875 42.84375 
Q 18.109375 37.203125 18.109375 27.296875 
Q 18.109375 17.390625 22.1875 11.75 
Q 26.265625 6.109375 33.40625 6.109375 
Q 40.53125 6.109375 44.609375 11.75 
Q 48.6875 17.390625 48.6875 27.296875 
z
M 18.109375 46.390625 
Q 20.953125 51.265625 25.265625 53.625 
Q 29.59375 56 35.59375 56 
Q 45.5625 56 51.78125 48.09375 
Q 58.015625 40.1875 58.015625 27.296875 
Q 58.015625 14.40625 51.78125 6.484375 
Q 45.5625 -1.421875 35.59375 -1.421875 
Q 29.59375 -1.421875 25.265625 0.953125 
Q 20.953125 3.328125 18.109375 8.203125 
L 18.109375 0 
L 9.078125 0 
L 9.078125 75.984375 
L 18.109375 75.984375 
z
" id="DejaVuSans-98"/>
      <path id="DejaVuSans-32"/>
      <path d="M 19.671875 64.796875 
L 19.671875 8.109375 
L 31.59375 8.109375 
Q 46.6875 8.109375 53.6875 14.9375 
Q 60.6875 21.78125 60.6875 36.53125 
Q 60.6875 51.171875 53.6875 57.984375 
Q 46.6875 64.796875 31.59375 64.796875 
z
M 9.8125 72.90625 
L 30.078125 72.90625 
Q 51.265625 72.90625 61.171875 64.09375 
Q 71.09375 55.28125 71.09375 36.53125 
Q 71.09375 17.671875 61.125 8.828125 
Q 51.171875 0 30.078125 0 
L 9.8125 0 
z
" id="DejaVuSans-68"/>
      <path d="M 54.890625 33.015625 
L 54.890625 0 
L 45.90625 0 
L 45.90625 32.71875 
Q 45.90625 40.484375 42.875 44.328125 
Q 39.84375 48.1875 33.796875 48.1875 
Q 26.515625 48.1875 22.3125 43.546875 
Q 18.109375 38.921875 18.109375 30.90625 
L 18.109375 0 
L 9.078125 0 
L 9.078125 54.6875 
L 18.109375 54.6875 
L 18.109375 46.1875 
Q 21.34375 51.125 25.703125 53.5625 
Q 30.078125 56 35.796875 56 
Q 45.21875 56 50.046875 50.171875 
Q 54.890625 44.34375 54.890625 33.015625 
z
" id="DejaVuSans-110"/>
      <path d="M 44.28125 53.078125 
L 44.28125 44.578125 
Q 40.484375 46.53125 36.375 47.5 
Q 32.28125 48.484375 27.875 48.484375 
Q 21.1875 48.484375 17.84375 46.4375 
Q 14.5 44.390625 14.5 40.28125 
Q 14.5 37.15625 16.890625 35.375 
Q 19.28125 33.59375 26.515625 31.984375 
L 29.59375 31.296875 
Q 39.15625 29.25 43.1875 25.515625 
Q 47.21875 21.78125 47.21875 15.09375 
Q 47.21875 7.46875 41.1875 3.015625 
Q 35.15625 -1.421875 24.609375 -1.421875 
Q 20.21875 -1.421875 15.453125 -0.5625 
Q 10.6875 0.296875 5.421875 2 
L 5.421875 11.28125 
Q 10.40625 8.6875 15.234375 7.390625 
Q 20.0625 6.109375 24.8125 6.109375 
Q 31.15625 6.109375 34.5625 8.28125 
Q 37.984375 10.453125 37.984375 14.40625 
Q 37.984375 18.0625 35.515625 20.015625 
Q 33.0625 21.96875 24.703125 23.78125 
L 21.578125 24.515625 
Q 13.234375 26.265625 9.515625 29.90625 
Q 5.8125 33.546875 5.8125 39.890625 
Q 5.8125 47.609375 11.28125 51.796875 
Q 16.75 56 26.8125 56 
Q 31.78125 56 36.171875 55.265625 
Q 40.578125 54.546875 44.28125 53.078125 
z
" id="DejaVuSans-115"/>
      <path d="M 18.3125 70.21875 
L 18.3125 54.6875 
L 36.8125 54.6875 
L 36.8125 47.703125 
L 18.3125 47.703125 
L 18.3125 18.015625 
Q 18.3125 11.328125 20.140625 9.421875 
Q 21.96875 7.515625 27.59375 7.515625 
L 36.8125 7.515625 
L 36.8125 0 
L 27.59375 0 
Q 17.1875 0 13.234375 3.875 
Q 9.28125 7.765625 9.28125 18.015625 
L 9.28125 47.703125 
L 2.6875 47.703125 
L 2.6875 54.6875 
L 9.28125 54.6875 
L 9.28125 70.21875 
z
" id="DejaVuSans-116"/>
      <path d="M 32.171875 -5.078125 
Q 28.375 -14.84375 24.75 -17.8125 
Q 21.140625 -20.796875 15.09375 -20.796875 
L 7.90625 -20.796875 
L 7.90625 -13.28125 
L 13.1875 -13.28125 
Q 16.890625 -13.28125 18.9375 -11.515625 
Q 21 -9.765625 23.484375 -3.21875 
L 25.09375 0.875 
L 2.984375 54.6875 
L 12.5 54.6875 
L 29.59375 11.921875 
L 46.6875 54.6875 
L 56.203125 54.6875 
z
" id="DejaVuSans-121"/>
      <path d="M 31 75.875 
Q 24.46875 64.65625 21.28125 53.65625 
Q 18.109375 42.671875 18.109375 31.390625 
Q 18.109375 20.125 21.3125 9.0625 
Q 24.515625 -2 31 -13.1875 
L 23.1875 -13.1875 
Q 15.875 -1.703125 12.234375 9.375 
Q 8.59375 20.453125 8.59375 31.390625 
Q 8.59375 42.28125 12.203125 53.3125 
Q 15.828125 64.359375 23.1875 75.875 
z
" id="DejaVuSans-40"/>
      <path d="M 34.28125 27.484375 
Q 23.390625 27.484375 19.1875 25 
Q 14.984375 22.515625 14.984375 16.5 
Q 14.984375 11.71875 18.140625 8.90625 
Q 21.296875 6.109375 26.703125 6.109375 
Q 34.1875 6.109375 38.703125 11.40625 
Q 43.21875 16.703125 43.21875 25.484375 
L 43.21875 27.484375 
z
M 52.203125 31.203125 
L 52.203125 0 
L 43.21875 0 
L 43.21875 8.296875 
Q 40.140625 3.328125 35.546875 0.953125 
Q 30.953125 -1.421875 24.3125 -1.421875 
Q 15.921875 -1.421875 10.953125 3.296875 
Q 6 8.015625 6 15.921875 
Q 6 25.140625 12.171875 29.828125 
Q 18.359375 34.515625 30.609375 34.515625 
L 43.21875 34.515625 
L 43.21875 35.40625 
Q 43.21875 41.609375 39.140625 45 
Q 35.0625 48.390625 27.6875 48.390625 
Q 23 48.390625 18.546875 47.265625 
Q 14.109375 46.140625 10.015625 43.890625 
L 10.015625 52.203125 
Q 14.9375 54.109375 19.578125 55.046875 
Q 24.21875 56 28.609375 56 
Q 40.484375 56 46.34375 49.84375 
Q 52.203125 43.703125 52.203125 31.203125 
z
" id="DejaVuSans-97"/>
      <path d="M 8.5 21.578125 
L 8.5 54.6875 
L 17.484375 54.6875 
L 17.484375 21.921875 
Q 17.484375 14.15625 20.5 10.265625 
Q 23.53125 6.390625 29.59375 6.390625 
Q 36.859375 6.390625 41.078125 11.03125 
Q 45.3125 15.671875 45.3125 23.6875 
L 45.3125 54.6875 
L 54.296875 54.6875 
L 54.296875 0 
L 45.3125 0 
L 45.3125 8.40625 
Q 42.046875 3.421875 37.71875 1 
Q 33.40625 -1.421875 27.6875 -1.421875 
Q 18.265625 -1.421875 13.375 4.4375 
Q 8.5 10.296875 8.5 21.578125 
z
M 31.109375 56 
z
" id="DejaVuSans-117"/>
      <path d="M 8.015625 75.875 
L 15.828125 75.875 
Q 23.140625 64.359375 26.78125 53.3125 
Q 30.421875 42.28125 30.421875 31.390625 
Q 30.421875 20.453125 26.78125 9.375 
Q 23.140625 -1.703125 15.828125 -13.1875 
L 8.015625 -13.1875 
Q 14.5 -2 17.703125 9.0625 
Q 20.90625 20.125 20.90625 31.390625 
Q 20.90625 42.671875 17.703125 53.65625 
Q 14.5 64.65625 8.015625 75.875 
z
" id="DejaVuSans-41"/>
     </defs>
     <g transform="translate(15.892187 222.917844)rotate(-90)scale(0.1 -0.1)">
      <use xlink:href="#DejaVuSans-80"/>
      <use x="60.287109" xlink:href="#DejaVuSans-114"/>
      <use x="101.369141" xlink:href="#DejaVuSans-111"/>
      <use x="162.550781" xlink:href="#DejaVuSans-98"/>
      <use x="226.027344" xlink:href="#DejaVuSans-46"/>
      <use x="257.814453" xlink:href="#DejaVuSans-32"/>
      <use x="289.601562" xlink:href="#DejaVuSans-68"/>
      <use x="366.603516" xlink:href="#DejaVuSans-101"/>
      <use x="428.126953" xlink:href="#DejaVuSans-110"/>
      <use x="491.505859" xlink:href="#DejaVuSans-115"/>
      <use x="543.605469" xlink:href="#DejaVuSans-105"/>
      <use x="571.388672" xlink:href="#DejaVuSans-116"/>
      <use x="610.597656" xlink:href="#DejaVuSans-121"/>
      <use x="669.777344" xlink:href="#DejaVuSans-32"/>
      <use x="701.564453" xlink:href="#DejaVuSans-40"/>
      <use x="740.578125" xlink:href="#DejaVuSans-97"/>
      <use x="801.857422" xlink:href="#DejaVuSans-46"/>
      <use x="833.644531" xlink:href="#DejaVuSans-117"/>
      <use x="897.023438" xlink:href="#DejaVuSans-46"/>
      <use x="928.810547" xlink:href="#DejaVuSans-41"/>
     </g>
    </g>
   </g>
   <g id="patch_9">
    <path d="M 57.6 307.584 
L 57.6 41.472 
" style="fill:none;stroke:#000000;stroke-linecap:square;stroke-linejoin:miter;stroke-width:0.8;"/>
   </g>
   <g id="patch_10">
    <path d="M 414.72 307.584 
L 414.72 41.472 
" style="fill:none;stroke:#000000;stroke-linecap:square;stroke-linejoin:miter;stroke-width:0.8;"/>
   </g>
   <g id="patch_11">
    <path d="M 57.6 307.584 
L 414.72 307.584 
" style="fill:none;stroke:#000000;stroke-linecap:square;stroke-linejoin:miter;stroke-width:0.8;"/>
   </g>
   <g id="patch_12">
    <path d="M 57.6 41.472 
L 414.72 41.472 
" style="fill:none;stroke:#000000;stroke-linecap:square;stroke-linejoin:miter;stroke-width:0.8;"/>
   </g>
   <g id="legend_1">
    <g id="patch_13">
     <path d="M 325.405938 137.54075 
L 407.72 137.54075 
Q 409.72 137.54075 409.72 135.54075 
L 409.72 48.472 
Q 409.72 46.472 407.72 46.472 
L 325.405938 46.472 
Q 323.405938 46.472 323.405938 48.472 
L 323.405938 135.54075 
Q 323.405938 137.54075 325.405938 137.54075 
z
" style="fill:#ffffff;opacity:0.8;stroke:#cccccc;stroke-linejoin:miter;"/>
    </g>
    <g id="patch_14">
     <path d="M 327.405938 58.070438 
L 347.405938 58.070438 
L 347.405938 51.070438 
L 327.405938 51.070438 
z
" style="fill:none;stroke:#1f77b4;stroke-linejoin:miter;"/>
    </g>
    <g id="text_19">
     <!-- quark -->
     <defs>
      <path d="M 14.796875 27.296875 
Q 14.796875 17.390625 18.875 11.75 
Q 22.953125 6.109375 30.078125 6.109375 
Q 37.203125 6.109375 41.296875 11.75 
Q 45.40625 17.390625 45.40625 27.296875 
Q 45.40625 37.203125 41.296875 42.84375 
Q 37.203125 48.484375 30.078125 48.484375 
Q 22.953125 48.484375 18.875 42.84375 
Q 14.796875 37.203125 14.796875 27.296875 
z
M 45.40625 8.203125 
Q 42.578125 3.328125 38.25 0.953125 
Q 33.9375 -1.421875 27.875 -1.421875 
Q 17.96875 -1.421875 11.734375 6.484375 
Q 5.515625 14.40625 5.515625 27.296875 
Q 5.515625 40.1875 11.734375 48.09375 
Q 17.96875 56 27.875 56 
Q 33.9375 56 38.25 53.625 
Q 42.578125 51.265625 45.40625 46.390625 
L 45.40625 54.6875 
L 54.390625 54.6875 
L 54.390625 -20.796875 
L 45.40625 -20.796875 
z
" id="DejaVuSans-113"/>
      <path d="M 9.078125 75.984375 
L 18.109375 75.984375 
L 18.109375 31.109375 
L 44.921875 54.6875 
L 56.390625 54.6875 
L 27.390625 29.109375 
L 57.625 0 
L 45.90625 0 
L 18.109375 26.703125 
L 18.109375 0 
L 9.078125 0 
z
" id="DejaVuSans-107"/>
     </defs>
     <g transform="translate(355.405938 58.070438)scale(0.1 -0.1)">
      <use xlink:href="#DejaVuSans-113"/>
      <use x="63.476562" xlink:href="#DejaVuSans-117"/>
      <use x="126.855469" xlink:href="#DejaVuSans-97"/>
      <use x="188.134766" xlink:href="#DejaVuSans-114"/>
      <use x="229.248047" xlink:href="#DejaVuSans-107"/>
     </g>
    </g>
    <g id="patch_15">
     <path d="M 327.405938 72.748563 
L 347.405938 72.748563 
L 347.405938 65.748563 
L 327.405938 65.748563 
z
" style="fill:none;stroke:#ff7f0e;stroke-linejoin:miter;"/>
    </g>
    <g id="text_20">
     <!-- gluon -->
     <defs>
      <path d="M 45.40625 27.984375 
Q 45.40625 37.75 41.375 43.109375 
Q 37.359375 48.484375 30.078125 48.484375 
Q 22.859375 48.484375 18.828125 43.109375 
Q 14.796875 37.75 14.796875 27.984375 
Q 14.796875 18.265625 18.828125 12.890625 
Q 22.859375 7.515625 30.078125 7.515625 
Q 37.359375 7.515625 41.375 12.890625 
Q 45.40625 18.265625 45.40625 27.984375 
z
M 54.390625 6.78125 
Q 54.390625 -7.171875 48.1875 -13.984375 
Q 42 -20.796875 29.203125 -20.796875 
Q 24.46875 -20.796875 20.265625 -20.09375 
Q 16.0625 -19.390625 12.109375 -17.921875 
L 12.109375 -9.1875 
Q 16.0625 -11.328125 19.921875 -12.34375 
Q 23.78125 -13.375 27.78125 -13.375 
Q 36.625 -13.375 41.015625 -8.765625 
Q 45.40625 -4.15625 45.40625 5.171875 
L 45.40625 9.625 
Q 42.625 4.78125 38.28125 2.390625 
Q 33.9375 0 27.875 0 
Q 17.828125 0 11.671875 7.65625 
Q 5.515625 15.328125 5.515625 27.984375 
Q 5.515625 40.671875 11.671875 48.328125 
Q 17.828125 56 27.875 56 
Q 33.9375 56 38.28125 53.609375 
Q 42.625 51.21875 45.40625 46.390625 
L 45.40625 54.6875 
L 54.390625 54.6875 
z
" id="DejaVuSans-103"/>
     </defs>
     <g transform="translate(355.405938 72.748563)scale(0.1 -0.1)">
      <use xlink:href="#DejaVuSans-103"/>
      <use x="63.476562" xlink:href="#DejaVuSans-108"/>
      <use x="91.259766" xlink:href="#DejaVuSans-117"/>
      <use x="154.638672" xlink:href="#DejaVuSans-111"/>
      <use x="215.820312" xlink:href="#DejaVuSans-110"/>
     </g>
    </g>
    <g id="patch_16">
     <path d="M 327.405938 87.426688 
L 347.405938 87.426688 
L 347.405938 80.426688 
L 327.405938 80.426688 
z
" style="fill:none;stroke:#2ca02c;stroke-linejoin:miter;"/>
    </g>
    <g id="text_21">
     <!-- W -->
     <defs>
      <path d="M 3.328125 72.90625 
L 13.28125 72.90625 
L 28.609375 11.28125 
L 43.890625 72.90625 
L 54.984375 72.90625 
L 70.3125 11.28125 
L 85.59375 72.90625 
L 95.609375 72.90625 
L 77.296875 0 
L 64.890625 0 
L 49.515625 63.28125 
L 33.984375 0 
L 21.578125 0 
z
" id="DejaVuSans-87"/>
     </defs>
     <g transform="translate(355.405938 87.426688)scale(0.1 -0.1)">
      <use xlink:href="#DejaVuSans-87"/>
     </g>
    </g>
    <g id="patch_17">
     <path d="M 327.405938 102.104813 
L 347.405938 102.104813 
L 347.405938 95.104813 
L 327.405938 95.104813 
z
" style="fill:none;stroke:#d62728;stroke-linejoin:miter;"/>
    </g>
    <g id="text_22">
     <!-- Z -->
     <defs>
      <path d="M 5.609375 72.90625 
L 62.890625 72.90625 
L 62.890625 65.375 
L 16.796875 8.296875 
L 64.015625 8.296875 
L 64.015625 0 
L 4.5 0 
L 4.5 7.515625 
L 50.59375 64.59375 
L 5.609375 64.59375 
z
" id="DejaVuSans-90"/>
     </defs>
     <g transform="translate(355.405938 102.104813)scale(0.1 -0.1)">
      <use xlink:href="#DejaVuSans-90"/>
     </g>
    </g>
    <g id="patch_18">
     <path d="M 327.405938 116.782938 
L 347.405938 116.782938 
L 347.405938 109.782938 
L 327.405938 109.782938 
z
" style="fill:none;stroke:#9467bd;stroke-linejoin:miter;"/>
    </g>
    <g id="text_23">
     <!-- top -->
     <g transform="translate(355.405938 116.782938)scale(0.1 -0.1)">
      <use xlink:href="#DejaVuSans-116"/>
      <use x="39.208984" xlink:href="#DejaVuSans-111"/>
      <use x="100.390625" xlink:href="#DejaVuSans-112"/>
     </g>
    </g>
    <g id="patch_19">
     <path d="M 327.405938 131.461063 
L 347.405938 131.461063 
L 347.405938 124.461063 
L 327.405938 124.461063 
z
" style="fill:none;stroke:#000000;stroke-linejoin:miter;"/>
    </g>
    <g id="text_24">
     <!-- undefined -->
     <defs>
      <path d="M 45.40625 46.390625 
L 45.40625 75.984375 
L 54.390625 75.984375 
L 54.390625 0 
L 45.40625 0 
L 45.40625 8.203125 
Q 42.578125 3.328125 38.25 0.953125 
Q 33.9375 -1.421875 27.875 -1.421875 
Q 17.96875 -1.421875 11.734375 6.484375 
Q 5.515625 14.40625 5.515625 27.296875 
Q 5.515625 40.1875 11.734375 48.09375 
Q 17.96875 56 27.875 56 
Q 33.9375 56 38.25 53.625 
Q 42.578125 51.265625 45.40625 46.390625 
z
M 14.796875 27.296875 
Q 14.796875 17.390625 18.875 11.75 
Q 22.953125 6.109375 30.078125 6.109375 
Q 37.203125 6.109375 41.296875 11.75 
Q 45.40625 17.390625 45.40625 27.296875 
Q 45.40625 37.203125 41.296875 42.84375 
Q 37.203125 48.484375 30.078125 48.484375 
Q 22.953125 48.484375 18.875 42.84375 
Q 14.796875 37.203125 14.796875 27.296875 
z
" id="DejaVuSans-100"/>
      <path d="M 37.109375 75.984375 
L 37.109375 68.5 
L 28.515625 68.5 
Q 23.6875 68.5 21.796875 66.546875 
Q 19.921875 64.59375 19.921875 59.515625 
L 19.921875 54.6875 
L 34.71875 54.6875 
L 34.71875 47.703125 
L 19.921875 47.703125 
L 19.921875 0 
L 10.890625 0 
L 10.890625 47.703125 
L 2.296875 47.703125 
L 2.296875 54.6875 
L 10.890625 54.6875 
L 10.890625 58.5 
Q 10.890625 67.625 15.140625 71.796875 
Q 19.390625 75.984375 28.609375 75.984375 
z
" id="DejaVuSans-102"/>
     </defs>
     <g transform="translate(355.405938 131.461063)scale(0.1 -0.1)">
      <use xlink:href="#DejaVuSans-117"/>
      <use x="63.378906" xlink:href="#DejaVuSans-110"/>
      <use x="126.757812" xlink:href="#DejaVuSans-100"/>
      <use x="190.234375" xlink:href="#DejaVuSans-101"/>
      <use x="251.757812" xlink:href="#DejaVuSans-102"/>
      <use x="286.962891" xlink:href="#DejaVuSans-105"/>
      <use x="314.746094" xlink:href="#DejaVuSans-110"/>
      <use x="378.125" xlink:href="#DejaVuSans-101"/>
      <use x="439.648438" xlink:href="#DejaVuSans-100"/>
     </g>
    </g>
   </g>
  </g>
 </g>
 <defs>
  <clipPath id="p03d3ba3d79">
   <rect height="266.112" width="357.12" x="57.6" y="41.472"/>
  </clipPath>
 </defs>
</svg>
