<?xml version="1.0" encoding="utf-8" standalone="no"?>
<!DOCTYPE svg PUBLIC "-//W3C//DTD SVG 1.1//EN"
  "http://www.w3.org/Graphics/SVG/1.1/DTD/svg11.dtd">
<!-- Created with matplotlib (https://matplotlib.org/) -->
<svg height="345.6pt" version="1.1" viewBox="0 0 460.8 345.6" width="460.8pt" xmlns="http://www.w3.org/2000/svg" xmlns:xlink="http://www.w3.org/1999/xlink">
 <defs>
  <style type="text/css">
*{stroke-linecap:butt;stroke-linejoin:round;}
  </style>
 </defs>
 <g id="figure_1">
  <g id="patch_1">
   <path d="M 0 345.6 
L 460.8 345.6 
L 460.8 0 
L 0 0 
z
" style="fill:#ffffff;"/>
  </g>
  <g id="axes_1">
   <g id="patch_2">
    <path d="M 57.6 307.584 
L 414.72 307.584 
L 414.72 41.472 
L 57.6 41.472 
z
" style="fill:#ffffff;"/>
   </g>
   <g id="patch_3">
    <path clip-path="url(#p04475a84c2)" d="M 73.832733 307.584 
L 73.832733 307.339901 
L 80.325823 307.296039 
L 80.325823 307.223572 
L 83.572363 307.223572 
L 83.572363 307.099615 
L 90.065453 307.059568 
L 90.065453 306.866958 
L 93.312004 306.866958 
L 93.312004 306.723931 
L 96.558543 306.723931 
L 96.558543 306.598067 
L 99.805094 306.598067 
L 99.805094 306.216662 
L 103.051633 306.216662 
L 103.051633 305.932515 
L 106.298184 305.932515 
L 106.298184 305.369942 
L 109.544724 305.369942 
L 109.544724 304.864581 
L 112.791274 304.864581 
L 112.791274 304.157074 
L 116.037814 304.157074 
L 116.037814 303.461009 
L 119.284365 303.461009 
L 119.284365 302.705827 
L 122.530904 302.705827 
L 122.530904 302.175673 
L 125.777455 302.175673 
L 125.777455 301.807617 
L 129.024006 301.807617 
L 129.024006 301.281277 
L 132.270545 301.281277 
L 132.270545 300.938013 
L 135.517096 300.938013 
L 135.517096 300.770194 
L 138.763635 300.770194 
L 138.763635 300.36972 
L 142.010186 300.36972 
L 142.010186 300.05506 
L 145.256725 300.05506 
L 145.256725 299.492487 
L 151.749816 299.58021 
L 151.749816 298.910844 
L 154.996366 298.910844 
L 154.996366 298.344457 
L 158.242906 298.344457 
L 158.242906 298.119428 
L 161.489457 298.119428 
L 161.489457 297.755186 
L 164.735996 297.755186 
L 164.735996 297.20787 
L 167.982547 297.20787 
L 167.982547 296.631947 
L 174.475637 296.652925 
L 174.475637 295.808111 
L 177.722182 295.808111 
L 177.722182 295.127303 
L 180.968727 295.127303 
L 180.968727 294.909902 
L 184.215273 294.909902 
L 184.215273 294.661987 
L 187.461818 294.661987 
L 187.461818 294.017414 
L 190.708363 294.017414 
L 190.708363 293.407165 
L 193.954908 293.407165 
L 193.954908 292.531839 
L 197.201453 292.531839 
L 197.201453 292.196204 
L 200.447998 292.196204 
L 200.447998 291.519211 
L 203.694543 291.519211 
L 203.694543 290.53137 
L 206.941088 290.53137 
L 206.941088 289.682745 
L 210.187639 289.682745 
L 210.187639 288.639599 
L 213.434184 288.639599 
L 213.434184 287.962604 
L 216.680729 287.962604 
L 216.680729 286.940439 
L 219.927272 286.940439 
L 219.927272 286.028882 
L 223.17382 286.028882 
L 223.17382 284.566192 
L 226.420365 284.566192 
L 226.420365 286.662015 
L 229.66691 286.662015 
L 229.66691 286.076556 
L 232.913455 286.076556 
L 232.913455 284.428889 
L 236.16 284.428889 
L 236.16 282.851776 
L 239.406545 282.851776 
L 239.406545 281.644629 
L 242.65309 281.644629 
L 242.65309 278.652505 
L 245.899637 278.652505 
L 245.899637 275.488745 
L 249.146182 275.488745 
L 249.146182 271.033933 
L 252.392727 271.033933 
L 252.392727 263.197959 
L 255.639273 263.197959 
L 255.639273 250.527685 
L 258.885818 250.527685 
L 258.885818 214.570699 
L 262.132364 214.570699 
L 262.132364 106.32406 
L 265.378909 106.32406 
L 265.378909 183.028493 
L 268.625455 183.028493 
L 268.625455 249.13555 
L 271.872 249.13555 
L 271.872 270.34359 
L 275.118546 270.34359 
L 275.118546 280.120912 
L 278.365091 280.120912 
L 278.365091 286.501824 
L 281.611636 286.501824 
L 281.611636 290.683932 
L 284.858182 290.683932 
L 284.858182 293.037203 
L 288.104727 293.037203 
L 288.104727 295.119675 
L 291.351273 295.119675 
L 291.351273 297.001911 
L 294.597818 297.001911 
L 294.597818 298.325387 
L 297.844363 298.325387 
L 297.844363 299.526814 
L 301.090908 299.526814 
L 301.090908 300.213344 
L 304.337456 300.213344 
L 304.337456 300.966619 
L 307.584001 300.966619 
L 307.584001 301.285092 
L 310.830546 301.285092 
L 310.830546 301.918225 
L 314.077088 301.918225 
L 314.077088 302.12037 
L 317.323639 302.12037 
L 317.323639 302.284374 
L 320.570184 302.284374 
L 320.570184 302.669594 
L 323.816729 302.669594 
L 323.816729 303.016672 
L 327.063275 303.016672 
L 327.063275 303.14635 
L 330.30982 303.14635 
L 330.30982 303.331331 
L 333.556365 303.331331 
L 333.556365 303.701294 
L 340.049455 303.789017 
L 340.049455 304.075071 
L 346.542545 304.118933 
L 346.542545 304.258146 
L 349.78909 304.258146 
L 349.78909 304.448848 
L 353.035635 304.448848 
L 353.035635 304.572805 
L 356.282181 304.572805 
L 356.282181 304.876022 
L 362.775276 304.944675 
L 362.775276 305.093424 
L 369.268367 305.173519 
L 369.268367 305.270777 
L 375.761457 305.375664 
L 375.761457 305.539668 
L 379.007996 305.539668 
L 379.007996 305.73037 
L 382.254547 305.73037 
L 382.254547 305.902003 
L 388.747637 305.968749 
L 388.747637 306.050751 
L 391.994177 306.050751 
L 391.994177 306.273873 
L 395.240728 306.273873 
L 395.240728 306.405458 
L 398.487267 306.405458 
L 398.487267 307.584 
L 398.487267 307.584 
" style="fill:none;stroke:#1f77b4;stroke-linejoin:miter;"/>
   </g>
   <g id="patch_4">
    <path clip-path="url(#p04475a84c2)" d="M 73.832733 307.584 
L 73.832733 306.903192 
L 77.079272 306.903192 
L 77.079272 306.777328 
L 80.325823 306.777328 
L 80.325823 306.638115 
L 83.572363 306.638115 
L 83.572363 306.407365 
L 86.818913 306.407365 
L 86.818913 306.159451 
L 90.065453 306.159451 
L 90.065453 305.905817 
L 93.312004 305.905817 
L 93.312004 305.387105 
L 96.558543 305.387105 
L 96.558543 304.979002 
L 99.805094 304.979002 
L 99.805094 304.429779 
L 103.051633 304.429779 
L 103.051633 303.497242 
L 106.298184 303.497242 
L 106.298184 302.579962 
L 109.544724 302.579962 
L 109.544724 301.36328 
L 112.791274 301.36328 
L 112.791274 300.020733 
L 116.037814 300.020733 
L 116.037814 298.731583 
L 119.284365 298.731583 
L 119.284365 297.760906 
L 122.530904 297.760906 
L 122.530904 296.658646 
L 125.777455 296.658646 
L 125.777455 295.499174 
L 129.024006 295.499174 
L 129.024006 294.949951 
L 132.270545 294.949951 
L 132.270545 294.566638 
L 135.517096 294.566638 
L 135.517096 293.698943 
L 138.763635 293.698943 
L 138.763635 292.732079 
L 142.010186 292.732079 
L 142.010186 292.516584 
L 145.256725 292.516584 
L 145.256725 291.370461 
L 148.503276 291.370461 
L 148.503276 291.036731 
L 151.749816 291.036731 
L 151.749816 290.04508 
L 154.996366 290.04508 
L 154.996366 289.291801 
L 158.242906 289.291801 
L 158.242906 288.97333 
L 161.489457 288.97333 
L 161.489457 288.03698 
L 164.735996 288.03698 
L 164.735996 287.508733 
L 167.982547 287.508733 
L 167.982547 286.782158 
L 171.229092 286.782158 
L 171.229092 285.758083 
L 174.475637 285.758083 
L 174.475637 285.477749 
L 177.722182 285.477749 
L 177.722182 284.690147 
L 180.968727 284.690147 
L 180.968727 283.595513 
L 184.215273 283.595513 
L 184.215273 282.764053 
L 187.461818 282.764053 
L 187.461818 281.206009 
L 190.708363 281.206009 
L 190.708363 280.525202 
L 193.954908 280.525202 
L 193.954908 279.571689 
L 197.201453 279.571689 
L 197.201453 277.906858 
L 200.447998 277.906858 
L 200.447998 276.735941 
L 203.694543 276.735941 
L 203.694543 276.097091 
L 206.941088 276.097091 
L 206.941088 274.144293 
L 210.187639 274.144293 
L 210.187639 272.796025 
L 213.434184 272.796025 
L 213.434184 271.203661 
L 216.680729 271.203661 
L 216.680729 269.153609 
L 219.927272 269.153609 
L 219.927272 267.782452 
L 223.17382 267.782452 
L 223.17382 266.209156 
L 226.420365 266.209156 
L 226.420365 267.326675 
L 229.66691 267.326675 
L 229.66691 265.713333 
L 232.913455 265.713333 
L 232.913455 264.64539 
L 236.16 264.64539 
L 236.16 262.109051 
L 239.406545 262.109051 
L 239.406545 258.85185 
L 242.65309 258.85185 
L 242.65309 254.686905 
L 245.899637 254.686905 
L 245.899637 248.855219 
L 249.146182 248.855219 
L 249.146182 240.662634 
L 252.392727 240.662634 
L 252.392727 228.745627 
L 255.639273 228.745627 
L 255.639273 206.01387 
L 258.885818 206.01387 
L 258.885818 156.618081 
L 262.132364 156.618081 
L 262.132364 54.144 
L 265.378909 54.144 
L 265.378909 127.236531 
L 268.625455 127.236531 
L 268.625455 199.392676 
L 271.872 199.392676 
L 271.872 233.774453 
L 275.118546 233.774453 
L 275.118546 250.699311 
L 278.365091 250.699311 
L 278.365091 261.639921 
L 281.611636 261.639921 
L 281.611636 270.22535 
L 284.858182 270.22535 
L 284.858182 275.887314 
L 288.104727 275.887314 
L 288.104727 280.731162 
L 291.351273 280.731162 
L 291.351273 283.463927 
L 294.597818 283.463927 
L 294.597818 286.892763 
L 297.844363 286.892763 
L 297.844363 288.992401 
L 301.090908 288.992401 
L 301.090908 291.376182 
L 304.337456 291.376182 
L 304.337456 292.507047 
L 307.584001 292.507047 
L 307.584001 293.210743 
L 310.830546 293.210743 
L 310.830546 294.408355 
L 314.077088 294.408355 
L 314.077088 295.211212 
L 317.323639 295.211212 
L 317.323639 296.025514 
L 320.570184 296.025514 
L 320.570184 297.040051 
L 323.816729 297.040051 
L 323.816729 297.38713 
L 327.063275 297.38713 
L 327.063275 297.928725 
L 330.30982 297.928725 
L 330.30982 298.691536 
L 333.556365 298.691536 
L 333.556365 299.1702 
L 336.80291 299.1702 
L 336.80291 299.748028 
L 340.049455 299.748028 
L 340.049455 299.95208 
L 343.296 299.95208 
L 343.296 300.198087 
L 346.542545 300.198087 
L 346.542545 300.815963 
L 349.78909 300.815963 
L 349.78909 301.166857 
L 353.035635 301.166857 
L 353.035635 301.451002 
L 356.282181 301.451002 
L 356.282181 301.880084 
L 359.528726 301.880084 
L 359.528726 302.19665 
L 362.775276 302.19665 
L 362.775276 302.833596 
L 369.268367 302.925134 
L 369.268367 303.11393 
L 372.514906 303.11393 
L 372.514906 303.579244 
L 375.761457 303.579244 
L 375.761457 303.720364 
L 379.007996 303.720364 
L 379.007996 304.109398 
L 382.254547 304.109398 
L 382.254547 304.351591 
L 385.501087 304.351591 
L 385.501087 304.641459 
L 388.747637 304.641459 
L 388.747637 304.914163 
L 391.994177 304.914163 
L 391.994177 305.186867 
L 395.240728 305.186867 
L 395.240728 305.612135 
L 398.487267 305.612135 
L 398.487267 307.584 
L 398.487267 307.584 
" style="fill:none;stroke:#ff7f0e;stroke-linejoin:miter;"/>
   </g>
   <g id="patch_5">
    <path clip-path="url(#p04475a84c2)" d="M 73.832733 307.584 
L 73.832733 307.517254 
L 90.065453 307.452415 
L 90.065453 307.366599 
L 96.558543 307.318923 
L 96.558543 307.240735 
L 103.051633 307.219758 
L 103.051633 307.03859 
L 106.298184 307.03859 
L 106.298184 306.870772 
L 109.544724 306.870772 
L 109.544724 306.548485 
L 112.791274 306.548485 
L 112.791274 306.220476 
L 116.037814 306.220476 
L 116.037814 305.924887 
L 119.284365 305.924887 
L 119.284365 305.614042 
L 122.530904 305.614042 
L 122.530904 305.402362 
L 125.777455 305.402362 
L 125.777455 305.17924 
L 129.024006 305.17924 
L 129.024006 304.998072 
L 132.270545 304.998072 
L 132.270545 304.660529 
L 135.517096 304.660529 
L 135.517096 304.486989 
L 138.763635 304.486989 
L 138.763635 303.99879 
L 142.010186 303.99879 
L 142.010186 303.796646 
L 145.256725 303.796646 
L 145.256725 303.413334 
L 148.503276 303.413334 
L 148.503276 303.035742 
L 151.749816 303.035742 
L 151.749816 302.524659 
L 154.996366 302.524659 
L 154.996366 301.79999 
L 158.242906 301.79999 
L 158.242906 301.376629 
L 161.489457 301.376629 
L 161.489457 300.482234 
L 164.735996 300.482234 
L 164.735996 299.793797 
L 167.982547 299.793797 
L 167.982547 298.605719 
L 171.229092 298.605719 
L 171.229092 297.223127 
L 174.475637 297.223127 
L 174.475637 295.890114 
L 177.722182 295.890114 
L 177.722182 294.288211 
L 180.968727 294.288211 
L 180.968727 291.351392 
L 184.215273 291.351392 
L 184.215273 288.429827 
L 187.461818 288.429827 
L 187.461818 284.754988 
L 190.708363 284.754988 
L 190.708363 279.703273 
L 193.954908 279.703273 
L 193.954908 272.414618 
L 197.201453 272.414618 
L 197.201453 262.694502 
L 200.447998 262.694502 
L 200.447998 252.846618 
L 203.694543 252.846618 
L 203.694543 249.942221 
L 206.941088 249.942221 
L 206.941088 257.90787 
L 210.187639 257.90787 
L 210.187639 265.745746 
L 213.434184 265.745746 
L 213.434184 271.451575 
L 216.680729 271.451575 
L 216.680729 275.359069 
L 219.927272 275.359069 
L 219.927272 277.660852 
L 223.17382 277.660852 
L 223.17382 279.827232 
L 226.420365 279.827232 
L 226.420365 281.467272 
L 229.66691 281.467272 
L 229.66691 282.493254 
L 232.913455 282.493254 
L 232.913455 282.979548 
L 236.16 282.979548 
L 236.16 282.752612 
L 239.406545 282.752612 
L 239.406545 281.724722 
L 242.65309 281.724722 
L 242.65309 280.1438 
L 245.899637 280.1438 
L 245.899637 277.962157 
L 249.146182 277.962157 
L 249.146182 274.117593 
L 252.392727 274.117593 
L 252.392727 268.15623 
L 255.639273 268.15623 
L 255.639273 256.595833 
L 258.885818 256.595833 
L 258.885818 224.49678 
L 262.132364 224.49678 
L 262.132364 124.311142 
L 265.378909 124.311142 
L 265.378909 198.349535 
L 268.625455 198.349535 
L 268.625455 256.937198 
L 271.872 256.937198 
L 271.872 276.762641 
L 275.118546 276.762641 
L 275.118546 286.227213 
L 278.365091 286.227213 
L 278.365091 291.59549 
L 281.611636 291.59549 
L 281.611636 294.808829 
L 284.858182 294.808829 
L 284.858182 297.200242 
L 288.104727 297.200242 
L 288.104727 298.743025 
L 291.351273 298.743025 
L 291.351273 300.264832 
L 294.597818 300.264832 
L 294.597818 301.519656 
L 297.844363 301.519656 
L 297.844363 302.242419 
L 301.090908 302.242419 
L 301.090908 302.84504 
L 304.337456 302.84504 
L 304.337456 303.506778 
L 307.584001 303.506778 
L 307.584001 303.87102 
L 310.830546 303.87102 
L 310.830546 304.176144 
L 314.077088 304.176144 
L 314.077088 304.603318 
L 317.323639 304.603318 
L 317.323639 304.818812 
L 323.816729 304.91607 
L 323.816729 305.110587 
L 327.063275 305.110587 
L 327.063275 305.308918 
L 330.30982 305.308918 
L 330.30982 305.444317 
L 336.80291 305.425246 
L 336.80291 305.779953 
L 346.542545 305.840978 
L 346.542545 305.945864 
L 353.035635 306.008796 
L 353.035635 306.226197 
L 366.021816 306.29485 
L 366.021816 306.409272 
L 372.514906 306.456947 
L 372.514906 306.586625 
L 379.007996 306.697233 
L 379.007996 306.71821 
L 385.501087 306.790677 
L 385.501087 306.918448 
L 391.994177 306.969937 
L 391.994177 307.114871 
L 398.487267 307.14157 
L 398.487267 307.584 
L 398.487267 307.584 
" style="fill:none;stroke:#2ca02c;stroke-linejoin:miter;"/>
   </g>
   <g id="patch_6">
    <path clip-path="url(#p04475a84c2)" d="M 73.832733 307.584 
L 73.832733 307.479114 
L 86.818913 307.439066 
L 86.818913 307.360878 
L 96.558543 307.25027 
L 96.558543 307.128221 
L 99.805094 307.128221 
L 99.805094 306.992822 
L 103.051633 306.992822 
L 103.051633 306.762072 
L 106.298184 306.762072 
L 106.298184 306.401644 
L 109.544724 306.401644 
L 109.544724 306.148009 
L 112.791274 306.148009 
L 112.791274 305.633112 
L 116.037814 305.633112 
L 116.037814 305.400455 
L 119.284365 305.400455 
L 119.284365 305.133471 
L 122.530904 305.133471 
L 122.530904 304.721553 
L 125.777455 304.721553 
L 125.777455 304.363032 
L 129.024006 304.363032 
L 129.024006 304.113212 
L 132.270545 304.113212 
L 132.270545 303.712736 
L 135.517096 303.712736 
L 135.517096 303.317982 
L 138.763635 303.317982 
L 138.763635 302.77448 
L 142.010186 302.77448 
L 142.010186 302.362562 
L 145.256725 302.362562 
L 145.256725 301.864828 
L 148.503276 301.864828 
L 148.503276 301.096296 
L 151.749816 301.096296 
L 151.749816 300.335393 
L 154.996366 300.335393 
L 154.996366 299.383787 
L 158.242906 299.383787 
L 158.242906 298.403575 
L 161.489457 298.403575 
L 161.489457 297.31085 
L 164.735996 297.31085 
L 164.735996 295.686064 
L 167.982547 295.686064 
L 167.982547 294.030763 
L 171.229092 294.030763 
L 171.229092 291.53828 
L 174.475637 291.53828 
L 174.475637 289.000028 
L 177.722182 289.000028 
L 177.722182 285.578823 
L 180.968727 285.578823 
L 180.968727 281.230802 
L 184.215273 281.230802 
L 184.215273 275.822477 
L 187.461818 275.822477 
L 187.461818 268.295443 
L 190.708363 268.295443 
L 190.708363 259.14553 
L 193.954908 259.14553 
L 193.954908 252.955323 
L 197.201453 252.955323 
L 197.201453 255.539338 
L 200.447998 255.539338 
L 200.447998 264.374602 
L 203.694543 264.374602 
L 203.694543 270.37601 
L 206.941088 270.37601 
L 206.941088 274.61342 
L 210.187639 274.61342 
L 210.187639 277.735226 
L 213.434184 277.735226 
L 213.434184 280.448921 
L 216.680729 280.448921 
L 216.680729 281.612207 
L 219.927272 281.612207 
L 219.927272 282.296833 
L 223.17382 282.296833 
L 223.17382 283.280857 
L 226.420365 283.280857 
L 226.420365 283.940686 
L 229.66691 283.940686 
L 229.66691 284.083713 
L 232.913455 284.083713 
L 232.913455 283.898732 
L 236.16 283.898732 
L 236.16 283.441048 
L 239.406545 283.441048 
L 239.406545 282.138547 
L 242.65309 282.138547 
L 242.65309 280.879907 
L 245.899637 280.879907 
L 245.899637 278.023186 
L 249.146182 278.023186 
L 249.146182 273.881125 
L 252.392727 273.881125 
L 252.392727 267.586028 
L 255.639273 267.586028 
L 255.639273 256.119074 
L 258.885818 256.119074 
L 258.885818 223.190453 
L 262.132364 223.190453 
L 262.132364 125.380981 
L 265.378909 125.380981 
L 265.378909 197.542854 
L 268.625455 197.542854 
L 268.625455 255.892143 
L 271.872 255.892143 
L 271.872 275.942617 
L 275.118546 275.942617 
L 275.118546 284.987644 
L 278.365091 284.987644 
L 278.365091 290.029824 
L 281.611636 290.029824 
L 281.611636 293.582612 
L 284.858182 293.582612 
L 284.858182 296.206681 
L 288.104727 296.206681 
L 288.104727 298.216686 
L 291.351273 298.216686 
L 291.351273 299.353274 
L 294.597818 299.353274 
L 294.597818 300.600469 
L 297.844363 300.600469 
L 297.844363 301.653148 
L 301.090908 301.653148 
L 301.090908 302.148975 
L 304.337456 302.148975 
L 304.337456 302.917507 
L 307.584001 302.917507 
L 307.584001 303.417147 
L 310.830546 303.417147 
L 310.830546 303.57543 
L 314.077088 303.57543 
L 314.077088 303.987348 
L 317.323639 303.987348 
L 317.323639 304.399266 
L 323.816729 304.460291 
L 323.816729 304.883651 
L 330.30982 304.990444 
L 330.30982 305.261242 
L 333.556365 305.261242 
L 333.556365 305.377571 
L 340.049455 305.396641 
L 340.049455 305.617856 
L 346.542545 305.69223 
L 346.542545 305.802837 
L 349.78909 305.802837 
L 349.78909 305.957307 
L 353.035635 305.957307 
L 353.035635 306.088891 
L 362.775276 306.090798 
L 362.775276 306.352061 
L 369.268367 306.378759 
L 369.268367 306.464576 
L 375.761457 306.550392 
L 375.761457 306.662906 
L 382.254547 306.662906 
L 382.254547 306.784956 
L 385.501087 306.784956 
L 385.501087 306.927983 
L 391.994177 307.009985 
L 391.994177 307.103429 
L 395.240728 307.103429 
L 395.240728 307.217851 
L 398.487267 307.217851 
L 398.487267 307.584 
L 398.487267 307.584 
" style="fill:none;stroke:#d62728;stroke-linejoin:miter;"/>
   </g>
   <g id="patch_7">
    <path clip-path="url(#p04475a84c2)" d="M 73.832733 307.584 
L 73.832733 305.705579 
L 77.079272 305.705579 
L 77.079272 305.245985 
L 80.325823 305.245985 
L 80.325823 304.818812 
L 83.572363 304.818812 
L 83.572363 304.183772 
L 86.818913 304.183772 
L 86.818913 303.657432 
L 90.065453 303.657432 
L 90.065453 302.738245 
L 93.312004 302.738245 
L 93.312004 301.864828 
L 96.558543 301.864828 
L 96.558543 301.027645 
L 99.805094 301.027645 
L 99.805094 300.015012 
L 103.051633 300.015012 
L 103.051633 298.592371 
L 106.298184 298.592371 
L 106.298184 297.434805 
L 109.544724 297.434805 
L 109.544724 296.149471 
L 112.791274 296.149471 
L 112.791274 294.326352 
L 116.037814 294.326352 
L 116.037814 292.802637 
L 119.284365 292.802637 
L 119.284365 291.128268 
L 122.530904 291.128268 
L 122.530904 289.944006 
L 125.777455 289.944006 
L 125.777455 287.804323 
L 129.024006 287.804323 
L 129.024006 285.666543 
L 132.270545 285.666543 
L 132.270545 284.337347 
L 135.517096 284.337347 
L 135.517096 282.508513 
L 138.763635 282.508513 
L 138.763635 280.385992 
L 142.010186 280.385992 
L 142.010186 278.946185 
L 145.256725 278.946185 
L 145.256725 277.115439 
L 148.503276 277.115439 
L 148.503276 275.296139 
L 151.749816 275.296139 
L 151.749816 273.522606 
L 154.996366 273.522606 
L 154.996366 272.233451 
L 158.242906 272.233451 
L 158.242906 270.555269 
L 161.489457 270.555269 
L 161.489457 268.821778 
L 164.735996 268.821778 
L 164.735996 268.44228 
L 167.982547 268.44228 
L 167.982547 267.565055 
L 171.229092 267.565055 
L 171.229092 266.914756 
L 174.475637 266.914756 
L 174.475637 266.235854 
L 177.722182 266.235854 
L 177.722182 265.843007 
L 180.968727 265.843007 
L 180.968727 265.129774 
L 184.215273 265.129774 
L 184.215273 264.944803 
L 187.461818 264.944803 
L 187.461818 265.347184 
L 190.708363 265.347184 
L 190.708363 265.86208 
L 193.954908 265.86208 
L 193.954908 266.785081 
L 197.201453 266.785081 
L 197.201453 267.540257 
L 200.447998 267.540257 
L 200.447998 268.686384 
L 203.694543 268.686384 
L 203.694543 270.917599 
L 206.941088 270.917599 
L 206.941088 273.085898 
L 210.187639 273.085898 
L 210.187639 274.649652 
L 213.434184 274.649652 
L 213.434184 275.790055 
L 216.680729 275.790055 
L 216.680729 276.528079 
L 219.927272 276.528079 
L 219.927272 276.888506 
L 223.17382 276.888506 
L 223.17382 277.645593 
L 226.420365 277.645593 
L 226.420365 278.267283 
L 229.66691 278.267283 
L 229.66691 278.396964 
L 232.913455 278.396964 
L 232.913455 278.053698 
L 236.16 278.053698 
L 236.16 277.493029 
L 239.406545 277.493029 
L 239.406545 276.295417 
L 242.65309 276.295417 
L 242.65309 274.611517 
L 245.899637 274.611517 
L 245.899637 271.564086 
L 249.146182 271.564086 
L 249.146182 267.593662 
L 252.392727 267.593662 
L 252.392727 260.444214 
L 255.639273 260.444214 
L 255.639273 246.223519 
L 258.885818 246.223519 
L 258.885818 213.832672 
L 262.132364 213.832672 
L 262.132364 131.853428 
L 265.378909 131.853428 
L 265.378909 190.09974 
L 268.625455 190.09974 
L 268.625455 238.59923 
L 271.872 238.59923 
L 271.872 260.13337 
L 275.118546 260.13337 
L 275.118546 271.54311 
L 278.365091 271.54311 
L 278.365091 277.76955 
L 281.611636 277.76955 
L 281.611636 281.709464 
L 284.858182 281.709464 
L 284.858182 284.974295 
L 288.104727 284.974295 
L 288.104727 286.942344 
L 291.351273 286.942344 
L 291.351273 288.385968 
L 294.597818 288.385968 
L 294.597818 290.47988 
L 297.844363 290.47988 
L 297.844363 291.252227 
L 301.090908 291.252227 
L 301.090908 292.001688 
L 304.337456 292.001688 
L 304.337456 293.168787 
L 307.584001 293.168787 
L 307.584001 293.756152 
L 310.830546 293.756152 
L 310.830546 294.600965 
L 314.077088 294.600965 
L 314.077088 294.949952 
L 317.323639 294.949952 
L 317.323639 295.646014 
L 320.570184 295.646014 
L 320.570184 295.903463 
L 323.816729 295.903463 
L 323.816729 296.305846 
L 327.063275 296.305846 
L 327.063275 296.956142 
L 330.30982 296.956142 
L 330.30982 297.320385 
L 333.556365 297.320385 
L 333.556365 297.869609 
L 340.049455 297.947795 
L 340.049455 298.762096 
L 343.296 298.762096 
L 343.296 299.006196 
L 346.542545 299.006196 
L 346.542545 299.532534 
L 349.78909 299.532534 
L 349.78909 299.929196 
L 353.035635 299.929196 
L 353.035635 300.224784 
L 356.282181 300.224784 
L 356.282181 300.814057 
L 359.528726 300.814057 
L 359.528726 301.325139 
L 362.775276 301.325139 
L 362.775276 301.479608 
L 366.021816 301.479608 
L 366.021816 301.937294 
L 369.268367 301.937294 
L 369.268367 302.503681 
L 372.514906 302.503681 
L 372.514906 303.014764 
L 375.761457 303.014764 
L 375.761457 303.733713 
L 379.007996 303.733713 
L 379.007996 303.989256 
L 382.254547 303.989256 
L 382.254547 304.641459 
L 385.501087 304.641459 
L 385.501087 304.938954 
L 388.747637 304.938954 
L 388.747637 305.406176 
L 391.994177 305.406176 
L 391.994177 305.810465 
L 395.240728 305.810465 
L 395.240728 306.151823 
L 398.487267 306.151823 
L 398.487267 307.584 
L 398.487267 307.584 
" style="fill:none;stroke:#9467bd;stroke-linejoin:miter;"/>
   </g>
   <g id="patch_8">
    <path clip-path="url(#p04475a84c2)" d="M 73.832727 307.584 
L 398.487273 307.584 
L 398.487273 307.584 
" style="fill:none;stroke:#000000;stroke-linejoin:miter;"/>
   </g>
   <g id="matplotlib.axis_1">
    <g id="xtick_1">
     <g id="line2d_1">
      <defs>
       <path d="M 0 0 
L 0 3.5 
" id="m33934b8982" style="stroke:#000000;stroke-width:0.8;"/>
      </defs>
      <g>
       <use style="stroke:#000000;stroke-width:0.8;" x="112.561189" xlink:href="#m33934b8982" y="307.584"/>
      </g>
     </g>
     <g id="text_1">
      <!-- −0.4 -->
      <defs>
       <path d="M 10.59375 35.5 
L 73.1875 35.5 
L 73.1875 27.203125 
L 10.59375 27.203125 
z
" id="DejaVuSans-8722"/>
       <path d="M 31.78125 66.40625 
Q 24.171875 66.40625 20.328125 58.90625 
Q 16.5 51.421875 16.5 36.375 
Q 16.5 21.390625 20.328125 13.890625 
Q 24.171875 6.390625 31.78125 6.390625 
Q 39.453125 6.390625 43.28125 13.890625 
Q 47.125 21.390625 47.125 36.375 
Q 47.125 51.421875 43.28125 58.90625 
Q 39.453125 66.40625 31.78125 66.40625 
z
M 31.78125 74.21875 
Q 44.046875 74.21875 50.515625 64.515625 
Q 56.984375 54.828125 56.984375 36.375 
Q 56.984375 17.96875 50.515625 8.265625 
Q 44.046875 -1.421875 31.78125 -1.421875 
Q 19.53125 -1.421875 13.0625 8.265625 
Q 6.59375 17.96875 6.59375 36.375 
Q 6.59375 54.828125 13.0625 64.515625 
Q 19.53125 74.21875 31.78125 74.21875 
z
" id="DejaVuSans-48"/>
       <path d="M 10.6875 12.40625 
L 21 12.40625 
L 21 0 
L 10.6875 0 
z
" id="DejaVuSans-46"/>
       <path d="M 37.796875 64.3125 
L 12.890625 25.390625 
L 37.796875 25.390625 
z
M 35.203125 72.90625 
L 47.609375 72.90625 
L 47.609375 25.390625 
L 58.015625 25.390625 
L 58.015625 17.1875 
L 47.609375 17.1875 
L 47.609375 0 
L 37.796875 0 
L 37.796875 17.1875 
L 4.890625 17.1875 
L 4.890625 26.703125 
z
" id="DejaVuSans-52"/>
      </defs>
      <g transform="translate(100.419782 322.182437)scale(0.1 -0.1)">
       <use xlink:href="#DejaVuSans-8722"/>
       <use x="83.789062" xlink:href="#DejaVuSans-48"/>
       <use x="147.412109" xlink:href="#DejaVuSans-46"/>
       <use x="179.199219" xlink:href="#DejaVuSans-52"/>
      </g>
     </g>
    </g>
    <g id="xtick_2">
     <g id="line2d_2">
      <g>
       <use style="stroke:#000000;stroke-width:0.8;" x="188.583763" xlink:href="#m33934b8982" y="307.584"/>
      </g>
     </g>
     <g id="text_2">
      <!-- −0.2 -->
      <defs>
       <path d="M 19.1875 8.296875 
L 53.609375 8.296875 
L 53.609375 0 
L 7.328125 0 
L 7.328125 8.296875 
Q 12.9375 14.109375 22.625 23.890625 
Q 32.328125 33.6875 34.8125 36.53125 
Q 39.546875 41.84375 41.421875 45.53125 
Q 43.3125 49.21875 43.3125 52.78125 
Q 43.3125 58.59375 39.234375 62.25 
Q 35.15625 65.921875 28.609375 65.921875 
Q 23.96875 65.921875 18.8125 64.3125 
Q 13.671875 62.703125 7.8125 59.421875 
L 7.8125 69.390625 
Q 13.765625 71.78125 18.9375 73 
Q 24.125 74.21875 28.421875 74.21875 
Q 39.75 74.21875 46.484375 68.546875 
Q 53.21875 62.890625 53.21875 53.421875 
Q 53.21875 48.921875 51.53125 44.890625 
Q 49.859375 40.875 45.40625 35.40625 
Q 44.1875 33.984375 37.640625 27.21875 
Q 31.109375 20.453125 19.1875 8.296875 
z
" id="DejaVuSans-50"/>
      </defs>
      <g transform="translate(176.442356 322.182437)scale(0.1 -0.1)">
       <use xlink:href="#DejaVuSans-8722"/>
       <use x="83.789062" xlink:href="#DejaVuSans-48"/>
       <use x="147.412109" xlink:href="#DejaVuSans-46"/>
       <use x="179.199219" xlink:href="#DejaVuSans-50"/>
      </g>
     </g>
    </g>
    <g id="xtick_3">
     <g id="line2d_3">
      <g>
       <use style="stroke:#000000;stroke-width:0.8;" x="264.606337" xlink:href="#m33934b8982" y="307.584"/>
      </g>
     </g>
     <g id="text_3">
      <!-- 0.0 -->
      <g transform="translate(256.654774 322.182437)scale(0.1 -0.1)">
       <use xlink:href="#DejaVuSans-48"/>
       <use x="63.623047" xlink:href="#DejaVuSans-46"/>
       <use x="95.410156" xlink:href="#DejaVuSans-48"/>
      </g>
     </g>
    </g>
    <g id="xtick_4">
     <g id="line2d_4">
      <g>
       <use style="stroke:#000000;stroke-width:0.8;" x="340.628911" xlink:href="#m33934b8982" y="307.584"/>
      </g>
     </g>
     <g id="text_4">
      <!-- 0.2 -->
      <g transform="translate(332.677348 322.182437)scale(0.1 -0.1)">
       <use xlink:href="#DejaVuSans-48"/>
       <use x="63.623047" xlink:href="#DejaVuSans-46"/>
       <use x="95.410156" xlink:href="#DejaVuSans-50"/>
      </g>
     </g>
    </g>
    <g id="text_5">
     <!-- j1_phirot -->
     <defs>
      <path d="M 9.421875 54.6875 
L 18.40625 54.6875 
L 18.40625 -0.984375 
Q 18.40625 -11.421875 14.421875 -16.109375 
Q 10.453125 -20.796875 1.609375 -20.796875 
L -1.8125 -20.796875 
L -1.8125 -13.1875 
L 0.59375 -13.1875 
Q 5.71875 -13.1875 7.5625 -10.8125 
Q 9.421875 -8.453125 9.421875 -0.984375 
z
M 9.421875 75.984375 
L 18.40625 75.984375 
L 18.40625 64.59375 
L 9.421875 64.59375 
z
" id="DejaVuSans-106"/>
      <path d="M 12.40625 8.296875 
L 28.515625 8.296875 
L 28.515625 63.921875 
L 10.984375 60.40625 
L 10.984375 69.390625 
L 28.421875 72.90625 
L 38.28125 72.90625 
L 38.28125 8.296875 
L 54.390625 8.296875 
L 54.390625 0 
L 12.40625 0 
z
" id="DejaVuSans-49"/>
      <path d="M 50.984375 -16.609375 
L 50.984375 -23.578125 
L -0.984375 -23.578125 
L -0.984375 -16.609375 
z
" id="DejaVuSans-95"/>
      <path d="M 18.109375 8.203125 
L 18.109375 -20.796875 
L 9.078125 -20.796875 
L 9.078125 54.6875 
L 18.109375 54.6875 
L 18.109375 46.390625 
Q 20.953125 51.265625 25.265625 53.625 
Q 29.59375 56 35.59375 56 
Q 45.5625 56 51.78125 48.09375 
Q 58.015625 40.1875 58.015625 27.296875 
Q 58.015625 14.40625 51.78125 6.484375 
Q 45.5625 -1.421875 35.59375 -1.421875 
Q 29.59375 -1.421875 25.265625 0.953125 
Q 20.953125 3.328125 18.109375 8.203125 
z
M 48.6875 27.296875 
Q 48.6875 37.203125 44.609375 42.84375 
Q 40.53125 48.484375 33.40625 48.484375 
Q 26.265625 48.484375 22.1875 42.84375 
Q 18.109375 37.203125 18.109375 27.296875 
Q 18.109375 17.390625 22.1875 11.75 
Q 26.265625 6.109375 33.40625 6.109375 
Q 40.53125 6.109375 44.609375 11.75 
Q 48.6875 17.390625 48.6875 27.296875 
z
" id="DejaVuSans-112"/>
      <path d="M 54.890625 33.015625 
L 54.890625 0 
L 45.90625 0 
L 45.90625 32.71875 
Q 45.90625 40.484375 42.875 44.328125 
Q 39.84375 48.1875 33.796875 48.1875 
Q 26.515625 48.1875 22.3125 43.546875 
Q 18.109375 38.921875 18.109375 30.90625 
L 18.109375 0 
L 9.078125 0 
L 9.078125 75.984375 
L 18.109375 75.984375 
L 18.109375 46.1875 
Q 21.34375 51.125 25.703125 53.5625 
Q 30.078125 56 35.796875 56 
Q 45.21875 56 50.046875 50.171875 
Q 54.890625 44.34375 54.890625 33.015625 
z
" id="DejaVuSans-104"/>
      <path d="M 9.421875 54.6875 
L 18.40625 54.6875 
L 18.40625 0 
L 9.421875 0 
z
M 9.421875 75.984375 
L 18.40625 75.984375 
L 18.40625 64.59375 
L 9.421875 64.59375 
z
" id="DejaVuSans-105"/>
      <path d="M 41.109375 46.296875 
Q 39.59375 47.171875 37.8125 47.578125 
Q 36.03125 48 33.890625 48 
Q 26.265625 48 22.1875 43.046875 
Q 18.109375 38.09375 18.109375 28.8125 
L 18.109375 0 
L 9.078125 0 
L 9.078125 54.6875 
L 18.109375 54.6875 
L 18.109375 46.1875 
Q 20.953125 51.171875 25.484375 53.578125 
Q 30.03125 56 36.53125 56 
Q 37.453125 56 38.578125 55.875 
Q 39.703125 55.765625 41.0625 55.515625 
z
" id="DejaVuSans-114"/>
      <path d="M 30.609375 48.390625 
Q 23.390625 48.390625 19.1875 42.75 
Q 14.984375 37.109375 14.984375 27.296875 
Q 14.984375 17.484375 19.15625 11.84375 
Q 23.34375 6.203125 30.609375 6.203125 
Q 37.796875 6.203125 41.984375 11.859375 
Q 46.1875 17.53125 46.1875 27.296875 
Q 46.1875 37.015625 41.984375 42.703125 
Q 37.796875 48.390625 30.609375 48.390625 
z
M 30.609375 56 
Q 42.328125 56 49.015625 48.375 
Q 55.71875 40.765625 55.71875 27.296875 
Q 55.71875 13.875 49.015625 6.21875 
Q 42.328125 -1.421875 30.609375 -1.421875 
Q 18.84375 -1.421875 12.171875 6.21875 
Q 5.515625 13.875 5.515625 27.296875 
Q 5.515625 40.765625 12.171875 48.375 
Q 18.84375 56 30.609375 56 
z
" id="DejaVuSans-111"/>
      <path d="M 18.3125 70.21875 
L 18.3125 54.6875 
L 36.8125 54.6875 
L 36.8125 47.703125 
L 18.3125 47.703125 
L 18.3125 18.015625 
Q 18.3125 11.328125 20.140625 9.421875 
Q 21.96875 7.515625 27.59375 7.515625 
L 36.8125 7.515625 
L 36.8125 0 
L 27.59375 0 
Q 17.1875 0 13.234375 3.875 
Q 9.28125 7.765625 9.28125 18.015625 
L 9.28125 47.703125 
L 2.6875 47.703125 
L 2.6875 54.6875 
L 9.28125 54.6875 
L 9.28125 70.21875 
z
" id="DejaVuSans-116"/>
     </defs>
     <g transform="translate(214.284219 335.860562)scale(0.1 -0.1)">
      <use xlink:href="#DejaVuSans-106"/>
      <use x="27.783203" xlink:href="#DejaVuSans-49"/>
      <use x="91.40625" xlink:href="#DejaVuSans-95"/>
      <use x="141.40625" xlink:href="#DejaVuSans-112"/>
      <use x="204.882812" xlink:href="#DejaVuSans-104"/>
      <use x="268.261719" xlink:href="#DejaVuSans-105"/>
      <use x="296.044922" xlink:href="#DejaVuSans-114"/>
      <use x="337.126953" xlink:href="#DejaVuSans-111"/>
      <use x="398.308594" xlink:href="#DejaVuSans-116"/>
     </g>
    </g>
   </g>
   <g id="matplotlib.axis_2">
    <g id="ytick_1">
     <g id="line2d_5">
      <defs>
       <path d="M 0 0 
L -3.5 0 
" id="m73f65f22da" style="stroke:#000000;stroke-width:0.8;"/>
      </defs>
      <g>
       <use style="stroke:#000000;stroke-width:0.8;" x="57.6" xlink:href="#m73f65f22da" y="307.584"/>
      </g>
     </g>
     <g id="text_6">
      <!-- 0.000 -->
      <g transform="translate(21.971875 311.383219)scale(0.1 -0.1)">
       <use xlink:href="#DejaVuSans-48"/>
       <use x="63.623047" xlink:href="#DejaVuSans-46"/>
       <use x="95.410156" xlink:href="#DejaVuSans-48"/>
       <use x="159.033203" xlink:href="#DejaVuSans-48"/>
       <use x="222.65625" xlink:href="#DejaVuSans-48"/>
      </g>
     </g>
    </g>
    <g id="ytick_2">
     <g id="line2d_6">
      <g>
       <use style="stroke:#000000;stroke-width:0.8;" x="57.6" xlink:href="#m73f65f22da" y="258.764994"/>
      </g>
     </g>
     <g id="text_7">
      <!-- 0.005 -->
      <defs>
       <path d="M 10.796875 72.90625 
L 49.515625 72.90625 
L 49.515625 64.59375 
L 19.828125 64.59375 
L 19.828125 46.734375 
Q 21.96875 47.46875 24.109375 47.828125 
Q 26.265625 48.1875 28.421875 48.1875 
Q 40.625 48.1875 47.75 41.5 
Q 54.890625 34.8125 54.890625 23.390625 
Q 54.890625 11.625 47.5625 5.09375 
Q 40.234375 -1.421875 26.90625 -1.421875 
Q 22.3125 -1.421875 17.546875 -0.640625 
Q 12.796875 0.140625 7.71875 1.703125 
L 7.71875 11.625 
Q 12.109375 9.234375 16.796875 8.0625 
Q 21.484375 6.890625 26.703125 6.890625 
Q 35.15625 6.890625 40.078125 11.328125 
Q 45.015625 15.765625 45.015625 23.390625 
Q 45.015625 31 40.078125 35.4375 
Q 35.15625 39.890625 26.703125 39.890625 
Q 22.75 39.890625 18.8125 39.015625 
Q 14.890625 38.140625 10.796875 36.28125 
z
" id="DejaVuSans-53"/>
      </defs>
      <g transform="translate(21.971875 262.564213)scale(0.1 -0.1)">
       <use xlink:href="#DejaVuSans-48"/>
       <use x="63.623047" xlink:href="#DejaVuSans-46"/>
       <use x="95.410156" xlink:href="#DejaVuSans-48"/>
       <use x="159.033203" xlink:href="#DejaVuSans-48"/>
       <use x="222.65625" xlink:href="#DejaVuSans-53"/>
      </g>
     </g>
    </g>
    <g id="ytick_3">
     <g id="line2d_7">
      <g>
       <use style="stroke:#000000;stroke-width:0.8;" x="57.6" xlink:href="#m73f65f22da" y="209.945989"/>
      </g>
     </g>
     <g id="text_8">
      <!-- 0.010 -->
      <g transform="translate(21.971875 213.745207)scale(0.1 -0.1)">
       <use xlink:href="#DejaVuSans-48"/>
       <use x="63.623047" xlink:href="#DejaVuSans-46"/>
       <use x="95.410156" xlink:href="#DejaVuSans-48"/>
       <use x="159.033203" xlink:href="#DejaVuSans-49"/>
       <use x="222.65625" xlink:href="#DejaVuSans-48"/>
      </g>
     </g>
    </g>
    <g id="ytick_4">
     <g id="line2d_8">
      <g>
       <use style="stroke:#000000;stroke-width:0.8;" x="57.6" xlink:href="#m73f65f22da" y="161.126983"/>
      </g>
     </g>
     <g id="text_9">
      <!-- 0.015 -->
      <g transform="translate(21.971875 164.926202)scale(0.1 -0.1)">
       <use xlink:href="#DejaVuSans-48"/>
       <use x="63.623047" xlink:href="#DejaVuSans-46"/>
       <use x="95.410156" xlink:href="#DejaVuSans-48"/>
       <use x="159.033203" xlink:href="#DejaVuSans-49"/>
       <use x="222.65625" xlink:href="#DejaVuSans-53"/>
      </g>
     </g>
    </g>
    <g id="ytick_5">
     <g id="line2d_9">
      <g>
       <use style="stroke:#000000;stroke-width:0.8;" x="57.6" xlink:href="#m73f65f22da" y="112.307977"/>
      </g>
     </g>
     <g id="text_10">
      <!-- 0.020 -->
      <g transform="translate(21.971875 116.107196)scale(0.1 -0.1)">
       <use xlink:href="#DejaVuSans-48"/>
       <use x="63.623047" xlink:href="#DejaVuSans-46"/>
       <use x="95.410156" xlink:href="#DejaVuSans-48"/>
       <use x="159.033203" xlink:href="#DejaVuSans-50"/>
       <use x="222.65625" xlink:href="#DejaVuSans-48"/>
      </g>
     </g>
    </g>
    <g id="ytick_6">
     <g id="line2d_10">
      <g>
       <use style="stroke:#000000;stroke-width:0.8;" x="57.6" xlink:href="#m73f65f22da" y="63.488971"/>
      </g>
     </g>
     <g id="text_11">
      <!-- 0.025 -->
      <g transform="translate(21.971875 67.28819)scale(0.1 -0.1)">
       <use xlink:href="#DejaVuSans-48"/>
       <use x="63.623047" xlink:href="#DejaVuSans-46"/>
       <use x="95.410156" xlink:href="#DejaVuSans-48"/>
       <use x="159.033203" xlink:href="#DejaVuSans-50"/>
       <use x="222.65625" xlink:href="#DejaVuSans-53"/>
      </g>
     </g>
    </g>
    <g id="text_12">
     <!-- Prob. Density (a.u.) -->
     <defs>
      <path d="M 19.671875 64.796875 
L 19.671875 37.40625 
L 32.078125 37.40625 
Q 38.96875 37.40625 42.71875 40.96875 
Q 46.484375 44.53125 46.484375 51.125 
Q 46.484375 57.671875 42.71875 61.234375 
Q 38.96875 64.796875 32.078125 64.796875 
z
M 9.8125 72.90625 
L 32.078125 72.90625 
Q 44.34375 72.90625 50.609375 67.359375 
Q 56.890625 61.8125 56.890625 51.125 
Q 56.890625 40.328125 50.609375 34.8125 
Q 44.34375 29.296875 32.078125 29.296875 
L 19.671875 29.296875 
L 19.671875 0 
L 9.8125 0 
z
" id="DejaVuSans-80"/>
      <path d="M 48.6875 27.296875 
Q 48.6875 37.203125 44.609375 42.84375 
Q 40.53125 48.484375 33.40625 48.484375 
Q 26.265625 48.484375 22.1875 42.84375 
Q 18.109375 37.203125 18.109375 27.296875 
Q 18.109375 17.390625 22.1875 11.75 
Q 26.265625 6.109375 33.40625 6.109375 
Q 40.53125 6.109375 44.609375 11.75 
Q 48.6875 17.390625 48.6875 27.296875 
z
M 18.109375 46.390625 
Q 20.953125 51.265625 25.265625 53.625 
Q 29.59375 56 35.59375 56 
Q 45.5625 56 51.78125 48.09375 
Q 58.015625 40.1875 58.015625 27.296875 
Q 58.015625 14.40625 51.78125 6.484375 
Q 45.5625 -1.421875 35.59375 -1.421875 
Q 29.59375 -1.421875 25.265625 0.953125 
Q 20.953125 3.328125 18.109375 8.203125 
L 18.109375 0 
L 9.078125 0 
L 9.078125 75.984375 
L 18.109375 75.984375 
z
" id="DejaVuSans-98"/>
      <path id="DejaVuSans-32"/>
      <path d="M 19.671875 64.796875 
L 19.671875 8.109375 
L 31.59375 8.109375 
Q 46.6875 8.109375 53.6875 14.9375 
Q 60.6875 21.78125 60.6875 36.53125 
Q 60.6875 51.171875 53.6875 57.984375 
Q 46.6875 64.796875 31.59375 64.796875 
z
M 9.8125 72.90625 
L 30.078125 72.90625 
Q 51.265625 72.90625 61.171875 64.09375 
Q 71.09375 55.28125 71.09375 36.53125 
Q 71.09375 17.671875 61.125 8.828125 
Q 51.171875 0 30.078125 0 
L 9.8125 0 
z
" id="DejaVuSans-68"/>
      <path d="M 56.203125 29.59375 
L 56.203125 25.203125 
L 14.890625 25.203125 
Q 15.484375 15.921875 20.484375 11.0625 
Q 25.484375 6.203125 34.421875 6.203125 
Q 39.59375 6.203125 44.453125 7.46875 
Q 49.3125 8.734375 54.109375 11.28125 
L 54.109375 2.78125 
Q 49.265625 0.734375 44.1875 -0.34375 
Q 39.109375 -1.421875 33.890625 -1.421875 
Q 20.796875 -1.421875 13.15625 6.1875 
Q 5.515625 13.8125 5.515625 26.8125 
Q 5.515625 40.234375 12.765625 48.109375 
Q 20.015625 56 32.328125 56 
Q 43.359375 56 49.78125 48.890625 
Q 56.203125 41.796875 56.203125 29.59375 
z
M 47.21875 32.234375 
Q 47.125 39.59375 43.09375 43.984375 
Q 39.0625 48.390625 32.421875 48.390625 
Q 24.90625 48.390625 20.390625 44.140625 
Q 15.875 39.890625 15.1875 32.171875 
z
" id="DejaVuSans-101"/>
      <path d="M 54.890625 33.015625 
L 54.890625 0 
L 45.90625 0 
L 45.90625 32.71875 
Q 45.90625 40.484375 42.875 44.328125 
Q 39.84375 48.1875 33.796875 48.1875 
Q 26.515625 48.1875 22.3125 43.546875 
Q 18.109375 38.921875 18.109375 30.90625 
L 18.109375 0 
L 9.078125 0 
L 9.078125 54.6875 
L 18.109375 54.6875 
L 18.109375 46.1875 
Q 21.34375 51.125 25.703125 53.5625 
Q 30.078125 56 35.796875 56 
Q 45.21875 56 50.046875 50.171875 
Q 54.890625 44.34375 54.890625 33.015625 
z
" id="DejaVuSans-110"/>
      <path d="M 44.28125 53.078125 
L 44.28125 44.578125 
Q 40.484375 46.53125 36.375 47.5 
Q 32.28125 48.484375 27.875 48.484375 
Q 21.1875 48.484375 17.84375 46.4375 
Q 14.5 44.390625 14.5 40.28125 
Q 14.5 37.15625 16.890625 35.375 
Q 19.28125 33.59375 26.515625 31.984375 
L 29.59375 31.296875 
Q 39.15625 29.25 43.1875 25.515625 
Q 47.21875 21.78125 47.21875 15.09375 
Q 47.21875 7.46875 41.1875 3.015625 
Q 35.15625 -1.421875 24.609375 -1.421875 
Q 20.21875 -1.421875 15.453125 -0.5625 
Q 10.6875 0.296875 5.421875 2 
L 5.421875 11.28125 
Q 10.40625 8.6875 15.234375 7.390625 
Q 20.0625 6.109375 24.8125 6.109375 
Q 31.15625 6.109375 34.5625 8.28125 
Q 37.984375 10.453125 37.984375 14.40625 
Q 37.984375 18.0625 35.515625 20.015625 
Q 33.0625 21.96875 24.703125 23.78125 
L 21.578125 24.515625 
Q 13.234375 26.265625 9.515625 29.90625 
Q 5.8125 33.546875 5.8125 39.890625 
Q 5.8125 47.609375 11.28125 51.796875 
Q 16.75 56 26.8125 56 
Q 31.78125 56 36.171875 55.265625 
Q 40.578125 54.546875 44.28125 53.078125 
z
" id="DejaVuSans-115"/>
      <path d="M 32.171875 -5.078125 
Q 28.375 -14.84375 24.75 -17.8125 
Q 21.140625 -20.796875 15.09375 -20.796875 
L 7.90625 -20.796875 
L 7.90625 -13.28125 
L 13.1875 -13.28125 
Q 16.890625 -13.28125 18.9375 -11.515625 
Q 21 -9.765625 23.484375 -3.21875 
L 25.09375 0.875 
L 2.984375 54.6875 
L 12.5 54.6875 
L 29.59375 11.921875 
L 46.6875 54.6875 
L 56.203125 54.6875 
z
" id="DejaVuSans-121"/>
      <path d="M 31 75.875 
Q 24.46875 64.65625 21.28125 53.65625 
Q 18.109375 42.671875 18.109375 31.390625 
Q 18.109375 20.125 21.3125 9.0625 
Q 24.515625 -2 31 -13.1875 
L 23.1875 -13.1875 
Q 15.875 -1.703125 12.234375 9.375 
Q 8.59375 20.453125 8.59375 31.390625 
Q 8.59375 42.28125 12.203125 53.3125 
Q 15.828125 64.359375 23.1875 75.875 
z
" id="DejaVuSans-40"/>
      <path d="M 34.28125 27.484375 
Q 23.390625 27.484375 19.1875 25 
Q 14.984375 22.515625 14.984375 16.5 
Q 14.984375 11.71875 18.140625 8.90625 
Q 21.296875 6.109375 26.703125 6.109375 
Q 34.1875 6.109375 38.703125 11.40625 
Q 43.21875 16.703125 43.21875 25.484375 
L 43.21875 27.484375 
z
M 52.203125 31.203125 
L 52.203125 0 
L 43.21875 0 
L 43.21875 8.296875 
Q 40.140625 3.328125 35.546875 0.953125 
Q 30.953125 -1.421875 24.3125 -1.421875 
Q 15.921875 -1.421875 10.953125 3.296875 
Q 6 8.015625 6 15.921875 
Q 6 25.140625 12.171875 29.828125 
Q 18.359375 34.515625 30.609375 34.515625 
L 43.21875 34.515625 
L 43.21875 35.40625 
Q 43.21875 41.609375 39.140625 45 
Q 35.0625 48.390625 27.6875 48.390625 
Q 23 48.390625 18.546875 47.265625 
Q 14.109375 46.140625 10.015625 43.890625 
L 10.015625 52.203125 
Q 14.9375 54.109375 19.578125 55.046875 
Q 24.21875 56 28.609375 56 
Q 40.484375 56 46.34375 49.84375 
Q 52.203125 43.703125 52.203125 31.203125 
z
" id="DejaVuSans-97"/>
      <path d="M 8.5 21.578125 
L 8.5 54.6875 
L 17.484375 54.6875 
L 17.484375 21.921875 
Q 17.484375 14.15625 20.5 10.265625 
Q 23.53125 6.390625 29.59375 6.390625 
Q 36.859375 6.390625 41.078125 11.03125 
Q 45.3125 15.671875 45.3125 23.6875 
L 45.3125 54.6875 
L 54.296875 54.6875 
L 54.296875 0 
L 45.3125 0 
L 45.3125 8.40625 
Q 42.046875 3.421875 37.71875 1 
Q 33.40625 -1.421875 27.6875 -1.421875 
Q 18.265625 -1.421875 13.375 4.4375 
Q 8.5 10.296875 8.5 21.578125 
z
M 31.109375 56 
z
" id="DejaVuSans-117"/>
      <path d="M 8.015625 75.875 
L 15.828125 75.875 
Q 23.140625 64.359375 26.78125 53.3125 
Q 30.421875 42.28125 30.421875 31.390625 
Q 30.421875 20.453125 26.78125 9.375 
Q 23.140625 -1.703125 15.828125 -13.1875 
L 8.015625 -13.1875 
Q 14.5 -2 17.703125 9.0625 
Q 20.90625 20.125 20.90625 31.390625 
Q 20.90625 42.671875 17.703125 53.65625 
Q 14.5 64.65625 8.015625 75.875 
z
" id="DejaVuSans-41"/>
     </defs>
     <g transform="translate(15.892187 222.917844)rotate(-90)scale(0.1 -0.1)">
      <use xlink:href="#DejaVuSans-80"/>
      <use x="60.287109" xlink:href="#DejaVuSans-114"/>
      <use x="101.369141" xlink:href="#DejaVuSans-111"/>
      <use x="162.550781" xlink:href="#DejaVuSans-98"/>
      <use x="226.027344" xlink:href="#DejaVuSans-46"/>
      <use x="257.814453" xlink:href="#DejaVuSans-32"/>
      <use x="289.601562" xlink:href="#DejaVuSans-68"/>
      <use x="366.603516" xlink:href="#DejaVuSans-101"/>
      <use x="428.126953" xlink:href="#DejaVuSans-110"/>
      <use x="491.505859" xlink:href="#DejaVuSans-115"/>
      <use x="543.605469" xlink:href="#DejaVuSans-105"/>
      <use x="571.388672" xlink:href="#DejaVuSans-116"/>
      <use x="610.597656" xlink:href="#DejaVuSans-121"/>
      <use x="669.777344" xlink:href="#DejaVuSans-32"/>
      <use x="701.564453" xlink:href="#DejaVuSans-40"/>
      <use x="740.578125" xlink:href="#DejaVuSans-97"/>
      <use x="801.857422" xlink:href="#DejaVuSans-46"/>
      <use x="833.644531" xlink:href="#DejaVuSans-117"/>
      <use x="897.023438" xlink:href="#DejaVuSans-46"/>
      <use x="928.810547" xlink:href="#DejaVuSans-41"/>
     </g>
    </g>
   </g>
   <g id="patch_9">
    <path d="M 57.6 307.584 
L 57.6 41.472 
" style="fill:none;stroke:#000000;stroke-linecap:square;stroke-linejoin:miter;stroke-width:0.8;"/>
   </g>
   <g id="patch_10">
    <path d="M 414.72 307.584 
L 414.72 41.472 
" style="fill:none;stroke:#000000;stroke-linecap:square;stroke-linejoin:miter;stroke-width:0.8;"/>
   </g>
   <g id="patch_11">
    <path d="M 57.6 307.584 
L 414.72 307.584 
" style="fill:none;stroke:#000000;stroke-linecap:square;stroke-linejoin:miter;stroke-width:0.8;"/>
   </g>
   <g id="patch_12">
    <path d="M 57.6 41.472 
L 414.72 41.472 
" style="fill:none;stroke:#000000;stroke-linecap:square;stroke-linejoin:miter;stroke-width:0.8;"/>
   </g>
   <g id="legend_1">
    <g id="patch_13">
     <path d="M 325.405938 137.54075 
L 407.72 137.54075 
Q 409.72 137.54075 409.72 135.54075 
L 409.72 48.472 
Q 409.72 46.472 407.72 46.472 
L 325.405938 46.472 
Q 323.405938 46.472 323.405938 48.472 
L 323.405938 135.54075 
Q 323.405938 137.54075 325.405938 137.54075 
z
" style="fill:#ffffff;opacity:0.8;stroke:#cccccc;stroke-linejoin:miter;"/>
    </g>
    <g id="patch_14">
     <path d="M 327.405938 58.070438 
L 347.405938 58.070438 
L 347.405938 51.070438 
L 327.405938 51.070438 
z
" style="fill:none;stroke:#1f77b4;stroke-linejoin:miter;"/>
    </g>
    <g id="text_13">
     <!-- quark -->
     <defs>
      <path d="M 14.796875 27.296875 
Q 14.796875 17.390625 18.875 11.75 
Q 22.953125 6.109375 30.078125 6.109375 
Q 37.203125 6.109375 41.296875 11.75 
Q 45.40625 17.390625 45.40625 27.296875 
Q 45.40625 37.203125 41.296875 42.84375 
Q 37.203125 48.484375 30.078125 48.484375 
Q 22.953125 48.484375 18.875 42.84375 
Q 14.796875 37.203125 14.796875 27.296875 
z
M 45.40625 8.203125 
Q 42.578125 3.328125 38.25 0.953125 
Q 33.9375 -1.421875 27.875 -1.421875 
Q 17.96875 -1.421875 11.734375 6.484375 
Q 5.515625 14.40625 5.515625 27.296875 
Q 5.515625 40.1875 11.734375 48.09375 
Q 17.96875 56 27.875 56 
Q 33.9375 56 38.25 53.625 
Q 42.578125 51.265625 45.40625 46.390625 
L 45.40625 54.6875 
L 54.390625 54.6875 
L 54.390625 -20.796875 
L 45.40625 -20.796875 
z
" id="DejaVuSans-113"/>
      <path d="M 9.078125 75.984375 
L 18.109375 75.984375 
L 18.109375 31.109375 
L 44.921875 54.6875 
L 56.390625 54.6875 
L 27.390625 29.109375 
L 57.625 0 
L 45.90625 0 
L 18.109375 26.703125 
L 18.109375 0 
L 9.078125 0 
z
" id="DejaVuSans-107"/>
     </defs>
     <g transform="translate(355.405938 58.070438)scale(0.1 -0.1)">
      <use xlink:href="#DejaVuSans-113"/>
      <use x="63.476562" xlink:href="#DejaVuSans-117"/>
      <use x="126.855469" xlink:href="#DejaVuSans-97"/>
      <use x="188.134766" xlink:href="#DejaVuSans-114"/>
      <use x="229.248047" xlink:href="#DejaVuSans-107"/>
     </g>
    </g>
    <g id="patch_15">
     <path d="M 327.405938 72.748563 
L 347.405938 72.748563 
L 347.405938 65.748563 
L 327.405938 65.748563 
z
" style="fill:none;stroke:#ff7f0e;stroke-linejoin:miter;"/>
    </g>
    <g id="text_14">
     <!-- gluon -->
     <defs>
      <path d="M 45.40625 27.984375 
Q 45.40625 37.75 41.375 43.109375 
Q 37.359375 48.484375 30.078125 48.484375 
Q 22.859375 48.484375 18.828125 43.109375 
Q 14.796875 37.75 14.796875 27.984375 
Q 14.796875 18.265625 18.828125 12.890625 
Q 22.859375 7.515625 30.078125 7.515625 
Q 37.359375 7.515625 41.375 12.890625 
Q 45.40625 18.265625 45.40625 27.984375 
z
M 54.390625 6.78125 
Q 54.390625 -7.171875 48.1875 -13.984375 
Q 42 -20.796875 29.203125 -20.796875 
Q 24.46875 -20.796875 20.265625 -20.09375 
Q 16.0625 -19.390625 12.109375 -17.921875 
L 12.109375 -9.1875 
Q 16.0625 -11.328125 19.921875 -12.34375 
Q 23.78125 -13.375 27.78125 -13.375 
Q 36.625 -13.375 41.015625 -8.765625 
Q 45.40625 -4.15625 45.40625 5.171875 
L 45.40625 9.625 
Q 42.625 4.78125 38.28125 2.390625 
Q 33.9375 0 27.875 0 
Q 17.828125 0 11.671875 7.65625 
Q 5.515625 15.328125 5.515625 27.984375 
Q 5.515625 40.671875 11.671875 48.328125 
Q 17.828125 56 27.875 56 
Q 33.9375 56 38.28125 53.609375 
Q 42.625 51.21875 45.40625 46.390625 
L 45.40625 54.6875 
L 54.390625 54.6875 
z
" id="DejaVuSans-103"/>
      <path d="M 9.421875 75.984375 
L 18.40625 75.984375 
L 18.40625 0 
L 9.421875 0 
z
" id="DejaVuSans-108"/>
     </defs>
     <g transform="translate(355.405938 72.748563)scale(0.1 -0.1)">
      <use xlink:href="#DejaVuSans-103"/>
      <use x="63.476562" xlink:href="#DejaVuSans-108"/>
      <use x="91.259766" xlink:href="#DejaVuSans-117"/>
      <use x="154.638672" xlink:href="#DejaVuSans-111"/>
      <use x="215.820312" xlink:href="#DejaVuSans-110"/>
     </g>
    </g>
    <g id="patch_16">
     <path d="M 327.405938 87.426688 
L 347.405938 87.426688 
L 347.405938 80.426688 
L 327.405938 80.426688 
z
" style="fill:none;stroke:#2ca02c;stroke-linejoin:miter;"/>
    </g>
    <g id="text_15">
     <!-- W -->
     <defs>
      <path d="M 3.328125 72.90625 
L 13.28125 72.90625 
L 28.609375 11.28125 
L 43.890625 72.90625 
L 54.984375 72.90625 
L 70.3125 11.28125 
L 85.59375 72.90625 
L 95.609375 72.90625 
L 77.296875 0 
L 64.890625 0 
L 49.515625 63.28125 
L 33.984375 0 
L 21.578125 0 
z
" id="DejaVuSans-87"/>
     </defs>
     <g transform="translate(355.405938 87.426688)scale(0.1 -0.1)">
      <use xlink:href="#DejaVuSans-87"/>
     </g>
    </g>
    <g id="patch_17">
     <path d="M 327.405938 102.104813 
L 347.405938 102.104813 
L 347.405938 95.104813 
L 327.405938 95.104813 
z
" style="fill:none;stroke:#d62728;stroke-linejoin:miter;"/>
    </g>
    <g id="text_16">
     <!-- Z -->
     <defs>
      <path d="M 5.609375 72.90625 
L 62.890625 72.90625 
L 62.890625 65.375 
L 16.796875 8.296875 
L 64.015625 8.296875 
L 64.015625 0 
L 4.5 0 
L 4.5 7.515625 
L 50.59375 64.59375 
L 5.609375 64.59375 
z
" id="DejaVuSans-90"/>
     </defs>
     <g transform="translate(355.405938 102.104813)scale(0.1 -0.1)">
      <use xlink:href="#DejaVuSans-90"/>
     </g>
    </g>
    <g id="patch_18">
     <path d="M 327.405938 116.782938 
L 347.405938 116.782938 
L 347.405938 109.782938 
L 327.405938 109.782938 
z
" style="fill:none;stroke:#9467bd;stroke-linejoin:miter;"/>
    </g>
    <g id="text_17">
     <!-- top -->
     <g transform="translate(355.405938 116.782938)scale(0.1 -0.1)">
      <use xlink:href="#DejaVuSans-116"/>
      <use x="39.208984" xlink:href="#DejaVuSans-111"/>
      <use x="100.390625" xlink:href="#DejaVuSans-112"/>
     </g>
    </g>
    <g id="patch_19">
     <path d="M 327.405938 131.461063 
L 347.405938 131.461063 
L 347.405938 124.461063 
L 327.405938 124.461063 
z
" style="fill:none;stroke:#000000;stroke-linejoin:miter;"/>
    </g>
    <g id="text_18">
     <!-- undefined -->
     <defs>
      <path d="M 45.40625 46.390625 
L 45.40625 75.984375 
L 54.390625 75.984375 
L 54.390625 0 
L 45.40625 0 
L 45.40625 8.203125 
Q 42.578125 3.328125 38.25 0.953125 
Q 33.9375 -1.421875 27.875 -1.421875 
Q 17.96875 -1.421875 11.734375 6.484375 
Q 5.515625 14.40625 5.515625 27.296875 
Q 5.515625 40.1875 11.734375 48.09375 
Q 17.96875 56 27.875 56 
Q 33.9375 56 38.25 53.625 
Q 42.578125 51.265625 45.40625 46.390625 
z
M 14.796875 27.296875 
Q 14.796875 17.390625 18.875 11.75 
Q 22.953125 6.109375 30.078125 6.109375 
Q 37.203125 6.109375 41.296875 11.75 
Q 45.40625 17.390625 45.40625 27.296875 
Q 45.40625 37.203125 41.296875 42.84375 
Q 37.203125 48.484375 30.078125 48.484375 
Q 22.953125 48.484375 18.875 42.84375 
Q 14.796875 37.203125 14.796875 27.296875 
z
" id="DejaVuSans-100"/>
      <path d="M 37.109375 75.984375 
L 37.109375 68.5 
L 28.515625 68.5 
Q 23.6875 68.5 21.796875 66.546875 
Q 19.921875 64.59375 19.921875 59.515625 
L 19.921875 54.6875 
L 34.71875 54.6875 
L 34.71875 47.703125 
L 19.921875 47.703125 
L 19.921875 0 
L 10.890625 0 
L 10.890625 47.703125 
L 2.296875 47.703125 
L 2.296875 54.6875 
L 10.890625 54.6875 
L 10.890625 58.5 
Q 10.890625 67.625 15.140625 71.796875 
Q 19.390625 75.984375 28.609375 75.984375 
z
" id="DejaVuSans-102"/>
     </defs>
     <g transform="translate(355.405938 131.461063)scale(0.1 -0.1)">
      <use xlink:href="#DejaVuSans-117"/>
      <use x="63.378906" xlink:href="#DejaVuSans-110"/>
      <use x="126.757812" xlink:href="#DejaVuSans-100"/>
      <use x="190.234375" xlink:href="#DejaVuSans-101"/>
      <use x="251.757812" xlink:href="#DejaVuSans-102"/>
      <use x="286.962891" xlink:href="#DejaVuSans-105"/>
      <use x="314.746094" xlink:href="#DejaVuSans-110"/>
      <use x="378.125" xlink:href="#DejaVuSans-101"/>
      <use x="439.648438" xlink:href="#DejaVuSans-100"/>
     </g>
    </g>
   </g>
  </g>
 </g>
 <defs>
  <clipPath id="p04475a84c2">
   <rect height="266.112" width="357.12" x="57.6" y="41.472"/>
  </clipPath>
 </defs>
</svg>
