<?xml version="1.0" encoding="utf-8" standalone="no"?>
<!DOCTYPE svg PUBLIC "-//W3C//DTD SVG 1.1//EN"
  "http://www.w3.org/Graphics/SVG/1.1/DTD/svg11.dtd">
<!-- Created with matplotlib (https://matplotlib.org/) -->
<svg height="345.6pt" version="1.1" viewBox="0 0 460.8 345.6" width="460.8pt" xmlns="http://www.w3.org/2000/svg" xmlns:xlink="http://www.w3.org/1999/xlink">
 <defs>
  <style type="text/css">
*{stroke-linecap:butt;stroke-linejoin:round;}
  </style>
 </defs>
 <g id="figure_1">
  <g id="patch_1">
   <path d="M 0 345.6 
L 460.8 345.6 
L 460.8 0 
L 0 0 
z
" style="fill:#ffffff;"/>
  </g>
  <g id="axes_1">
   <g id="patch_2">
    <path d="M 57.6 307.584 
L 414.72 307.584 
L 414.72 41.472 
L 57.6 41.472 
z
" style="fill:#ffffff;"/>
   </g>
   <g id="patch_3">
    <path clip-path="url(#pca53d7be3b)" d="M 73.832727 307.584 
L 112.791271 307.584 
L 112.791271 307.453095 
L 122.530907 307.409461 
L 122.530907 305.197173 
L 129.023996 305.258262 
L 129.023996 297.286172 
L 132.270542 297.286172 
L 132.270542 296.692739 
L 135.517089 296.692739 
L 135.517089 275.665096 
L 138.763631 275.665096 
L 138.763631 285.116409 
L 142.010178 285.116409 
L 142.010178 277.912289 
L 145.256724 277.912289 
L 145.256724 234.460696 
L 148.503271 234.460696 
L 148.503271 263.024076 
L 151.749813 263.024076 
L 151.749813 202.485069 
L 154.996359 202.485069 
L 154.996359 245.299595 
L 158.242906 245.299595 
L 158.242906 165.281975 
L 161.489448 165.281975 
L 161.489448 238.872184 
L 164.735994 238.872184 
L 164.735994 244.880706 
L 167.982541 244.880706 
L 167.982541 161.98756 
L 171.229087 161.98756 
L 171.229087 231.986592 
L 174.475634 231.986592 
L 174.475634 165.866686 
L 177.72218 165.866686 
L 177.72218 233.125464 
L 180.968718 233.125464 
L 180.968718 160.355613 
L 184.215265 160.355613 
L 184.215265 235.089043 
L 187.461811 235.089043 
L 187.461811 228.343092 
L 190.708358 228.343092 
L 190.708358 162.729327 
L 193.954904 162.729327 
L 193.954904 240.224857 
L 197.201451 240.224857 
L 197.201451 167.324098 
L 200.447997 167.324098 
L 200.447997 243.152759 
L 203.694535 243.152759 
L 203.694535 180.610922 
L 206.941082 180.610922 
L 206.941082 242.371699 
L 210.187628 242.371699 
L 210.187628 243.22258 
L 213.434175 243.22258 
L 213.434175 196.027099 
L 216.680721 196.027099 
L 216.680721 247.917685 
L 219.927268 247.917685 
L 219.927268 204.169364 
L 223.173814 204.169364 
L 223.173814 263.111348 
L 226.420352 263.111348 
L 226.420352 213.009787 
L 229.666898 213.009787 
L 229.666898 266.392687 
L 232.913445 266.392687 
L 232.913445 264.123676 
L 236.159991 264.123676 
L 236.159991 230.08848 
L 239.406538 230.08848 
L 239.406538 267.173752 
L 242.653084 267.173752 
L 242.653084 234.417065 
L 245.899622 234.417065 
L 245.899622 269.857294 
L 249.146169 269.857294 
L 249.146169 278.933345 
L 252.392715 278.933345 
L 252.392715 246.94027 
L 255.639262 246.94027 
L 255.639262 277.345035 
L 258.885808 277.345035 
L 258.885808 249.305271 
L 262.132355 249.305271 
L 262.132355 282.738308 
L 265.378901 282.738308 
L 265.378901 266.335961 
L 268.625448 266.335961 
L 268.625448 288.018127 
L 271.871994 288.018127 
L 271.871994 287.424694 
L 275.118541 287.424694 
L 275.118541 276.428705 
L 278.365087 276.428705 
L 278.365087 289.082819 
L 281.611634 289.082819 
L 281.611634 274.897118 
L 284.858163 274.897118 
L 284.858163 294.90807 
L 288.104709 294.90807 
L 288.104709 278.819896 
L 291.351256 278.819896 
L 291.351256 294.825166 
L 294.597802 294.825166 
L 294.597802 295.436054 
L 297.844349 295.436054 
L 297.844349 287.093067 
L 301.090895 287.093067 
L 301.090895 298.15887 
L 304.337442 298.15887 
L 304.337442 288.821009 
L 307.583988 288.821009 
L 307.583988 301.496936 
L 310.830535 301.496936 
L 310.830535 293.978648 
L 314.077081 293.978648 
L 314.077081 301.30058 
L 317.323628 301.30058 
L 317.323628 300.38861 
L 320.570174 300.38861 
L 320.570174 297.286172 
L 323.816721 297.286172 
L 323.816721 304.529559 
L 327.063267 304.529559 
L 327.063267 301.815471 
L 330.309796 301.815471 
L 330.309796 303.988487 
L 333.556343 303.988487 
L 333.556343 300.75078 
L 336.802889 300.75078 
L 336.802889 304.808823 
L 340.049436 304.808823 
L 340.049436 303.848855 
L 343.295982 303.848855 
L 343.295982 299.995896 
L 346.542529 299.995896 
L 346.542529 305.184083 
L 349.789075 305.184083 
L 349.789075 304.189207 
L 353.035622 304.189207 
L 353.035622 307.584 
L 356.282168 307.584 
L 356.282168 305.096813 
L 359.528715 305.096813 
L 359.528715 304.560104 
L 362.775261 304.560104 
L 362.775261 305.031361 
L 366.021808 305.031361 
L 366.021808 302.923796 
L 369.268354 302.923796 
L 369.268354 307.584 
L 372.514901 307.584 
L 372.514901 305.472072 
L 375.76143 305.472072 
L 375.76143 306.510582 
L 379.007976 306.510582 
L 379.007976 307.042928 
L 385.501069 307.038564 
L 385.501069 306.475674 
L 388.747616 306.475674 
L 388.747616 307.02111 
L 391.99418 307.02111 
L 391.99418 307.584 
L 398.487273 307.584 
L 398.487273 307.584 
" style="fill:none;stroke:#1f77b4;stroke-linejoin:miter;"/>
   </g>
   <g id="patch_4">
    <path clip-path="url(#pca53d7be3b)" d="M 73.832727 307.584 
L 122.530907 307.584 
L 122.530907 307.431278 
L 125.777452 307.431278 
L 125.777452 307.584 
L 129.023996 307.584 
L 129.023996 307.134561 
L 135.517089 307.09529 
L 135.517089 306.82039 
L 138.763631 306.82039 
L 138.763631 307.086563 
L 142.010178 307.086563 
L 142.010178 306.536763 
L 145.256724 306.536763 
L 145.256724 305.454619 
L 148.503271 305.454619 
L 148.503271 304.472834 
L 151.749813 304.472834 
L 151.749813 302.967431 
L 154.996359 302.967431 
L 154.996359 304.293931 
L 158.242906 304.293931 
L 158.242906 296.924001 
L 161.489448 296.924001 
L 161.489448 303.02852 
L 164.735994 303.02852 
L 164.735994 301.169675 
L 167.982541 301.169675 
L 167.982541 287.891583 
L 171.229087 287.891583 
L 171.229087 295.776404 
L 174.475634 295.776404 
L 174.475634 276.873784 
L 177.72218 276.873784 
L 177.72218 289.362079 
L 180.968718 289.362079 
L 180.968718 265.288731 
L 184.215265 265.288731 
L 184.215265 278.313735 
L 187.461811 278.313735 
L 187.461811 274.770584 
L 190.708358 274.770584 
L 190.708358 246.52137 
L 193.954904 246.52137 
L 193.954904 263.115712 
L 197.201451 263.115712 
L 197.201451 217.69182 
L 200.447997 217.69182 
L 200.447997 250.780129 
L 203.694535 250.780129 
L 203.694535 186.514715 
L 206.941082 186.514715 
L 206.941082 244.082179 
L 210.187628 244.082179 
L 210.187628 237.550039 
L 213.434175 237.550039 
L 213.434175 155.202326 
L 216.680721 155.202326 
L 216.680721 230.572826 
L 219.927268 230.572826 
L 219.927268 151.742084 
L 223.173814 151.742084 
L 223.173814 222.792727 
L 226.420352 222.792727 
L 226.420352 124.740856 
L 229.666898 124.740856 
L 229.666898 215.933329 
L 232.913445 215.933329 
L 232.913445 207.572899 
L 236.159991 207.572899 
L 236.159991 116.712017 
L 239.406538 116.712017 
L 239.406538 204.221734 
L 242.653084 204.221734 
L 242.653084 102.434696 
L 245.899622 102.434696 
L 245.899622 203.907568 
L 249.146169 203.907568 
L 249.146169 190.3502 
L 252.392715 190.3502 
L 252.392715 87.550849 
L 255.639262 87.550849 
L 255.639262 207.092907 
L 258.885808 207.092907 
L 258.885808 105.698568 
L 262.132355 105.698568 
L 262.132355 212.660708 
L 265.378901 212.660708 
L 265.378901 91.176877 
L 268.625448 91.176877 
L 268.625448 209.423 
L 271.871994 209.423 
L 271.871994 207.12345 
L 275.118541 207.12345 
L 275.118541 111.362391 
L 278.365087 111.362391 
L 278.365087 210.889141 
L 281.611634 210.889141 
L 281.611634 125.552429 
L 284.858163 125.552429 
L 284.858163 227.18241 
L 288.104709 227.18241 
L 288.104709 130.910814 
L 291.351256 130.910814 
L 291.351256 214.894811 
L 294.597802 214.894811 
L 294.597802 230.900094 
L 297.844349 230.900094 
L 297.844349 156.271367 
L 301.090895 156.271367 
L 301.090895 231.397522 
L 304.337442 231.397522 
L 304.337442 169.872388 
L 307.583988 169.872388 
L 307.583988 222.770911 
L 310.830535 222.770911 
L 310.830535 176.923776 
L 314.077081 176.923776 
L 314.077081 244.749792 
L 317.323628 244.749792 
L 317.323628 253.830205 
L 320.570174 253.830205 
L 320.570174 191.986505 
L 323.816721 191.986505 
L 323.816721 264.821833 
L 327.063267 264.821833 
L 327.063267 215.043192 
L 330.309796 215.043192 
L 330.309796 253.201869 
L 333.556343 253.201869 
L 333.556343 214.087577 
L 336.802889 214.087577 
L 336.802889 267.343925 
L 340.049436 267.343925 
L 340.049436 271.633236 
L 343.295982 271.633236 
L 343.295982 236.572614 
L 346.542529 236.572614 
L 346.542529 273.50517 
L 349.789075 273.50517 
L 349.789075 240.909927 
L 353.035622 240.909927 
L 353.035622 271.5896 
L 356.282168 271.5896 
L 356.282168 282.712125 
L 359.528715 282.712125 
L 359.528715 255.182894 
L 362.775261 255.182894 
L 362.775261 285.12077 
L 366.021808 285.12077 
L 366.021808 265.742525 
L 369.268354 265.742525 
L 369.268354 282.973937 
L 372.514901 282.973937 
L 372.514901 269.935835 
L 375.76143 269.935835 
L 375.76143 285.578937 
L 379.007976 285.578937 
L 379.007976 290.810758 
L 382.254523 290.810758 
L 382.254523 282.406685 
L 385.501069 282.406685 
L 385.501069 295.392418 
L 388.747616 295.392418 
L 388.747616 281.765252 
L 391.99418 281.765252 
L 391.99418 296.238932 
L 395.240726 296.238932 
L 395.240726 287.490146 
L 398.487273 287.490146 
L 398.487273 307.584 
L 398.487273 307.584 
" style="fill:none;stroke:#ff7f0e;stroke-linejoin:miter;"/>
   </g>
   <g id="patch_5">
    <path clip-path="url(#pca53d7be3b)" d="M 73.832727 307.584 
L 122.530907 307.584 
L 122.530907 307.173832 
L 129.023996 307.130197 
L 129.023996 305.533161 
L 132.270542 305.533161 
L 132.270542 306.187684 
L 135.517089 306.187684 
L 135.517089 300.624238 
L 142.010178 300.619875 
L 142.010178 297.111633 
L 145.256724 297.111633 
L 145.256724 272.824464 
L 148.503271 272.824464 
L 148.503271 287.813045 
L 151.749813 287.813045 
L 151.749813 241.040836 
L 154.996359 241.040836 
L 154.996359 263.905501 
L 158.242906 263.905501 
L 158.242906 197.026345 
L 161.489448 197.026345 
L 161.489448 232.924745 
L 164.735994 232.924745 
L 164.735994 233.884719 
L 167.982541 233.884719 
L 167.982541 121.651445 
L 171.229087 121.651445 
L 171.229087 208.227415 
L 174.475634 208.227415 
L 174.475634 91.251052 
L 177.72218 91.251052 
L 177.72218 196.681636 
L 180.968718 196.681636 
L 180.968718 77.977346 
L 184.215265 77.977346 
L 184.215265 188.460816 
L 187.461811 188.460816 
L 187.461811 186.977229 
L 190.708358 186.977229 
L 190.708358 84.204043 
L 193.954904 84.204043 
L 193.954904 195.006048 
L 197.201451 195.006048 
L 197.201451 92.743366 
L 200.447997 92.743366 
L 200.447997 194.176988 
L 203.694535 194.176988 
L 203.694535 120.076279 
L 206.941082 120.076279 
L 206.941082 216.286767 
L 210.187628 216.286767 
L 210.187628 227.295851 
L 213.434175 227.295851 
L 213.434175 157.737518 
L 216.680721 157.737518 
L 216.680721 244.679982 
L 219.927268 244.679982 
L 219.927268 184.791137 
L 223.173814 184.791137 
L 223.173814 245.273405 
L 226.420352 245.273405 
L 226.420352 200.752763 
L 229.666898 200.752763 
L 229.666898 258.411869 
L 232.913445 258.411869 
L 232.913445 265.69453 
L 236.159991 265.69453 
L 236.159991 240.796476 
L 239.406538 240.796476 
L 239.406538 275.695637 
L 242.653084 275.695637 
L 242.653084 254.737815 
L 245.899622 254.737815 
L 245.899622 285.120773 
L 249.146169 285.120773 
L 249.146169 291.504551 
L 252.392715 291.504551 
L 252.392715 279.478784 
L 255.639262 279.478784 
L 255.639262 293.533574 
L 258.885808 293.533574 
L 258.885808 287.001433 
L 262.132355 287.001433 
L 262.132355 297.709431 
L 265.378901 297.709431 
L 265.378901 287.123611 
L 268.625448 287.123611 
L 268.625448 301.946376 
L 271.871994 301.946376 
L 271.871994 301.200219 
L 275.118541 301.200219 
L 275.118541 298.329045 
L 278.365087 298.329045 
L 278.365087 305.838605 
L 281.611634 305.838605 
L 281.611634 304.040849 
L 284.858163 304.040849 
L 284.858163 306.135323 
L 288.104709 306.135323 
L 288.104709 302.051099 
L 291.351256 302.051099 
L 291.351256 305.707701 
L 297.844349 305.685883 
L 297.844349 305.280079 
L 301.090895 305.280079 
L 301.090895 306.798573 
L 304.337442 306.798573 
L 304.337442 306.384041 
L 307.583988 306.384041 
L 307.583988 305.960783 
L 310.830535 305.960783 
L 310.830535 306.349133 
L 314.077081 306.349133 
L 314.077081 307.165105 
L 317.323628 307.165105 
L 317.323628 307.584 
L 320.570174 307.584 
L 320.570174 306.728757 
L 323.816721 306.728757 
L 323.816721 307.584 
L 327.063267 307.584 
L 327.063267 307.143288 
L 330.309796 307.143288 
L 330.309796 307.584 
L 336.802889 307.584 
L 336.802889 307.12147 
L 340.049436 307.12147 
L 340.049436 307.584 
L 343.295982 307.584 
L 343.295982 307.10838 
L 346.542529 307.10838 
L 346.542529 307.584 
L 349.789075 307.584 
L 349.789075 307.095289 
L 353.035622 307.095289 
L 353.035622 307.584 
L 398.487273 307.584 
L 398.487273 307.584 
" style="fill:none;stroke:#2ca02c;stroke-linejoin:miter;"/>
   </g>
   <g id="patch_6">
    <path clip-path="url(#pca53d7be3b)" d="M 73.832727 307.584 
L 122.530907 307.540365 
L 122.530907 307.378916 
L 125.777452 307.378916 
L 125.777452 307.186923 
L 129.023996 307.186923 
L 129.023996 305.40662 
L 132.270542 305.40662 
L 132.270542 306.187684 
L 135.517089 306.187684 
L 135.517089 302.155823 
L 138.763631 302.155823 
L 138.763631 302.360907 
L 142.010178 302.360907 
L 142.010178 298.944296 
L 145.256724 298.944296 
L 145.256724 281.389988 
L 148.503271 281.389988 
L 148.503271 289.017365 
L 151.749813 289.017365 
L 151.749813 250.143059 
L 154.996359 250.143059 
L 154.996359 269.464581 
L 158.242906 269.464581 
L 158.242906 208.441221 
L 161.489448 208.441221 
L 161.489448 243.933835 
L 164.735994 243.933835 
L 164.735994 238.859087 
L 167.982541 238.859087 
L 167.982541 144.280509 
L 171.229087 144.280509 
L 171.229087 220.466992 
L 174.475634 220.466992 
L 174.475634 116.00949 
L 177.72218 116.00949 
L 177.72218 201.237104 
L 180.968718 201.237104 
L 180.968718 85.9276 
L 184.215265 85.9276 
L 184.215265 194.927494 
L 187.461811 194.927494 
L 187.461811 190.118947 
L 190.708358 190.118947 
L 190.708358 69.285263 
L 193.954904 69.285263 
L 193.954904 195.944207 
L 197.201451 195.944207 
L 197.201451 83.196079 
L 200.447997 83.196079 
L 200.447997 204.012287 
L 203.694535 204.012287 
L 203.694535 108.067954 
L 206.941082 108.067954 
L 206.941082 215.431532 
L 210.187628 215.431532 
L 210.187628 218.13253 
L 213.434175 218.13253 
L 213.434175 144.961231 
L 216.680721 144.961231 
L 216.680721 228.260184 
L 219.927268 228.260184 
L 219.927268 157.514974 
L 223.173814 157.514974 
L 223.173814 243.074215 
L 226.420352 243.074215 
L 226.420352 192.457779 
L 229.666898 192.457779 
L 229.666898 250.173608 
L 232.913445 250.173608 
L 232.913445 260.196539 
L 236.159991 260.196539 
L 236.159991 213.611954 
L 239.406538 213.611954 
L 239.406538 272.121948 
L 242.653084 272.121948 
L 242.653084 245.133779 
L 245.899622 245.133779 
L 245.899622 275.041119 
L 249.146169 275.041119 
L 249.146169 278.640993 
L 252.392715 278.640993 
L 252.392715 257.094098 
L 255.639262 257.094098 
L 255.639262 282.537589 
L 258.885808 282.537589 
L 258.885808 266.414505 
L 262.132355 266.414505 
L 262.132355 290.064602 
L 265.378901 290.064602 
L 265.378901 281.272177 
L 268.625448 281.272177 
L 268.625448 294.319002 
L 271.871994 294.319002 
L 271.871994 297.504347 
L 275.118541 297.504347 
L 275.118541 295.920402 
L 278.365087 295.920402 
L 278.365087 300.9515 
L 281.611634 300.9515 
L 281.611634 295.841858 
L 284.858163 295.841858 
L 284.858163 303.237968 
L 288.104709 303.237968 
L 288.104709 298.010511 
L 291.351256 298.010511 
L 291.351256 304.206661 
L 297.844349 304.16739 
L 297.844349 302.574718 
L 301.090895 302.574718 
L 301.090895 306.013145 
L 304.337442 306.013145 
L 304.337442 303.587046 
L 307.583988 303.587046 
L 307.583988 306.772391 
L 310.830535 306.772391 
L 310.830535 304.686645 
L 314.077081 304.686645 
L 314.077081 307.584 
L 317.323628 307.584 
L 317.323628 307.160742 
L 320.570174 307.160742 
L 320.570174 305.873513 
L 323.816721 305.873513 
L 323.816721 307.584 
L 327.063267 307.584 
L 327.063267 306.698212 
L 330.309796 306.698212 
L 330.309796 307.584 
L 333.556343 307.584 
L 333.556343 307.130197 
L 336.802889 307.130197 
L 336.802889 307.584 
L 340.049436 307.584 
L 340.049436 307.117107 
L 346.542529 307.10838 
L 346.542529 307.584 
L 359.528715 307.584 
L 359.528715 307.077836 
L 366.021808 307.073472 
L 366.021808 307.584 
L 375.76143 307.584 
L 375.76143 307.047291 
L 379.007976 307.047291 
L 379.007976 307.584 
L 382.254523 307.584 
L 382.254523 307.034201 
L 385.501069 307.034201 
L 385.501069 307.584 
L 398.487273 307.584 
L 398.487273 307.584 
" style="fill:none;stroke:#d62728;stroke-linejoin:miter;"/>
   </g>
   <g id="patch_7">
    <path clip-path="url(#pca53d7be3b)" d="M 73.832727 307.584 
L 138.763631 307.584 
L 138.763631 307.086562 
L 142.010178 307.086562 
L 142.010178 307.234921 
L 145.256724 307.234921 
L 145.256724 307.10838 
L 148.503271 307.10838 
L 148.503271 306.279317 
L 151.749813 306.279317 
L 151.749813 304.036486 
L 154.996359 304.036486 
L 154.996359 305.655339 
L 158.242906 305.655339 
L 158.242906 301.331123 
L 161.489448 301.331123 
L 161.489448 303.534684 
L 164.735994 303.534684 
L 164.735994 301.300579 
L 167.982541 301.300579 
L 167.982541 291.247104 
L 171.229087 291.247104 
L 171.229087 295.34442 
L 174.475634 295.34442 
L 174.475634 277.397402 
L 177.72218 277.397402 
L 177.72218 289.047907 
L 180.968718 289.047907 
L 180.968718 265.092371 
L 184.215265 265.092371 
L 184.215265 285.290948 
L 187.461811 285.290948 
L 187.461811 279.657685 
L 190.708358 279.657685 
L 190.708358 242.742593 
L 193.954904 242.742593 
L 193.954904 263.49097 
L 197.201451 263.49097 
L 197.201451 216.461322 
L 200.447997 216.461322 
L 200.447997 255.798149 
L 203.694535 255.798149 
L 203.694535 182.081401 
L 206.941082 182.081401 
L 206.941082 236.598794 
L 210.187628 236.598794 
L 210.187628 233.841083 
L 213.434175 233.841083 
L 213.434175 132.289651 
L 216.680721 132.289651 
L 216.680721 215.771882 
L 219.927268 215.771882 
L 219.927268 110.018425 
L 223.173814 110.018425 
L 223.173814 202.755604 
L 226.420352 202.755604 
L 226.420352 79.212224 
L 229.666898 79.212224 
L 229.666898 196.36747 
L 232.913445 196.36747 
L 232.913445 193.697006 
L 236.159991 193.697006 
L 236.159991 56.417365 
L 239.406538 56.417365 
L 239.406538 179.205869 
L 242.653084 179.205869 
L 242.653084 59.004905 
L 245.899622 59.004905 
L 245.899622 182.020313 
L 249.146169 182.020313 
L 249.146169 185.964907 
L 252.392715 185.964907 
L 252.392715 54.144 
L 255.639262 54.144 
L 255.639262 172.883171 
L 258.885808 172.883171 
L 258.885808 61.762642 
L 262.132355 61.762642 
L 262.132355 182.399946 
L 265.378901 182.399946 
L 265.378901 102.796872 
L 268.625448 102.796872 
L 268.625448 197.816133 
L 275.118541 197.715784 
L 275.118541 92.91789 
L 278.365087 92.91789 
L 278.365087 197.624132 
L 281.611634 197.624132 
L 281.611634 121.311157 
L 284.858163 121.311157 
L 284.858163 217.041663 
L 288.104709 217.041663 
L 288.104709 153.832176 
L 291.351256 153.832176 
L 291.351256 225.402093 
L 294.597802 225.402093 
L 294.597802 225.964983 
L 297.844349 225.964983 
L 297.844349 173.214793 
L 301.090895 173.214793 
L 301.090895 242.786218 
L 304.337442 242.786218 
L 304.337442 199.797169 
L 307.583988 199.797169 
L 307.583988 255.235259 
L 310.830535 255.235259 
L 310.830535 213.590138 
L 314.077081 213.590138 
L 314.077081 262.762264 
L 317.323628 262.762264 
L 317.323628 263.988406 
L 320.570174 263.988406 
L 320.570174 234.526143 
L 323.816721 234.526143 
L 323.816721 273.548806 
L 327.063267 273.548806 
L 327.063267 248.637662 
L 330.309796 248.637662 
L 330.309796 284.213166 
L 333.556343 284.213166 
L 333.556343 258.381325 
L 336.802889 258.381325 
L 336.802889 283.53246 
L 340.049436 283.53246 
L 340.049436 283.772451 
L 343.295982 283.772451 
L 343.295982 274.438952 
L 346.542529 274.438952 
L 346.542529 292.224527 
L 349.789075 292.224527 
L 349.789075 282.301959 
L 353.035622 282.301959 
L 353.035622 291.312559 
L 356.282168 291.312559 
L 356.282168 295.148063 
L 359.528715 295.148063 
L 359.528715 284.937505 
L 362.775261 284.937505 
L 362.775261 302.989248 
L 366.021808 302.989248 
L 366.021808 291.024568 
L 369.268354 291.024568 
L 369.268354 302.871434 
L 372.514901 302.871434 
L 372.514901 299.620637 
L 375.76143 299.620637 
L 375.76143 300.606786 
L 379.007976 300.606786 
L 379.007976 304.878638 
L 382.254523 304.878638 
L 382.254523 300.467153 
L 385.501069 300.467153 
L 385.501069 306.475674 
L 388.747616 306.475674 
L 388.747616 299.720996 
L 391.99418 299.720996 
L 391.99418 305.314987 
L 395.240726 305.314987 
L 395.240726 304.149937 
L 398.487273 304.149937 
L 398.487273 307.584 
L 398.487273 307.584 
" style="fill:none;stroke:#9467bd;stroke-linejoin:miter;"/>
   </g>
   <g id="patch_8">
    <path clip-path="url(#pca53d7be3b)" d="M 73.832727 307.584 
L 398.487255 307.584 
L 398.487255 307.584 
" style="fill:none;stroke:#000000;stroke-linejoin:miter;"/>
   </g>
   <g id="matplotlib.axis_1">
    <g id="xtick_1">
     <g id="line2d_1">
      <defs>
       <path d="M 0 0 
L 0 3.5 
" id="m4c60f76325" style="stroke:#000000;stroke-width:0.8;"/>
      </defs>
      <g>
       <use style="stroke:#000000;stroke-width:0.8;" x="97.46806" xlink:href="#m4c60f76325" y="307.584"/>
      </g>
     </g>
     <g id="text_1">
      <!-- 0 -->
      <defs>
       <path d="M 31.78125 66.40625 
Q 24.171875 66.40625 20.328125 58.90625 
Q 16.5 51.421875 16.5 36.375 
Q 16.5 21.390625 20.328125 13.890625 
Q 24.171875 6.390625 31.78125 6.390625 
Q 39.453125 6.390625 43.28125 13.890625 
Q 47.125 21.390625 47.125 36.375 
Q 47.125 51.421875 43.28125 58.90625 
Q 39.453125 66.40625 31.78125 66.40625 
z
M 31.78125 74.21875 
Q 44.046875 74.21875 50.515625 64.515625 
Q 56.984375 54.828125 56.984375 36.375 
Q 56.984375 17.96875 50.515625 8.265625 
Q 44.046875 -1.421875 31.78125 -1.421875 
Q 19.53125 -1.421875 13.0625 8.265625 
Q 6.59375 17.96875 6.59375 36.375 
Q 6.59375 54.828125 13.0625 64.515625 
Q 19.53125 74.21875 31.78125 74.21875 
z
" id="DejaVuSans-48"/>
      </defs>
      <g transform="translate(94.28681 322.182437)scale(0.1 -0.1)">
       <use xlink:href="#DejaVuSans-48"/>
      </g>
     </g>
    </g>
    <g id="xtick_2">
     <g id="line2d_2">
      <g>
       <use style="stroke:#000000;stroke-width:0.8;" x="143.046705" xlink:href="#m4c60f76325" y="307.584"/>
      </g>
     </g>
     <g id="text_2">
      <!-- 20 -->
      <defs>
       <path d="M 19.1875 8.296875 
L 53.609375 8.296875 
L 53.609375 0 
L 7.328125 0 
L 7.328125 8.296875 
Q 12.9375 14.109375 22.625 23.890625 
Q 32.328125 33.6875 34.8125 36.53125 
Q 39.546875 41.84375 41.421875 45.53125 
Q 43.3125 49.21875 43.3125 52.78125 
Q 43.3125 58.59375 39.234375 62.25 
Q 35.15625 65.921875 28.609375 65.921875 
Q 23.96875 65.921875 18.8125 64.3125 
Q 13.671875 62.703125 7.8125 59.421875 
L 7.8125 69.390625 
Q 13.765625 71.78125 18.9375 73 
Q 24.125 74.21875 28.421875 74.21875 
Q 39.75 74.21875 46.484375 68.546875 
Q 53.21875 62.890625 53.21875 53.421875 
Q 53.21875 48.921875 51.53125 44.890625 
Q 49.859375 40.875 45.40625 35.40625 
Q 44.1875 33.984375 37.640625 27.21875 
Q 31.109375 20.453125 19.1875 8.296875 
z
" id="DejaVuSans-50"/>
      </defs>
      <g transform="translate(136.684205 322.182437)scale(0.1 -0.1)">
       <use xlink:href="#DejaVuSans-50"/>
       <use x="63.623047" xlink:href="#DejaVuSans-48"/>
      </g>
     </g>
    </g>
    <g id="xtick_3">
     <g id="line2d_3">
      <g>
       <use style="stroke:#000000;stroke-width:0.8;" x="188.625349" xlink:href="#m4c60f76325" y="307.584"/>
      </g>
     </g>
     <g id="text_3">
      <!-- 40 -->
      <defs>
       <path d="M 37.796875 64.3125 
L 12.890625 25.390625 
L 37.796875 25.390625 
z
M 35.203125 72.90625 
L 47.609375 72.90625 
L 47.609375 25.390625 
L 58.015625 25.390625 
L 58.015625 17.1875 
L 47.609375 17.1875 
L 47.609375 0 
L 37.796875 0 
L 37.796875 17.1875 
L 4.890625 17.1875 
L 4.890625 26.703125 
z
" id="DejaVuSans-52"/>
      </defs>
      <g transform="translate(182.262849 322.182437)scale(0.1 -0.1)">
       <use xlink:href="#DejaVuSans-52"/>
       <use x="63.623047" xlink:href="#DejaVuSans-48"/>
      </g>
     </g>
    </g>
    <g id="xtick_4">
     <g id="line2d_4">
      <g>
       <use style="stroke:#000000;stroke-width:0.8;" x="234.203994" xlink:href="#m4c60f76325" y="307.584"/>
      </g>
     </g>
     <g id="text_4">
      <!-- 60 -->
      <defs>
       <path d="M 33.015625 40.375 
Q 26.375 40.375 22.484375 35.828125 
Q 18.609375 31.296875 18.609375 23.390625 
Q 18.609375 15.53125 22.484375 10.953125 
Q 26.375 6.390625 33.015625 6.390625 
Q 39.65625 6.390625 43.53125 10.953125 
Q 47.40625 15.53125 47.40625 23.390625 
Q 47.40625 31.296875 43.53125 35.828125 
Q 39.65625 40.375 33.015625 40.375 
z
M 52.59375 71.296875 
L 52.59375 62.3125 
Q 48.875 64.0625 45.09375 64.984375 
Q 41.3125 65.921875 37.59375 65.921875 
Q 27.828125 65.921875 22.671875 59.328125 
Q 17.53125 52.734375 16.796875 39.40625 
Q 19.671875 43.65625 24.015625 45.921875 
Q 28.375 48.1875 33.59375 48.1875 
Q 44.578125 48.1875 50.953125 41.515625 
Q 57.328125 34.859375 57.328125 23.390625 
Q 57.328125 12.15625 50.6875 5.359375 
Q 44.046875 -1.421875 33.015625 -1.421875 
Q 20.359375 -1.421875 13.671875 8.265625 
Q 6.984375 17.96875 6.984375 36.375 
Q 6.984375 53.65625 15.1875 63.9375 
Q 23.390625 74.21875 37.203125 74.21875 
Q 40.921875 74.21875 44.703125 73.484375 
Q 48.484375 72.75 52.59375 71.296875 
z
" id="DejaVuSans-54"/>
      </defs>
      <g transform="translate(227.841494 322.182437)scale(0.1 -0.1)">
       <use xlink:href="#DejaVuSans-54"/>
       <use x="63.623047" xlink:href="#DejaVuSans-48"/>
      </g>
     </g>
    </g>
    <g id="xtick_5">
     <g id="line2d_5">
      <g>
       <use style="stroke:#000000;stroke-width:0.8;" x="279.782639" xlink:href="#m4c60f76325" y="307.584"/>
      </g>
     </g>
     <g id="text_5">
      <!-- 80 -->
      <defs>
       <path d="M 31.78125 34.625 
Q 24.75 34.625 20.71875 30.859375 
Q 16.703125 27.09375 16.703125 20.515625 
Q 16.703125 13.921875 20.71875 10.15625 
Q 24.75 6.390625 31.78125 6.390625 
Q 38.8125 6.390625 42.859375 10.171875 
Q 46.921875 13.96875 46.921875 20.515625 
Q 46.921875 27.09375 42.890625 30.859375 
Q 38.875 34.625 31.78125 34.625 
z
M 21.921875 38.8125 
Q 15.578125 40.375 12.03125 44.71875 
Q 8.5 49.078125 8.5 55.328125 
Q 8.5 64.0625 14.71875 69.140625 
Q 20.953125 74.21875 31.78125 74.21875 
Q 42.671875 74.21875 48.875 69.140625 
Q 55.078125 64.0625 55.078125 55.328125 
Q 55.078125 49.078125 51.53125 44.71875 
Q 48 40.375 41.703125 38.8125 
Q 48.828125 37.15625 52.796875 32.3125 
Q 56.78125 27.484375 56.78125 20.515625 
Q 56.78125 9.90625 50.3125 4.234375 
Q 43.84375 -1.421875 31.78125 -1.421875 
Q 19.734375 -1.421875 13.25 4.234375 
Q 6.78125 9.90625 6.78125 20.515625 
Q 6.78125 27.484375 10.78125 32.3125 
Q 14.796875 37.15625 21.921875 38.8125 
z
M 18.3125 54.390625 
Q 18.3125 48.734375 21.84375 45.5625 
Q 25.390625 42.390625 31.78125 42.390625 
Q 38.140625 42.390625 41.71875 45.5625 
Q 45.3125 48.734375 45.3125 54.390625 
Q 45.3125 60.0625 41.71875 63.234375 
Q 38.140625 66.40625 31.78125 66.40625 
Q 25.390625 66.40625 21.84375 63.234375 
Q 18.3125 60.0625 18.3125 54.390625 
z
" id="DejaVuSans-56"/>
      </defs>
      <g transform="translate(273.420139 322.182437)scale(0.1 -0.1)">
       <use xlink:href="#DejaVuSans-56"/>
       <use x="63.623047" xlink:href="#DejaVuSans-48"/>
      </g>
     </g>
    </g>
    <g id="xtick_6">
     <g id="line2d_6">
      <g>
       <use style="stroke:#000000;stroke-width:0.8;" x="325.361284" xlink:href="#m4c60f76325" y="307.584"/>
      </g>
     </g>
     <g id="text_6">
      <!-- 100 -->
      <defs>
       <path d="M 12.40625 8.296875 
L 28.515625 8.296875 
L 28.515625 63.921875 
L 10.984375 60.40625 
L 10.984375 69.390625 
L 28.421875 72.90625 
L 38.28125 72.90625 
L 38.28125 8.296875 
L 54.390625 8.296875 
L 54.390625 0 
L 12.40625 0 
z
" id="DejaVuSans-49"/>
      </defs>
      <g transform="translate(315.817534 322.182437)scale(0.1 -0.1)">
       <use xlink:href="#DejaVuSans-49"/>
       <use x="63.623047" xlink:href="#DejaVuSans-48"/>
       <use x="127.246094" xlink:href="#DejaVuSans-48"/>
      </g>
     </g>
    </g>
    <g id="xtick_7">
     <g id="line2d_7">
      <g>
       <use style="stroke:#000000;stroke-width:0.8;" x="370.939928" xlink:href="#m4c60f76325" y="307.584"/>
      </g>
     </g>
     <g id="text_7">
      <!-- 120 -->
      <g transform="translate(361.396178 322.182437)scale(0.1 -0.1)">
       <use xlink:href="#DejaVuSans-49"/>
       <use x="63.623047" xlink:href="#DejaVuSans-50"/>
       <use x="127.246094" xlink:href="#DejaVuSans-48"/>
      </g>
     </g>
    </g>
    <g id="text_8">
     <!-- j_multiplicity -->
     <defs>
      <path d="M 9.421875 54.6875 
L 18.40625 54.6875 
L 18.40625 -0.984375 
Q 18.40625 -11.421875 14.421875 -16.109375 
Q 10.453125 -20.796875 1.609375 -20.796875 
L -1.8125 -20.796875 
L -1.8125 -13.1875 
L 0.59375 -13.1875 
Q 5.71875 -13.1875 7.5625 -10.8125 
Q 9.421875 -8.453125 9.421875 -0.984375 
z
M 9.421875 75.984375 
L 18.40625 75.984375 
L 18.40625 64.59375 
L 9.421875 64.59375 
z
" id="DejaVuSans-106"/>
      <path d="M 50.984375 -16.609375 
L 50.984375 -23.578125 
L -0.984375 -23.578125 
L -0.984375 -16.609375 
z
" id="DejaVuSans-95"/>
      <path d="M 52 44.1875 
Q 55.375 50.25 60.0625 53.125 
Q 64.75 56 71.09375 56 
Q 79.640625 56 84.28125 50.015625 
Q 88.921875 44.046875 88.921875 33.015625 
L 88.921875 0 
L 79.890625 0 
L 79.890625 32.71875 
Q 79.890625 40.578125 77.09375 44.375 
Q 74.3125 48.1875 68.609375 48.1875 
Q 61.625 48.1875 57.5625 43.546875 
Q 53.515625 38.921875 53.515625 30.90625 
L 53.515625 0 
L 44.484375 0 
L 44.484375 32.71875 
Q 44.484375 40.625 41.703125 44.40625 
Q 38.921875 48.1875 33.109375 48.1875 
Q 26.21875 48.1875 22.15625 43.53125 
Q 18.109375 38.875 18.109375 30.90625 
L 18.109375 0 
L 9.078125 0 
L 9.078125 54.6875 
L 18.109375 54.6875 
L 18.109375 46.1875 
Q 21.1875 51.21875 25.484375 53.609375 
Q 29.78125 56 35.6875 56 
Q 41.65625 56 45.828125 52.96875 
Q 50 49.953125 52 44.1875 
z
" id="DejaVuSans-109"/>
      <path d="M 8.5 21.578125 
L 8.5 54.6875 
L 17.484375 54.6875 
L 17.484375 21.921875 
Q 17.484375 14.15625 20.5 10.265625 
Q 23.53125 6.390625 29.59375 6.390625 
Q 36.859375 6.390625 41.078125 11.03125 
Q 45.3125 15.671875 45.3125 23.6875 
L 45.3125 54.6875 
L 54.296875 54.6875 
L 54.296875 0 
L 45.3125 0 
L 45.3125 8.40625 
Q 42.046875 3.421875 37.71875 1 
Q 33.40625 -1.421875 27.6875 -1.421875 
Q 18.265625 -1.421875 13.375 4.4375 
Q 8.5 10.296875 8.5 21.578125 
z
M 31.109375 56 
z
" id="DejaVuSans-117"/>
      <path d="M 9.421875 75.984375 
L 18.40625 75.984375 
L 18.40625 0 
L 9.421875 0 
z
" id="DejaVuSans-108"/>
      <path d="M 18.3125 70.21875 
L 18.3125 54.6875 
L 36.8125 54.6875 
L 36.8125 47.703125 
L 18.3125 47.703125 
L 18.3125 18.015625 
Q 18.3125 11.328125 20.140625 9.421875 
Q 21.96875 7.515625 27.59375 7.515625 
L 36.8125 7.515625 
L 36.8125 0 
L 27.59375 0 
Q 17.1875 0 13.234375 3.875 
Q 9.28125 7.765625 9.28125 18.015625 
L 9.28125 47.703125 
L 2.6875 47.703125 
L 2.6875 54.6875 
L 9.28125 54.6875 
L 9.28125 70.21875 
z
" id="DejaVuSans-116"/>
      <path d="M 9.421875 54.6875 
L 18.40625 54.6875 
L 18.40625 0 
L 9.421875 0 
z
M 9.421875 75.984375 
L 18.40625 75.984375 
L 18.40625 64.59375 
L 9.421875 64.59375 
z
" id="DejaVuSans-105"/>
      <path d="M 18.109375 8.203125 
L 18.109375 -20.796875 
L 9.078125 -20.796875 
L 9.078125 54.6875 
L 18.109375 54.6875 
L 18.109375 46.390625 
Q 20.953125 51.265625 25.265625 53.625 
Q 29.59375 56 35.59375 56 
Q 45.5625 56 51.78125 48.09375 
Q 58.015625 40.1875 58.015625 27.296875 
Q 58.015625 14.40625 51.78125 6.484375 
Q 45.5625 -1.421875 35.59375 -1.421875 
Q 29.59375 -1.421875 25.265625 0.953125 
Q 20.953125 3.328125 18.109375 8.203125 
z
M 48.6875 27.296875 
Q 48.6875 37.203125 44.609375 42.84375 
Q 40.53125 48.484375 33.40625 48.484375 
Q 26.265625 48.484375 22.1875 42.84375 
Q 18.109375 37.203125 18.109375 27.296875 
Q 18.109375 17.390625 22.1875 11.75 
Q 26.265625 6.109375 33.40625 6.109375 
Q 40.53125 6.109375 44.609375 11.75 
Q 48.6875 17.390625 48.6875 27.296875 
z
" id="DejaVuSans-112"/>
      <path d="M 48.78125 52.59375 
L 48.78125 44.1875 
Q 44.96875 46.296875 41.140625 47.34375 
Q 37.3125 48.390625 33.40625 48.390625 
Q 24.65625 48.390625 19.8125 42.84375 
Q 14.984375 37.3125 14.984375 27.296875 
Q 14.984375 17.28125 19.8125 11.734375 
Q 24.65625 6.203125 33.40625 6.203125 
Q 37.3125 6.203125 41.140625 7.25 
Q 44.96875 8.296875 48.78125 10.40625 
L 48.78125 2.09375 
Q 45.015625 0.34375 40.984375 -0.53125 
Q 36.96875 -1.421875 32.421875 -1.421875 
Q 20.0625 -1.421875 12.78125 6.34375 
Q 5.515625 14.109375 5.515625 27.296875 
Q 5.515625 40.671875 12.859375 48.328125 
Q 20.21875 56 33.015625 56 
Q 37.15625 56 41.109375 55.140625 
Q 45.0625 54.296875 48.78125 52.59375 
z
" id="DejaVuSans-99"/>
      <path d="M 32.171875 -5.078125 
Q 28.375 -14.84375 24.75 -17.8125 
Q 21.140625 -20.796875 15.09375 -20.796875 
L 7.90625 -20.796875 
L 7.90625 -13.28125 
L 13.1875 -13.28125 
Q 16.890625 -13.28125 18.9375 -11.515625 
Q 21 -9.765625 23.484375 -3.21875 
L 25.09375 0.875 
L 2.984375 54.6875 
L 12.5 54.6875 
L 29.59375 11.921875 
L 46.6875 54.6875 
L 56.203125 54.6875 
z
" id="DejaVuSans-121"/>
     </defs>
     <g transform="translate(204.483437 335.860562)scale(0.1 -0.1)">
      <use xlink:href="#DejaVuSans-106"/>
      <use x="27.783203" xlink:href="#DejaVuSans-95"/>
      <use x="77.783203" xlink:href="#DejaVuSans-109"/>
      <use x="175.195312" xlink:href="#DejaVuSans-117"/>
      <use x="238.574219" xlink:href="#DejaVuSans-108"/>
      <use x="266.357422" xlink:href="#DejaVuSans-116"/>
      <use x="305.566406" xlink:href="#DejaVuSans-105"/>
      <use x="333.349609" xlink:href="#DejaVuSans-112"/>
      <use x="396.826172" xlink:href="#DejaVuSans-108"/>
      <use x="424.609375" xlink:href="#DejaVuSans-105"/>
      <use x="452.392578" xlink:href="#DejaVuSans-99"/>
      <use x="507.373047" xlink:href="#DejaVuSans-105"/>
      <use x="535.15625" xlink:href="#DejaVuSans-116"/>
      <use x="574.365234" xlink:href="#DejaVuSans-121"/>
     </g>
    </g>
   </g>
   <g id="matplotlib.axis_2">
    <g id="ytick_1">
     <g id="line2d_8">
      <defs>
       <path d="M 0 0 
L -3.5 0 
" id="m1f57bec890" style="stroke:#000000;stroke-width:0.8;"/>
      </defs>
      <g>
       <use style="stroke:#000000;stroke-width:0.8;" x="57.6" xlink:href="#m1f57bec890" y="307.584"/>
      </g>
     </g>
     <g id="text_9">
      <!-- 0.000 -->
      <defs>
       <path d="M 10.6875 12.40625 
L 21 12.40625 
L 21 0 
L 10.6875 0 
z
" id="DejaVuSans-46"/>
      </defs>
      <g transform="translate(21.971875 311.383219)scale(0.1 -0.1)">
       <use xlink:href="#DejaVuSans-48"/>
       <use x="63.623047" xlink:href="#DejaVuSans-46"/>
       <use x="95.410156" xlink:href="#DejaVuSans-48"/>
       <use x="159.033203" xlink:href="#DejaVuSans-48"/>
       <use x="222.65625" xlink:href="#DejaVuSans-48"/>
      </g>
     </g>
    </g>
    <g id="ytick_2">
     <g id="line2d_9">
      <g>
       <use style="stroke:#000000;stroke-width:0.8;" x="57.6" xlink:href="#m1f57bec890" y="262.902694"/>
      </g>
     </g>
     <g id="text_10">
      <!-- 0.002 -->
      <g transform="translate(21.971875 266.701912)scale(0.1 -0.1)">
       <use xlink:href="#DejaVuSans-48"/>
       <use x="63.623047" xlink:href="#DejaVuSans-46"/>
       <use x="95.410156" xlink:href="#DejaVuSans-48"/>
       <use x="159.033203" xlink:href="#DejaVuSans-48"/>
       <use x="222.65625" xlink:href="#DejaVuSans-50"/>
      </g>
     </g>
    </g>
    <g id="ytick_3">
     <g id="line2d_10">
      <g>
       <use style="stroke:#000000;stroke-width:0.8;" x="57.6" xlink:href="#m1f57bec890" y="218.221387"/>
      </g>
     </g>
     <g id="text_11">
      <!-- 0.004 -->
      <g transform="translate(21.971875 222.020606)scale(0.1 -0.1)">
       <use xlink:href="#DejaVuSans-48"/>
       <use x="63.623047" xlink:href="#DejaVuSans-46"/>
       <use x="95.410156" xlink:href="#DejaVuSans-48"/>
       <use x="159.033203" xlink:href="#DejaVuSans-48"/>
       <use x="222.65625" xlink:href="#DejaVuSans-52"/>
      </g>
     </g>
    </g>
    <g id="ytick_4">
     <g id="line2d_11">
      <g>
       <use style="stroke:#000000;stroke-width:0.8;" x="57.6" xlink:href="#m1f57bec890" y="173.540081"/>
      </g>
     </g>
     <g id="text_12">
      <!-- 0.006 -->
      <g transform="translate(21.971875 177.3393)scale(0.1 -0.1)">
       <use xlink:href="#DejaVuSans-48"/>
       <use x="63.623047" xlink:href="#DejaVuSans-46"/>
       <use x="95.410156" xlink:href="#DejaVuSans-48"/>
       <use x="159.033203" xlink:href="#DejaVuSans-48"/>
       <use x="222.65625" xlink:href="#DejaVuSans-54"/>
      </g>
     </g>
    </g>
    <g id="ytick_5">
     <g id="line2d_12">
      <g>
       <use style="stroke:#000000;stroke-width:0.8;" x="57.6" xlink:href="#m1f57bec890" y="128.858775"/>
      </g>
     </g>
     <g id="text_13">
      <!-- 0.008 -->
      <g transform="translate(21.971875 132.657994)scale(0.1 -0.1)">
       <use xlink:href="#DejaVuSans-48"/>
       <use x="63.623047" xlink:href="#DejaVuSans-46"/>
       <use x="95.410156" xlink:href="#DejaVuSans-48"/>
       <use x="159.033203" xlink:href="#DejaVuSans-48"/>
       <use x="222.65625" xlink:href="#DejaVuSans-56"/>
      </g>
     </g>
    </g>
    <g id="ytick_6">
     <g id="line2d_13">
      <g>
       <use style="stroke:#000000;stroke-width:0.8;" x="57.6" xlink:href="#m1f57bec890" y="84.177469"/>
      </g>
     </g>
     <g id="text_14">
      <!-- 0.010 -->
      <g transform="translate(21.971875 87.976687)scale(0.1 -0.1)">
       <use xlink:href="#DejaVuSans-48"/>
       <use x="63.623047" xlink:href="#DejaVuSans-46"/>
       <use x="95.410156" xlink:href="#DejaVuSans-48"/>
       <use x="159.033203" xlink:href="#DejaVuSans-49"/>
       <use x="222.65625" xlink:href="#DejaVuSans-48"/>
      </g>
     </g>
    </g>
    <g id="text_15">
     <!-- Prob. Density (a.u.) -->
     <defs>
      <path d="M 19.671875 64.796875 
L 19.671875 37.40625 
L 32.078125 37.40625 
Q 38.96875 37.40625 42.71875 40.96875 
Q 46.484375 44.53125 46.484375 51.125 
Q 46.484375 57.671875 42.71875 61.234375 
Q 38.96875 64.796875 32.078125 64.796875 
z
M 9.8125 72.90625 
L 32.078125 72.90625 
Q 44.34375 72.90625 50.609375 67.359375 
Q 56.890625 61.8125 56.890625 51.125 
Q 56.890625 40.328125 50.609375 34.8125 
Q 44.34375 29.296875 32.078125 29.296875 
L 19.671875 29.296875 
L 19.671875 0 
L 9.8125 0 
z
" id="DejaVuSans-80"/>
      <path d="M 41.109375 46.296875 
Q 39.59375 47.171875 37.8125 47.578125 
Q 36.03125 48 33.890625 48 
Q 26.265625 48 22.1875 43.046875 
Q 18.109375 38.09375 18.109375 28.8125 
L 18.109375 0 
L 9.078125 0 
L 9.078125 54.6875 
L 18.109375 54.6875 
L 18.109375 46.1875 
Q 20.953125 51.171875 25.484375 53.578125 
Q 30.03125 56 36.53125 56 
Q 37.453125 56 38.578125 55.875 
Q 39.703125 55.765625 41.0625 55.515625 
z
" id="DejaVuSans-114"/>
      <path d="M 30.609375 48.390625 
Q 23.390625 48.390625 19.1875 42.75 
Q 14.984375 37.109375 14.984375 27.296875 
Q 14.984375 17.484375 19.15625 11.84375 
Q 23.34375 6.203125 30.609375 6.203125 
Q 37.796875 6.203125 41.984375 11.859375 
Q 46.1875 17.53125 46.1875 27.296875 
Q 46.1875 37.015625 41.984375 42.703125 
Q 37.796875 48.390625 30.609375 48.390625 
z
M 30.609375 56 
Q 42.328125 56 49.015625 48.375 
Q 55.71875 40.765625 55.71875 27.296875 
Q 55.71875 13.875 49.015625 6.21875 
Q 42.328125 -1.421875 30.609375 -1.421875 
Q 18.84375 -1.421875 12.171875 6.21875 
Q 5.515625 13.875 5.515625 27.296875 
Q 5.515625 40.765625 12.171875 48.375 
Q 18.84375 56 30.609375 56 
z
" id="DejaVuSans-111"/>
      <path d="M 48.6875 27.296875 
Q 48.6875 37.203125 44.609375 42.84375 
Q 40.53125 48.484375 33.40625 48.484375 
Q 26.265625 48.484375 22.1875 42.84375 
Q 18.109375 37.203125 18.109375 27.296875 
Q 18.109375 17.390625 22.1875 11.75 
Q 26.265625 6.109375 33.40625 6.109375 
Q 40.53125 6.109375 44.609375 11.75 
Q 48.6875 17.390625 48.6875 27.296875 
z
M 18.109375 46.390625 
Q 20.953125 51.265625 25.265625 53.625 
Q 29.59375 56 35.59375 56 
Q 45.5625 56 51.78125 48.09375 
Q 58.015625 40.1875 58.015625 27.296875 
Q 58.015625 14.40625 51.78125 6.484375 
Q 45.5625 -1.421875 35.59375 -1.421875 
Q 29.59375 -1.421875 25.265625 0.953125 
Q 20.953125 3.328125 18.109375 8.203125 
L 18.109375 0 
L 9.078125 0 
L 9.078125 75.984375 
L 18.109375 75.984375 
z
" id="DejaVuSans-98"/>
      <path id="DejaVuSans-32"/>
      <path d="M 19.671875 64.796875 
L 19.671875 8.109375 
L 31.59375 8.109375 
Q 46.6875 8.109375 53.6875 14.9375 
Q 60.6875 21.78125 60.6875 36.53125 
Q 60.6875 51.171875 53.6875 57.984375 
Q 46.6875 64.796875 31.59375 64.796875 
z
M 9.8125 72.90625 
L 30.078125 72.90625 
Q 51.265625 72.90625 61.171875 64.09375 
Q 71.09375 55.28125 71.09375 36.53125 
Q 71.09375 17.671875 61.125 8.828125 
Q 51.171875 0 30.078125 0 
L 9.8125 0 
z
" id="DejaVuSans-68"/>
      <path d="M 56.203125 29.59375 
L 56.203125 25.203125 
L 14.890625 25.203125 
Q 15.484375 15.921875 20.484375 11.0625 
Q 25.484375 6.203125 34.421875 6.203125 
Q 39.59375 6.203125 44.453125 7.46875 
Q 49.3125 8.734375 54.109375 11.28125 
L 54.109375 2.78125 
Q 49.265625 0.734375 44.1875 -0.34375 
Q 39.109375 -1.421875 33.890625 -1.421875 
Q 20.796875 -1.421875 13.15625 6.1875 
Q 5.515625 13.8125 5.515625 26.8125 
Q 5.515625 40.234375 12.765625 48.109375 
Q 20.015625 56 32.328125 56 
Q 43.359375 56 49.78125 48.890625 
Q 56.203125 41.796875 56.203125 29.59375 
z
M 47.21875 32.234375 
Q 47.125 39.59375 43.09375 43.984375 
Q 39.0625 48.390625 32.421875 48.390625 
Q 24.90625 48.390625 20.390625 44.140625 
Q 15.875 39.890625 15.1875 32.171875 
z
" id="DejaVuSans-101"/>
      <path d="M 54.890625 33.015625 
L 54.890625 0 
L 45.90625 0 
L 45.90625 32.71875 
Q 45.90625 40.484375 42.875 44.328125 
Q 39.84375 48.1875 33.796875 48.1875 
Q 26.515625 48.1875 22.3125 43.546875 
Q 18.109375 38.921875 18.109375 30.90625 
L 18.109375 0 
L 9.078125 0 
L 9.078125 54.6875 
L 18.109375 54.6875 
L 18.109375 46.1875 
Q 21.34375 51.125 25.703125 53.5625 
Q 30.078125 56 35.796875 56 
Q 45.21875 56 50.046875 50.171875 
Q 54.890625 44.34375 54.890625 33.015625 
z
" id="DejaVuSans-110"/>
      <path d="M 44.28125 53.078125 
L 44.28125 44.578125 
Q 40.484375 46.53125 36.375 47.5 
Q 32.28125 48.484375 27.875 48.484375 
Q 21.1875 48.484375 17.84375 46.4375 
Q 14.5 44.390625 14.5 40.28125 
Q 14.5 37.15625 16.890625 35.375 
Q 19.28125 33.59375 26.515625 31.984375 
L 29.59375 31.296875 
Q 39.15625 29.25 43.1875 25.515625 
Q 47.21875 21.78125 47.21875 15.09375 
Q 47.21875 7.46875 41.1875 3.015625 
Q 35.15625 -1.421875 24.609375 -1.421875 
Q 20.21875 -1.421875 15.453125 -0.5625 
Q 10.6875 0.296875 5.421875 2 
L 5.421875 11.28125 
Q 10.40625 8.6875 15.234375 7.390625 
Q 20.0625 6.109375 24.8125 6.109375 
Q 31.15625 6.109375 34.5625 8.28125 
Q 37.984375 10.453125 37.984375 14.40625 
Q 37.984375 18.0625 35.515625 20.015625 
Q 33.0625 21.96875 24.703125 23.78125 
L 21.578125 24.515625 
Q 13.234375 26.265625 9.515625 29.90625 
Q 5.8125 33.546875 5.8125 39.890625 
Q 5.8125 47.609375 11.28125 51.796875 
Q 16.75 56 26.8125 56 
Q 31.78125 56 36.171875 55.265625 
Q 40.578125 54.546875 44.28125 53.078125 
z
" id="DejaVuSans-115"/>
      <path d="M 31 75.875 
Q 24.46875 64.65625 21.28125 53.65625 
Q 18.109375 42.671875 18.109375 31.390625 
Q 18.109375 20.125 21.3125 9.0625 
Q 24.515625 -2 31 -13.1875 
L 23.1875 -13.1875 
Q 15.875 -1.703125 12.234375 9.375 
Q 8.59375 20.453125 8.59375 31.390625 
Q 8.59375 42.28125 12.203125 53.3125 
Q 15.828125 64.359375 23.1875 75.875 
z
" id="DejaVuSans-40"/>
      <path d="M 34.28125 27.484375 
Q 23.390625 27.484375 19.1875 25 
Q 14.984375 22.515625 14.984375 16.5 
Q 14.984375 11.71875 18.140625 8.90625 
Q 21.296875 6.109375 26.703125 6.109375 
Q 34.1875 6.109375 38.703125 11.40625 
Q 43.21875 16.703125 43.21875 25.484375 
L 43.21875 27.484375 
z
M 52.203125 31.203125 
L 52.203125 0 
L 43.21875 0 
L 43.21875 8.296875 
Q 40.140625 3.328125 35.546875 0.953125 
Q 30.953125 -1.421875 24.3125 -1.421875 
Q 15.921875 -1.421875 10.953125 3.296875 
Q 6 8.015625 6 15.921875 
Q 6 25.140625 12.171875 29.828125 
Q 18.359375 34.515625 30.609375 34.515625 
L 43.21875 34.515625 
L 43.21875 35.40625 
Q 43.21875 41.609375 39.140625 45 
Q 35.0625 48.390625 27.6875 48.390625 
Q 23 48.390625 18.546875 47.265625 
Q 14.109375 46.140625 10.015625 43.890625 
L 10.015625 52.203125 
Q 14.9375 54.109375 19.578125 55.046875 
Q 24.21875 56 28.609375 56 
Q 40.484375 56 46.34375 49.84375 
Q 52.203125 43.703125 52.203125 31.203125 
z
" id="DejaVuSans-97"/>
      <path d="M 8.015625 75.875 
L 15.828125 75.875 
Q 23.140625 64.359375 26.78125 53.3125 
Q 30.421875 42.28125 30.421875 31.390625 
Q 30.421875 20.453125 26.78125 9.375 
Q 23.140625 -1.703125 15.828125 -13.1875 
L 8.015625 -13.1875 
Q 14.5 -2 17.703125 9.0625 
Q 20.90625 20.125 20.90625 31.390625 
Q 20.90625 42.671875 17.703125 53.65625 
Q 14.5 64.65625 8.015625 75.875 
z
" id="DejaVuSans-41"/>
     </defs>
     <g transform="translate(15.892187 222.917844)rotate(-90)scale(0.1 -0.1)">
      <use xlink:href="#DejaVuSans-80"/>
      <use x="60.287109" xlink:href="#DejaVuSans-114"/>
      <use x="101.369141" xlink:href="#DejaVuSans-111"/>
      <use x="162.550781" xlink:href="#DejaVuSans-98"/>
      <use x="226.027344" xlink:href="#DejaVuSans-46"/>
      <use x="257.814453" xlink:href="#DejaVuSans-32"/>
      <use x="289.601562" xlink:href="#DejaVuSans-68"/>
      <use x="366.603516" xlink:href="#DejaVuSans-101"/>
      <use x="428.126953" xlink:href="#DejaVuSans-110"/>
      <use x="491.505859" xlink:href="#DejaVuSans-115"/>
      <use x="543.605469" xlink:href="#DejaVuSans-105"/>
      <use x="571.388672" xlink:href="#DejaVuSans-116"/>
      <use x="610.597656" xlink:href="#DejaVuSans-121"/>
      <use x="669.777344" xlink:href="#DejaVuSans-32"/>
      <use x="701.564453" xlink:href="#DejaVuSans-40"/>
      <use x="740.578125" xlink:href="#DejaVuSans-97"/>
      <use x="801.857422" xlink:href="#DejaVuSans-46"/>
      <use x="833.644531" xlink:href="#DejaVuSans-117"/>
      <use x="897.023438" xlink:href="#DejaVuSans-46"/>
      <use x="928.810547" xlink:href="#DejaVuSans-41"/>
     </g>
    </g>
   </g>
   <g id="patch_9">
    <path d="M 57.6 307.584 
L 57.6 41.472 
" style="fill:none;stroke:#000000;stroke-linecap:square;stroke-linejoin:miter;stroke-width:0.8;"/>
   </g>
   <g id="patch_10">
    <path d="M 414.72 307.584 
L 414.72 41.472 
" style="fill:none;stroke:#000000;stroke-linecap:square;stroke-linejoin:miter;stroke-width:0.8;"/>
   </g>
   <g id="patch_11">
    <path d="M 57.6 307.584 
L 414.72 307.584 
" style="fill:none;stroke:#000000;stroke-linecap:square;stroke-linejoin:miter;stroke-width:0.8;"/>
   </g>
   <g id="patch_12">
    <path d="M 57.6 41.472 
L 414.72 41.472 
" style="fill:none;stroke:#000000;stroke-linecap:square;stroke-linejoin:miter;stroke-width:0.8;"/>
   </g>
   <g id="legend_1">
    <g id="patch_13">
     <path d="M 325.405938 137.54075 
L 407.72 137.54075 
Q 409.72 137.54075 409.72 135.54075 
L 409.72 48.472 
Q 409.72 46.472 407.72 46.472 
L 325.405938 46.472 
Q 323.405938 46.472 323.405938 48.472 
L 323.405938 135.54075 
Q 323.405938 137.54075 325.405938 137.54075 
z
" style="fill:#ffffff;opacity:0.8;stroke:#cccccc;stroke-linejoin:miter;"/>
    </g>
    <g id="patch_14">
     <path d="M 327.405938 58.070438 
L 347.405938 58.070438 
L 347.405938 51.070438 
L 327.405938 51.070438 
z
" style="fill:none;stroke:#1f77b4;stroke-linejoin:miter;"/>
    </g>
    <g id="text_16">
     <!-- quark -->
     <defs>
      <path d="M 14.796875 27.296875 
Q 14.796875 17.390625 18.875 11.75 
Q 22.953125 6.109375 30.078125 6.109375 
Q 37.203125 6.109375 41.296875 11.75 
Q 45.40625 17.390625 45.40625 27.296875 
Q 45.40625 37.203125 41.296875 42.84375 
Q 37.203125 48.484375 30.078125 48.484375 
Q 22.953125 48.484375 18.875 42.84375 
Q 14.796875 37.203125 14.796875 27.296875 
z
M 45.40625 8.203125 
Q 42.578125 3.328125 38.25 0.953125 
Q 33.9375 -1.421875 27.875 -1.421875 
Q 17.96875 -1.421875 11.734375 6.484375 
Q 5.515625 14.40625 5.515625 27.296875 
Q 5.515625 40.1875 11.734375 48.09375 
Q 17.96875 56 27.875 56 
Q 33.9375 56 38.25 53.625 
Q 42.578125 51.265625 45.40625 46.390625 
L 45.40625 54.6875 
L 54.390625 54.6875 
L 54.390625 -20.796875 
L 45.40625 -20.796875 
z
" id="DejaVuSans-113"/>
      <path d="M 9.078125 75.984375 
L 18.109375 75.984375 
L 18.109375 31.109375 
L 44.921875 54.6875 
L 56.390625 54.6875 
L 27.390625 29.109375 
L 57.625 0 
L 45.90625 0 
L 18.109375 26.703125 
L 18.109375 0 
L 9.078125 0 
z
" id="DejaVuSans-107"/>
     </defs>
     <g transform="translate(355.405938 58.070438)scale(0.1 -0.1)">
      <use xlink:href="#DejaVuSans-113"/>
      <use x="63.476562" xlink:href="#DejaVuSans-117"/>
      <use x="126.855469" xlink:href="#DejaVuSans-97"/>
      <use x="188.134766" xlink:href="#DejaVuSans-114"/>
      <use x="229.248047" xlink:href="#DejaVuSans-107"/>
     </g>
    </g>
    <g id="patch_15">
     <path d="M 327.405938 72.748563 
L 347.405938 72.748563 
L 347.405938 65.748563 
L 327.405938 65.748563 
z
" style="fill:none;stroke:#ff7f0e;stroke-linejoin:miter;"/>
    </g>
    <g id="text_17">
     <!-- gluon -->
     <defs>
      <path d="M 45.40625 27.984375 
Q 45.40625 37.75 41.375 43.109375 
Q 37.359375 48.484375 30.078125 48.484375 
Q 22.859375 48.484375 18.828125 43.109375 
Q 14.796875 37.75 14.796875 27.984375 
Q 14.796875 18.265625 18.828125 12.890625 
Q 22.859375 7.515625 30.078125 7.515625 
Q 37.359375 7.515625 41.375 12.890625 
Q 45.40625 18.265625 45.40625 27.984375 
z
M 54.390625 6.78125 
Q 54.390625 -7.171875 48.1875 -13.984375 
Q 42 -20.796875 29.203125 -20.796875 
Q 24.46875 -20.796875 20.265625 -20.09375 
Q 16.0625 -19.390625 12.109375 -17.921875 
L 12.109375 -9.1875 
Q 16.0625 -11.328125 19.921875 -12.34375 
Q 23.78125 -13.375 27.78125 -13.375 
Q 36.625 -13.375 41.015625 -8.765625 
Q 45.40625 -4.15625 45.40625 5.171875 
L 45.40625 9.625 
Q 42.625 4.78125 38.28125 2.390625 
Q 33.9375 0 27.875 0 
Q 17.828125 0 11.671875 7.65625 
Q 5.515625 15.328125 5.515625 27.984375 
Q 5.515625 40.671875 11.671875 48.328125 
Q 17.828125 56 27.875 56 
Q 33.9375 56 38.28125 53.609375 
Q 42.625 51.21875 45.40625 46.390625 
L 45.40625 54.6875 
L 54.390625 54.6875 
z
" id="DejaVuSans-103"/>
     </defs>
     <g transform="translate(355.405938 72.748563)scale(0.1 -0.1)">
      <use xlink:href="#DejaVuSans-103"/>
      <use x="63.476562" xlink:href="#DejaVuSans-108"/>
      <use x="91.259766" xlink:href="#DejaVuSans-117"/>
      <use x="154.638672" xlink:href="#DejaVuSans-111"/>
      <use x="215.820312" xlink:href="#DejaVuSans-110"/>
     </g>
    </g>
    <g id="patch_16">
     <path d="M 327.405938 87.426688 
L 347.405938 87.426688 
L 347.405938 80.426688 
L 327.405938 80.426688 
z
" style="fill:none;stroke:#2ca02c;stroke-linejoin:miter;"/>
    </g>
    <g id="text_18">
     <!-- W -->
     <defs>
      <path d="M 3.328125 72.90625 
L 13.28125 72.90625 
L 28.609375 11.28125 
L 43.890625 72.90625 
L 54.984375 72.90625 
L 70.3125 11.28125 
L 85.59375 72.90625 
L 95.609375 72.90625 
L 77.296875 0 
L 64.890625 0 
L 49.515625 63.28125 
L 33.984375 0 
L 21.578125 0 
z
" id="DejaVuSans-87"/>
     </defs>
     <g transform="translate(355.405938 87.426688)scale(0.1 -0.1)">
      <use xlink:href="#DejaVuSans-87"/>
     </g>
    </g>
    <g id="patch_17">
     <path d="M 327.405938 102.104813 
L 347.405938 102.104813 
L 347.405938 95.104813 
L 327.405938 95.104813 
z
" style="fill:none;stroke:#d62728;stroke-linejoin:miter;"/>
    </g>
    <g id="text_19">
     <!-- Z -->
     <defs>
      <path d="M 5.609375 72.90625 
L 62.890625 72.90625 
L 62.890625 65.375 
L 16.796875 8.296875 
L 64.015625 8.296875 
L 64.015625 0 
L 4.5 0 
L 4.5 7.515625 
L 50.59375 64.59375 
L 5.609375 64.59375 
z
" id="DejaVuSans-90"/>
     </defs>
     <g transform="translate(355.405938 102.104813)scale(0.1 -0.1)">
      <use xlink:href="#DejaVuSans-90"/>
     </g>
    </g>
    <g id="patch_18">
     <path d="M 327.405938 116.782938 
L 347.405938 116.782938 
L 347.405938 109.782938 
L 327.405938 109.782938 
z
" style="fill:none;stroke:#9467bd;stroke-linejoin:miter;"/>
    </g>
    <g id="text_20">
     <!-- top -->
     <g transform="translate(355.405938 116.782938)scale(0.1 -0.1)">
      <use xlink:href="#DejaVuSans-116"/>
      <use x="39.208984" xlink:href="#DejaVuSans-111"/>
      <use x="100.390625" xlink:href="#DejaVuSans-112"/>
     </g>
    </g>
    <g id="patch_19">
     <path d="M 327.405938 131.461063 
L 347.405938 131.461063 
L 347.405938 124.461063 
L 327.405938 124.461063 
z
" style="fill:none;stroke:#000000;stroke-linejoin:miter;"/>
    </g>
    <g id="text_21">
     <!-- undefined -->
     <defs>
      <path d="M 45.40625 46.390625 
L 45.40625 75.984375 
L 54.390625 75.984375 
L 54.390625 0 
L 45.40625 0 
L 45.40625 8.203125 
Q 42.578125 3.328125 38.25 0.953125 
Q 33.9375 -1.421875 27.875 -1.421875 
Q 17.96875 -1.421875 11.734375 6.484375 
Q 5.515625 14.40625 5.515625 27.296875 
Q 5.515625 40.1875 11.734375 48.09375 
Q 17.96875 56 27.875 56 
Q 33.9375 56 38.25 53.625 
Q 42.578125 51.265625 45.40625 46.390625 
z
M 14.796875 27.296875 
Q 14.796875 17.390625 18.875 11.75 
Q 22.953125 6.109375 30.078125 6.109375 
Q 37.203125 6.109375 41.296875 11.75 
Q 45.40625 17.390625 45.40625 27.296875 
Q 45.40625 37.203125 41.296875 42.84375 
Q 37.203125 48.484375 30.078125 48.484375 
Q 22.953125 48.484375 18.875 42.84375 
Q 14.796875 37.203125 14.796875 27.296875 
z
" id="DejaVuSans-100"/>
      <path d="M 37.109375 75.984375 
L 37.109375 68.5 
L 28.515625 68.5 
Q 23.6875 68.5 21.796875 66.546875 
Q 19.921875 64.59375 19.921875 59.515625 
L 19.921875 54.6875 
L 34.71875 54.6875 
L 34.71875 47.703125 
L 19.921875 47.703125 
L 19.921875 0 
L 10.890625 0 
L 10.890625 47.703125 
L 2.296875 47.703125 
L 2.296875 54.6875 
L 10.890625 54.6875 
L 10.890625 58.5 
Q 10.890625 67.625 15.140625 71.796875 
Q 19.390625 75.984375 28.609375 75.984375 
z
" id="DejaVuSans-102"/>
     </defs>
     <g transform="translate(355.405938 131.461063)scale(0.1 -0.1)">
      <use xlink:href="#DejaVuSans-117"/>
      <use x="63.378906" xlink:href="#DejaVuSans-110"/>
      <use x="126.757812" xlink:href="#DejaVuSans-100"/>
      <use x="190.234375" xlink:href="#DejaVuSans-101"/>
      <use x="251.757812" xlink:href="#DejaVuSans-102"/>
      <use x="286.962891" xlink:href="#DejaVuSans-105"/>
      <use x="314.746094" xlink:href="#DejaVuSans-110"/>
      <use x="378.125" xlink:href="#DejaVuSans-101"/>
      <use x="439.648438" xlink:href="#DejaVuSans-100"/>
     </g>
    </g>
   </g>
  </g>
 </g>
 <defs>
  <clipPath id="pca53d7be3b">
   <rect height="266.112" width="357.12" x="57.6" y="41.472"/>
  </clipPath>
 </defs>
</svg>
