<?xml version="1.0" encoding="utf-8" standalone="no"?>
<!DOCTYPE svg PUBLIC "-//W3C//DTD SVG 1.1//EN"
  "http://www.w3.org/Graphics/SVG/1.1/DTD/svg11.dtd">
<!-- Created with matplotlib (https://matplotlib.org/) -->
<svg height="345.6pt" version="1.1" viewBox="0 0 460.8 345.6" width="460.8pt" xmlns="http://www.w3.org/2000/svg" xmlns:xlink="http://www.w3.org/1999/xlink">
 <defs>
  <style type="text/css">
*{stroke-linecap:butt;stroke-linejoin:round;}
  </style>
 </defs>
 <g id="figure_1">
  <g id="patch_1">
   <path d="M 0 345.6 
L 460.8 345.6 
L 460.8 0 
L 0 0 
z
" style="fill:#ffffff;"/>
  </g>
  <g id="axes_1">
   <g id="patch_2">
    <path d="M 57.6 307.584 
L 414.72 307.584 
L 414.72 41.472 
L 57.6 41.472 
z
" style="fill:#ffffff;"/>
   </g>
   <g id="patch_3">
    <path clip-path="url(#pfabee6b68a)" d="M 73.832727 307.584 
L 73.832727 307.456669 
L 77.079273 307.456669 
L 77.079273 307.261428 
L 80.325818 307.261428 
L 80.325818 305.262328 
L 83.572364 305.262328 
L 83.572364 301.162263 
L 86.818909 301.162263 
L 86.818909 291.13281 
L 90.065453 291.13281 
L 90.065453 293.802521 
L 93.312001 293.802521 
L 93.312001 268.463615 
L 96.558546 268.463615 
L 96.558546 244.852159 
L 99.80509 244.852159 
L 99.80509 226.983358 
L 103.051638 226.983358 
L 103.051638 205.354037 
L 106.298183 205.354037 
L 106.298183 246.999821 
L 109.544727 246.999821 
L 109.544727 169.166506 
L 112.791271 169.166506 
L 112.791271 179.756211 
L 116.037819 179.756211 
L 116.037819 165.96202 
L 119.284364 165.96202 
L 119.284364 168.101167 
L 122.530912 168.101167 
L 122.530912 235.684316 
L 125.777453 235.684316 
L 125.777453 163.075834 
L 129.024001 163.075834 
L 129.024001 165.9408 
L 132.270549 165.9408 
L 132.270549 160.376418 
L 135.51709 160.376418 
L 135.51709 171.292933 
L 138.763638 171.292933 
L 138.763638 171.152883 
L 142.010179 171.152883 
L 142.010179 244.911589 
L 145.256727 244.911589 
L 145.256727 184.077006 
L 148.503275 184.077006 
L 148.503275 181.547339 
L 151.749816 181.547339 
L 151.749816 199.072356 
L 154.996364 199.072356 
L 154.996364 197.977317 
L 158.242912 197.977317 
L 158.242912 258.561491 
L 161.489453 258.561491 
L 161.489453 217.87493 
L 164.736001 217.87493 
L 164.736001 221.974995 
L 167.982548 221.974995 
L 167.982548 224.402777 
L 171.22909 224.402777 
L 171.22909 233.804074 
L 174.475637 233.804074 
L 174.475637 271.727536 
L 177.722179 271.727536 
L 177.722179 235.573977 
L 180.968733 235.573977 
L 180.968733 248.25616 
L 184.215274 248.25616 
L 184.215274 250.641491 
L 187.461815 250.641491 
L 187.461815 250.896151 
L 190.70837 250.896151 
L 190.70837 283.41654 
L 193.954911 283.41654 
L 193.954911 267.461941 
L 197.201452 267.461941 
L 197.201452 268.943227 
L 200.447993 268.943227 
L 200.447993 277.279176 
L 203.694548 277.279176 
L 203.694548 271.366766 
L 206.941089 271.366766 
L 206.941089 281.680592 
L 210.18763 281.680592 
L 210.18763 294.035959 
L 213.434185 294.035959 
L 213.434185 280.742586 
L 216.680726 280.742586 
L 216.680726 287.924064 
L 219.927267 287.924064 
L 219.927267 286.328178 
L 223.173822 286.328178 
L 223.173822 289.333197 
L 226.420363 289.333197 
L 226.420363 301.6631 
L 229.666904 301.6631 
L 229.666904 294.350044 
L 232.913459 294.350044 
L 232.913459 294.473133 
L 236.16 294.473133 
L 236.16 297.56728 
L 239.406541 297.56728 
L 239.406541 302.898212 
L 242.653096 302.898212 
L 242.653096 303.687666 
L 245.899637 303.687666 
L 245.899637 300.113903 
L 249.146178 300.113903 
L 249.146178 302.210625 
L 252.392733 302.210625 
L 252.392733 301.658855 
L 255.639274 301.658855 
L 255.639274 300.160591 
L 258.885815 300.160591 
L 258.885815 304.757248 
L 262.13237 304.757248 
L 262.13237 307.10863 
L 265.378911 307.10863 
L 265.378911 303.700399 
L 271.872007 303.624 
L 271.872007 303.05101 
L 275.118548 303.05101 
L 275.118548 305.529723 
L 278.365089 305.529723 
L 278.365089 307.584 
L 281.61163 307.584 
L 281.61163 306.013582 
L 284.858185 306.013582 
L 284.858185 307.053453 
L 288.104726 307.053453 
L 288.104726 306.505929 
L 291.35128 306.505929 
L 291.35128 307.036476 
L 294.597821 307.036476 
L 294.597821 307.584 
L 297.844363 307.584 
L 297.844363 307.019498 
L 301.090904 307.019498 
L 301.090904 306.442264 
L 304.337445 306.442264 
L 304.337445 307.584 
L 307.584013 307.584 
L 307.584013 306.994032 
L 310.830554 306.994032 
L 310.830554 307.584 
L 314.077095 307.584 
L 314.077095 306.985543 
L 317.323636 306.985543 
L 317.323636 307.584 
L 336.80291 307.584 
L 336.80291 306.930367 
L 340.049451 306.930367 
L 340.049451 307.584 
L 398.487273 307.584 
L 398.487273 307.584 
" style="fill:none;stroke:#1f77b4;stroke-linejoin:miter;"/>
   </g>
   <g id="patch_4">
    <path clip-path="url(#pfabee6b68a)" d="M 73.832727 307.584 
L 80.325818 307.584 
L 80.325818 307.435447 
L 86.818909 307.465158 
L 86.818909 306.790302 
L 90.065453 306.790302 
L 90.065453 307.223228 
L 93.312001 307.223228 
L 93.312001 306.718148 
L 96.558546 306.718148 
L 96.558546 304.960977 
L 99.80509 304.960977 
L 99.80509 304.090881 
L 103.051638 304.090881 
L 103.051638 303.093453 
L 106.298183 303.093453 
L 106.298183 304.383743 
L 109.544727 304.383743 
L 109.544727 297.214995 
L 112.791271 297.214995 
L 112.791271 296.913644 
L 116.037819 296.913644 
L 116.037819 288.429142 
L 119.284364 288.429142 
L 119.284364 281.379243 
L 122.530912 281.379243 
L 122.530912 292.431589 
L 125.777453 292.431589 
L 125.777453 272.427862 
L 129.024001 272.427862 
L 129.024001 255.403675 
L 132.270549 255.403675 
L 132.270549 247.82323 
L 135.51709 247.82323 
L 135.51709 232.77692 
L 138.763638 232.77692 
L 138.763638 220.145677 
L 142.010179 220.145677 
L 142.010179 252.330749 
L 145.256727 252.330749 
L 145.256727 189.819638 
L 148.503275 189.819638 
L 148.503275 177.693475 
L 151.749816 177.693475 
L 151.749816 159.362009 
L 154.996364 159.362009 
L 154.996364 161.624266 
L 158.242912 161.624266 
L 158.242912 227.047023 
L 161.489453 227.047023 
L 161.489453 133.416123 
L 164.736001 133.416123 
L 164.736001 132.274415 
L 167.982548 132.274415 
L 167.982548 122.533598 
L 171.22909 122.533598 
L 171.22909 109.151066 
L 174.475637 109.151066 
L 174.475637 207.077245 
L 177.722179 207.077245 
L 177.722179 107.695238 
L 180.968733 107.695238 
L 180.968733 90.225422 
L 184.215274 90.225422 
L 184.215274 99.134339 
L 187.461815 99.134339 
L 187.461815 111.209593 
L 190.70837 111.209593 
L 190.70837 215.251904 
L 193.954911 215.251904 
L 193.954911 97.084312 
L 197.201452 97.084312 
L 197.201452 114.384369 
L 200.447993 114.384369 
L 200.447993 116.718806 
L 203.694548 116.718806 
L 203.694548 121.735639 
L 206.941089 121.735639 
L 206.941089 144.10775 
L 210.18763 144.10775 
L 210.18763 227.008833 
L 213.434185 227.008833 
L 213.434185 126.149773 
L 216.680726 126.149773 
L 216.680726 154.183856 
L 219.927267 154.183856 
L 219.927267 165.104631 
L 223.173822 165.104631 
L 223.173822 173.63161 
L 226.420363 173.63161 
L 226.420363 225.086121 
L 229.666904 225.086121 
L 229.666904 180.490511 
L 232.913459 180.490511 
L 232.913459 194.178592 
L 236.16 194.178592 
L 236.16 195.142061 
L 239.406541 195.142061 
L 239.406541 218.834159 
L 242.653096 218.834159 
L 242.653096 264.724323 
L 245.899637 264.724323 
L 245.899637 211.427739 
L 249.146178 211.427739 
L 249.146178 220.756867 
L 252.392733 220.756867 
L 252.392733 237.776794 
L 255.639274 237.776794 
L 255.639274 240.20034 
L 258.885815 240.20034 
L 258.885815 277.431978 
L 262.13237 277.431978 
L 262.13237 237.870174 
L 265.378911 237.870174 
L 265.378911 256.545413 
L 268.625452 256.545413 
L 268.625452 261.608952 
L 271.872007 261.608952 
L 271.872007 266.884705 
L 275.118548 266.884705 
L 275.118548 266.184393 
L 278.365089 266.184393 
L 278.365089 288.424901 
L 281.61163 288.424901 
L 281.61163 269.864258 
L 284.858185 269.864258 
L 284.858185 283.09397 
L 288.104726 283.09397 
L 288.104726 286.489466 
L 291.35128 286.489466 
L 291.35128 280.670431 
L 294.597821 280.670431 
L 294.597821 299.243806 
L 297.844363 299.243806 
L 297.844363 294.120849 
L 301.090904 294.120849 
L 301.090904 291.586959 
L 304.337445 291.586959 
L 304.337445 292.516476 
L 307.584013 292.516476 
L 307.584013 296.412809 
L 310.830554 296.412809 
L 310.830554 298.076603 
L 314.077095 298.076603 
L 314.077095 296.773581 
L 317.323636 296.773581 
L 317.323636 302.711459 
L 320.570177 302.711459 
L 320.570177 303.267472 
L 323.816719 303.267472 
L 323.816719 305.707987 
L 330.309828 305.686765 
L 330.309828 301.200463 
L 333.556369 301.200463 
L 333.556369 297.236218 
L 336.80291 297.236218 
L 336.80291 302.342199 
L 340.049451 302.342199 
L 340.049451 302.9449 
L 343.295992 302.9449 
L 343.295992 306.242778 
L 346.542533 306.242778 
L 346.542533 307.584 
L 349.789102 307.584 
L 349.789102 303.475447 
L 353.035643 303.475447 
L 353.035643 306.191845 
L 359.528725 306.183357 
L 359.528725 306.870945 
L 362.775266 306.870945 
L 362.775266 307.584 
L 366.021807 307.584 
L 366.021807 306.140913 
L 372.514917 306.119691 
L 372.514917 307.584 
L 375.761458 307.584 
L 375.761458 306.085736 
L 379.007999 306.085736 
L 379.007999 307.584 
L 395.240732 307.584 
L 395.240732 306.786058 
L 398.487273 306.786058 
L 398.487273 307.584 
L 398.487273 307.584 
" style="fill:none;stroke:#ff7f0e;stroke-linejoin:miter;"/>
   </g>
   <g id="patch_5">
    <path clip-path="url(#pfabee6b68a)" d="M 73.832727 307.584 
L 80.325818 307.584 
L 80.325818 307.185029 
L 83.572364 307.185029 
L 83.572364 306.548373 
L 86.818909 306.548373 
L 86.818909 304.825157 
L 90.065453 304.825157 
L 90.065453 304.481363 
L 93.312001 304.481363 
L 93.312001 297.142843 
L 96.558546 297.142843 
L 96.558546 281.888567 
L 99.80509 281.888567 
L 99.80509 270.051005 
L 103.051638 270.051005 
L 103.051638 242.857317 
L 106.298183 242.857317 
L 106.298183 265.097827 
L 109.544727 265.097827 
L 109.544727 200.044324 
L 112.791271 200.044324 
L 112.791271 163.275324 
L 116.037819 163.275324 
L 116.037819 126.726992 
L 119.284364 126.726992 
L 119.284364 107.470309 
L 122.530912 107.470309 
L 122.530912 200.625804 
L 125.777453 200.625804 
L 125.777453 84.754419 
L 129.024001 84.754419 
L 129.024001 83.328321 
L 132.270549 83.328321 
L 132.270549 79.767276 
L 135.51709 79.767276 
L 135.51709 91.29925 
L 138.763638 91.29925 
L 138.763638 98.60804 
L 142.010179 98.60804 
L 142.010179 197.272748 
L 145.256727 197.272748 
L 145.256727 125.194825 
L 148.503275 125.194825 
L 148.503275 140.682514 
L 151.749816 140.682514 
L 151.749816 161.827996 
L 154.996364 161.827996 
L 154.996364 179.013452 
L 158.242912 179.013452 
L 158.242912 255.526765 
L 161.489453 255.526765 
L 161.489453 192.540264 
L 164.736001 192.540264 
L 164.736001 210.273261 
L 167.982548 210.273261 
L 167.982548 232.662325 
L 171.22909 232.662325 
L 171.22909 245.777443 
L 174.475637 245.777443 
L 174.475637 277.975255 
L 177.722179 277.975255 
L 177.722179 263.939109 
L 180.968733 263.939109 
L 180.968733 278.955706 
L 184.215274 278.955706 
L 184.215274 279.566893 
L 187.461815 279.566893 
L 187.461815 287.563292 
L 190.70837 287.563292 
L 190.70837 297.978985 
L 193.954911 297.978985 
L 193.954911 287.682134 
L 197.201452 287.682134 
L 197.201452 295.890753 
L 200.447993 295.890753 
L 200.447993 298.581685 
L 203.694548 298.581685 
L 203.694548 303.135897 
L 206.941089 303.135897 
L 206.941089 305.478791 
L 210.18763 305.478791 
L 210.18763 305.088309 
L 213.434185 305.088309 
L 213.434185 302.872746 
L 216.680726 302.872746 
L 216.680726 303.496669 
L 219.927267 303.496669 
L 219.927267 306.820013 
L 223.173822 306.820013 
L 223.173822 306.416797 
L 226.420363 306.416797 
L 226.420363 306.005093 
L 229.666904 306.005093 
L 229.666904 306.382842 
L 232.913459 306.382842 
L 232.913459 307.17654 
L 236.16 307.17654 
L 236.16 306.752103 
L 239.406541 306.752103 
L 239.406541 307.155318 
L 242.653096 307.155318 
L 242.653096 307.584 
L 249.146178 307.584 
L 249.146178 307.134097 
L 252.392733 307.134097 
L 252.392733 307.584 
L 255.639274 307.584 
L 255.639274 307.121363 
L 258.885815 307.121363 
L 258.885815 307.584 
L 262.13237 307.584 
L 262.13237 307.10863 
L 265.378911 307.10863 
L 265.378911 307.584 
L 398.487273 307.584 
L 398.487273 307.584 
" style="fill:none;stroke:#2ca02c;stroke-linejoin:miter;"/>
   </g>
   <g id="patch_6">
    <path clip-path="url(#pfabee6b68a)" d="M 73.832727 307.584 
L 80.325818 307.503357 
L 80.325818 307.384514 
L 83.572364 307.384514 
L 83.572364 306.544129 
L 86.818909 306.544129 
L 86.818909 304.761492 
L 90.065453 304.761492 
L 90.065453 305.130752 
L 93.312001 305.130752 
L 93.312001 299.676732 
L 96.558546 299.676732 
L 96.558546 289.108245 
L 99.80509 289.108245 
L 99.80509 274.117117 
L 103.051638 274.117117 
L 103.051638 251.71107 
L 106.298183 251.71107 
L 106.298183 270.505157 
L 109.544727 270.505157 
L 109.544727 211.147599 
L 112.791271 211.147599 
L 112.791271 178.822453 
L 116.037819 178.822453 
L 116.037819 148.738333 
L 119.284364 148.738333 
L 119.284364 133.950963 
L 122.530912 133.950963 
L 122.530912 210.133201 
L 125.777453 210.133201 
L 125.777453 89.499633 
L 129.024001 89.499633 
L 129.024001 97.037643 
L 132.270549 97.037643 
L 132.270549 78.472747 
L 135.51709 78.472747 
L 135.51709 82.050753 
L 138.763638 82.050753 
L 138.763638 89.321373 
L 142.010179 89.321373 
L 142.010179 206.839565 
L 145.256727 206.839565 
L 145.256727 113.5143 
L 148.503275 113.5143 
L 148.503275 130.937447 
L 151.749816 130.937447 
L 151.749816 149.400472 
L 154.996364 149.400472 
L 154.996364 158.68715 
L 158.242912 158.68715 
L 158.242912 233.349915 
L 161.489453 233.349915 
L 161.489453 187.256031 
L 164.736001 187.256031 
L 164.736001 197.336418 
L 167.982548 197.336418 
L 167.982548 219.029409 
L 171.22909 219.029409 
L 171.22909 224.143882 
L 174.475637 224.143882 
L 174.475637 275.530496 
L 177.722179 275.530496 
L 177.722179 247.237506 
L 180.968733 247.237506 
L 180.968733 253.455508 
L 184.215274 253.455508 
L 184.215274 260.085224 
L 187.461815 260.085224 
L 187.461815 267.538341 
L 190.70837 267.538341 
L 190.70837 290.542843 
L 193.954911 290.542843 
L 193.954911 281.990432 
L 197.201452 281.990432 
L 197.201452 284.876608 
L 200.447993 284.876608 
L 200.447993 296.238793 
L 203.694548 296.238793 
L 203.694548 295.975641 
L 206.941089 295.975641 
L 206.941089 297.09191 
L 210.18763 297.09191 
L 210.18763 301.879563 
L 213.434185 301.879563 
L 213.434185 300.691138 
L 216.680726 300.691138 
L 216.680726 300.899111 
L 219.927267 300.899111 
L 219.927267 304.545029 
L 223.173822 304.545029 
L 223.173822 303.696154 
L 226.420363 303.696154 
L 226.420363 306.794547 
L 229.666904 306.794547 
L 229.666904 304.765737 
L 232.913459 304.765737 
L 232.913459 307.172296 
L 236.16 307.172296 
L 236.16 305.920206 
L 239.406541 305.920206 
L 239.406541 307.155318 
L 249.146178 307.142585 
L 249.146178 307.584 
L 252.392733 307.584 
L 252.392733 307.129852 
L 258.885815 307.121363 
L 258.885815 307.584 
L 268.625452 307.584 
L 268.625452 306.595061 
L 271.872007 306.595061 
L 271.872007 307.584 
L 281.61163 307.584 
L 281.61163 307.061942 
L 288.104726 307.049209 
L 288.104726 307.584 
L 398.487273 307.584 
L 398.487273 307.584 
" style="fill:none;stroke:#d62728;stroke-linejoin:miter;"/>
   </g>
   <g id="patch_7">
    <path clip-path="url(#pfabee6b68a)" d="M 73.832727 307.584 
L 93.312001 307.584 
L 93.312001 307.100141 
L 99.80509 307.155318 
L 99.80509 305.941428 
L 103.051638 305.941428 
L 103.051638 304.133325 
L 106.298183 304.133325 
L 106.298183 305.707987 
L 109.544727 305.707987 
L 109.544727 301.501813 
L 112.791271 301.501813 
L 112.791271 297.533323 
L 116.037819 297.533323 
L 116.037819 291.693065 
L 119.284364 291.693065 
L 119.284364 283.845224 
L 122.530912 283.845224 
L 122.530912 290.054739 
L 125.777453 290.054739 
L 125.777453 267.253974 
L 129.024001 267.253974 
L 129.024001 266.867732 
L 132.270549 266.867732 
L 132.270549 249.792628 
L 135.51709 249.792628 
L 135.51709 232.250621 
L 138.763638 232.250621 
L 138.763638 218.948769 
L 142.010179 218.948769 
L 142.010179 257.211788 
L 145.256727 257.211788 
L 145.256727 185.507344 
L 148.503275 185.507344 
L 148.503275 166.806629 
L 151.749816 166.806629 
L 151.749816 137.074799 
L 154.996364 137.074799 
L 154.996364 120.182181 
L 158.242912 120.182181 
L 158.242912 213.507466 
L 161.489453 213.507466 
L 161.489453 98.442551 
L 164.736001 98.442551 
L 164.736001 84.440339 
L 167.982548 84.440339 
L 167.982548 74.860782 
L 171.22909 74.860782 
L 171.22909 60.345022 
L 174.475637 60.345022 
L 174.475637 191.593765 
L 177.722179 191.593765 
L 177.722179 59.644672 
L 180.968733 59.644672 
L 180.968733 65.179325 
L 184.215274 65.179325 
L 184.215274 54.144 
L 187.461815 54.144 
L 187.461815 68.473021 
L 190.70837 68.473021 
L 190.70837 185.817193 
L 193.954911 185.817193 
L 193.954911 108.387107 
L 197.201452 108.387107 
L 197.201452 93.943497 
L 200.447993 93.943497 
L 200.447993 98.7778 
L 203.694548 98.7778 
L 203.694548 104.707242 
L 206.941089 104.707242 
L 206.941089 134.243792 
L 210.18763 134.243792 
L 210.18763 233.069785 
L 213.434185 233.069785 
L 213.434185 152.604958 
L 216.680726 152.604958 
L 216.680726 161.709136 
L 219.927267 161.709136 
L 219.927267 180.337691 
L 223.173822 180.337691 
L 223.173822 202.739511 
L 226.420363 202.739511 
L 226.420363 256.664263 
L 229.666904 256.664263 
L 229.666904 216.155963 
L 232.913459 216.155963 
L 232.913459 221.580265 
L 236.16 221.580265 
L 236.16 236.52046 
L 239.406541 236.52046 
L 239.406541 250.043032 
L 242.653096 250.043032 
L 242.653096 274.681619 
L 245.899637 274.681619 
L 245.899637 256.600593 
L 249.146178 256.600593 
L 249.146178 264.580013 
L 252.392733 264.580013 
L 252.392733 268.837119 
L 255.639274 268.837119 
L 255.639274 275.988885 
L 258.885815 275.988885 
L 258.885815 293.450238 
L 262.13237 293.450238 
L 262.13237 281.298598 
L 265.378911 281.298598 
L 265.378911 280.844448 
L 268.625452 280.844448 
L 268.625452 295.729465 
L 271.872007 295.729465 
L 271.872007 291.476604 
L 275.118548 291.476604 
L 275.118548 300.432231 
L 278.365089 300.432231 
L 278.365089 302.405864 
L 281.61163 302.405864 
L 281.61163 298.165735 
L 284.858185 298.165735 
L 284.858185 300.661427 
L 288.104726 300.661427 
L 288.104726 304.332811 
L 291.35128 304.332811 
L 291.35128 299.901684 
L 294.597821 299.901684 
L 294.597821 304.803936 
L 297.844363 304.803936 
L 297.844363 305.330238 
L 301.090904 305.330238 
L 301.090904 304.731781 
L 304.337445 304.731781 
L 304.337445 305.843807 
L 307.584013 305.843807 
L 307.584013 304.056926 
L 310.830554 304.056926 
L 310.830554 306.395575 
L 314.077095 306.395575 
L 314.077095 305.784386 
L 323.816719 305.729209 
L 323.816719 306.327666 
L 327.06326 306.327666 
L 327.06326 306.951588 
L 330.309828 306.951588 
L 330.309828 307.584 
L 343.295992 307.584 
L 343.295992 306.913389 
L 346.542533 306.913389 
L 346.542533 307.584 
L 349.789102 307.584 
L 349.789102 306.896411 
L 353.035643 306.896411 
L 353.035643 307.584 
L 359.528725 307.584 
L 359.528725 306.870945 
L 362.775266 306.870945 
L 362.775266 307.584 
L 398.487273 307.584 
L 398.487273 307.584 
" style="fill:none;stroke:#9467bd;stroke-linejoin:miter;"/>
   </g>
   <g id="patch_8">
    <path clip-path="url(#pfabee6b68a)" d="M 73.832727 307.584 
L 398.487273 307.584 
L 398.487273 307.584 
" style="fill:none;stroke:#000000;stroke-linejoin:miter;"/>
   </g>
   <g id="matplotlib.axis_1">
    <g id="xtick_1">
     <g id="line2d_1">
      <defs>
       <path d="M 0 0 
L 0 3.5 
" id="m449b5407e3" style="stroke:#000000;stroke-width:0.8;"/>
      </defs>
      <g>
       <use style="stroke:#000000;stroke-width:0.8;" x="61.277027" xlink:href="#m449b5407e3" y="307.584"/>
      </g>
     </g>
     <g id="text_1">
      <!-- 0 -->
      <defs>
       <path d="M 31.78125 66.40625 
Q 24.171875 66.40625 20.328125 58.90625 
Q 16.5 51.421875 16.5 36.375 
Q 16.5 21.390625 20.328125 13.890625 
Q 24.171875 6.390625 31.78125 6.390625 
Q 39.453125 6.390625 43.28125 13.890625 
Q 47.125 21.390625 47.125 36.375 
Q 47.125 51.421875 43.28125 58.90625 
Q 39.453125 66.40625 31.78125 66.40625 
z
M 31.78125 74.21875 
Q 44.046875 74.21875 50.515625 64.515625 
Q 56.984375 54.828125 56.984375 36.375 
Q 56.984375 17.96875 50.515625 8.265625 
Q 44.046875 -1.421875 31.78125 -1.421875 
Q 19.53125 -1.421875 13.0625 8.265625 
Q 6.59375 17.96875 6.59375 36.375 
Q 6.59375 54.828125 13.0625 64.515625 
Q 19.53125 74.21875 31.78125 74.21875 
z
" id="DejaVuSans-48"/>
      </defs>
      <g transform="translate(58.095777 322.182437)scale(0.1 -0.1)">
       <use xlink:href="#DejaVuSans-48"/>
      </g>
     </g>
    </g>
    <g id="xtick_2">
     <g id="line2d_2">
      <g>
       <use style="stroke:#000000;stroke-width:0.8;" x="106.118815" xlink:href="#m449b5407e3" y="307.584"/>
      </g>
     </g>
     <g id="text_2">
      <!-- 25 -->
      <defs>
       <path d="M 19.1875 8.296875 
L 53.609375 8.296875 
L 53.609375 0 
L 7.328125 0 
L 7.328125 8.296875 
Q 12.9375 14.109375 22.625 23.890625 
Q 32.328125 33.6875 34.8125 36.53125 
Q 39.546875 41.84375 41.421875 45.53125 
Q 43.3125 49.21875 43.3125 52.78125 
Q 43.3125 58.59375 39.234375 62.25 
Q 35.15625 65.921875 28.609375 65.921875 
Q 23.96875 65.921875 18.8125 64.3125 
Q 13.671875 62.703125 7.8125 59.421875 
L 7.8125 69.390625 
Q 13.765625 71.78125 18.9375 73 
Q 24.125 74.21875 28.421875 74.21875 
Q 39.75 74.21875 46.484375 68.546875 
Q 53.21875 62.890625 53.21875 53.421875 
Q 53.21875 48.921875 51.53125 44.890625 
Q 49.859375 40.875 45.40625 35.40625 
Q 44.1875 33.984375 37.640625 27.21875 
Q 31.109375 20.453125 19.1875 8.296875 
z
" id="DejaVuSans-50"/>
       <path d="M 10.796875 72.90625 
L 49.515625 72.90625 
L 49.515625 64.59375 
L 19.828125 64.59375 
L 19.828125 46.734375 
Q 21.96875 47.46875 24.109375 47.828125 
Q 26.265625 48.1875 28.421875 48.1875 
Q 40.625 48.1875 47.75 41.5 
Q 54.890625 34.8125 54.890625 23.390625 
Q 54.890625 11.625 47.5625 5.09375 
Q 40.234375 -1.421875 26.90625 -1.421875 
Q 22.3125 -1.421875 17.546875 -0.640625 
Q 12.796875 0.140625 7.71875 1.703125 
L 7.71875 11.625 
Q 12.109375 9.234375 16.796875 8.0625 
Q 21.484375 6.890625 26.703125 6.890625 
Q 35.15625 6.890625 40.078125 11.328125 
Q 45.015625 15.765625 45.015625 23.390625 
Q 45.015625 31 40.078125 35.4375 
Q 35.15625 39.890625 26.703125 39.890625 
Q 22.75 39.890625 18.8125 39.015625 
Q 14.890625 38.140625 10.796875 36.28125 
z
" id="DejaVuSans-53"/>
      </defs>
      <g transform="translate(99.756315 322.182437)scale(0.1 -0.1)">
       <use xlink:href="#DejaVuSans-50"/>
       <use x="63.623047" xlink:href="#DejaVuSans-53"/>
      </g>
     </g>
    </g>
    <g id="xtick_3">
     <g id="line2d_3">
      <g>
       <use style="stroke:#000000;stroke-width:0.8;" x="150.960603" xlink:href="#m449b5407e3" y="307.584"/>
      </g>
     </g>
     <g id="text_3">
      <!-- 50 -->
      <g transform="translate(144.598103 322.182437)scale(0.1 -0.1)">
       <use xlink:href="#DejaVuSans-53"/>
       <use x="63.623047" xlink:href="#DejaVuSans-48"/>
      </g>
     </g>
    </g>
    <g id="xtick_4">
     <g id="line2d_4">
      <g>
       <use style="stroke:#000000;stroke-width:0.8;" x="195.802391" xlink:href="#m449b5407e3" y="307.584"/>
      </g>
     </g>
     <g id="text_4">
      <!-- 75 -->
      <defs>
       <path d="M 8.203125 72.90625 
L 55.078125 72.90625 
L 55.078125 68.703125 
L 28.609375 0 
L 18.3125 0 
L 43.21875 64.59375 
L 8.203125 64.59375 
z
" id="DejaVuSans-55"/>
      </defs>
      <g transform="translate(189.439891 322.182437)scale(0.1 -0.1)">
       <use xlink:href="#DejaVuSans-55"/>
       <use x="63.623047" xlink:href="#DejaVuSans-53"/>
      </g>
     </g>
    </g>
    <g id="xtick_5">
     <g id="line2d_5">
      <g>
       <use style="stroke:#000000;stroke-width:0.8;" x="240.644179" xlink:href="#m449b5407e3" y="307.584"/>
      </g>
     </g>
     <g id="text_5">
      <!-- 100 -->
      <defs>
       <path d="M 12.40625 8.296875 
L 28.515625 8.296875 
L 28.515625 63.921875 
L 10.984375 60.40625 
L 10.984375 69.390625 
L 28.421875 72.90625 
L 38.28125 72.90625 
L 38.28125 8.296875 
L 54.390625 8.296875 
L 54.390625 0 
L 12.40625 0 
z
" id="DejaVuSans-49"/>
      </defs>
      <g transform="translate(231.100429 322.182437)scale(0.1 -0.1)">
       <use xlink:href="#DejaVuSans-49"/>
       <use x="63.623047" xlink:href="#DejaVuSans-48"/>
       <use x="127.246094" xlink:href="#DejaVuSans-48"/>
      </g>
     </g>
    </g>
    <g id="xtick_6">
     <g id="line2d_6">
      <g>
       <use style="stroke:#000000;stroke-width:0.8;" x="285.485967" xlink:href="#m449b5407e3" y="307.584"/>
      </g>
     </g>
     <g id="text_6">
      <!-- 125 -->
      <g transform="translate(275.942217 322.182437)scale(0.1 -0.1)">
       <use xlink:href="#DejaVuSans-49"/>
       <use x="63.623047" xlink:href="#DejaVuSans-50"/>
       <use x="127.246094" xlink:href="#DejaVuSans-53"/>
      </g>
     </g>
    </g>
    <g id="xtick_7">
     <g id="line2d_7">
      <g>
       <use style="stroke:#000000;stroke-width:0.8;" x="330.327755" xlink:href="#m449b5407e3" y="307.584"/>
      </g>
     </g>
     <g id="text_7">
      <!-- 150 -->
      <g transform="translate(320.784005 322.182437)scale(0.1 -0.1)">
       <use xlink:href="#DejaVuSans-49"/>
       <use x="63.623047" xlink:href="#DejaVuSans-53"/>
       <use x="127.246094" xlink:href="#DejaVuSans-48"/>
      </g>
     </g>
    </g>
    <g id="xtick_8">
     <g id="line2d_8">
      <g>
       <use style="stroke:#000000;stroke-width:0.8;" x="375.169543" xlink:href="#m449b5407e3" y="307.584"/>
      </g>
     </g>
     <g id="text_8">
      <!-- 175 -->
      <g transform="translate(365.625793 322.182437)scale(0.1 -0.1)">
       <use xlink:href="#DejaVuSans-49"/>
       <use x="63.623047" xlink:href="#DejaVuSans-55"/>
       <use x="127.246094" xlink:href="#DejaVuSans-53"/>
      </g>
     </g>
    </g>
    <g id="text_9">
     <!-- j_multiplicity -->
     <defs>
      <path d="M 9.421875 54.6875 
L 18.40625 54.6875 
L 18.40625 -0.984375 
Q 18.40625 -11.421875 14.421875 -16.109375 
Q 10.453125 -20.796875 1.609375 -20.796875 
L -1.8125 -20.796875 
L -1.8125 -13.1875 
L 0.59375 -13.1875 
Q 5.71875 -13.1875 7.5625 -10.8125 
Q 9.421875 -8.453125 9.421875 -0.984375 
z
M 9.421875 75.984375 
L 18.40625 75.984375 
L 18.40625 64.59375 
L 9.421875 64.59375 
z
" id="DejaVuSans-106"/>
      <path d="M 50.984375 -16.609375 
L 50.984375 -23.578125 
L -0.984375 -23.578125 
L -0.984375 -16.609375 
z
" id="DejaVuSans-95"/>
      <path d="M 52 44.1875 
Q 55.375 50.25 60.0625 53.125 
Q 64.75 56 71.09375 56 
Q 79.640625 56 84.28125 50.015625 
Q 88.921875 44.046875 88.921875 33.015625 
L 88.921875 0 
L 79.890625 0 
L 79.890625 32.71875 
Q 79.890625 40.578125 77.09375 44.375 
Q 74.3125 48.1875 68.609375 48.1875 
Q 61.625 48.1875 57.5625 43.546875 
Q 53.515625 38.921875 53.515625 30.90625 
L 53.515625 0 
L 44.484375 0 
L 44.484375 32.71875 
Q 44.484375 40.625 41.703125 44.40625 
Q 38.921875 48.1875 33.109375 48.1875 
Q 26.21875 48.1875 22.15625 43.53125 
Q 18.109375 38.875 18.109375 30.90625 
L 18.109375 0 
L 9.078125 0 
L 9.078125 54.6875 
L 18.109375 54.6875 
L 18.109375 46.1875 
Q 21.1875 51.21875 25.484375 53.609375 
Q 29.78125 56 35.6875 56 
Q 41.65625 56 45.828125 52.96875 
Q 50 49.953125 52 44.1875 
z
" id="DejaVuSans-109"/>
      <path d="M 8.5 21.578125 
L 8.5 54.6875 
L 17.484375 54.6875 
L 17.484375 21.921875 
Q 17.484375 14.15625 20.5 10.265625 
Q 23.53125 6.390625 29.59375 6.390625 
Q 36.859375 6.390625 41.078125 11.03125 
Q 45.3125 15.671875 45.3125 23.6875 
L 45.3125 54.6875 
L 54.296875 54.6875 
L 54.296875 0 
L 45.3125 0 
L 45.3125 8.40625 
Q 42.046875 3.421875 37.71875 1 
Q 33.40625 -1.421875 27.6875 -1.421875 
Q 18.265625 -1.421875 13.375 4.4375 
Q 8.5 10.296875 8.5 21.578125 
z
M 31.109375 56 
z
" id="DejaVuSans-117"/>
      <path d="M 9.421875 75.984375 
L 18.40625 75.984375 
L 18.40625 0 
L 9.421875 0 
z
" id="DejaVuSans-108"/>
      <path d="M 18.3125 70.21875 
L 18.3125 54.6875 
L 36.8125 54.6875 
L 36.8125 47.703125 
L 18.3125 47.703125 
L 18.3125 18.015625 
Q 18.3125 11.328125 20.140625 9.421875 
Q 21.96875 7.515625 27.59375 7.515625 
L 36.8125 7.515625 
L 36.8125 0 
L 27.59375 0 
Q 17.1875 0 13.234375 3.875 
Q 9.28125 7.765625 9.28125 18.015625 
L 9.28125 47.703125 
L 2.6875 47.703125 
L 2.6875 54.6875 
L 9.28125 54.6875 
L 9.28125 70.21875 
z
" id="DejaVuSans-116"/>
      <path d="M 9.421875 54.6875 
L 18.40625 54.6875 
L 18.40625 0 
L 9.421875 0 
z
M 9.421875 75.984375 
L 18.40625 75.984375 
L 18.40625 64.59375 
L 9.421875 64.59375 
z
" id="DejaVuSans-105"/>
      <path d="M 18.109375 8.203125 
L 18.109375 -20.796875 
L 9.078125 -20.796875 
L 9.078125 54.6875 
L 18.109375 54.6875 
L 18.109375 46.390625 
Q 20.953125 51.265625 25.265625 53.625 
Q 29.59375 56 35.59375 56 
Q 45.5625 56 51.78125 48.09375 
Q 58.015625 40.1875 58.015625 27.296875 
Q 58.015625 14.40625 51.78125 6.484375 
Q 45.5625 -1.421875 35.59375 -1.421875 
Q 29.59375 -1.421875 25.265625 0.953125 
Q 20.953125 3.328125 18.109375 8.203125 
z
M 48.6875 27.296875 
Q 48.6875 37.203125 44.609375 42.84375 
Q 40.53125 48.484375 33.40625 48.484375 
Q 26.265625 48.484375 22.1875 42.84375 
Q 18.109375 37.203125 18.109375 27.296875 
Q 18.109375 17.390625 22.1875 11.75 
Q 26.265625 6.109375 33.40625 6.109375 
Q 40.53125 6.109375 44.609375 11.75 
Q 48.6875 17.390625 48.6875 27.296875 
z
" id="DejaVuSans-112"/>
      <path d="M 48.78125 52.59375 
L 48.78125 44.1875 
Q 44.96875 46.296875 41.140625 47.34375 
Q 37.3125 48.390625 33.40625 48.390625 
Q 24.65625 48.390625 19.8125 42.84375 
Q 14.984375 37.3125 14.984375 27.296875 
Q 14.984375 17.28125 19.8125 11.734375 
Q 24.65625 6.203125 33.40625 6.203125 
Q 37.3125 6.203125 41.140625 7.25 
Q 44.96875 8.296875 48.78125 10.40625 
L 48.78125 2.09375 
Q 45.015625 0.34375 40.984375 -0.53125 
Q 36.96875 -1.421875 32.421875 -1.421875 
Q 20.0625 -1.421875 12.78125 6.34375 
Q 5.515625 14.109375 5.515625 27.296875 
Q 5.515625 40.671875 12.859375 48.328125 
Q 20.21875 56 33.015625 56 
Q 37.15625 56 41.109375 55.140625 
Q 45.0625 54.296875 48.78125 52.59375 
z
" id="DejaVuSans-99"/>
      <path d="M 32.171875 -5.078125 
Q 28.375 -14.84375 24.75 -17.8125 
Q 21.140625 -20.796875 15.09375 -20.796875 
L 7.90625 -20.796875 
L 7.90625 -13.28125 
L 13.1875 -13.28125 
Q 16.890625 -13.28125 18.9375 -11.515625 
Q 21 -9.765625 23.484375 -3.21875 
L 25.09375 0.875 
L 2.984375 54.6875 
L 12.5 54.6875 
L 29.59375 11.921875 
L 46.6875 54.6875 
L 56.203125 54.6875 
z
" id="DejaVuSans-121"/>
     </defs>
     <g transform="translate(204.483437 335.860562)scale(0.1 -0.1)">
      <use xlink:href="#DejaVuSans-106"/>
      <use x="27.783203" xlink:href="#DejaVuSans-95"/>
      <use x="77.783203" xlink:href="#DejaVuSans-109"/>
      <use x="175.195312" xlink:href="#DejaVuSans-117"/>
      <use x="238.574219" xlink:href="#DejaVuSans-108"/>
      <use x="266.357422" xlink:href="#DejaVuSans-116"/>
      <use x="305.566406" xlink:href="#DejaVuSans-105"/>
      <use x="333.349609" xlink:href="#DejaVuSans-112"/>
      <use x="396.826172" xlink:href="#DejaVuSans-108"/>
      <use x="424.609375" xlink:href="#DejaVuSans-105"/>
      <use x="452.392578" xlink:href="#DejaVuSans-99"/>
      <use x="507.373047" xlink:href="#DejaVuSans-105"/>
      <use x="535.15625" xlink:href="#DejaVuSans-116"/>
      <use x="574.365234" xlink:href="#DejaVuSans-121"/>
     </g>
    </g>
   </g>
   <g id="matplotlib.axis_2">
    <g id="ytick_1">
     <g id="line2d_9">
      <defs>
       <path d="M 0 0 
L -3.5 0 
" id="m45d6892f63" style="stroke:#000000;stroke-width:0.8;"/>
      </defs>
      <g>
       <use style="stroke:#000000;stroke-width:0.8;" x="57.6" xlink:href="#m45d6892f63" y="307.584"/>
      </g>
     </g>
     <g id="text_10">
      <!-- 0.000 -->
      <defs>
       <path d="M 10.6875 12.40625 
L 21 12.40625 
L 21 0 
L 10.6875 0 
z
" id="DejaVuSans-46"/>
      </defs>
      <g transform="translate(21.971875 311.383219)scale(0.1 -0.1)">
       <use xlink:href="#DejaVuSans-48"/>
       <use x="63.623047" xlink:href="#DejaVuSans-46"/>
       <use x="95.410156" xlink:href="#DejaVuSans-48"/>
       <use x="159.033203" xlink:href="#DejaVuSans-48"/>
       <use x="222.65625" xlink:href="#DejaVuSans-48"/>
      </g>
     </g>
    </g>
    <g id="ytick_2">
     <g id="line2d_10">
      <g>
       <use style="stroke:#000000;stroke-width:0.8;" x="57.6" xlink:href="#m45d6892f63" y="264.122394"/>
      </g>
     </g>
     <g id="text_11">
      <!-- 0.002 -->
      <g transform="translate(21.971875 267.921613)scale(0.1 -0.1)">
       <use xlink:href="#DejaVuSans-48"/>
       <use x="63.623047" xlink:href="#DejaVuSans-46"/>
       <use x="95.410156" xlink:href="#DejaVuSans-48"/>
       <use x="159.033203" xlink:href="#DejaVuSans-48"/>
       <use x="222.65625" xlink:href="#DejaVuSans-50"/>
      </g>
     </g>
    </g>
    <g id="ytick_3">
     <g id="line2d_11">
      <g>
       <use style="stroke:#000000;stroke-width:0.8;" x="57.6" xlink:href="#m45d6892f63" y="220.660789"/>
      </g>
     </g>
     <g id="text_12">
      <!-- 0.004 -->
      <defs>
       <path d="M 37.796875 64.3125 
L 12.890625 25.390625 
L 37.796875 25.390625 
z
M 35.203125 72.90625 
L 47.609375 72.90625 
L 47.609375 25.390625 
L 58.015625 25.390625 
L 58.015625 17.1875 
L 47.609375 17.1875 
L 47.609375 0 
L 37.796875 0 
L 37.796875 17.1875 
L 4.890625 17.1875 
L 4.890625 26.703125 
z
" id="DejaVuSans-52"/>
      </defs>
      <g transform="translate(21.971875 224.460008)scale(0.1 -0.1)">
       <use xlink:href="#DejaVuSans-48"/>
       <use x="63.623047" xlink:href="#DejaVuSans-46"/>
       <use x="95.410156" xlink:href="#DejaVuSans-48"/>
       <use x="159.033203" xlink:href="#DejaVuSans-48"/>
       <use x="222.65625" xlink:href="#DejaVuSans-52"/>
      </g>
     </g>
    </g>
    <g id="ytick_4">
     <g id="line2d_12">
      <g>
       <use style="stroke:#000000;stroke-width:0.8;" x="57.6" xlink:href="#m45d6892f63" y="177.199183"/>
      </g>
     </g>
     <g id="text_13">
      <!-- 0.006 -->
      <defs>
       <path d="M 33.015625 40.375 
Q 26.375 40.375 22.484375 35.828125 
Q 18.609375 31.296875 18.609375 23.390625 
Q 18.609375 15.53125 22.484375 10.953125 
Q 26.375 6.390625 33.015625 6.390625 
Q 39.65625 6.390625 43.53125 10.953125 
Q 47.40625 15.53125 47.40625 23.390625 
Q 47.40625 31.296875 43.53125 35.828125 
Q 39.65625 40.375 33.015625 40.375 
z
M 52.59375 71.296875 
L 52.59375 62.3125 
Q 48.875 64.0625 45.09375 64.984375 
Q 41.3125 65.921875 37.59375 65.921875 
Q 27.828125 65.921875 22.671875 59.328125 
Q 17.53125 52.734375 16.796875 39.40625 
Q 19.671875 43.65625 24.015625 45.921875 
Q 28.375 48.1875 33.59375 48.1875 
Q 44.578125 48.1875 50.953125 41.515625 
Q 57.328125 34.859375 57.328125 23.390625 
Q 57.328125 12.15625 50.6875 5.359375 
Q 44.046875 -1.421875 33.015625 -1.421875 
Q 20.359375 -1.421875 13.671875 8.265625 
Q 6.984375 17.96875 6.984375 36.375 
Q 6.984375 53.65625 15.1875 63.9375 
Q 23.390625 74.21875 37.203125 74.21875 
Q 40.921875 74.21875 44.703125 73.484375 
Q 48.484375 72.75 52.59375 71.296875 
z
" id="DejaVuSans-54"/>
      </defs>
      <g transform="translate(21.971875 180.998402)scale(0.1 -0.1)">
       <use xlink:href="#DejaVuSans-48"/>
       <use x="63.623047" xlink:href="#DejaVuSans-46"/>
       <use x="95.410156" xlink:href="#DejaVuSans-48"/>
       <use x="159.033203" xlink:href="#DejaVuSans-48"/>
       <use x="222.65625" xlink:href="#DejaVuSans-54"/>
      </g>
     </g>
    </g>
    <g id="ytick_5">
     <g id="line2d_13">
      <g>
       <use style="stroke:#000000;stroke-width:0.8;" x="57.6" xlink:href="#m45d6892f63" y="133.737578"/>
      </g>
     </g>
     <g id="text_14">
      <!-- 0.008 -->
      <defs>
       <path d="M 31.78125 34.625 
Q 24.75 34.625 20.71875 30.859375 
Q 16.703125 27.09375 16.703125 20.515625 
Q 16.703125 13.921875 20.71875 10.15625 
Q 24.75 6.390625 31.78125 6.390625 
Q 38.8125 6.390625 42.859375 10.171875 
Q 46.921875 13.96875 46.921875 20.515625 
Q 46.921875 27.09375 42.890625 30.859375 
Q 38.875 34.625 31.78125 34.625 
z
M 21.921875 38.8125 
Q 15.578125 40.375 12.03125 44.71875 
Q 8.5 49.078125 8.5 55.328125 
Q 8.5 64.0625 14.71875 69.140625 
Q 20.953125 74.21875 31.78125 74.21875 
Q 42.671875 74.21875 48.875 69.140625 
Q 55.078125 64.0625 55.078125 55.328125 
Q 55.078125 49.078125 51.53125 44.71875 
Q 48 40.375 41.703125 38.8125 
Q 48.828125 37.15625 52.796875 32.3125 
Q 56.78125 27.484375 56.78125 20.515625 
Q 56.78125 9.90625 50.3125 4.234375 
Q 43.84375 -1.421875 31.78125 -1.421875 
Q 19.734375 -1.421875 13.25 4.234375 
Q 6.78125 9.90625 6.78125 20.515625 
Q 6.78125 27.484375 10.78125 32.3125 
Q 14.796875 37.15625 21.921875 38.8125 
z
M 18.3125 54.390625 
Q 18.3125 48.734375 21.84375 45.5625 
Q 25.390625 42.390625 31.78125 42.390625 
Q 38.140625 42.390625 41.71875 45.5625 
Q 45.3125 48.734375 45.3125 54.390625 
Q 45.3125 60.0625 41.71875 63.234375 
Q 38.140625 66.40625 31.78125 66.40625 
Q 25.390625 66.40625 21.84375 63.234375 
Q 18.3125 60.0625 18.3125 54.390625 
z
" id="DejaVuSans-56"/>
      </defs>
      <g transform="translate(21.971875 137.536797)scale(0.1 -0.1)">
       <use xlink:href="#DejaVuSans-48"/>
       <use x="63.623047" xlink:href="#DejaVuSans-46"/>
       <use x="95.410156" xlink:href="#DejaVuSans-48"/>
       <use x="159.033203" xlink:href="#DejaVuSans-48"/>
       <use x="222.65625" xlink:href="#DejaVuSans-56"/>
      </g>
     </g>
    </g>
    <g id="ytick_6">
     <g id="line2d_14">
      <g>
       <use style="stroke:#000000;stroke-width:0.8;" x="57.6" xlink:href="#m45d6892f63" y="90.275972"/>
      </g>
     </g>
     <g id="text_15">
      <!-- 0.010 -->
      <g transform="translate(21.971875 94.075191)scale(0.1 -0.1)">
       <use xlink:href="#DejaVuSans-48"/>
       <use x="63.623047" xlink:href="#DejaVuSans-46"/>
       <use x="95.410156" xlink:href="#DejaVuSans-48"/>
       <use x="159.033203" xlink:href="#DejaVuSans-49"/>
       <use x="222.65625" xlink:href="#DejaVuSans-48"/>
      </g>
     </g>
    </g>
    <g id="ytick_7">
     <g id="line2d_15">
      <g>
       <use style="stroke:#000000;stroke-width:0.8;" x="57.6" xlink:href="#m45d6892f63" y="46.814367"/>
      </g>
     </g>
     <g id="text_16">
      <!-- 0.012 -->
      <g transform="translate(21.971875 50.613586)scale(0.1 -0.1)">
       <use xlink:href="#DejaVuSans-48"/>
       <use x="63.623047" xlink:href="#DejaVuSans-46"/>
       <use x="95.410156" xlink:href="#DejaVuSans-48"/>
       <use x="159.033203" xlink:href="#DejaVuSans-49"/>
       <use x="222.65625" xlink:href="#DejaVuSans-50"/>
      </g>
     </g>
    </g>
    <g id="text_17">
     <!-- Prob. Density (a.u.) -->
     <defs>
      <path d="M 19.671875 64.796875 
L 19.671875 37.40625 
L 32.078125 37.40625 
Q 38.96875 37.40625 42.71875 40.96875 
Q 46.484375 44.53125 46.484375 51.125 
Q 46.484375 57.671875 42.71875 61.234375 
Q 38.96875 64.796875 32.078125 64.796875 
z
M 9.8125 72.90625 
L 32.078125 72.90625 
Q 44.34375 72.90625 50.609375 67.359375 
Q 56.890625 61.8125 56.890625 51.125 
Q 56.890625 40.328125 50.609375 34.8125 
Q 44.34375 29.296875 32.078125 29.296875 
L 19.671875 29.296875 
L 19.671875 0 
L 9.8125 0 
z
" id="DejaVuSans-80"/>
      <path d="M 41.109375 46.296875 
Q 39.59375 47.171875 37.8125 47.578125 
Q 36.03125 48 33.890625 48 
Q 26.265625 48 22.1875 43.046875 
Q 18.109375 38.09375 18.109375 28.8125 
L 18.109375 0 
L 9.078125 0 
L 9.078125 54.6875 
L 18.109375 54.6875 
L 18.109375 46.1875 
Q 20.953125 51.171875 25.484375 53.578125 
Q 30.03125 56 36.53125 56 
Q 37.453125 56 38.578125 55.875 
Q 39.703125 55.765625 41.0625 55.515625 
z
" id="DejaVuSans-114"/>
      <path d="M 30.609375 48.390625 
Q 23.390625 48.390625 19.1875 42.75 
Q 14.984375 37.109375 14.984375 27.296875 
Q 14.984375 17.484375 19.15625 11.84375 
Q 23.34375 6.203125 30.609375 6.203125 
Q 37.796875 6.203125 41.984375 11.859375 
Q 46.1875 17.53125 46.1875 27.296875 
Q 46.1875 37.015625 41.984375 42.703125 
Q 37.796875 48.390625 30.609375 48.390625 
z
M 30.609375 56 
Q 42.328125 56 49.015625 48.375 
Q 55.71875 40.765625 55.71875 27.296875 
Q 55.71875 13.875 49.015625 6.21875 
Q 42.328125 -1.421875 30.609375 -1.421875 
Q 18.84375 -1.421875 12.171875 6.21875 
Q 5.515625 13.875 5.515625 27.296875 
Q 5.515625 40.765625 12.171875 48.375 
Q 18.84375 56 30.609375 56 
z
" id="DejaVuSans-111"/>
      <path d="M 48.6875 27.296875 
Q 48.6875 37.203125 44.609375 42.84375 
Q 40.53125 48.484375 33.40625 48.484375 
Q 26.265625 48.484375 22.1875 42.84375 
Q 18.109375 37.203125 18.109375 27.296875 
Q 18.109375 17.390625 22.1875 11.75 
Q 26.265625 6.109375 33.40625 6.109375 
Q 40.53125 6.109375 44.609375 11.75 
Q 48.6875 17.390625 48.6875 27.296875 
z
M 18.109375 46.390625 
Q 20.953125 51.265625 25.265625 53.625 
Q 29.59375 56 35.59375 56 
Q 45.5625 56 51.78125 48.09375 
Q 58.015625 40.1875 58.015625 27.296875 
Q 58.015625 14.40625 51.78125 6.484375 
Q 45.5625 -1.421875 35.59375 -1.421875 
Q 29.59375 -1.421875 25.265625 0.953125 
Q 20.953125 3.328125 18.109375 8.203125 
L 18.109375 0 
L 9.078125 0 
L 9.078125 75.984375 
L 18.109375 75.984375 
z
" id="DejaVuSans-98"/>
      <path id="DejaVuSans-32"/>
      <path d="M 19.671875 64.796875 
L 19.671875 8.109375 
L 31.59375 8.109375 
Q 46.6875 8.109375 53.6875 14.9375 
Q 60.6875 21.78125 60.6875 36.53125 
Q 60.6875 51.171875 53.6875 57.984375 
Q 46.6875 64.796875 31.59375 64.796875 
z
M 9.8125 72.90625 
L 30.078125 72.90625 
Q 51.265625 72.90625 61.171875 64.09375 
Q 71.09375 55.28125 71.09375 36.53125 
Q 71.09375 17.671875 61.125 8.828125 
Q 51.171875 0 30.078125 0 
L 9.8125 0 
z
" id="DejaVuSans-68"/>
      <path d="M 56.203125 29.59375 
L 56.203125 25.203125 
L 14.890625 25.203125 
Q 15.484375 15.921875 20.484375 11.0625 
Q 25.484375 6.203125 34.421875 6.203125 
Q 39.59375 6.203125 44.453125 7.46875 
Q 49.3125 8.734375 54.109375 11.28125 
L 54.109375 2.78125 
Q 49.265625 0.734375 44.1875 -0.34375 
Q 39.109375 -1.421875 33.890625 -1.421875 
Q 20.796875 -1.421875 13.15625 6.1875 
Q 5.515625 13.8125 5.515625 26.8125 
Q 5.515625 40.234375 12.765625 48.109375 
Q 20.015625 56 32.328125 56 
Q 43.359375 56 49.78125 48.890625 
Q 56.203125 41.796875 56.203125 29.59375 
z
M 47.21875 32.234375 
Q 47.125 39.59375 43.09375 43.984375 
Q 39.0625 48.390625 32.421875 48.390625 
Q 24.90625 48.390625 20.390625 44.140625 
Q 15.875 39.890625 15.1875 32.171875 
z
" id="DejaVuSans-101"/>
      <path d="M 54.890625 33.015625 
L 54.890625 0 
L 45.90625 0 
L 45.90625 32.71875 
Q 45.90625 40.484375 42.875 44.328125 
Q 39.84375 48.1875 33.796875 48.1875 
Q 26.515625 48.1875 22.3125 43.546875 
Q 18.109375 38.921875 18.109375 30.90625 
L 18.109375 0 
L 9.078125 0 
L 9.078125 54.6875 
L 18.109375 54.6875 
L 18.109375 46.1875 
Q 21.34375 51.125 25.703125 53.5625 
Q 30.078125 56 35.796875 56 
Q 45.21875 56 50.046875 50.171875 
Q 54.890625 44.34375 54.890625 33.015625 
z
" id="DejaVuSans-110"/>
      <path d="M 44.28125 53.078125 
L 44.28125 44.578125 
Q 40.484375 46.53125 36.375 47.5 
Q 32.28125 48.484375 27.875 48.484375 
Q 21.1875 48.484375 17.84375 46.4375 
Q 14.5 44.390625 14.5 40.28125 
Q 14.5 37.15625 16.890625 35.375 
Q 19.28125 33.59375 26.515625 31.984375 
L 29.59375 31.296875 
Q 39.15625 29.25 43.1875 25.515625 
Q 47.21875 21.78125 47.21875 15.09375 
Q 47.21875 7.46875 41.1875 3.015625 
Q 35.15625 -1.421875 24.609375 -1.421875 
Q 20.21875 -1.421875 15.453125 -0.5625 
Q 10.6875 0.296875 5.421875 2 
L 5.421875 11.28125 
Q 10.40625 8.6875 15.234375 7.390625 
Q 20.0625 6.109375 24.8125 6.109375 
Q 31.15625 6.109375 34.5625 8.28125 
Q 37.984375 10.453125 37.984375 14.40625 
Q 37.984375 18.0625 35.515625 20.015625 
Q 33.0625 21.96875 24.703125 23.78125 
L 21.578125 24.515625 
Q 13.234375 26.265625 9.515625 29.90625 
Q 5.8125 33.546875 5.8125 39.890625 
Q 5.8125 47.609375 11.28125 51.796875 
Q 16.75 56 26.8125 56 
Q 31.78125 56 36.171875 55.265625 
Q 40.578125 54.546875 44.28125 53.078125 
z
" id="DejaVuSans-115"/>
      <path d="M 31 75.875 
Q 24.46875 64.65625 21.28125 53.65625 
Q 18.109375 42.671875 18.109375 31.390625 
Q 18.109375 20.125 21.3125 9.0625 
Q 24.515625 -2 31 -13.1875 
L 23.1875 -13.1875 
Q 15.875 -1.703125 12.234375 9.375 
Q 8.59375 20.453125 8.59375 31.390625 
Q 8.59375 42.28125 12.203125 53.3125 
Q 15.828125 64.359375 23.1875 75.875 
z
" id="DejaVuSans-40"/>
      <path d="M 34.28125 27.484375 
Q 23.390625 27.484375 19.1875 25 
Q 14.984375 22.515625 14.984375 16.5 
Q 14.984375 11.71875 18.140625 8.90625 
Q 21.296875 6.109375 26.703125 6.109375 
Q 34.1875 6.109375 38.703125 11.40625 
Q 43.21875 16.703125 43.21875 25.484375 
L 43.21875 27.484375 
z
M 52.203125 31.203125 
L 52.203125 0 
L 43.21875 0 
L 43.21875 8.296875 
Q 40.140625 3.328125 35.546875 0.953125 
Q 30.953125 -1.421875 24.3125 -1.421875 
Q 15.921875 -1.421875 10.953125 3.296875 
Q 6 8.015625 6 15.921875 
Q 6 25.140625 12.171875 29.828125 
Q 18.359375 34.515625 30.609375 34.515625 
L 43.21875 34.515625 
L 43.21875 35.40625 
Q 43.21875 41.609375 39.140625 45 
Q 35.0625 48.390625 27.6875 48.390625 
Q 23 48.390625 18.546875 47.265625 
Q 14.109375 46.140625 10.015625 43.890625 
L 10.015625 52.203125 
Q 14.9375 54.109375 19.578125 55.046875 
Q 24.21875 56 28.609375 56 
Q 40.484375 56 46.34375 49.84375 
Q 52.203125 43.703125 52.203125 31.203125 
z
" id="DejaVuSans-97"/>
      <path d="M 8.015625 75.875 
L 15.828125 75.875 
Q 23.140625 64.359375 26.78125 53.3125 
Q 30.421875 42.28125 30.421875 31.390625 
Q 30.421875 20.453125 26.78125 9.375 
Q 23.140625 -1.703125 15.828125 -13.1875 
L 8.015625 -13.1875 
Q 14.5 -2 17.703125 9.0625 
Q 20.90625 20.125 20.90625 31.390625 
Q 20.90625 42.671875 17.703125 53.65625 
Q 14.5 64.65625 8.015625 75.875 
z
" id="DejaVuSans-41"/>
     </defs>
     <g transform="translate(15.892187 222.917844)rotate(-90)scale(0.1 -0.1)">
      <use xlink:href="#DejaVuSans-80"/>
      <use x="60.287109" xlink:href="#DejaVuSans-114"/>
      <use x="101.369141" xlink:href="#DejaVuSans-111"/>
      <use x="162.550781" xlink:href="#DejaVuSans-98"/>
      <use x="226.027344" xlink:href="#DejaVuSans-46"/>
      <use x="257.814453" xlink:href="#DejaVuSans-32"/>
      <use x="289.601562" xlink:href="#DejaVuSans-68"/>
      <use x="366.603516" xlink:href="#DejaVuSans-101"/>
      <use x="428.126953" xlink:href="#DejaVuSans-110"/>
      <use x="491.505859" xlink:href="#DejaVuSans-115"/>
      <use x="543.605469" xlink:href="#DejaVuSans-105"/>
      <use x="571.388672" xlink:href="#DejaVuSans-116"/>
      <use x="610.597656" xlink:href="#DejaVuSans-121"/>
      <use x="669.777344" xlink:href="#DejaVuSans-32"/>
      <use x="701.564453" xlink:href="#DejaVuSans-40"/>
      <use x="740.578125" xlink:href="#DejaVuSans-97"/>
      <use x="801.857422" xlink:href="#DejaVuSans-46"/>
      <use x="833.644531" xlink:href="#DejaVuSans-117"/>
      <use x="897.023438" xlink:href="#DejaVuSans-46"/>
      <use x="928.810547" xlink:href="#DejaVuSans-41"/>
     </g>
    </g>
   </g>
   <g id="patch_9">
    <path d="M 57.6 307.584 
L 57.6 41.472 
" style="fill:none;stroke:#000000;stroke-linecap:square;stroke-linejoin:miter;stroke-width:0.8;"/>
   </g>
   <g id="patch_10">
    <path d="M 414.72 307.584 
L 414.72 41.472 
" style="fill:none;stroke:#000000;stroke-linecap:square;stroke-linejoin:miter;stroke-width:0.8;"/>
   </g>
   <g id="patch_11">
    <path d="M 57.6 307.584 
L 414.72 307.584 
" style="fill:none;stroke:#000000;stroke-linecap:square;stroke-linejoin:miter;stroke-width:0.8;"/>
   </g>
   <g id="patch_12">
    <path d="M 57.6 41.472 
L 414.72 41.472 
" style="fill:none;stroke:#000000;stroke-linecap:square;stroke-linejoin:miter;stroke-width:0.8;"/>
   </g>
   <g id="legend_1">
    <g id="patch_13">
     <path d="M 325.405938 137.54075 
L 407.72 137.54075 
Q 409.72 137.54075 409.72 135.54075 
L 409.72 48.472 
Q 409.72 46.472 407.72 46.472 
L 325.405938 46.472 
Q 323.405938 46.472 323.405938 48.472 
L 323.405938 135.54075 
Q 323.405938 137.54075 325.405938 137.54075 
z
" style="fill:#ffffff;opacity:0.8;stroke:#cccccc;stroke-linejoin:miter;"/>
    </g>
    <g id="patch_14">
     <path d="M 327.405938 58.070438 
L 347.405938 58.070438 
L 347.405938 51.070438 
L 327.405938 51.070438 
z
" style="fill:none;stroke:#1f77b4;stroke-linejoin:miter;"/>
    </g>
    <g id="text_18">
     <!-- quark -->
     <defs>
      <path d="M 14.796875 27.296875 
Q 14.796875 17.390625 18.875 11.75 
Q 22.953125 6.109375 30.078125 6.109375 
Q 37.203125 6.109375 41.296875 11.75 
Q 45.40625 17.390625 45.40625 27.296875 
Q 45.40625 37.203125 41.296875 42.84375 
Q 37.203125 48.484375 30.078125 48.484375 
Q 22.953125 48.484375 18.875 42.84375 
Q 14.796875 37.203125 14.796875 27.296875 
z
M 45.40625 8.203125 
Q 42.578125 3.328125 38.25 0.953125 
Q 33.9375 -1.421875 27.875 -1.421875 
Q 17.96875 -1.421875 11.734375 6.484375 
Q 5.515625 14.40625 5.515625 27.296875 
Q 5.515625 40.1875 11.734375 48.09375 
Q 17.96875 56 27.875 56 
Q 33.9375 56 38.25 53.625 
Q 42.578125 51.265625 45.40625 46.390625 
L 45.40625 54.6875 
L 54.390625 54.6875 
L 54.390625 -20.796875 
L 45.40625 -20.796875 
z
" id="DejaVuSans-113"/>
      <path d="M 9.078125 75.984375 
L 18.109375 75.984375 
L 18.109375 31.109375 
L 44.921875 54.6875 
L 56.390625 54.6875 
L 27.390625 29.109375 
L 57.625 0 
L 45.90625 0 
L 18.109375 26.703125 
L 18.109375 0 
L 9.078125 0 
z
" id="DejaVuSans-107"/>
     </defs>
     <g transform="translate(355.405938 58.070438)scale(0.1 -0.1)">
      <use xlink:href="#DejaVuSans-113"/>
      <use x="63.476562" xlink:href="#DejaVuSans-117"/>
      <use x="126.855469" xlink:href="#DejaVuSans-97"/>
      <use x="188.134766" xlink:href="#DejaVuSans-114"/>
      <use x="229.248047" xlink:href="#DejaVuSans-107"/>
     </g>
    </g>
    <g id="patch_15">
     <path d="M 327.405938 72.748563 
L 347.405938 72.748563 
L 347.405938 65.748563 
L 327.405938 65.748563 
z
" style="fill:none;stroke:#ff7f0e;stroke-linejoin:miter;"/>
    </g>
    <g id="text_19">
     <!-- gluon -->
     <defs>
      <path d="M 45.40625 27.984375 
Q 45.40625 37.75 41.375 43.109375 
Q 37.359375 48.484375 30.078125 48.484375 
Q 22.859375 48.484375 18.828125 43.109375 
Q 14.796875 37.75 14.796875 27.984375 
Q 14.796875 18.265625 18.828125 12.890625 
Q 22.859375 7.515625 30.078125 7.515625 
Q 37.359375 7.515625 41.375 12.890625 
Q 45.40625 18.265625 45.40625 27.984375 
z
M 54.390625 6.78125 
Q 54.390625 -7.171875 48.1875 -13.984375 
Q 42 -20.796875 29.203125 -20.796875 
Q 24.46875 -20.796875 20.265625 -20.09375 
Q 16.0625 -19.390625 12.109375 -17.921875 
L 12.109375 -9.1875 
Q 16.0625 -11.328125 19.921875 -12.34375 
Q 23.78125 -13.375 27.78125 -13.375 
Q 36.625 -13.375 41.015625 -8.765625 
Q 45.40625 -4.15625 45.40625 5.171875 
L 45.40625 9.625 
Q 42.625 4.78125 38.28125 2.390625 
Q 33.9375 0 27.875 0 
Q 17.828125 0 11.671875 7.65625 
Q 5.515625 15.328125 5.515625 27.984375 
Q 5.515625 40.671875 11.671875 48.328125 
Q 17.828125 56 27.875 56 
Q 33.9375 56 38.28125 53.609375 
Q 42.625 51.21875 45.40625 46.390625 
L 45.40625 54.6875 
L 54.390625 54.6875 
z
" id="DejaVuSans-103"/>
     </defs>
     <g transform="translate(355.405938 72.748563)scale(0.1 -0.1)">
      <use xlink:href="#DejaVuSans-103"/>
      <use x="63.476562" xlink:href="#DejaVuSans-108"/>
      <use x="91.259766" xlink:href="#DejaVuSans-117"/>
      <use x="154.638672" xlink:href="#DejaVuSans-111"/>
      <use x="215.820312" xlink:href="#DejaVuSans-110"/>
     </g>
    </g>
    <g id="patch_16">
     <path d="M 327.405938 87.426688 
L 347.405938 87.426688 
L 347.405938 80.426688 
L 327.405938 80.426688 
z
" style="fill:none;stroke:#2ca02c;stroke-linejoin:miter;"/>
    </g>
    <g id="text_20">
     <!-- W -->
     <defs>
      <path d="M 3.328125 72.90625 
L 13.28125 72.90625 
L 28.609375 11.28125 
L 43.890625 72.90625 
L 54.984375 72.90625 
L 70.3125 11.28125 
L 85.59375 72.90625 
L 95.609375 72.90625 
L 77.296875 0 
L 64.890625 0 
L 49.515625 63.28125 
L 33.984375 0 
L 21.578125 0 
z
" id="DejaVuSans-87"/>
     </defs>
     <g transform="translate(355.405938 87.426688)scale(0.1 -0.1)">
      <use xlink:href="#DejaVuSans-87"/>
     </g>
    </g>
    <g id="patch_17">
     <path d="M 327.405938 102.104813 
L 347.405938 102.104813 
L 347.405938 95.104813 
L 327.405938 95.104813 
z
" style="fill:none;stroke:#d62728;stroke-linejoin:miter;"/>
    </g>
    <g id="text_21">
     <!-- Z -->
     <defs>
      <path d="M 5.609375 72.90625 
L 62.890625 72.90625 
L 62.890625 65.375 
L 16.796875 8.296875 
L 64.015625 8.296875 
L 64.015625 0 
L 4.5 0 
L 4.5 7.515625 
L 50.59375 64.59375 
L 5.609375 64.59375 
z
" id="DejaVuSans-90"/>
     </defs>
     <g transform="translate(355.405938 102.104813)scale(0.1 -0.1)">
      <use xlink:href="#DejaVuSans-90"/>
     </g>
    </g>
    <g id="patch_18">
     <path d="M 327.405938 116.782938 
L 347.405938 116.782938 
L 347.405938 109.782938 
L 327.405938 109.782938 
z
" style="fill:none;stroke:#9467bd;stroke-linejoin:miter;"/>
    </g>
    <g id="text_22">
     <!-- top -->
     <g transform="translate(355.405938 116.782938)scale(0.1 -0.1)">
      <use xlink:href="#DejaVuSans-116"/>
      <use x="39.208984" xlink:href="#DejaVuSans-111"/>
      <use x="100.390625" xlink:href="#DejaVuSans-112"/>
     </g>
    </g>
    <g id="patch_19">
     <path d="M 327.405938 131.461063 
L 347.405938 131.461063 
L 347.405938 124.461063 
L 327.405938 124.461063 
z
" style="fill:none;stroke:#000000;stroke-linejoin:miter;"/>
    </g>
    <g id="text_23">
     <!-- undefined -->
     <defs>
      <path d="M 45.40625 46.390625 
L 45.40625 75.984375 
L 54.390625 75.984375 
L 54.390625 0 
L 45.40625 0 
L 45.40625 8.203125 
Q 42.578125 3.328125 38.25 0.953125 
Q 33.9375 -1.421875 27.875 -1.421875 
Q 17.96875 -1.421875 11.734375 6.484375 
Q 5.515625 14.40625 5.515625 27.296875 
Q 5.515625 40.1875 11.734375 48.09375 
Q 17.96875 56 27.875 56 
Q 33.9375 56 38.25 53.625 
Q 42.578125 51.265625 45.40625 46.390625 
z
M 14.796875 27.296875 
Q 14.796875 17.390625 18.875 11.75 
Q 22.953125 6.109375 30.078125 6.109375 
Q 37.203125 6.109375 41.296875 11.75 
Q 45.40625 17.390625 45.40625 27.296875 
Q 45.40625 37.203125 41.296875 42.84375 
Q 37.203125 48.484375 30.078125 48.484375 
Q 22.953125 48.484375 18.875 42.84375 
Q 14.796875 37.203125 14.796875 27.296875 
z
" id="DejaVuSans-100"/>
      <path d="M 37.109375 75.984375 
L 37.109375 68.5 
L 28.515625 68.5 
Q 23.6875 68.5 21.796875 66.546875 
Q 19.921875 64.59375 19.921875 59.515625 
L 19.921875 54.6875 
L 34.71875 54.6875 
L 34.71875 47.703125 
L 19.921875 47.703125 
L 19.921875 0 
L 10.890625 0 
L 10.890625 47.703125 
L 2.296875 47.703125 
L 2.296875 54.6875 
L 10.890625 54.6875 
L 10.890625 58.5 
Q 10.890625 67.625 15.140625 71.796875 
Q 19.390625 75.984375 28.609375 75.984375 
z
" id="DejaVuSans-102"/>
     </defs>
     <g transform="translate(355.405938 131.461063)scale(0.1 -0.1)">
      <use xlink:href="#DejaVuSans-117"/>
      <use x="63.378906" xlink:href="#DejaVuSans-110"/>
      <use x="126.757812" xlink:href="#DejaVuSans-100"/>
      <use x="190.234375" xlink:href="#DejaVuSans-101"/>
      <use x="251.757812" xlink:href="#DejaVuSans-102"/>
      <use x="286.962891" xlink:href="#DejaVuSans-105"/>
      <use x="314.746094" xlink:href="#DejaVuSans-110"/>
      <use x="378.125" xlink:href="#DejaVuSans-101"/>
      <use x="439.648438" xlink:href="#DejaVuSans-100"/>
     </g>
    </g>
   </g>
  </g>
 </g>
 <defs>
  <clipPath id="pfabee6b68a">
   <rect height="266.112" width="357.12" x="57.6" y="41.472"/>
  </clipPath>
 </defs>
</svg>
