<?xml version="1.0" encoding="utf-8" standalone="no"?>
<!DOCTYPE svg PUBLIC "-//W3C//DTD SVG 1.1//EN"
  "http://www.w3.org/Graphics/SVG/1.1/DTD/svg11.dtd">
<!-- Created with matplotlib (https://matplotlib.org/) -->
<svg height="345.6pt" version="1.1" viewBox="0 0 460.8 345.6" width="460.8pt" xmlns="http://www.w3.org/2000/svg" xmlns:xlink="http://www.w3.org/1999/xlink">
 <defs>
  <style type="text/css">
*{stroke-linecap:butt;stroke-linejoin:round;}
  </style>
 </defs>
 <g id="figure_1">
  <g id="patch_1">
   <path d="M 0 345.6 
L 460.8 345.6 
L 460.8 0 
L 0 0 
z
" style="fill:#ffffff;"/>
  </g>
  <g id="axes_1">
   <g id="patch_2">
    <path d="M 57.6 307.584 
L 414.72 307.584 
L 414.72 41.472 
L 57.6 41.472 
z
" style="fill:#ffffff;"/>
   </g>
   <g id="patch_3">
    <path clip-path="url(#p943cea218e)" d="M 73.832727 307.584 
L 116.037852 307.584 
L 116.037852 306.334594 
L 119.284368 306.334594 
L 119.284368 304.865006 
L 122.53093 304.865006 
L 122.53093 307.584 
L 125.777446 307.584 
L 125.777446 306.897851 
L 129.024009 306.897851 
L 129.024009 306.426763 
L 132.270571 306.426763 
L 132.270571 301.367693 
L 135.517087 301.367693 
L 135.517087 303.118909 
L 138.763649 303.118909 
L 138.763649 303.472224 
L 142.010211 303.472224 
L 142.010211 301.413777 
L 145.256751 301.413777 
L 145.256751 297.660438 
L 148.50329 297.660438 
L 148.50329 298.08032 
L 151.749829 298.08032 
L 151.749829 297.38393 
L 154.996368 297.38393 
L 154.996368 299.95955 
L 158.24293 299.95955 
L 158.24293 295.479098 
L 161.489469 295.479098 
L 161.489469 295.013132 
L 164.736009 295.013132 
L 164.736009 284.644085 
L 167.982548 284.644085 
L 167.982548 283.901607 
L 171.22911 283.901607 
L 171.22911 282.933828 
L 174.475649 282.933828 
L 174.475649 281.725389 
L 177.722188 281.725389 
L 177.722188 282.304007 
L 180.968727 282.304007 
L 180.968727 281.208216 
L 184.21529 281.208216 
L 184.21529 280.865143 
L 187.461829 280.865143 
L 187.461829 270.286156 
L 190.708368 270.286156 
L 190.708368 257.551427 
L 193.95493 257.551427 
L 193.95493 270.03525 
L 197.20147 270.03525 
L 197.20147 265.262929 
L 200.448009 265.262929 
L 200.448009 254.433034 
L 203.694548 254.433034 
L 203.694548 259.425539 
L 206.94111 259.425539 
L 206.94111 255.395687 
L 210.187649 255.395687 
L 210.187649 251.729403 
L 213.434188 251.729403 
L 213.434188 242.783859 
L 216.680728 242.783859 
L 216.680728 249.056494 
L 219.92729 249.056494 
L 219.92729 239.701309 
L 223.173829 239.701309 
L 223.173829 237.048879 
L 226.420368 237.048879 
L 226.420368 244.862786 
L 229.666907 244.862786 
L 229.666907 241.150417 
L 232.91347 241.150417 
L 232.91347 223.592157 
L 236.160009 223.592157 
L 236.160009 238.144674 
L 239.406548 238.144674 
L 239.406548 231.959076 
L 242.65311 231.959076 
L 242.65311 230.904252 
L 245.899649 230.904252 
L 245.899649 238.856421 
L 249.146188 238.856421 
L 249.146188 229.234966 
L 252.392728 229.234966 
L 252.392728 233.290425 
L 255.63929 233.290425 
L 255.63929 235.896763 
L 258.885829 235.896763 
L 258.885829 230.970816 
L 262.132368 230.970816 
L 262.132368 230.463889 
L 265.378907 230.463889 
L 265.378907 224.462646 
L 268.62547 224.462646 
L 268.62547 233.147041 
L 271.872009 233.147041 
L 271.872009 236.321762 
L 275.118548 236.321762 
L 275.118548 230.64311 
L 278.365087 230.64311 
L 278.365087 230.069618 
L 281.611649 230.069618 
L 281.611649 224.027398 
L 284.858188 224.027398 
L 284.858188 236.966951 
L 288.104728 236.966951 
L 288.104728 231.441913 
L 291.35129 231.441913 
L 291.35129 229.537073 
L 294.597829 229.537073 
L 294.597829 237.775991 
L 297.844368 237.775991 
L 297.844368 233.956087 
L 301.090907 233.956087 
L 301.090907 230.545824 
L 304.33747 230.545824 
L 304.33747 237.427793 
L 307.584009 237.427793 
L 307.584009 238.718165 
L 310.830548 238.718165 
L 310.830548 244.463381 
L 314.077087 244.463381 
L 314.077087 241.590779 
L 317.323649 241.590779 
L 317.323649 239.849802 
L 320.570189 239.849802 
L 320.570189 239.040756 
L 323.816728 239.040756 
L 323.816728 243.792598 
L 327.063267 243.792598 
L 327.063267 247.6842 
L 330.309829 247.6842 
L 330.309829 250.244453 
L 333.556368 250.244453 
L 333.556368 255.605635 
L 336.802907 255.605635 
L 336.802907 259.712288 
L 340.049458 259.712288 
L 340.049458 257.495105 
L 343.295997 257.495105 
L 343.295997 262.369833 
L 346.542548 262.369833 
L 346.542548 264.715032 
L 349.789099 264.715032 
L 349.789099 267.756618 
L 353.035638 267.756618 
L 353.035638 266.010523 
L 356.282189 266.010523 
L 356.282189 271.801828 
L 359.528728 271.801828 
L 359.528728 276.09794 
L 362.775278 276.09794 
L 362.775278 278.775973 
L 366.021818 278.775973 
L 366.021818 280.767851 
L 369.268368 280.767851 
L 369.268368 279.569649 
L 372.514907 279.569649 
L 372.514907 285.289269 
L 375.761458 285.289269 
L 375.761458 280.470862 
L 379.007997 280.470862 
L 379.007997 285.913971 
L 382.254548 285.913971 
L 382.254548 288.228444 
L 385.501087 288.228444 
L 385.501087 289.07333 
L 388.747638 289.07333 
L 388.747638 292.898358 
L 391.994177 292.898358 
L 391.994177 294.690539 
L 395.240728 294.690539 
L 395.240728 293.9071 
L 398.487267 293.9071 
L 398.487267 307.584 
L 398.487267 307.584 
" style="fill:none;stroke:#1f77b4;stroke-linejoin:miter;"/>
   </g>
   <g id="patch_4">
    <path clip-path="url(#p943cea218e)" d="M 73.832727 307.584 
L 80.325852 307.584 
L 80.325852 306.754476 
L 83.572368 306.754476 
L 83.572368 306.621343 
L 86.81893 306.621343 
L 86.81893 306.785199 
L 90.065493 306.785199 
L 90.065493 307.584 
L 93.312008 307.584 
L 93.312008 306.698151 
L 96.558571 306.698151 
L 96.558571 302.652942 
L 99.805087 302.652942 
L 99.805087 304.562895 
L 103.051649 304.562895 
L 103.051649 301.608356 
L 106.298211 301.608356 
L 106.298211 303.216199 
L 109.544727 303.216199 
L 109.544727 290.138399 
L 112.79129 290.138399 
L 112.79129 293.144139 
L 116.037852 293.144139 
L 116.037852 285.197098 
L 119.284368 285.197098 
L 119.284368 284.336853 
L 122.53093 284.336853 
L 122.53093 282.4525 
L 125.777446 282.4525 
L 125.777446 271.105438 
L 129.024009 271.105438 
L 129.024009 262.190616 
L 132.270571 262.190616 
L 132.270571 253.890264 
L 135.517087 253.890264 
L 135.517087 250.11644 
L 138.763649 250.11644 
L 138.763649 235.241325 
L 142.010211 235.241325 
L 142.010211 214.912877 
L 145.256751 214.912877 
L 145.256751 224.841571 
L 148.50329 224.841571 
L 148.50329 205.229998 
L 151.749829 205.229998 
L 151.749829 195.332025 
L 154.996368 195.332025 
L 154.996368 179.745169 
L 158.24293 179.745169 
L 158.24293 169.304433 
L 161.489469 169.304433 
L 161.489469 163.077865 
L 164.736009 163.077865 
L 164.736009 176.821354 
L 167.982548 176.821354 
L 167.982548 150.348291 
L 171.22911 150.348291 
L 171.22911 121.355926 
L 174.475649 121.355926 
L 174.475649 143.901539 
L 177.722188 143.901539 
L 177.722188 119.702004 
L 180.968727 119.702004 
L 180.968727 91.959035 
L 184.21529 91.959035 
L 184.21529 114.192317 
L 187.461829 114.192317 
L 187.461829 111.309448 
L 190.708368 111.309448 
L 190.708368 108.124491 
L 193.95493 108.124491 
L 193.95493 96.541911 
L 197.20147 96.541911 
L 197.20147 92.60423 
L 200.448009 92.60423 
L 200.448009 107.76605 
L 203.694548 107.76605 
L 203.694548 100.10063 
L 206.94111 100.10063 
L 206.94111 107.776305 
L 210.187649 107.776305 
L 210.187649 122.661662 
L 213.434188 122.661662 
L 213.434188 114.074546 
L 216.680728 114.074546 
L 216.680728 128.125251 
L 219.92729 128.125251 
L 219.92729 127.946012 
L 223.173829 127.946012 
L 223.173829 147.352778 
L 226.420368 147.352778 
L 226.420368 149.569967 
L 229.666907 149.569967 
L 229.666907 148.018446 
L 232.91347 148.018446 
L 232.91347 161.147468 
L 236.160009 161.147468 
L 236.160009 166.733931 
L 239.406548 166.733931 
L 239.406548 162.355893 
L 242.65311 162.355893 
L 242.65311 177.415324 
L 245.899649 177.415324 
L 245.899649 188.598554 
L 249.146188 188.598554 
L 249.146188 184.870815 
L 252.392728 184.870815 
L 252.392728 198.435078 
L 255.63929 198.435078 
L 255.63929 211.441165 
L 258.885829 211.441165 
L 258.885829 220.402066 
L 262.132368 220.402066 
L 262.132368 221.134311 
L 265.378907 221.134311 
L 265.378907 226.203617 
L 268.62547 226.203617 
L 268.62547 235.48711 
L 271.872009 235.48711 
L 271.872009 238.190759 
L 275.118548 238.190759 
L 275.118548 244.61188 
L 278.365087 244.61188 
L 278.365087 248.252564 
L 281.611649 248.252564 
L 281.611649 257.57703 
L 284.858188 257.57703 
L 284.858188 263.209603 
L 288.104728 263.209603 
L 288.104728 263.737015 
L 291.35129 263.737015 
L 291.35129 264.269548 
L 294.597829 264.269548 
L 294.597829 270.557535 
L 301.090907 270.531941 
L 301.090907 281.100685 
L 304.33747 281.100685 
L 304.33747 283.11305 
L 307.584009 283.11305 
L 307.584009 282.949192 
L 310.830548 282.949192 
L 310.830548 286.482349 
L 314.077087 286.482349 
L 314.077087 290.55828 
L 317.323649 290.55828 
L 317.323649 293.702277 
L 320.570189 293.702277 
L 320.570189 291.899856 
L 323.816728 291.899856 
L 323.816728 292.606486 
L 327.063267 292.606486 
L 327.063267 294.680295 
L 330.309829 294.680295 
L 330.309829 296.134522 
L 333.556368 296.134522 
L 333.556368 298.26466 
L 336.802907 298.26466 
L 336.802907 298.868879 
L 340.049458 298.868879 
L 340.049458 297.747487 
L 343.295997 297.747487 
L 343.295997 301.229437 
L 346.542548 301.229437 
L 346.542548 301.577633 
L 349.789099 301.577633 
L 349.789099 302.519809 
L 353.035638 302.519809 
L 353.035638 303.308369 
L 356.282189 303.308369 
L 356.282189 303.482466 
L 359.528728 303.482466 
L 359.528728 303.129151 
L 362.775278 303.129151 
L 362.775278 304.603859 
L 366.021818 304.603859 
L 366.021818 304.245422 
L 372.514907 304.240302 
L 372.514907 306.170737 
L 375.761458 306.170737 
L 375.761458 305.914711 
L 379.007997 305.914711 
L 379.007997 306.247545 
L 382.254548 306.247545 
L 382.254548 306.012001 
L 391.994177 306.109291 
L 391.994177 306.565017 
L 398.487267 306.662307 
L 398.487267 307.584 
L 398.487267 307.584 
" style="fill:none;stroke:#ff7f0e;stroke-linejoin:miter;"/>
   </g>
   <g id="patch_5">
    <path clip-path="url(#p943cea218e)" d="M 73.832727 307.584 
L 138.763649 307.584 
L 138.763649 306.580379 
L 142.010211 306.580379 
L 142.010211 307.102671 
L 145.256751 307.102671 
L 145.256751 306.69303 
L 148.50329 306.69303 
L 148.50329 306.355076 
L 151.749829 306.355076 
L 151.749829 305.843024 
L 154.996368 305.843024 
L 154.996368 304.900849 
L 158.24293 304.900849 
L 158.24293 304.055964 
L 161.489469 304.055964 
L 161.489469 302.565893 
L 164.736009 302.565893 
L 164.736009 303.605358 
L 167.982548 303.605358 
L 167.982548 302.489086 
L 171.22911 302.489086 
L 171.22911 299.56527 
L 174.475649 299.56527 
L 174.475649 292.867635 
L 177.722188 292.867635 
L 177.722188 289.657068 
L 180.968727 289.657068 
L 180.968727 286.917595 
L 184.21529 286.917595 
L 184.21529 283.251301 
L 187.461829 283.251301 
L 187.461829 285.565778 
L 190.708368 285.565778 
L 190.708368 272.119298 
L 193.95493 272.119298 
L 193.95493 270.511456 
L 197.20147 270.511456 
L 197.20147 257.167386 
L 200.448009 257.167386 
L 200.448009 259.154151 
L 203.694548 259.154151 
L 203.694548 245.794718 
L 206.94111 245.794718 
L 206.94111 248.098956 
L 210.187649 248.098956 
L 210.187649 234.37597 
L 213.434188 234.37597 
L 213.434188 226.439171 
L 216.680728 226.439171 
L 216.680728 224.524101 
L 219.92729 224.524101 
L 219.92729 216.464391 
L 223.173829 216.464391 
L 223.173829 223.167158 
L 226.420368 223.167158 
L 226.420368 199.766402 
L 229.666907 199.766402 
L 229.666907 197.938357 
L 232.91347 197.938357 
L 232.91347 189.19764 
L 236.160009 189.19764 
L 236.160009 181.900903 
L 239.406548 181.900903 
L 239.406548 186.980463 
L 242.65311 186.980463 
L 242.65311 192.310924 
L 245.899649 192.310924 
L 245.899649 182.46417 
L 249.146188 182.46417 
L 249.146188 180.252108 
L 252.392728 180.252108 
L 252.392728 182.515358 
L 255.63929 182.515358 
L 255.63929 177.871075 
L 258.885829 177.871075 
L 258.885829 187.062392 
L 262.132368 187.062392 
L 262.132368 171.577949 
L 265.378907 171.577949 
L 265.378907 191.809112 
L 268.62547 191.809112 
L 268.62547 190.272949 
L 271.872009 190.272949 
L 271.872009 189.878678 
L 275.118548 189.878678 
L 275.118548 200.135073 
L 278.365087 200.135073 
L 278.365087 208.266444 
L 281.611649 208.266444 
L 281.611649 206.976072 
L 284.858188 206.976072 
L 284.858188 219.536711 
L 288.104728 219.536711 
L 288.104728 226.137053 
L 291.35129 226.137053 
L 291.35129 230.248826 
L 294.597829 230.248826 
L 294.597829 230.12594 
L 297.844368 230.12594 
L 297.844368 236.168148 
L 301.090907 236.168148 
L 301.090907 239.537441 
L 304.33747 239.537441 
L 304.33747 243.464879 
L 307.584009 243.464879 
L 307.584009 250.654088 
L 310.830548 250.654088 
L 310.830548 257.310764 
L 314.077087 257.310764 
L 314.077087 263.562916 
L 317.323649 263.562916 
L 317.323649 264.546052 
L 320.570189 264.546052 
L 320.570189 266.112933 
L 323.816728 266.112933 
L 323.816728 267.505712 
L 327.063267 267.505712 
L 327.063267 275.811188 
L 330.309829 275.811188 
L 330.309829 276.026254 
L 333.556368 276.026254 
L 333.556368 279.764233 
L 336.802907 279.764233 
L 336.802907 284.31637 
L 340.049458 284.31637 
L 340.049458 281.582014 
L 343.295997 281.582014 
L 343.295997 283.03112 
L 346.542548 283.03112 
L 346.542548 288.755859 
L 349.789099 288.755859 
L 349.789099 293.497459 
L 353.035638 293.497459 
L 353.035638 293.727882 
L 356.282189 293.727882 
L 356.282189 294.076076 
L 359.528728 294.076076 
L 359.528728 292.002267 
L 362.775278 292.002267 
L 362.775278 296.912843 
L 366.021818 296.912843 
L 366.021818 297.409532 
L 369.268368 297.409532 
L 369.268368 300.35383 
L 372.514907 300.35383 
L 372.514907 300.010755 
L 375.761458 300.010755 
L 375.761458 300.15413 
L 379.007997 300.15413 
L 379.007997 301.132149 
L 382.254548 301.132149 
L 382.254548 302.325229 
L 385.501087 302.325229 
L 385.501087 302.489085 
L 388.747638 302.489085 
L 388.747638 305.361695 
L 391.994177 305.361695 
L 391.994177 304.132772 
L 395.240728 304.132772 
L 395.240728 303.92283 
L 398.487267 303.92283 
L 398.487267 307.584 
L 398.487267 307.584 
" style="fill:none;stroke:#2ca02c;stroke-linejoin:miter;"/>
   </g>
   <g id="patch_6">
    <path clip-path="url(#p943cea218e)" d="M 73.832727 307.584 
L 135.517087 307.584 
L 135.517087 307.148756 
L 142.010211 307.112912 
L 142.010211 306.954176 
L 145.256751 306.954176 
L 145.256751 304.880367 
L 148.50329 304.880367 
L 148.50329 305.725252 
L 151.749829 305.725252 
L 151.749829 304.624341 
L 154.996368 304.624341 
L 154.996368 301.715887 
L 158.24293 301.715887 
L 158.24293 300.394794 
L 161.489469 300.394794 
L 161.489469 302.222818 
L 164.736009 302.222818 
L 164.736009 297.266157 
L 171.22911 297.348085 
L 171.22911 287.639588 
L 174.475649 287.639588 
L 174.475649 288.571521 
L 177.722188 288.571521 
L 177.722188 285.514573 
L 180.968727 285.514573 
L 180.968727 281.786835 
L 184.21529 281.786835 
L 184.21529 272.062973 
L 187.461829 272.062973 
L 187.461829 266.619863 
L 190.708368 266.619863 
L 190.708368 268.555418 
L 193.95493 268.555418 
L 193.95493 258.724025 
L 197.20147 258.724025 
L 197.20147 250.889636 
L 200.448009 250.889636 
L 200.448009 246.045624 
L 203.694548 246.045624 
L 203.694548 234.063603 
L 206.94111 234.063603 
L 206.94111 231.247329 
L 210.187649 231.247329 
L 210.187649 217.739406 
L 213.434188 217.739406 
L 213.434188 224.396081 
L 216.680728 224.396081 
L 216.680728 208.737534 
L 219.92729 208.737534 
L 219.92729 200.672715 
L 223.173829 200.672715 
L 223.173829 198.460666 
L 226.420368 198.460666 
L 226.420368 196.596778 
L 229.666907 196.596778 
L 229.666907 207.370361 
L 232.91347 207.370361 
L 232.91347 196.023293 
L 236.160009 196.023293 
L 236.160009 188.782884 
L 239.406548 188.782884 
L 239.406548 178.971973 
L 242.65311 178.971973 
L 242.65311 187.630762 
L 245.899649 187.630762 
L 245.899649 184.998817 
L 249.146188 184.998817 
L 249.146188 174.076753 
L 252.392728 174.076753 
L 252.392728 189.110597 
L 255.63929 189.110597 
L 255.63929 191.153686 
L 258.885829 191.153686 
L 258.885829 183.380725 
L 262.132368 183.380725 
L 262.132368 184.389476 
L 265.378907 184.389476 
L 265.378907 176.94424 
L 268.62547 176.94424 
L 268.62547 190.713318 
L 271.872009 190.713318 
L 271.872009 185.3931 
L 275.118548 185.3931 
L 275.118548 203.857685 
L 278.365087 203.857685 
L 278.365087 209.633629 
L 281.611649 209.633629 
L 281.611649 210.48876 
L 288.104728 210.458039 
L 288.104728 219.977074 
L 291.35129 219.977074 
L 291.35129 226.183144 
L 294.597829 226.183144 
L 294.597829 230.12594 
L 297.844368 230.12594 
L 297.844368 237.724784 
L 301.090907 237.724784 
L 301.090907 247.346238 
L 304.33747 247.346238 
L 304.33747 251.985424 
L 307.584009 251.985424 
L 307.584009 249.804084 
L 310.830548 249.804084 
L 310.830548 260.680065 
L 314.077087 260.680065 
L 314.077087 262.605381 
L 320.570189 262.600257 
L 320.570189 267.956321 
L 323.816728 267.956321 
L 323.816728 272.411171 
L 327.063267 272.411171 
L 327.063267 271.172005 
L 330.309829 271.172005 
L 330.309829 280.404298 
L 333.556368 280.404298 
L 333.556368 280.885622 
L 336.802907 280.885622 
L 336.802907 285.540174 
L 340.049458 285.540174 
L 340.049458 282.846783 
L 343.295997 282.846783 
L 343.295997 286.651328 
L 346.542548 286.651328 
L 346.542548 290.184482 
L 349.789099 290.184482 
L 349.789099 291.597746 
L 353.035638 291.597746 
L 353.035638 291.751361 
L 356.282189 291.751361 
L 356.282189 294.291139 
L 359.528728 294.291139 
L 359.528728 295.99115 
L 362.775278 295.99115 
L 362.775278 294.931203 
L 366.021818 294.931203 
L 366.021818 297.332724 
L 369.268368 297.332724 
L 369.268368 298.264658 
L 372.514907 298.264658 
L 372.514907 299.114664 
L 375.761458 299.114664 
L 375.761458 300.952931 
L 379.007997 300.952931 
L 379.007997 301.101426 
L 385.501087 301.132149 
L 385.501087 303.33397 
L 388.747638 303.33397 
L 388.747638 304.593618 
L 391.994177 304.593618 
L 391.994177 304.081567 
L 395.240728 304.081567 
L 395.240728 304.690908 
L 398.487267 304.690908 
L 398.487267 307.584 
L 398.487267 307.584 
" style="fill:none;stroke:#d62728;stroke-linejoin:miter;"/>
   </g>
   <g id="patch_7">
    <path clip-path="url(#p943cea218e)" d="M 73.832727 307.584 
L 96.558571 307.584 
L 96.558571 305.945434 
L 99.805087 305.945434 
L 99.805087 307.584 
L 103.051649 307.584 
L 103.051649 306.723753 
L 106.298211 306.723753 
L 106.298211 306.88761 
L 109.544727 306.88761 
L 109.544727 306.186099 
L 112.79129 306.186099 
L 112.79129 303.380056 
L 116.037852 303.380056 
L 116.037852 301.249919 
L 122.53093 301.25504 
L 122.53093 297.281518 
L 125.777446 297.281518 
L 125.777446 293.190225 
L 129.024009 293.190225 
L 129.024009 295.284517 
L 132.270571 295.284517 
L 132.270571 286.676928 
L 135.517087 286.676928 
L 135.517087 271.407544 
L 138.763649 271.407544 
L 138.763649 275.775346 
L 142.010211 275.775346 
L 142.010211 265.867145 
L 145.256751 265.867145 
L 145.256751 262.958694 
L 148.50329 262.958694 
L 148.50329 243.884775 
L 151.749829 243.884775 
L 151.749829 235.845557 
L 154.996368 235.845557 
L 154.996368 218.241218 
L 158.24293 218.241218 
L 158.24293 204.666737 
L 161.489469 204.666737 
L 161.489469 186.68349 
L 164.736009 186.68349 
L 164.736009 162.965233 
L 167.982548 162.965233 
L 167.982548 157.435086 
L 171.22911 157.435086 
L 171.22911 142.503632 
L 174.475649 142.503632 
L 174.475649 145.878082 
L 177.722188 145.878082 
L 177.722188 99.61934 
L 180.968727 99.61934 
L 180.968727 99.921416 
L 184.21529 99.921416 
L 184.21529 82.557765 
L 187.461829 82.557765 
L 187.461829 95.819878 
L 190.708368 95.819878 
L 190.708368 74.129378 
L 193.95493 74.129378 
L 193.95493 70.084193 
L 197.20147 70.084193 
L 197.20147 54.144 
L 200.448009 54.144 
L 200.448009 83.407786 
L 203.694548 83.407786 
L 203.694548 70.857377 
L 206.94111 70.857377 
L 206.94111 69.500453 
L 210.187649 69.500453 
L 210.187649 76.807408 
L 213.434188 76.807408 
L 213.434188 84.575218 
L 216.680728 84.575218 
L 216.680728 90.079777 
L 219.92729 90.079777 
L 219.92729 100.080145 
L 223.173829 100.080145 
L 223.173829 108.98987 
L 226.420368 108.98987 
L 226.420368 114.658274 
L 229.666907 114.658274 
L 229.666907 135.217149 
L 232.91347 135.217149 
L 232.91347 141.412989 
L 236.160009 141.412989 
L 236.160009 150.891073 
L 239.406548 150.891073 
L 239.406548 163.149587 
L 242.65311 163.149587 
L 242.65311 173.800253 
L 245.899649 173.800253 
L 245.899649 192.387737 
L 249.146188 192.387737 
L 249.146188 189.033784 
L 252.392728 189.033784 
L 252.392728 216.018908 
L 255.63929 216.018908 
L 255.63929 215.25596 
L 258.885829 215.25596 
L 258.885829 224.396081 
L 262.132368 224.396081 
L 262.132368 239.235328 
L 265.378907 239.235328 
L 265.378907 246.439907 
L 268.62547 246.439907 
L 268.62547 248.34985 
L 271.872009 248.34985 
L 271.872009 253.439647 
L 275.118548 253.439647 
L 275.118548 267.316253 
L 278.365087 267.316253 
L 278.365087 268.611743 
L 281.611649 268.611743 
L 281.611649 271.474109 
L 284.858188 271.474109 
L 284.858188 267.99216 
L 288.104728 267.99216 
L 288.104728 274.648842 
L 291.35129 274.648842 
L 291.35129 284.060344 
L 294.597829 284.060344 
L 294.597829 284.280525 
L 297.844368 284.280525 
L 297.844368 288.694413 
L 301.090907 288.694413 
L 301.090907 291.695037 
L 304.33747 291.695037 
L 304.33747 292.954681 
L 307.584009 292.954681 
L 307.584009 293.384804 
L 310.830548 293.384804 
L 310.830548 295.601988 
L 314.077087 295.601988 
L 314.077087 297.138144 
L 317.323649 297.138144 
L 317.323649 300.06196 
L 320.570189 300.06196 
L 320.570189 299.549909 
L 323.816728 299.549909 
L 323.816728 301.439378 
L 327.063267 301.439378 
L 327.063267 301.941189 
L 330.309829 301.941189 
L 330.309829 303.047222 
L 333.556368 303.047222 
L 333.556368 301.439379 
L 336.802907 301.439379 
L 336.802907 302.524929 
L 340.049458 302.524929 
L 340.049458 303.492707 
L 343.295997 303.492707 
L 343.295997 306.20146 
L 346.542548 306.20146 
L 346.542548 304.71139 
L 349.789099 304.71139 
L 349.789099 306.257786 
L 353.035638 306.257786 
L 353.035638 304.834282 
L 356.282189 304.834282 
L 356.282189 305.540914 
L 359.528728 305.540914 
L 359.528728 305.003259 
L 362.775278 305.003259 
L 362.775278 306.140014 
L 366.021818 306.140014 
L 366.021818 307.302372 
L 369.268368 307.302372 
L 369.268368 306.728874 
L 372.514907 306.728874 
L 372.514907 307.450867 
L 375.761458 307.450867 
L 375.761458 305.622842 
L 379.007997 305.622842 
L 379.007997 306.908092 
L 385.501087 306.995141 
L 385.501087 307.153877 
L 388.747638 307.153877 
L 388.747638 307.271648 
L 391.994177 307.271648 
L 391.994177 307.082189 
L 395.240728 307.082189 
L 395.240728 307.584 
L 398.487267 307.584 
L 398.487267 307.584 
" style="fill:none;stroke:#9467bd;stroke-linejoin:miter;"/>
   </g>
   <g id="patch_8">
    <path clip-path="url(#p943cea218e)" d="M 73.832745 307.584 
L 398.487273 307.584 
L 398.487273 307.584 
" style="fill:none;stroke:#000000;stroke-linejoin:miter;"/>
   </g>
   <g id="matplotlib.axis_1">
    <g id="xtick_1">
     <g id="line2d_1">
      <defs>
       <path d="M 0 0 
L 0 3.5 
" id="m9a209e3271" style="stroke:#000000;stroke-width:0.8;"/>
      </defs>
      <g>
       <use style="stroke:#000000;stroke-width:0.8;" x="96.372739" xlink:href="#m9a209e3271" y="307.584"/>
      </g>
     </g>
     <g id="text_1">
      <!-- −4.5 -->
      <defs>
       <path d="M 10.59375 35.5 
L 73.1875 35.5 
L 73.1875 27.203125 
L 10.59375 27.203125 
z
" id="DejaVuSans-8722"/>
       <path d="M 37.796875 64.3125 
L 12.890625 25.390625 
L 37.796875 25.390625 
z
M 35.203125 72.90625 
L 47.609375 72.90625 
L 47.609375 25.390625 
L 58.015625 25.390625 
L 58.015625 17.1875 
L 47.609375 17.1875 
L 47.609375 0 
L 37.796875 0 
L 37.796875 17.1875 
L 4.890625 17.1875 
L 4.890625 26.703125 
z
" id="DejaVuSans-52"/>
       <path d="M 10.6875 12.40625 
L 21 12.40625 
L 21 0 
L 10.6875 0 
z
" id="DejaVuSans-46"/>
       <path d="M 10.796875 72.90625 
L 49.515625 72.90625 
L 49.515625 64.59375 
L 19.828125 64.59375 
L 19.828125 46.734375 
Q 21.96875 47.46875 24.109375 47.828125 
Q 26.265625 48.1875 28.421875 48.1875 
Q 40.625 48.1875 47.75 41.5 
Q 54.890625 34.8125 54.890625 23.390625 
Q 54.890625 11.625 47.5625 5.09375 
Q 40.234375 -1.421875 26.90625 -1.421875 
Q 22.3125 -1.421875 17.546875 -0.640625 
Q 12.796875 0.140625 7.71875 1.703125 
L 7.71875 11.625 
Q 12.109375 9.234375 16.796875 8.0625 
Q 21.484375 6.890625 26.703125 6.890625 
Q 35.15625 6.890625 40.078125 11.328125 
Q 45.015625 15.765625 45.015625 23.390625 
Q 45.015625 31 40.078125 35.4375 
Q 35.15625 39.890625 26.703125 39.890625 
Q 22.75 39.890625 18.8125 39.015625 
Q 14.890625 38.140625 10.796875 36.28125 
z
" id="DejaVuSans-53"/>
      </defs>
      <g transform="translate(84.231333 322.182437)scale(0.1 -0.1)">
       <use xlink:href="#DejaVuSans-8722"/>
       <use x="83.789062" xlink:href="#DejaVuSans-52"/>
       <use x="147.412109" xlink:href="#DejaVuSans-46"/>
       <use x="179.199219" xlink:href="#DejaVuSans-53"/>
      </g>
     </g>
    </g>
    <g id="xtick_2">
     <g id="line2d_2">
      <g>
       <use style="stroke:#000000;stroke-width:0.8;" x="145.026676" xlink:href="#m9a209e3271" y="307.584"/>
      </g>
     </g>
     <g id="text_2">
      <!-- −4.0 -->
      <defs>
       <path d="M 31.78125 66.40625 
Q 24.171875 66.40625 20.328125 58.90625 
Q 16.5 51.421875 16.5 36.375 
Q 16.5 21.390625 20.328125 13.890625 
Q 24.171875 6.390625 31.78125 6.390625 
Q 39.453125 6.390625 43.28125 13.890625 
Q 47.125 21.390625 47.125 36.375 
Q 47.125 51.421875 43.28125 58.90625 
Q 39.453125 66.40625 31.78125 66.40625 
z
M 31.78125 74.21875 
Q 44.046875 74.21875 50.515625 64.515625 
Q 56.984375 54.828125 56.984375 36.375 
Q 56.984375 17.96875 50.515625 8.265625 
Q 44.046875 -1.421875 31.78125 -1.421875 
Q 19.53125 -1.421875 13.0625 8.265625 
Q 6.59375 17.96875 6.59375 36.375 
Q 6.59375 54.828125 13.0625 64.515625 
Q 19.53125 74.21875 31.78125 74.21875 
z
" id="DejaVuSans-48"/>
      </defs>
      <g transform="translate(132.88527 322.182437)scale(0.1 -0.1)">
       <use xlink:href="#DejaVuSans-8722"/>
       <use x="83.789062" xlink:href="#DejaVuSans-52"/>
       <use x="147.412109" xlink:href="#DejaVuSans-46"/>
       <use x="179.199219" xlink:href="#DejaVuSans-48"/>
      </g>
     </g>
    </g>
    <g id="xtick_3">
     <g id="line2d_3">
      <g>
       <use style="stroke:#000000;stroke-width:0.8;" x="193.680614" xlink:href="#m9a209e3271" y="307.584"/>
      </g>
     </g>
     <g id="text_3">
      <!-- −3.5 -->
      <defs>
       <path d="M 40.578125 39.3125 
Q 47.65625 37.796875 51.625 33 
Q 55.609375 28.21875 55.609375 21.1875 
Q 55.609375 10.40625 48.1875 4.484375 
Q 40.765625 -1.421875 27.09375 -1.421875 
Q 22.515625 -1.421875 17.65625 -0.515625 
Q 12.796875 0.390625 7.625 2.203125 
L 7.625 11.71875 
Q 11.71875 9.328125 16.59375 8.109375 
Q 21.484375 6.890625 26.8125 6.890625 
Q 36.078125 6.890625 40.9375 10.546875 
Q 45.796875 14.203125 45.796875 21.1875 
Q 45.796875 27.640625 41.28125 31.265625 
Q 36.765625 34.90625 28.71875 34.90625 
L 20.21875 34.90625 
L 20.21875 43.015625 
L 29.109375 43.015625 
Q 36.375 43.015625 40.234375 45.921875 
Q 44.09375 48.828125 44.09375 54.296875 
Q 44.09375 59.90625 40.109375 62.90625 
Q 36.140625 65.921875 28.71875 65.921875 
Q 24.65625 65.921875 20.015625 65.03125 
Q 15.375 64.15625 9.8125 62.3125 
L 9.8125 71.09375 
Q 15.4375 72.65625 20.34375 73.4375 
Q 25.25 74.21875 29.59375 74.21875 
Q 40.828125 74.21875 47.359375 69.109375 
Q 53.90625 64.015625 53.90625 55.328125 
Q 53.90625 49.265625 50.4375 45.09375 
Q 46.96875 40.921875 40.578125 39.3125 
z
" id="DejaVuSans-51"/>
      </defs>
      <g transform="translate(181.539207 322.182437)scale(0.1 -0.1)">
       <use xlink:href="#DejaVuSans-8722"/>
       <use x="83.789062" xlink:href="#DejaVuSans-51"/>
       <use x="147.412109" xlink:href="#DejaVuSans-46"/>
       <use x="179.199219" xlink:href="#DejaVuSans-53"/>
      </g>
     </g>
    </g>
    <g id="xtick_4">
     <g id="line2d_4">
      <g>
       <use style="stroke:#000000;stroke-width:0.8;" x="242.334551" xlink:href="#m9a209e3271" y="307.584"/>
      </g>
     </g>
     <g id="text_4">
      <!-- −3.0 -->
      <g transform="translate(230.193145 322.182437)scale(0.1 -0.1)">
       <use xlink:href="#DejaVuSans-8722"/>
       <use x="83.789062" xlink:href="#DejaVuSans-51"/>
       <use x="147.412109" xlink:href="#DejaVuSans-46"/>
       <use x="179.199219" xlink:href="#DejaVuSans-48"/>
      </g>
     </g>
    </g>
    <g id="xtick_5">
     <g id="line2d_5">
      <g>
       <use style="stroke:#000000;stroke-width:0.8;" x="290.988488" xlink:href="#m9a209e3271" y="307.584"/>
      </g>
     </g>
     <g id="text_5">
      <!-- −2.5 -->
      <defs>
       <path d="M 19.1875 8.296875 
L 53.609375 8.296875 
L 53.609375 0 
L 7.328125 0 
L 7.328125 8.296875 
Q 12.9375 14.109375 22.625 23.890625 
Q 32.328125 33.6875 34.8125 36.53125 
Q 39.546875 41.84375 41.421875 45.53125 
Q 43.3125 49.21875 43.3125 52.78125 
Q 43.3125 58.59375 39.234375 62.25 
Q 35.15625 65.921875 28.609375 65.921875 
Q 23.96875 65.921875 18.8125 64.3125 
Q 13.671875 62.703125 7.8125 59.421875 
L 7.8125 69.390625 
Q 13.765625 71.78125 18.9375 73 
Q 24.125 74.21875 28.421875 74.21875 
Q 39.75 74.21875 46.484375 68.546875 
Q 53.21875 62.890625 53.21875 53.421875 
Q 53.21875 48.921875 51.53125 44.890625 
Q 49.859375 40.875 45.40625 35.40625 
Q 44.1875 33.984375 37.640625 27.21875 
Q 31.109375 20.453125 19.1875 8.296875 
z
" id="DejaVuSans-50"/>
      </defs>
      <g transform="translate(278.847082 322.182437)scale(0.1 -0.1)">
       <use xlink:href="#DejaVuSans-8722"/>
       <use x="83.789062" xlink:href="#DejaVuSans-50"/>
       <use x="147.412109" xlink:href="#DejaVuSans-46"/>
       <use x="179.199219" xlink:href="#DejaVuSans-53"/>
      </g>
     </g>
    </g>
    <g id="xtick_6">
     <g id="line2d_6">
      <g>
       <use style="stroke:#000000;stroke-width:0.8;" x="339.642426" xlink:href="#m9a209e3271" y="307.584"/>
      </g>
     </g>
     <g id="text_6">
      <!-- −2.0 -->
      <g transform="translate(327.501019 322.182437)scale(0.1 -0.1)">
       <use xlink:href="#DejaVuSans-8722"/>
       <use x="83.789062" xlink:href="#DejaVuSans-50"/>
       <use x="147.412109" xlink:href="#DejaVuSans-46"/>
       <use x="179.199219" xlink:href="#DejaVuSans-48"/>
      </g>
     </g>
    </g>
    <g id="xtick_7">
     <g id="line2d_7">
      <g>
       <use style="stroke:#000000;stroke-width:0.8;" x="388.296363" xlink:href="#m9a209e3271" y="307.584"/>
      </g>
     </g>
     <g id="text_7">
      <!-- −1.5 -->
      <defs>
       <path d="M 12.40625 8.296875 
L 28.515625 8.296875 
L 28.515625 63.921875 
L 10.984375 60.40625 
L 10.984375 69.390625 
L 28.421875 72.90625 
L 38.28125 72.90625 
L 38.28125 8.296875 
L 54.390625 8.296875 
L 54.390625 0 
L 12.40625 0 
z
" id="DejaVuSans-49"/>
      </defs>
      <g transform="translate(376.154957 322.182437)scale(0.1 -0.1)">
       <use xlink:href="#DejaVuSans-8722"/>
       <use x="83.789062" xlink:href="#DejaVuSans-49"/>
       <use x="147.412109" xlink:href="#DejaVuSans-46"/>
       <use x="179.199219" xlink:href="#DejaVuSans-53"/>
      </g>
     </g>
    </g>
    <g id="text_8">
     <!-- j_zlogz -->
     <defs>
      <path d="M 9.421875 54.6875 
L 18.40625 54.6875 
L 18.40625 -0.984375 
Q 18.40625 -11.421875 14.421875 -16.109375 
Q 10.453125 -20.796875 1.609375 -20.796875 
L -1.8125 -20.796875 
L -1.8125 -13.1875 
L 0.59375 -13.1875 
Q 5.71875 -13.1875 7.5625 -10.8125 
Q 9.421875 -8.453125 9.421875 -0.984375 
z
M 9.421875 75.984375 
L 18.40625 75.984375 
L 18.40625 64.59375 
L 9.421875 64.59375 
z
" id="DejaVuSans-106"/>
      <path d="M 50.984375 -16.609375 
L 50.984375 -23.578125 
L -0.984375 -23.578125 
L -0.984375 -16.609375 
z
" id="DejaVuSans-95"/>
      <path d="M 5.515625 54.6875 
L 48.1875 54.6875 
L 48.1875 46.484375 
L 14.40625 7.171875 
L 48.1875 7.171875 
L 48.1875 0 
L 4.296875 0 
L 4.296875 8.203125 
L 38.09375 47.515625 
L 5.515625 47.515625 
z
" id="DejaVuSans-122"/>
      <path d="M 9.421875 75.984375 
L 18.40625 75.984375 
L 18.40625 0 
L 9.421875 0 
z
" id="DejaVuSans-108"/>
      <path d="M 30.609375 48.390625 
Q 23.390625 48.390625 19.1875 42.75 
Q 14.984375 37.109375 14.984375 27.296875 
Q 14.984375 17.484375 19.15625 11.84375 
Q 23.34375 6.203125 30.609375 6.203125 
Q 37.796875 6.203125 41.984375 11.859375 
Q 46.1875 17.53125 46.1875 27.296875 
Q 46.1875 37.015625 41.984375 42.703125 
Q 37.796875 48.390625 30.609375 48.390625 
z
M 30.609375 56 
Q 42.328125 56 49.015625 48.375 
Q 55.71875 40.765625 55.71875 27.296875 
Q 55.71875 13.875 49.015625 6.21875 
Q 42.328125 -1.421875 30.609375 -1.421875 
Q 18.84375 -1.421875 12.171875 6.21875 
Q 5.515625 13.875 5.515625 27.296875 
Q 5.515625 40.765625 12.171875 48.375 
Q 18.84375 56 30.609375 56 
z
" id="DejaVuSans-111"/>
      <path d="M 45.40625 27.984375 
Q 45.40625 37.75 41.375 43.109375 
Q 37.359375 48.484375 30.078125 48.484375 
Q 22.859375 48.484375 18.828125 43.109375 
Q 14.796875 37.75 14.796875 27.984375 
Q 14.796875 18.265625 18.828125 12.890625 
Q 22.859375 7.515625 30.078125 7.515625 
Q 37.359375 7.515625 41.375 12.890625 
Q 45.40625 18.265625 45.40625 27.984375 
z
M 54.390625 6.78125 
Q 54.390625 -7.171875 48.1875 -13.984375 
Q 42 -20.796875 29.203125 -20.796875 
Q 24.46875 -20.796875 20.265625 -20.09375 
Q 16.0625 -19.390625 12.109375 -17.921875 
L 12.109375 -9.1875 
Q 16.0625 -11.328125 19.921875 -12.34375 
Q 23.78125 -13.375 27.78125 -13.375 
Q 36.625 -13.375 41.015625 -8.765625 
Q 45.40625 -4.15625 45.40625 5.171875 
L 45.40625 9.625 
Q 42.625 4.78125 38.28125 2.390625 
Q 33.9375 0 27.875 0 
Q 17.828125 0 11.671875 7.65625 
Q 5.515625 15.328125 5.515625 27.984375 
Q 5.515625 40.671875 11.671875 48.328125 
Q 17.828125 56 27.875 56 
Q 33.9375 56 38.28125 53.609375 
Q 42.625 51.21875 45.40625 46.390625 
L 45.40625 54.6875 
L 54.390625 54.6875 
z
" id="DejaVuSans-103"/>
     </defs>
     <g transform="translate(219.399844 335.860562)scale(0.1 -0.1)">
      <use xlink:href="#DejaVuSans-106"/>
      <use x="27.783203" xlink:href="#DejaVuSans-95"/>
      <use x="77.783203" xlink:href="#DejaVuSans-122"/>
      <use x="130.273438" xlink:href="#DejaVuSans-108"/>
      <use x="158.056641" xlink:href="#DejaVuSans-111"/>
      <use x="219.238281" xlink:href="#DejaVuSans-103"/>
      <use x="282.714844" xlink:href="#DejaVuSans-122"/>
     </g>
    </g>
   </g>
   <g id="matplotlib.axis_2">
    <g id="ytick_1">
     <g id="line2d_8">
      <defs>
       <path d="M 0 0 
L -3.5 0 
" id="mcd6112c4ae" style="stroke:#000000;stroke-width:0.8;"/>
      </defs>
      <g>
       <use style="stroke:#000000;stroke-width:0.8;" x="57.6" xlink:href="#mcd6112c4ae" y="307.584"/>
      </g>
     </g>
     <g id="text_9">
      <!-- 0.000 -->
      <g transform="translate(21.971875 311.383219)scale(0.1 -0.1)">
       <use xlink:href="#DejaVuSans-48"/>
       <use x="63.623047" xlink:href="#DejaVuSans-46"/>
       <use x="95.410156" xlink:href="#DejaVuSans-48"/>
       <use x="159.033203" xlink:href="#DejaVuSans-48"/>
       <use x="222.65625" xlink:href="#DejaVuSans-48"/>
      </g>
     </g>
    </g>
    <g id="ytick_2">
     <g id="line2d_9">
      <g>
       <use style="stroke:#000000;stroke-width:0.8;" x="57.6" xlink:href="#mcd6112c4ae" y="255.150839"/>
      </g>
     </g>
     <g id="text_10">
      <!-- 0.002 -->
      <g transform="translate(21.971875 258.950058)scale(0.1 -0.1)">
       <use xlink:href="#DejaVuSans-48"/>
       <use x="63.623047" xlink:href="#DejaVuSans-46"/>
       <use x="95.410156" xlink:href="#DejaVuSans-48"/>
       <use x="159.033203" xlink:href="#DejaVuSans-48"/>
       <use x="222.65625" xlink:href="#DejaVuSans-50"/>
      </g>
     </g>
    </g>
    <g id="ytick_3">
     <g id="line2d_10">
      <g>
       <use style="stroke:#000000;stroke-width:0.8;" x="57.6" xlink:href="#mcd6112c4ae" y="202.717678"/>
      </g>
     </g>
     <g id="text_11">
      <!-- 0.004 -->
      <g transform="translate(21.971875 206.516897)scale(0.1 -0.1)">
       <use xlink:href="#DejaVuSans-48"/>
       <use x="63.623047" xlink:href="#DejaVuSans-46"/>
       <use x="95.410156" xlink:href="#DejaVuSans-48"/>
       <use x="159.033203" xlink:href="#DejaVuSans-48"/>
       <use x="222.65625" xlink:href="#DejaVuSans-52"/>
      </g>
     </g>
    </g>
    <g id="ytick_4">
     <g id="line2d_11">
      <g>
       <use style="stroke:#000000;stroke-width:0.8;" x="57.6" xlink:href="#mcd6112c4ae" y="150.284517"/>
      </g>
     </g>
     <g id="text_12">
      <!-- 0.006 -->
      <defs>
       <path d="M 33.015625 40.375 
Q 26.375 40.375 22.484375 35.828125 
Q 18.609375 31.296875 18.609375 23.390625 
Q 18.609375 15.53125 22.484375 10.953125 
Q 26.375 6.390625 33.015625 6.390625 
Q 39.65625 6.390625 43.53125 10.953125 
Q 47.40625 15.53125 47.40625 23.390625 
Q 47.40625 31.296875 43.53125 35.828125 
Q 39.65625 40.375 33.015625 40.375 
z
M 52.59375 71.296875 
L 52.59375 62.3125 
Q 48.875 64.0625 45.09375 64.984375 
Q 41.3125 65.921875 37.59375 65.921875 
Q 27.828125 65.921875 22.671875 59.328125 
Q 17.53125 52.734375 16.796875 39.40625 
Q 19.671875 43.65625 24.015625 45.921875 
Q 28.375 48.1875 33.59375 48.1875 
Q 44.578125 48.1875 50.953125 41.515625 
Q 57.328125 34.859375 57.328125 23.390625 
Q 57.328125 12.15625 50.6875 5.359375 
Q 44.046875 -1.421875 33.015625 -1.421875 
Q 20.359375 -1.421875 13.671875 8.265625 
Q 6.984375 17.96875 6.984375 36.375 
Q 6.984375 53.65625 15.1875 63.9375 
Q 23.390625 74.21875 37.203125 74.21875 
Q 40.921875 74.21875 44.703125 73.484375 
Q 48.484375 72.75 52.59375 71.296875 
z
" id="DejaVuSans-54"/>
      </defs>
      <g transform="translate(21.971875 154.083736)scale(0.1 -0.1)">
       <use xlink:href="#DejaVuSans-48"/>
       <use x="63.623047" xlink:href="#DejaVuSans-46"/>
       <use x="95.410156" xlink:href="#DejaVuSans-48"/>
       <use x="159.033203" xlink:href="#DejaVuSans-48"/>
       <use x="222.65625" xlink:href="#DejaVuSans-54"/>
      </g>
     </g>
    </g>
    <g id="ytick_5">
     <g id="line2d_12">
      <g>
       <use style="stroke:#000000;stroke-width:0.8;" x="57.6" xlink:href="#mcd6112c4ae" y="97.851356"/>
      </g>
     </g>
     <g id="text_13">
      <!-- 0.008 -->
      <defs>
       <path d="M 31.78125 34.625 
Q 24.75 34.625 20.71875 30.859375 
Q 16.703125 27.09375 16.703125 20.515625 
Q 16.703125 13.921875 20.71875 10.15625 
Q 24.75 6.390625 31.78125 6.390625 
Q 38.8125 6.390625 42.859375 10.171875 
Q 46.921875 13.96875 46.921875 20.515625 
Q 46.921875 27.09375 42.890625 30.859375 
Q 38.875 34.625 31.78125 34.625 
z
M 21.921875 38.8125 
Q 15.578125 40.375 12.03125 44.71875 
Q 8.5 49.078125 8.5 55.328125 
Q 8.5 64.0625 14.71875 69.140625 
Q 20.953125 74.21875 31.78125 74.21875 
Q 42.671875 74.21875 48.875 69.140625 
Q 55.078125 64.0625 55.078125 55.328125 
Q 55.078125 49.078125 51.53125 44.71875 
Q 48 40.375 41.703125 38.8125 
Q 48.828125 37.15625 52.796875 32.3125 
Q 56.78125 27.484375 56.78125 20.515625 
Q 56.78125 9.90625 50.3125 4.234375 
Q 43.84375 -1.421875 31.78125 -1.421875 
Q 19.734375 -1.421875 13.25 4.234375 
Q 6.78125 9.90625 6.78125 20.515625 
Q 6.78125 27.484375 10.78125 32.3125 
Q 14.796875 37.15625 21.921875 38.8125 
z
M 18.3125 54.390625 
Q 18.3125 48.734375 21.84375 45.5625 
Q 25.390625 42.390625 31.78125 42.390625 
Q 38.140625 42.390625 41.71875 45.5625 
Q 45.3125 48.734375 45.3125 54.390625 
Q 45.3125 60.0625 41.71875 63.234375 
Q 38.140625 66.40625 31.78125 66.40625 
Q 25.390625 66.40625 21.84375 63.234375 
Q 18.3125 60.0625 18.3125 54.390625 
z
" id="DejaVuSans-56"/>
      </defs>
      <g transform="translate(21.971875 101.650575)scale(0.1 -0.1)">
       <use xlink:href="#DejaVuSans-48"/>
       <use x="63.623047" xlink:href="#DejaVuSans-46"/>
       <use x="95.410156" xlink:href="#DejaVuSans-48"/>
       <use x="159.033203" xlink:href="#DejaVuSans-48"/>
       <use x="222.65625" xlink:href="#DejaVuSans-56"/>
      </g>
     </g>
    </g>
    <g id="ytick_6">
     <g id="line2d_13">
      <g>
       <use style="stroke:#000000;stroke-width:0.8;" x="57.6" xlink:href="#mcd6112c4ae" y="45.418195"/>
      </g>
     </g>
     <g id="text_14">
      <!-- 0.010 -->
      <g transform="translate(21.971875 49.217414)scale(0.1 -0.1)">
       <use xlink:href="#DejaVuSans-48"/>
       <use x="63.623047" xlink:href="#DejaVuSans-46"/>
       <use x="95.410156" xlink:href="#DejaVuSans-48"/>
       <use x="159.033203" xlink:href="#DejaVuSans-49"/>
       <use x="222.65625" xlink:href="#DejaVuSans-48"/>
      </g>
     </g>
    </g>
    <g id="text_15">
     <!-- Prob. Density (a.u.) -->
     <defs>
      <path d="M 19.671875 64.796875 
L 19.671875 37.40625 
L 32.078125 37.40625 
Q 38.96875 37.40625 42.71875 40.96875 
Q 46.484375 44.53125 46.484375 51.125 
Q 46.484375 57.671875 42.71875 61.234375 
Q 38.96875 64.796875 32.078125 64.796875 
z
M 9.8125 72.90625 
L 32.078125 72.90625 
Q 44.34375 72.90625 50.609375 67.359375 
Q 56.890625 61.8125 56.890625 51.125 
Q 56.890625 40.328125 50.609375 34.8125 
Q 44.34375 29.296875 32.078125 29.296875 
L 19.671875 29.296875 
L 19.671875 0 
L 9.8125 0 
z
" id="DejaVuSans-80"/>
      <path d="M 41.109375 46.296875 
Q 39.59375 47.171875 37.8125 47.578125 
Q 36.03125 48 33.890625 48 
Q 26.265625 48 22.1875 43.046875 
Q 18.109375 38.09375 18.109375 28.8125 
L 18.109375 0 
L 9.078125 0 
L 9.078125 54.6875 
L 18.109375 54.6875 
L 18.109375 46.1875 
Q 20.953125 51.171875 25.484375 53.578125 
Q 30.03125 56 36.53125 56 
Q 37.453125 56 38.578125 55.875 
Q 39.703125 55.765625 41.0625 55.515625 
z
" id="DejaVuSans-114"/>
      <path d="M 48.6875 27.296875 
Q 48.6875 37.203125 44.609375 42.84375 
Q 40.53125 48.484375 33.40625 48.484375 
Q 26.265625 48.484375 22.1875 42.84375 
Q 18.109375 37.203125 18.109375 27.296875 
Q 18.109375 17.390625 22.1875 11.75 
Q 26.265625 6.109375 33.40625 6.109375 
Q 40.53125 6.109375 44.609375 11.75 
Q 48.6875 17.390625 48.6875 27.296875 
z
M 18.109375 46.390625 
Q 20.953125 51.265625 25.265625 53.625 
Q 29.59375 56 35.59375 56 
Q 45.5625 56 51.78125 48.09375 
Q 58.015625 40.1875 58.015625 27.296875 
Q 58.015625 14.40625 51.78125 6.484375 
Q 45.5625 -1.421875 35.59375 -1.421875 
Q 29.59375 -1.421875 25.265625 0.953125 
Q 20.953125 3.328125 18.109375 8.203125 
L 18.109375 0 
L 9.078125 0 
L 9.078125 75.984375 
L 18.109375 75.984375 
z
" id="DejaVuSans-98"/>
      <path id="DejaVuSans-32"/>
      <path d="M 19.671875 64.796875 
L 19.671875 8.109375 
L 31.59375 8.109375 
Q 46.6875 8.109375 53.6875 14.9375 
Q 60.6875 21.78125 60.6875 36.53125 
Q 60.6875 51.171875 53.6875 57.984375 
Q 46.6875 64.796875 31.59375 64.796875 
z
M 9.8125 72.90625 
L 30.078125 72.90625 
Q 51.265625 72.90625 61.171875 64.09375 
Q 71.09375 55.28125 71.09375 36.53125 
Q 71.09375 17.671875 61.125 8.828125 
Q 51.171875 0 30.078125 0 
L 9.8125 0 
z
" id="DejaVuSans-68"/>
      <path d="M 56.203125 29.59375 
L 56.203125 25.203125 
L 14.890625 25.203125 
Q 15.484375 15.921875 20.484375 11.0625 
Q 25.484375 6.203125 34.421875 6.203125 
Q 39.59375 6.203125 44.453125 7.46875 
Q 49.3125 8.734375 54.109375 11.28125 
L 54.109375 2.78125 
Q 49.265625 0.734375 44.1875 -0.34375 
Q 39.109375 -1.421875 33.890625 -1.421875 
Q 20.796875 -1.421875 13.15625 6.1875 
Q 5.515625 13.8125 5.515625 26.8125 
Q 5.515625 40.234375 12.765625 48.109375 
Q 20.015625 56 32.328125 56 
Q 43.359375 56 49.78125 48.890625 
Q 56.203125 41.796875 56.203125 29.59375 
z
M 47.21875 32.234375 
Q 47.125 39.59375 43.09375 43.984375 
Q 39.0625 48.390625 32.421875 48.390625 
Q 24.90625 48.390625 20.390625 44.140625 
Q 15.875 39.890625 15.1875 32.171875 
z
" id="DejaVuSans-101"/>
      <path d="M 54.890625 33.015625 
L 54.890625 0 
L 45.90625 0 
L 45.90625 32.71875 
Q 45.90625 40.484375 42.875 44.328125 
Q 39.84375 48.1875 33.796875 48.1875 
Q 26.515625 48.1875 22.3125 43.546875 
Q 18.109375 38.921875 18.109375 30.90625 
L 18.109375 0 
L 9.078125 0 
L 9.078125 54.6875 
L 18.109375 54.6875 
L 18.109375 46.1875 
Q 21.34375 51.125 25.703125 53.5625 
Q 30.078125 56 35.796875 56 
Q 45.21875 56 50.046875 50.171875 
Q 54.890625 44.34375 54.890625 33.015625 
z
" id="DejaVuSans-110"/>
      <path d="M 44.28125 53.078125 
L 44.28125 44.578125 
Q 40.484375 46.53125 36.375 47.5 
Q 32.28125 48.484375 27.875 48.484375 
Q 21.1875 48.484375 17.84375 46.4375 
Q 14.5 44.390625 14.5 40.28125 
Q 14.5 37.15625 16.890625 35.375 
Q 19.28125 33.59375 26.515625 31.984375 
L 29.59375 31.296875 
Q 39.15625 29.25 43.1875 25.515625 
Q 47.21875 21.78125 47.21875 15.09375 
Q 47.21875 7.46875 41.1875 3.015625 
Q 35.15625 -1.421875 24.609375 -1.421875 
Q 20.21875 -1.421875 15.453125 -0.5625 
Q 10.6875 0.296875 5.421875 2 
L 5.421875 11.28125 
Q 10.40625 8.6875 15.234375 7.390625 
Q 20.0625 6.109375 24.8125 6.109375 
Q 31.15625 6.109375 34.5625 8.28125 
Q 37.984375 10.453125 37.984375 14.40625 
Q 37.984375 18.0625 35.515625 20.015625 
Q 33.0625 21.96875 24.703125 23.78125 
L 21.578125 24.515625 
Q 13.234375 26.265625 9.515625 29.90625 
Q 5.8125 33.546875 5.8125 39.890625 
Q 5.8125 47.609375 11.28125 51.796875 
Q 16.75 56 26.8125 56 
Q 31.78125 56 36.171875 55.265625 
Q 40.578125 54.546875 44.28125 53.078125 
z
" id="DejaVuSans-115"/>
      <path d="M 9.421875 54.6875 
L 18.40625 54.6875 
L 18.40625 0 
L 9.421875 0 
z
M 9.421875 75.984375 
L 18.40625 75.984375 
L 18.40625 64.59375 
L 9.421875 64.59375 
z
" id="DejaVuSans-105"/>
      <path d="M 18.3125 70.21875 
L 18.3125 54.6875 
L 36.8125 54.6875 
L 36.8125 47.703125 
L 18.3125 47.703125 
L 18.3125 18.015625 
Q 18.3125 11.328125 20.140625 9.421875 
Q 21.96875 7.515625 27.59375 7.515625 
L 36.8125 7.515625 
L 36.8125 0 
L 27.59375 0 
Q 17.1875 0 13.234375 3.875 
Q 9.28125 7.765625 9.28125 18.015625 
L 9.28125 47.703125 
L 2.6875 47.703125 
L 2.6875 54.6875 
L 9.28125 54.6875 
L 9.28125 70.21875 
z
" id="DejaVuSans-116"/>
      <path d="M 32.171875 -5.078125 
Q 28.375 -14.84375 24.75 -17.8125 
Q 21.140625 -20.796875 15.09375 -20.796875 
L 7.90625 -20.796875 
L 7.90625 -13.28125 
L 13.1875 -13.28125 
Q 16.890625 -13.28125 18.9375 -11.515625 
Q 21 -9.765625 23.484375 -3.21875 
L 25.09375 0.875 
L 2.984375 54.6875 
L 12.5 54.6875 
L 29.59375 11.921875 
L 46.6875 54.6875 
L 56.203125 54.6875 
z
" id="DejaVuSans-121"/>
      <path d="M 31 75.875 
Q 24.46875 64.65625 21.28125 53.65625 
Q 18.109375 42.671875 18.109375 31.390625 
Q 18.109375 20.125 21.3125 9.0625 
Q 24.515625 -2 31 -13.1875 
L 23.1875 -13.1875 
Q 15.875 -1.703125 12.234375 9.375 
Q 8.59375 20.453125 8.59375 31.390625 
Q 8.59375 42.28125 12.203125 53.3125 
Q 15.828125 64.359375 23.1875 75.875 
z
" id="DejaVuSans-40"/>
      <path d="M 34.28125 27.484375 
Q 23.390625 27.484375 19.1875 25 
Q 14.984375 22.515625 14.984375 16.5 
Q 14.984375 11.71875 18.140625 8.90625 
Q 21.296875 6.109375 26.703125 6.109375 
Q 34.1875 6.109375 38.703125 11.40625 
Q 43.21875 16.703125 43.21875 25.484375 
L 43.21875 27.484375 
z
M 52.203125 31.203125 
L 52.203125 0 
L 43.21875 0 
L 43.21875 8.296875 
Q 40.140625 3.328125 35.546875 0.953125 
Q 30.953125 -1.421875 24.3125 -1.421875 
Q 15.921875 -1.421875 10.953125 3.296875 
Q 6 8.015625 6 15.921875 
Q 6 25.140625 12.171875 29.828125 
Q 18.359375 34.515625 30.609375 34.515625 
L 43.21875 34.515625 
L 43.21875 35.40625 
Q 43.21875 41.609375 39.140625 45 
Q 35.0625 48.390625 27.6875 48.390625 
Q 23 48.390625 18.546875 47.265625 
Q 14.109375 46.140625 10.015625 43.890625 
L 10.015625 52.203125 
Q 14.9375 54.109375 19.578125 55.046875 
Q 24.21875 56 28.609375 56 
Q 40.484375 56 46.34375 49.84375 
Q 52.203125 43.703125 52.203125 31.203125 
z
" id="DejaVuSans-97"/>
      <path d="M 8.5 21.578125 
L 8.5 54.6875 
L 17.484375 54.6875 
L 17.484375 21.921875 
Q 17.484375 14.15625 20.5 10.265625 
Q 23.53125 6.390625 29.59375 6.390625 
Q 36.859375 6.390625 41.078125 11.03125 
Q 45.3125 15.671875 45.3125 23.6875 
L 45.3125 54.6875 
L 54.296875 54.6875 
L 54.296875 0 
L 45.3125 0 
L 45.3125 8.40625 
Q 42.046875 3.421875 37.71875 1 
Q 33.40625 -1.421875 27.6875 -1.421875 
Q 18.265625 -1.421875 13.375 4.4375 
Q 8.5 10.296875 8.5 21.578125 
z
M 31.109375 56 
z
" id="DejaVuSans-117"/>
      <path d="M 8.015625 75.875 
L 15.828125 75.875 
Q 23.140625 64.359375 26.78125 53.3125 
Q 30.421875 42.28125 30.421875 31.390625 
Q 30.421875 20.453125 26.78125 9.375 
Q 23.140625 -1.703125 15.828125 -13.1875 
L 8.015625 -13.1875 
Q 14.5 -2 17.703125 9.0625 
Q 20.90625 20.125 20.90625 31.390625 
Q 20.90625 42.671875 17.703125 53.65625 
Q 14.5 64.65625 8.015625 75.875 
z
" id="DejaVuSans-41"/>
     </defs>
     <g transform="translate(15.892187 222.917844)rotate(-90)scale(0.1 -0.1)">
      <use xlink:href="#DejaVuSans-80"/>
      <use x="60.287109" xlink:href="#DejaVuSans-114"/>
      <use x="101.369141" xlink:href="#DejaVuSans-111"/>
      <use x="162.550781" xlink:href="#DejaVuSans-98"/>
      <use x="226.027344" xlink:href="#DejaVuSans-46"/>
      <use x="257.814453" xlink:href="#DejaVuSans-32"/>
      <use x="289.601562" xlink:href="#DejaVuSans-68"/>
      <use x="366.603516" xlink:href="#DejaVuSans-101"/>
      <use x="428.126953" xlink:href="#DejaVuSans-110"/>
      <use x="491.505859" xlink:href="#DejaVuSans-115"/>
      <use x="543.605469" xlink:href="#DejaVuSans-105"/>
      <use x="571.388672" xlink:href="#DejaVuSans-116"/>
      <use x="610.597656" xlink:href="#DejaVuSans-121"/>
      <use x="669.777344" xlink:href="#DejaVuSans-32"/>
      <use x="701.564453" xlink:href="#DejaVuSans-40"/>
      <use x="740.578125" xlink:href="#DejaVuSans-97"/>
      <use x="801.857422" xlink:href="#DejaVuSans-46"/>
      <use x="833.644531" xlink:href="#DejaVuSans-117"/>
      <use x="897.023438" xlink:href="#DejaVuSans-46"/>
      <use x="928.810547" xlink:href="#DejaVuSans-41"/>
     </g>
    </g>
   </g>
   <g id="patch_9">
    <path d="M 57.6 307.584 
L 57.6 41.472 
" style="fill:none;stroke:#000000;stroke-linecap:square;stroke-linejoin:miter;stroke-width:0.8;"/>
   </g>
   <g id="patch_10">
    <path d="M 414.72 307.584 
L 414.72 41.472 
" style="fill:none;stroke:#000000;stroke-linecap:square;stroke-linejoin:miter;stroke-width:0.8;"/>
   </g>
   <g id="patch_11">
    <path d="M 57.6 307.584 
L 414.72 307.584 
" style="fill:none;stroke:#000000;stroke-linecap:square;stroke-linejoin:miter;stroke-width:0.8;"/>
   </g>
   <g id="patch_12">
    <path d="M 57.6 41.472 
L 414.72 41.472 
" style="fill:none;stroke:#000000;stroke-linecap:square;stroke-linejoin:miter;stroke-width:0.8;"/>
   </g>
   <g id="legend_1">
    <g id="patch_13">
     <path d="M 325.405938 137.54075 
L 407.72 137.54075 
Q 409.72 137.54075 409.72 135.54075 
L 409.72 48.472 
Q 409.72 46.472 407.72 46.472 
L 325.405938 46.472 
Q 323.405938 46.472 323.405938 48.472 
L 323.405938 135.54075 
Q 323.405938 137.54075 325.405938 137.54075 
z
" style="fill:#ffffff;opacity:0.8;stroke:#cccccc;stroke-linejoin:miter;"/>
    </g>
    <g id="patch_14">
     <path d="M 327.405938 58.070438 
L 347.405938 58.070438 
L 347.405938 51.070438 
L 327.405938 51.070438 
z
" style="fill:none;stroke:#1f77b4;stroke-linejoin:miter;"/>
    </g>
    <g id="text_16">
     <!-- quark -->
     <defs>
      <path d="M 14.796875 27.296875 
Q 14.796875 17.390625 18.875 11.75 
Q 22.953125 6.109375 30.078125 6.109375 
Q 37.203125 6.109375 41.296875 11.75 
Q 45.40625 17.390625 45.40625 27.296875 
Q 45.40625 37.203125 41.296875 42.84375 
Q 37.203125 48.484375 30.078125 48.484375 
Q 22.953125 48.484375 18.875 42.84375 
Q 14.796875 37.203125 14.796875 27.296875 
z
M 45.40625 8.203125 
Q 42.578125 3.328125 38.25 0.953125 
Q 33.9375 -1.421875 27.875 -1.421875 
Q 17.96875 -1.421875 11.734375 6.484375 
Q 5.515625 14.40625 5.515625 27.296875 
Q 5.515625 40.1875 11.734375 48.09375 
Q 17.96875 56 27.875 56 
Q 33.9375 56 38.25 53.625 
Q 42.578125 51.265625 45.40625 46.390625 
L 45.40625 54.6875 
L 54.390625 54.6875 
L 54.390625 -20.796875 
L 45.40625 -20.796875 
z
" id="DejaVuSans-113"/>
      <path d="M 9.078125 75.984375 
L 18.109375 75.984375 
L 18.109375 31.109375 
L 44.921875 54.6875 
L 56.390625 54.6875 
L 27.390625 29.109375 
L 57.625 0 
L 45.90625 0 
L 18.109375 26.703125 
L 18.109375 0 
L 9.078125 0 
z
" id="DejaVuSans-107"/>
     </defs>
     <g transform="translate(355.405938 58.070438)scale(0.1 -0.1)">
      <use xlink:href="#DejaVuSans-113"/>
      <use x="63.476562" xlink:href="#DejaVuSans-117"/>
      <use x="126.855469" xlink:href="#DejaVuSans-97"/>
      <use x="188.134766" xlink:href="#DejaVuSans-114"/>
      <use x="229.248047" xlink:href="#DejaVuSans-107"/>
     </g>
    </g>
    <g id="patch_15">
     <path d="M 327.405938 72.748563 
L 347.405938 72.748563 
L 347.405938 65.748563 
L 327.405938 65.748563 
z
" style="fill:none;stroke:#ff7f0e;stroke-linejoin:miter;"/>
    </g>
    <g id="text_17">
     <!-- gluon -->
     <g transform="translate(355.405938 72.748563)scale(0.1 -0.1)">
      <use xlink:href="#DejaVuSans-103"/>
      <use x="63.476562" xlink:href="#DejaVuSans-108"/>
      <use x="91.259766" xlink:href="#DejaVuSans-117"/>
      <use x="154.638672" xlink:href="#DejaVuSans-111"/>
      <use x="215.820312" xlink:href="#DejaVuSans-110"/>
     </g>
    </g>
    <g id="patch_16">
     <path d="M 327.405938 87.426688 
L 347.405938 87.426688 
L 347.405938 80.426688 
L 327.405938 80.426688 
z
" style="fill:none;stroke:#2ca02c;stroke-linejoin:miter;"/>
    </g>
    <g id="text_18">
     <!-- W -->
     <defs>
      <path d="M 3.328125 72.90625 
L 13.28125 72.90625 
L 28.609375 11.28125 
L 43.890625 72.90625 
L 54.984375 72.90625 
L 70.3125 11.28125 
L 85.59375 72.90625 
L 95.609375 72.90625 
L 77.296875 0 
L 64.890625 0 
L 49.515625 63.28125 
L 33.984375 0 
L 21.578125 0 
z
" id="DejaVuSans-87"/>
     </defs>
     <g transform="translate(355.405938 87.426688)scale(0.1 -0.1)">
      <use xlink:href="#DejaVuSans-87"/>
     </g>
    </g>
    <g id="patch_17">
     <path d="M 327.405938 102.104813 
L 347.405938 102.104813 
L 347.405938 95.104813 
L 327.405938 95.104813 
z
" style="fill:none;stroke:#d62728;stroke-linejoin:miter;"/>
    </g>
    <g id="text_19">
     <!-- Z -->
     <defs>
      <path d="M 5.609375 72.90625 
L 62.890625 72.90625 
L 62.890625 65.375 
L 16.796875 8.296875 
L 64.015625 8.296875 
L 64.015625 0 
L 4.5 0 
L 4.5 7.515625 
L 50.59375 64.59375 
L 5.609375 64.59375 
z
" id="DejaVuSans-90"/>
     </defs>
     <g transform="translate(355.405938 102.104813)scale(0.1 -0.1)">
      <use xlink:href="#DejaVuSans-90"/>
     </g>
    </g>
    <g id="patch_18">
     <path d="M 327.405938 116.782938 
L 347.405938 116.782938 
L 347.405938 109.782938 
L 327.405938 109.782938 
z
" style="fill:none;stroke:#9467bd;stroke-linejoin:miter;"/>
    </g>
    <g id="text_20">
     <!-- top -->
     <defs>
      <path d="M 18.109375 8.203125 
L 18.109375 -20.796875 
L 9.078125 -20.796875 
L 9.078125 54.6875 
L 18.109375 54.6875 
L 18.109375 46.390625 
Q 20.953125 51.265625 25.265625 53.625 
Q 29.59375 56 35.59375 56 
Q 45.5625 56 51.78125 48.09375 
Q 58.015625 40.1875 58.015625 27.296875 
Q 58.015625 14.40625 51.78125 6.484375 
Q 45.5625 -1.421875 35.59375 -1.421875 
Q 29.59375 -1.421875 25.265625 0.953125 
Q 20.953125 3.328125 18.109375 8.203125 
z
M 48.6875 27.296875 
Q 48.6875 37.203125 44.609375 42.84375 
Q 40.53125 48.484375 33.40625 48.484375 
Q 26.265625 48.484375 22.1875 42.84375 
Q 18.109375 37.203125 18.109375 27.296875 
Q 18.109375 17.390625 22.1875 11.75 
Q 26.265625 6.109375 33.40625 6.109375 
Q 40.53125 6.109375 44.609375 11.75 
Q 48.6875 17.390625 48.6875 27.296875 
z
" id="DejaVuSans-112"/>
     </defs>
     <g transform="translate(355.405938 116.782938)scale(0.1 -0.1)">
      <use xlink:href="#DejaVuSans-116"/>
      <use x="39.208984" xlink:href="#DejaVuSans-111"/>
      <use x="100.390625" xlink:href="#DejaVuSans-112"/>
     </g>
    </g>
    <g id="patch_19">
     <path d="M 327.405938 131.461063 
L 347.405938 131.461063 
L 347.405938 124.461063 
L 327.405938 124.461063 
z
" style="fill:none;stroke:#000000;stroke-linejoin:miter;"/>
    </g>
    <g id="text_21">
     <!-- undefined -->
     <defs>
      <path d="M 45.40625 46.390625 
L 45.40625 75.984375 
L 54.390625 75.984375 
L 54.390625 0 
L 45.40625 0 
L 45.40625 8.203125 
Q 42.578125 3.328125 38.25 0.953125 
Q 33.9375 -1.421875 27.875 -1.421875 
Q 17.96875 -1.421875 11.734375 6.484375 
Q 5.515625 14.40625 5.515625 27.296875 
Q 5.515625 40.1875 11.734375 48.09375 
Q 17.96875 56 27.875 56 
Q 33.9375 56 38.25 53.625 
Q 42.578125 51.265625 45.40625 46.390625 
z
M 14.796875 27.296875 
Q 14.796875 17.390625 18.875 11.75 
Q 22.953125 6.109375 30.078125 6.109375 
Q 37.203125 6.109375 41.296875 11.75 
Q 45.40625 17.390625 45.40625 27.296875 
Q 45.40625 37.203125 41.296875 42.84375 
Q 37.203125 48.484375 30.078125 48.484375 
Q 22.953125 48.484375 18.875 42.84375 
Q 14.796875 37.203125 14.796875 27.296875 
z
" id="DejaVuSans-100"/>
      <path d="M 37.109375 75.984375 
L 37.109375 68.5 
L 28.515625 68.5 
Q 23.6875 68.5 21.796875 66.546875 
Q 19.921875 64.59375 19.921875 59.515625 
L 19.921875 54.6875 
L 34.71875 54.6875 
L 34.71875 47.703125 
L 19.921875 47.703125 
L 19.921875 0 
L 10.890625 0 
L 10.890625 47.703125 
L 2.296875 47.703125 
L 2.296875 54.6875 
L 10.890625 54.6875 
L 10.890625 58.5 
Q 10.890625 67.625 15.140625 71.796875 
Q 19.390625 75.984375 28.609375 75.984375 
z
" id="DejaVuSans-102"/>
     </defs>
     <g transform="translate(355.405938 131.461063)scale(0.1 -0.1)">
      <use xlink:href="#DejaVuSans-117"/>
      <use x="63.378906" xlink:href="#DejaVuSans-110"/>
      <use x="126.757812" xlink:href="#DejaVuSans-100"/>
      <use x="190.234375" xlink:href="#DejaVuSans-101"/>
      <use x="251.757812" xlink:href="#DejaVuSans-102"/>
      <use x="286.962891" xlink:href="#DejaVuSans-105"/>
      <use x="314.746094" xlink:href="#DejaVuSans-110"/>
      <use x="378.125" xlink:href="#DejaVuSans-101"/>
      <use x="439.648438" xlink:href="#DejaVuSans-100"/>
     </g>
    </g>
   </g>
  </g>
 </g>
 <defs>
  <clipPath id="p943cea218e">
   <rect height="266.112" width="357.12" x="57.6" y="41.472"/>
  </clipPath>
 </defs>
</svg>
