<?xml version="1.0" encoding="utf-8" standalone="no"?>
<!DOCTYPE svg PUBLIC "-//W3C//DTD SVG 1.1//EN"
  "http://www.w3.org/Graphics/SVG/1.1/DTD/svg11.dtd">
<!-- Created with matplotlib (https://matplotlib.org/) -->
<svg height="345.6pt" version="1.1" viewBox="0 0 460.8 345.6" width="460.8pt" xmlns="http://www.w3.org/2000/svg" xmlns:xlink="http://www.w3.org/1999/xlink">
 <defs>
  <style type="text/css">
*{stroke-linecap:butt;stroke-linejoin:round;}
  </style>
 </defs>
 <g id="figure_1">
  <g id="patch_1">
   <path d="M 0 345.6 
L 460.8 345.6 
L 460.8 0 
L 0 0 
z
" style="fill:#ffffff;"/>
  </g>
  <g id="axes_1">
   <g id="patch_2">
    <path d="M 57.6 307.584 
L 414.72 307.584 
L 414.72 41.472 
L 57.6 41.472 
z
" style="fill:#ffffff;"/>
   </g>
   <g id="patch_3">
    <path clip-path="url(#pd43a7af5f7)" d="M 73.832727 307.584 
L 73.832727 168.948964 
L 77.079273 168.948964 
L 77.079273 54.144 
L 80.325818 54.144 
L 80.325818 177.996122 
L 83.572364 177.996122 
L 83.572364 235.988041 
L 86.81891 235.988041 
L 86.81891 253.150241 
L 90.065455 253.150241 
L 90.065455 260.957821 
L 93.312 260.957821 
L 93.312 267.592405 
L 96.558545 267.592405 
L 96.558545 270.535674 
L 99.805091 270.535674 
L 99.805091 273.040287 
L 103.051636 273.040287 
L 103.051636 276.012927 
L 106.298181 276.012927 
L 106.298181 279.030605 
L 109.544727 279.030605 
L 109.544727 276.114755 
L 112.791272 276.114755 
L 112.791272 283.62077 
L 116.037817 283.62077 
L 116.037817 282.148157 
L 119.284362 282.148157 
L 119.284362 280.046946 
L 122.530911 280.046946 
L 122.530911 288.116935 
L 125.777453 288.116935 
L 125.777453 284.541153 
L 129.024001 284.541153 
L 129.024001 282.739551 
L 135.517092 282.733677 
L 135.517092 287.104513 
L 138.763634 287.104513 
L 138.763634 288.866949 
L 142.010182 288.866949 
L 142.010182 290.979912 
L 145.256724 290.979912 
L 145.256724 286.440667 
L 148.503273 286.440667 
L 148.503273 287.989647 
L 151.749821 287.989647 
L 151.749821 289.137188 
L 154.996363 289.137188 
L 154.996363 288.825824 
L 158.242911 288.825824 
L 158.242911 292.362442 
L 161.489454 292.362442 
L 161.489454 293.104624 
L 164.736002 293.104624 
L 164.736002 289.943991 
L 167.982544 289.943991 
L 167.982544 295.634696 
L 171.229092 295.634696 
L 171.229092 294.563528 
L 174.475635 294.563528 
L 174.475635 295.828564 
L 177.722183 295.828564 
L 177.722183 296.220217 
L 180.968731 296.220217 
L 180.968731 296.063555 
L 184.215268 296.063555 
L 184.215268 294.643815 
L 187.461816 294.643815 
L 187.461816 293.880094 
L 190.708364 293.880094 
L 190.708364 296.277005 
L 193.954912 296.277005 
L 193.954912 296.60991 
L 197.201449 296.60991 
L 197.201449 296.402334 
L 200.447997 296.402334 
L 200.447997 297.18368 
L 203.694545 297.18368 
L 203.694545 298.809036 
L 206.941093 298.809036 
L 206.941093 298.102104 
L 210.187642 298.102104 
L 210.187642 298.399759 
L 213.434178 298.399759 
L 213.434178 298.893241 
L 216.680726 298.893241 
L 216.680726 298.147144 
L 219.927274 298.147144 
L 219.927274 300.741838 
L 223.173823 300.741838 
L 223.173823 300.927874 
L 226.420359 300.927874 
L 226.420359 300.489223 
L 229.666907 300.489223 
L 229.666907 301.241194 
L 232.913455 301.241194 
L 232.913455 301.41548 
L 236.160004 301.41548 
L 236.160004 302.527772 
L 239.40654 302.527772 
L 239.40654 300.589094 
L 242.653088 300.589094 
L 242.653088 301.613264 
L 245.899636 301.613264 
L 245.899636 302.76668 
L 249.146185 302.76668 
L 249.146185 303.512777 
L 252.392733 303.512777 
L 252.392733 305.155758 
L 255.639269 305.155758 
L 255.639269 304.335246 
L 262.132366 304.276498 
L 262.132366 304.732773 
L 265.378914 304.732773 
L 265.378914 304.591778 
L 268.62545 304.591778 
L 268.62545 305.414248 
L 271.87201 305.414248 
L 271.87201 305.684487 
L 275.118535 305.684487 
L 275.118535 306.050682 
L 278.365083 306.050682 
L 278.365083 306.21126 
L 281.611631 306.21126 
L 281.611631 306.438418 
L 284.85818 306.438418 
L 284.85818 306.127054 
L 288.104728 306.127054 
L 288.104728 306.262174 
L 291.351276 306.262174 
L 291.351276 306.575496 
L 294.597824 306.575496 
L 294.597824 306.326797 
L 297.844372 306.326797 
L 297.844372 306.78503 
L 304.337445 306.769364 
L 304.337445 306.487374 
L 307.583994 306.487374 
L 307.583994 306.373795 
L 310.830542 306.373795 
L 310.830542 306.117263 
L 314.07709 306.117263 
L 314.07709 306.315047 
L 320.570186 306.328755 
L 320.570186 307.065061 
L 323.816735 307.065061 
L 323.816735 307.251096 
L 327.063283 307.251096 
L 327.063283 307.584 
L 330.309807 307.584 
L 330.309807 307.360758 
L 340.049452 307.390132 
L 340.049452 307.584 
L 343.296 307.584 
L 343.296 307.282428 
L 349.789097 307.380341 
L 349.789097 307.584 
L 356.282193 307.584 
L 356.282193 307.343134 
L 362.775266 307.323551 
L 362.775266 307.584 
L 369.268362 307.584 
L 369.268362 307.123809 
L 372.514911 307.123809 
L 372.514911 307.584 
L 398.487273 307.584 
L 398.487273 307.584 
" style="fill:none;stroke:#1f77b4;stroke-linejoin:miter;"/>
   </g>
   <g id="patch_4">
    <path clip-path="url(#pd43a7af5f7)" d="M 73.832727 307.584 
L 73.832727 282.306777 
L 77.079273 282.306777 
L 77.079273 191.390627 
L 80.325818 191.390627 
L 80.325818 158.916807 
L 83.572364 158.916807 
L 83.572364 181.522969 
L 86.81891 181.522969 
L 86.81891 210.877274 
L 90.065455 210.877274 
L 90.065455 224.906255 
L 93.312 224.906255 
L 93.312 230.890698 
L 96.558545 230.890698 
L 96.558545 240.873908 
L 99.805091 240.873908 
L 99.805091 238.606238 
L 103.051636 238.606238 
L 103.051636 243.717303 
L 106.298181 243.717303 
L 106.298181 248.669741 
L 109.544727 248.669741 
L 109.544727 252.012494 
L 112.791272 252.012494 
L 112.791272 256.665319 
L 116.037817 256.665319 
L 116.037817 259.739785 
L 119.284362 259.739785 
L 119.284362 256.444028 
L 122.530911 256.444028 
L 122.530911 261.220235 
L 125.777453 261.220235 
L 125.777453 259.271759 
L 129.024001 259.271759 
L 129.024001 253.487056 
L 132.270543 253.487056 
L 132.270543 264.662852 
L 135.517092 264.662852 
L 135.517092 263.02966 
L 138.763634 263.02966 
L 138.763634 267.161594 
L 142.010182 267.161594 
L 142.010182 262.524433 
L 145.256724 262.524433 
L 145.256724 264.421986 
L 148.503273 264.421986 
L 148.503273 266.438994 
L 151.749821 266.438994 
L 151.749821 267.917482 
L 154.996363 267.917482 
L 154.996363 270.496508 
L 158.242911 270.496508 
L 158.242911 269.321553 
L 161.489454 269.321553 
L 161.489454 268.305215 
L 164.736002 268.305215 
L 164.736002 268.113305 
L 167.982544 268.113305 
L 167.982544 268.610704 
L 171.229092 268.610704 
L 171.229092 272.068993 
L 174.475635 272.068993 
L 174.475635 271.522639 
L 177.722183 271.522639 
L 177.722183 265.395243 
L 180.968731 265.395243 
L 180.968731 275.621278 
L 184.215268 275.621278 
L 184.215268 274.479611 
L 187.461816 274.479611 
L 187.461816 271.798755 
L 190.708364 271.798755 
L 190.708364 281.024117 
L 193.954912 281.024117 
L 193.954912 278.394174 
L 197.201449 278.394174 
L 197.201449 278.26297 
L 200.447997 278.26297 
L 200.447997 278.96207 
L 203.694545 278.96207 
L 203.694545 275.542947 
L 206.941093 275.542947 
L 206.941093 277.957481 
L 210.187642 277.957481 
L 210.187642 281.067199 
L 213.434178 281.067199 
L 213.434178 280.697086 
L 216.680726 280.697086 
L 216.680726 283.753935 
L 219.927274 283.753935 
L 219.927274 282.475191 
L 223.173823 282.475191 
L 223.173823 284.157331 
L 226.420359 284.157331 
L 226.420359 282.962793 
L 229.666907 282.962793 
L 229.666907 284.364909 
L 232.913455 284.364909 
L 232.913455 283.687351 
L 236.160004 283.687351 
L 236.160004 284.174956 
L 239.40654 284.174956 
L 239.40654 286.712861 
L 242.653088 286.712861 
L 242.653088 288.447882 
L 245.899636 288.447882 
L 245.899636 288.25597 
L 249.146185 288.25597 
L 249.146185 284.680189 
L 252.392733 284.680189 
L 252.392733 287.059478 
L 255.639269 287.059478 
L 255.639269 289.556258 
L 258.885818 289.556258 
L 258.885818 291.438145 
L 262.132366 291.438145 
L 262.132366 290.245564 
L 265.378914 290.245564 
L 265.378914 292.479939 
L 268.62545 292.479939 
L 268.62545 291.962958 
L 271.87201 291.962958 
L 271.87201 293.235827 
L 275.118535 293.235827 
L 275.118535 295.765899 
L 278.365083 295.765899 
L 278.365083 295.930393 
L 281.611631 295.930393 
L 281.611631 296.511996 
L 284.85818 296.511996 
L 284.85818 296.196718 
L 288.104728 296.196718 
L 288.104728 297.818156 
L 291.351276 297.818156 
L 291.351276 300.994454 
L 294.597824 300.994454 
L 294.597824 300.363895 
L 297.844372 300.363895 
L 297.844372 301.339109 
L 301.090921 301.339109 
L 301.090921 302.318238 
L 304.337445 302.318238 
L 304.337445 301.466395 
L 307.583994 301.466395 
L 307.583994 303.314992 
L 310.830542 303.314992 
L 310.830542 300.262065 
L 314.07709 300.262065 
L 314.07709 302.081288 
L 317.323638 302.081288 
L 317.323638 304.227542 
L 320.570186 304.227542 
L 320.570186 303.689019 
L 327.063283 303.70077 
L 327.063283 302.478814 
L 330.309807 302.478814 
L 330.309807 304.838519 
L 333.556356 304.838519 
L 333.556356 306.309173 
L 336.802904 306.309173 
L 336.802904 304.010175 
L 340.049452 304.010175 
L 340.049452 305.371166 
L 343.296 305.371166 
L 343.296 306.266091 
L 349.789097 306.262174 
L 349.789097 306.610745 
L 353.035645 306.610745 
L 353.035645 306.869235 
L 359.528718 306.943649 
L 359.528718 307.143391 
L 362.775266 307.143391 
L 362.775266 307.284386 
L 366.021814 307.284386 
L 366.021814 307.045478 
L 369.268362 307.045478 
L 369.268362 307.337259 
L 372.514911 307.337259 
L 372.514911 306.786988 
L 375.761459 306.786988 
L 375.761459 307.584 
L 395.240725 307.584 
L 395.240725 307.388174 
L 398.487273 307.388174 
L 398.487273 307.584 
L 398.487273 307.584 
" style="fill:none;stroke:#ff7f0e;stroke-linejoin:miter;"/>
   </g>
   <g id="patch_5">
    <path clip-path="url(#pd43a7af5f7)" d="M 73.832727 307.584 
L 73.832727 270.696252 
L 77.079273 270.696252 
L 77.079273 243.762347 
L 80.325818 243.762347 
L 80.325818 271.918203 
L 83.572364 271.918203 
L 83.572364 287.656745 
L 86.81891 287.656745 
L 86.81891 292.511272 
L 90.065455 292.511272 
L 90.065455 295.476075 
L 93.312 295.476075 
L 93.312 295.791357 
L 96.558545 295.791357 
L 96.558545 292.667932 
L 99.805091 292.667932 
L 99.805091 286.724612 
L 103.051636 286.724612 
L 103.051636 275.468532 
L 106.298181 275.468532 
L 106.298181 265.604777 
L 109.544727 265.604777 
L 109.544727 253.661346 
L 112.791272 253.661346 
L 112.791272 247.381202 
L 116.037817 247.381202 
L 116.037817 241.044271 
L 119.284362 241.044271 
L 119.284362 233.199472 
L 122.530911 233.199472 
L 122.530911 231.129604 
L 125.777453 231.129604 
L 125.777453 228.811021 
L 129.024001 228.811021 
L 129.024001 231.262771 
L 132.270543 231.262771 
L 132.270543 237.33925 
L 135.517092 237.33925 
L 135.517092 238.727654 
L 138.763634 238.727654 
L 138.763634 241.142185 
L 142.010182 241.142185 
L 142.010182 241.488799 
L 145.256724 241.488799 
L 145.256724 242.886999 
L 148.503273 242.886999 
L 148.503273 248.440621 
L 151.749821 248.440621 
L 151.749821 251.511175 
L 154.996363 251.511175 
L 154.996363 261.010691 
L 158.242911 261.010691 
L 158.242911 263.844304 
L 161.489454 263.844304 
L 161.489454 270.886203 
L 164.736002 270.886203 
L 164.736002 272.762219 
L 167.982544 272.762219 
L 167.982544 276.843231 
L 171.229092 276.843231 
L 171.229092 283.516981 
L 174.475635 283.516981 
L 174.475635 287.643037 
L 177.722183 287.643037 
L 177.722183 286.896939 
L 180.968731 286.896939 
L 180.968731 295.634695 
L 184.215268 295.634695 
L 184.215268 297.1171 
L 187.461816 297.1171 
L 187.461816 297.3188 
L 190.708364 297.3188 
L 190.708364 301.254903 
L 193.954912 301.254903 
L 193.954912 302.794096 
L 197.201449 302.794096 
L 197.201449 303.426614 
L 200.447997 303.426614 
L 200.447997 304.791521 
L 203.694545 304.791521 
L 203.694545 305.553284 
L 206.941093 305.553284 
L 206.941093 306.268049 
L 210.187642 306.268049 
L 210.187642 306.452126 
L 213.434178 306.452126 
L 213.434178 307.137517 
L 216.680726 307.137517 
L 216.680726 307.490004 
L 219.927274 307.490004 
L 219.927274 307.296136 
L 223.173823 307.296136 
L 223.173823 307.029812 
L 229.666907 307.127725 
L 229.666907 307.388174 
L 232.913455 307.388174 
L 232.913455 307.584 
L 245.899636 307.584 
L 245.899636 307.292219 
L 255.639269 307.376424 
L 255.639269 306.929941 
L 262.132366 306.990647 
L 262.132366 307.243263 
L 268.62545 307.243263 
L 268.62545 306.896651 
L 271.87201 306.896651 
L 271.87201 307.305927 
L 275.118535 307.305927 
L 275.118535 307.456713 
L 284.85818 307.44888 
L 284.85818 307.076811 
L 288.104728 307.076811 
L 288.104728 307.584 
L 294.597824 307.584 
L 294.597824 307.441047 
L 307.583994 307.454755 
L 307.583994 307.584 
L 323.816735 307.584 
L 323.816735 307.345092 
L 327.063283 307.345092 
L 327.063283 307.584 
L 346.542549 307.584 
L 346.542549 307.43713 
L 349.789097 307.43713 
L 349.789097 307.584 
L 398.487273 307.584 
L 398.487273 307.584 
" style="fill:none;stroke:#2ca02c;stroke-linejoin:miter;"/>
   </g>
   <g id="patch_6">
    <path clip-path="url(#pd43a7af5f7)" d="M 73.832727 307.584 
L 73.832727 273.766806 
L 77.079273 273.766806 
L 77.079273 247.424285 
L 80.325818 247.424285 
L 80.325818 273.151908 
L 83.572364 273.151908 
L 83.572364 289.569965 
L 86.81891 289.569965 
L 86.81891 295.409497 
L 90.065455 295.409497 
L 90.065455 295.701277 
L 93.312 295.701277 
L 93.312 296.760695 
L 96.558545 296.760695 
L 96.558545 294.865101 
L 99.805091 294.865101 
L 99.805091 291.962958 
L 103.051636 291.962958 
L 103.051636 283.579648 
L 106.298181 283.579648 
L 106.298181 273.733511 
L 109.544727 273.733511 
L 109.544727 264.784259 
L 112.791272 264.784259 
L 112.791272 255.300408 
L 116.037817 255.300408 
L 116.037817 248.624697 
L 119.284362 248.624697 
L 119.284362 244.486899 
L 122.530911 244.486899 
L 122.530911 238.39866 
L 125.777453 238.39866 
L 125.777453 239.223086 
L 129.024001 239.223086 
L 129.024001 238.439782 
L 132.270543 238.439782 
L 132.270543 243.280609 
L 135.517092 243.280609 
L 135.517092 244.336116 
L 138.763634 244.336116 
L 138.763634 240.501839 
L 142.010182 240.501839 
L 142.010182 242.113486 
L 145.256724 242.113486 
L 145.256724 239.702867 
L 148.503273 239.702867 
L 148.503273 248.951726 
L 151.749821 248.951726 
L 151.749821 247.917765 
L 154.996363 247.917765 
L 154.996363 251.930244 
L 158.242911 251.930244 
L 158.242911 258.363127 
L 164.736002 258.298502 
L 164.736002 264.026419 
L 167.982544 264.026419 
L 167.982544 264.304491 
L 171.229092 264.304491 
L 171.229092 269.562417 
L 174.475635 269.562417 
L 174.475635 274.587315 
L 177.722183 274.587315 
L 177.722183 277.40329 
L 180.968731 277.40329 
L 180.968731 284.327702 
L 184.215268 284.327702 
L 184.215268 285.561404 
L 187.461816 285.561404 
L 187.461816 291.252111 
L 190.708364 291.252111 
L 190.708364 289.658086 
L 193.954912 289.658086 
L 193.954912 290.241646 
L 197.201449 290.241646 
L 197.201449 295.393831 
L 200.447997 295.393831 
L 200.447997 296.308337 
L 203.694545 296.308337 
L 203.694545 298.495714 
L 206.941093 298.495714 
L 206.941093 302.590437 
L 210.187642 302.590437 
L 210.187642 304.2295 
L 213.434178 304.2295 
L 213.434178 304.748439 
L 216.680726 304.748439 
L 216.680726 305.772609 
L 223.173823 305.684487 
L 223.173823 306.786988 
L 226.420359 306.786988 
L 226.420359 307.161016 
L 229.666907 307.161016 
L 229.666907 306.712574 
L 232.913455 306.712574 
L 232.913455 307.008271 
L 236.160004 307.008271 
L 236.160004 307.19039 
L 239.40654 307.19039 
L 239.40654 307.008271 
L 242.653088 307.008271 
L 242.653088 307.419506 
L 252.392733 307.427339 
L 252.392733 306.890776 
L 255.639269 306.890776 
L 255.639269 307.258929 
L 262.132366 307.245221 
L 262.132366 307.584 
L 265.378914 307.584 
L 265.378914 307.188431 
L 271.87201 307.258929 
L 271.87201 307.311802 
L 275.118535 307.311802 
L 275.118535 307.446922 
L 278.365083 307.446922 
L 278.365083 307.125767 
L 281.611631 307.125767 
L 281.611631 307.356842 
L 288.104728 307.333343 
L 288.104728 306.898609 
L 291.351276 306.898609 
L 291.351276 307.584 
L 294.597824 307.584 
L 294.597824 307.411673 
L 297.844372 307.411673 
L 297.844372 307.584 
L 304.337445 307.584 
L 304.337445 307.462588 
L 307.583994 307.462588 
L 307.583994 307.584 
L 310.830542 307.584 
L 310.830542 307.446922 
L 317.323638 307.491962 
L 317.323638 307.584 
L 320.570186 307.584 
L 320.570186 307.468463 
L 323.816735 307.468463 
L 323.816735 307.584 
L 330.309807 307.584 
L 330.309807 307.215847 
L 333.556356 307.215847 
L 333.556356 307.584 
L 398.487273 307.584 
L 398.487273 307.584 
" style="fill:none;stroke:#d62728;stroke-linejoin:miter;"/>
   </g>
   <g id="patch_7">
    <path clip-path="url(#pd43a7af5f7)" d="M 73.832727 307.584 
L 73.832727 303.747767 
L 77.079273 303.747767 
L 77.079273 297.25026 
L 80.325818 297.25026 
L 80.325818 301.419397 
L 83.572364 301.419397 
L 83.572364 303.395281 
L 86.81891 303.395281 
L 86.81891 305.386832 
L 90.065455 305.386832 
L 90.065455 305.120508 
L 93.312 305.120508 
L 93.312 305.713861 
L 96.558545 305.713861 
L 96.558545 304.981472 
L 99.805091 304.981472 
L 99.805091 303.878971 
L 103.051636 303.878971 
L 103.051636 302.890049 
L 106.298181 302.890049 
L 106.298181 301.446812 
L 109.544727 301.446812 
L 109.544727 299.161522 
L 112.791272 299.161522 
L 112.791272 295.601407 
L 116.037817 295.601407 
L 116.037817 290.312144 
L 122.530911 290.325853 
L 122.530911 283.957592 
L 125.777453 283.957592 
L 125.777453 276.833438 
L 129.024001 276.833438 
L 129.024001 276.635657 
L 132.270543 276.635657 
L 132.270543 274.851677 
L 138.763634 274.749854 
L 138.763634 269.562417 
L 142.010182 269.562417 
L 142.010182 272.730882 
L 145.256724 272.730882 
L 145.256724 271.491307 
L 148.503273 271.491307 
L 148.503273 274.11342 
L 151.749821 274.11342 
L 151.749821 272.909085 
L 154.996363 272.909085 
L 154.996363 270.87445 
L 158.242911 270.87445 
L 158.242911 273.999836 
L 161.489454 273.999836 
L 161.489454 272.458686 
L 164.736002 272.458686 
L 164.736002 273.592521 
L 167.982544 273.592521 
L 167.982544 279.238183 
L 171.229092 279.238183 
L 171.229092 275.521408 
L 177.722183 275.586029 
L 177.722183 275.985512 
L 180.968731 275.985512 
L 180.968731 278.002518 
L 184.215268 278.002518 
L 184.215268 278.247304 
L 187.461816 278.247304 
L 187.461816 281.507805 
L 190.708364 281.507805 
L 190.708364 279.627874 
L 193.954912 279.627874 
L 193.954912 280.176191 
L 197.201449 280.176191 
L 197.201449 282.349858 
L 200.447997 282.349858 
L 200.447997 283.996756 
L 203.694545 283.996756 
L 203.694545 278.936613 
L 206.941093 278.936613 
L 206.941093 282.326357 
L 210.187642 282.326357 
L 210.187642 275.62911 
L 213.434178 275.62911 
L 213.434178 279.0169 
L 216.680726 279.0169 
L 216.680726 279.543671 
L 219.927274 279.543671 
L 219.927274 276.453538 
L 223.173823 276.453538 
L 223.173823 273.670846 
L 226.420359 273.670846 
L 226.420359 272.215863 
L 229.666907 272.215863 
L 229.666907 271.92212 
L 232.913455 271.92212 
L 232.913455 266.995138 
L 236.160004 266.995138 
L 236.160004 259.976739 
L 239.40654 259.976739 
L 239.40654 257.076549 
L 242.653088 257.076549 
L 242.653088 254.969466 
L 245.899636 254.969466 
L 245.899636 256.173795 
L 249.146185 256.173795 
L 249.146185 250.044438 
L 252.392733 250.044438 
L 252.392733 247.036553 
L 255.639269 247.036553 
L 255.639269 243.52148 
L 258.885818 243.52148 
L 258.885818 242.248609 
L 262.132366 242.248609 
L 262.132366 242.986868 
L 265.378914 242.986868 
L 265.378914 239.914368 
L 268.62545 239.914368 
L 268.62545 233.158363 
L 271.87201 233.158363 
L 271.87201 236.444321 
L 275.118535 236.444321 
L 275.118535 242.469891 
L 278.365083 242.469891 
L 278.365083 241.520127 
L 281.611631 241.520127 
L 281.611631 247.136418 
L 284.85818 247.136418 
L 284.85818 251.959611 
L 288.104728 251.959611 
L 288.104728 255.784102 
L 291.351276 255.784102 
L 291.351276 264.388697 
L 294.597824 264.388697 
L 294.597824 265.83781 
L 297.844372 265.83781 
L 297.844372 270.05786 
L 301.090921 270.05786 
L 301.090921 273.960672 
L 304.337445 273.960672 
L 304.337445 276.870646 
L 307.583994 276.870646 
L 307.583994 283.050914 
L 310.830542 283.050914 
L 310.830542 286.734405 
L 314.07709 286.734405 
L 314.07709 286.542493 
L 317.323638 286.542493 
L 317.323638 290.468805 
L 320.570186 290.468805 
L 320.570186 296.623617 
L 323.816735 296.623617 
L 323.816735 295.738483 
L 327.063283 295.738483 
L 327.063283 297.336423 
L 330.309807 297.336423 
L 330.309807 299.46701 
L 333.556356 299.46701 
L 333.556356 301.476187 
L 340.049452 301.515351 
L 340.049452 302.872425 
L 343.296 302.872425 
L 343.296 302.085205 
L 346.542549 302.085205 
L 346.542549 303.73406 
L 353.035645 303.812391 
L 353.035645 305.801983 
L 356.282193 305.801983 
L 356.282193 305.445579 
L 359.528718 305.445579 
L 359.528718 306.344421 
L 362.775266 306.344421 
L 362.775266 305.939061 
L 366.021814 305.939061 
L 366.021814 306.16622 
L 369.268362 306.16622 
L 369.268362 306.499124 
L 372.514911 306.499124 
L 372.514911 307.023938 
L 375.761459 307.023938 
L 375.761459 306.50304 
L 379.008007 306.50304 
L 379.008007 307.397965 
L 382.254555 307.397965 
L 382.254555 307.012188 
L 388.747628 307.023938 
L 388.747628 307.217805 
L 391.994176 307.217805 
L 391.994176 307.337259 
L 395.240725 307.337259 
L 395.240725 307.584 
L 398.487273 307.584 
L 398.487273 307.584 
" style="fill:none;stroke:#9467bd;stroke-linejoin:miter;"/>
   </g>
   <g id="patch_8">
    <path clip-path="url(#pd43a7af5f7)" d="M 73.832727 307.584 
L 398.487273 307.584 
L 398.487273 307.584 
" style="fill:none;stroke:#000000;stroke-linejoin:miter;"/>
   </g>
   <g id="matplotlib.axis_1">
    <g id="xtick_1">
     <g id="line2d_1">
      <defs>
       <path d="M 0 0 
L 0 3.5 
" id="m3c93eef0e7" style="stroke:#000000;stroke-width:0.8;"/>
      </defs>
      <g>
       <use style="stroke:#000000;stroke-width:0.8;" x="73.824209" xlink:href="#m3c93eef0e7" y="307.584"/>
      </g>
     </g>
     <g id="text_1">
      <!-- 0.00 -->
      <defs>
       <path d="M 31.78125 66.40625 
Q 24.171875 66.40625 20.328125 58.90625 
Q 16.5 51.421875 16.5 36.375 
Q 16.5 21.390625 20.328125 13.890625 
Q 24.171875 6.390625 31.78125 6.390625 
Q 39.453125 6.390625 43.28125 13.890625 
Q 47.125 21.390625 47.125 36.375 
Q 47.125 51.421875 43.28125 58.90625 
Q 39.453125 66.40625 31.78125 66.40625 
z
M 31.78125 74.21875 
Q 44.046875 74.21875 50.515625 64.515625 
Q 56.984375 54.828125 56.984375 36.375 
Q 56.984375 17.96875 50.515625 8.265625 
Q 44.046875 -1.421875 31.78125 -1.421875 
Q 19.53125 -1.421875 13.0625 8.265625 
Q 6.59375 17.96875 6.59375 36.375 
Q 6.59375 54.828125 13.0625 64.515625 
Q 19.53125 74.21875 31.78125 74.21875 
z
" id="DejaVuSans-48"/>
       <path d="M 10.6875 12.40625 
L 21 12.40625 
L 21 0 
L 10.6875 0 
z
" id="DejaVuSans-46"/>
      </defs>
      <g transform="translate(62.691397 322.182437)scale(0.1 -0.1)">
       <use xlink:href="#DejaVuSans-48"/>
       <use x="63.623047" xlink:href="#DejaVuSans-46"/>
       <use x="95.410156" xlink:href="#DejaVuSans-48"/>
       <use x="159.033203" xlink:href="#DejaVuSans-48"/>
      </g>
     </g>
    </g>
    <g id="xtick_2">
     <g id="line2d_2">
      <g>
       <use style="stroke:#000000;stroke-width:0.8;" x="152.845283" xlink:href="#m3c93eef0e7" y="307.584"/>
      </g>
     </g>
     <g id="text_2">
      <!-- 0.05 -->
      <defs>
       <path d="M 10.796875 72.90625 
L 49.515625 72.90625 
L 49.515625 64.59375 
L 19.828125 64.59375 
L 19.828125 46.734375 
Q 21.96875 47.46875 24.109375 47.828125 
Q 26.265625 48.1875 28.421875 48.1875 
Q 40.625 48.1875 47.75 41.5 
Q 54.890625 34.8125 54.890625 23.390625 
Q 54.890625 11.625 47.5625 5.09375 
Q 40.234375 -1.421875 26.90625 -1.421875 
Q 22.3125 -1.421875 17.546875 -0.640625 
Q 12.796875 0.140625 7.71875 1.703125 
L 7.71875 11.625 
Q 12.109375 9.234375 16.796875 8.0625 
Q 21.484375 6.890625 26.703125 6.890625 
Q 35.15625 6.890625 40.078125 11.328125 
Q 45.015625 15.765625 45.015625 23.390625 
Q 45.015625 31 40.078125 35.4375 
Q 35.15625 39.890625 26.703125 39.890625 
Q 22.75 39.890625 18.8125 39.015625 
Q 14.890625 38.140625 10.796875 36.28125 
z
" id="DejaVuSans-53"/>
      </defs>
      <g transform="translate(141.71247 322.182437)scale(0.1 -0.1)">
       <use xlink:href="#DejaVuSans-48"/>
       <use x="63.623047" xlink:href="#DejaVuSans-46"/>
       <use x="95.410156" xlink:href="#DejaVuSans-48"/>
       <use x="159.033203" xlink:href="#DejaVuSans-53"/>
      </g>
     </g>
    </g>
    <g id="xtick_3">
     <g id="line2d_3">
      <g>
       <use style="stroke:#000000;stroke-width:0.8;" x="231.866356" xlink:href="#m3c93eef0e7" y="307.584"/>
      </g>
     </g>
     <g id="text_3">
      <!-- 0.10 -->
      <defs>
       <path d="M 12.40625 8.296875 
L 28.515625 8.296875 
L 28.515625 63.921875 
L 10.984375 60.40625 
L 10.984375 69.390625 
L 28.421875 72.90625 
L 38.28125 72.90625 
L 38.28125 8.296875 
L 54.390625 8.296875 
L 54.390625 0 
L 12.40625 0 
z
" id="DejaVuSans-49"/>
      </defs>
      <g transform="translate(220.733544 322.182437)scale(0.1 -0.1)">
       <use xlink:href="#DejaVuSans-48"/>
       <use x="63.623047" xlink:href="#DejaVuSans-46"/>
       <use x="95.410156" xlink:href="#DejaVuSans-49"/>
       <use x="159.033203" xlink:href="#DejaVuSans-48"/>
      </g>
     </g>
    </g>
    <g id="xtick_4">
     <g id="line2d_4">
      <g>
       <use style="stroke:#000000;stroke-width:0.8;" x="310.887429" xlink:href="#m3c93eef0e7" y="307.584"/>
      </g>
     </g>
     <g id="text_4">
      <!-- 0.15 -->
      <g transform="translate(299.754617 322.182437)scale(0.1 -0.1)">
       <use xlink:href="#DejaVuSans-48"/>
       <use x="63.623047" xlink:href="#DejaVuSans-46"/>
       <use x="95.410156" xlink:href="#DejaVuSans-49"/>
       <use x="159.033203" xlink:href="#DejaVuSans-53"/>
      </g>
     </g>
    </g>
    <g id="xtick_5">
     <g id="line2d_5">
      <g>
       <use style="stroke:#000000;stroke-width:0.8;" x="389.908503" xlink:href="#m3c93eef0e7" y="307.584"/>
      </g>
     </g>
     <g id="text_5">
      <!-- 0.20 -->
      <defs>
       <path d="M 19.1875 8.296875 
L 53.609375 8.296875 
L 53.609375 0 
L 7.328125 0 
L 7.328125 8.296875 
Q 12.9375 14.109375 22.625 23.890625 
Q 32.328125 33.6875 34.8125 36.53125 
Q 39.546875 41.84375 41.421875 45.53125 
Q 43.3125 49.21875 43.3125 52.78125 
Q 43.3125 58.59375 39.234375 62.25 
Q 35.15625 65.921875 28.609375 65.921875 
Q 23.96875 65.921875 18.8125 64.3125 
Q 13.671875 62.703125 7.8125 59.421875 
L 7.8125 69.390625 
Q 13.765625 71.78125 18.9375 73 
Q 24.125 74.21875 28.421875 74.21875 
Q 39.75 74.21875 46.484375 68.546875 
Q 53.21875 62.890625 53.21875 53.421875 
Q 53.21875 48.921875 51.53125 44.890625 
Q 49.859375 40.875 45.40625 35.40625 
Q 44.1875 33.984375 37.640625 27.21875 
Q 31.109375 20.453125 19.1875 8.296875 
z
" id="DejaVuSans-50"/>
      </defs>
      <g transform="translate(378.77569 322.182437)scale(0.1 -0.1)">
       <use xlink:href="#DejaVuSans-48"/>
       <use x="63.623047" xlink:href="#DejaVuSans-46"/>
       <use x="95.410156" xlink:href="#DejaVuSans-50"/>
       <use x="159.033203" xlink:href="#DejaVuSans-48"/>
      </g>
     </g>
    </g>
    <g id="text_6">
     <!-- j_c2_b1_mmdt -->
     <defs>
      <path d="M 9.421875 54.6875 
L 18.40625 54.6875 
L 18.40625 -0.984375 
Q 18.40625 -11.421875 14.421875 -16.109375 
Q 10.453125 -20.796875 1.609375 -20.796875 
L -1.8125 -20.796875 
L -1.8125 -13.1875 
L 0.59375 -13.1875 
Q 5.71875 -13.1875 7.5625 -10.8125 
Q 9.421875 -8.453125 9.421875 -0.984375 
z
M 9.421875 75.984375 
L 18.40625 75.984375 
L 18.40625 64.59375 
L 9.421875 64.59375 
z
" id="DejaVuSans-106"/>
      <path d="M 50.984375 -16.609375 
L 50.984375 -23.578125 
L -0.984375 -23.578125 
L -0.984375 -16.609375 
z
" id="DejaVuSans-95"/>
      <path d="M 48.78125 52.59375 
L 48.78125 44.1875 
Q 44.96875 46.296875 41.140625 47.34375 
Q 37.3125 48.390625 33.40625 48.390625 
Q 24.65625 48.390625 19.8125 42.84375 
Q 14.984375 37.3125 14.984375 27.296875 
Q 14.984375 17.28125 19.8125 11.734375 
Q 24.65625 6.203125 33.40625 6.203125 
Q 37.3125 6.203125 41.140625 7.25 
Q 44.96875 8.296875 48.78125 10.40625 
L 48.78125 2.09375 
Q 45.015625 0.34375 40.984375 -0.53125 
Q 36.96875 -1.421875 32.421875 -1.421875 
Q 20.0625 -1.421875 12.78125 6.34375 
Q 5.515625 14.109375 5.515625 27.296875 
Q 5.515625 40.671875 12.859375 48.328125 
Q 20.21875 56 33.015625 56 
Q 37.15625 56 41.109375 55.140625 
Q 45.0625 54.296875 48.78125 52.59375 
z
" id="DejaVuSans-99"/>
      <path d="M 48.6875 27.296875 
Q 48.6875 37.203125 44.609375 42.84375 
Q 40.53125 48.484375 33.40625 48.484375 
Q 26.265625 48.484375 22.1875 42.84375 
Q 18.109375 37.203125 18.109375 27.296875 
Q 18.109375 17.390625 22.1875 11.75 
Q 26.265625 6.109375 33.40625 6.109375 
Q 40.53125 6.109375 44.609375 11.75 
Q 48.6875 17.390625 48.6875 27.296875 
z
M 18.109375 46.390625 
Q 20.953125 51.265625 25.265625 53.625 
Q 29.59375 56 35.59375 56 
Q 45.5625 56 51.78125 48.09375 
Q 58.015625 40.1875 58.015625 27.296875 
Q 58.015625 14.40625 51.78125 6.484375 
Q 45.5625 -1.421875 35.59375 -1.421875 
Q 29.59375 -1.421875 25.265625 0.953125 
Q 20.953125 3.328125 18.109375 8.203125 
L 18.109375 0 
L 9.078125 0 
L 9.078125 75.984375 
L 18.109375 75.984375 
z
" id="DejaVuSans-98"/>
      <path d="M 52 44.1875 
Q 55.375 50.25 60.0625 53.125 
Q 64.75 56 71.09375 56 
Q 79.640625 56 84.28125 50.015625 
Q 88.921875 44.046875 88.921875 33.015625 
L 88.921875 0 
L 79.890625 0 
L 79.890625 32.71875 
Q 79.890625 40.578125 77.09375 44.375 
Q 74.3125 48.1875 68.609375 48.1875 
Q 61.625 48.1875 57.5625 43.546875 
Q 53.515625 38.921875 53.515625 30.90625 
L 53.515625 0 
L 44.484375 0 
L 44.484375 32.71875 
Q 44.484375 40.625 41.703125 44.40625 
Q 38.921875 48.1875 33.109375 48.1875 
Q 26.21875 48.1875 22.15625 43.53125 
Q 18.109375 38.875 18.109375 30.90625 
L 18.109375 0 
L 9.078125 0 
L 9.078125 54.6875 
L 18.109375 54.6875 
L 18.109375 46.1875 
Q 21.1875 51.21875 25.484375 53.609375 
Q 29.78125 56 35.6875 56 
Q 41.65625 56 45.828125 52.96875 
Q 50 49.953125 52 44.1875 
z
" id="DejaVuSans-109"/>
      <path d="M 45.40625 46.390625 
L 45.40625 75.984375 
L 54.390625 75.984375 
L 54.390625 0 
L 45.40625 0 
L 45.40625 8.203125 
Q 42.578125 3.328125 38.25 0.953125 
Q 33.9375 -1.421875 27.875 -1.421875 
Q 17.96875 -1.421875 11.734375 6.484375 
Q 5.515625 14.40625 5.515625 27.296875 
Q 5.515625 40.1875 11.734375 48.09375 
Q 17.96875 56 27.875 56 
Q 33.9375 56 38.25 53.625 
Q 42.578125 51.265625 45.40625 46.390625 
z
M 14.796875 27.296875 
Q 14.796875 17.390625 18.875 11.75 
Q 22.953125 6.109375 30.078125 6.109375 
Q 37.203125 6.109375 41.296875 11.75 
Q 45.40625 17.390625 45.40625 27.296875 
Q 45.40625 37.203125 41.296875 42.84375 
Q 37.203125 48.484375 30.078125 48.484375 
Q 22.953125 48.484375 18.875 42.84375 
Q 14.796875 37.203125 14.796875 27.296875 
z
" id="DejaVuSans-100"/>
      <path d="M 18.3125 70.21875 
L 18.3125 54.6875 
L 36.8125 54.6875 
L 36.8125 47.703125 
L 18.3125 47.703125 
L 18.3125 18.015625 
Q 18.3125 11.328125 20.140625 9.421875 
Q 21.96875 7.515625 27.59375 7.515625 
L 36.8125 7.515625 
L 36.8125 0 
L 27.59375 0 
Q 17.1875 0 13.234375 3.875 
Q 9.28125 7.765625 9.28125 18.015625 
L 9.28125 47.703125 
L 2.6875 47.703125 
L 2.6875 54.6875 
L 9.28125 54.6875 
L 9.28125 70.21875 
z
" id="DejaVuSans-116"/>
     </defs>
     <g transform="translate(200.11 335.860562)scale(0.1 -0.1)">
      <use xlink:href="#DejaVuSans-106"/>
      <use x="27.783203" xlink:href="#DejaVuSans-95"/>
      <use x="77.783203" xlink:href="#DejaVuSans-99"/>
      <use x="132.763672" xlink:href="#DejaVuSans-50"/>
      <use x="196.386719" xlink:href="#DejaVuSans-95"/>
      <use x="246.386719" xlink:href="#DejaVuSans-98"/>
      <use x="309.863281" xlink:href="#DejaVuSans-49"/>
      <use x="373.486328" xlink:href="#DejaVuSans-95"/>
      <use x="423.486328" xlink:href="#DejaVuSans-109"/>
      <use x="520.898438" xlink:href="#DejaVuSans-109"/>
      <use x="618.310547" xlink:href="#DejaVuSans-100"/>
      <use x="681.787109" xlink:href="#DejaVuSans-116"/>
     </g>
    </g>
   </g>
   <g id="matplotlib.axis_2">
    <g id="ytick_1">
     <g id="line2d_6">
      <defs>
       <path d="M 0 0 
L -3.5 0 
" id="m10d1bb6e75" style="stroke:#000000;stroke-width:0.8;"/>
      </defs>
      <g>
       <use style="stroke:#000000;stroke-width:0.8;" x="57.6" xlink:href="#m10d1bb6e75" y="307.584"/>
      </g>
     </g>
     <g id="text_7">
      <!-- 0.000 -->
      <g transform="translate(21.971875 311.383219)scale(0.1 -0.1)">
       <use xlink:href="#DejaVuSans-48"/>
       <use x="63.623047" xlink:href="#DejaVuSans-46"/>
       <use x="95.410156" xlink:href="#DejaVuSans-48"/>
       <use x="159.033203" xlink:href="#DejaVuSans-48"/>
       <use x="222.65625" xlink:href="#DejaVuSans-48"/>
      </g>
     </g>
    </g>
    <g id="ytick_2">
     <g id="line2d_7">
      <g>
       <use style="stroke:#000000;stroke-width:0.8;" x="57.6" xlink:href="#m10d1bb6e75" y="257.45343"/>
      </g>
     </g>
     <g id="text_8">
      <!-- 0.005 -->
      <g transform="translate(21.971875 261.252649)scale(0.1 -0.1)">
       <use xlink:href="#DejaVuSans-48"/>
       <use x="63.623047" xlink:href="#DejaVuSans-46"/>
       <use x="95.410156" xlink:href="#DejaVuSans-48"/>
       <use x="159.033203" xlink:href="#DejaVuSans-48"/>
       <use x="222.65625" xlink:href="#DejaVuSans-53"/>
      </g>
     </g>
    </g>
    <g id="ytick_3">
     <g id="line2d_8">
      <g>
       <use style="stroke:#000000;stroke-width:0.8;" x="57.6" xlink:href="#m10d1bb6e75" y="207.32286"/>
      </g>
     </g>
     <g id="text_9">
      <!-- 0.010 -->
      <g transform="translate(21.971875 211.122078)scale(0.1 -0.1)">
       <use xlink:href="#DejaVuSans-48"/>
       <use x="63.623047" xlink:href="#DejaVuSans-46"/>
       <use x="95.410156" xlink:href="#DejaVuSans-48"/>
       <use x="159.033203" xlink:href="#DejaVuSans-49"/>
       <use x="222.65625" xlink:href="#DejaVuSans-48"/>
      </g>
     </g>
    </g>
    <g id="ytick_4">
     <g id="line2d_9">
      <g>
       <use style="stroke:#000000;stroke-width:0.8;" x="57.6" xlink:href="#m10d1bb6e75" y="157.19229"/>
      </g>
     </g>
     <g id="text_10">
      <!-- 0.015 -->
      <g transform="translate(21.971875 160.991508)scale(0.1 -0.1)">
       <use xlink:href="#DejaVuSans-48"/>
       <use x="63.623047" xlink:href="#DejaVuSans-46"/>
       <use x="95.410156" xlink:href="#DejaVuSans-48"/>
       <use x="159.033203" xlink:href="#DejaVuSans-49"/>
       <use x="222.65625" xlink:href="#DejaVuSans-53"/>
      </g>
     </g>
    </g>
    <g id="ytick_5">
     <g id="line2d_10">
      <g>
       <use style="stroke:#000000;stroke-width:0.8;" x="57.6" xlink:href="#m10d1bb6e75" y="107.061719"/>
      </g>
     </g>
     <g id="text_11">
      <!-- 0.020 -->
      <g transform="translate(21.971875 110.860938)scale(0.1 -0.1)">
       <use xlink:href="#DejaVuSans-48"/>
       <use x="63.623047" xlink:href="#DejaVuSans-46"/>
       <use x="95.410156" xlink:href="#DejaVuSans-48"/>
       <use x="159.033203" xlink:href="#DejaVuSans-50"/>
       <use x="222.65625" xlink:href="#DejaVuSans-48"/>
      </g>
     </g>
    </g>
    <g id="ytick_6">
     <g id="line2d_11">
      <g>
       <use style="stroke:#000000;stroke-width:0.8;" x="57.6" xlink:href="#m10d1bb6e75" y="56.931149"/>
      </g>
     </g>
     <g id="text_12">
      <!-- 0.025 -->
      <g transform="translate(21.971875 60.730368)scale(0.1 -0.1)">
       <use xlink:href="#DejaVuSans-48"/>
       <use x="63.623047" xlink:href="#DejaVuSans-46"/>
       <use x="95.410156" xlink:href="#DejaVuSans-48"/>
       <use x="159.033203" xlink:href="#DejaVuSans-50"/>
       <use x="222.65625" xlink:href="#DejaVuSans-53"/>
      </g>
     </g>
    </g>
    <g id="text_13">
     <!-- Prob. Density (a.u.) -->
     <defs>
      <path d="M 19.671875 64.796875 
L 19.671875 37.40625 
L 32.078125 37.40625 
Q 38.96875 37.40625 42.71875 40.96875 
Q 46.484375 44.53125 46.484375 51.125 
Q 46.484375 57.671875 42.71875 61.234375 
Q 38.96875 64.796875 32.078125 64.796875 
z
M 9.8125 72.90625 
L 32.078125 72.90625 
Q 44.34375 72.90625 50.609375 67.359375 
Q 56.890625 61.8125 56.890625 51.125 
Q 56.890625 40.328125 50.609375 34.8125 
Q 44.34375 29.296875 32.078125 29.296875 
L 19.671875 29.296875 
L 19.671875 0 
L 9.8125 0 
z
" id="DejaVuSans-80"/>
      <path d="M 41.109375 46.296875 
Q 39.59375 47.171875 37.8125 47.578125 
Q 36.03125 48 33.890625 48 
Q 26.265625 48 22.1875 43.046875 
Q 18.109375 38.09375 18.109375 28.8125 
L 18.109375 0 
L 9.078125 0 
L 9.078125 54.6875 
L 18.109375 54.6875 
L 18.109375 46.1875 
Q 20.953125 51.171875 25.484375 53.578125 
Q 30.03125 56 36.53125 56 
Q 37.453125 56 38.578125 55.875 
Q 39.703125 55.765625 41.0625 55.515625 
z
" id="DejaVuSans-114"/>
      <path d="M 30.609375 48.390625 
Q 23.390625 48.390625 19.1875 42.75 
Q 14.984375 37.109375 14.984375 27.296875 
Q 14.984375 17.484375 19.15625 11.84375 
Q 23.34375 6.203125 30.609375 6.203125 
Q 37.796875 6.203125 41.984375 11.859375 
Q 46.1875 17.53125 46.1875 27.296875 
Q 46.1875 37.015625 41.984375 42.703125 
Q 37.796875 48.390625 30.609375 48.390625 
z
M 30.609375 56 
Q 42.328125 56 49.015625 48.375 
Q 55.71875 40.765625 55.71875 27.296875 
Q 55.71875 13.875 49.015625 6.21875 
Q 42.328125 -1.421875 30.609375 -1.421875 
Q 18.84375 -1.421875 12.171875 6.21875 
Q 5.515625 13.875 5.515625 27.296875 
Q 5.515625 40.765625 12.171875 48.375 
Q 18.84375 56 30.609375 56 
z
" id="DejaVuSans-111"/>
      <path id="DejaVuSans-32"/>
      <path d="M 19.671875 64.796875 
L 19.671875 8.109375 
L 31.59375 8.109375 
Q 46.6875 8.109375 53.6875 14.9375 
Q 60.6875 21.78125 60.6875 36.53125 
Q 60.6875 51.171875 53.6875 57.984375 
Q 46.6875 64.796875 31.59375 64.796875 
z
M 9.8125 72.90625 
L 30.078125 72.90625 
Q 51.265625 72.90625 61.171875 64.09375 
Q 71.09375 55.28125 71.09375 36.53125 
Q 71.09375 17.671875 61.125 8.828125 
Q 51.171875 0 30.078125 0 
L 9.8125 0 
z
" id="DejaVuSans-68"/>
      <path d="M 56.203125 29.59375 
L 56.203125 25.203125 
L 14.890625 25.203125 
Q 15.484375 15.921875 20.484375 11.0625 
Q 25.484375 6.203125 34.421875 6.203125 
Q 39.59375 6.203125 44.453125 7.46875 
Q 49.3125 8.734375 54.109375 11.28125 
L 54.109375 2.78125 
Q 49.265625 0.734375 44.1875 -0.34375 
Q 39.109375 -1.421875 33.890625 -1.421875 
Q 20.796875 -1.421875 13.15625 6.1875 
Q 5.515625 13.8125 5.515625 26.8125 
Q 5.515625 40.234375 12.765625 48.109375 
Q 20.015625 56 32.328125 56 
Q 43.359375 56 49.78125 48.890625 
Q 56.203125 41.796875 56.203125 29.59375 
z
M 47.21875 32.234375 
Q 47.125 39.59375 43.09375 43.984375 
Q 39.0625 48.390625 32.421875 48.390625 
Q 24.90625 48.390625 20.390625 44.140625 
Q 15.875 39.890625 15.1875 32.171875 
z
" id="DejaVuSans-101"/>
      <path d="M 54.890625 33.015625 
L 54.890625 0 
L 45.90625 0 
L 45.90625 32.71875 
Q 45.90625 40.484375 42.875 44.328125 
Q 39.84375 48.1875 33.796875 48.1875 
Q 26.515625 48.1875 22.3125 43.546875 
Q 18.109375 38.921875 18.109375 30.90625 
L 18.109375 0 
L 9.078125 0 
L 9.078125 54.6875 
L 18.109375 54.6875 
L 18.109375 46.1875 
Q 21.34375 51.125 25.703125 53.5625 
Q 30.078125 56 35.796875 56 
Q 45.21875 56 50.046875 50.171875 
Q 54.890625 44.34375 54.890625 33.015625 
z
" id="DejaVuSans-110"/>
      <path d="M 44.28125 53.078125 
L 44.28125 44.578125 
Q 40.484375 46.53125 36.375 47.5 
Q 32.28125 48.484375 27.875 48.484375 
Q 21.1875 48.484375 17.84375 46.4375 
Q 14.5 44.390625 14.5 40.28125 
Q 14.5 37.15625 16.890625 35.375 
Q 19.28125 33.59375 26.515625 31.984375 
L 29.59375 31.296875 
Q 39.15625 29.25 43.1875 25.515625 
Q 47.21875 21.78125 47.21875 15.09375 
Q 47.21875 7.46875 41.1875 3.015625 
Q 35.15625 -1.421875 24.609375 -1.421875 
Q 20.21875 -1.421875 15.453125 -0.5625 
Q 10.6875 0.296875 5.421875 2 
L 5.421875 11.28125 
Q 10.40625 8.6875 15.234375 7.390625 
Q 20.0625 6.109375 24.8125 6.109375 
Q 31.15625 6.109375 34.5625 8.28125 
Q 37.984375 10.453125 37.984375 14.40625 
Q 37.984375 18.0625 35.515625 20.015625 
Q 33.0625 21.96875 24.703125 23.78125 
L 21.578125 24.515625 
Q 13.234375 26.265625 9.515625 29.90625 
Q 5.8125 33.546875 5.8125 39.890625 
Q 5.8125 47.609375 11.28125 51.796875 
Q 16.75 56 26.8125 56 
Q 31.78125 56 36.171875 55.265625 
Q 40.578125 54.546875 44.28125 53.078125 
z
" id="DejaVuSans-115"/>
      <path d="M 9.421875 54.6875 
L 18.40625 54.6875 
L 18.40625 0 
L 9.421875 0 
z
M 9.421875 75.984375 
L 18.40625 75.984375 
L 18.40625 64.59375 
L 9.421875 64.59375 
z
" id="DejaVuSans-105"/>
      <path d="M 32.171875 -5.078125 
Q 28.375 -14.84375 24.75 -17.8125 
Q 21.140625 -20.796875 15.09375 -20.796875 
L 7.90625 -20.796875 
L 7.90625 -13.28125 
L 13.1875 -13.28125 
Q 16.890625 -13.28125 18.9375 -11.515625 
Q 21 -9.765625 23.484375 -3.21875 
L 25.09375 0.875 
L 2.984375 54.6875 
L 12.5 54.6875 
L 29.59375 11.921875 
L 46.6875 54.6875 
L 56.203125 54.6875 
z
" id="DejaVuSans-121"/>
      <path d="M 31 75.875 
Q 24.46875 64.65625 21.28125 53.65625 
Q 18.109375 42.671875 18.109375 31.390625 
Q 18.109375 20.125 21.3125 9.0625 
Q 24.515625 -2 31 -13.1875 
L 23.1875 -13.1875 
Q 15.875 -1.703125 12.234375 9.375 
Q 8.59375 20.453125 8.59375 31.390625 
Q 8.59375 42.28125 12.203125 53.3125 
Q 15.828125 64.359375 23.1875 75.875 
z
" id="DejaVuSans-40"/>
      <path d="M 34.28125 27.484375 
Q 23.390625 27.484375 19.1875 25 
Q 14.984375 22.515625 14.984375 16.5 
Q 14.984375 11.71875 18.140625 8.90625 
Q 21.296875 6.109375 26.703125 6.109375 
Q 34.1875 6.109375 38.703125 11.40625 
Q 43.21875 16.703125 43.21875 25.484375 
L 43.21875 27.484375 
z
M 52.203125 31.203125 
L 52.203125 0 
L 43.21875 0 
L 43.21875 8.296875 
Q 40.140625 3.328125 35.546875 0.953125 
Q 30.953125 -1.421875 24.3125 -1.421875 
Q 15.921875 -1.421875 10.953125 3.296875 
Q 6 8.015625 6 15.921875 
Q 6 25.140625 12.171875 29.828125 
Q 18.359375 34.515625 30.609375 34.515625 
L 43.21875 34.515625 
L 43.21875 35.40625 
Q 43.21875 41.609375 39.140625 45 
Q 35.0625 48.390625 27.6875 48.390625 
Q 23 48.390625 18.546875 47.265625 
Q 14.109375 46.140625 10.015625 43.890625 
L 10.015625 52.203125 
Q 14.9375 54.109375 19.578125 55.046875 
Q 24.21875 56 28.609375 56 
Q 40.484375 56 46.34375 49.84375 
Q 52.203125 43.703125 52.203125 31.203125 
z
" id="DejaVuSans-97"/>
      <path d="M 8.5 21.578125 
L 8.5 54.6875 
L 17.484375 54.6875 
L 17.484375 21.921875 
Q 17.484375 14.15625 20.5 10.265625 
Q 23.53125 6.390625 29.59375 6.390625 
Q 36.859375 6.390625 41.078125 11.03125 
Q 45.3125 15.671875 45.3125 23.6875 
L 45.3125 54.6875 
L 54.296875 54.6875 
L 54.296875 0 
L 45.3125 0 
L 45.3125 8.40625 
Q 42.046875 3.421875 37.71875 1 
Q 33.40625 -1.421875 27.6875 -1.421875 
Q 18.265625 -1.421875 13.375 4.4375 
Q 8.5 10.296875 8.5 21.578125 
z
M 31.109375 56 
z
" id="DejaVuSans-117"/>
      <path d="M 8.015625 75.875 
L 15.828125 75.875 
Q 23.140625 64.359375 26.78125 53.3125 
Q 30.421875 42.28125 30.421875 31.390625 
Q 30.421875 20.453125 26.78125 9.375 
Q 23.140625 -1.703125 15.828125 -13.1875 
L 8.015625 -13.1875 
Q 14.5 -2 17.703125 9.0625 
Q 20.90625 20.125 20.90625 31.390625 
Q 20.90625 42.671875 17.703125 53.65625 
Q 14.5 64.65625 8.015625 75.875 
z
" id="DejaVuSans-41"/>
     </defs>
     <g transform="translate(15.892187 222.917844)rotate(-90)scale(0.1 -0.1)">
      <use xlink:href="#DejaVuSans-80"/>
      <use x="60.287109" xlink:href="#DejaVuSans-114"/>
      <use x="101.369141" xlink:href="#DejaVuSans-111"/>
      <use x="162.550781" xlink:href="#DejaVuSans-98"/>
      <use x="226.027344" xlink:href="#DejaVuSans-46"/>
      <use x="257.814453" xlink:href="#DejaVuSans-32"/>
      <use x="289.601562" xlink:href="#DejaVuSans-68"/>
      <use x="366.603516" xlink:href="#DejaVuSans-101"/>
      <use x="428.126953" xlink:href="#DejaVuSans-110"/>
      <use x="491.505859" xlink:href="#DejaVuSans-115"/>
      <use x="543.605469" xlink:href="#DejaVuSans-105"/>
      <use x="571.388672" xlink:href="#DejaVuSans-116"/>
      <use x="610.597656" xlink:href="#DejaVuSans-121"/>
      <use x="669.777344" xlink:href="#DejaVuSans-32"/>
      <use x="701.564453" xlink:href="#DejaVuSans-40"/>
      <use x="740.578125" xlink:href="#DejaVuSans-97"/>
      <use x="801.857422" xlink:href="#DejaVuSans-46"/>
      <use x="833.644531" xlink:href="#DejaVuSans-117"/>
      <use x="897.023438" xlink:href="#DejaVuSans-46"/>
      <use x="928.810547" xlink:href="#DejaVuSans-41"/>
     </g>
    </g>
   </g>
   <g id="patch_9">
    <path d="M 57.6 307.584 
L 57.6 41.472 
" style="fill:none;stroke:#000000;stroke-linecap:square;stroke-linejoin:miter;stroke-width:0.8;"/>
   </g>
   <g id="patch_10">
    <path d="M 414.72 307.584 
L 414.72 41.472 
" style="fill:none;stroke:#000000;stroke-linecap:square;stroke-linejoin:miter;stroke-width:0.8;"/>
   </g>
   <g id="patch_11">
    <path d="M 57.6 307.584 
L 414.72 307.584 
" style="fill:none;stroke:#000000;stroke-linecap:square;stroke-linejoin:miter;stroke-width:0.8;"/>
   </g>
   <g id="patch_12">
    <path d="M 57.6 41.472 
L 414.72 41.472 
" style="fill:none;stroke:#000000;stroke-linecap:square;stroke-linejoin:miter;stroke-width:0.8;"/>
   </g>
   <g id="legend_1">
    <g id="patch_13">
     <path d="M 325.405938 137.54075 
L 407.72 137.54075 
Q 409.72 137.54075 409.72 135.54075 
L 409.72 48.472 
Q 409.72 46.472 407.72 46.472 
L 325.405938 46.472 
Q 323.405938 46.472 323.405938 48.472 
L 323.405938 135.54075 
Q 323.405938 137.54075 325.405938 137.54075 
z
" style="fill:#ffffff;opacity:0.8;stroke:#cccccc;stroke-linejoin:miter;"/>
    </g>
    <g id="patch_14">
     <path d="M 327.405938 58.070438 
L 347.405938 58.070438 
L 347.405938 51.070438 
L 327.405938 51.070438 
z
" style="fill:none;stroke:#1f77b4;stroke-linejoin:miter;"/>
    </g>
    <g id="text_14">
     <!-- quark -->
     <defs>
      <path d="M 14.796875 27.296875 
Q 14.796875 17.390625 18.875 11.75 
Q 22.953125 6.109375 30.078125 6.109375 
Q 37.203125 6.109375 41.296875 11.75 
Q 45.40625 17.390625 45.40625 27.296875 
Q 45.40625 37.203125 41.296875 42.84375 
Q 37.203125 48.484375 30.078125 48.484375 
Q 22.953125 48.484375 18.875 42.84375 
Q 14.796875 37.203125 14.796875 27.296875 
z
M 45.40625 8.203125 
Q 42.578125 3.328125 38.25 0.953125 
Q 33.9375 -1.421875 27.875 -1.421875 
Q 17.96875 -1.421875 11.734375 6.484375 
Q 5.515625 14.40625 5.515625 27.296875 
Q 5.515625 40.1875 11.734375 48.09375 
Q 17.96875 56 27.875 56 
Q 33.9375 56 38.25 53.625 
Q 42.578125 51.265625 45.40625 46.390625 
L 45.40625 54.6875 
L 54.390625 54.6875 
L 54.390625 -20.796875 
L 45.40625 -20.796875 
z
" id="DejaVuSans-113"/>
      <path d="M 9.078125 75.984375 
L 18.109375 75.984375 
L 18.109375 31.109375 
L 44.921875 54.6875 
L 56.390625 54.6875 
L 27.390625 29.109375 
L 57.625 0 
L 45.90625 0 
L 18.109375 26.703125 
L 18.109375 0 
L 9.078125 0 
z
" id="DejaVuSans-107"/>
     </defs>
     <g transform="translate(355.405938 58.070438)scale(0.1 -0.1)">
      <use xlink:href="#DejaVuSans-113"/>
      <use x="63.476562" xlink:href="#DejaVuSans-117"/>
      <use x="126.855469" xlink:href="#DejaVuSans-97"/>
      <use x="188.134766" xlink:href="#DejaVuSans-114"/>
      <use x="229.248047" xlink:href="#DejaVuSans-107"/>
     </g>
    </g>
    <g id="patch_15">
     <path d="M 327.405938 72.748563 
L 347.405938 72.748563 
L 347.405938 65.748563 
L 327.405938 65.748563 
z
" style="fill:none;stroke:#ff7f0e;stroke-linejoin:miter;"/>
    </g>
    <g id="text_15">
     <!-- gluon -->
     <defs>
      <path d="M 45.40625 27.984375 
Q 45.40625 37.75 41.375 43.109375 
Q 37.359375 48.484375 30.078125 48.484375 
Q 22.859375 48.484375 18.828125 43.109375 
Q 14.796875 37.75 14.796875 27.984375 
Q 14.796875 18.265625 18.828125 12.890625 
Q 22.859375 7.515625 30.078125 7.515625 
Q 37.359375 7.515625 41.375 12.890625 
Q 45.40625 18.265625 45.40625 27.984375 
z
M 54.390625 6.78125 
Q 54.390625 -7.171875 48.1875 -13.984375 
Q 42 -20.796875 29.203125 -20.796875 
Q 24.46875 -20.796875 20.265625 -20.09375 
Q 16.0625 -19.390625 12.109375 -17.921875 
L 12.109375 -9.1875 
Q 16.0625 -11.328125 19.921875 -12.34375 
Q 23.78125 -13.375 27.78125 -13.375 
Q 36.625 -13.375 41.015625 -8.765625 
Q 45.40625 -4.15625 45.40625 5.171875 
L 45.40625 9.625 
Q 42.625 4.78125 38.28125 2.390625 
Q 33.9375 0 27.875 0 
Q 17.828125 0 11.671875 7.65625 
Q 5.515625 15.328125 5.515625 27.984375 
Q 5.515625 40.671875 11.671875 48.328125 
Q 17.828125 56 27.875 56 
Q 33.9375 56 38.28125 53.609375 
Q 42.625 51.21875 45.40625 46.390625 
L 45.40625 54.6875 
L 54.390625 54.6875 
z
" id="DejaVuSans-103"/>
      <path d="M 9.421875 75.984375 
L 18.40625 75.984375 
L 18.40625 0 
L 9.421875 0 
z
" id="DejaVuSans-108"/>
     </defs>
     <g transform="translate(355.405938 72.748563)scale(0.1 -0.1)">
      <use xlink:href="#DejaVuSans-103"/>
      <use x="63.476562" xlink:href="#DejaVuSans-108"/>
      <use x="91.259766" xlink:href="#DejaVuSans-117"/>
      <use x="154.638672" xlink:href="#DejaVuSans-111"/>
      <use x="215.820312" xlink:href="#DejaVuSans-110"/>
     </g>
    </g>
    <g id="patch_16">
     <path d="M 327.405938 87.426688 
L 347.405938 87.426688 
L 347.405938 80.426688 
L 327.405938 80.426688 
z
" style="fill:none;stroke:#2ca02c;stroke-linejoin:miter;"/>
    </g>
    <g id="text_16">
     <!-- W -->
     <defs>
      <path d="M 3.328125 72.90625 
L 13.28125 72.90625 
L 28.609375 11.28125 
L 43.890625 72.90625 
L 54.984375 72.90625 
L 70.3125 11.28125 
L 85.59375 72.90625 
L 95.609375 72.90625 
L 77.296875 0 
L 64.890625 0 
L 49.515625 63.28125 
L 33.984375 0 
L 21.578125 0 
z
" id="DejaVuSans-87"/>
     </defs>
     <g transform="translate(355.405938 87.426688)scale(0.1 -0.1)">
      <use xlink:href="#DejaVuSans-87"/>
     </g>
    </g>
    <g id="patch_17">
     <path d="M 327.405938 102.104813 
L 347.405938 102.104813 
L 347.405938 95.104813 
L 327.405938 95.104813 
z
" style="fill:none;stroke:#d62728;stroke-linejoin:miter;"/>
    </g>
    <g id="text_17">
     <!-- Z -->
     <defs>
      <path d="M 5.609375 72.90625 
L 62.890625 72.90625 
L 62.890625 65.375 
L 16.796875 8.296875 
L 64.015625 8.296875 
L 64.015625 0 
L 4.5 0 
L 4.5 7.515625 
L 50.59375 64.59375 
L 5.609375 64.59375 
z
" id="DejaVuSans-90"/>
     </defs>
     <g transform="translate(355.405938 102.104813)scale(0.1 -0.1)">
      <use xlink:href="#DejaVuSans-90"/>
     </g>
    </g>
    <g id="patch_18">
     <path d="M 327.405938 116.782938 
L 347.405938 116.782938 
L 347.405938 109.782938 
L 327.405938 109.782938 
z
" style="fill:none;stroke:#9467bd;stroke-linejoin:miter;"/>
    </g>
    <g id="text_18">
     <!-- top -->
     <defs>
      <path d="M 18.109375 8.203125 
L 18.109375 -20.796875 
L 9.078125 -20.796875 
L 9.078125 54.6875 
L 18.109375 54.6875 
L 18.109375 46.390625 
Q 20.953125 51.265625 25.265625 53.625 
Q 29.59375 56 35.59375 56 
Q 45.5625 56 51.78125 48.09375 
Q 58.015625 40.1875 58.015625 27.296875 
Q 58.015625 14.40625 51.78125 6.484375 
Q 45.5625 -1.421875 35.59375 -1.421875 
Q 29.59375 -1.421875 25.265625 0.953125 
Q 20.953125 3.328125 18.109375 8.203125 
z
M 48.6875 27.296875 
Q 48.6875 37.203125 44.609375 42.84375 
Q 40.53125 48.484375 33.40625 48.484375 
Q 26.265625 48.484375 22.1875 42.84375 
Q 18.109375 37.203125 18.109375 27.296875 
Q 18.109375 17.390625 22.1875 11.75 
Q 26.265625 6.109375 33.40625 6.109375 
Q 40.53125 6.109375 44.609375 11.75 
Q 48.6875 17.390625 48.6875 27.296875 
z
" id="DejaVuSans-112"/>
     </defs>
     <g transform="translate(355.405938 116.782938)scale(0.1 -0.1)">
      <use xlink:href="#DejaVuSans-116"/>
      <use x="39.208984" xlink:href="#DejaVuSans-111"/>
      <use x="100.390625" xlink:href="#DejaVuSans-112"/>
     </g>
    </g>
    <g id="patch_19">
     <path d="M 327.405938 131.461063 
L 347.405938 131.461063 
L 347.405938 124.461063 
L 327.405938 124.461063 
z
" style="fill:none;stroke:#000000;stroke-linejoin:miter;"/>
    </g>
    <g id="text_19">
     <!-- undefined -->
     <defs>
      <path d="M 37.109375 75.984375 
L 37.109375 68.5 
L 28.515625 68.5 
Q 23.6875 68.5 21.796875 66.546875 
Q 19.921875 64.59375 19.921875 59.515625 
L 19.921875 54.6875 
L 34.71875 54.6875 
L 34.71875 47.703125 
L 19.921875 47.703125 
L 19.921875 0 
L 10.890625 0 
L 10.890625 47.703125 
L 2.296875 47.703125 
L 2.296875 54.6875 
L 10.890625 54.6875 
L 10.890625 58.5 
Q 10.890625 67.625 15.140625 71.796875 
Q 19.390625 75.984375 28.609375 75.984375 
z
" id="DejaVuSans-102"/>
     </defs>
     <g transform="translate(355.405938 131.461063)scale(0.1 -0.1)">
      <use xlink:href="#DejaVuSans-117"/>
      <use x="63.378906" xlink:href="#DejaVuSans-110"/>
      <use x="126.757812" xlink:href="#DejaVuSans-100"/>
      <use x="190.234375" xlink:href="#DejaVuSans-101"/>
      <use x="251.757812" xlink:href="#DejaVuSans-102"/>
      <use x="286.962891" xlink:href="#DejaVuSans-105"/>
      <use x="314.746094" xlink:href="#DejaVuSans-110"/>
      <use x="378.125" xlink:href="#DejaVuSans-101"/>
      <use x="439.648438" xlink:href="#DejaVuSans-100"/>
     </g>
    </g>
   </g>
  </g>
 </g>
 <defs>
  <clipPath id="pd43a7af5f7">
   <rect height="266.112" width="357.12" x="57.6" y="41.472"/>
  </clipPath>
 </defs>
</svg>
