<?xml version="1.0" encoding="utf-8" standalone="no"?>
<!DOCTYPE svg PUBLIC "-//W3C//DTD SVG 1.1//EN"
  "http://www.w3.org/Graphics/SVG/1.1/DTD/svg11.dtd">
<!-- Created with matplotlib (https://matplotlib.org/) -->
<svg height="345.6pt" version="1.1" viewBox="0 0 460.8 345.6" width="460.8pt" xmlns="http://www.w3.org/2000/svg" xmlns:xlink="http://www.w3.org/1999/xlink">
 <defs>
  <style type="text/css">
*{stroke-linecap:butt;stroke-linejoin:round;}
  </style>
 </defs>
 <g id="figure_1">
  <g id="patch_1">
   <path d="M 0 345.6 
L 460.8 345.6 
L 460.8 0 
L 0 0 
z
" style="fill:#ffffff;"/>
  </g>
  <g id="axes_1">
   <g id="patch_2">
    <path d="M 57.6 307.584 
L 414.72 307.584 
L 414.72 41.472 
L 57.6 41.472 
z
" style="fill:#ffffff;"/>
   </g>
   <g id="patch_3">
    <path clip-path="url(#pbba21723fd)" d="M 73.832732 307.584 
L 161.489454 307.584 
L 161.489454 305.578221 
L 164.736 305.578221 
L 164.736 85.752712 
L 167.982545 85.752712 
L 167.982545 54.144 
L 171.229091 54.144 
L 171.229091 203.749552 
L 174.475637 203.749552 
L 174.475637 238.034607 
L 177.722182 238.034607 
L 177.722182 251.850876 
L 180.968727 251.850876 
L 180.968727 259.907431 
L 184.215273 259.907431 
L 184.215273 262.363527 
L 187.461819 262.363527 
L 187.461819 267.836149 
L 190.708363 267.836149 
L 190.708363 271.14372 
L 193.954908 271.14372 
L 193.954908 272.508434 
L 197.201455 272.508434 
L 197.201455 277.159088 
L 200.448 277.159088 
L 200.448 275.023524 
L 203.694545 275.023524 
L 203.694545 281.137217 
L 206.941092 281.137217 
L 206.941092 278.008596 
L 210.187637 278.008596 
L 210.187637 277.237748 
L 213.434182 277.237748 
L 213.434182 279.921949 
L 216.680727 279.921949 
L 216.680727 284.257973 
L 219.927271 284.257973 
L 219.927271 286.419103 
L 223.173816 286.419103 
L 223.173816 281.322065 
L 226.420366 281.322065 
L 226.420366 284.847908 
L 229.66691 284.847908 
L 229.66691 284.320899 
L 232.913455 284.320899 
L 232.913455 288.334425 
L 236.16 288.334425 
L 236.16 288.959755 
L 239.406545 288.959755 
L 239.406545 289.148534 
L 242.65309 289.148534 
L 242.65309 292.306652 
L 245.899639 292.306652 
L 245.899639 292.448236 
L 249.146179 292.448236 
L 249.146179 293.154191 
L 252.392729 293.154191 
L 252.392729 293.606474 
L 255.639269 293.606474 
L 255.639269 290.300872 
L 258.885818 290.300872 
L 258.885818 293.124694 
L 262.132368 293.124694 
L 262.132368 294.037129 
L 265.378908 294.037129 
L 265.378908 293.004742 
L 268.625457 293.004742 
L 268.625457 296.729197 
L 271.871997 296.729197 
L 271.871997 296.581713 
L 275.118547 296.581713 
L 275.118547 296.143195 
L 278.365087 296.143195 
L 278.365087 295.690913 
L 281.611637 295.690913 
L 281.611637 297.857939 
L 284.858186 297.857939 
L 284.858186 299.271817 
L 294.597816 299.224622 
L 294.597816 301.570597 
L 297.844365 301.570597 
L 297.844365 299.834221 
L 301.090905 299.834221 
L 301.090905 299.515656 
L 304.337455 299.515656 
L 304.337455 301.672853 
L 307.584004 301.672853 
L 307.584004 303.320737 
L 310.830544 303.320737 
L 310.830544 304.366888 
L 314.077094 304.366888 
L 314.077094 303.731725 
L 317.323634 303.731725 
L 317.323634 303.969665 
L 320.570184 303.969665 
L 320.570184 304.107316 
L 323.816724 304.107316 
L 323.816724 304.972555 
L 327.063273 304.972555 
L 327.063273 305.735537 
L 333.556372 305.824027 
L 333.556372 305.871222 
L 336.802912 305.871222 
L 336.802912 306.531949 
L 340.049452 306.531949 
L 340.049452 305.605752 
L 343.295992 305.605752 
L 343.295992 306.111129 
L 346.542551 306.111129 
L 346.542551 306.632238 
L 349.789091 306.632238 
L 349.789091 305.814195 
L 353.035631 305.814195 
L 353.035631 306.734494 
L 356.282191 306.734494 
L 356.282191 305.745369 
L 359.528731 305.745369 
L 359.528731 305.926283 
L 362.775271 305.926283 
L 362.775271 306.528017 
L 366.021811 306.528017 
L 366.021811 307.084522 
L 369.26837 307.084522 
L 369.26837 307.40702 
L 375.76145 307.359825 
L 375.76145 307.151381 
L 379.008009 307.151381 
L 379.008009 307.584 
L 382.254549 307.584 
L 382.254549 307.281167 
L 388.747629 307.379489 
L 388.747629 307.584 
L 391.994188 307.584 
L 391.994188 307.342127 
L 398.487268 307.322462 
L 398.487268 307.584 
L 398.487268 307.584 
" style="fill:none;stroke:#1f77b4;stroke-linejoin:miter;"/>
   </g>
   <g id="patch_4">
    <path clip-path="url(#pbba21723fd)" d="M 73.832732 307.584 
L 164.736 307.497476 
L 164.736 257.347114 
L 167.982545 257.347114 
L 167.982545 134.849076 
L 171.229091 134.849076 
L 171.229091 136.099764 
L 174.475637 136.099764 
L 174.475637 186.592285 
L 177.722182 186.592285 
L 177.722182 206.1211 
L 180.968727 206.1211 
L 180.968727 220.183181 
L 184.215273 220.183181 
L 184.215273 222.354125 
L 187.461819 222.354125 
L 187.461819 226.288995 
L 190.708363 226.288995 
L 190.708363 233.069325 
L 193.954908 233.069325 
L 193.954908 241.28515 
L 197.201455 241.28515 
L 197.201455 248.354531 
L 200.448 248.354531 
L 200.448 245.01944 
L 203.694545 245.01944 
L 203.694545 247.221862 
L 206.941092 247.221862 
L 206.941092 247.506995 
L 210.187637 247.506995 
L 210.187637 245.479587 
L 213.434182 245.479587 
L 213.434182 253.937286 
L 216.680727 253.937286 
L 216.680727 257.329411 
L 219.927271 257.329411 
L 219.927271 252.301197 
L 223.173816 252.301197 
L 223.173816 254.662904 
L 226.420366 254.662904 
L 226.420366 258.627263 
L 229.66691 258.627263 
L 229.66691 261.698862 
L 232.913455 261.698862 
L 232.913455 258.621374 
L 236.16 258.621374 
L 236.16 259.071685 
L 239.406545 259.071685 
L 239.406545 261.197416 
L 242.65309 261.197416 
L 242.65309 261.006663 
L 245.899639 261.006663 
L 245.899639 262.418577 
L 249.146179 262.418577 
L 249.146179 258.304769 
L 252.392729 258.304769 
L 252.392729 268.947194 
L 255.639269 268.947194 
L 255.639269 261.148254 
L 258.885818 261.148254 
L 258.885818 274.984196 
L 262.132368 274.984196 
L 262.132368 268.841006 
L 265.378908 268.841006 
L 265.378908 274.958633 
L 268.625457 274.958633 
L 268.625457 268.408391 
L 271.871997 268.408391 
L 271.871997 271.698259 
L 275.118547 271.698259 
L 275.118547 273.041349 
L 278.365087 273.041349 
L 278.365087 277.595646 
L 281.611637 277.595646 
L 281.611637 274.404096 
L 284.858186 274.404096 
L 284.858186 278.439246 
L 288.104726 278.439246 
L 288.104726 278.962325 
L 291.351276 278.962325 
L 291.351276 279.444106 
L 294.597816 279.444106 
L 294.597816 277.017506 
L 297.844365 277.017506 
L 297.844365 280.81472 
L 301.090905 280.81472 
L 301.090905 282.578627 
L 307.584004 282.592394 
L 307.584004 281.929694 
L 310.830544 281.929694 
L 310.830544 284.35236 
L 314.077094 284.35236 
L 314.077094 286.859587 
L 317.323634 286.859587 
L 317.323634 287.011002 
L 323.816724 287.020836 
L 323.816724 291.352923 
L 327.063273 291.352923 
L 327.063273 290.965534 
L 330.309813 290.965534 
L 330.309813 292.212263 
L 333.556372 292.212263 
L 333.556372 295.191435 
L 336.802912 295.191435 
L 336.802912 293.987967 
L 340.049452 293.987967 
L 340.049452 297.997557 
L 343.295992 297.997557 
L 343.295992 298.379048 
L 346.542551 298.379048 
L 346.542551 300.428089 
L 353.035631 300.461519 
L 353.035631 302.256886 
L 356.282191 302.256886 
L 356.282191 299.05944 
L 359.528731 299.05944 
L 359.528731 301.491938 
L 362.775271 301.491938 
L 362.775271 302.836989 
L 366.021811 302.836989 
L 366.021811 302.453532 
L 372.51491 302.406337 
L 372.51491 303.786785 
L 375.76145 303.786785 
L 375.76145 304.5596 
L 379.008009 304.5596 
L 379.008009 304.825071 
L 382.254549 304.825071 
L 382.254549 305.159367 
L 385.501089 305.159367 
L 385.501089 306.050169 
L 388.747629 306.050169 
L 388.747629 306.606674 
L 395.240728 306.596842 
L 395.240728 306.767923 
L 398.487268 306.767923 
L 398.487268 307.584 
L 398.487268 307.584 
" style="fill:none;stroke:#ff7f0e;stroke-linejoin:miter;"/>
   </g>
   <g id="patch_5">
    <path clip-path="url(#pbba21723fd)" d="M 73.832732 307.584 
L 161.489454 307.584 
L 161.489454 307.263469 
L 164.736 307.263469 
L 164.736 249.8333 
L 167.982545 249.8333 
L 167.982545 242.699023 
L 171.229091 242.699023 
L 171.229091 277.951567 
L 174.475637 277.951567 
L 174.475637 288.080753 
L 177.722182 288.080753 
L 177.722182 293.248582 
L 180.968727 293.248582 
L 180.968727 290.15929 
L 184.215273 290.15929 
L 184.215273 287.22338 
L 187.461819 287.22338 
L 187.461819 270.4122 
L 190.708363 270.4122 
L 190.708363 254.128025 
L 193.954908 254.128025 
L 193.954908 239.9401 
L 197.201455 239.9401 
L 197.201455 230.2101 
L 200.448 230.2101 
L 200.448 215.379138 
L 203.694545 215.379138 
L 203.694545 213.251448 
L 206.941092 213.251448 
L 206.941092 208.895738 
L 210.187637 208.895738 
L 210.187637 219.966872 
L 213.434182 219.966872 
L 213.434182 220.733784 
L 216.680727 220.733784 
L 216.680727 224.912483 
L 219.927271 224.912483 
L 219.927271 226.599708 
L 223.173816 226.599708 
L 223.173816 229.236711 
L 226.420366 229.236711 
L 226.420366 236.665957 
L 229.66691 236.665957 
L 229.66691 247.516821 
L 232.913455 247.516821 
L 232.913455 254.936241 
L 236.16 254.936241 
L 236.16 261.232808 
L 239.406545 261.232808 
L 239.406545 266.347549 
L 242.65309 266.347549 
L 242.65309 277.599572 
L 245.899639 277.599572 
L 245.899639 281.951328 
L 249.146179 281.951328 
L 249.146179 285.660051 
L 252.392729 285.660051 
L 252.392729 291.126782 
L 255.639269 291.126782 
L 255.639269 296.668238 
L 258.885818 296.668238 
L 258.885818 299.171528 
L 262.132368 299.171528 
L 262.132368 301.314958 
L 265.378908 301.314958 
L 265.378908 303.131958 
L 268.625457 303.131958 
L 268.625457 305.076776 
L 271.871997 305.076776 
L 271.871997 305.751269 
L 275.118547 305.751269 
L 275.118547 306.333338 
L 278.365087 306.333338 
L 278.365087 307.249704 
L 284.858186 307.290999 
L 284.858186 306.937038 
L 291.351276 307.035361 
L 291.351276 307.477812 
L 304.337455 307.584 
L 304.337455 307.290999 
L 310.830544 307.287066 
L 310.830544 306.718762 
L 314.077094 306.718762 
L 314.077094 306.988166 
L 317.323634 306.988166 
L 317.323634 307.241838 
L 320.570184 307.241838 
L 320.570184 306.997998 
L 323.816724 306.997998 
L 323.816724 306.85838 
L 327.063273 306.85838 
L 327.063273 307.456181 
L 333.556372 307.471912 
L 333.556372 307.131717 
L 336.802912 307.131717 
L 336.802912 307.391288 
L 340.049452 307.391288 
L 340.049452 307.584 
L 343.295992 307.584 
L 343.295992 307.220207 
L 346.542551 307.220207 
L 346.542551 307.584 
L 349.789091 307.584 
L 349.789091 307.348026 
L 353.035631 307.348026 
L 353.035631 307.584 
L 366.021811 307.584 
L 366.021811 307.344093 
L 369.26837 307.344093 
L 369.26837 307.584 
L 385.501089 307.584 
L 385.501089 307.436516 
L 388.747629 307.436516 
L 388.747629 307.584 
L 398.487268 307.584 
L 398.487268 307.584 
" style="fill:none;stroke:#2ca02c;stroke-linejoin:miter;"/>
   </g>
   <g id="patch_6">
    <path clip-path="url(#pbba21723fd)" d="M 73.832732 307.584 
L 161.489454 307.584 
L 161.489454 307.029461 
L 164.736 307.029461 
L 164.736 252.731855 
L 167.982545 252.731855 
L 167.982545 248.14609 
L 171.229091 248.14609 
L 171.229091 278.569035 
L 174.475637 278.569035 
L 174.475637 292.182766 
L 177.722182 292.182766 
L 177.722182 292.890689 
L 180.968727 292.890689 
L 180.968727 294.20231 
L 184.215273 294.20231 
L 184.215273 290.591906 
L 187.461819 290.591906 
L 187.461819 279.20813 
L 190.708363 279.20813 
L 190.708363 265.368262 
L 193.954908 265.368262 
L 193.954908 249.892298 
L 197.201455 249.892298 
L 197.201455 240.443502 
L 200.448 240.443502 
L 200.448 230.318259 
L 203.694545 230.318259 
L 203.694545 222.562586 
L 206.941092 222.562586 
L 206.941092 221.884152 
L 210.187637 221.884152 
L 210.187637 224.570331 
L 213.434182 224.570331 
L 213.434182 228.703806 
L 216.680727 228.703806 
L 216.680727 226.287036 
L 219.927271 226.287036 
L 219.927271 225.813114 
L 223.173816 225.813114 
L 223.173816 229.287837 
L 226.420366 229.287837 
L 226.420366 233.818538 
L 229.66691 233.818538 
L 229.66691 238.011006 
L 232.913455 238.011006 
L 232.913455 244.046042 
L 236.16 244.046042 
L 236.16 249.388887 
L 239.406545 249.388887 
L 239.406545 253.475165 
L 242.65309 253.475165 
L 242.65309 260.983072 
L 245.899639 260.983072 
L 245.899639 265.346625 
L 249.146179 265.346625 
L 249.146179 272.887957 
L 252.392729 272.887957 
L 252.392729 279.115705 
L 255.639269 279.115705 
L 255.639269 285.046521 
L 258.885818 285.046521 
L 258.885818 285.691514 
L 262.132368 285.691514 
L 262.132368 287.111292 
L 265.378908 287.111292 
L 265.378908 293.29971 
L 268.625457 293.29971 
L 268.625457 295.633884 
L 271.871997 295.633884 
L 271.871997 300.133122 
L 275.118547 300.133122 
L 275.118547 303.283374 
L 278.365087 303.283374 
L 278.365087 304.431781 
L 281.611637 304.431781 
L 281.611637 305.40714 
L 284.858186 305.40714 
L 284.858186 306.252714 
L 288.104726 306.252714 
L 288.104726 307.072723 
L 291.351276 307.072723 
L 291.351276 306.795454 
L 301.090905 306.817085 
L 301.090905 307.418818 
L 304.337455 307.418818 
L 304.337455 307.159247 
L 317.323634 307.125817 
L 317.323634 307.584 
L 320.570184 307.584 
L 320.570184 307.186777 
L 323.816724 307.186777 
L 323.816724 306.984233 
L 327.063273 306.984233 
L 327.063273 307.446349 
L 330.309813 307.446349 
L 330.309813 307.123851 
L 333.556372 307.123851 
L 333.556372 307.355892 
L 336.802912 307.355892 
L 336.802912 306.88591 
L 340.049452 306.88591 
L 340.049452 307.342127 
L 346.542551 307.410952 
L 346.542551 307.584 
L 353.035631 307.584 
L 353.035631 307.46208 
L 366.021811 307.467979 
L 366.021811 307.584 
L 372.51491 307.584 
L 372.51491 307.214307 
L 375.76145 307.214307 
L 375.76145 307.584 
L 398.487268 307.584 
L 398.487268 307.584 
" style="fill:none;stroke:#d62728;stroke-linejoin:miter;"/>
   </g>
   <g id="patch_7">
    <path clip-path="url(#pbba21723fd)" d="M 73.832732 307.584 
L 164.736 307.584 
L 164.736 300.506748 
L 167.982545 300.506748 
L 167.982545 296.63874 
L 171.229091 296.63874 
L 171.229091 302.117269 
L 174.475637 302.117269 
L 174.475637 304.241036 
L 177.722182 304.241036 
L 177.722182 304.659889 
L 180.968727 304.659889 
L 180.968727 304.860467 
L 184.215273 304.860467 
L 184.215273 303.499683 
L 187.461819 303.499683 
L 187.461819 302.475163 
L 190.708363 302.475163 
L 190.708363 300.260941 
L 193.954908 300.260941 
L 193.954908 295.860026 
L 197.201455 295.860026 
L 197.201455 289.545757 
L 200.448 289.545757 
L 200.448 284.869538 
L 203.694545 284.869538 
L 203.694545 279.914082 
L 206.941092 279.914082 
L 206.941092 269.633486 
L 210.187637 269.633486 
L 210.187637 267.904978 
L 213.434182 267.904978 
L 213.434182 266.300352 
L 216.680727 266.300352 
L 216.680727 261.633972 
L 219.927271 261.633972 
L 219.927271 263.565016 
L 223.173816 263.565016 
L 223.173816 265.836267 
L 226.420366 265.836267 
L 226.420366 265.519675 
L 229.66691 265.519675 
L 229.66691 261.325238 
L 232.913455 261.325238 
L 232.913455 266.302316 
L 236.16 266.302316 
L 236.16 266.046682 
L 239.406545 266.046682 
L 239.406545 268.542106 
L 242.65309 268.542106 
L 242.65309 268.866572 
L 245.899639 268.866572 
L 245.899639 267.757494 
L 249.146179 267.757494 
L 249.146179 269.301153 
L 252.392729 269.301153 
L 252.392729 270.600979 
L 255.639269 270.600979 
L 255.639269 274.069795 
L 258.885818 274.069795 
L 258.885818 273.009878 
L 262.132368 273.009878 
L 262.132368 273.759097 
L 265.378908 273.759097 
L 265.378908 277.847346 
L 268.625457 277.847346 
L 268.625457 274.999932 
L 271.871997 274.999932 
L 271.871997 274.545683 
L 275.118547 274.545683 
L 275.118547 268.463448 
L 278.365087 268.463448 
L 278.365087 272.994149 
L 281.611637 272.994149 
L 281.611637 271.127989 
L 284.858186 271.127989 
L 284.858186 268.123256 
L 288.104726 268.123256 
L 288.104726 262.788277 
L 291.351276 262.788277 
L 291.351276 263.448999 
L 294.597816 263.448999 
L 294.597816 252.383795 
L 297.844365 252.383795 
L 297.844365 245.507122 
L 301.090905 245.507122 
L 301.090905 243.963448 
L 304.337455 243.963448 
L 304.337455 242.264441 
L 307.584004 242.264441 
L 307.584004 235.531314 
L 310.830544 235.531314 
L 310.830544 229.694894 
L 314.077094 229.694894 
L 314.077094 226.344064 
L 317.323634 226.344064 
L 317.323634 225.90358 
L 320.570184 225.90358 
L 320.570184 219.546041 
L 323.816724 219.546041 
L 323.816724 221.042518 
L 327.063273 221.042518 
L 327.063273 222.444591 
L 330.309813 222.444591 
L 330.309813 228.40097 
L 333.556372 228.40097 
L 333.556372 234.270813 
L 336.802912 234.270813 
L 336.802912 240.535932 
L 340.049452 240.535932 
L 340.049452 251.811551 
L 343.295992 251.811551 
L 343.295992 254.464293 
L 346.542551 254.464293 
L 346.542551 264.127429 
L 349.789091 264.127429 
L 349.789091 266.83523 
L 353.035631 266.83523 
L 353.035631 273.287149 
L 356.282191 273.287149 
L 356.282191 281.19621 
L 359.528731 281.19621 
L 359.528731 282.639584 
L 362.775271 282.639584 
L 362.775271 288.291161 
L 366.021811 288.291161 
L 366.021811 294.707688 
L 369.26837 294.707688 
L 369.26837 294.017462 
L 372.51491 294.017462 
L 372.51491 297.726188 
L 375.76145 297.726188 
L 375.76145 300.013169 
L 379.008009 300.013169 
L 379.008009 300.813513 
L 382.254549 300.813513 
L 382.254549 301.731845 
L 385.501089 301.731845 
L 385.501089 301.930457 
L 388.747629 301.930457 
L 388.747629 303.507549 
L 391.994188 303.507549 
L 391.994188 305.357979 
L 398.487268 305.381576 
L 398.487268 307.584 
L 398.487268 307.584 
" style="fill:none;stroke:#9467bd;stroke-linejoin:miter;"/>
   </g>
   <g id="patch_8">
    <path clip-path="url(#pbba21723fd)" d="M 73.832727 307.584 
L 398.487273 307.584 
L 398.487273 307.584 
" style="fill:none;stroke:#000000;stroke-linejoin:miter;"/>
   </g>
   <g id="matplotlib.axis_1">
    <g id="xtick_1">
     <g id="line2d_1">
      <defs>
       <path d="M 0 0 
L 0 3.5 
" id="m74d2dad384" style="stroke:#000000;stroke-width:0.8;"/>
      </defs>
      <g>
       <use style="stroke:#000000;stroke-width:0.8;" x="100.366932" xlink:href="#m74d2dad384" y="307.584"/>
      </g>
     </g>
     <g id="text_1">
      <!-- −0.05 -->
      <defs>
       <path d="M 10.59375 35.5 
L 73.1875 35.5 
L 73.1875 27.203125 
L 10.59375 27.203125 
z
" id="DejaVuSans-8722"/>
       <path d="M 31.78125 66.40625 
Q 24.171875 66.40625 20.328125 58.90625 
Q 16.5 51.421875 16.5 36.375 
Q 16.5 21.390625 20.328125 13.890625 
Q 24.171875 6.390625 31.78125 6.390625 
Q 39.453125 6.390625 43.28125 13.890625 
Q 47.125 21.390625 47.125 36.375 
Q 47.125 51.421875 43.28125 58.90625 
Q 39.453125 66.40625 31.78125 66.40625 
z
M 31.78125 74.21875 
Q 44.046875 74.21875 50.515625 64.515625 
Q 56.984375 54.828125 56.984375 36.375 
Q 56.984375 17.96875 50.515625 8.265625 
Q 44.046875 -1.421875 31.78125 -1.421875 
Q 19.53125 -1.421875 13.0625 8.265625 
Q 6.59375 17.96875 6.59375 36.375 
Q 6.59375 54.828125 13.0625 64.515625 
Q 19.53125 74.21875 31.78125 74.21875 
z
" id="DejaVuSans-48"/>
       <path d="M 10.6875 12.40625 
L 21 12.40625 
L 21 0 
L 10.6875 0 
z
" id="DejaVuSans-46"/>
       <path d="M 10.796875 72.90625 
L 49.515625 72.90625 
L 49.515625 64.59375 
L 19.828125 64.59375 
L 19.828125 46.734375 
Q 21.96875 47.46875 24.109375 47.828125 
Q 26.265625 48.1875 28.421875 48.1875 
Q 40.625 48.1875 47.75 41.5 
Q 54.890625 34.8125 54.890625 23.390625 
Q 54.890625 11.625 47.5625 5.09375 
Q 40.234375 -1.421875 26.90625 -1.421875 
Q 22.3125 -1.421875 17.546875 -0.640625 
Q 12.796875 0.140625 7.71875 1.703125 
L 7.71875 11.625 
Q 12.109375 9.234375 16.796875 8.0625 
Q 21.484375 6.890625 26.703125 6.890625 
Q 35.15625 6.890625 40.078125 11.328125 
Q 45.015625 15.765625 45.015625 23.390625 
Q 45.015625 31 40.078125 35.4375 
Q 35.15625 39.890625 26.703125 39.890625 
Q 22.75 39.890625 18.8125 39.015625 
Q 14.890625 38.140625 10.796875 36.28125 
z
" id="DejaVuSans-53"/>
      </defs>
      <g transform="translate(85.044276 322.182437)scale(0.1 -0.1)">
       <use xlink:href="#DejaVuSans-8722"/>
       <use x="83.789062" xlink:href="#DejaVuSans-48"/>
       <use x="147.412109" xlink:href="#DejaVuSans-46"/>
       <use x="179.199219" xlink:href="#DejaVuSans-48"/>
       <use x="242.822266" xlink:href="#DejaVuSans-53"/>
      </g>
     </g>
    </g>
    <g id="xtick_2">
     <g id="line2d_2">
      <g>
       <use style="stroke:#000000;stroke-width:0.8;" x="164.525695" xlink:href="#m74d2dad384" y="307.584"/>
      </g>
     </g>
     <g id="text_2">
      <!-- 0.00 -->
      <g transform="translate(153.392883 322.182437)scale(0.1 -0.1)">
       <use xlink:href="#DejaVuSans-48"/>
       <use x="63.623047" xlink:href="#DejaVuSans-46"/>
       <use x="95.410156" xlink:href="#DejaVuSans-48"/>
       <use x="159.033203" xlink:href="#DejaVuSans-48"/>
      </g>
     </g>
    </g>
    <g id="xtick_3">
     <g id="line2d_3">
      <g>
       <use style="stroke:#000000;stroke-width:0.8;" x="228.684459" xlink:href="#m74d2dad384" y="307.584"/>
      </g>
     </g>
     <g id="text_3">
      <!-- 0.05 -->
      <g transform="translate(217.551646 322.182437)scale(0.1 -0.1)">
       <use xlink:href="#DejaVuSans-48"/>
       <use x="63.623047" xlink:href="#DejaVuSans-46"/>
       <use x="95.410156" xlink:href="#DejaVuSans-48"/>
       <use x="159.033203" xlink:href="#DejaVuSans-53"/>
      </g>
     </g>
    </g>
    <g id="xtick_4">
     <g id="line2d_4">
      <g>
       <use style="stroke:#000000;stroke-width:0.8;" x="292.843222" xlink:href="#m74d2dad384" y="307.584"/>
      </g>
     </g>
     <g id="text_4">
      <!-- 0.10 -->
      <defs>
       <path d="M 12.40625 8.296875 
L 28.515625 8.296875 
L 28.515625 63.921875 
L 10.984375 60.40625 
L 10.984375 69.390625 
L 28.421875 72.90625 
L 38.28125 72.90625 
L 38.28125 8.296875 
L 54.390625 8.296875 
L 54.390625 0 
L 12.40625 0 
z
" id="DejaVuSans-49"/>
      </defs>
      <g transform="translate(281.71041 322.182437)scale(0.1 -0.1)">
       <use xlink:href="#DejaVuSans-48"/>
       <use x="63.623047" xlink:href="#DejaVuSans-46"/>
       <use x="95.410156" xlink:href="#DejaVuSans-49"/>
       <use x="159.033203" xlink:href="#DejaVuSans-48"/>
      </g>
     </g>
    </g>
    <g id="xtick_5">
     <g id="line2d_5">
      <g>
       <use style="stroke:#000000;stroke-width:0.8;" x="357.001985" xlink:href="#m74d2dad384" y="307.584"/>
      </g>
     </g>
     <g id="text_5">
      <!-- 0.15 -->
      <g transform="translate(345.869173 322.182437)scale(0.1 -0.1)">
       <use xlink:href="#DejaVuSans-48"/>
       <use x="63.623047" xlink:href="#DejaVuSans-46"/>
       <use x="95.410156" xlink:href="#DejaVuSans-49"/>
       <use x="159.033203" xlink:href="#DejaVuSans-53"/>
      </g>
     </g>
    </g>
    <g id="text_6">
     <!-- j_c2_b1_mmdt -->
     <defs>
      <path d="M 9.421875 54.6875 
L 18.40625 54.6875 
L 18.40625 -0.984375 
Q 18.40625 -11.421875 14.421875 -16.109375 
Q 10.453125 -20.796875 1.609375 -20.796875 
L -1.8125 -20.796875 
L -1.8125 -13.1875 
L 0.59375 -13.1875 
Q 5.71875 -13.1875 7.5625 -10.8125 
Q 9.421875 -8.453125 9.421875 -0.984375 
z
M 9.421875 75.984375 
L 18.40625 75.984375 
L 18.40625 64.59375 
L 9.421875 64.59375 
z
" id="DejaVuSans-106"/>
      <path d="M 50.984375 -16.609375 
L 50.984375 -23.578125 
L -0.984375 -23.578125 
L -0.984375 -16.609375 
z
" id="DejaVuSans-95"/>
      <path d="M 48.78125 52.59375 
L 48.78125 44.1875 
Q 44.96875 46.296875 41.140625 47.34375 
Q 37.3125 48.390625 33.40625 48.390625 
Q 24.65625 48.390625 19.8125 42.84375 
Q 14.984375 37.3125 14.984375 27.296875 
Q 14.984375 17.28125 19.8125 11.734375 
Q 24.65625 6.203125 33.40625 6.203125 
Q 37.3125 6.203125 41.140625 7.25 
Q 44.96875 8.296875 48.78125 10.40625 
L 48.78125 2.09375 
Q 45.015625 0.34375 40.984375 -0.53125 
Q 36.96875 -1.421875 32.421875 -1.421875 
Q 20.0625 -1.421875 12.78125 6.34375 
Q 5.515625 14.109375 5.515625 27.296875 
Q 5.515625 40.671875 12.859375 48.328125 
Q 20.21875 56 33.015625 56 
Q 37.15625 56 41.109375 55.140625 
Q 45.0625 54.296875 48.78125 52.59375 
z
" id="DejaVuSans-99"/>
      <path d="M 19.1875 8.296875 
L 53.609375 8.296875 
L 53.609375 0 
L 7.328125 0 
L 7.328125 8.296875 
Q 12.9375 14.109375 22.625 23.890625 
Q 32.328125 33.6875 34.8125 36.53125 
Q 39.546875 41.84375 41.421875 45.53125 
Q 43.3125 49.21875 43.3125 52.78125 
Q 43.3125 58.59375 39.234375 62.25 
Q 35.15625 65.921875 28.609375 65.921875 
Q 23.96875 65.921875 18.8125 64.3125 
Q 13.671875 62.703125 7.8125 59.421875 
L 7.8125 69.390625 
Q 13.765625 71.78125 18.9375 73 
Q 24.125 74.21875 28.421875 74.21875 
Q 39.75 74.21875 46.484375 68.546875 
Q 53.21875 62.890625 53.21875 53.421875 
Q 53.21875 48.921875 51.53125 44.890625 
Q 49.859375 40.875 45.40625 35.40625 
Q 44.1875 33.984375 37.640625 27.21875 
Q 31.109375 20.453125 19.1875 8.296875 
z
" id="DejaVuSans-50"/>
      <path d="M 48.6875 27.296875 
Q 48.6875 37.203125 44.609375 42.84375 
Q 40.53125 48.484375 33.40625 48.484375 
Q 26.265625 48.484375 22.1875 42.84375 
Q 18.109375 37.203125 18.109375 27.296875 
Q 18.109375 17.390625 22.1875 11.75 
Q 26.265625 6.109375 33.40625 6.109375 
Q 40.53125 6.109375 44.609375 11.75 
Q 48.6875 17.390625 48.6875 27.296875 
z
M 18.109375 46.390625 
Q 20.953125 51.265625 25.265625 53.625 
Q 29.59375 56 35.59375 56 
Q 45.5625 56 51.78125 48.09375 
Q 58.015625 40.1875 58.015625 27.296875 
Q 58.015625 14.40625 51.78125 6.484375 
Q 45.5625 -1.421875 35.59375 -1.421875 
Q 29.59375 -1.421875 25.265625 0.953125 
Q 20.953125 3.328125 18.109375 8.203125 
L 18.109375 0 
L 9.078125 0 
L 9.078125 75.984375 
L 18.109375 75.984375 
z
" id="DejaVuSans-98"/>
      <path d="M 52 44.1875 
Q 55.375 50.25 60.0625 53.125 
Q 64.75 56 71.09375 56 
Q 79.640625 56 84.28125 50.015625 
Q 88.921875 44.046875 88.921875 33.015625 
L 88.921875 0 
L 79.890625 0 
L 79.890625 32.71875 
Q 79.890625 40.578125 77.09375 44.375 
Q 74.3125 48.1875 68.609375 48.1875 
Q 61.625 48.1875 57.5625 43.546875 
Q 53.515625 38.921875 53.515625 30.90625 
L 53.515625 0 
L 44.484375 0 
L 44.484375 32.71875 
Q 44.484375 40.625 41.703125 44.40625 
Q 38.921875 48.1875 33.109375 48.1875 
Q 26.21875 48.1875 22.15625 43.53125 
Q 18.109375 38.875 18.109375 30.90625 
L 18.109375 0 
L 9.078125 0 
L 9.078125 54.6875 
L 18.109375 54.6875 
L 18.109375 46.1875 
Q 21.1875 51.21875 25.484375 53.609375 
Q 29.78125 56 35.6875 56 
Q 41.65625 56 45.828125 52.96875 
Q 50 49.953125 52 44.1875 
z
" id="DejaVuSans-109"/>
      <path d="M 45.40625 46.390625 
L 45.40625 75.984375 
L 54.390625 75.984375 
L 54.390625 0 
L 45.40625 0 
L 45.40625 8.203125 
Q 42.578125 3.328125 38.25 0.953125 
Q 33.9375 -1.421875 27.875 -1.421875 
Q 17.96875 -1.421875 11.734375 6.484375 
Q 5.515625 14.40625 5.515625 27.296875 
Q 5.515625 40.1875 11.734375 48.09375 
Q 17.96875 56 27.875 56 
Q 33.9375 56 38.25 53.625 
Q 42.578125 51.265625 45.40625 46.390625 
z
M 14.796875 27.296875 
Q 14.796875 17.390625 18.875 11.75 
Q 22.953125 6.109375 30.078125 6.109375 
Q 37.203125 6.109375 41.296875 11.75 
Q 45.40625 17.390625 45.40625 27.296875 
Q 45.40625 37.203125 41.296875 42.84375 
Q 37.203125 48.484375 30.078125 48.484375 
Q 22.953125 48.484375 18.875 42.84375 
Q 14.796875 37.203125 14.796875 27.296875 
z
" id="DejaVuSans-100"/>
      <path d="M 18.3125 70.21875 
L 18.3125 54.6875 
L 36.8125 54.6875 
L 36.8125 47.703125 
L 18.3125 47.703125 
L 18.3125 18.015625 
Q 18.3125 11.328125 20.140625 9.421875 
Q 21.96875 7.515625 27.59375 7.515625 
L 36.8125 7.515625 
L 36.8125 0 
L 27.59375 0 
Q 17.1875 0 13.234375 3.875 
Q 9.28125 7.765625 9.28125 18.015625 
L 9.28125 47.703125 
L 2.6875 47.703125 
L 2.6875 54.6875 
L 9.28125 54.6875 
L 9.28125 70.21875 
z
" id="DejaVuSans-116"/>
     </defs>
     <g transform="translate(200.11 335.860562)scale(0.1 -0.1)">
      <use xlink:href="#DejaVuSans-106"/>
      <use x="27.783203" xlink:href="#DejaVuSans-95"/>
      <use x="77.783203" xlink:href="#DejaVuSans-99"/>
      <use x="132.763672" xlink:href="#DejaVuSans-50"/>
      <use x="196.386719" xlink:href="#DejaVuSans-95"/>
      <use x="246.386719" xlink:href="#DejaVuSans-98"/>
      <use x="309.863281" xlink:href="#DejaVuSans-49"/>
      <use x="373.486328" xlink:href="#DejaVuSans-95"/>
      <use x="423.486328" xlink:href="#DejaVuSans-109"/>
      <use x="520.898438" xlink:href="#DejaVuSans-109"/>
      <use x="618.310547" xlink:href="#DejaVuSans-100"/>
      <use x="681.787109" xlink:href="#DejaVuSans-116"/>
     </g>
    </g>
   </g>
   <g id="matplotlib.axis_2">
    <g id="ytick_1">
     <g id="line2d_6">
      <defs>
       <path d="M 0 0 
L -3.5 0 
" id="m5f160b590a" style="stroke:#000000;stroke-width:0.8;"/>
      </defs>
      <g>
       <use style="stroke:#000000;stroke-width:0.8;" x="57.6" xlink:href="#m5f160b590a" y="307.584"/>
      </g>
     </g>
     <g id="text_7">
      <!-- 0.000 -->
      <g transform="translate(21.971875 311.383219)scale(0.1 -0.1)">
       <use xlink:href="#DejaVuSans-48"/>
       <use x="63.623047" xlink:href="#DejaVuSans-46"/>
       <use x="95.410156" xlink:href="#DejaVuSans-48"/>
       <use x="159.033203" xlink:href="#DejaVuSans-48"/>
       <use x="222.65625" xlink:href="#DejaVuSans-48"/>
      </g>
     </g>
    </g>
    <g id="ytick_2">
     <g id="line2d_7">
      <g>
       <use style="stroke:#000000;stroke-width:0.8;" x="57.6" xlink:href="#m5f160b590a" y="257.243782"/>
      </g>
     </g>
     <g id="text_8">
      <!-- 0.005 -->
      <g transform="translate(21.971875 261.043001)scale(0.1 -0.1)">
       <use xlink:href="#DejaVuSans-48"/>
       <use x="63.623047" xlink:href="#DejaVuSans-46"/>
       <use x="95.410156" xlink:href="#DejaVuSans-48"/>
       <use x="159.033203" xlink:href="#DejaVuSans-48"/>
       <use x="222.65625" xlink:href="#DejaVuSans-53"/>
      </g>
     </g>
    </g>
    <g id="ytick_3">
     <g id="line2d_8">
      <g>
       <use style="stroke:#000000;stroke-width:0.8;" x="57.6" xlink:href="#m5f160b590a" y="206.903565"/>
      </g>
     </g>
     <g id="text_9">
      <!-- 0.010 -->
      <g transform="translate(21.971875 210.702784)scale(0.1 -0.1)">
       <use xlink:href="#DejaVuSans-48"/>
       <use x="63.623047" xlink:href="#DejaVuSans-46"/>
       <use x="95.410156" xlink:href="#DejaVuSans-48"/>
       <use x="159.033203" xlink:href="#DejaVuSans-49"/>
       <use x="222.65625" xlink:href="#DejaVuSans-48"/>
      </g>
     </g>
    </g>
    <g id="ytick_4">
     <g id="line2d_9">
      <g>
       <use style="stroke:#000000;stroke-width:0.8;" x="57.6" xlink:href="#m5f160b590a" y="156.563347"/>
      </g>
     </g>
     <g id="text_10">
      <!-- 0.015 -->
      <g transform="translate(21.971875 160.362566)scale(0.1 -0.1)">
       <use xlink:href="#DejaVuSans-48"/>
       <use x="63.623047" xlink:href="#DejaVuSans-46"/>
       <use x="95.410156" xlink:href="#DejaVuSans-48"/>
       <use x="159.033203" xlink:href="#DejaVuSans-49"/>
       <use x="222.65625" xlink:href="#DejaVuSans-53"/>
      </g>
     </g>
    </g>
    <g id="ytick_5">
     <g id="line2d_10">
      <g>
       <use style="stroke:#000000;stroke-width:0.8;" x="57.6" xlink:href="#m5f160b590a" y="106.22313"/>
      </g>
     </g>
     <g id="text_11">
      <!-- 0.020 -->
      <g transform="translate(21.971875 110.022349)scale(0.1 -0.1)">
       <use xlink:href="#DejaVuSans-48"/>
       <use x="63.623047" xlink:href="#DejaVuSans-46"/>
       <use x="95.410156" xlink:href="#DejaVuSans-48"/>
       <use x="159.033203" xlink:href="#DejaVuSans-50"/>
       <use x="222.65625" xlink:href="#DejaVuSans-48"/>
      </g>
     </g>
    </g>
    <g id="ytick_6">
     <g id="line2d_11">
      <g>
       <use style="stroke:#000000;stroke-width:0.8;" x="57.6" xlink:href="#m5f160b590a" y="55.882912"/>
      </g>
     </g>
     <g id="text_12">
      <!-- 0.025 -->
      <g transform="translate(21.971875 59.682131)scale(0.1 -0.1)">
       <use xlink:href="#DejaVuSans-48"/>
       <use x="63.623047" xlink:href="#DejaVuSans-46"/>
       <use x="95.410156" xlink:href="#DejaVuSans-48"/>
       <use x="159.033203" xlink:href="#DejaVuSans-50"/>
       <use x="222.65625" xlink:href="#DejaVuSans-53"/>
      </g>
     </g>
    </g>
    <g id="text_13">
     <!-- Prob. Density (a.u.) -->
     <defs>
      <path d="M 19.671875 64.796875 
L 19.671875 37.40625 
L 32.078125 37.40625 
Q 38.96875 37.40625 42.71875 40.96875 
Q 46.484375 44.53125 46.484375 51.125 
Q 46.484375 57.671875 42.71875 61.234375 
Q 38.96875 64.796875 32.078125 64.796875 
z
M 9.8125 72.90625 
L 32.078125 72.90625 
Q 44.34375 72.90625 50.609375 67.359375 
Q 56.890625 61.8125 56.890625 51.125 
Q 56.890625 40.328125 50.609375 34.8125 
Q 44.34375 29.296875 32.078125 29.296875 
L 19.671875 29.296875 
L 19.671875 0 
L 9.8125 0 
z
" id="DejaVuSans-80"/>
      <path d="M 41.109375 46.296875 
Q 39.59375 47.171875 37.8125 47.578125 
Q 36.03125 48 33.890625 48 
Q 26.265625 48 22.1875 43.046875 
Q 18.109375 38.09375 18.109375 28.8125 
L 18.109375 0 
L 9.078125 0 
L 9.078125 54.6875 
L 18.109375 54.6875 
L 18.109375 46.1875 
Q 20.953125 51.171875 25.484375 53.578125 
Q 30.03125 56 36.53125 56 
Q 37.453125 56 38.578125 55.875 
Q 39.703125 55.765625 41.0625 55.515625 
z
" id="DejaVuSans-114"/>
      <path d="M 30.609375 48.390625 
Q 23.390625 48.390625 19.1875 42.75 
Q 14.984375 37.109375 14.984375 27.296875 
Q 14.984375 17.484375 19.15625 11.84375 
Q 23.34375 6.203125 30.609375 6.203125 
Q 37.796875 6.203125 41.984375 11.859375 
Q 46.1875 17.53125 46.1875 27.296875 
Q 46.1875 37.015625 41.984375 42.703125 
Q 37.796875 48.390625 30.609375 48.390625 
z
M 30.609375 56 
Q 42.328125 56 49.015625 48.375 
Q 55.71875 40.765625 55.71875 27.296875 
Q 55.71875 13.875 49.015625 6.21875 
Q 42.328125 -1.421875 30.609375 -1.421875 
Q 18.84375 -1.421875 12.171875 6.21875 
Q 5.515625 13.875 5.515625 27.296875 
Q 5.515625 40.765625 12.171875 48.375 
Q 18.84375 56 30.609375 56 
z
" id="DejaVuSans-111"/>
      <path id="DejaVuSans-32"/>
      <path d="M 19.671875 64.796875 
L 19.671875 8.109375 
L 31.59375 8.109375 
Q 46.6875 8.109375 53.6875 14.9375 
Q 60.6875 21.78125 60.6875 36.53125 
Q 60.6875 51.171875 53.6875 57.984375 
Q 46.6875 64.796875 31.59375 64.796875 
z
M 9.8125 72.90625 
L 30.078125 72.90625 
Q 51.265625 72.90625 61.171875 64.09375 
Q 71.09375 55.28125 71.09375 36.53125 
Q 71.09375 17.671875 61.125 8.828125 
Q 51.171875 0 30.078125 0 
L 9.8125 0 
z
" id="DejaVuSans-68"/>
      <path d="M 56.203125 29.59375 
L 56.203125 25.203125 
L 14.890625 25.203125 
Q 15.484375 15.921875 20.484375 11.0625 
Q 25.484375 6.203125 34.421875 6.203125 
Q 39.59375 6.203125 44.453125 7.46875 
Q 49.3125 8.734375 54.109375 11.28125 
L 54.109375 2.78125 
Q 49.265625 0.734375 44.1875 -0.34375 
Q 39.109375 -1.421875 33.890625 -1.421875 
Q 20.796875 -1.421875 13.15625 6.1875 
Q 5.515625 13.8125 5.515625 26.8125 
Q 5.515625 40.234375 12.765625 48.109375 
Q 20.015625 56 32.328125 56 
Q 43.359375 56 49.78125 48.890625 
Q 56.203125 41.796875 56.203125 29.59375 
z
M 47.21875 32.234375 
Q 47.125 39.59375 43.09375 43.984375 
Q 39.0625 48.390625 32.421875 48.390625 
Q 24.90625 48.390625 20.390625 44.140625 
Q 15.875 39.890625 15.1875 32.171875 
z
" id="DejaVuSans-101"/>
      <path d="M 54.890625 33.015625 
L 54.890625 0 
L 45.90625 0 
L 45.90625 32.71875 
Q 45.90625 40.484375 42.875 44.328125 
Q 39.84375 48.1875 33.796875 48.1875 
Q 26.515625 48.1875 22.3125 43.546875 
Q 18.109375 38.921875 18.109375 30.90625 
L 18.109375 0 
L 9.078125 0 
L 9.078125 54.6875 
L 18.109375 54.6875 
L 18.109375 46.1875 
Q 21.34375 51.125 25.703125 53.5625 
Q 30.078125 56 35.796875 56 
Q 45.21875 56 50.046875 50.171875 
Q 54.890625 44.34375 54.890625 33.015625 
z
" id="DejaVuSans-110"/>
      <path d="M 44.28125 53.078125 
L 44.28125 44.578125 
Q 40.484375 46.53125 36.375 47.5 
Q 32.28125 48.484375 27.875 48.484375 
Q 21.1875 48.484375 17.84375 46.4375 
Q 14.5 44.390625 14.5 40.28125 
Q 14.5 37.15625 16.890625 35.375 
Q 19.28125 33.59375 26.515625 31.984375 
L 29.59375 31.296875 
Q 39.15625 29.25 43.1875 25.515625 
Q 47.21875 21.78125 47.21875 15.09375 
Q 47.21875 7.46875 41.1875 3.015625 
Q 35.15625 -1.421875 24.609375 -1.421875 
Q 20.21875 -1.421875 15.453125 -0.5625 
Q 10.6875 0.296875 5.421875 2 
L 5.421875 11.28125 
Q 10.40625 8.6875 15.234375 7.390625 
Q 20.0625 6.109375 24.8125 6.109375 
Q 31.15625 6.109375 34.5625 8.28125 
Q 37.984375 10.453125 37.984375 14.40625 
Q 37.984375 18.0625 35.515625 20.015625 
Q 33.0625 21.96875 24.703125 23.78125 
L 21.578125 24.515625 
Q 13.234375 26.265625 9.515625 29.90625 
Q 5.8125 33.546875 5.8125 39.890625 
Q 5.8125 47.609375 11.28125 51.796875 
Q 16.75 56 26.8125 56 
Q 31.78125 56 36.171875 55.265625 
Q 40.578125 54.546875 44.28125 53.078125 
z
" id="DejaVuSans-115"/>
      <path d="M 9.421875 54.6875 
L 18.40625 54.6875 
L 18.40625 0 
L 9.421875 0 
z
M 9.421875 75.984375 
L 18.40625 75.984375 
L 18.40625 64.59375 
L 9.421875 64.59375 
z
" id="DejaVuSans-105"/>
      <path d="M 32.171875 -5.078125 
Q 28.375 -14.84375 24.75 -17.8125 
Q 21.140625 -20.796875 15.09375 -20.796875 
L 7.90625 -20.796875 
L 7.90625 -13.28125 
L 13.1875 -13.28125 
Q 16.890625 -13.28125 18.9375 -11.515625 
Q 21 -9.765625 23.484375 -3.21875 
L 25.09375 0.875 
L 2.984375 54.6875 
L 12.5 54.6875 
L 29.59375 11.921875 
L 46.6875 54.6875 
L 56.203125 54.6875 
z
" id="DejaVuSans-121"/>
      <path d="M 31 75.875 
Q 24.46875 64.65625 21.28125 53.65625 
Q 18.109375 42.671875 18.109375 31.390625 
Q 18.109375 20.125 21.3125 9.0625 
Q 24.515625 -2 31 -13.1875 
L 23.1875 -13.1875 
Q 15.875 -1.703125 12.234375 9.375 
Q 8.59375 20.453125 8.59375 31.390625 
Q 8.59375 42.28125 12.203125 53.3125 
Q 15.828125 64.359375 23.1875 75.875 
z
" id="DejaVuSans-40"/>
      <path d="M 34.28125 27.484375 
Q 23.390625 27.484375 19.1875 25 
Q 14.984375 22.515625 14.984375 16.5 
Q 14.984375 11.71875 18.140625 8.90625 
Q 21.296875 6.109375 26.703125 6.109375 
Q 34.1875 6.109375 38.703125 11.40625 
Q 43.21875 16.703125 43.21875 25.484375 
L 43.21875 27.484375 
z
M 52.203125 31.203125 
L 52.203125 0 
L 43.21875 0 
L 43.21875 8.296875 
Q 40.140625 3.328125 35.546875 0.953125 
Q 30.953125 -1.421875 24.3125 -1.421875 
Q 15.921875 -1.421875 10.953125 3.296875 
Q 6 8.015625 6 15.921875 
Q 6 25.140625 12.171875 29.828125 
Q 18.359375 34.515625 30.609375 34.515625 
L 43.21875 34.515625 
L 43.21875 35.40625 
Q 43.21875 41.609375 39.140625 45 
Q 35.0625 48.390625 27.6875 48.390625 
Q 23 48.390625 18.546875 47.265625 
Q 14.109375 46.140625 10.015625 43.890625 
L 10.015625 52.203125 
Q 14.9375 54.109375 19.578125 55.046875 
Q 24.21875 56 28.609375 56 
Q 40.484375 56 46.34375 49.84375 
Q 52.203125 43.703125 52.203125 31.203125 
z
" id="DejaVuSans-97"/>
      <path d="M 8.5 21.578125 
L 8.5 54.6875 
L 17.484375 54.6875 
L 17.484375 21.921875 
Q 17.484375 14.15625 20.5 10.265625 
Q 23.53125 6.390625 29.59375 6.390625 
Q 36.859375 6.390625 41.078125 11.03125 
Q 45.3125 15.671875 45.3125 23.6875 
L 45.3125 54.6875 
L 54.296875 54.6875 
L 54.296875 0 
L 45.3125 0 
L 45.3125 8.40625 
Q 42.046875 3.421875 37.71875 1 
Q 33.40625 -1.421875 27.6875 -1.421875 
Q 18.265625 -1.421875 13.375 4.4375 
Q 8.5 10.296875 8.5 21.578125 
z
M 31.109375 56 
z
" id="DejaVuSans-117"/>
      <path d="M 8.015625 75.875 
L 15.828125 75.875 
Q 23.140625 64.359375 26.78125 53.3125 
Q 30.421875 42.28125 30.421875 31.390625 
Q 30.421875 20.453125 26.78125 9.375 
Q 23.140625 -1.703125 15.828125 -13.1875 
L 8.015625 -13.1875 
Q 14.5 -2 17.703125 9.0625 
Q 20.90625 20.125 20.90625 31.390625 
Q 20.90625 42.671875 17.703125 53.65625 
Q 14.5 64.65625 8.015625 75.875 
z
" id="DejaVuSans-41"/>
     </defs>
     <g transform="translate(15.892187 222.917844)rotate(-90)scale(0.1 -0.1)">
      <use xlink:href="#DejaVuSans-80"/>
      <use x="60.287109" xlink:href="#DejaVuSans-114"/>
      <use x="101.369141" xlink:href="#DejaVuSans-111"/>
      <use x="162.550781" xlink:href="#DejaVuSans-98"/>
      <use x="226.027344" xlink:href="#DejaVuSans-46"/>
      <use x="257.814453" xlink:href="#DejaVuSans-32"/>
      <use x="289.601562" xlink:href="#DejaVuSans-68"/>
      <use x="366.603516" xlink:href="#DejaVuSans-101"/>
      <use x="428.126953" xlink:href="#DejaVuSans-110"/>
      <use x="491.505859" xlink:href="#DejaVuSans-115"/>
      <use x="543.605469" xlink:href="#DejaVuSans-105"/>
      <use x="571.388672" xlink:href="#DejaVuSans-116"/>
      <use x="610.597656" xlink:href="#DejaVuSans-121"/>
      <use x="669.777344" xlink:href="#DejaVuSans-32"/>
      <use x="701.564453" xlink:href="#DejaVuSans-40"/>
      <use x="740.578125" xlink:href="#DejaVuSans-97"/>
      <use x="801.857422" xlink:href="#DejaVuSans-46"/>
      <use x="833.644531" xlink:href="#DejaVuSans-117"/>
      <use x="897.023438" xlink:href="#DejaVuSans-46"/>
      <use x="928.810547" xlink:href="#DejaVuSans-41"/>
     </g>
    </g>
   </g>
   <g id="patch_9">
    <path d="M 57.6 307.584 
L 57.6 41.472 
" style="fill:none;stroke:#000000;stroke-linecap:square;stroke-linejoin:miter;stroke-width:0.8;"/>
   </g>
   <g id="patch_10">
    <path d="M 414.72 307.584 
L 414.72 41.472 
" style="fill:none;stroke:#000000;stroke-linecap:square;stroke-linejoin:miter;stroke-width:0.8;"/>
   </g>
   <g id="patch_11">
    <path d="M 57.6 307.584 
L 414.72 307.584 
" style="fill:none;stroke:#000000;stroke-linecap:square;stroke-linejoin:miter;stroke-width:0.8;"/>
   </g>
   <g id="patch_12">
    <path d="M 57.6 41.472 
L 414.72 41.472 
" style="fill:none;stroke:#000000;stroke-linecap:square;stroke-linejoin:miter;stroke-width:0.8;"/>
   </g>
   <g id="legend_1">
    <g id="patch_13">
     <path d="M 325.405938 137.54075 
L 407.72 137.54075 
Q 409.72 137.54075 409.72 135.54075 
L 409.72 48.472 
Q 409.72 46.472 407.72 46.472 
L 325.405938 46.472 
Q 323.405938 46.472 323.405938 48.472 
L 323.405938 135.54075 
Q 323.405938 137.54075 325.405938 137.54075 
z
" style="fill:#ffffff;opacity:0.8;stroke:#cccccc;stroke-linejoin:miter;"/>
    </g>
    <g id="patch_14">
     <path d="M 327.405938 58.070438 
L 347.405938 58.070438 
L 347.405938 51.070438 
L 327.405938 51.070438 
z
" style="fill:none;stroke:#1f77b4;stroke-linejoin:miter;"/>
    </g>
    <g id="text_14">
     <!-- quark -->
     <defs>
      <path d="M 14.796875 27.296875 
Q 14.796875 17.390625 18.875 11.75 
Q 22.953125 6.109375 30.078125 6.109375 
Q 37.203125 6.109375 41.296875 11.75 
Q 45.40625 17.390625 45.40625 27.296875 
Q 45.40625 37.203125 41.296875 42.84375 
Q 37.203125 48.484375 30.078125 48.484375 
Q 22.953125 48.484375 18.875 42.84375 
Q 14.796875 37.203125 14.796875 27.296875 
z
M 45.40625 8.203125 
Q 42.578125 3.328125 38.25 0.953125 
Q 33.9375 -1.421875 27.875 -1.421875 
Q 17.96875 -1.421875 11.734375 6.484375 
Q 5.515625 14.40625 5.515625 27.296875 
Q 5.515625 40.1875 11.734375 48.09375 
Q 17.96875 56 27.875 56 
Q 33.9375 56 38.25 53.625 
Q 42.578125 51.265625 45.40625 46.390625 
L 45.40625 54.6875 
L 54.390625 54.6875 
L 54.390625 -20.796875 
L 45.40625 -20.796875 
z
" id="DejaVuSans-113"/>
      <path d="M 9.078125 75.984375 
L 18.109375 75.984375 
L 18.109375 31.109375 
L 44.921875 54.6875 
L 56.390625 54.6875 
L 27.390625 29.109375 
L 57.625 0 
L 45.90625 0 
L 18.109375 26.703125 
L 18.109375 0 
L 9.078125 0 
z
" id="DejaVuSans-107"/>
     </defs>
     <g transform="translate(355.405938 58.070438)scale(0.1 -0.1)">
      <use xlink:href="#DejaVuSans-113"/>
      <use x="63.476562" xlink:href="#DejaVuSans-117"/>
      <use x="126.855469" xlink:href="#DejaVuSans-97"/>
      <use x="188.134766" xlink:href="#DejaVuSans-114"/>
      <use x="229.248047" xlink:href="#DejaVuSans-107"/>
     </g>
    </g>
    <g id="patch_15">
     <path d="M 327.405938 72.748563 
L 347.405938 72.748563 
L 347.405938 65.748563 
L 327.405938 65.748563 
z
" style="fill:none;stroke:#ff7f0e;stroke-linejoin:miter;"/>
    </g>
    <g id="text_15">
     <!-- gluon -->
     <defs>
      <path d="M 45.40625 27.984375 
Q 45.40625 37.75 41.375 43.109375 
Q 37.359375 48.484375 30.078125 48.484375 
Q 22.859375 48.484375 18.828125 43.109375 
Q 14.796875 37.75 14.796875 27.984375 
Q 14.796875 18.265625 18.828125 12.890625 
Q 22.859375 7.515625 30.078125 7.515625 
Q 37.359375 7.515625 41.375 12.890625 
Q 45.40625 18.265625 45.40625 27.984375 
z
M 54.390625 6.78125 
Q 54.390625 -7.171875 48.1875 -13.984375 
Q 42 -20.796875 29.203125 -20.796875 
Q 24.46875 -20.796875 20.265625 -20.09375 
Q 16.0625 -19.390625 12.109375 -17.921875 
L 12.109375 -9.1875 
Q 16.0625 -11.328125 19.921875 -12.34375 
Q 23.78125 -13.375 27.78125 -13.375 
Q 36.625 -13.375 41.015625 -8.765625 
Q 45.40625 -4.15625 45.40625 5.171875 
L 45.40625 9.625 
Q 42.625 4.78125 38.28125 2.390625 
Q 33.9375 0 27.875 0 
Q 17.828125 0 11.671875 7.65625 
Q 5.515625 15.328125 5.515625 27.984375 
Q 5.515625 40.671875 11.671875 48.328125 
Q 17.828125 56 27.875 56 
Q 33.9375 56 38.28125 53.609375 
Q 42.625 51.21875 45.40625 46.390625 
L 45.40625 54.6875 
L 54.390625 54.6875 
z
" id="DejaVuSans-103"/>
      <path d="M 9.421875 75.984375 
L 18.40625 75.984375 
L 18.40625 0 
L 9.421875 0 
z
" id="DejaVuSans-108"/>
     </defs>
     <g transform="translate(355.405938 72.748563)scale(0.1 -0.1)">
      <use xlink:href="#DejaVuSans-103"/>
      <use x="63.476562" xlink:href="#DejaVuSans-108"/>
      <use x="91.259766" xlink:href="#DejaVuSans-117"/>
      <use x="154.638672" xlink:href="#DejaVuSans-111"/>
      <use x="215.820312" xlink:href="#DejaVuSans-110"/>
     </g>
    </g>
    <g id="patch_16">
     <path d="M 327.405938 87.426688 
L 347.405938 87.426688 
L 347.405938 80.426688 
L 327.405938 80.426688 
z
" style="fill:none;stroke:#2ca02c;stroke-linejoin:miter;"/>
    </g>
    <g id="text_16">
     <!-- W -->
     <defs>
      <path d="M 3.328125 72.90625 
L 13.28125 72.90625 
L 28.609375 11.28125 
L 43.890625 72.90625 
L 54.984375 72.90625 
L 70.3125 11.28125 
L 85.59375 72.90625 
L 95.609375 72.90625 
L 77.296875 0 
L 64.890625 0 
L 49.515625 63.28125 
L 33.984375 0 
L 21.578125 0 
z
" id="DejaVuSans-87"/>
     </defs>
     <g transform="translate(355.405938 87.426688)scale(0.1 -0.1)">
      <use xlink:href="#DejaVuSans-87"/>
     </g>
    </g>
    <g id="patch_17">
     <path d="M 327.405938 102.104813 
L 347.405938 102.104813 
L 347.405938 95.104813 
L 327.405938 95.104813 
z
" style="fill:none;stroke:#d62728;stroke-linejoin:miter;"/>
    </g>
    <g id="text_17">
     <!-- Z -->
     <defs>
      <path d="M 5.609375 72.90625 
L 62.890625 72.90625 
L 62.890625 65.375 
L 16.796875 8.296875 
L 64.015625 8.296875 
L 64.015625 0 
L 4.5 0 
L 4.5 7.515625 
L 50.59375 64.59375 
L 5.609375 64.59375 
z
" id="DejaVuSans-90"/>
     </defs>
     <g transform="translate(355.405938 102.104813)scale(0.1 -0.1)">
      <use xlink:href="#DejaVuSans-90"/>
     </g>
    </g>
    <g id="patch_18">
     <path d="M 327.405938 116.782938 
L 347.405938 116.782938 
L 347.405938 109.782938 
L 327.405938 109.782938 
z
" style="fill:none;stroke:#9467bd;stroke-linejoin:miter;"/>
    </g>
    <g id="text_18">
     <!-- top -->
     <defs>
      <path d="M 18.109375 8.203125 
L 18.109375 -20.796875 
L 9.078125 -20.796875 
L 9.078125 54.6875 
L 18.109375 54.6875 
L 18.109375 46.390625 
Q 20.953125 51.265625 25.265625 53.625 
Q 29.59375 56 35.59375 56 
Q 45.5625 56 51.78125 48.09375 
Q 58.015625 40.1875 58.015625 27.296875 
Q 58.015625 14.40625 51.78125 6.484375 
Q 45.5625 -1.421875 35.59375 -1.421875 
Q 29.59375 -1.421875 25.265625 0.953125 
Q 20.953125 3.328125 18.109375 8.203125 
z
M 48.6875 27.296875 
Q 48.6875 37.203125 44.609375 42.84375 
Q 40.53125 48.484375 33.40625 48.484375 
Q 26.265625 48.484375 22.1875 42.84375 
Q 18.109375 37.203125 18.109375 27.296875 
Q 18.109375 17.390625 22.1875 11.75 
Q 26.265625 6.109375 33.40625 6.109375 
Q 40.53125 6.109375 44.609375 11.75 
Q 48.6875 17.390625 48.6875 27.296875 
z
" id="DejaVuSans-112"/>
     </defs>
     <g transform="translate(355.405938 116.782938)scale(0.1 -0.1)">
      <use xlink:href="#DejaVuSans-116"/>
      <use x="39.208984" xlink:href="#DejaVuSans-111"/>
      <use x="100.390625" xlink:href="#DejaVuSans-112"/>
     </g>
    </g>
    <g id="patch_19">
     <path d="M 327.405938 131.461063 
L 347.405938 131.461063 
L 347.405938 124.461063 
L 327.405938 124.461063 
z
" style="fill:none;stroke:#000000;stroke-linejoin:miter;"/>
    </g>
    <g id="text_19">
     <!-- undefined -->
     <defs>
      <path d="M 37.109375 75.984375 
L 37.109375 68.5 
L 28.515625 68.5 
Q 23.6875 68.5 21.796875 66.546875 
Q 19.921875 64.59375 19.921875 59.515625 
L 19.921875 54.6875 
L 34.71875 54.6875 
L 34.71875 47.703125 
L 19.921875 47.703125 
L 19.921875 0 
L 10.890625 0 
L 10.890625 47.703125 
L 2.296875 47.703125 
L 2.296875 54.6875 
L 10.890625 54.6875 
L 10.890625 58.5 
Q 10.890625 67.625 15.140625 71.796875 
Q 19.390625 75.984375 28.609375 75.984375 
z
" id="DejaVuSans-102"/>
     </defs>
     <g transform="translate(355.405938 131.461063)scale(0.1 -0.1)">
      <use xlink:href="#DejaVuSans-117"/>
      <use x="63.378906" xlink:href="#DejaVuSans-110"/>
      <use x="126.757812" xlink:href="#DejaVuSans-100"/>
      <use x="190.234375" xlink:href="#DejaVuSans-101"/>
      <use x="251.757812" xlink:href="#DejaVuSans-102"/>
      <use x="286.962891" xlink:href="#DejaVuSans-105"/>
      <use x="314.746094" xlink:href="#DejaVuSans-110"/>
      <use x="378.125" xlink:href="#DejaVuSans-101"/>
      <use x="439.648438" xlink:href="#DejaVuSans-100"/>
     </g>
    </g>
   </g>
  </g>
 </g>
 <defs>
  <clipPath id="pbba21723fd">
   <rect height="266.112" width="357.12" x="57.6" y="41.472"/>
  </clipPath>
 </defs>
</svg>
