<?xml version="1.0" encoding="utf-8" standalone="no"?>
<!DOCTYPE svg PUBLIC "-//W3C//DTD SVG 1.1//EN"
  "http://www.w3.org/Graphics/SVG/1.1/DTD/svg11.dtd">
<!-- Created with matplotlib (https://matplotlib.org/) -->
<svg height="345.6pt" version="1.1" viewBox="0 0 460.8 345.6" width="460.8pt" xmlns="http://www.w3.org/2000/svg" xmlns:xlink="http://www.w3.org/1999/xlink">
 <defs>
  <style type="text/css">
*{stroke-linecap:butt;stroke-linejoin:round;}
  </style>
 </defs>
 <g id="figure_1">
  <g id="patch_1">
   <path d="M 0 345.6 
L 460.8 345.6 
L 460.8 0 
L 0 0 
z
" style="fill:#ffffff;"/>
  </g>
  <g id="axes_1">
   <g id="patch_2">
    <path d="M 57.6 307.584 
L 414.72 307.584 
L 414.72 41.472 
L 57.6 41.472 
z
" style="fill:#ffffff;"/>
   </g>
   <g id="patch_3">
    <path clip-path="url(#p4043b813fc)" d="M 73.832727 307.584 
L 86.818909 307.584 
L 86.818909 306.693363 
L 90.065455 306.693363 
L 90.065455 305.512163 
L 93.312 305.512163 
L 93.312 304.842606 
L 96.558546 304.842606 
L 96.558546 303.446643 
L 99.805091 303.446643 
L 99.805091 304.608892 
L 103.051637 304.608892 
L 103.051637 302.107528 
L 106.298182 302.107528 
L 106.298182 302.265443 
L 109.544727 302.265443 
L 109.544727 303.332944 
L 112.791272 303.332944 
L 112.791272 300.989494 
L 116.037819 300.989494 
L 116.037819 299.978843 
L 119.284364 299.978843 
L 119.284364 298.886074 
L 122.530909 298.886074 
L 122.530909 299.492466 
L 125.777454 299.492466 
L 125.777454 296.757387 
L 129.023999 296.757387 
L 129.023999 291.659911 
L 132.270547 291.659911 
L 132.270547 294.432888 
L 135.517091 294.432888 
L 135.517091 290.946139 
L 138.763636 290.946139 
L 138.763636 284.749579 
L 142.010184 284.749579 
L 142.010184 282.82302 
L 145.256726 282.82302 
L 145.256726 282.412442 
L 148.503274 282.412442 
L 148.503274 271.225784 
L 151.749816 271.225784 
L 151.749816 268.64231 
L 154.996364 268.64231 
L 154.996364 271.459502 
L 158.242911 271.459502 
L 158.242911 255.908088 
L 161.489453 255.908088 
L 161.489453 262.471015 
L 164.736001 262.471015 
L 164.736001 263.39955 
L 167.982543 263.39955 
L 167.982543 246.591143 
L 171.229091 246.591143 
L 171.229091 241.556828 
L 174.475639 241.556828 
L 174.475639 244.380341 
L 177.722181 244.380341 
L 177.722181 238.322736 
L 180.968728 238.322736 
L 180.968728 233.964308 
L 184.21527 233.964308 
L 184.21527 235.398165 
L 187.461824 235.398165 
L 187.461824 239.655543 
L 190.708366 239.655543 
L 190.708366 224.628403 
L 193.954908 224.628403 
L 193.954908 228.854193 
L 197.20145 228.854193 
L 197.20145 229.89644 
L 200.448003 229.89644 
L 200.448003 220.939525 
L 203.694545 220.939525 
L 203.694545 230.843916 
L 206.941087 230.843916 
L 206.941087 218.671862 
L 210.187641 218.671862 
L 210.187641 224.761048 
L 213.434183 224.761048 
L 213.434183 210.138176 
L 216.680725 210.138176 
L 216.680725 212.342664 
L 219.927267 212.342664 
L 219.927267 209.272798 
L 223.17382 209.272798 
L 223.17382 216.776902 
L 226.420362 216.776902 
L 226.420362 222.506035 
L 229.666905 222.506035 
L 229.666905 210.371887 
L 232.913458 210.371887 
L 232.913458 208.123199 
L 236.16 208.123199 
L 236.16 199.4379 
L 239.406542 199.4379 
L 239.406542 195.938517 
L 242.653095 195.938517 
L 242.653095 212.734297 
L 245.899638 212.734297 
L 245.899638 208.426386 
L 249.14618 208.426386 
L 249.14618 205.678668 
L 252.392733 205.678668 
L 252.392733 203.859503 
L 255.639275 203.859503 
L 255.639275 200.739111 
L 258.885817 200.739111 
L 258.885817 204.364829 
L 262.132359 204.364829 
L 262.132359 208.394806 
L 265.378913 208.394806 
L 265.378913 210.106589 
L 268.625455 210.106589 
L 268.625455 201.402352 
L 271.871997 201.402352 
L 271.871997 200.233793 
L 275.11855 200.233793 
L 275.11855 204.345884 
L 278.365092 204.345884 
L 278.365092 206.998832 
L 281.611646 206.998832 
L 281.611646 209.335973 
L 284.858176 209.335973 
L 284.858176 209.02646 
L 288.10473 209.02646 
L 288.10473 215.677814 
L 291.351283 215.677814 
L 291.351283 217.484351 
L 294.597814 217.484351 
L 294.597814 213.517548 
L 297.844367 213.517548 
L 297.844367 222.954511 
L 301.090921 222.954511 
L 301.090921 219.04455 
L 304.337451 219.04455 
L 304.337451 219.328808 
L 307.584005 219.328808 
L 307.584005 232.599921 
L 310.830535 232.599921 
L 310.830535 243.754991 
L 314.077089 243.754991 
L 314.077089 235.113914 
L 317.323642 235.113914 
L 317.323642 252.535037 
L 320.570173 252.535037 
L 320.570173 255.743859 
L 323.816726 255.743859 
L 323.816726 255.200636 
L 327.06328 255.200636 
L 327.06328 266.99368 
L 330.30981 266.99368 
L 330.30981 268.598091 
L 333.556364 268.598091 
L 333.556364 278.540383 
L 336.802917 278.540383 
L 336.802917 279.930028 
L 340.049448 279.930028 
L 340.049448 281.452323 
L 343.296001 281.452323 
L 343.296001 294.287607 
L 346.542555 294.287607 
L 346.542555 296.264695 
L 349.789085 296.264695 
L 349.789085 299.814612 
L 353.035639 299.814612 
L 353.035639 299.524049 
L 356.282192 299.524049 
L 356.282192 304.463611 
L 359.528723 304.463611 
L 359.528723 305.859575 
L 362.775276 305.859575 
L 362.775276 305.670077 
L 366.021807 305.670077 
L 366.021807 307.584 
L 369.26836 307.584 
L 369.26836 307.053408 
L 372.514914 307.053408 
L 372.514914 307.584 
L 398.487273 307.584 
L 398.487273 307.584 
" style="fill:none;stroke:#1f77b4;stroke-linejoin:miter;"/>
   </g>
   <g id="patch_4">
    <path clip-path="url(#p4043b813fc)" d="M 73.832727 307.584 
L 86.818909 307.584 
L 86.818909 307.306071 
L 90.065455 307.306071 
L 90.065455 307.584 
L 96.558546 307.584 
L 96.558546 307.34397 
L 99.805091 307.34397 
L 99.805091 306.674413 
L 103.051637 306.674413 
L 103.051637 306.977609 
L 106.298182 306.977609 
L 106.298182 306.371217 
L 112.791272 306.263836 
L 112.791272 306.870227 
L 116.037819 306.870227 
L 116.037819 305.03842 
L 119.284364 305.03842 
L 119.284364 303.396109 
L 122.530909 303.396109 
L 122.530909 304.293063 
L 125.777454 304.293063 
L 125.777454 303.181346 
L 129.023999 303.181346 
L 129.023999 299.031355 
L 138.763636 299.107153 
L 138.763636 297.092168 
L 142.010184 297.092168 
L 142.010184 292.500014 
L 145.256726 292.500014 
L 145.256726 294.660284 
L 148.503274 294.660284 
L 148.503274 289.960749 
L 151.749816 289.960749 
L 151.749816 285.526514 
L 154.996364 285.526514 
L 154.996364 283.012519 
L 158.242911 283.012519 
L 158.242911 271.023658 
L 161.489453 271.023658 
L 161.489453 274.952571 
L 164.736001 274.952571 
L 164.736001 265.414536 
L 167.982543 265.414536 
L 167.982543 264.252283 
L 171.229091 264.252283 
L 171.229091 262.016219 
L 174.475639 262.016219 
L 174.475639 253.413043 
L 177.722181 253.413043 
L 177.722181 246.496396 
L 180.968728 246.496396 
L 180.968728 236.945729 
L 184.21527 236.945729 
L 184.21527 223.851469 
L 187.461824 223.851469 
L 187.461824 239.270227 
L 190.708366 239.270227 
L 190.708366 215.614653 
L 197.20145 215.646233 
L 197.20145 214.982985 
L 200.448003 214.982985 
L 200.448003 209.455983 
L 203.694545 209.455983 
L 203.694545 196.437533 
L 206.941087 196.437533 
L 206.941087 182.048349 
L 210.187641 182.048349 
L 210.187641 188.55443 
L 213.434183 188.55443 
L 213.434183 193.020249 
L 216.680725 193.020249 
L 216.680725 177.822573 
L 219.927267 177.822573 
L 219.927267 178.315279 
L 223.17382 178.315279 
L 223.17382 162.789124 
L 226.420362 162.789124 
L 226.420362 153.074206 
L 232.913458 153.036331 
L 232.913458 149.423256 
L 236.16 149.423256 
L 236.16 147.199808 
L 242.653095 147.237728 
L 242.653095 134.983547 
L 245.899638 134.983547 
L 245.899638 124.207468 
L 249.14618 124.207468 
L 249.14618 127.681572 
L 252.392733 127.681572 
L 252.392733 124.163253 
L 255.639275 124.163253 
L 255.639275 128.881734 
L 258.885817 128.881734 
L 258.885817 114.51785 
L 262.132359 114.51785 
L 262.132359 125.470789 
L 265.378913 125.470789 
L 265.378913 86.112192 
L 268.625455 86.112192 
L 268.625455 108.157056 
L 271.871997 108.157056 
L 271.871997 123.177871 
L 275.11855 123.177871 
L 275.11855 103.811241 
L 278.365092 103.811241 
L 278.365092 104.727167 
L 281.611646 104.727167 
L 281.611646 87.754489 
L 284.858176 87.754489 
L 284.858176 103.672286 
L 288.10473 103.672286 
L 288.10473 89.965348 
L 291.351283 89.965348 
L 291.351283 105.996784 
L 294.597814 105.996784 
L 294.597814 102.175238 
L 297.844367 102.175238 
L 297.844367 82.271717 
L 301.090921 82.271717 
L 301.090921 94.866969 
L 304.337451 94.866969 
L 304.337451 106.135739 
L 307.584005 106.135739 
L 307.584005 113.860919 
L 310.830535 113.860919 
L 310.830535 108.043341 
L 314.077089 108.043341 
L 314.077089 124.258008 
L 317.323642 124.258008 
L 317.323642 128.231128 
L 320.570173 128.231128 
L 320.570173 123.607387 
L 323.816726 123.607387 
L 323.816726 151.071848 
L 327.06328 151.071848 
L 327.06328 152.651 
L 330.30981 152.651 
L 330.30981 160.211955 
L 333.556364 160.211955 
L 333.556364 177.961529 
L 336.802917 177.961529 
L 336.802917 182.62316 
L 340.049448 182.62316 
L 340.049448 200.429613 
L 343.296001 200.429613 
L 343.296001 223.889374 
L 346.542555 223.889374 
L 346.542555 227.79932 
L 349.789085 227.79932 
L 349.789085 256.331297 
L 353.035639 256.331297 
L 353.035639 264.915527 
L 356.282192 264.915527 
L 356.282192 272.609116 
L 359.528723 272.609116 
L 359.528723 289.783885 
L 362.775276 289.783885 
L 362.775276 297.704875 
L 366.021807 297.704875 
L 366.021807 302.19596 
L 369.26836 302.19596 
L 369.26836 307.167106 
L 372.514914 307.167106 
L 372.514914 306.465966 
L 375.761444 306.465966 
L 375.761444 307.584 
L 398.487273 307.584 
L 398.487273 307.584 
" style="fill:none;stroke:#ff7f0e;stroke-linejoin:miter;"/>
   </g>
   <g id="patch_5">
    <path clip-path="url(#p4043b813fc)" d="M 73.832727 307.584 
L 90.065455 307.584 
L 90.065455 306.857594 
L 93.312 306.857594 
L 93.312 307.249221 
L 96.558546 307.249221 
L 96.558546 306.876543 
L 99.805091 306.876543 
L 99.805091 307.066041 
L 103.051637 307.066041 
L 103.051637 306.567031 
L 106.298182 306.567031 
L 106.298182 306.18172 
L 109.544727 306.18172 
L 109.544727 305.057369 
L 112.791272 305.057369 
L 112.791272 306.131187 
L 116.037819 306.131187 
L 116.037819 302.524422 
L 119.284364 302.524422 
L 119.284364 300.686299 
L 122.530909 300.686299 
L 122.530909 296.656322 
L 125.777454 296.656322 
L 125.777454 287.901548 
L 129.023999 287.901548 
L 129.023999 280.725918 
L 132.270547 280.725918 
L 132.270547 269.444513 
L 135.517091 269.444513 
L 135.517091 249.93261 
L 138.763636 249.93261 
L 138.763636 237.38157 
L 142.010184 237.38157 
L 142.010184 217.888619 
L 145.256726 217.888619 
L 145.256726 204.465894 
L 148.503274 204.465894 
L 148.503274 193.658234 
L 151.749816 193.658234 
L 151.749816 195.591099 
L 154.996364 195.591099 
L 154.996364 179.11746 
L 158.242911 179.11746 
L 158.242911 164.835681 
L 161.489453 164.835681 
L 161.489453 163.597645 
L 164.736001 163.597645 
L 164.736001 168.145561 
L 167.982543 168.145561 
L 167.982543 162.940714 
L 171.229091 162.940714 
L 171.229091 156.921021 
L 174.475639 156.921021 
L 174.475639 174.064204 
L 177.722181 174.064204 
L 177.722181 172.883017 
L 184.21527 172.845127 
L 184.21527 173.956843 
L 187.461824 173.956843 
L 187.461824 176.679277 
L 190.708366 176.679277 
L 190.708366 186.665773 
L 193.954908 186.665773 
L 193.954908 176.483472 
L 197.20145 176.483472 
L 197.20145 195.685855 
L 200.448003 195.685855 
L 200.448003 195.433184 
L 203.694545 195.433184 
L 203.694545 192.205402 
L 206.941087 192.205402 
L 206.941087 193.784562 
L 210.187641 193.784562 
L 210.187641 199.595822 
L 213.434183 199.595822 
L 213.434183 216.037859 
L 216.680725 216.037859 
L 216.680725 209.14016 
L 219.927267 209.14016 
L 219.927267 216.745307 
L 223.17382 216.745307 
L 223.17382 213.751258 
L 226.420362 213.751258 
L 226.420362 221.646981 
L 229.666905 221.646981 
L 229.666905 224.457853 
L 232.913458 224.457853 
L 232.913458 225.759072 
L 236.16 225.759072 
L 236.16 229.201604 
L 239.406542 229.201604 
L 239.406542 224.38205 
L 242.653095 224.38205 
L 242.653095 229.498489 
L 245.899638 229.498489 
L 245.899638 227.477172 
L 249.14618 227.477172 
L 249.14618 230.161723 
L 252.392733 230.161723 
L 252.392733 240.021898 
L 255.639275 240.021898 
L 255.639275 241.474708 
L 258.885817 241.474708 
L 258.885817 237.154177 
L 262.132359 237.154177 
L 262.132359 245.13833 
L 265.378913 245.13833 
L 265.378913 247.538627 
L 268.625455 247.538627 
L 268.625455 250.014719 
L 271.871997 250.014719 
L 271.871997 253.469886 
L 275.11855 253.469886 
L 275.11855 256.558698 
L 278.365092 256.558698 
L 278.365092 260.399176 
L 281.611646 260.399176 
L 281.611646 262.673146 
L 284.858176 262.673146 
L 284.858176 261.214011 
L 288.10473 261.214011 
L 288.10473 268.364377 
L 291.351283 268.364377 
L 291.351283 263.039505 
L 294.597814 263.039505 
L 294.597814 274.137732 
L 297.844367 274.137732 
L 297.844367 269.46978 
L 301.090921 269.46978 
L 301.090921 272.29329 
L 304.337451 272.29329 
L 304.337451 276.645408 
L 307.584005 276.645408 
L 307.584005 280.99753 
L 310.830535 280.99753 
L 310.830535 285.425449 
L 314.077089 285.425449 
L 314.077089 288.918517 
L 317.323642 288.918517 
L 317.323642 290.074452 
L 320.570173 290.074452 
L 320.570173 293.978095 
L 323.816726 293.978095 
L 323.816726 295.007696 
L 327.06328 295.007696 
L 327.06328 294.07916 
L 330.30981 294.07916 
L 330.30981 297.117432 
L 333.556364 297.117432 
L 333.556364 296.719488 
L 336.802917 296.719488 
L 336.802917 300.345204 
L 340.049448 300.345204 
L 340.049448 301.450604 
L 343.296001 301.450604 
L 343.296001 301.747483 
L 346.542555 301.747483 
L 346.542555 304.406762 
L 349.789085 304.406762 
L 349.789085 303.509809 
L 353.035639 303.509809 
L 353.035639 305.625862 
L 356.282192 305.625862 
L 356.282192 306.68073 
L 359.528723 306.68073 
L 359.528723 307.584 
L 362.775276 307.584 
L 362.775276 305.455314 
L 366.021807 305.455314 
L 366.021807 307.072357 
L 369.26836 307.072357 
L 369.26836 307.584 
L 398.487273 307.584 
L 398.487273 307.584 
" style="fill:none;stroke:#2ca02c;stroke-linejoin:miter;"/>
   </g>
   <g id="patch_6">
    <path clip-path="url(#p4043b813fc)" d="M 73.832727 307.584 
L 86.818909 307.584 
L 86.818909 307.419769 
L 90.065455 307.419769 
L 90.065455 306.66178 
L 93.312 306.66178 
L 93.312 306.895493 
L 96.558546 306.895493 
L 96.558546 307.457668 
L 99.805091 307.457668 
L 99.805091 306.813378 
L 103.051637 306.813378 
L 103.051637 306.276469 
L 106.298182 306.276469 
L 106.298182 305.714293 
L 109.544727 305.714293 
L 109.544727 306.156454 
L 112.791272 306.156454 
L 112.791272 305.013153 
L 116.037819 305.013153 
L 116.037819 302.505472 
L 119.284364 302.505472 
L 119.284364 296.327859 
L 122.530909 296.327859 
L 122.530909 289.720725 
L 125.777454 289.720725 
L 125.777454 280.106896 
L 129.023999 280.106896 
L 129.023999 264.094368 
L 132.270547 264.094368 
L 132.270547 255.118512 
L 135.517091 255.118512 
L 135.517091 228.487823 
L 138.763636 228.487823 
L 138.763636 213.770211 
L 142.010184 213.770211 
L 142.010184 190.139892 
L 145.256726 190.139892 
L 145.256726 181.303011 
L 148.503274 181.303011 
L 148.503274 173.198832 
L 151.749816 173.198832 
L 151.749816 162.669113 
L 154.996364 162.669113 
L 154.996364 161.140501 
L 158.242911 161.140501 
L 158.242911 158.980198 
L 161.489453 158.980198 
L 161.489453 165.713703 
L 164.736001 165.713703 
L 164.736001 151.223483 
L 167.982543 151.223483 
L 167.982543 167.64656 
L 171.229091 167.64656 
L 171.229091 175.535965 
L 174.475639 175.535965 
L 174.475639 163.774505 
L 177.722181 163.774505 
L 177.722181 172.181871 
L 180.968728 172.181871 
L 180.968728 157.906417 
L 184.21527 157.906417 
L 184.21527 167.34969 
L 187.461824 167.34969 
L 187.461824 177.727818 
L 190.708366 177.727818 
L 190.708366 182.850568 
L 193.954908 182.850568 
L 193.954908 198.300906 
L 197.20145 198.300906 
L 197.20145 196.285935 
L 200.448003 196.285935 
L 200.448003 202.918322 
L 203.694545 202.918322 
L 203.694545 194.150933 
L 206.941087 194.150933 
L 206.941087 201.983473 
L 213.434183 202.027688 
L 213.434183 208.874855 
L 216.680725 208.874855 
L 216.680725 220.415247 
L 219.927267 220.415247 
L 219.927267 200.543291 
L 223.17382 200.543291 
L 223.17382 208.476919 
L 226.420362 208.476919 
L 226.420362 220.251007 
L 229.666905 220.251007 
L 229.666905 216.341047 
L 232.913458 216.341047 
L 232.913458 215.816776 
L 236.16 215.816776 
L 236.16 221.021638 
L 239.406542 221.021638 
L 239.406542 231.323979 
L 242.653095 231.323979 
L 242.653095 231.898782 
L 245.899638 231.898782 
L 245.899638 236.787814 
L 249.14618 236.787814 
L 249.14618 230.098563 
L 252.392733 230.098563 
L 252.392733 231.595587 
L 255.639275 231.595587 
L 255.639275 244.001343 
L 258.885817 244.001343 
L 258.885817 246.25636 
L 262.132359 246.25636 
L 262.132359 245.233078 
L 265.378913 245.233078 
L 265.378913 246.730102 
L 268.625455 246.730102 
L 268.625455 248.782996 
L 271.871997 248.782996 
L 271.871997 251.372792 
L 275.11855 251.372792 
L 275.11855 258.914787 
L 278.365092 258.914787 
L 278.365092 255.023768 
L 281.611646 255.023768 
L 281.611646 263.816446 
L 284.858176 263.816446 
L 284.858176 271.996408 
L 288.10473 271.996408 
L 288.10473 262.414158 
L 291.351283 262.414158 
L 291.351283 263.323744 
L 294.597814 263.323744 
L 294.597814 270.600441 
L 297.844367 270.600441 
L 297.844367 273.341838 
L 301.090921 273.341838 
L 301.090921 281.003849 
L 304.337451 281.003849 
L 304.337451 271.364751 
L 307.584005 271.364751 
L 307.584005 274.680952 
L 310.830535 274.680952 
L 310.830535 287.168824 
L 314.077089 287.168824 
L 314.077089 290.788224 
L 317.323642 290.788224 
L 317.323642 289.998652 
L 320.570173 289.998652 
L 320.570173 292.158921 
L 323.816726 292.158921 
L 323.816726 292.796895 
L 327.06328 292.796895 
L 327.06328 297.212181 
L 330.30981 297.212181 
L 330.30981 298.229152 
L 333.556364 298.229152 
L 333.556364 298.02702 
L 336.802917 298.02702 
L 336.802917 300.269405 
L 340.049448 300.269405 
L 340.049448 302.587588 
L 343.296001 302.587588 
L 343.296001 302.467572 
L 346.542555 302.467572 
L 346.542555 305.562695 
L 349.789085 305.562695 
L 349.789085 305.265816 
L 353.035639 305.265816 
L 353.035639 305.03842 
L 356.282192 305.03842 
L 356.282192 305.783776 
L 359.528723 305.783776 
L 359.528723 306.996558 
L 362.775276 306.996558 
L 362.775276 307.584 
L 366.021807 307.584 
L 366.021807 307.072357 
L 369.26836 307.072357 
L 369.26836 307.584 
L 398.487273 307.584 
L 398.487273 307.584 
" style="fill:none;stroke:#d62728;stroke-linejoin:miter;"/>
   </g>
   <g id="patch_7">
    <path clip-path="url(#p4043b813fc)" d="M 73.832727 307.584 
L 103.051637 307.584 
L 103.051637 307.356603 
L 106.298182 307.356603 
L 106.298182 307.584 
L 112.791272 307.584 
L 112.791272 306.889177 
L 116.037819 306.889177 
L 116.037819 306.4407 
L 119.284364 306.4407 
L 119.284364 305.714293 
L 122.530909 305.714293 
L 122.530909 304.229898 
L 125.777454 304.229898 
L 125.777454 303.250829 
L 129.023999 303.250829 
L 129.023999 301.501137 
L 132.270547 301.501137 
L 132.270547 290.605041 
L 135.517091 290.605041 
L 135.517091 280.751181 
L 138.763636 280.751181 
L 138.763636 268.819174 
L 142.010184 268.819174 
L 142.010184 255.996514 
L 145.256726 255.996514 
L 145.256726 253.387773 
L 148.503274 253.387773 
L 148.503274 244.405612 
L 151.749816 244.405612 
L 151.749816 233.338957 
L 154.996364 233.338957 
L 154.996364 225.721174 
L 158.242911 225.721174 
L 158.242911 215.715704 
L 161.489453 215.715704 
L 161.489453 217.478033 
L 164.736001 217.478033 
L 164.736001 207.832631 
L 167.982543 207.832631 
L 167.982543 200.777009 
L 171.229091 200.777009 
L 171.229091 207.074627 
L 174.475639 207.074627 
L 174.475639 187.297449 
L 177.722181 187.297449 
L 177.722181 182.818988 
L 180.968728 182.818988 
L 180.968728 178.245779 
L 184.21527 178.245779 
L 184.21527 199.330509 
L 187.461824 199.330509 
L 187.461824 179.869146 
L 190.708366 179.869146 
L 190.708366 175.39701 
L 193.954908 175.39701 
L 193.954908 190.758926 
L 197.20145 190.758926 
L 197.20145 168.322436 
L 200.448003 168.322436 
L 200.448003 160.534126 
L 203.694545 160.534126 
L 203.694545 160.995206 
L 206.941087 160.995206 
L 206.941087 145.330096 
L 210.187641 145.330096 
L 210.187641 161.658462 
L 213.434183 161.658462 
L 213.434183 145.279555 
L 216.680725 145.279555 
L 216.680725 137.604945 
L 219.927267 137.604945 
L 219.927267 124.396993 
L 223.17382 124.396993 
L 223.17382 116.873928 
L 226.420362 116.873928 
L 226.420362 111.536421 
L 229.666905 111.536421 
L 229.666905 88.32933 
L 232.913458 88.32933 
L 232.913458 80.092484 
L 236.16 80.092484 
L 236.16 70.320746 
L 239.406542 70.320746 
L 239.406542 65.62124 
L 242.653095 65.62124 
L 242.653095 64.863244 
L 245.899638 64.863244 
L 245.899638 67.844673 
L 249.14618 67.844673 
L 249.14618 61.97657 
L 252.392733 61.97657 
L 252.392733 54.144 
L 255.639275 54.144 
L 255.639275 58.395061 
L 258.885817 58.395061 
L 258.885817 65.475945 
L 262.132359 65.475945 
L 262.132359 82.271732 
L 265.378913 82.271732 
L 265.378913 73.34008 
L 268.625455 73.34008 
L 268.625455 68.463699 
L 271.871997 68.463699 
L 271.871997 106.205239 
L 275.11855 106.205239 
L 275.11855 110.513135 
L 278.365092 110.513135 
L 278.365092 130.17031 
L 281.611646 130.17031 
L 281.611646 142.708727 
L 284.858176 142.708727 
L 284.858176 152.859471 
L 288.10473 152.859471 
L 288.10473 182.39579 
L 291.351283 182.39579 
L 291.351283 190.51889 
L 294.597814 190.51889 
L 294.597814 202.583539 
L 297.844367 202.583539 
L 297.844367 223.245079 
L 301.090921 223.245079 
L 301.090921 236.023508 
L 304.337451 236.023508 
L 304.337451 236.952039 
L 307.584005 236.952039 
L 307.584005 251.334887 
L 310.830535 251.334887 
L 310.830535 251.953916 
L 314.077089 251.953916 
L 314.077089 255.661743 
L 317.323642 255.661743 
L 317.323642 265.983033 
L 320.570173 265.983033 
L 320.570173 273.758734 
L 323.816726 273.758734 
L 323.816726 281.837633 
L 327.06328 281.837633 
L 327.06328 284.983291 
L 330.30981 284.983291 
L 330.30981 292.632662 
L 333.556364 292.632662 
L 333.556364 292.102069 
L 336.802917 292.102069 
L 336.802917 295.462488 
L 340.049448 295.462488 
L 340.049448 303.503491 
L 343.296001 303.503491 
L 343.296001 299.789344 
L 346.542555 299.789344 
L 346.542555 303.692988 
L 349.789085 303.692988 
L 349.789085 304.29938 
L 353.035639 304.29938 
L 353.035639 306.769162 
L 356.282192 306.769162 
L 356.282192 307.584 
L 366.021807 307.584 
L 366.021807 307.14184 
L 369.26836 307.14184 
L 369.26836 307.584 
L 398.487273 307.584 
L 398.487273 307.584 
" style="fill:none;stroke:#9467bd;stroke-linejoin:miter;"/>
   </g>
   <g id="patch_8">
    <path clip-path="url(#p4043b813fc)" d="M 73.832727 307.584 
L 398.487273 307.584 
L 398.487273 307.584 
" style="fill:none;stroke:#000000;stroke-linejoin:miter;"/>
   </g>
   <g id="matplotlib.axis_1">
    <g id="xtick_1">
     <g id="line2d_1">
      <defs>
       <path d="M 0 0 
L 0 3.5 
" id="meaa813ea3a" style="stroke:#000000;stroke-width:0.8;"/>
      </defs>
      <g>
       <use style="stroke:#000000;stroke-width:0.8;" x="87.855276" xlink:href="#meaa813ea3a" y="307.584"/>
      </g>
     </g>
     <g id="text_1">
      <!-- 0.00 -->
      <defs>
       <path d="M 31.78125 66.40625 
Q 24.171875 66.40625 20.328125 58.90625 
Q 16.5 51.421875 16.5 36.375 
Q 16.5 21.390625 20.328125 13.890625 
Q 24.171875 6.390625 31.78125 6.390625 
Q 39.453125 6.390625 43.28125 13.890625 
Q 47.125 21.390625 47.125 36.375 
Q 47.125 51.421875 43.28125 58.90625 
Q 39.453125 66.40625 31.78125 66.40625 
z
M 31.78125 74.21875 
Q 44.046875 74.21875 50.515625 64.515625 
Q 56.984375 54.828125 56.984375 36.375 
Q 56.984375 17.96875 50.515625 8.265625 
Q 44.046875 -1.421875 31.78125 -1.421875 
Q 19.53125 -1.421875 13.0625 8.265625 
Q 6.59375 17.96875 6.59375 36.375 
Q 6.59375 54.828125 13.0625 64.515625 
Q 19.53125 74.21875 31.78125 74.21875 
z
" id="DejaVuSans-48"/>
       <path d="M 10.6875 12.40625 
L 21 12.40625 
L 21 0 
L 10.6875 0 
z
" id="DejaVuSans-46"/>
      </defs>
      <g transform="translate(76.722463 322.182437)scale(0.1 -0.1)">
       <use xlink:href="#DejaVuSans-48"/>
       <use x="63.623047" xlink:href="#DejaVuSans-46"/>
       <use x="95.410156" xlink:href="#DejaVuSans-48"/>
       <use x="159.033203" xlink:href="#DejaVuSans-48"/>
      </g>
     </g>
    </g>
    <g id="xtick_2">
     <g id="line2d_2">
      <g>
       <use style="stroke:#000000;stroke-width:0.8;" x="164.791465" xlink:href="#meaa813ea3a" y="307.584"/>
      </g>
     </g>
     <g id="text_2">
      <!-- 0.05 -->
      <defs>
       <path d="M 10.796875 72.90625 
L 49.515625 72.90625 
L 49.515625 64.59375 
L 19.828125 64.59375 
L 19.828125 46.734375 
Q 21.96875 47.46875 24.109375 47.828125 
Q 26.265625 48.1875 28.421875 48.1875 
Q 40.625 48.1875 47.75 41.5 
Q 54.890625 34.8125 54.890625 23.390625 
Q 54.890625 11.625 47.5625 5.09375 
Q 40.234375 -1.421875 26.90625 -1.421875 
Q 22.3125 -1.421875 17.546875 -0.640625 
Q 12.796875 0.140625 7.71875 1.703125 
L 7.71875 11.625 
Q 12.109375 9.234375 16.796875 8.0625 
Q 21.484375 6.890625 26.703125 6.890625 
Q 35.15625 6.890625 40.078125 11.328125 
Q 45.015625 15.765625 45.015625 23.390625 
Q 45.015625 31 40.078125 35.4375 
Q 35.15625 39.890625 26.703125 39.890625 
Q 22.75 39.890625 18.8125 39.015625 
Q 14.890625 38.140625 10.796875 36.28125 
z
" id="DejaVuSans-53"/>
      </defs>
      <g transform="translate(153.658652 322.182437)scale(0.1 -0.1)">
       <use xlink:href="#DejaVuSans-48"/>
       <use x="63.623047" xlink:href="#DejaVuSans-46"/>
       <use x="95.410156" xlink:href="#DejaVuSans-48"/>
       <use x="159.033203" xlink:href="#DejaVuSans-53"/>
      </g>
     </g>
    </g>
    <g id="xtick_3">
     <g id="line2d_3">
      <g>
       <use style="stroke:#000000;stroke-width:0.8;" x="241.727654" xlink:href="#meaa813ea3a" y="307.584"/>
      </g>
     </g>
     <g id="text_3">
      <!-- 0.10 -->
      <defs>
       <path d="M 12.40625 8.296875 
L 28.515625 8.296875 
L 28.515625 63.921875 
L 10.984375 60.40625 
L 10.984375 69.390625 
L 28.421875 72.90625 
L 38.28125 72.90625 
L 38.28125 8.296875 
L 54.390625 8.296875 
L 54.390625 0 
L 12.40625 0 
z
" id="DejaVuSans-49"/>
      </defs>
      <g transform="translate(230.594841 322.182437)scale(0.1 -0.1)">
       <use xlink:href="#DejaVuSans-48"/>
       <use x="63.623047" xlink:href="#DejaVuSans-46"/>
       <use x="95.410156" xlink:href="#DejaVuSans-49"/>
       <use x="159.033203" xlink:href="#DejaVuSans-48"/>
      </g>
     </g>
    </g>
    <g id="xtick_4">
     <g id="line2d_4">
      <g>
       <use style="stroke:#000000;stroke-width:0.8;" x="318.663843" xlink:href="#meaa813ea3a" y="307.584"/>
      </g>
     </g>
     <g id="text_4">
      <!-- 0.15 -->
      <g transform="translate(307.53103 322.182437)scale(0.1 -0.1)">
       <use xlink:href="#DejaVuSans-48"/>
       <use x="63.623047" xlink:href="#DejaVuSans-46"/>
       <use x="95.410156" xlink:href="#DejaVuSans-49"/>
       <use x="159.033203" xlink:href="#DejaVuSans-53"/>
      </g>
     </g>
    </g>
    <g id="xtick_5">
     <g id="line2d_5">
      <g>
       <use style="stroke:#000000;stroke-width:0.8;" x="395.600031" xlink:href="#meaa813ea3a" y="307.584"/>
      </g>
     </g>
     <g id="text_5">
      <!-- 0.20 -->
      <defs>
       <path d="M 19.1875 8.296875 
L 53.609375 8.296875 
L 53.609375 0 
L 7.328125 0 
L 7.328125 8.296875 
Q 12.9375 14.109375 22.625 23.890625 
Q 32.328125 33.6875 34.8125 36.53125 
Q 39.546875 41.84375 41.421875 45.53125 
Q 43.3125 49.21875 43.3125 52.78125 
Q 43.3125 58.59375 39.234375 62.25 
Q 35.15625 65.921875 28.609375 65.921875 
Q 23.96875 65.921875 18.8125 64.3125 
Q 13.671875 62.703125 7.8125 59.421875 
L 7.8125 69.390625 
Q 13.765625 71.78125 18.9375 73 
Q 24.125 74.21875 28.421875 74.21875 
Q 39.75 74.21875 46.484375 68.546875 
Q 53.21875 62.890625 53.21875 53.421875 
Q 53.21875 48.921875 51.53125 44.890625 
Q 49.859375 40.875 45.40625 35.40625 
Q 44.1875 33.984375 37.640625 27.21875 
Q 31.109375 20.453125 19.1875 8.296875 
z
" id="DejaVuSans-50"/>
      </defs>
      <g transform="translate(384.467219 322.182437)scale(0.1 -0.1)">
       <use xlink:href="#DejaVuSans-48"/>
       <use x="63.623047" xlink:href="#DejaVuSans-46"/>
       <use x="95.410156" xlink:href="#DejaVuSans-50"/>
       <use x="159.033203" xlink:href="#DejaVuSans-48"/>
      </g>
     </g>
    </g>
    <g id="text_6">
     <!-- j_m2_b1_mmdt -->
     <defs>
      <path d="M 9.421875 54.6875 
L 18.40625 54.6875 
L 18.40625 -0.984375 
Q 18.40625 -11.421875 14.421875 -16.109375 
Q 10.453125 -20.796875 1.609375 -20.796875 
L -1.8125 -20.796875 
L -1.8125 -13.1875 
L 0.59375 -13.1875 
Q 5.71875 -13.1875 7.5625 -10.8125 
Q 9.421875 -8.453125 9.421875 -0.984375 
z
M 9.421875 75.984375 
L 18.40625 75.984375 
L 18.40625 64.59375 
L 9.421875 64.59375 
z
" id="DejaVuSans-106"/>
      <path d="M 50.984375 -16.609375 
L 50.984375 -23.578125 
L -0.984375 -23.578125 
L -0.984375 -16.609375 
z
" id="DejaVuSans-95"/>
      <path d="M 52 44.1875 
Q 55.375 50.25 60.0625 53.125 
Q 64.75 56 71.09375 56 
Q 79.640625 56 84.28125 50.015625 
Q 88.921875 44.046875 88.921875 33.015625 
L 88.921875 0 
L 79.890625 0 
L 79.890625 32.71875 
Q 79.890625 40.578125 77.09375 44.375 
Q 74.3125 48.1875 68.609375 48.1875 
Q 61.625 48.1875 57.5625 43.546875 
Q 53.515625 38.921875 53.515625 30.90625 
L 53.515625 0 
L 44.484375 0 
L 44.484375 32.71875 
Q 44.484375 40.625 41.703125 44.40625 
Q 38.921875 48.1875 33.109375 48.1875 
Q 26.21875 48.1875 22.15625 43.53125 
Q 18.109375 38.875 18.109375 30.90625 
L 18.109375 0 
L 9.078125 0 
L 9.078125 54.6875 
L 18.109375 54.6875 
L 18.109375 46.1875 
Q 21.1875 51.21875 25.484375 53.609375 
Q 29.78125 56 35.6875 56 
Q 41.65625 56 45.828125 52.96875 
Q 50 49.953125 52 44.1875 
z
" id="DejaVuSans-109"/>
      <path d="M 48.6875 27.296875 
Q 48.6875 37.203125 44.609375 42.84375 
Q 40.53125 48.484375 33.40625 48.484375 
Q 26.265625 48.484375 22.1875 42.84375 
Q 18.109375 37.203125 18.109375 27.296875 
Q 18.109375 17.390625 22.1875 11.75 
Q 26.265625 6.109375 33.40625 6.109375 
Q 40.53125 6.109375 44.609375 11.75 
Q 48.6875 17.390625 48.6875 27.296875 
z
M 18.109375 46.390625 
Q 20.953125 51.265625 25.265625 53.625 
Q 29.59375 56 35.59375 56 
Q 45.5625 56 51.78125 48.09375 
Q 58.015625 40.1875 58.015625 27.296875 
Q 58.015625 14.40625 51.78125 6.484375 
Q 45.5625 -1.421875 35.59375 -1.421875 
Q 29.59375 -1.421875 25.265625 0.953125 
Q 20.953125 3.328125 18.109375 8.203125 
L 18.109375 0 
L 9.078125 0 
L 9.078125 75.984375 
L 18.109375 75.984375 
z
" id="DejaVuSans-98"/>
      <path d="M 45.40625 46.390625 
L 45.40625 75.984375 
L 54.390625 75.984375 
L 54.390625 0 
L 45.40625 0 
L 45.40625 8.203125 
Q 42.578125 3.328125 38.25 0.953125 
Q 33.9375 -1.421875 27.875 -1.421875 
Q 17.96875 -1.421875 11.734375 6.484375 
Q 5.515625 14.40625 5.515625 27.296875 
Q 5.515625 40.1875 11.734375 48.09375 
Q 17.96875 56 27.875 56 
Q 33.9375 56 38.25 53.625 
Q 42.578125 51.265625 45.40625 46.390625 
z
M 14.796875 27.296875 
Q 14.796875 17.390625 18.875 11.75 
Q 22.953125 6.109375 30.078125 6.109375 
Q 37.203125 6.109375 41.296875 11.75 
Q 45.40625 17.390625 45.40625 27.296875 
Q 45.40625 37.203125 41.296875 42.84375 
Q 37.203125 48.484375 30.078125 48.484375 
Q 22.953125 48.484375 18.875 42.84375 
Q 14.796875 37.203125 14.796875 27.296875 
z
" id="DejaVuSans-100"/>
      <path d="M 18.3125 70.21875 
L 18.3125 54.6875 
L 36.8125 54.6875 
L 36.8125 47.703125 
L 18.3125 47.703125 
L 18.3125 18.015625 
Q 18.3125 11.328125 20.140625 9.421875 
Q 21.96875 7.515625 27.59375 7.515625 
L 36.8125 7.515625 
L 36.8125 0 
L 27.59375 0 
Q 17.1875 0 13.234375 3.875 
Q 9.28125 7.765625 9.28125 18.015625 
L 9.28125 47.703125 
L 2.6875 47.703125 
L 2.6875 54.6875 
L 9.28125 54.6875 
L 9.28125 70.21875 
z
" id="DejaVuSans-116"/>
     </defs>
     <g transform="translate(197.988906 335.860562)scale(0.1 -0.1)">
      <use xlink:href="#DejaVuSans-106"/>
      <use x="27.783203" xlink:href="#DejaVuSans-95"/>
      <use x="77.783203" xlink:href="#DejaVuSans-109"/>
      <use x="175.195312" xlink:href="#DejaVuSans-50"/>
      <use x="238.818359" xlink:href="#DejaVuSans-95"/>
      <use x="288.818359" xlink:href="#DejaVuSans-98"/>
      <use x="352.294922" xlink:href="#DejaVuSans-49"/>
      <use x="415.917969" xlink:href="#DejaVuSans-95"/>
      <use x="465.917969" xlink:href="#DejaVuSans-109"/>
      <use x="563.330078" xlink:href="#DejaVuSans-109"/>
      <use x="660.742188" xlink:href="#DejaVuSans-100"/>
      <use x="724.21875" xlink:href="#DejaVuSans-116"/>
     </g>
    </g>
   </g>
   <g id="matplotlib.axis_2">
    <g id="ytick_1">
     <g id="line2d_6">
      <defs>
       <path d="M 0 0 
L -3.5 0 
" id="m9a65ad2cb0" style="stroke:#000000;stroke-width:0.8;"/>
      </defs>
      <g>
       <use style="stroke:#000000;stroke-width:0.8;" x="57.6" xlink:href="#m9a65ad2cb0" y="307.584"/>
      </g>
     </g>
     <g id="text_7">
      <!-- 0.000 -->
      <g transform="translate(21.971875 311.383219)scale(0.1 -0.1)">
       <use xlink:href="#DejaVuSans-48"/>
       <use x="63.623047" xlink:href="#DejaVuSans-46"/>
       <use x="95.410156" xlink:href="#DejaVuSans-48"/>
       <use x="159.033203" xlink:href="#DejaVuSans-48"/>
       <use x="222.65625" xlink:href="#DejaVuSans-48"/>
      </g>
     </g>
    </g>
    <g id="ytick_2">
     <g id="line2d_7">
      <g>
       <use style="stroke:#000000;stroke-width:0.8;" x="57.6" xlink:href="#m9a65ad2cb0" y="275.243705"/>
      </g>
     </g>
     <g id="text_8">
      <!-- 0.001 -->
      <g transform="translate(21.971875 279.042924)scale(0.1 -0.1)">
       <use xlink:href="#DejaVuSans-48"/>
       <use x="63.623047" xlink:href="#DejaVuSans-46"/>
       <use x="95.410156" xlink:href="#DejaVuSans-48"/>
       <use x="159.033203" xlink:href="#DejaVuSans-48"/>
       <use x="222.65625" xlink:href="#DejaVuSans-49"/>
      </g>
     </g>
    </g>
    <g id="ytick_3">
     <g id="line2d_8">
      <g>
       <use style="stroke:#000000;stroke-width:0.8;" x="57.6" xlink:href="#m9a65ad2cb0" y="242.90341"/>
      </g>
     </g>
     <g id="text_9">
      <!-- 0.002 -->
      <g transform="translate(21.971875 246.702628)scale(0.1 -0.1)">
       <use xlink:href="#DejaVuSans-48"/>
       <use x="63.623047" xlink:href="#DejaVuSans-46"/>
       <use x="95.410156" xlink:href="#DejaVuSans-48"/>
       <use x="159.033203" xlink:href="#DejaVuSans-48"/>
       <use x="222.65625" xlink:href="#DejaVuSans-50"/>
      </g>
     </g>
    </g>
    <g id="ytick_4">
     <g id="line2d_9">
      <g>
       <use style="stroke:#000000;stroke-width:0.8;" x="57.6" xlink:href="#m9a65ad2cb0" y="210.563114"/>
      </g>
     </g>
     <g id="text_10">
      <!-- 0.003 -->
      <defs>
       <path d="M 40.578125 39.3125 
Q 47.65625 37.796875 51.625 33 
Q 55.609375 28.21875 55.609375 21.1875 
Q 55.609375 10.40625 48.1875 4.484375 
Q 40.765625 -1.421875 27.09375 -1.421875 
Q 22.515625 -1.421875 17.65625 -0.515625 
Q 12.796875 0.390625 7.625 2.203125 
L 7.625 11.71875 
Q 11.71875 9.328125 16.59375 8.109375 
Q 21.484375 6.890625 26.8125 6.890625 
Q 36.078125 6.890625 40.9375 10.546875 
Q 45.796875 14.203125 45.796875 21.1875 
Q 45.796875 27.640625 41.28125 31.265625 
Q 36.765625 34.90625 28.71875 34.90625 
L 20.21875 34.90625 
L 20.21875 43.015625 
L 29.109375 43.015625 
Q 36.375 43.015625 40.234375 45.921875 
Q 44.09375 48.828125 44.09375 54.296875 
Q 44.09375 59.90625 40.109375 62.90625 
Q 36.140625 65.921875 28.71875 65.921875 
Q 24.65625 65.921875 20.015625 65.03125 
Q 15.375 64.15625 9.8125 62.3125 
L 9.8125 71.09375 
Q 15.4375 72.65625 20.34375 73.4375 
Q 25.25 74.21875 29.59375 74.21875 
Q 40.828125 74.21875 47.359375 69.109375 
Q 53.90625 64.015625 53.90625 55.328125 
Q 53.90625 49.265625 50.4375 45.09375 
Q 46.96875 40.921875 40.578125 39.3125 
z
" id="DejaVuSans-51"/>
      </defs>
      <g transform="translate(21.971875 214.362333)scale(0.1 -0.1)">
       <use xlink:href="#DejaVuSans-48"/>
       <use x="63.623047" xlink:href="#DejaVuSans-46"/>
       <use x="95.410156" xlink:href="#DejaVuSans-48"/>
       <use x="159.033203" xlink:href="#DejaVuSans-48"/>
       <use x="222.65625" xlink:href="#DejaVuSans-51"/>
      </g>
     </g>
    </g>
    <g id="ytick_5">
     <g id="line2d_10">
      <g>
       <use style="stroke:#000000;stroke-width:0.8;" x="57.6" xlink:href="#m9a65ad2cb0" y="178.222819"/>
      </g>
     </g>
     <g id="text_11">
      <!-- 0.004 -->
      <defs>
       <path d="M 37.796875 64.3125 
L 12.890625 25.390625 
L 37.796875 25.390625 
z
M 35.203125 72.90625 
L 47.609375 72.90625 
L 47.609375 25.390625 
L 58.015625 25.390625 
L 58.015625 17.1875 
L 47.609375 17.1875 
L 47.609375 0 
L 37.796875 0 
L 37.796875 17.1875 
L 4.890625 17.1875 
L 4.890625 26.703125 
z
" id="DejaVuSans-52"/>
      </defs>
      <g transform="translate(21.971875 182.022038)scale(0.1 -0.1)">
       <use xlink:href="#DejaVuSans-48"/>
       <use x="63.623047" xlink:href="#DejaVuSans-46"/>
       <use x="95.410156" xlink:href="#DejaVuSans-48"/>
       <use x="159.033203" xlink:href="#DejaVuSans-48"/>
       <use x="222.65625" xlink:href="#DejaVuSans-52"/>
      </g>
     </g>
    </g>
    <g id="ytick_6">
     <g id="line2d_11">
      <g>
       <use style="stroke:#000000;stroke-width:0.8;" x="57.6" xlink:href="#m9a65ad2cb0" y="145.882524"/>
      </g>
     </g>
     <g id="text_12">
      <!-- 0.005 -->
      <g transform="translate(21.971875 149.681743)scale(0.1 -0.1)">
       <use xlink:href="#DejaVuSans-48"/>
       <use x="63.623047" xlink:href="#DejaVuSans-46"/>
       <use x="95.410156" xlink:href="#DejaVuSans-48"/>
       <use x="159.033203" xlink:href="#DejaVuSans-48"/>
       <use x="222.65625" xlink:href="#DejaVuSans-53"/>
      </g>
     </g>
    </g>
    <g id="ytick_7">
     <g id="line2d_12">
      <g>
       <use style="stroke:#000000;stroke-width:0.8;" x="57.6" xlink:href="#m9a65ad2cb0" y="113.542229"/>
      </g>
     </g>
     <g id="text_13">
      <!-- 0.006 -->
      <defs>
       <path d="M 33.015625 40.375 
Q 26.375 40.375 22.484375 35.828125 
Q 18.609375 31.296875 18.609375 23.390625 
Q 18.609375 15.53125 22.484375 10.953125 
Q 26.375 6.390625 33.015625 6.390625 
Q 39.65625 6.390625 43.53125 10.953125 
Q 47.40625 15.53125 47.40625 23.390625 
Q 47.40625 31.296875 43.53125 35.828125 
Q 39.65625 40.375 33.015625 40.375 
z
M 52.59375 71.296875 
L 52.59375 62.3125 
Q 48.875 64.0625 45.09375 64.984375 
Q 41.3125 65.921875 37.59375 65.921875 
Q 27.828125 65.921875 22.671875 59.328125 
Q 17.53125 52.734375 16.796875 39.40625 
Q 19.671875 43.65625 24.015625 45.921875 
Q 28.375 48.1875 33.59375 48.1875 
Q 44.578125 48.1875 50.953125 41.515625 
Q 57.328125 34.859375 57.328125 23.390625 
Q 57.328125 12.15625 50.6875 5.359375 
Q 44.046875 -1.421875 33.015625 -1.421875 
Q 20.359375 -1.421875 13.671875 8.265625 
Q 6.984375 17.96875 6.984375 36.375 
Q 6.984375 53.65625 15.1875 63.9375 
Q 23.390625 74.21875 37.203125 74.21875 
Q 40.921875 74.21875 44.703125 73.484375 
Q 48.484375 72.75 52.59375 71.296875 
z
" id="DejaVuSans-54"/>
      </defs>
      <g transform="translate(21.971875 117.341448)scale(0.1 -0.1)">
       <use xlink:href="#DejaVuSans-48"/>
       <use x="63.623047" xlink:href="#DejaVuSans-46"/>
       <use x="95.410156" xlink:href="#DejaVuSans-48"/>
       <use x="159.033203" xlink:href="#DejaVuSans-48"/>
       <use x="222.65625" xlink:href="#DejaVuSans-54"/>
      </g>
     </g>
    </g>
    <g id="ytick_8">
     <g id="line2d_13">
      <g>
       <use style="stroke:#000000;stroke-width:0.8;" x="57.6" xlink:href="#m9a65ad2cb0" y="81.201934"/>
      </g>
     </g>
     <g id="text_14">
      <!-- 0.007 -->
      <defs>
       <path d="M 8.203125 72.90625 
L 55.078125 72.90625 
L 55.078125 68.703125 
L 28.609375 0 
L 18.3125 0 
L 43.21875 64.59375 
L 8.203125 64.59375 
z
" id="DejaVuSans-55"/>
      </defs>
      <g transform="translate(21.971875 85.001152)scale(0.1 -0.1)">
       <use xlink:href="#DejaVuSans-48"/>
       <use x="63.623047" xlink:href="#DejaVuSans-46"/>
       <use x="95.410156" xlink:href="#DejaVuSans-48"/>
       <use x="159.033203" xlink:href="#DejaVuSans-48"/>
       <use x="222.65625" xlink:href="#DejaVuSans-55"/>
      </g>
     </g>
    </g>
    <g id="ytick_9">
     <g id="line2d_14">
      <g>
       <use style="stroke:#000000;stroke-width:0.8;" x="57.6" xlink:href="#m9a65ad2cb0" y="48.861639"/>
      </g>
     </g>
     <g id="text_15">
      <!-- 0.008 -->
      <defs>
       <path d="M 31.78125 34.625 
Q 24.75 34.625 20.71875 30.859375 
Q 16.703125 27.09375 16.703125 20.515625 
Q 16.703125 13.921875 20.71875 10.15625 
Q 24.75 6.390625 31.78125 6.390625 
Q 38.8125 6.390625 42.859375 10.171875 
Q 46.921875 13.96875 46.921875 20.515625 
Q 46.921875 27.09375 42.890625 30.859375 
Q 38.875 34.625 31.78125 34.625 
z
M 21.921875 38.8125 
Q 15.578125 40.375 12.03125 44.71875 
Q 8.5 49.078125 8.5 55.328125 
Q 8.5 64.0625 14.71875 69.140625 
Q 20.953125 74.21875 31.78125 74.21875 
Q 42.671875 74.21875 48.875 69.140625 
Q 55.078125 64.0625 55.078125 55.328125 
Q 55.078125 49.078125 51.53125 44.71875 
Q 48 40.375 41.703125 38.8125 
Q 48.828125 37.15625 52.796875 32.3125 
Q 56.78125 27.484375 56.78125 20.515625 
Q 56.78125 9.90625 50.3125 4.234375 
Q 43.84375 -1.421875 31.78125 -1.421875 
Q 19.734375 -1.421875 13.25 4.234375 
Q 6.78125 9.90625 6.78125 20.515625 
Q 6.78125 27.484375 10.78125 32.3125 
Q 14.796875 37.15625 21.921875 38.8125 
z
M 18.3125 54.390625 
Q 18.3125 48.734375 21.84375 45.5625 
Q 25.390625 42.390625 31.78125 42.390625 
Q 38.140625 42.390625 41.71875 45.5625 
Q 45.3125 48.734375 45.3125 54.390625 
Q 45.3125 60.0625 41.71875 63.234375 
Q 38.140625 66.40625 31.78125 66.40625 
Q 25.390625 66.40625 21.84375 63.234375 
Q 18.3125 60.0625 18.3125 54.390625 
z
" id="DejaVuSans-56"/>
      </defs>
      <g transform="translate(21.971875 52.660857)scale(0.1 -0.1)">
       <use xlink:href="#DejaVuSans-48"/>
       <use x="63.623047" xlink:href="#DejaVuSans-46"/>
       <use x="95.410156" xlink:href="#DejaVuSans-48"/>
       <use x="159.033203" xlink:href="#DejaVuSans-48"/>
       <use x="222.65625" xlink:href="#DejaVuSans-56"/>
      </g>
     </g>
    </g>
    <g id="text_16">
     <!-- Prob. Density (a.u.) -->
     <defs>
      <path d="M 19.671875 64.796875 
L 19.671875 37.40625 
L 32.078125 37.40625 
Q 38.96875 37.40625 42.71875 40.96875 
Q 46.484375 44.53125 46.484375 51.125 
Q 46.484375 57.671875 42.71875 61.234375 
Q 38.96875 64.796875 32.078125 64.796875 
z
M 9.8125 72.90625 
L 32.078125 72.90625 
Q 44.34375 72.90625 50.609375 67.359375 
Q 56.890625 61.8125 56.890625 51.125 
Q 56.890625 40.328125 50.609375 34.8125 
Q 44.34375 29.296875 32.078125 29.296875 
L 19.671875 29.296875 
L 19.671875 0 
L 9.8125 0 
z
" id="DejaVuSans-80"/>
      <path d="M 41.109375 46.296875 
Q 39.59375 47.171875 37.8125 47.578125 
Q 36.03125 48 33.890625 48 
Q 26.265625 48 22.1875 43.046875 
Q 18.109375 38.09375 18.109375 28.8125 
L 18.109375 0 
L 9.078125 0 
L 9.078125 54.6875 
L 18.109375 54.6875 
L 18.109375 46.1875 
Q 20.953125 51.171875 25.484375 53.578125 
Q 30.03125 56 36.53125 56 
Q 37.453125 56 38.578125 55.875 
Q 39.703125 55.765625 41.0625 55.515625 
z
" id="DejaVuSans-114"/>
      <path d="M 30.609375 48.390625 
Q 23.390625 48.390625 19.1875 42.75 
Q 14.984375 37.109375 14.984375 27.296875 
Q 14.984375 17.484375 19.15625 11.84375 
Q 23.34375 6.203125 30.609375 6.203125 
Q 37.796875 6.203125 41.984375 11.859375 
Q 46.1875 17.53125 46.1875 27.296875 
Q 46.1875 37.015625 41.984375 42.703125 
Q 37.796875 48.390625 30.609375 48.390625 
z
M 30.609375 56 
Q 42.328125 56 49.015625 48.375 
Q 55.71875 40.765625 55.71875 27.296875 
Q 55.71875 13.875 49.015625 6.21875 
Q 42.328125 -1.421875 30.609375 -1.421875 
Q 18.84375 -1.421875 12.171875 6.21875 
Q 5.515625 13.875 5.515625 27.296875 
Q 5.515625 40.765625 12.171875 48.375 
Q 18.84375 56 30.609375 56 
z
" id="DejaVuSans-111"/>
      <path id="DejaVuSans-32"/>
      <path d="M 19.671875 64.796875 
L 19.671875 8.109375 
L 31.59375 8.109375 
Q 46.6875 8.109375 53.6875 14.9375 
Q 60.6875 21.78125 60.6875 36.53125 
Q 60.6875 51.171875 53.6875 57.984375 
Q 46.6875 64.796875 31.59375 64.796875 
z
M 9.8125 72.90625 
L 30.078125 72.90625 
Q 51.265625 72.90625 61.171875 64.09375 
Q 71.09375 55.28125 71.09375 36.53125 
Q 71.09375 17.671875 61.125 8.828125 
Q 51.171875 0 30.078125 0 
L 9.8125 0 
z
" id="DejaVuSans-68"/>
      <path d="M 56.203125 29.59375 
L 56.203125 25.203125 
L 14.890625 25.203125 
Q 15.484375 15.921875 20.484375 11.0625 
Q 25.484375 6.203125 34.421875 6.203125 
Q 39.59375 6.203125 44.453125 7.46875 
Q 49.3125 8.734375 54.109375 11.28125 
L 54.109375 2.78125 
Q 49.265625 0.734375 44.1875 -0.34375 
Q 39.109375 -1.421875 33.890625 -1.421875 
Q 20.796875 -1.421875 13.15625 6.1875 
Q 5.515625 13.8125 5.515625 26.8125 
Q 5.515625 40.234375 12.765625 48.109375 
Q 20.015625 56 32.328125 56 
Q 43.359375 56 49.78125 48.890625 
Q 56.203125 41.796875 56.203125 29.59375 
z
M 47.21875 32.234375 
Q 47.125 39.59375 43.09375 43.984375 
Q 39.0625 48.390625 32.421875 48.390625 
Q 24.90625 48.390625 20.390625 44.140625 
Q 15.875 39.890625 15.1875 32.171875 
z
" id="DejaVuSans-101"/>
      <path d="M 54.890625 33.015625 
L 54.890625 0 
L 45.90625 0 
L 45.90625 32.71875 
Q 45.90625 40.484375 42.875 44.328125 
Q 39.84375 48.1875 33.796875 48.1875 
Q 26.515625 48.1875 22.3125 43.546875 
Q 18.109375 38.921875 18.109375 30.90625 
L 18.109375 0 
L 9.078125 0 
L 9.078125 54.6875 
L 18.109375 54.6875 
L 18.109375 46.1875 
Q 21.34375 51.125 25.703125 53.5625 
Q 30.078125 56 35.796875 56 
Q 45.21875 56 50.046875 50.171875 
Q 54.890625 44.34375 54.890625 33.015625 
z
" id="DejaVuSans-110"/>
      <path d="M 44.28125 53.078125 
L 44.28125 44.578125 
Q 40.484375 46.53125 36.375 47.5 
Q 32.28125 48.484375 27.875 48.484375 
Q 21.1875 48.484375 17.84375 46.4375 
Q 14.5 44.390625 14.5 40.28125 
Q 14.5 37.15625 16.890625 35.375 
Q 19.28125 33.59375 26.515625 31.984375 
L 29.59375 31.296875 
Q 39.15625 29.25 43.1875 25.515625 
Q 47.21875 21.78125 47.21875 15.09375 
Q 47.21875 7.46875 41.1875 3.015625 
Q 35.15625 -1.421875 24.609375 -1.421875 
Q 20.21875 -1.421875 15.453125 -0.5625 
Q 10.6875 0.296875 5.421875 2 
L 5.421875 11.28125 
Q 10.40625 8.6875 15.234375 7.390625 
Q 20.0625 6.109375 24.8125 6.109375 
Q 31.15625 6.109375 34.5625 8.28125 
Q 37.984375 10.453125 37.984375 14.40625 
Q 37.984375 18.0625 35.515625 20.015625 
Q 33.0625 21.96875 24.703125 23.78125 
L 21.578125 24.515625 
Q 13.234375 26.265625 9.515625 29.90625 
Q 5.8125 33.546875 5.8125 39.890625 
Q 5.8125 47.609375 11.28125 51.796875 
Q 16.75 56 26.8125 56 
Q 31.78125 56 36.171875 55.265625 
Q 40.578125 54.546875 44.28125 53.078125 
z
" id="DejaVuSans-115"/>
      <path d="M 9.421875 54.6875 
L 18.40625 54.6875 
L 18.40625 0 
L 9.421875 0 
z
M 9.421875 75.984375 
L 18.40625 75.984375 
L 18.40625 64.59375 
L 9.421875 64.59375 
z
" id="DejaVuSans-105"/>
      <path d="M 32.171875 -5.078125 
Q 28.375 -14.84375 24.75 -17.8125 
Q 21.140625 -20.796875 15.09375 -20.796875 
L 7.90625 -20.796875 
L 7.90625 -13.28125 
L 13.1875 -13.28125 
Q 16.890625 -13.28125 18.9375 -11.515625 
Q 21 -9.765625 23.484375 -3.21875 
L 25.09375 0.875 
L 2.984375 54.6875 
L 12.5 54.6875 
L 29.59375 11.921875 
L 46.6875 54.6875 
L 56.203125 54.6875 
z
" id="DejaVuSans-121"/>
      <path d="M 31 75.875 
Q 24.46875 64.65625 21.28125 53.65625 
Q 18.109375 42.671875 18.109375 31.390625 
Q 18.109375 20.125 21.3125 9.0625 
Q 24.515625 -2 31 -13.1875 
L 23.1875 -13.1875 
Q 15.875 -1.703125 12.234375 9.375 
Q 8.59375 20.453125 8.59375 31.390625 
Q 8.59375 42.28125 12.203125 53.3125 
Q 15.828125 64.359375 23.1875 75.875 
z
" id="DejaVuSans-40"/>
      <path d="M 34.28125 27.484375 
Q 23.390625 27.484375 19.1875 25 
Q 14.984375 22.515625 14.984375 16.5 
Q 14.984375 11.71875 18.140625 8.90625 
Q 21.296875 6.109375 26.703125 6.109375 
Q 34.1875 6.109375 38.703125 11.40625 
Q 43.21875 16.703125 43.21875 25.484375 
L 43.21875 27.484375 
z
M 52.203125 31.203125 
L 52.203125 0 
L 43.21875 0 
L 43.21875 8.296875 
Q 40.140625 3.328125 35.546875 0.953125 
Q 30.953125 -1.421875 24.3125 -1.421875 
Q 15.921875 -1.421875 10.953125 3.296875 
Q 6 8.015625 6 15.921875 
Q 6 25.140625 12.171875 29.828125 
Q 18.359375 34.515625 30.609375 34.515625 
L 43.21875 34.515625 
L 43.21875 35.40625 
Q 43.21875 41.609375 39.140625 45 
Q 35.0625 48.390625 27.6875 48.390625 
Q 23 48.390625 18.546875 47.265625 
Q 14.109375 46.140625 10.015625 43.890625 
L 10.015625 52.203125 
Q 14.9375 54.109375 19.578125 55.046875 
Q 24.21875 56 28.609375 56 
Q 40.484375 56 46.34375 49.84375 
Q 52.203125 43.703125 52.203125 31.203125 
z
" id="DejaVuSans-97"/>
      <path d="M 8.5 21.578125 
L 8.5 54.6875 
L 17.484375 54.6875 
L 17.484375 21.921875 
Q 17.484375 14.15625 20.5 10.265625 
Q 23.53125 6.390625 29.59375 6.390625 
Q 36.859375 6.390625 41.078125 11.03125 
Q 45.3125 15.671875 45.3125 23.6875 
L 45.3125 54.6875 
L 54.296875 54.6875 
L 54.296875 0 
L 45.3125 0 
L 45.3125 8.40625 
Q 42.046875 3.421875 37.71875 1 
Q 33.40625 -1.421875 27.6875 -1.421875 
Q 18.265625 -1.421875 13.375 4.4375 
Q 8.5 10.296875 8.5 21.578125 
z
M 31.109375 56 
z
" id="DejaVuSans-117"/>
      <path d="M 8.015625 75.875 
L 15.828125 75.875 
Q 23.140625 64.359375 26.78125 53.3125 
Q 30.421875 42.28125 30.421875 31.390625 
Q 30.421875 20.453125 26.78125 9.375 
Q 23.140625 -1.703125 15.828125 -13.1875 
L 8.015625 -13.1875 
Q 14.5 -2 17.703125 9.0625 
Q 20.90625 20.125 20.90625 31.390625 
Q 20.90625 42.671875 17.703125 53.65625 
Q 14.5 64.65625 8.015625 75.875 
z
" id="DejaVuSans-41"/>
     </defs>
     <g transform="translate(15.892187 222.917844)rotate(-90)scale(0.1 -0.1)">
      <use xlink:href="#DejaVuSans-80"/>
      <use x="60.287109" xlink:href="#DejaVuSans-114"/>
      <use x="101.369141" xlink:href="#DejaVuSans-111"/>
      <use x="162.550781" xlink:href="#DejaVuSans-98"/>
      <use x="226.027344" xlink:href="#DejaVuSans-46"/>
      <use x="257.814453" xlink:href="#DejaVuSans-32"/>
      <use x="289.601562" xlink:href="#DejaVuSans-68"/>
      <use x="366.603516" xlink:href="#DejaVuSans-101"/>
      <use x="428.126953" xlink:href="#DejaVuSans-110"/>
      <use x="491.505859" xlink:href="#DejaVuSans-115"/>
      <use x="543.605469" xlink:href="#DejaVuSans-105"/>
      <use x="571.388672" xlink:href="#DejaVuSans-116"/>
      <use x="610.597656" xlink:href="#DejaVuSans-121"/>
      <use x="669.777344" xlink:href="#DejaVuSans-32"/>
      <use x="701.564453" xlink:href="#DejaVuSans-40"/>
      <use x="740.578125" xlink:href="#DejaVuSans-97"/>
      <use x="801.857422" xlink:href="#DejaVuSans-46"/>
      <use x="833.644531" xlink:href="#DejaVuSans-117"/>
      <use x="897.023438" xlink:href="#DejaVuSans-46"/>
      <use x="928.810547" xlink:href="#DejaVuSans-41"/>
     </g>
    </g>
   </g>
   <g id="patch_9">
    <path d="M 57.6 307.584 
L 57.6 41.472 
" style="fill:none;stroke:#000000;stroke-linecap:square;stroke-linejoin:miter;stroke-width:0.8;"/>
   </g>
   <g id="patch_10">
    <path d="M 414.72 307.584 
L 414.72 41.472 
" style="fill:none;stroke:#000000;stroke-linecap:square;stroke-linejoin:miter;stroke-width:0.8;"/>
   </g>
   <g id="patch_11">
    <path d="M 57.6 307.584 
L 414.72 307.584 
" style="fill:none;stroke:#000000;stroke-linecap:square;stroke-linejoin:miter;stroke-width:0.8;"/>
   </g>
   <g id="patch_12">
    <path d="M 57.6 41.472 
L 414.72 41.472 
" style="fill:none;stroke:#000000;stroke-linecap:square;stroke-linejoin:miter;stroke-width:0.8;"/>
   </g>
   <g id="legend_1">
    <g id="patch_13">
     <path d="M 325.405938 137.54075 
L 407.72 137.54075 
Q 409.72 137.54075 409.72 135.54075 
L 409.72 48.472 
Q 409.72 46.472 407.72 46.472 
L 325.405938 46.472 
Q 323.405938 46.472 323.405938 48.472 
L 323.405938 135.54075 
Q 323.405938 137.54075 325.405938 137.54075 
z
" style="fill:#ffffff;opacity:0.8;stroke:#cccccc;stroke-linejoin:miter;"/>
    </g>
    <g id="patch_14">
     <path d="M 327.405938 58.070438 
L 347.405938 58.070438 
L 347.405938 51.070438 
L 327.405938 51.070438 
z
" style="fill:none;stroke:#1f77b4;stroke-linejoin:miter;"/>
    </g>
    <g id="text_17">
     <!-- quark -->
     <defs>
      <path d="M 14.796875 27.296875 
Q 14.796875 17.390625 18.875 11.75 
Q 22.953125 6.109375 30.078125 6.109375 
Q 37.203125 6.109375 41.296875 11.75 
Q 45.40625 17.390625 45.40625 27.296875 
Q 45.40625 37.203125 41.296875 42.84375 
Q 37.203125 48.484375 30.078125 48.484375 
Q 22.953125 48.484375 18.875 42.84375 
Q 14.796875 37.203125 14.796875 27.296875 
z
M 45.40625 8.203125 
Q 42.578125 3.328125 38.25 0.953125 
Q 33.9375 -1.421875 27.875 -1.421875 
Q 17.96875 -1.421875 11.734375 6.484375 
Q 5.515625 14.40625 5.515625 27.296875 
Q 5.515625 40.1875 11.734375 48.09375 
Q 17.96875 56 27.875 56 
Q 33.9375 56 38.25 53.625 
Q 42.578125 51.265625 45.40625 46.390625 
L 45.40625 54.6875 
L 54.390625 54.6875 
L 54.390625 -20.796875 
L 45.40625 -20.796875 
z
" id="DejaVuSans-113"/>
      <path d="M 9.078125 75.984375 
L 18.109375 75.984375 
L 18.109375 31.109375 
L 44.921875 54.6875 
L 56.390625 54.6875 
L 27.390625 29.109375 
L 57.625 0 
L 45.90625 0 
L 18.109375 26.703125 
L 18.109375 0 
L 9.078125 0 
z
" id="DejaVuSans-107"/>
     </defs>
     <g transform="translate(355.405938 58.070438)scale(0.1 -0.1)">
      <use xlink:href="#DejaVuSans-113"/>
      <use x="63.476562" xlink:href="#DejaVuSans-117"/>
      <use x="126.855469" xlink:href="#DejaVuSans-97"/>
      <use x="188.134766" xlink:href="#DejaVuSans-114"/>
      <use x="229.248047" xlink:href="#DejaVuSans-107"/>
     </g>
    </g>
    <g id="patch_15">
     <path d="M 327.405938 72.748563 
L 347.405938 72.748563 
L 347.405938 65.748563 
L 327.405938 65.748563 
z
" style="fill:none;stroke:#ff7f0e;stroke-linejoin:miter;"/>
    </g>
    <g id="text_18">
     <!-- gluon -->
     <defs>
      <path d="M 45.40625 27.984375 
Q 45.40625 37.75 41.375 43.109375 
Q 37.359375 48.484375 30.078125 48.484375 
Q 22.859375 48.484375 18.828125 43.109375 
Q 14.796875 37.75 14.796875 27.984375 
Q 14.796875 18.265625 18.828125 12.890625 
Q 22.859375 7.515625 30.078125 7.515625 
Q 37.359375 7.515625 41.375 12.890625 
Q 45.40625 18.265625 45.40625 27.984375 
z
M 54.390625 6.78125 
Q 54.390625 -7.171875 48.1875 -13.984375 
Q 42 -20.796875 29.203125 -20.796875 
Q 24.46875 -20.796875 20.265625 -20.09375 
Q 16.0625 -19.390625 12.109375 -17.921875 
L 12.109375 -9.1875 
Q 16.0625 -11.328125 19.921875 -12.34375 
Q 23.78125 -13.375 27.78125 -13.375 
Q 36.625 -13.375 41.015625 -8.765625 
Q 45.40625 -4.15625 45.40625 5.171875 
L 45.40625 9.625 
Q 42.625 4.78125 38.28125 2.390625 
Q 33.9375 0 27.875 0 
Q 17.828125 0 11.671875 7.65625 
Q 5.515625 15.328125 5.515625 27.984375 
Q 5.515625 40.671875 11.671875 48.328125 
Q 17.828125 56 27.875 56 
Q 33.9375 56 38.28125 53.609375 
Q 42.625 51.21875 45.40625 46.390625 
L 45.40625 54.6875 
L 54.390625 54.6875 
z
" id="DejaVuSans-103"/>
      <path d="M 9.421875 75.984375 
L 18.40625 75.984375 
L 18.40625 0 
L 9.421875 0 
z
" id="DejaVuSans-108"/>
     </defs>
     <g transform="translate(355.405938 72.748563)scale(0.1 -0.1)">
      <use xlink:href="#DejaVuSans-103"/>
      <use x="63.476562" xlink:href="#DejaVuSans-108"/>
      <use x="91.259766" xlink:href="#DejaVuSans-117"/>
      <use x="154.638672" xlink:href="#DejaVuSans-111"/>
      <use x="215.820312" xlink:href="#DejaVuSans-110"/>
     </g>
    </g>
    <g id="patch_16">
     <path d="M 327.405938 87.426688 
L 347.405938 87.426688 
L 347.405938 80.426688 
L 327.405938 80.426688 
z
" style="fill:none;stroke:#2ca02c;stroke-linejoin:miter;"/>
    </g>
    <g id="text_19">
     <!-- W -->
     <defs>
      <path d="M 3.328125 72.90625 
L 13.28125 72.90625 
L 28.609375 11.28125 
L 43.890625 72.90625 
L 54.984375 72.90625 
L 70.3125 11.28125 
L 85.59375 72.90625 
L 95.609375 72.90625 
L 77.296875 0 
L 64.890625 0 
L 49.515625 63.28125 
L 33.984375 0 
L 21.578125 0 
z
" id="DejaVuSans-87"/>
     </defs>
     <g transform="translate(355.405938 87.426688)scale(0.1 -0.1)">
      <use xlink:href="#DejaVuSans-87"/>
     </g>
    </g>
    <g id="patch_17">
     <path d="M 327.405938 102.104813 
L 347.405938 102.104813 
L 347.405938 95.104813 
L 327.405938 95.104813 
z
" style="fill:none;stroke:#d62728;stroke-linejoin:miter;"/>
    </g>
    <g id="text_20">
     <!-- Z -->
     <defs>
      <path d="M 5.609375 72.90625 
L 62.890625 72.90625 
L 62.890625 65.375 
L 16.796875 8.296875 
L 64.015625 8.296875 
L 64.015625 0 
L 4.5 0 
L 4.5 7.515625 
L 50.59375 64.59375 
L 5.609375 64.59375 
z
" id="DejaVuSans-90"/>
     </defs>
     <g transform="translate(355.405938 102.104813)scale(0.1 -0.1)">
      <use xlink:href="#DejaVuSans-90"/>
     </g>
    </g>
    <g id="patch_18">
     <path d="M 327.405938 116.782938 
L 347.405938 116.782938 
L 347.405938 109.782938 
L 327.405938 109.782938 
z
" style="fill:none;stroke:#9467bd;stroke-linejoin:miter;"/>
    </g>
    <g id="text_21">
     <!-- top -->
     <defs>
      <path d="M 18.109375 8.203125 
L 18.109375 -20.796875 
L 9.078125 -20.796875 
L 9.078125 54.6875 
L 18.109375 54.6875 
L 18.109375 46.390625 
Q 20.953125 51.265625 25.265625 53.625 
Q 29.59375 56 35.59375 56 
Q 45.5625 56 51.78125 48.09375 
Q 58.015625 40.1875 58.015625 27.296875 
Q 58.015625 14.40625 51.78125 6.484375 
Q 45.5625 -1.421875 35.59375 -1.421875 
Q 29.59375 -1.421875 25.265625 0.953125 
Q 20.953125 3.328125 18.109375 8.203125 
z
M 48.6875 27.296875 
Q 48.6875 37.203125 44.609375 42.84375 
Q 40.53125 48.484375 33.40625 48.484375 
Q 26.265625 48.484375 22.1875 42.84375 
Q 18.109375 37.203125 18.109375 27.296875 
Q 18.109375 17.390625 22.1875 11.75 
Q 26.265625 6.109375 33.40625 6.109375 
Q 40.53125 6.109375 44.609375 11.75 
Q 48.6875 17.390625 48.6875 27.296875 
z
" id="DejaVuSans-112"/>
     </defs>
     <g transform="translate(355.405938 116.782938)scale(0.1 -0.1)">
      <use xlink:href="#DejaVuSans-116"/>
      <use x="39.208984" xlink:href="#DejaVuSans-111"/>
      <use x="100.390625" xlink:href="#DejaVuSans-112"/>
     </g>
    </g>
    <g id="patch_19">
     <path d="M 327.405938 131.461063 
L 347.405938 131.461063 
L 347.405938 124.461063 
L 327.405938 124.461063 
z
" style="fill:none;stroke:#000000;stroke-linejoin:miter;"/>
    </g>
    <g id="text_22">
     <!-- undefined -->
     <defs>
      <path d="M 37.109375 75.984375 
L 37.109375 68.5 
L 28.515625 68.5 
Q 23.6875 68.5 21.796875 66.546875 
Q 19.921875 64.59375 19.921875 59.515625 
L 19.921875 54.6875 
L 34.71875 54.6875 
L 34.71875 47.703125 
L 19.921875 47.703125 
L 19.921875 0 
L 10.890625 0 
L 10.890625 47.703125 
L 2.296875 47.703125 
L 2.296875 54.6875 
L 10.890625 54.6875 
L 10.890625 58.5 
Q 10.890625 67.625 15.140625 71.796875 
Q 19.390625 75.984375 28.609375 75.984375 
z
" id="DejaVuSans-102"/>
     </defs>
     <g transform="translate(355.405938 131.461063)scale(0.1 -0.1)">
      <use xlink:href="#DejaVuSans-117"/>
      <use x="63.378906" xlink:href="#DejaVuSans-110"/>
      <use x="126.757812" xlink:href="#DejaVuSans-100"/>
      <use x="190.234375" xlink:href="#DejaVuSans-101"/>
      <use x="251.757812" xlink:href="#DejaVuSans-102"/>
      <use x="286.962891" xlink:href="#DejaVuSans-105"/>
      <use x="314.746094" xlink:href="#DejaVuSans-110"/>
      <use x="378.125" xlink:href="#DejaVuSans-101"/>
      <use x="439.648438" xlink:href="#DejaVuSans-100"/>
     </g>
    </g>
   </g>
  </g>
 </g>
 <defs>
  <clipPath id="p4043b813fc">
   <rect height="266.112" width="357.12" x="57.6" y="41.472"/>
  </clipPath>
 </defs>
</svg>
