<?xml version="1.0" encoding="utf-8" standalone="no"?>
<!DOCTYPE svg PUBLIC "-//W3C//DTD SVG 1.1//EN"
  "http://www.w3.org/Graphics/SVG/1.1/DTD/svg11.dtd">
<!-- Created with matplotlib (https://matplotlib.org/) -->
<svg height="345.6pt" version="1.1" viewBox="0 0 460.8 345.6" width="460.8pt" xmlns="http://www.w3.org/2000/svg" xmlns:xlink="http://www.w3.org/1999/xlink">
 <defs>
  <style type="text/css">
*{stroke-linecap:butt;stroke-linejoin:round;}
  </style>
 </defs>
 <g id="figure_1">
  <g id="patch_1">
   <path d="M 0 345.6 
L 460.8 345.6 
L 460.8 0 
L 0 0 
z
" style="fill:#ffffff;"/>
  </g>
  <g id="axes_1">
   <g id="patch_2">
    <path d="M 57.6 307.584 
L 414.72 307.584 
L 414.72 41.472 
L 57.6 41.472 
z
" style="fill:#ffffff;"/>
   </g>
   <g id="patch_3">
    <path clip-path="url(#p7c042113df)" d="M 73.832727 307.584 
L 73.832727 306.063574 
L 77.079273 306.063574 
L 77.079273 305.478246 
L 80.325818 305.478246 
L 80.325818 304.079168 
L 83.572364 304.079168 
L 83.572364 303.593775 
L 86.818909 303.593775 
L 86.818909 304.764431 
L 90.065454 304.764431 
L 90.065454 301.887757 
L 93.312 301.887757 
L 93.312 303.115518 
L 96.558546 303.115518 
L 96.558546 302.780025 
L 99.80509 302.780025 
L 99.80509 301.288152 
L 103.051636 301.288152 
L 103.051636 302.544466 
L 106.298182 302.544466 
L 106.298182 298.547104 
L 109.544728 298.547104 
L 109.544728 299.132431 
L 112.791274 299.132431 
L 112.791274 299.260918 
L 116.037817 299.260918 
L 116.037817 296.491314 
L 119.284363 296.491314 
L 119.284363 292.344051 
L 122.530909 292.344051 
L 122.530909 294.499771 
L 125.777455 294.499771 
L 125.777455 291.601683 
L 129.023998 291.601683 
L 129.023998 288.532279 
L 132.270547 288.532279 
L 132.270547 283.528435 
L 135.51709 283.528435 
L 135.51709 283.157254 
L 138.763639 283.157254 
L 138.763639 281.187122 
L 142.010182 281.187122 
L 142.010182 272.935421 
L 145.256724 272.935421 
L 145.256724 268.381282 
L 148.503274 268.381282 
L 148.503274 273.956175 
L 151.749816 273.956175 
L 151.749816 256.503398 
L 154.996366 256.503398 
L 154.996366 259.594224 
L 158.242908 259.594224 
L 158.242908 265.012074 
L 161.489458 265.012074 
L 161.489458 257.852513 
L 164.736 257.852513 
L 164.736 240.813744 
L 167.982543 240.813744 
L 167.982543 245.26795 
L 171.229092 245.26795 
L 171.229092 244.132986 
L 174.475635 244.132986 
L 174.475635 239.486047 
L 177.722184 239.486047 
L 177.722184 237.830002 
L 180.968727 237.830002 
L 180.968727 234.282339 
L 184.21527 234.282339 
L 184.21527 237.44454 
L 187.461819 237.44454 
L 187.461819 233.889734 
L 190.708368 233.889734 
L 190.708368 226.551727 
L 193.954905 226.551727 
L 193.954905 226.744451 
L 197.201454 226.744451 
L 197.201454 230.220734 
L 200.448003 230.220734 
L 200.448003 219.656273 
L 203.694539 219.656273 
L 203.694539 234.096745 
L 206.941088 234.096745 
L 206.941088 221.647806 
L 210.187638 221.647806 
L 210.187638 216.858113 
L 213.434187 216.858113 
L 213.434187 221.198112 
L 216.680723 221.198112 
L 216.680723 210.912038 
L 219.927272 210.912038 
L 219.927272 210.426649 
L 223.173822 210.426649 
L 223.173822 209.834179 
L 226.420358 209.834179 
L 226.420358 216.979462 
L 229.666907 216.979462 
L 229.666907 225.438163 
L 232.913456 225.438163 
L 232.913456 211.518777 
L 236.160006 211.518777 
L 236.160006 205.158697 
L 239.406542 205.158697 
L 239.406542 206.950365 
L 242.653091 206.950365 
L 242.653091 191.567654 
L 245.89964 191.567654 
L 245.89964 202.88876 
L 249.146177 202.88876 
L 249.146177 217.507678 
L 252.392726 217.507678 
L 252.392726 206.393584 
L 255.639275 206.393584 
L 255.639275 208.784861 
L 258.885824 208.784861 
L 258.885824 196.657152 
L 262.132361 196.657152 
L 262.132361 204.430599 
L 265.37891 204.430599 
L 265.37891 201.482541 
L 268.625459 201.482541 
L 268.625459 210.305291 
L 271.871995 210.305291 
L 271.871995 211.12618 
L 275.118545 211.12618 
L 275.118545 207.085985 
L 278.365094 207.085985 
L 278.365094 194.194483 
L 281.61163 194.194483 
L 281.61163 204.466304 
L 284.858179 204.466304 
L 284.858179 201.339782 
L 288.104729 201.339782 
L 288.104729 214.86658 
L 291.351278 214.86658 
L 291.351278 203.688233 
L 294.597827 203.688233 
L 294.597827 211.033388 
L 297.844376 211.033388 
L 297.844376 210.198219 
L 301.0909 210.198219 
L 301.0909 215.915882 
L 304.337449 215.915882 
L 304.337449 217.957389 
L 307.583998 217.957389 
L 307.583998 212.817917 
L 310.830547 212.817917 
L 310.830547 220.662749 
L 314.077096 220.662749 
L 314.077096 221.969028 
L 317.323646 221.969028 
L 317.323646 218.471327 
L 320.570169 218.471327 
L 320.570169 230.691854 
L 323.816718 230.691854 
L 323.816718 237.001973 
L 327.063267 237.001973 
L 327.063267 241.648916 
L 330.309817 241.648916 
L 330.309817 238.25829 
L 333.556366 238.25829 
L 333.556366 252.684492 
L 336.802915 252.684492 
L 336.802915 256.12508 
L 340.049464 256.12508 
L 340.049464 256.724679 
L 343.295988 256.724679 
L 343.295988 262.670763 
L 346.542537 262.670763 
L 346.542537 270.044474 
L 349.789086 270.044474 
L 349.789086 276.497358 
L 353.035635 276.497358 
L 353.035635 277.03272 
L 356.282185 277.03272 
L 356.282185 280.087848 
L 359.528734 280.087848 
L 359.528734 285.919714 
L 362.775283 285.919714 
L 362.775283 294.585429 
L 366.021806 294.585429 
L 366.021806 296.362828 
L 369.268356 296.362828 
L 369.268356 299.782003 
L 372.514905 299.782003 
L 372.514905 298.340097 
L 375.761454 298.340097 
L 375.761454 303.179762 
L 379.008003 303.179762 
L 379.008003 305.956502 
L 382.254552 305.956502 
L 382.254552 305.485384 
L 385.501102 305.485384 
L 385.501102 306.898738 
L 388.747625 306.898738 
L 388.747625 307.584 
L 391.994174 307.584 
L 391.994174 306.984395 
L 395.240723 306.984395 
L 395.240723 307.584 
L 398.487273 307.584 
L 398.487273 307.584 
" style="fill:none;stroke:#1f77b4;stroke-linejoin:miter;"/>
   </g>
   <g id="patch_4">
    <path clip-path="url(#p7c042113df)" d="M 73.832727 307.584 
L 73.832727 307.269921 
L 77.079273 307.269921 
L 77.079273 307.584 
L 83.572364 307.584 
L 83.572364 307.31275 
L 86.818909 307.31275 
L 86.818909 306.841633 
L 90.065454 306.841633 
L 90.065454 306.613212 
L 93.312 306.613212 
L 93.312 306.834494 
L 96.558546 306.834494 
L 96.558546 306.399067 
L 99.80509 306.399067 
L 99.80509 306.120679 
L 103.051636 306.120679 
L 103.051636 305.799463 
L 106.298182 305.799463 
L 106.298182 305.506798 
L 109.544728 305.506798 
L 109.544728 303.079827 
L 112.791274 303.079827 
L 112.791274 304.350418 
L 116.037817 304.350418 
L 116.037817 302.60871 
L 119.284363 302.60871 
L 119.284363 299.974732 
L 122.530909 299.974732 
L 122.530909 300.824172 
L 125.777455 300.824172 
L 125.777455 298.061708 
L 129.023998 298.061708 
L 129.023998 299.98187 
L 132.270547 299.98187 
L 132.270547 294.249937 
L 135.51709 294.249937 
L 135.51709 291.294739 
L 138.763639 291.294739 
L 138.763639 294.54974 
L 142.010182 294.54974 
L 142.010182 290.816483 
L 145.256724 290.816483 
L 145.256724 285.834056 
L 148.503274 285.834056 
L 148.503274 282.77179 
L 151.749816 282.77179 
L 151.749816 275.712158 
L 154.996366 275.712158 
L 154.996366 272.949696 
L 158.242908 272.949696 
L 158.242908 268.367003 
L 161.489458 268.367003 
L 161.489458 269.359208 
L 164.736 269.359208 
L 164.736 261.371623 
L 167.982543 261.371623 
L 167.982543 262.599383 
L 171.229092 262.599383 
L 171.229092 252.19909 
L 174.475635 252.19909 
L 174.475635 251.713696 
L 177.722184 251.713696 
L 177.722184 236.288159 
L 180.968727 236.288159 
L 180.968727 230.26357 
L 184.21527 230.26357 
L 184.21527 231.91248 
L 187.461819 231.91248 
L 187.461819 228.414779 
L 190.708368 228.414779 
L 190.708368 217.186474 
L 193.954905 217.186474 
L 193.954905 217.386329 
L 197.201454 217.386329 
L 197.201454 211.654405 
L 200.448003 211.654405 
L 200.448003 212.396772 
L 203.694539 212.396772 
L 203.694539 198.127607 
L 206.941088 198.127607 
L 206.941088 183.637178 
L 210.187638 183.637178 
L 210.187638 186.92785 
L 213.434187 186.92785 
L 213.434187 196.107509 
L 216.680723 196.107509 
L 216.680723 184.907752 
L 219.927272 184.907752 
L 219.927272 178.376356 
L 223.173822 178.376356 
L 223.173822 175.007153 
L 226.420358 175.007153 
L 226.420358 156.505034 
L 229.666907 156.505034 
L 229.666907 163.443339 
L 232.913456 163.443339 
L 232.913456 146.283238 
L 236.160006 146.283238 
L 236.160006 148.517478 
L 239.406542 148.517478 
L 239.406542 151.915213 
L 242.653091 151.915213 
L 242.653091 146.347465 
L 245.89964 146.347465 
L 245.89964 142.514298 
L 249.146177 142.514298 
L 249.146177 131.414456 
L 252.392726 131.414456 
L 252.392726 126.69618 
L 255.639275 126.69618 
L 255.639275 131.321655 
L 258.885824 131.321655 
L 258.885824 119.13684 
L 262.132361 119.13684 
L 262.132361 132.064047 
L 265.37891 132.064047 
L 265.37891 114.953878 
L 268.625459 114.953878 
L 268.625459 118.030425 
L 271.871995 118.030425 
L 271.871995 124.083588 
L 275.118545 124.083588 
L 275.118545 78.278077 
L 278.365094 78.278077 
L 278.365094 123.23415 
L 281.61163 123.23415 
L 281.61163 114.732605 
L 284.858179 114.732605 
L 284.858179 106.009753 
L 288.104729 106.009753 
L 288.104729 104.846292 
L 291.351278 104.846292 
L 291.351278 90.12026 
L 294.597827 90.12026 
L 294.597827 99.157186 
L 297.844376 99.157186 
L 297.844376 93.68224 
L 301.0909 93.68224 
L 301.0909 93.867808 
L 304.337449 93.867808 
L 304.337449 107.672942 
L 307.583998 107.672942 
L 307.583998 103.632797 
L 310.830547 103.632797 
L 310.830547 75.222956 
L 314.077096 75.222956 
L 314.077096 99.399834 
L 317.323646 99.399834 
L 317.323646 101.184415 
L 320.570169 101.184415 
L 320.570169 107.787203 
L 323.816718 107.787203 
L 323.816718 121.328262 
L 327.063267 121.328262 
L 327.063267 108.679442 
L 330.309817 108.679442 
L 330.309817 124.254895 
L 333.556366 124.254895 
L 333.556366 129.073153 
L 336.802915 129.073153 
L 336.802915 127.324294 
L 340.049464 127.324294 
L 340.049464 149.366899 
L 343.295988 149.366899 
L 343.295988 149.102807 
L 346.542537 149.102807 
L 346.542537 167.040963 
L 349.789086 167.040963 
L 349.789086 162.5011 
L 353.035635 162.5011 
L 353.035635 183.837033 
L 356.282185 183.837033 
L 356.282185 192.310021 
L 359.528734 192.310021 
L 359.528734 207.985397 
L 362.775283 207.985397 
L 362.775283 218.499892 
L 366.021806 218.499892 
L 366.021806 230.677576 
L 369.268356 230.677576 
L 369.268356 254.747413 
L 372.514905 254.747413 
L 372.514905 262.11399 
L 375.761454 262.11399 
L 375.761454 270.451345 
L 379.008003 270.451345 
L 379.008003 286.02679 
L 382.254552 286.02679 
L 382.254552 292.579608 
L 385.501102 292.579608 
L 385.501102 299.810554 
L 388.747625 299.810554 
L 388.747625 304.329003 
L 391.994174 304.329003 
L 391.994174 307.112882 
L 395.240723 307.112882 
L 395.240723 306.320548 
L 398.487273 306.320548 
L 398.487273 307.584 
L 398.487273 307.584 
" style="fill:none;stroke:#ff7f0e;stroke-linejoin:miter;"/>
   </g>
   <g id="patch_5">
    <path clip-path="url(#p7c042113df)" d="M 73.832727 307.584 
L 73.832727 307.369855 
L 77.079273 307.369855 
L 77.079273 306.977257 
L 93.312 306.898738 
L 93.312 306.070712 
L 99.80509 306.15637 
L 99.80509 305.135615 
L 103.051636 305.135615 
L 103.051636 304.357556 
L 106.298182 304.357556 
L 106.298182 302.101901 
L 109.544728 302.101901 
L 109.544728 300.809895 
L 112.791274 300.809895 
L 112.791274 296.748289 
L 116.037817 296.748289 
L 116.037817 287.825602 
L 119.284363 287.825602 
L 119.284363 282.536232 
L 122.530909 282.536232 
L 122.530909 274.370189 
L 125.777455 274.370189 
L 125.777455 254.333407 
L 129.023998 254.333407 
L 129.023998 248.622883 
L 132.270547 248.622883 
L 132.270547 229.32847 
L 135.51709 229.32847 
L 135.51709 214.409739 
L 138.763639 214.409739 
L 138.763639 204.923128 
L 142.010182 204.923128 
L 142.010182 193.559187 
L 145.256724 193.559187 
L 145.256724 188.519672 
L 148.503274 188.519672 
L 148.503274 186.171205 
L 151.749816 186.171205 
L 151.749816 174.13628 
L 154.996366 174.13628 
L 154.996366 162.236992 
L 158.242908 162.236992 
L 158.242908 169.118166 
L 161.489458 169.118166 
L 161.489458 165.427741 
L 164.736 165.427741 
L 164.736 160.288269 
L 167.982543 160.288269 
L 167.982543 153.913918 
L 171.229092 153.913918 
L 171.229092 176.848787 
L 174.475635 176.848787 
L 174.475635 169.646399 
L 177.722184 169.646399 
L 177.722184 180.132338 
L 180.968727 180.132338 
L 180.968727 169.782019 
L 184.21527 169.782019 
L 184.21527 170.096093 
L 187.461819 170.096093 
L 187.461819 181.838353 
L 190.708368 181.838353 
L 190.708368 189.726003 
L 193.954905 189.726003 
L 193.954905 176.013619 
L 197.201454 176.013619 
L 197.201454 195.614981 
L 200.448003 195.614981 
L 200.448003 198.163295 
L 203.694539 198.163295 
L 203.694539 190.004389 
L 206.941088 190.004389 
L 206.941088 194.779812 
L 210.187638 194.779812 
L 210.187638 197.72074 
L 213.434187 197.72074 
L 213.434187 208.99902 
L 219.927272 208.927628 
L 219.927272 210.662191 
L 223.173822 210.662191 
L 223.173822 215.237759 
L 226.420358 215.237759 
L 226.420358 216.351314 
L 229.666907 216.351314 
L 229.666907 220.391493 
L 232.913456 220.391493 
L 232.913456 224.710075 
L 236.160006 224.710075 
L 236.160006 226.944323 
L 239.406542 226.944323 
L 239.406542 225.666584 
L 242.653091 225.666584 
L 242.653091 229.728206 
L 245.89964 229.728206 
L 245.89964 219.363609 
L 249.146177 219.363609 
L 249.146177 234.682075 
L 252.392726 234.682075 
L 252.392726 226.980011 
L 255.639275 226.980011 
L 255.639275 229.021526 
L 258.885824 229.021526 
L 258.885824 236.823523 
L 262.132361 236.823523 
L 262.132361 247.894791 
L 265.37891 247.894791 
L 265.37891 237.601577 
L 268.625459 237.601577 
L 268.625459 235.56007 
L 271.871995 235.56007 
L 271.871995 249.572253 
L 275.118545 249.572253 
L 275.118545 244.161534 
L 278.365094 244.161534 
L 278.365094 252.349001 
L 281.61163 252.349001 
L 281.61163 253.712385 
L 284.858179 253.712385 
L 284.858179 254.012189 
L 288.104729 254.012189 
L 288.104729 262.271027 
L 291.351278 262.271027 
L 291.351278 264.683721 
L 294.597827 264.683721 
L 294.597827 257.659779 
L 297.844376 257.659779 
L 297.844376 267.424768 
L 301.0909 267.424768 
L 301.0909 265.426088 
L 304.337449 265.426088 
L 304.337449 266.211286 
L 307.583998 266.211286 
L 307.583998 272.528546 
L 310.830547 272.528546 
L 310.830547 268.873815 
L 314.077096 268.873815 
L 314.077096 272.571375 
L 317.323646 272.571375 
L 317.323646 276.447388 
L 320.570169 276.447388 
L 320.570169 281.41554 
L 323.816718 281.41554 
L 323.816718 281.88666 
L 327.063267 281.88666 
L 327.063267 289.867114 
L 330.309817 289.867114 
L 330.309817 286.712049 
L 333.556366 286.712049 
L 333.556366 291.002079 
L 336.802915 291.002079 
L 336.802915 293.521844 
L 340.049464 293.521844 
L 340.049464 294.521186 
L 343.295988 294.521186 
L 343.295988 293.971548 
L 346.542537 293.971548 
L 346.542537 296.712597 
L 349.789086 296.712597 
L 349.789086 297.355032 
L 353.035635 297.355032 
L 353.035635 298.440031 
L 356.282185 298.440031 
L 356.282185 300.938383 
L 359.528734 300.938383 
L 359.528734 301.959138 
L 366.021806 302.051933 
L 366.021806 303.993511 
L 369.268356 303.993511 
L 369.268356 302.979894 
L 372.514905 302.979894 
L 372.514905 306.192061 
L 375.761454 306.192061 
L 375.761454 306.763113 
L 379.008003 306.763113 
L 379.008003 306.563245 
L 382.254552 306.563245 
L 382.254552 305.699529 
L 385.501102 305.699529 
L 385.501102 306.484725 
L 388.747625 306.484725 
L 388.747625 307.584 
L 398.487273 307.584 
L 398.487273 307.584 
" style="fill:none;stroke:#2ca02c;stroke-linejoin:miter;"/>
   </g>
   <g id="patch_6">
    <path clip-path="url(#p7c042113df)" d="M 73.832727 307.584 
L 73.832727 306.991534 
L 77.079273 306.991534 
L 77.079273 306.656041 
L 80.325818 306.656041 
L 80.325818 307.098606 
L 83.572364 307.098606 
L 83.572364 307.441237 
L 86.818909 307.441237 
L 86.818909 306.713146 
L 90.065454 306.713146 
L 90.065454 306.106403 
L 93.312 306.106403 
L 93.312 306.391929 
L 96.558546 306.391929 
L 96.558546 305.835153 
L 99.80509 305.835153 
L 99.80509 305.271239 
L 106.298182 305.349759 
L 106.298182 300.738514 
L 109.544728 300.738514 
L 109.544728 295.192171 
L 112.791274 295.192171 
L 112.791274 289.938494 
L 116.037817 289.938494 
L 116.037817 282.207875 
L 119.284363 282.207875 
L 119.284363 268.281346 
L 122.530909 268.281346 
L 122.530909 256.403466 
L 125.777455 256.403466 
L 125.777455 237.672965 
L 129.023998 237.672965 
L 129.023998 222.297389 
L 132.270547 222.297389 
L 132.270547 209.59862 
L 135.51709 209.59862 
L 135.51709 186.870754 
L 138.763639 186.870754 
L 138.763639 177.819583 
L 142.010182 177.819583 
L 142.010182 174.214811 
L 145.256724 174.214811 
L 145.256724 164.399857 
L 148.503274 164.399857 
L 148.503274 155.198788 
L 151.749816 155.198788 
L 151.749816 162.008571 
L 154.996366 162.008571 
L 154.996366 165.356366 
L 158.242908 165.356366 
L 158.242908 157.16892 
L 161.489458 157.16892 
L 161.489458 157.468716 
L 164.736 157.468716 
L 164.736 170.502968 
L 167.982543 170.502968 
L 167.982543 174.536016 
L 171.229092 174.536016 
L 171.229092 163.229214 
L 174.475635 163.229214 
L 174.475635 172.36602 
L 177.722184 172.36602 
L 177.722184 155.041743 
L 180.968727 155.041743 
L 180.968727 172.887114 
L 184.21527 172.887114 
L 184.21527 167.761921 
L 187.461819 167.761921 
L 187.461819 179.796846 
L 190.708368 179.796846 
L 190.708368 187.249072 
L 193.954905 187.249072 
L 193.954905 200.447509 
L 197.201454 200.447509 
L 197.201454 193.880417 
L 200.448003 193.880417 
L 200.448003 203.902375 
L 203.694539 203.902375 
L 203.694539 193.395027 
L 206.941088 193.395027 
L 206.941088 198.213261 
L 210.187638 198.213261 
L 210.187638 211.276078 
L 213.434187 211.276078 
L 213.434187 198.149025 
L 216.680723 198.149025 
L 216.680723 210.205359 
L 219.927272 210.205359 
L 219.927272 220.734132 
L 223.173822 220.734132 
L 223.173822 201.996479 
L 226.420358 201.996479 
L 226.420358 207.885457 
L 229.666907 207.885457 
L 229.666907 219.135188 
L 232.913456 219.135188 
L 232.913456 220.548547 
L 236.160006 220.548547 
L 236.160006 211.226112 
L 239.406542 211.226112 
L 239.406542 220.812646 
L 242.653091 220.812646 
L 242.653091 219.527785 
L 245.89964 219.527785 
L 245.89964 234.989019 
L 249.146177 234.989019 
L 249.146177 235.802769 
L 252.392726 235.802769 
L 252.392726 233.754114 
L 255.639275 233.754114 
L 255.639275 230.227874 
L 258.885824 230.227874 
L 258.885824 231.448491 
L 262.132361 231.448491 
L 262.132361 239.264765 
L 265.37891 239.264765 
L 265.37891 244.889627 
L 268.625459 244.889627 
L 268.625459 243.140785 
L 271.871995 243.140785 
L 271.871995 248.116076 
L 275.118545 248.116076 
L 275.118545 249.022624 
L 278.365094 249.022624 
L 278.365094 248.137494 
L 281.61163 248.137494 
L 281.61163 252.191964 
L 284.858179 252.191964 
L 284.858179 259.144518 
L 288.104729 259.144518 
L 288.104729 255.375569 
L 291.351278 255.375569 
L 291.351278 265.226216 
L 294.597827 265.226216 
L 294.597827 264.655173 
L 297.844376 264.655173 
L 297.844376 270.201511 
L 301.0909 270.201511 
L 301.0909 261.421584 
L 304.337449 261.421584 
L 304.337449 264.883585 
L 307.583998 264.883585 
L 307.583998 271.029532 
L 310.830547 271.029532 
L 310.830547 272.214468 
L 314.077096 272.214468 
L 314.077096 280.580379 
L 317.323646 280.580379 
L 317.323646 273.170981 
L 320.570169 273.170981 
L 320.570169 272.999664 
L 323.816718 272.999664 
L 323.816718 282.671856 
L 327.063267 282.671856 
L 327.063267 286.704914 
L 330.309817 286.704914 
L 330.309817 290.623756 
L 333.556366 290.623756 
L 333.556366 292.486813 
L 336.802915 292.486813 
L 336.802915 291.894347 
L 340.049464 291.894347 
L 340.049464 292.979345 
L 343.295988 292.979345 
L 343.295988 298.054571 
L 346.542537 298.054571 
L 346.542537 297.026676 
L 349.789086 297.026676 
L 349.789086 298.268715 
L 353.035635 298.268715 
L 353.035635 297.190855 
L 356.282185 297.190855 
L 356.282185 301.095421 
L 359.528734 301.095421 
L 359.528734 303.872162 
L 362.775283 303.872162 
L 362.775283 303.201176 
L 366.021806 303.201176 
L 366.021806 305.299792 
L 369.268356 305.299792 
L 369.268356 304.964299 
L 372.514905 304.964299 
L 372.514905 305.392588 
L 375.761454 305.392588 
L 375.761454 304.864365 
L 379.008003 304.864365 
L 379.008003 307.584 
L 382.254552 307.584 
L 382.254552 306.920152 
L 385.501102 306.920152 
L 385.501102 307.584 
L 388.747625 307.584 
L 388.747625 307.00581 
L 391.994174 307.00581 
L 391.994174 307.584 
L 398.487273 307.584 
L 398.487273 307.584 
" style="fill:none;stroke:#d62728;stroke-linejoin:miter;"/>
   </g>
   <g id="patch_7">
    <path clip-path="url(#p7c042113df)" d="M 73.832727 307.584 
L 90.065454 307.584 
L 90.065454 307.327027 
L 93.312 307.327027 
L 93.312 307.584 
L 99.80509 307.584 
L 99.80509 307.177125 
L 103.051636 307.177125 
L 103.051636 306.998672 
L 106.298182 306.998672 
L 106.298182 305.949364 
L 112.791274 306.020745 
L 112.791274 304.043478 
L 116.037817 304.043478 
L 116.037817 302.658677 
L 119.284363 302.658677 
L 119.284363 301.844928 
L 122.530909 301.844928 
L 122.530909 294.999443 
L 125.777455 294.999443 
L 125.777455 284.492083 
L 129.023998 284.492083 
L 129.023998 276.668672 
L 132.270547 276.668672 
L 132.270547 265.954309 
L 135.51709 265.954309 
L 135.51709 256.132215 
L 138.763639 256.132215 
L 138.763639 249.579392 
L 142.010182 249.579392 
L 142.010182 246.467162 
L 145.256724 246.467162 
L 145.256724 233.789819 
L 148.503274 233.789819 
L 148.503274 221.205243 
L 151.749816 221.205243 
L 151.749816 228.015043 
L 154.996366 228.015043 
L 154.996366 210.291021 
L 158.242908 210.291021 
L 158.242908 218.699764 
L 161.489458 218.699764 
L 161.489458 201.325512 
L 164.736 201.325512 
L 164.736 203.681093 
L 167.982543 203.681093 
L 167.982543 205.387092 
L 171.229092 205.387092 
L 171.229092 189.63321 
L 174.475635 189.63321 
L 174.475635 182.780584 
L 177.722184 182.780584 
L 177.722184 173.643768 
L 180.968727 173.643768 
L 180.968727 192.6598 
L 184.21527 192.6598 
L 184.21527 191.481984 
L 187.461819 191.481984 
L 187.461819 171.359554 
L 190.708368 171.359554 
L 190.708368 186.599498 
L 193.954905 186.599498 
L 193.954905 184.350988 
L 197.201454 184.350988 
L 197.201454 173.244015 
L 200.448003 173.244015 
L 200.448003 159.053382 
L 203.694539 159.053382 
L 203.694539 162.008571 
L 206.941088 162.008571 
L 206.941088 144.156043 
L 210.187638 144.156043 
L 210.187638 166.527034 
L 213.434187 166.527034 
L 213.434187 150.701752 
L 216.680723 150.701752 
L 216.680723 147.546648 
L 219.927272 147.546648 
L 219.927272 127.988147 
L 223.173822 127.988147 
L 223.173822 123.897985 
L 226.420358 123.897985 
L 226.420358 120.785751 
L 229.666907 120.785751 
L 229.666907 109.314755 
L 232.913456 109.314755 
L 232.913456 97.515373 
L 236.160006 97.515373 
L 236.160006 84.709541 
L 239.406542 84.709541 
L 239.406542 75.75832 
L 242.653091 75.75832 
L 242.653091 54.144 
L 245.89964 54.144 
L 245.89964 69.126975 
L 249.146177 69.126975 
L 249.146177 67.428099 
L 252.392726 67.428099 
L 252.392726 70.354714 
L 255.639275 70.354714 
L 255.639275 57.991463 
L 258.885824 57.991463 
L 258.885824 56.949291 
L 262.132361 56.949291 
L 262.132361 62.217227 
L 265.37891 62.217227 
L 265.37891 58.962225 
L 268.625459 58.962225 
L 268.625459 65.04391 
L 271.871995 65.04391 
L 271.871995 78.370844 
L 275.118545 78.370844 
L 275.118545 74.594825 
L 278.365094 74.594825 
L 278.365094 79.027583 
L 281.61163 79.027583 
L 281.61163 103.911184 
L 284.858179 103.911184 
L 284.858179 109.693073 
L 288.104729 109.693073 
L 288.104729 131.514405 
L 291.351278 131.514405 
L 291.351278 127.317181 
L 294.597827 127.317181 
L 294.597827 158.368103 
L 297.844376 158.368103 
L 297.844376 164.435527 
L 301.0909 164.435527 
L 301.0909 179.946744 
L 304.337449 179.946744 
L 304.337449 200.968595 
L 307.583998 200.968595 
L 307.583998 203.888096 
L 310.830547 203.888096 
L 310.830547 221.298044 
L 314.077096 221.298044 
L 314.077096 237.473088 
L 317.323646 237.473088 
L 317.323646 232.476384 
L 320.570169 232.476384 
L 320.570169 239.957175 
L 323.816718 239.957175 
L 323.816718 260.814841 
L 327.063267 260.814841 
L 327.063267 261.550073 
L 330.309817 261.550073 
L 330.309817 247.316608 
L 333.556366 247.316608 
L 333.556366 269.844606 
L 336.802915 269.844606 
L 336.802915 275.005485 
L 340.049464 275.005485 
L 340.049464 282.20074 
L 343.295988 282.20074 
L 343.295988 283.899616 
L 346.542537 283.899616 
L 346.542537 292.429705 
L 349.789086 292.429705 
L 349.789086 288.55369 
L 353.035635 288.55369 
L 353.035635 296.841085 
L 356.282185 296.841085 
L 356.282185 299.90335 
L 359.528734 299.90335 
L 359.528734 301.288152 
L 366.021806 301.2596 
L 366.021806 303.186899 
L 369.268356 303.186899 
L 369.268356 303.872162 
L 372.514905 303.872162 
L 372.514905 307.584 
L 375.761454 307.584 
L 375.761454 306.663179 
L 379.008003 306.663179 
L 379.008003 307.584 
L 385.501102 307.584 
L 385.501102 307.084329 
L 388.747625 307.084329 
L 388.747625 307.584 
L 398.487273 307.584 
L 398.487273 307.584 
" style="fill:none;stroke:#9467bd;stroke-linejoin:miter;"/>
   </g>
   <g id="patch_8">
    <path clip-path="url(#p7c042113df)" d="M 73.832727 307.584 
L 398.487273 307.584 
L 398.487273 307.584 
" style="fill:none;stroke:#000000;stroke-linejoin:miter;"/>
   </g>
   <g id="matplotlib.axis_1">
    <g id="xtick_1">
     <g id="line2d_1">
      <defs>
       <path d="M 0 0 
L 0 3.5 
" id="m8455b9f4af" style="stroke:#000000;stroke-width:0.8;"/>
      </defs>
      <g>
       <use style="stroke:#000000;stroke-width:0.8;" x="73.287242" xlink:href="#m8455b9f4af" y="307.584"/>
      </g>
     </g>
     <g id="text_1">
      <!-- 0.000 -->
      <defs>
       <path d="M 31.78125 66.40625 
Q 24.171875 66.40625 20.328125 58.90625 
Q 16.5 51.421875 16.5 36.375 
Q 16.5 21.390625 20.328125 13.890625 
Q 24.171875 6.390625 31.78125 6.390625 
Q 39.453125 6.390625 43.28125 13.890625 
Q 47.125 21.390625 47.125 36.375 
Q 47.125 51.421875 43.28125 58.90625 
Q 39.453125 66.40625 31.78125 66.40625 
z
M 31.78125 74.21875 
Q 44.046875 74.21875 50.515625 64.515625 
Q 56.984375 54.828125 56.984375 36.375 
Q 56.984375 17.96875 50.515625 8.265625 
Q 44.046875 -1.421875 31.78125 -1.421875 
Q 19.53125 -1.421875 13.0625 8.265625 
Q 6.59375 17.96875 6.59375 36.375 
Q 6.59375 54.828125 13.0625 64.515625 
Q 19.53125 74.21875 31.78125 74.21875 
z
" id="DejaVuSans-48"/>
       <path d="M 10.6875 12.40625 
L 21 12.40625 
L 21 0 
L 10.6875 0 
z
" id="DejaVuSans-46"/>
      </defs>
      <g transform="translate(58.97318 322.182437)scale(0.1 -0.1)">
       <use xlink:href="#DejaVuSans-48"/>
       <use x="63.623047" xlink:href="#DejaVuSans-46"/>
       <use x="95.410156" xlink:href="#DejaVuSans-48"/>
       <use x="159.033203" xlink:href="#DejaVuSans-48"/>
       <use x="222.65625" xlink:href="#DejaVuSans-48"/>
      </g>
     </g>
    </g>
    <g id="xtick_2">
     <g id="line2d_2">
      <g>
       <use style="stroke:#000000;stroke-width:0.8;" x="116.758054" xlink:href="#m8455b9f4af" y="307.584"/>
      </g>
     </g>
     <g id="text_2">
      <!-- 0.025 -->
      <defs>
       <path d="M 19.1875 8.296875 
L 53.609375 8.296875 
L 53.609375 0 
L 7.328125 0 
L 7.328125 8.296875 
Q 12.9375 14.109375 22.625 23.890625 
Q 32.328125 33.6875 34.8125 36.53125 
Q 39.546875 41.84375 41.421875 45.53125 
Q 43.3125 49.21875 43.3125 52.78125 
Q 43.3125 58.59375 39.234375 62.25 
Q 35.15625 65.921875 28.609375 65.921875 
Q 23.96875 65.921875 18.8125 64.3125 
Q 13.671875 62.703125 7.8125 59.421875 
L 7.8125 69.390625 
Q 13.765625 71.78125 18.9375 73 
Q 24.125 74.21875 28.421875 74.21875 
Q 39.75 74.21875 46.484375 68.546875 
Q 53.21875 62.890625 53.21875 53.421875 
Q 53.21875 48.921875 51.53125 44.890625 
Q 49.859375 40.875 45.40625 35.40625 
Q 44.1875 33.984375 37.640625 27.21875 
Q 31.109375 20.453125 19.1875 8.296875 
z
" id="DejaVuSans-50"/>
       <path d="M 10.796875 72.90625 
L 49.515625 72.90625 
L 49.515625 64.59375 
L 19.828125 64.59375 
L 19.828125 46.734375 
Q 21.96875 47.46875 24.109375 47.828125 
Q 26.265625 48.1875 28.421875 48.1875 
Q 40.625 48.1875 47.75 41.5 
Q 54.890625 34.8125 54.890625 23.390625 
Q 54.890625 11.625 47.5625 5.09375 
Q 40.234375 -1.421875 26.90625 -1.421875 
Q 22.3125 -1.421875 17.546875 -0.640625 
Q 12.796875 0.140625 7.71875 1.703125 
L 7.71875 11.625 
Q 12.109375 9.234375 16.796875 8.0625 
Q 21.484375 6.890625 26.703125 6.890625 
Q 35.15625 6.890625 40.078125 11.328125 
Q 45.015625 15.765625 45.015625 23.390625 
Q 45.015625 31 40.078125 35.4375 
Q 35.15625 39.890625 26.703125 39.890625 
Q 22.75 39.890625 18.8125 39.015625 
Q 14.890625 38.140625 10.796875 36.28125 
z
" id="DejaVuSans-53"/>
      </defs>
      <g transform="translate(102.443991 322.182437)scale(0.1 -0.1)">
       <use xlink:href="#DejaVuSans-48"/>
       <use x="63.623047" xlink:href="#DejaVuSans-46"/>
       <use x="95.410156" xlink:href="#DejaVuSans-48"/>
       <use x="159.033203" xlink:href="#DejaVuSans-50"/>
       <use x="222.65625" xlink:href="#DejaVuSans-53"/>
      </g>
     </g>
    </g>
    <g id="xtick_3">
     <g id="line2d_3">
      <g>
       <use style="stroke:#000000;stroke-width:0.8;" x="160.228866" xlink:href="#m8455b9f4af" y="307.584"/>
      </g>
     </g>
     <g id="text_3">
      <!-- 0.050 -->
      <g transform="translate(145.914803 322.182437)scale(0.1 -0.1)">
       <use xlink:href="#DejaVuSans-48"/>
       <use x="63.623047" xlink:href="#DejaVuSans-46"/>
       <use x="95.410156" xlink:href="#DejaVuSans-48"/>
       <use x="159.033203" xlink:href="#DejaVuSans-53"/>
       <use x="222.65625" xlink:href="#DejaVuSans-48"/>
      </g>
     </g>
    </g>
    <g id="xtick_4">
     <g id="line2d_4">
      <g>
       <use style="stroke:#000000;stroke-width:0.8;" x="203.699677" xlink:href="#m8455b9f4af" y="307.584"/>
      </g>
     </g>
     <g id="text_4">
      <!-- 0.075 -->
      <defs>
       <path d="M 8.203125 72.90625 
L 55.078125 72.90625 
L 55.078125 68.703125 
L 28.609375 0 
L 18.3125 0 
L 43.21875 64.59375 
L 8.203125 64.59375 
z
" id="DejaVuSans-55"/>
      </defs>
      <g transform="translate(189.385615 322.182437)scale(0.1 -0.1)">
       <use xlink:href="#DejaVuSans-48"/>
       <use x="63.623047" xlink:href="#DejaVuSans-46"/>
       <use x="95.410156" xlink:href="#DejaVuSans-48"/>
       <use x="159.033203" xlink:href="#DejaVuSans-55"/>
       <use x="222.65625" xlink:href="#DejaVuSans-53"/>
      </g>
     </g>
    </g>
    <g id="xtick_5">
     <g id="line2d_5">
      <g>
       <use style="stroke:#000000;stroke-width:0.8;" x="247.170489" xlink:href="#m8455b9f4af" y="307.584"/>
      </g>
     </g>
     <g id="text_5">
      <!-- 0.100 -->
      <defs>
       <path d="M 12.40625 8.296875 
L 28.515625 8.296875 
L 28.515625 63.921875 
L 10.984375 60.40625 
L 10.984375 69.390625 
L 28.421875 72.90625 
L 38.28125 72.90625 
L 38.28125 8.296875 
L 54.390625 8.296875 
L 54.390625 0 
L 12.40625 0 
z
" id="DejaVuSans-49"/>
      </defs>
      <g transform="translate(232.856427 322.182437)scale(0.1 -0.1)">
       <use xlink:href="#DejaVuSans-48"/>
       <use x="63.623047" xlink:href="#DejaVuSans-46"/>
       <use x="95.410156" xlink:href="#DejaVuSans-49"/>
       <use x="159.033203" xlink:href="#DejaVuSans-48"/>
       <use x="222.65625" xlink:href="#DejaVuSans-48"/>
      </g>
     </g>
    </g>
    <g id="xtick_6">
     <g id="line2d_6">
      <g>
       <use style="stroke:#000000;stroke-width:0.8;" x="290.641301" xlink:href="#m8455b9f4af" y="307.584"/>
      </g>
     </g>
     <g id="text_6">
      <!-- 0.125 -->
      <g transform="translate(276.327238 322.182437)scale(0.1 -0.1)">
       <use xlink:href="#DejaVuSans-48"/>
       <use x="63.623047" xlink:href="#DejaVuSans-46"/>
       <use x="95.410156" xlink:href="#DejaVuSans-49"/>
       <use x="159.033203" xlink:href="#DejaVuSans-50"/>
       <use x="222.65625" xlink:href="#DejaVuSans-53"/>
      </g>
     </g>
    </g>
    <g id="xtick_7">
     <g id="line2d_7">
      <g>
       <use style="stroke:#000000;stroke-width:0.8;" x="334.112112" xlink:href="#m8455b9f4af" y="307.584"/>
      </g>
     </g>
     <g id="text_7">
      <!-- 0.150 -->
      <g transform="translate(319.79805 322.182437)scale(0.1 -0.1)">
       <use xlink:href="#DejaVuSans-48"/>
       <use x="63.623047" xlink:href="#DejaVuSans-46"/>
       <use x="95.410156" xlink:href="#DejaVuSans-49"/>
       <use x="159.033203" xlink:href="#DejaVuSans-53"/>
       <use x="222.65625" xlink:href="#DejaVuSans-48"/>
      </g>
     </g>
    </g>
    <g id="xtick_8">
     <g id="line2d_8">
      <g>
       <use style="stroke:#000000;stroke-width:0.8;" x="377.582924" xlink:href="#m8455b9f4af" y="307.584"/>
      </g>
     </g>
     <g id="text_8">
      <!-- 0.175 -->
      <g transform="translate(363.268862 322.182437)scale(0.1 -0.1)">
       <use xlink:href="#DejaVuSans-48"/>
       <use x="63.623047" xlink:href="#DejaVuSans-46"/>
       <use x="95.410156" xlink:href="#DejaVuSans-49"/>
       <use x="159.033203" xlink:href="#DejaVuSans-55"/>
       <use x="222.65625" xlink:href="#DejaVuSans-53"/>
      </g>
     </g>
    </g>
    <g id="text_9">
     <!-- j_m2_b1_mmdt -->
     <defs>
      <path d="M 9.421875 54.6875 
L 18.40625 54.6875 
L 18.40625 -0.984375 
Q 18.40625 -11.421875 14.421875 -16.109375 
Q 10.453125 -20.796875 1.609375 -20.796875 
L -1.8125 -20.796875 
L -1.8125 -13.1875 
L 0.59375 -13.1875 
Q 5.71875 -13.1875 7.5625 -10.8125 
Q 9.421875 -8.453125 9.421875 -0.984375 
z
M 9.421875 75.984375 
L 18.40625 75.984375 
L 18.40625 64.59375 
L 9.421875 64.59375 
z
" id="DejaVuSans-106"/>
      <path d="M 50.984375 -16.609375 
L 50.984375 -23.578125 
L -0.984375 -23.578125 
L -0.984375 -16.609375 
z
" id="DejaVuSans-95"/>
      <path d="M 52 44.1875 
Q 55.375 50.25 60.0625 53.125 
Q 64.75 56 71.09375 56 
Q 79.640625 56 84.28125 50.015625 
Q 88.921875 44.046875 88.921875 33.015625 
L 88.921875 0 
L 79.890625 0 
L 79.890625 32.71875 
Q 79.890625 40.578125 77.09375 44.375 
Q 74.3125 48.1875 68.609375 48.1875 
Q 61.625 48.1875 57.5625 43.546875 
Q 53.515625 38.921875 53.515625 30.90625 
L 53.515625 0 
L 44.484375 0 
L 44.484375 32.71875 
Q 44.484375 40.625 41.703125 44.40625 
Q 38.921875 48.1875 33.109375 48.1875 
Q 26.21875 48.1875 22.15625 43.53125 
Q 18.109375 38.875 18.109375 30.90625 
L 18.109375 0 
L 9.078125 0 
L 9.078125 54.6875 
L 18.109375 54.6875 
L 18.109375 46.1875 
Q 21.1875 51.21875 25.484375 53.609375 
Q 29.78125 56 35.6875 56 
Q 41.65625 56 45.828125 52.96875 
Q 50 49.953125 52 44.1875 
z
" id="DejaVuSans-109"/>
      <path d="M 48.6875 27.296875 
Q 48.6875 37.203125 44.609375 42.84375 
Q 40.53125 48.484375 33.40625 48.484375 
Q 26.265625 48.484375 22.1875 42.84375 
Q 18.109375 37.203125 18.109375 27.296875 
Q 18.109375 17.390625 22.1875 11.75 
Q 26.265625 6.109375 33.40625 6.109375 
Q 40.53125 6.109375 44.609375 11.75 
Q 48.6875 17.390625 48.6875 27.296875 
z
M 18.109375 46.390625 
Q 20.953125 51.265625 25.265625 53.625 
Q 29.59375 56 35.59375 56 
Q 45.5625 56 51.78125 48.09375 
Q 58.015625 40.1875 58.015625 27.296875 
Q 58.015625 14.40625 51.78125 6.484375 
Q 45.5625 -1.421875 35.59375 -1.421875 
Q 29.59375 -1.421875 25.265625 0.953125 
Q 20.953125 3.328125 18.109375 8.203125 
L 18.109375 0 
L 9.078125 0 
L 9.078125 75.984375 
L 18.109375 75.984375 
z
" id="DejaVuSans-98"/>
      <path d="M 45.40625 46.390625 
L 45.40625 75.984375 
L 54.390625 75.984375 
L 54.390625 0 
L 45.40625 0 
L 45.40625 8.203125 
Q 42.578125 3.328125 38.25 0.953125 
Q 33.9375 -1.421875 27.875 -1.421875 
Q 17.96875 -1.421875 11.734375 6.484375 
Q 5.515625 14.40625 5.515625 27.296875 
Q 5.515625 40.1875 11.734375 48.09375 
Q 17.96875 56 27.875 56 
Q 33.9375 56 38.25 53.625 
Q 42.578125 51.265625 45.40625 46.390625 
z
M 14.796875 27.296875 
Q 14.796875 17.390625 18.875 11.75 
Q 22.953125 6.109375 30.078125 6.109375 
Q 37.203125 6.109375 41.296875 11.75 
Q 45.40625 17.390625 45.40625 27.296875 
Q 45.40625 37.203125 41.296875 42.84375 
Q 37.203125 48.484375 30.078125 48.484375 
Q 22.953125 48.484375 18.875 42.84375 
Q 14.796875 37.203125 14.796875 27.296875 
z
" id="DejaVuSans-100"/>
      <path d="M 18.3125 70.21875 
L 18.3125 54.6875 
L 36.8125 54.6875 
L 36.8125 47.703125 
L 18.3125 47.703125 
L 18.3125 18.015625 
Q 18.3125 11.328125 20.140625 9.421875 
Q 21.96875 7.515625 27.59375 7.515625 
L 36.8125 7.515625 
L 36.8125 0 
L 27.59375 0 
Q 17.1875 0 13.234375 3.875 
Q 9.28125 7.765625 9.28125 18.015625 
L 9.28125 47.703125 
L 2.6875 47.703125 
L 2.6875 54.6875 
L 9.28125 54.6875 
L 9.28125 70.21875 
z
" id="DejaVuSans-116"/>
     </defs>
     <g transform="translate(197.988906 335.860562)scale(0.1 -0.1)">
      <use xlink:href="#DejaVuSans-106"/>
      <use x="27.783203" xlink:href="#DejaVuSans-95"/>
      <use x="77.783203" xlink:href="#DejaVuSans-109"/>
      <use x="175.195312" xlink:href="#DejaVuSans-50"/>
      <use x="238.818359" xlink:href="#DejaVuSans-95"/>
      <use x="288.818359" xlink:href="#DejaVuSans-98"/>
      <use x="352.294922" xlink:href="#DejaVuSans-49"/>
      <use x="415.917969" xlink:href="#DejaVuSans-95"/>
      <use x="465.917969" xlink:href="#DejaVuSans-109"/>
      <use x="563.330078" xlink:href="#DejaVuSans-109"/>
      <use x="660.742188" xlink:href="#DejaVuSans-100"/>
      <use x="724.21875" xlink:href="#DejaVuSans-116"/>
     </g>
    </g>
   </g>
   <g id="matplotlib.axis_2">
    <g id="ytick_1">
     <g id="line2d_9">
      <defs>
       <path d="M 0 0 
L -3.5 0 
" id="m4a66bb90e2" style="stroke:#000000;stroke-width:0.8;"/>
      </defs>
      <g>
       <use style="stroke:#000000;stroke-width:0.8;" x="57.6" xlink:href="#m4a66bb90e2" y="307.584"/>
      </g>
     </g>
     <g id="text_10">
      <!-- 0.000 -->
      <g transform="translate(21.971875 311.383219)scale(0.1 -0.1)">
       <use xlink:href="#DejaVuSans-48"/>
       <use x="63.623047" xlink:href="#DejaVuSans-46"/>
       <use x="95.410156" xlink:href="#DejaVuSans-48"/>
       <use x="159.033203" xlink:href="#DejaVuSans-48"/>
       <use x="222.65625" xlink:href="#DejaVuSans-48"/>
      </g>
     </g>
    </g>
    <g id="ytick_2">
     <g id="line2d_10">
      <g>
       <use style="stroke:#000000;stroke-width:0.8;" x="57.6" xlink:href="#m4a66bb90e2" y="271.037324"/>
      </g>
     </g>
     <g id="text_11">
      <!-- 0.001 -->
      <g transform="translate(21.971875 274.836543)scale(0.1 -0.1)">
       <use xlink:href="#DejaVuSans-48"/>
       <use x="63.623047" xlink:href="#DejaVuSans-46"/>
       <use x="95.410156" xlink:href="#DejaVuSans-48"/>
       <use x="159.033203" xlink:href="#DejaVuSans-48"/>
       <use x="222.65625" xlink:href="#DejaVuSans-49"/>
      </g>
     </g>
    </g>
    <g id="ytick_3">
     <g id="line2d_11">
      <g>
       <use style="stroke:#000000;stroke-width:0.8;" x="57.6" xlink:href="#m4a66bb90e2" y="234.490648"/>
      </g>
     </g>
     <g id="text_12">
      <!-- 0.002 -->
      <g transform="translate(21.971875 238.289866)scale(0.1 -0.1)">
       <use xlink:href="#DejaVuSans-48"/>
       <use x="63.623047" xlink:href="#DejaVuSans-46"/>
       <use x="95.410156" xlink:href="#DejaVuSans-48"/>
       <use x="159.033203" xlink:href="#DejaVuSans-48"/>
       <use x="222.65625" xlink:href="#DejaVuSans-50"/>
      </g>
     </g>
    </g>
    <g id="ytick_4">
     <g id="line2d_12">
      <g>
       <use style="stroke:#000000;stroke-width:0.8;" x="57.6" xlink:href="#m4a66bb90e2" y="197.943971"/>
      </g>
     </g>
     <g id="text_13">
      <!-- 0.003 -->
      <defs>
       <path d="M 40.578125 39.3125 
Q 47.65625 37.796875 51.625 33 
Q 55.609375 28.21875 55.609375 21.1875 
Q 55.609375 10.40625 48.1875 4.484375 
Q 40.765625 -1.421875 27.09375 -1.421875 
Q 22.515625 -1.421875 17.65625 -0.515625 
Q 12.796875 0.390625 7.625 2.203125 
L 7.625 11.71875 
Q 11.71875 9.328125 16.59375 8.109375 
Q 21.484375 6.890625 26.8125 6.890625 
Q 36.078125 6.890625 40.9375 10.546875 
Q 45.796875 14.203125 45.796875 21.1875 
Q 45.796875 27.640625 41.28125 31.265625 
Q 36.765625 34.90625 28.71875 34.90625 
L 20.21875 34.90625 
L 20.21875 43.015625 
L 29.109375 43.015625 
Q 36.375 43.015625 40.234375 45.921875 
Q 44.09375 48.828125 44.09375 54.296875 
Q 44.09375 59.90625 40.109375 62.90625 
Q 36.140625 65.921875 28.71875 65.921875 
Q 24.65625 65.921875 20.015625 65.03125 
Q 15.375 64.15625 9.8125 62.3125 
L 9.8125 71.09375 
Q 15.4375 72.65625 20.34375 73.4375 
Q 25.25 74.21875 29.59375 74.21875 
Q 40.828125 74.21875 47.359375 69.109375 
Q 53.90625 64.015625 53.90625 55.328125 
Q 53.90625 49.265625 50.4375 45.09375 
Q 46.96875 40.921875 40.578125 39.3125 
z
" id="DejaVuSans-51"/>
      </defs>
      <g transform="translate(21.971875 201.74319)scale(0.1 -0.1)">
       <use xlink:href="#DejaVuSans-48"/>
       <use x="63.623047" xlink:href="#DejaVuSans-46"/>
       <use x="95.410156" xlink:href="#DejaVuSans-48"/>
       <use x="159.033203" xlink:href="#DejaVuSans-48"/>
       <use x="222.65625" xlink:href="#DejaVuSans-51"/>
      </g>
     </g>
    </g>
    <g id="ytick_5">
     <g id="line2d_13">
      <g>
       <use style="stroke:#000000;stroke-width:0.8;" x="57.6" xlink:href="#m4a66bb90e2" y="161.397295"/>
      </g>
     </g>
     <g id="text_14">
      <!-- 0.004 -->
      <defs>
       <path d="M 37.796875 64.3125 
L 12.890625 25.390625 
L 37.796875 25.390625 
z
M 35.203125 72.90625 
L 47.609375 72.90625 
L 47.609375 25.390625 
L 58.015625 25.390625 
L 58.015625 17.1875 
L 47.609375 17.1875 
L 47.609375 0 
L 37.796875 0 
L 37.796875 17.1875 
L 4.890625 17.1875 
L 4.890625 26.703125 
z
" id="DejaVuSans-52"/>
      </defs>
      <g transform="translate(21.971875 165.196514)scale(0.1 -0.1)">
       <use xlink:href="#DejaVuSans-48"/>
       <use x="63.623047" xlink:href="#DejaVuSans-46"/>
       <use x="95.410156" xlink:href="#DejaVuSans-48"/>
       <use x="159.033203" xlink:href="#DejaVuSans-48"/>
       <use x="222.65625" xlink:href="#DejaVuSans-52"/>
      </g>
     </g>
    </g>
    <g id="ytick_6">
     <g id="line2d_14">
      <g>
       <use style="stroke:#000000;stroke-width:0.8;" x="57.6" xlink:href="#m4a66bb90e2" y="124.850619"/>
      </g>
     </g>
     <g id="text_15">
      <!-- 0.005 -->
      <g transform="translate(21.971875 128.649838)scale(0.1 -0.1)">
       <use xlink:href="#DejaVuSans-48"/>
       <use x="63.623047" xlink:href="#DejaVuSans-46"/>
       <use x="95.410156" xlink:href="#DejaVuSans-48"/>
       <use x="159.033203" xlink:href="#DejaVuSans-48"/>
       <use x="222.65625" xlink:href="#DejaVuSans-53"/>
      </g>
     </g>
    </g>
    <g id="ytick_7">
     <g id="line2d_15">
      <g>
       <use style="stroke:#000000;stroke-width:0.8;" x="57.6" xlink:href="#m4a66bb90e2" y="88.303943"/>
      </g>
     </g>
     <g id="text_16">
      <!-- 0.006 -->
      <defs>
       <path d="M 33.015625 40.375 
Q 26.375 40.375 22.484375 35.828125 
Q 18.609375 31.296875 18.609375 23.390625 
Q 18.609375 15.53125 22.484375 10.953125 
Q 26.375 6.390625 33.015625 6.390625 
Q 39.65625 6.390625 43.53125 10.953125 
Q 47.40625 15.53125 47.40625 23.390625 
Q 47.40625 31.296875 43.53125 35.828125 
Q 39.65625 40.375 33.015625 40.375 
z
M 52.59375 71.296875 
L 52.59375 62.3125 
Q 48.875 64.0625 45.09375 64.984375 
Q 41.3125 65.921875 37.59375 65.921875 
Q 27.828125 65.921875 22.671875 59.328125 
Q 17.53125 52.734375 16.796875 39.40625 
Q 19.671875 43.65625 24.015625 45.921875 
Q 28.375 48.1875 33.59375 48.1875 
Q 44.578125 48.1875 50.953125 41.515625 
Q 57.328125 34.859375 57.328125 23.390625 
Q 57.328125 12.15625 50.6875 5.359375 
Q 44.046875 -1.421875 33.015625 -1.421875 
Q 20.359375 -1.421875 13.671875 8.265625 
Q 6.984375 17.96875 6.984375 36.375 
Q 6.984375 53.65625 15.1875 63.9375 
Q 23.390625 74.21875 37.203125 74.21875 
Q 40.921875 74.21875 44.703125 73.484375 
Q 48.484375 72.75 52.59375 71.296875 
z
" id="DejaVuSans-54"/>
      </defs>
      <g transform="translate(21.971875 92.103161)scale(0.1 -0.1)">
       <use xlink:href="#DejaVuSans-48"/>
       <use x="63.623047" xlink:href="#DejaVuSans-46"/>
       <use x="95.410156" xlink:href="#DejaVuSans-48"/>
       <use x="159.033203" xlink:href="#DejaVuSans-48"/>
       <use x="222.65625" xlink:href="#DejaVuSans-54"/>
      </g>
     </g>
    </g>
    <g id="ytick_8">
     <g id="line2d_16">
      <g>
       <use style="stroke:#000000;stroke-width:0.8;" x="57.6" xlink:href="#m4a66bb90e2" y="51.757266"/>
      </g>
     </g>
     <g id="text_17">
      <!-- 0.007 -->
      <g transform="translate(21.971875 55.556485)scale(0.1 -0.1)">
       <use xlink:href="#DejaVuSans-48"/>
       <use x="63.623047" xlink:href="#DejaVuSans-46"/>
       <use x="95.410156" xlink:href="#DejaVuSans-48"/>
       <use x="159.033203" xlink:href="#DejaVuSans-48"/>
       <use x="222.65625" xlink:href="#DejaVuSans-55"/>
      </g>
     </g>
    </g>
    <g id="text_18">
     <!-- Prob. Density (a.u.) -->
     <defs>
      <path d="M 19.671875 64.796875 
L 19.671875 37.40625 
L 32.078125 37.40625 
Q 38.96875 37.40625 42.71875 40.96875 
Q 46.484375 44.53125 46.484375 51.125 
Q 46.484375 57.671875 42.71875 61.234375 
Q 38.96875 64.796875 32.078125 64.796875 
z
M 9.8125 72.90625 
L 32.078125 72.90625 
Q 44.34375 72.90625 50.609375 67.359375 
Q 56.890625 61.8125 56.890625 51.125 
Q 56.890625 40.328125 50.609375 34.8125 
Q 44.34375 29.296875 32.078125 29.296875 
L 19.671875 29.296875 
L 19.671875 0 
L 9.8125 0 
z
" id="DejaVuSans-80"/>
      <path d="M 41.109375 46.296875 
Q 39.59375 47.171875 37.8125 47.578125 
Q 36.03125 48 33.890625 48 
Q 26.265625 48 22.1875 43.046875 
Q 18.109375 38.09375 18.109375 28.8125 
L 18.109375 0 
L 9.078125 0 
L 9.078125 54.6875 
L 18.109375 54.6875 
L 18.109375 46.1875 
Q 20.953125 51.171875 25.484375 53.578125 
Q 30.03125 56 36.53125 56 
Q 37.453125 56 38.578125 55.875 
Q 39.703125 55.765625 41.0625 55.515625 
z
" id="DejaVuSans-114"/>
      <path d="M 30.609375 48.390625 
Q 23.390625 48.390625 19.1875 42.75 
Q 14.984375 37.109375 14.984375 27.296875 
Q 14.984375 17.484375 19.15625 11.84375 
Q 23.34375 6.203125 30.609375 6.203125 
Q 37.796875 6.203125 41.984375 11.859375 
Q 46.1875 17.53125 46.1875 27.296875 
Q 46.1875 37.015625 41.984375 42.703125 
Q 37.796875 48.390625 30.609375 48.390625 
z
M 30.609375 56 
Q 42.328125 56 49.015625 48.375 
Q 55.71875 40.765625 55.71875 27.296875 
Q 55.71875 13.875 49.015625 6.21875 
Q 42.328125 -1.421875 30.609375 -1.421875 
Q 18.84375 -1.421875 12.171875 6.21875 
Q 5.515625 13.875 5.515625 27.296875 
Q 5.515625 40.765625 12.171875 48.375 
Q 18.84375 56 30.609375 56 
z
" id="DejaVuSans-111"/>
      <path id="DejaVuSans-32"/>
      <path d="M 19.671875 64.796875 
L 19.671875 8.109375 
L 31.59375 8.109375 
Q 46.6875 8.109375 53.6875 14.9375 
Q 60.6875 21.78125 60.6875 36.53125 
Q 60.6875 51.171875 53.6875 57.984375 
Q 46.6875 64.796875 31.59375 64.796875 
z
M 9.8125 72.90625 
L 30.078125 72.90625 
Q 51.265625 72.90625 61.171875 64.09375 
Q 71.09375 55.28125 71.09375 36.53125 
Q 71.09375 17.671875 61.125 8.828125 
Q 51.171875 0 30.078125 0 
L 9.8125 0 
z
" id="DejaVuSans-68"/>
      <path d="M 56.203125 29.59375 
L 56.203125 25.203125 
L 14.890625 25.203125 
Q 15.484375 15.921875 20.484375 11.0625 
Q 25.484375 6.203125 34.421875 6.203125 
Q 39.59375 6.203125 44.453125 7.46875 
Q 49.3125 8.734375 54.109375 11.28125 
L 54.109375 2.78125 
Q 49.265625 0.734375 44.1875 -0.34375 
Q 39.109375 -1.421875 33.890625 -1.421875 
Q 20.796875 -1.421875 13.15625 6.1875 
Q 5.515625 13.8125 5.515625 26.8125 
Q 5.515625 40.234375 12.765625 48.109375 
Q 20.015625 56 32.328125 56 
Q 43.359375 56 49.78125 48.890625 
Q 56.203125 41.796875 56.203125 29.59375 
z
M 47.21875 32.234375 
Q 47.125 39.59375 43.09375 43.984375 
Q 39.0625 48.390625 32.421875 48.390625 
Q 24.90625 48.390625 20.390625 44.140625 
Q 15.875 39.890625 15.1875 32.171875 
z
" id="DejaVuSans-101"/>
      <path d="M 54.890625 33.015625 
L 54.890625 0 
L 45.90625 0 
L 45.90625 32.71875 
Q 45.90625 40.484375 42.875 44.328125 
Q 39.84375 48.1875 33.796875 48.1875 
Q 26.515625 48.1875 22.3125 43.546875 
Q 18.109375 38.921875 18.109375 30.90625 
L 18.109375 0 
L 9.078125 0 
L 9.078125 54.6875 
L 18.109375 54.6875 
L 18.109375 46.1875 
Q 21.34375 51.125 25.703125 53.5625 
Q 30.078125 56 35.796875 56 
Q 45.21875 56 50.046875 50.171875 
Q 54.890625 44.34375 54.890625 33.015625 
z
" id="DejaVuSans-110"/>
      <path d="M 44.28125 53.078125 
L 44.28125 44.578125 
Q 40.484375 46.53125 36.375 47.5 
Q 32.28125 48.484375 27.875 48.484375 
Q 21.1875 48.484375 17.84375 46.4375 
Q 14.5 44.390625 14.5 40.28125 
Q 14.5 37.15625 16.890625 35.375 
Q 19.28125 33.59375 26.515625 31.984375 
L 29.59375 31.296875 
Q 39.15625 29.25 43.1875 25.515625 
Q 47.21875 21.78125 47.21875 15.09375 
Q 47.21875 7.46875 41.1875 3.015625 
Q 35.15625 -1.421875 24.609375 -1.421875 
Q 20.21875 -1.421875 15.453125 -0.5625 
Q 10.6875 0.296875 5.421875 2 
L 5.421875 11.28125 
Q 10.40625 8.6875 15.234375 7.390625 
Q 20.0625 6.109375 24.8125 6.109375 
Q 31.15625 6.109375 34.5625 8.28125 
Q 37.984375 10.453125 37.984375 14.40625 
Q 37.984375 18.0625 35.515625 20.015625 
Q 33.0625 21.96875 24.703125 23.78125 
L 21.578125 24.515625 
Q 13.234375 26.265625 9.515625 29.90625 
Q 5.8125 33.546875 5.8125 39.890625 
Q 5.8125 47.609375 11.28125 51.796875 
Q 16.75 56 26.8125 56 
Q 31.78125 56 36.171875 55.265625 
Q 40.578125 54.546875 44.28125 53.078125 
z
" id="DejaVuSans-115"/>
      <path d="M 9.421875 54.6875 
L 18.40625 54.6875 
L 18.40625 0 
L 9.421875 0 
z
M 9.421875 75.984375 
L 18.40625 75.984375 
L 18.40625 64.59375 
L 9.421875 64.59375 
z
" id="DejaVuSans-105"/>
      <path d="M 32.171875 -5.078125 
Q 28.375 -14.84375 24.75 -17.8125 
Q 21.140625 -20.796875 15.09375 -20.796875 
L 7.90625 -20.796875 
L 7.90625 -13.28125 
L 13.1875 -13.28125 
Q 16.890625 -13.28125 18.9375 -11.515625 
Q 21 -9.765625 23.484375 -3.21875 
L 25.09375 0.875 
L 2.984375 54.6875 
L 12.5 54.6875 
L 29.59375 11.921875 
L 46.6875 54.6875 
L 56.203125 54.6875 
z
" id="DejaVuSans-121"/>
      <path d="M 31 75.875 
Q 24.46875 64.65625 21.28125 53.65625 
Q 18.109375 42.671875 18.109375 31.390625 
Q 18.109375 20.125 21.3125 9.0625 
Q 24.515625 -2 31 -13.1875 
L 23.1875 -13.1875 
Q 15.875 -1.703125 12.234375 9.375 
Q 8.59375 20.453125 8.59375 31.390625 
Q 8.59375 42.28125 12.203125 53.3125 
Q 15.828125 64.359375 23.1875 75.875 
z
" id="DejaVuSans-40"/>
      <path d="M 34.28125 27.484375 
Q 23.390625 27.484375 19.1875 25 
Q 14.984375 22.515625 14.984375 16.5 
Q 14.984375 11.71875 18.140625 8.90625 
Q 21.296875 6.109375 26.703125 6.109375 
Q 34.1875 6.109375 38.703125 11.40625 
Q 43.21875 16.703125 43.21875 25.484375 
L 43.21875 27.484375 
z
M 52.203125 31.203125 
L 52.203125 0 
L 43.21875 0 
L 43.21875 8.296875 
Q 40.140625 3.328125 35.546875 0.953125 
Q 30.953125 -1.421875 24.3125 -1.421875 
Q 15.921875 -1.421875 10.953125 3.296875 
Q 6 8.015625 6 15.921875 
Q 6 25.140625 12.171875 29.828125 
Q 18.359375 34.515625 30.609375 34.515625 
L 43.21875 34.515625 
L 43.21875 35.40625 
Q 43.21875 41.609375 39.140625 45 
Q 35.0625 48.390625 27.6875 48.390625 
Q 23 48.390625 18.546875 47.265625 
Q 14.109375 46.140625 10.015625 43.890625 
L 10.015625 52.203125 
Q 14.9375 54.109375 19.578125 55.046875 
Q 24.21875 56 28.609375 56 
Q 40.484375 56 46.34375 49.84375 
Q 52.203125 43.703125 52.203125 31.203125 
z
" id="DejaVuSans-97"/>
      <path d="M 8.5 21.578125 
L 8.5 54.6875 
L 17.484375 54.6875 
L 17.484375 21.921875 
Q 17.484375 14.15625 20.5 10.265625 
Q 23.53125 6.390625 29.59375 6.390625 
Q 36.859375 6.390625 41.078125 11.03125 
Q 45.3125 15.671875 45.3125 23.6875 
L 45.3125 54.6875 
L 54.296875 54.6875 
L 54.296875 0 
L 45.3125 0 
L 45.3125 8.40625 
Q 42.046875 3.421875 37.71875 1 
Q 33.40625 -1.421875 27.6875 -1.421875 
Q 18.265625 -1.421875 13.375 4.4375 
Q 8.5 10.296875 8.5 21.578125 
z
M 31.109375 56 
z
" id="DejaVuSans-117"/>
      <path d="M 8.015625 75.875 
L 15.828125 75.875 
Q 23.140625 64.359375 26.78125 53.3125 
Q 30.421875 42.28125 30.421875 31.390625 
Q 30.421875 20.453125 26.78125 9.375 
Q 23.140625 -1.703125 15.828125 -13.1875 
L 8.015625 -13.1875 
Q 14.5 -2 17.703125 9.0625 
Q 20.90625 20.125 20.90625 31.390625 
Q 20.90625 42.671875 17.703125 53.65625 
Q 14.5 64.65625 8.015625 75.875 
z
" id="DejaVuSans-41"/>
     </defs>
     <g transform="translate(15.892187 222.917844)rotate(-90)scale(0.1 -0.1)">
      <use xlink:href="#DejaVuSans-80"/>
      <use x="60.287109" xlink:href="#DejaVuSans-114"/>
      <use x="101.369141" xlink:href="#DejaVuSans-111"/>
      <use x="162.550781" xlink:href="#DejaVuSans-98"/>
      <use x="226.027344" xlink:href="#DejaVuSans-46"/>
      <use x="257.814453" xlink:href="#DejaVuSans-32"/>
      <use x="289.601562" xlink:href="#DejaVuSans-68"/>
      <use x="366.603516" xlink:href="#DejaVuSans-101"/>
      <use x="428.126953" xlink:href="#DejaVuSans-110"/>
      <use x="491.505859" xlink:href="#DejaVuSans-115"/>
      <use x="543.605469" xlink:href="#DejaVuSans-105"/>
      <use x="571.388672" xlink:href="#DejaVuSans-116"/>
      <use x="610.597656" xlink:href="#DejaVuSans-121"/>
      <use x="669.777344" xlink:href="#DejaVuSans-32"/>
      <use x="701.564453" xlink:href="#DejaVuSans-40"/>
      <use x="740.578125" xlink:href="#DejaVuSans-97"/>
      <use x="801.857422" xlink:href="#DejaVuSans-46"/>
      <use x="833.644531" xlink:href="#DejaVuSans-117"/>
      <use x="897.023438" xlink:href="#DejaVuSans-46"/>
      <use x="928.810547" xlink:href="#DejaVuSans-41"/>
     </g>
    </g>
   </g>
   <g id="patch_9">
    <path d="M 57.6 307.584 
L 57.6 41.472 
" style="fill:none;stroke:#000000;stroke-linecap:square;stroke-linejoin:miter;stroke-width:0.8;"/>
   </g>
   <g id="patch_10">
    <path d="M 414.72 307.584 
L 414.72 41.472 
" style="fill:none;stroke:#000000;stroke-linecap:square;stroke-linejoin:miter;stroke-width:0.8;"/>
   </g>
   <g id="patch_11">
    <path d="M 57.6 307.584 
L 414.72 307.584 
" style="fill:none;stroke:#000000;stroke-linecap:square;stroke-linejoin:miter;stroke-width:0.8;"/>
   </g>
   <g id="patch_12">
    <path d="M 57.6 41.472 
L 414.72 41.472 
" style="fill:none;stroke:#000000;stroke-linecap:square;stroke-linejoin:miter;stroke-width:0.8;"/>
   </g>
   <g id="legend_1">
    <g id="patch_13">
     <path d="M 325.405938 137.54075 
L 407.72 137.54075 
Q 409.72 137.54075 409.72 135.54075 
L 409.72 48.472 
Q 409.72 46.472 407.72 46.472 
L 325.405938 46.472 
Q 323.405938 46.472 323.405938 48.472 
L 323.405938 135.54075 
Q 323.405938 137.54075 325.405938 137.54075 
z
" style="fill:#ffffff;opacity:0.8;stroke:#cccccc;stroke-linejoin:miter;"/>
    </g>
    <g id="patch_14">
     <path d="M 327.405938 58.070438 
L 347.405938 58.070438 
L 347.405938 51.070438 
L 327.405938 51.070438 
z
" style="fill:none;stroke:#1f77b4;stroke-linejoin:miter;"/>
    </g>
    <g id="text_19">
     <!-- quark -->
     <defs>
      <path d="M 14.796875 27.296875 
Q 14.796875 17.390625 18.875 11.75 
Q 22.953125 6.109375 30.078125 6.109375 
Q 37.203125 6.109375 41.296875 11.75 
Q 45.40625 17.390625 45.40625 27.296875 
Q 45.40625 37.203125 41.296875 42.84375 
Q 37.203125 48.484375 30.078125 48.484375 
Q 22.953125 48.484375 18.875 42.84375 
Q 14.796875 37.203125 14.796875 27.296875 
z
M 45.40625 8.203125 
Q 42.578125 3.328125 38.25 0.953125 
Q 33.9375 -1.421875 27.875 -1.421875 
Q 17.96875 -1.421875 11.734375 6.484375 
Q 5.515625 14.40625 5.515625 27.296875 
Q 5.515625 40.1875 11.734375 48.09375 
Q 17.96875 56 27.875 56 
Q 33.9375 56 38.25 53.625 
Q 42.578125 51.265625 45.40625 46.390625 
L 45.40625 54.6875 
L 54.390625 54.6875 
L 54.390625 -20.796875 
L 45.40625 -20.796875 
z
" id="DejaVuSans-113"/>
      <path d="M 9.078125 75.984375 
L 18.109375 75.984375 
L 18.109375 31.109375 
L 44.921875 54.6875 
L 56.390625 54.6875 
L 27.390625 29.109375 
L 57.625 0 
L 45.90625 0 
L 18.109375 26.703125 
L 18.109375 0 
L 9.078125 0 
z
" id="DejaVuSans-107"/>
     </defs>
     <g transform="translate(355.405938 58.070438)scale(0.1 -0.1)">
      <use xlink:href="#DejaVuSans-113"/>
      <use x="63.476562" xlink:href="#DejaVuSans-117"/>
      <use x="126.855469" xlink:href="#DejaVuSans-97"/>
      <use x="188.134766" xlink:href="#DejaVuSans-114"/>
      <use x="229.248047" xlink:href="#DejaVuSans-107"/>
     </g>
    </g>
    <g id="patch_15">
     <path d="M 327.405938 72.748563 
L 347.405938 72.748563 
L 347.405938 65.748563 
L 327.405938 65.748563 
z
" style="fill:none;stroke:#ff7f0e;stroke-linejoin:miter;"/>
    </g>
    <g id="text_20">
     <!-- gluon -->
     <defs>
      <path d="M 45.40625 27.984375 
Q 45.40625 37.75 41.375 43.109375 
Q 37.359375 48.484375 30.078125 48.484375 
Q 22.859375 48.484375 18.828125 43.109375 
Q 14.796875 37.75 14.796875 27.984375 
Q 14.796875 18.265625 18.828125 12.890625 
Q 22.859375 7.515625 30.078125 7.515625 
Q 37.359375 7.515625 41.375 12.890625 
Q 45.40625 18.265625 45.40625 27.984375 
z
M 54.390625 6.78125 
Q 54.390625 -7.171875 48.1875 -13.984375 
Q 42 -20.796875 29.203125 -20.796875 
Q 24.46875 -20.796875 20.265625 -20.09375 
Q 16.0625 -19.390625 12.109375 -17.921875 
L 12.109375 -9.1875 
Q 16.0625 -11.328125 19.921875 -12.34375 
Q 23.78125 -13.375 27.78125 -13.375 
Q 36.625 -13.375 41.015625 -8.765625 
Q 45.40625 -4.15625 45.40625 5.171875 
L 45.40625 9.625 
Q 42.625 4.78125 38.28125 2.390625 
Q 33.9375 0 27.875 0 
Q 17.828125 0 11.671875 7.65625 
Q 5.515625 15.328125 5.515625 27.984375 
Q 5.515625 40.671875 11.671875 48.328125 
Q 17.828125 56 27.875 56 
Q 33.9375 56 38.28125 53.609375 
Q 42.625 51.21875 45.40625 46.390625 
L 45.40625 54.6875 
L 54.390625 54.6875 
z
" id="DejaVuSans-103"/>
      <path d="M 9.421875 75.984375 
L 18.40625 75.984375 
L 18.40625 0 
L 9.421875 0 
z
" id="DejaVuSans-108"/>
     </defs>
     <g transform="translate(355.405938 72.748563)scale(0.1 -0.1)">
      <use xlink:href="#DejaVuSans-103"/>
      <use x="63.476562" xlink:href="#DejaVuSans-108"/>
      <use x="91.259766" xlink:href="#DejaVuSans-117"/>
      <use x="154.638672" xlink:href="#DejaVuSans-111"/>
      <use x="215.820312" xlink:href="#DejaVuSans-110"/>
     </g>
    </g>
    <g id="patch_16">
     <path d="M 327.405938 87.426688 
L 347.405938 87.426688 
L 347.405938 80.426688 
L 327.405938 80.426688 
z
" style="fill:none;stroke:#2ca02c;stroke-linejoin:miter;"/>
    </g>
    <g id="text_21">
     <!-- W -->
     <defs>
      <path d="M 3.328125 72.90625 
L 13.28125 72.90625 
L 28.609375 11.28125 
L 43.890625 72.90625 
L 54.984375 72.90625 
L 70.3125 11.28125 
L 85.59375 72.90625 
L 95.609375 72.90625 
L 77.296875 0 
L 64.890625 0 
L 49.515625 63.28125 
L 33.984375 0 
L 21.578125 0 
z
" id="DejaVuSans-87"/>
     </defs>
     <g transform="translate(355.405938 87.426688)scale(0.1 -0.1)">
      <use xlink:href="#DejaVuSans-87"/>
     </g>
    </g>
    <g id="patch_17">
     <path d="M 327.405938 102.104813 
L 347.405938 102.104813 
L 347.405938 95.104813 
L 327.405938 95.104813 
z
" style="fill:none;stroke:#d62728;stroke-linejoin:miter;"/>
    </g>
    <g id="text_22">
     <!-- Z -->
     <defs>
      <path d="M 5.609375 72.90625 
L 62.890625 72.90625 
L 62.890625 65.375 
L 16.796875 8.296875 
L 64.015625 8.296875 
L 64.015625 0 
L 4.5 0 
L 4.5 7.515625 
L 50.59375 64.59375 
L 5.609375 64.59375 
z
" id="DejaVuSans-90"/>
     </defs>
     <g transform="translate(355.405938 102.104813)scale(0.1 -0.1)">
      <use xlink:href="#DejaVuSans-90"/>
     </g>
    </g>
    <g id="patch_18">
     <path d="M 327.405938 116.782938 
L 347.405938 116.782938 
L 347.405938 109.782938 
L 327.405938 109.782938 
z
" style="fill:none;stroke:#9467bd;stroke-linejoin:miter;"/>
    </g>
    <g id="text_23">
     <!-- top -->
     <defs>
      <path d="M 18.109375 8.203125 
L 18.109375 -20.796875 
L 9.078125 -20.796875 
L 9.078125 54.6875 
L 18.109375 54.6875 
L 18.109375 46.390625 
Q 20.953125 51.265625 25.265625 53.625 
Q 29.59375 56 35.59375 56 
Q 45.5625 56 51.78125 48.09375 
Q 58.015625 40.1875 58.015625 27.296875 
Q 58.015625 14.40625 51.78125 6.484375 
Q 45.5625 -1.421875 35.59375 -1.421875 
Q 29.59375 -1.421875 25.265625 0.953125 
Q 20.953125 3.328125 18.109375 8.203125 
z
M 48.6875 27.296875 
Q 48.6875 37.203125 44.609375 42.84375 
Q 40.53125 48.484375 33.40625 48.484375 
Q 26.265625 48.484375 22.1875 42.84375 
Q 18.109375 37.203125 18.109375 27.296875 
Q 18.109375 17.390625 22.1875 11.75 
Q 26.265625 6.109375 33.40625 6.109375 
Q 40.53125 6.109375 44.609375 11.75 
Q 48.6875 17.390625 48.6875 27.296875 
z
" id="DejaVuSans-112"/>
     </defs>
     <g transform="translate(355.405938 116.782938)scale(0.1 -0.1)">
      <use xlink:href="#DejaVuSans-116"/>
      <use x="39.208984" xlink:href="#DejaVuSans-111"/>
      <use x="100.390625" xlink:href="#DejaVuSans-112"/>
     </g>
    </g>
    <g id="patch_19">
     <path d="M 327.405938 131.461063 
L 347.405938 131.461063 
L 347.405938 124.461063 
L 327.405938 124.461063 
z
" style="fill:none;stroke:#000000;stroke-linejoin:miter;"/>
    </g>
    <g id="text_24">
     <!-- undefined -->
     <defs>
      <path d="M 37.109375 75.984375 
L 37.109375 68.5 
L 28.515625 68.5 
Q 23.6875 68.5 21.796875 66.546875 
Q 19.921875 64.59375 19.921875 59.515625 
L 19.921875 54.6875 
L 34.71875 54.6875 
L 34.71875 47.703125 
L 19.921875 47.703125 
L 19.921875 0 
L 10.890625 0 
L 10.890625 47.703125 
L 2.296875 47.703125 
L 2.296875 54.6875 
L 10.890625 54.6875 
L 10.890625 58.5 
Q 10.890625 67.625 15.140625 71.796875 
Q 19.390625 75.984375 28.609375 75.984375 
z
" id="DejaVuSans-102"/>
     </defs>
     <g transform="translate(355.405938 131.461063)scale(0.1 -0.1)">
      <use xlink:href="#DejaVuSans-117"/>
      <use x="63.378906" xlink:href="#DejaVuSans-110"/>
      <use x="126.757812" xlink:href="#DejaVuSans-100"/>
      <use x="190.234375" xlink:href="#DejaVuSans-101"/>
      <use x="251.757812" xlink:href="#DejaVuSans-102"/>
      <use x="286.962891" xlink:href="#DejaVuSans-105"/>
      <use x="314.746094" xlink:href="#DejaVuSans-110"/>
      <use x="378.125" xlink:href="#DejaVuSans-101"/>
      <use x="439.648438" xlink:href="#DejaVuSans-100"/>
     </g>
    </g>
   </g>
  </g>
 </g>
 <defs>
  <clipPath id="p7c042113df">
   <rect height="266.112" width="357.12" x="57.6" y="41.472"/>
  </clipPath>
 </defs>
</svg>
