<?xml version="1.0" encoding="utf-8" standalone="no"?>
<!DOCTYPE svg PUBLIC "-//W3C//DTD SVG 1.1//EN"
  "http://www.w3.org/Graphics/SVG/1.1/DTD/svg11.dtd">
<!-- Created with matplotlib (https://matplotlib.org/) -->
<svg height="345.6pt" version="1.1" viewBox="0 0 460.8 345.6" width="460.8pt" xmlns="http://www.w3.org/2000/svg" xmlns:xlink="http://www.w3.org/1999/xlink">
 <defs>
  <style type="text/css">
*{stroke-linecap:butt;stroke-linejoin:round;}
  </style>
 </defs>
 <g id="figure_1">
  <g id="patch_1">
   <path d="M 0 345.6 
L 460.8 345.6 
L 460.8 0 
L 0 0 
z
" style="fill:#ffffff;"/>
  </g>
  <g id="axes_1">
   <g id="patch_2">
    <path d="M 57.6 307.584 
L 414.72 307.584 
L 414.72 41.472 
L 57.6 41.472 
z
" style="fill:#ffffff;"/>
   </g>
   <g id="patch_3">
    <path clip-path="url(#pb154cedfe1)" d="M 73.832727 307.584 
L 73.832727 300.845531 
L 77.079273 300.845531 
L 77.079273 302.746715 
L 80.325818 302.746715 
L 80.325818 301.727128 
L 83.572363 301.727128 
L 83.572363 298.906018 
L 86.818909 298.906018 
L 86.818909 294.490366 
L 90.065454 294.490366 
L 90.065454 287.330267 
L 93.312 287.330267 
L 93.312 281.028761 
L 96.558545 281.028761 
L 96.558545 269.774985 
L 99.805092 269.774985 
L 99.805092 267.858469 
L 103.051635 267.858469 
L 103.051635 261.234993 
L 106.298181 261.234993 
L 106.298181 255.017814 
L 109.544728 255.017814 
L 109.544728 247.160102 
L 112.791274 247.160102 
L 112.791274 242.997436 
L 116.037818 242.997436 
L 116.037818 229.811808 
L 119.284361 229.811808 
L 119.284361 226.408075 
L 122.53091 226.408075 
L 122.53091 235.661006 
L 125.777454 235.661006 
L 125.777454 217.599763 
L 129.023998 217.599763 
L 129.023998 223.295649 
L 132.270546 223.295649 
L 132.270546 222.053746 
L 135.51709 222.053746 
L 135.51709 224.583556 
L 138.763639 224.583556 
L 138.763639 220.13723 
L 142.010183 220.13723 
L 142.010183 219.232638 
L 145.256726 219.232638 
L 145.256726 218.489039 
L 148.503275 218.489039 
L 148.503275 212.831488 
L 151.749819 212.831488 
L 151.749819 211.704574 
L 154.996363 211.704574 
L 154.996363 216.925159 
L 158.242911 216.925159 
L 158.242911 215.805913 
L 161.48945 215.805913 
L 161.48945 216.18155 
L 164.736004 216.18155 
L 164.736004 202.58962 
L 167.982547 202.58962 
L 167.982547 229.574161 
L 171.229091 229.574161 
L 171.229091 210.286344 
L 174.475635 210.286344 
L 174.475635 209.30508 
L 177.722179 209.30508 
L 177.722179 227.02135 
L 180.968722 227.02135 
L 180.968722 204.644118 
L 184.215276 204.644118 
L 184.215276 212.869806 
L 187.46182 212.869806 
L 187.46182 214.311029 
L 190.708364 214.311029 
L 190.708364 222.069081 
L 193.954907 222.069081 
L 193.954907 206.391983 
L 197.201451 206.391983 
L 197.201451 227.95662 
L 200.448005 227.95662 
L 200.448005 212.018875 
L 203.694549 212.018875 
L 203.694549 216.557188 
L 206.941092 216.557188 
L 206.941092 212.195202 
L 210.187636 212.195202 
L 210.187636 223.280315 
L 213.43418 223.280315 
L 213.43418 213.552095 
L 216.680723 213.552095 
L 216.680723 219.362962 
L 219.927277 219.362962 
L 219.927277 220.811852 
L 223.173821 220.811852 
L 223.173821 216.626175 
L 226.420365 216.626175 
L 226.420365 210.064032 
L 229.666908 210.064032 
L 229.666908 225.158504 
L 232.913452 225.158504 
L 232.913452 224.660219 
L 236.159996 224.660219 
L 236.159996 223.050345 
L 239.40655 223.050345 
L 239.40655 218.558025 
L 242.653093 218.558025 
L 242.653093 208.162841 
L 245.899637 208.162841 
L 245.899637 221.110827 
L 249.146181 221.110827 
L 249.146181 225.971108 
L 252.392725 225.971108 
L 252.392725 225.572478 
L 255.639268 225.572478 
L 255.639268 222.161069 
L 258.885812 222.161069 
L 258.885812 222.421717 
L 262.132356 222.421717 
L 262.132356 228.876547 
L 265.378899 228.876547 
L 265.378899 230.20278 
L 268.625463 230.20278 
L 268.625463 229.298178 
L 271.872007 229.298178 
L 271.872007 227.243671 
L 275.118551 227.243671 
L 275.118551 231.643994 
L 278.365095 231.643994 
L 278.365095 231.529008 
L 281.611638 231.529008 
L 281.611638 232.333936 
L 284.858182 232.333936 
L 284.858182 235.814332 
L 288.104726 235.814332 
L 288.104726 236.933578 
L 291.351269 236.933578 
L 291.351269 241.241899 
L 294.597813 241.241899 
L 294.597813 241.809189 
L 297.844357 241.809189 
L 297.844357 249.275938 
L 301.090901 249.275938 
L 301.090901 252.296362 
L 304.337464 252.296362 
L 304.337464 246.66948 
L 307.584008 246.66948 
L 307.584008 261.533968 
L 310.830552 261.533968 
L 310.830552 250.103863 
L 314.077096 250.103863 
L 314.077096 262.392566 
L 317.323639 262.392566 
L 317.323639 260.161745 
L 320.570183 260.161745 
L 320.570183 263.902785 
L 323.816727 263.902785 
L 323.816727 274.221299 
L 327.063271 274.221299 
L 327.063271 273.025392 
L 330.309814 273.025392 
L 330.309814 273.814995 
L 333.556358 273.814995 
L 333.556358 269.675325 
L 336.802902 269.675325 
L 336.802902 277.778356 
L 340.049445 277.778356 
L 340.049445 283.918867 
L 343.296009 283.918867 
L 343.296009 282.094346 
L 346.542553 282.094346 
L 346.542553 286.517663 
L 349.789097 286.517663 
L 349.789097 286.188024 
L 353.03564 286.188024 
L 353.03564 290.994643 
L 356.282184 290.994643 
L 356.282184 295.923919 
L 359.528728 295.923919 
L 359.528728 292.604515 
L 362.775272 292.604515 
L 362.775272 296.782518 
L 366.021815 296.782518 
L 366.021815 299.89494 
L 369.268359 299.89494 
L 369.268359 303.275674 
L 375.761447 303.260341 
L 375.761447 305.644486 
L 379.00799 305.644486 
L 379.00799 305.406839 
L 382.254554 305.406839 
L 382.254554 306.533749 
L 385.501098 306.533749 
L 385.501098 306.86339 
L 388.747642 306.86339 
L 388.747642 307.208363 
L 391.994185 307.208363 
L 391.994185 306.878722 
L 395.240729 306.878722 
L 395.240729 307.085706 
L 398.487273 307.085706 
L 398.487273 307.584 
L 398.487273 307.584 
" style="fill:none;stroke:#1f77b4;stroke-linejoin:miter;"/>
   </g>
   <g id="patch_4">
    <path clip-path="url(#pb154cedfe1)" d="M 73.832727 307.584 
L 73.832727 307.246693 
L 77.079273 307.246693 
L 77.079273 307.124036 
L 80.325818 307.124036 
L 80.325818 303.758635 
L 83.572363 303.758635 
L 83.572363 302.723716 
L 86.818909 302.723716 
L 86.818909 298.02442 
L 90.065454 298.02442 
L 90.065454 291.178625 
L 93.312 291.178625 
L 93.312 285.490407 
L 96.558545 285.490407 
L 96.558545 276.329461 
L 99.805092 276.329461 
L 99.805092 269.989635 
L 103.051635 269.989635 
L 103.051635 265.96495 
L 106.298181 265.96495 
L 106.298181 258.084246 
L 109.544728 258.084246 
L 109.544728 242.713791 
L 112.791274 242.713791 
L 112.791274 233.491519 
L 116.037818 233.491519 
L 116.037818 233.736823 
L 119.284361 233.736823 
L 119.284361 234.733422 
L 122.53091 234.733422 
L 122.53091 218.933663 
L 125.777454 218.933663 
L 125.777454 199.454184 
L 129.023998 199.454184 
L 129.023998 192.217438 
L 132.270546 192.217438 
L 132.270546 200.420123 
L 135.51709 200.420123 
L 135.51709 185.969604 
L 138.763639 185.969604 
L 138.763639 170.016533 
L 142.010183 170.016533 
L 142.010183 170.752456 
L 145.256726 170.752456 
L 145.256726 154.638402 
L 148.503275 154.638402 
L 148.503275 159.314689 
L 151.749819 159.314689 
L 151.749819 172.339319 
L 154.996363 172.339319 
L 154.996363 159.675001 
L 158.242911 159.675001 
L 158.242911 160.663914 
L 161.48945 160.663914 
L 161.48945 157.773829 
L 164.736004 157.773829 
L 164.736004 142.978341 
L 167.982547 142.978341 
L 167.982547 161.330878 
L 171.229091 161.330878 
L 171.229091 157.229522 
L 174.475635 157.229522 
L 174.475635 150.744032 
L 177.722179 150.744032 
L 177.722179 113.877955 
L 180.968722 113.877955 
L 180.968722 154.538738 
L 184.215276 154.538738 
L 184.215276 150.613736 
L 187.46182 150.613736 
L 187.46182 153.542167 
L 190.708364 153.542167 
L 190.708364 150.37608 
L 193.954907 150.37608 
L 193.954907 124.12749 
L 197.201451 124.12749 
L 197.201451 144.49619 
L 200.448005 144.49619 
L 200.448005 147.73129 
L 203.694549 147.73129 
L 203.694549 142.863342 
L 206.941092 142.863342 
L 206.941092 130.061005 
L 210.187636 130.061005 
L 210.187636 131.663202 
L 213.43418 131.663202 
L 213.43418 142.372714 
L 216.680723 142.372714 
L 216.680723 126.948561 
L 219.927277 126.948561 
L 219.927277 125.584038 
L 223.173821 125.584038 
L 223.173821 135.35828 
L 226.420365 135.35828 
L 226.420365 137.336106 
L 229.666908 137.336106 
L 229.666908 144.197233 
L 232.913452 144.197233 
L 232.913452 136.3242 
L 236.159996 136.3242 
L 236.159996 151.158025 
L 239.40655 151.158025 
L 239.40655 147.6546 
L 242.653093 147.6546 
L 242.653093 149.486813 
L 245.899637 149.486813 
L 245.899637 131.770525 
L 249.146181 131.770525 
L 249.146181 140.379535 
L 252.392725 140.379535 
L 252.392725 157.183537 
L 255.639268 157.183537 
L 255.639268 151.510661 
L 258.885812 151.510661 
L 258.885812 135.434933 
L 262.132356 135.434933 
L 262.132356 142.871 
L 265.378899 142.871 
L 265.378899 147.984262 
L 268.625463 147.984262 
L 268.625463 142.763677 
L 271.872007 142.763677 
L 271.872007 149.111166 
L 275.118551 149.111166 
L 275.118551 148.712527 
L 278.365095 148.712527 
L 278.365095 157.689508 
L 281.611638 157.689508 
L 281.611638 163.469697 
L 284.858182 163.469697 
L 284.858182 152.698884 
L 288.104726 152.698884 
L 288.104726 170.507152 
L 291.351269 170.507152 
L 291.351269 184.666372 
L 294.597813 184.666372 
L 294.597813 179.116135 
L 297.844357 179.116135 
L 297.844357 180.220056 
L 301.090901 180.220056 
L 301.090901 177.046311 
L 304.337464 177.046311 
L 304.337464 191.581161 
L 307.584008 191.581161 
L 307.584008 173.328269 
L 310.830552 173.328269 
L 310.830552 182.312881 
L 314.077096 182.312881 
L 314.077096 190.891214 
L 317.323639 190.891214 
L 317.323639 189.656978 
L 320.570183 189.656978 
L 320.570183 211.114282 
L 323.816727 211.114282 
L 323.816727 197.92865 
L 327.063271 197.92865 
L 327.063271 228.646567 
L 330.309814 228.646567 
L 330.309814 215.767577 
L 333.556358 215.767577 
L 333.556358 229.298188 
L 336.802902 229.298188 
L 336.802902 232.402927 
L 340.049445 232.402927 
L 340.049445 237.838171 
L 343.296009 237.838171 
L 343.296009 240.429299 
L 346.542553 240.429299 
L 346.542553 236.88758 
L 349.789097 236.88758 
L 349.789097 262.062922 
L 353.03564 262.062922 
L 353.03564 263.289496 
L 356.282184 263.289496 
L 356.282184 269.889977 
L 359.528728 269.889977 
L 359.528728 274.58927 
L 362.775272 274.58927 
L 362.775272 279.449556 
L 366.021815 279.449556 
L 366.021815 285.367752 
L 369.268359 285.367752 
L 369.268359 296.636864 
L 372.514903 296.636864 
L 372.514903 294.774013 
L 375.761447 294.774013 
L 375.761447 301.704131 
L 379.00799 301.704131 
L 379.00799 303.068689 
L 382.254554 303.068689 
L 382.254554 303.405997 
L 385.501098 303.405997 
L 385.501098 305.713481 
L 388.747642 305.713481 
L 388.747642 307.147034 
L 391.994185 307.147034 
L 391.994185 307.33102 
L 395.240729 307.33102 
L 395.240729 307.584 
L 398.487273 307.584 
L 398.487273 307.584 
" style="fill:none;stroke:#ff7f0e;stroke-linejoin:miter;"/>
   </g>
   <g id="patch_5">
    <path clip-path="url(#pb154cedfe1)" d="M 73.832727 307.584 
L 73.832727 306.90172 
L 77.079273 306.90172 
L 77.079273 303.934954 
L 80.325818 303.934954 
L 80.325818 294.797008 
L 83.572363 294.797008 
L 83.572363 270.112289 
L 86.818909 270.112289 
L 86.818909 229.045207 
L 90.065454 229.045207 
L 90.065454 170.783125 
L 93.312 170.783125 
L 93.312 140.448531 
L 96.558545 140.448531 
L 96.558545 118.546574 
L 99.805092 118.546574 
L 99.805092 85.843173 
L 103.051635 85.843173 
L 103.051635 77.37219 
L 106.298181 77.37219 
L 106.298181 80.016962 
L 109.544728 80.016962 
L 109.544728 96.000701 
L 112.791274 96.000701 
L 112.791274 88.587627 
L 116.037818 88.587627 
L 116.037818 111.73145 
L 119.284361 111.73145 
L 119.284361 110.006614 
L 122.53091 110.006614 
L 122.53091 126.143661 
L 125.777454 126.143661 
L 125.777454 140.172548 
L 129.023998 140.172548 
L 129.023998 152.560893 
L 132.270546 152.560893 
L 132.270546 161.752501 
L 135.51709 161.752501 
L 135.51709 158.701423 
L 138.763639 158.701423 
L 138.763639 177.613584 
L 142.010183 177.613584 
L 142.010183 179.560778 
L 145.256726 179.560778 
L 145.256726 187.173171 
L 148.503275 187.173171 
L 148.503275 191.596495 
L 151.749819 191.596495 
L 151.749819 202.474631 
L 154.996363 202.474631 
L 154.996363 195.766829 
L 158.242911 195.766829 
L 158.242911 203.969515 
L 161.48945 203.969515 
L 161.48945 217.515442 
L 164.736004 217.515442 
L 164.736004 218.128735 
L 167.982547 218.128735 
L 167.982547 216.01289 
L 171.229091 216.01289 
L 171.229091 218.864658 
L 174.475635 218.864658 
L 174.475635 229.566485 
L 177.722179 229.566485 
L 177.722179 227.910626 
L 180.968722 227.910626 
L 180.968722 234.104794 
L 184.215276 234.104794 
L 184.215276 221.049508 
L 187.46182 221.049508 
L 187.46182 238.574112 
L 190.708364 238.574112 
L 190.708364 233.928476 
L 193.954907 233.928476 
L 193.954907 233.54518 
L 197.201451 233.54518 
L 197.201451 240.751281 
L 200.448005 240.751281 
L 200.448005 239.754687 
L 203.694549 239.754687 
L 203.694549 246.799799 
L 206.941092 246.799799 
L 206.941092 250.648161 
L 210.187636 250.648161 
L 210.187636 248.869641 
L 213.43418 248.869641 
L 213.43418 258.298891 
L 216.680723 258.298891 
L 216.680723 257.631945 
L 219.927277 257.631945 
L 219.927277 258.613195 
L 223.173821 258.613195 
L 223.173821 255.661763 
L 226.420365 255.661763 
L 226.420365 260.453053 
L 229.666908 260.453053 
L 229.666908 253.024645 
L 232.913452 253.024645 
L 232.913452 268.188113 
L 236.159996 268.188113 
L 236.159996 256.144728 
L 239.40655 256.144728 
L 239.40655 266.578239 
L 242.653093 266.578239 
L 242.653093 274.037314 
L 245.899637 274.037314 
L 245.899637 266.532236 
L 249.146181 266.532236 
L 249.146181 269.092705 
L 252.392725 269.092705 
L 252.392725 267.513495 
L 255.639268 267.513495 
L 255.639268 272.841409 
L 258.885812 272.841409 
L 258.885812 273.883995 
L 262.132356 273.883995 
L 262.132356 276.444457 
L 265.378899 276.444457 
L 265.378899 279.579877 
L 268.625463 279.579877 
L 268.625463 280.300487 
L 271.872007 280.300487 
L 271.872007 278.613952 
L 275.118551 278.613952 
L 275.118551 280.36948 
L 278.365095 280.36948 
L 278.365095 278.790275 
L 281.611638 278.790275 
L 281.611638 282.906947 
L 284.858182 282.906947 
L 284.858182 280.982767 
L 288.104726 280.982767 
L 288.104726 283.903535 
L 291.351269 283.903535 
L 291.351269 289.768073 
L 294.597813 289.768073 
L 294.597813 285.835383 
L 297.844357 285.835383 
L 297.844357 286.594323 
L 301.090901 286.594323 
L 301.090901 294.206722 
L 304.337464 294.206722 
L 304.337464 291.929902 
L 307.584008 291.929902 
L 307.584008 287.736569 
L 310.830552 287.736569 
L 310.830552 288.901809 
L 314.077096 288.901809 
L 314.077096 291.063638 
L 317.323639 291.063638 
L 317.323639 288.848147 
L 320.570183 288.848147 
L 320.570183 296.192232 
L 323.816727 296.192232 
L 323.816727 295.601945 
L 327.063271 295.601945 
L 327.063271 297.786774 
L 330.309814 297.786774 
L 330.309814 298.676037 
L 333.556358 298.676037 
L 333.556358 297.694781 
L 336.802902 297.694781 
L 336.802902 300.331905 
L 340.049445 300.331905 
L 340.049445 299.963935 
L 343.296009 299.963935 
L 343.296009 301.888116 
L 346.542553 301.888116 
L 346.542553 301.673466 
L 349.789097 301.673466 
L 349.789097 301.550809 
L 353.03564 301.550809 
L 353.03564 303.32167 
L 356.282184 303.32167 
L 356.282184 302.624058 
L 359.528728 302.624058 
L 359.528728 305.414505 
L 366.021815 305.30718 
L 366.021815 305.000537 
L 369.268359 305.000537 
L 369.268359 304.049946 
L 372.514903 304.049946 
L 372.514903 305.943463 
L 375.761447 305.943463 
L 375.761447 307.239027 
L 382.254554 307.246693 
L 382.254554 307.047376 
L 385.501098 307.047376 
L 385.501098 307.584 
L 388.747642 307.584 
L 388.747642 307.208363 
L 391.994185 307.208363 
L 391.994185 307.584 
L 398.487273 307.584 
L 398.487273 307.584 
" style="fill:none;stroke:#2ca02c;stroke-linejoin:miter;"/>
   </g>
   <g id="patch_6">
    <path clip-path="url(#pb154cedfe1)" d="M 73.832727 307.584 
L 73.832727 306.119782 
L 77.079273 306.119782 
L 77.079273 304.310591 
L 80.325818 304.310591 
L 80.325818 290.733995 
L 83.572363 290.733995 
L 83.572363 248.71631 
L 86.818909 248.71631 
L 86.818909 195.429518 
L 90.065454 195.429518 
L 90.065454 136.025207 
L 93.312 136.025207 
L 93.312 98.292855 
L 96.558545 98.292855 
L 96.558545 58.97364 
L 99.805092 58.97364 
L 99.805092 60.660167 
L 103.051635 60.660167 
L 103.051635 62.354335 
L 106.298181 62.354335 
L 106.298181 54.144 
L 109.544728 54.144 
L 109.544728 100.508337 
L 112.791274 100.508337 
L 112.791274 93.969195 
L 116.037818 93.969195 
L 116.037818 106.012562 
L 119.284361 106.012562 
L 119.284361 133.411086 
L 122.53091 133.411086 
L 122.53091 117.105361 
L 125.777454 117.105361 
L 125.777454 136.922132 
L 129.023998 136.922132 
L 129.023998 147.73893 
L 132.270546 147.73893 
L 132.270546 146.290058 
L 135.51709 146.290058 
L 135.51709 162.963745 
L 138.763639 162.963745 
L 138.763639 180.112724 
L 142.010183 180.112724 
L 142.010183 189.373337 
L 145.256726 189.373337 
L 145.256726 186.268588 
L 148.503275 186.268588 
L 148.503275 200.082812 
L 151.749819 200.082812 
L 151.749819 189.020692 
L 154.996363 189.020692 
L 154.996363 206.177348 
L 158.242911 206.177348 
L 158.242911 195.529183 
L 161.48945 195.529183 
L 161.48945 209.197766 
L 164.736004 209.197766 
L 164.736004 213.958392 
L 167.982547 213.958392 
L 167.982547 213.45243 
L 171.229091 213.45243 
L 171.229091 219.370629 
L 174.475635 219.370629 
L 174.475635 222.375723 
L 177.722179 222.375723 
L 177.722179 216.457524 
L 180.968722 216.457524 
L 180.968722 222.628704 
L 184.215276 222.628704 
L 184.215276 227.895292 
L 187.46182 227.895292 
L 187.46182 235.553684 
L 190.708364 235.553684 
L 190.708364 239.202735 
L 193.954907 239.202735 
L 193.954907 241.816856 
L 197.201451 241.816856 
L 197.201451 243.327075 
L 200.448005 243.327075 
L 200.448005 248.149029 
L 203.694549 248.149029 
L 203.694549 250.970137 
L 206.941092 250.970137 
L 206.941092 248.179689 
L 210.187636 248.179689 
L 210.187636 250.809145 
L 213.43418 250.809145 
L 213.43418 254.703505 
L 216.680723 254.703505 
L 216.680723 256.244383 
L 219.927277 256.244383 
L 219.927277 253.009306 
L 223.173821 253.009306 
L 223.173821 259.19582 
L 226.420365 259.19582 
L 226.420365 257.470957 
L 229.666908 257.470957 
L 229.666908 257.693269 
L 232.913452 257.693269 
L 232.913452 257.815926 
L 236.159996 257.815926 
L 236.159996 265.780969 
L 239.40655 265.780969 
L 239.40655 269.353351 
L 242.653093 269.353351 
L 242.653093 267.904463 
L 245.899637 267.904463 
L 245.899637 272.60376 
L 249.146181 272.60376 
L 249.146181 275.401876 
L 252.392725 275.401876 
L 252.392725 272.067134 
L 255.639268 272.067134 
L 255.639268 270.020299 
L 258.885812 270.020299 
L 258.885812 272.289451 
L 262.132356 272.289451 
L 262.132356 268.839724 
L 265.378899 268.839724 
L 265.378899 270.549255 
L 268.625463 270.549255 
L 268.625463 274.88058 
L 271.872007 274.88058 
L 271.872007 278.974258 
L 275.118551 278.974258 
L 275.118551 277.993003 
L 278.365095 277.993003 
L 278.365095 281.61905 
L 281.611638 281.61905 
L 281.611638 289.614752 
L 284.858182 289.614752 
L 284.858182 284.716136 
L 288.104726 284.716136 
L 288.104726 285.214433 
L 291.351269 285.214433 
L 291.351269 288.342186 
L 294.597813 288.342186 
L 294.597813 283.957198 
L 297.844357 283.957198 
L 297.844357 291.937567 
L 301.090901 291.937567 
L 301.090901 288.418847 
L 307.584008 288.418847 
L 307.584008 289.438432 
L 310.830552 289.438432 
L 310.830552 289.898396 
L 314.077096 289.898396 
L 314.077096 295.617277 
L 317.323639 295.617277 
L 317.323639 293.225465 
L 320.570183 293.225465 
L 320.570183 294.866002 
L 323.816727 294.866002 
L 323.816727 292.481858 
L 327.063271 292.481858 
L 327.063271 296.866847 
L 330.309814 296.866847 
L 330.309814 298.377061 
L 333.556358 298.377061 
L 333.556358 299.672624 
L 336.802902 299.672624 
L 336.802902 298.522716 
L 340.049445 298.522716 
L 340.049445 299.764617 
L 343.296009 299.764617 
L 343.296009 301.190504 
L 346.542553 301.190504 
L 346.542553 301.903449 
L 349.789097 301.903449 
L 349.789097 303.773967 
L 353.03564 303.773967 
L 353.03564 304.218598 
L 356.282184 304.218598 
L 356.282184 302.233089 
L 359.528728 302.233089 
L 359.528728 305.920465 
L 362.775272 305.920465 
L 362.775272 303.773967 
L 366.021815 303.773967 
L 366.021815 305.406839 
L 369.268359 305.406839 
L 369.268359 306.510751 
L 372.514903 306.510751 
L 372.514903 305.506497 
L 375.761447 305.506497 
L 375.761447 307.108704 
L 379.00799 307.108704 
L 379.00799 306.57208 
L 382.254554 306.57208 
L 382.254554 306.181111 
L 385.501098 306.181111 
L 385.501098 307.269691 
L 391.994185 307.254359 
L 391.994185 307.584 
L 395.240729 307.584 
L 395.240729 307.024377 
L 398.487273 307.024377 
L 398.487273 307.584 
L 398.487273 307.584 
" style="fill:none;stroke:#d62728;stroke-linejoin:miter;"/>
   </g>
   <g id="patch_7">
    <path clip-path="url(#pb154cedfe1)" d="M 73.832727 307.584 
L 77.079273 307.584 
L 77.079273 307.392348 
L 80.325818 307.392348 
L 80.325818 305.184523 
L 83.572363 305.184523 
L 83.572363 294.597692 
L 86.818909 294.597692 
L 86.818909 279.556876 
L 90.065454 279.556876 
L 90.065454 260.897687 
L 93.312 260.897687 
L 93.312 221.179814 
L 96.558545 221.179814 
L 96.558545 200.044485 
L 99.805092 200.044485 
L 99.805092 192.60841 
L 103.051635 192.60841 
L 103.051635 189.357993 
L 106.298181 189.357993 
L 106.298181 173.044629 
L 109.544728 173.044629 
L 109.544728 155.290022 
L 112.791274 155.290022 
L 112.791274 169.794212 
L 116.037818 169.794212 
L 116.037818 170.507152 
L 119.284361 170.507152 
L 119.284361 156.309613 
L 122.53091 156.309613 
L 122.53091 158.049802 
L 125.777454 158.049802 
L 125.777454 155.029383 
L 129.023998 155.029383 
L 129.023998 188.208078 
L 132.270546 188.208078 
L 132.270546 169.656221 
L 135.51709 169.656221 
L 135.51709 177.935569 
L 138.763639 177.935569 
L 138.763639 184.014761 
L 142.010183 184.014761 
L 142.010183 175.099127 
L 145.256726 175.099127 
L 145.256726 176.103392 
L 148.503275 176.103392 
L 148.503275 183.570109 
L 151.749819 183.570109 
L 151.749819 176.05738 
L 154.996363 176.05738 
L 154.996363 176.318028 
L 158.242911 176.318028 
L 158.242911 186.621215 
L 161.48945 186.621215 
L 161.48945 185.095662 
L 164.736004 185.095662 
L 164.736004 163.224411 
L 167.982547 163.224411 
L 167.982547 152.90589 
L 171.229091 152.90589 
L 171.229091 160.679267 
L 174.475635 160.679267 
L 174.475635 163.990994 
L 177.722179 163.990994 
L 177.722179 166.428806 
L 180.968722 166.428806 
L 180.968722 144.871837 
L 184.215276 144.871837 
L 184.215276 157.68949 
L 187.46182 157.68949 
L 187.46182 154.454426 
L 190.708364 154.454426 
L 190.708364 141.353096 
L 193.954907 141.353096 
L 193.954907 132.077176 
L 197.201451 132.077176 
L 197.201451 141.268784 
L 200.448005 141.268784 
L 200.448005 142.73299 
L 203.694549 142.73299 
L 203.694549 121.712679 
L 206.941092 121.712679 
L 206.941092 126.672634 
L 210.187636 126.672634 
L 210.187636 105.184614 
L 213.43418 105.184614 
L 213.43418 132.682802 
L 216.680723 132.682802 
L 216.680723 94.919763 
L 219.927277 94.919763 
L 219.927277 117.710987 
L 223.173821 117.710987 
L 223.173821 104.1344 
L 226.420365 104.1344 
L 226.420365 121.030399 
L 229.666908 121.030399 
L 229.666908 102.463171 
L 232.913452 102.463171 
L 232.913452 106.633523 
L 236.159996 106.633523 
L 236.159996 121.981003 
L 239.40655 121.981003 
L 239.40655 109.048352 
L 242.653093 109.048352 
L 242.653093 130.283344 
L 249.146181 130.260315 
L 249.146181 132.069518 
L 252.392725 132.069518 
L 252.392725 138.761985 
L 258.885812 138.807988 
L 258.885812 157.842806 
L 262.132356 157.842806 
L 262.132356 161.108566 
L 265.378899 161.108566 
L 265.378899 151.242336 
L 268.625463 151.242336 
L 268.625463 182.136572 
L 271.872007 182.136572 
L 271.872007 187.502815 
L 275.118551 187.502815 
L 275.118551 193.413347 
L 278.365095 193.413347 
L 278.365095 204.996764 
L 281.611638 204.996764 
L 281.611638 188.108441 
L 284.858182 188.108441 
L 284.858182 202.742928 
L 288.104726 202.742928 
L 288.104726 199.086223 
L 291.351269 199.086223 
L 291.351269 222.000085 
L 294.597813 222.000085 
L 294.597813 218.665348 
L 297.844357 218.665348 
L 297.844357 220.022241 
L 301.090901 220.022241 
L 301.090901 229.221516 
L 304.337464 229.221516 
L 304.337464 243.702704 
L 307.584008 243.702704 
L 307.584008 252.104709 
L 310.830552 252.104709 
L 310.830552 244.400314 
L 314.077096 244.400314 
L 314.077096 266.608899 
L 317.323639 266.608899 
L 317.323639 262.03993 
L 320.570183 262.03993 
L 320.570183 268.12678 
L 323.816727 268.12678 
L 323.816727 263.511812 
L 327.063271 263.511812 
L 327.063271 272.803073 
L 330.309814 272.803073 
L 330.309814 284.363498 
L 333.556358 284.363498 
L 333.556358 282.577308 
L 336.802902 282.577308 
L 336.802902 292.052558 
L 340.049445 292.052558 
L 340.049445 290.979308 
L 343.296009 290.979308 
L 343.296009 296.069576 
L 346.542553 296.069576 
L 346.542553 302.279085 
L 349.789097 302.279085 
L 349.789097 291.408609 
L 353.03564 291.408609 
L 353.03564 299.687956 
L 359.528728 299.657291 
L 359.528728 303.919622 
L 362.775272 303.919622 
L 362.775272 304.571238 
L 366.021815 304.571238 
L 366.021815 305.805474 
L 369.268359 305.805474 
L 369.268359 307.07804 
L 372.514903 307.07804 
L 372.514903 307.584 
L 398.487273 307.584 
L 398.487273 307.584 
" style="fill:none;stroke:#9467bd;stroke-linejoin:miter;"/>
   </g>
   <g id="patch_8">
    <path clip-path="url(#pb154cedfe1)" d="M 73.832727 307.584 
L 398.487273 307.584 
L 398.487273 307.584 
" style="fill:none;stroke:#000000;stroke-linejoin:miter;"/>
   </g>
   <g id="matplotlib.axis_1">
    <g id="xtick_1">
     <g id="line2d_1">
      <defs>
       <path d="M 0 0 
L 0 3.5 
" id="m6b88649f08" style="stroke:#000000;stroke-width:0.8;"/>
      </defs>
      <g>
       <use style="stroke:#000000;stroke-width:0.8;" x="73.824102" xlink:href="#m6b88649f08" y="307.584"/>
      </g>
     </g>
     <g id="text_1">
      <!-- 0.00 -->
      <defs>
       <path d="M 31.78125 66.40625 
Q 24.171875 66.40625 20.328125 58.90625 
Q 16.5 51.421875 16.5 36.375 
Q 16.5 21.390625 20.328125 13.890625 
Q 24.171875 6.390625 31.78125 6.390625 
Q 39.453125 6.390625 43.28125 13.890625 
Q 47.125 21.390625 47.125 36.375 
Q 47.125 51.421875 43.28125 58.90625 
Q 39.453125 66.40625 31.78125 66.40625 
z
M 31.78125 74.21875 
Q 44.046875 74.21875 50.515625 64.515625 
Q 56.984375 54.828125 56.984375 36.375 
Q 56.984375 17.96875 50.515625 8.265625 
Q 44.046875 -1.421875 31.78125 -1.421875 
Q 19.53125 -1.421875 13.0625 8.265625 
Q 6.59375 17.96875 6.59375 36.375 
Q 6.59375 54.828125 13.0625 64.515625 
Q 19.53125 74.21875 31.78125 74.21875 
z
" id="DejaVuSans-48"/>
       <path d="M 10.6875 12.40625 
L 21 12.40625 
L 21 0 
L 10.6875 0 
z
" id="DejaVuSans-46"/>
      </defs>
      <g transform="translate(62.691289 322.182437)scale(0.1 -0.1)">
       <use xlink:href="#DejaVuSans-48"/>
       <use x="63.623047" xlink:href="#DejaVuSans-46"/>
       <use x="95.410156" xlink:href="#DejaVuSans-48"/>
       <use x="159.033203" xlink:href="#DejaVuSans-48"/>
      </g>
     </g>
    </g>
    <g id="xtick_2">
     <g id="line2d_2">
      <g>
       <use style="stroke:#000000;stroke-width:0.8;" x="127.995816" xlink:href="#m6b88649f08" y="307.584"/>
      </g>
     </g>
     <g id="text_2">
      <!-- 0.02 -->
      <defs>
       <path d="M 19.1875 8.296875 
L 53.609375 8.296875 
L 53.609375 0 
L 7.328125 0 
L 7.328125 8.296875 
Q 12.9375 14.109375 22.625 23.890625 
Q 32.328125 33.6875 34.8125 36.53125 
Q 39.546875 41.84375 41.421875 45.53125 
Q 43.3125 49.21875 43.3125 52.78125 
Q 43.3125 58.59375 39.234375 62.25 
Q 35.15625 65.921875 28.609375 65.921875 
Q 23.96875 65.921875 18.8125 64.3125 
Q 13.671875 62.703125 7.8125 59.421875 
L 7.8125 69.390625 
Q 13.765625 71.78125 18.9375 73 
Q 24.125 74.21875 28.421875 74.21875 
Q 39.75 74.21875 46.484375 68.546875 
Q 53.21875 62.890625 53.21875 53.421875 
Q 53.21875 48.921875 51.53125 44.890625 
Q 49.859375 40.875 45.40625 35.40625 
Q 44.1875 33.984375 37.640625 27.21875 
Q 31.109375 20.453125 19.1875 8.296875 
z
" id="DejaVuSans-50"/>
      </defs>
      <g transform="translate(116.863003 322.182437)scale(0.1 -0.1)">
       <use xlink:href="#DejaVuSans-48"/>
       <use x="63.623047" xlink:href="#DejaVuSans-46"/>
       <use x="95.410156" xlink:href="#DejaVuSans-48"/>
       <use x="159.033203" xlink:href="#DejaVuSans-50"/>
      </g>
     </g>
    </g>
    <g id="xtick_3">
     <g id="line2d_3">
      <g>
       <use style="stroke:#000000;stroke-width:0.8;" x="182.167529" xlink:href="#m6b88649f08" y="307.584"/>
      </g>
     </g>
     <g id="text_3">
      <!-- 0.04 -->
      <defs>
       <path d="M 37.796875 64.3125 
L 12.890625 25.390625 
L 37.796875 25.390625 
z
M 35.203125 72.90625 
L 47.609375 72.90625 
L 47.609375 25.390625 
L 58.015625 25.390625 
L 58.015625 17.1875 
L 47.609375 17.1875 
L 47.609375 0 
L 37.796875 0 
L 37.796875 17.1875 
L 4.890625 17.1875 
L 4.890625 26.703125 
z
" id="DejaVuSans-52"/>
      </defs>
      <g transform="translate(171.034717 322.182437)scale(0.1 -0.1)">
       <use xlink:href="#DejaVuSans-48"/>
       <use x="63.623047" xlink:href="#DejaVuSans-46"/>
       <use x="95.410156" xlink:href="#DejaVuSans-48"/>
       <use x="159.033203" xlink:href="#DejaVuSans-52"/>
      </g>
     </g>
    </g>
    <g id="xtick_4">
     <g id="line2d_4">
      <g>
       <use style="stroke:#000000;stroke-width:0.8;" x="236.339243" xlink:href="#m6b88649f08" y="307.584"/>
      </g>
     </g>
     <g id="text_4">
      <!-- 0.06 -->
      <defs>
       <path d="M 33.015625 40.375 
Q 26.375 40.375 22.484375 35.828125 
Q 18.609375 31.296875 18.609375 23.390625 
Q 18.609375 15.53125 22.484375 10.953125 
Q 26.375 6.390625 33.015625 6.390625 
Q 39.65625 6.390625 43.53125 10.953125 
Q 47.40625 15.53125 47.40625 23.390625 
Q 47.40625 31.296875 43.53125 35.828125 
Q 39.65625 40.375 33.015625 40.375 
z
M 52.59375 71.296875 
L 52.59375 62.3125 
Q 48.875 64.0625 45.09375 64.984375 
Q 41.3125 65.921875 37.59375 65.921875 
Q 27.828125 65.921875 22.671875 59.328125 
Q 17.53125 52.734375 16.796875 39.40625 
Q 19.671875 43.65625 24.015625 45.921875 
Q 28.375 48.1875 33.59375 48.1875 
Q 44.578125 48.1875 50.953125 41.515625 
Q 57.328125 34.859375 57.328125 23.390625 
Q 57.328125 12.15625 50.6875 5.359375 
Q 44.046875 -1.421875 33.015625 -1.421875 
Q 20.359375 -1.421875 13.671875 8.265625 
Q 6.984375 17.96875 6.984375 36.375 
Q 6.984375 53.65625 15.1875 63.9375 
Q 23.390625 74.21875 37.203125 74.21875 
Q 40.921875 74.21875 44.703125 73.484375 
Q 48.484375 72.75 52.59375 71.296875 
z
" id="DejaVuSans-54"/>
      </defs>
      <g transform="translate(225.206431 322.182437)scale(0.1 -0.1)">
       <use xlink:href="#DejaVuSans-48"/>
       <use x="63.623047" xlink:href="#DejaVuSans-46"/>
       <use x="95.410156" xlink:href="#DejaVuSans-48"/>
       <use x="159.033203" xlink:href="#DejaVuSans-54"/>
      </g>
     </g>
    </g>
    <g id="xtick_5">
     <g id="line2d_5">
      <g>
       <use style="stroke:#000000;stroke-width:0.8;" x="290.510957" xlink:href="#m6b88649f08" y="307.584"/>
      </g>
     </g>
     <g id="text_5">
      <!-- 0.08 -->
      <defs>
       <path d="M 31.78125 34.625 
Q 24.75 34.625 20.71875 30.859375 
Q 16.703125 27.09375 16.703125 20.515625 
Q 16.703125 13.921875 20.71875 10.15625 
Q 24.75 6.390625 31.78125 6.390625 
Q 38.8125 6.390625 42.859375 10.171875 
Q 46.921875 13.96875 46.921875 20.515625 
Q 46.921875 27.09375 42.890625 30.859375 
Q 38.875 34.625 31.78125 34.625 
z
M 21.921875 38.8125 
Q 15.578125 40.375 12.03125 44.71875 
Q 8.5 49.078125 8.5 55.328125 
Q 8.5 64.0625 14.71875 69.140625 
Q 20.953125 74.21875 31.78125 74.21875 
Q 42.671875 74.21875 48.875 69.140625 
Q 55.078125 64.0625 55.078125 55.328125 
Q 55.078125 49.078125 51.53125 44.71875 
Q 48 40.375 41.703125 38.8125 
Q 48.828125 37.15625 52.796875 32.3125 
Q 56.78125 27.484375 56.78125 20.515625 
Q 56.78125 9.90625 50.3125 4.234375 
Q 43.84375 -1.421875 31.78125 -1.421875 
Q 19.734375 -1.421875 13.25 4.234375 
Q 6.78125 9.90625 6.78125 20.515625 
Q 6.78125 27.484375 10.78125 32.3125 
Q 14.796875 37.15625 21.921875 38.8125 
z
M 18.3125 54.390625 
Q 18.3125 48.734375 21.84375 45.5625 
Q 25.390625 42.390625 31.78125 42.390625 
Q 38.140625 42.390625 41.71875 45.5625 
Q 45.3125 48.734375 45.3125 54.390625 
Q 45.3125 60.0625 41.71875 63.234375 
Q 38.140625 66.40625 31.78125 66.40625 
Q 25.390625 66.40625 21.84375 63.234375 
Q 18.3125 60.0625 18.3125 54.390625 
z
" id="DejaVuSans-56"/>
      </defs>
      <g transform="translate(279.378144 322.182437)scale(0.1 -0.1)">
       <use xlink:href="#DejaVuSans-48"/>
       <use x="63.623047" xlink:href="#DejaVuSans-46"/>
       <use x="95.410156" xlink:href="#DejaVuSans-48"/>
       <use x="159.033203" xlink:href="#DejaVuSans-56"/>
      </g>
     </g>
    </g>
    <g id="xtick_6">
     <g id="line2d_6">
      <g>
       <use style="stroke:#000000;stroke-width:0.8;" x="344.68267" xlink:href="#m6b88649f08" y="307.584"/>
      </g>
     </g>
     <g id="text_6">
      <!-- 0.10 -->
      <defs>
       <path d="M 12.40625 8.296875 
L 28.515625 8.296875 
L 28.515625 63.921875 
L 10.984375 60.40625 
L 10.984375 69.390625 
L 28.421875 72.90625 
L 38.28125 72.90625 
L 38.28125 8.296875 
L 54.390625 8.296875 
L 54.390625 0 
L 12.40625 0 
z
" id="DejaVuSans-49"/>
      </defs>
      <g transform="translate(333.549858 322.182437)scale(0.1 -0.1)">
       <use xlink:href="#DejaVuSans-48"/>
       <use x="63.623047" xlink:href="#DejaVuSans-46"/>
       <use x="95.410156" xlink:href="#DejaVuSans-49"/>
       <use x="159.033203" xlink:href="#DejaVuSans-48"/>
      </g>
     </g>
    </g>
    <g id="xtick_7">
     <g id="line2d_7">
      <g>
       <use style="stroke:#000000;stroke-width:0.8;" x="398.854384" xlink:href="#m6b88649f08" y="307.584"/>
      </g>
     </g>
     <g id="text_7">
      <!-- 0.12 -->
      <g transform="translate(387.721572 322.182437)scale(0.1 -0.1)">
       <use xlink:href="#DejaVuSans-48"/>
       <use x="63.623047" xlink:href="#DejaVuSans-46"/>
       <use x="95.410156" xlink:href="#DejaVuSans-49"/>
       <use x="159.033203" xlink:href="#DejaVuSans-50"/>
      </g>
     </g>
    </g>
    <g id="text_8">
     <!-- j_m2_b2_mmdt -->
     <defs>
      <path d="M 9.421875 54.6875 
L 18.40625 54.6875 
L 18.40625 -0.984375 
Q 18.40625 -11.421875 14.421875 -16.109375 
Q 10.453125 -20.796875 1.609375 -20.796875 
L -1.8125 -20.796875 
L -1.8125 -13.1875 
L 0.59375 -13.1875 
Q 5.71875 -13.1875 7.5625 -10.8125 
Q 9.421875 -8.453125 9.421875 -0.984375 
z
M 9.421875 75.984375 
L 18.40625 75.984375 
L 18.40625 64.59375 
L 9.421875 64.59375 
z
" id="DejaVuSans-106"/>
      <path d="M 50.984375 -16.609375 
L 50.984375 -23.578125 
L -0.984375 -23.578125 
L -0.984375 -16.609375 
z
" id="DejaVuSans-95"/>
      <path d="M 52 44.1875 
Q 55.375 50.25 60.0625 53.125 
Q 64.75 56 71.09375 56 
Q 79.640625 56 84.28125 50.015625 
Q 88.921875 44.046875 88.921875 33.015625 
L 88.921875 0 
L 79.890625 0 
L 79.890625 32.71875 
Q 79.890625 40.578125 77.09375 44.375 
Q 74.3125 48.1875 68.609375 48.1875 
Q 61.625 48.1875 57.5625 43.546875 
Q 53.515625 38.921875 53.515625 30.90625 
L 53.515625 0 
L 44.484375 0 
L 44.484375 32.71875 
Q 44.484375 40.625 41.703125 44.40625 
Q 38.921875 48.1875 33.109375 48.1875 
Q 26.21875 48.1875 22.15625 43.53125 
Q 18.109375 38.875 18.109375 30.90625 
L 18.109375 0 
L 9.078125 0 
L 9.078125 54.6875 
L 18.109375 54.6875 
L 18.109375 46.1875 
Q 21.1875 51.21875 25.484375 53.609375 
Q 29.78125 56 35.6875 56 
Q 41.65625 56 45.828125 52.96875 
Q 50 49.953125 52 44.1875 
z
" id="DejaVuSans-109"/>
      <path d="M 48.6875 27.296875 
Q 48.6875 37.203125 44.609375 42.84375 
Q 40.53125 48.484375 33.40625 48.484375 
Q 26.265625 48.484375 22.1875 42.84375 
Q 18.109375 37.203125 18.109375 27.296875 
Q 18.109375 17.390625 22.1875 11.75 
Q 26.265625 6.109375 33.40625 6.109375 
Q 40.53125 6.109375 44.609375 11.75 
Q 48.6875 17.390625 48.6875 27.296875 
z
M 18.109375 46.390625 
Q 20.953125 51.265625 25.265625 53.625 
Q 29.59375 56 35.59375 56 
Q 45.5625 56 51.78125 48.09375 
Q 58.015625 40.1875 58.015625 27.296875 
Q 58.015625 14.40625 51.78125 6.484375 
Q 45.5625 -1.421875 35.59375 -1.421875 
Q 29.59375 -1.421875 25.265625 0.953125 
Q 20.953125 3.328125 18.109375 8.203125 
L 18.109375 0 
L 9.078125 0 
L 9.078125 75.984375 
L 18.109375 75.984375 
z
" id="DejaVuSans-98"/>
      <path d="M 45.40625 46.390625 
L 45.40625 75.984375 
L 54.390625 75.984375 
L 54.390625 0 
L 45.40625 0 
L 45.40625 8.203125 
Q 42.578125 3.328125 38.25 0.953125 
Q 33.9375 -1.421875 27.875 -1.421875 
Q 17.96875 -1.421875 11.734375 6.484375 
Q 5.515625 14.40625 5.515625 27.296875 
Q 5.515625 40.1875 11.734375 48.09375 
Q 17.96875 56 27.875 56 
Q 33.9375 56 38.25 53.625 
Q 42.578125 51.265625 45.40625 46.390625 
z
M 14.796875 27.296875 
Q 14.796875 17.390625 18.875 11.75 
Q 22.953125 6.109375 30.078125 6.109375 
Q 37.203125 6.109375 41.296875 11.75 
Q 45.40625 17.390625 45.40625 27.296875 
Q 45.40625 37.203125 41.296875 42.84375 
Q 37.203125 48.484375 30.078125 48.484375 
Q 22.953125 48.484375 18.875 42.84375 
Q 14.796875 37.203125 14.796875 27.296875 
z
" id="DejaVuSans-100"/>
      <path d="M 18.3125 70.21875 
L 18.3125 54.6875 
L 36.8125 54.6875 
L 36.8125 47.703125 
L 18.3125 47.703125 
L 18.3125 18.015625 
Q 18.3125 11.328125 20.140625 9.421875 
Q 21.96875 7.515625 27.59375 7.515625 
L 36.8125 7.515625 
L 36.8125 0 
L 27.59375 0 
Q 17.1875 0 13.234375 3.875 
Q 9.28125 7.765625 9.28125 18.015625 
L 9.28125 47.703125 
L 2.6875 47.703125 
L 2.6875 54.6875 
L 9.28125 54.6875 
L 9.28125 70.21875 
z
" id="DejaVuSans-116"/>
     </defs>
     <g transform="translate(197.988906 335.860562)scale(0.1 -0.1)">
      <use xlink:href="#DejaVuSans-106"/>
      <use x="27.783203" xlink:href="#DejaVuSans-95"/>
      <use x="77.783203" xlink:href="#DejaVuSans-109"/>
      <use x="175.195312" xlink:href="#DejaVuSans-50"/>
      <use x="238.818359" xlink:href="#DejaVuSans-95"/>
      <use x="288.818359" xlink:href="#DejaVuSans-98"/>
      <use x="352.294922" xlink:href="#DejaVuSans-50"/>
      <use x="415.917969" xlink:href="#DejaVuSans-95"/>
      <use x="465.917969" xlink:href="#DejaVuSans-109"/>
      <use x="563.330078" xlink:href="#DejaVuSans-109"/>
      <use x="660.742188" xlink:href="#DejaVuSans-100"/>
      <use x="724.21875" xlink:href="#DejaVuSans-116"/>
     </g>
    </g>
   </g>
   <g id="matplotlib.axis_2">
    <g id="ytick_1">
     <g id="line2d_8">
      <defs>
       <path d="M 0 0 
L -3.5 0 
" id="m8353cb7109" style="stroke:#000000;stroke-width:0.8;"/>
      </defs>
      <g>
       <use style="stroke:#000000;stroke-width:0.8;" x="57.6" xlink:href="#m8353cb7109" y="307.584"/>
      </g>
     </g>
     <g id="text_9">
      <!-- 0.000 -->
      <g transform="translate(21.971875 311.383219)scale(0.1 -0.1)">
       <use xlink:href="#DejaVuSans-48"/>
       <use x="63.623047" xlink:href="#DejaVuSans-46"/>
       <use x="95.410156" xlink:href="#DejaVuSans-48"/>
       <use x="159.033203" xlink:href="#DejaVuSans-48"/>
       <use x="222.65625" xlink:href="#DejaVuSans-48"/>
      </g>
     </g>
    </g>
    <g id="ytick_2">
     <g id="line2d_9">
      <g>
       <use style="stroke:#000000;stroke-width:0.8;" x="57.6" xlink:href="#m8353cb7109" y="268.334463"/>
      </g>
     </g>
     <g id="text_10">
      <!-- 0.001 -->
      <g transform="translate(21.971875 272.133682)scale(0.1 -0.1)">
       <use xlink:href="#DejaVuSans-48"/>
       <use x="63.623047" xlink:href="#DejaVuSans-46"/>
       <use x="95.410156" xlink:href="#DejaVuSans-48"/>
       <use x="159.033203" xlink:href="#DejaVuSans-48"/>
       <use x="222.65625" xlink:href="#DejaVuSans-49"/>
      </g>
     </g>
    </g>
    <g id="ytick_3">
     <g id="line2d_10">
      <g>
       <use style="stroke:#000000;stroke-width:0.8;" x="57.6" xlink:href="#m8353cb7109" y="229.084926"/>
      </g>
     </g>
     <g id="text_11">
      <!-- 0.002 -->
      <g transform="translate(21.971875 232.884145)scale(0.1 -0.1)">
       <use xlink:href="#DejaVuSans-48"/>
       <use x="63.623047" xlink:href="#DejaVuSans-46"/>
       <use x="95.410156" xlink:href="#DejaVuSans-48"/>
       <use x="159.033203" xlink:href="#DejaVuSans-48"/>
       <use x="222.65625" xlink:href="#DejaVuSans-50"/>
      </g>
     </g>
    </g>
    <g id="ytick_4">
     <g id="line2d_11">
      <g>
       <use style="stroke:#000000;stroke-width:0.8;" x="57.6" xlink:href="#m8353cb7109" y="189.835389"/>
      </g>
     </g>
     <g id="text_12">
      <!-- 0.003 -->
      <defs>
       <path d="M 40.578125 39.3125 
Q 47.65625 37.796875 51.625 33 
Q 55.609375 28.21875 55.609375 21.1875 
Q 55.609375 10.40625 48.1875 4.484375 
Q 40.765625 -1.421875 27.09375 -1.421875 
Q 22.515625 -1.421875 17.65625 -0.515625 
Q 12.796875 0.390625 7.625 2.203125 
L 7.625 11.71875 
Q 11.71875 9.328125 16.59375 8.109375 
Q 21.484375 6.890625 26.8125 6.890625 
Q 36.078125 6.890625 40.9375 10.546875 
Q 45.796875 14.203125 45.796875 21.1875 
Q 45.796875 27.640625 41.28125 31.265625 
Q 36.765625 34.90625 28.71875 34.90625 
L 20.21875 34.90625 
L 20.21875 43.015625 
L 29.109375 43.015625 
Q 36.375 43.015625 40.234375 45.921875 
Q 44.09375 48.828125 44.09375 54.296875 
Q 44.09375 59.90625 40.109375 62.90625 
Q 36.140625 65.921875 28.71875 65.921875 
Q 24.65625 65.921875 20.015625 65.03125 
Q 15.375 64.15625 9.8125 62.3125 
L 9.8125 71.09375 
Q 15.4375 72.65625 20.34375 73.4375 
Q 25.25 74.21875 29.59375 74.21875 
Q 40.828125 74.21875 47.359375 69.109375 
Q 53.90625 64.015625 53.90625 55.328125 
Q 53.90625 49.265625 50.4375 45.09375 
Q 46.96875 40.921875 40.578125 39.3125 
z
" id="DejaVuSans-51"/>
      </defs>
      <g transform="translate(21.971875 193.634608)scale(0.1 -0.1)">
       <use xlink:href="#DejaVuSans-48"/>
       <use x="63.623047" xlink:href="#DejaVuSans-46"/>
       <use x="95.410156" xlink:href="#DejaVuSans-48"/>
       <use x="159.033203" xlink:href="#DejaVuSans-48"/>
       <use x="222.65625" xlink:href="#DejaVuSans-51"/>
      </g>
     </g>
    </g>
    <g id="ytick_5">
     <g id="line2d_12">
      <g>
       <use style="stroke:#000000;stroke-width:0.8;" x="57.6" xlink:href="#m8353cb7109" y="150.585853"/>
      </g>
     </g>
     <g id="text_13">
      <!-- 0.004 -->
      <g transform="translate(21.971875 154.385071)scale(0.1 -0.1)">
       <use xlink:href="#DejaVuSans-48"/>
       <use x="63.623047" xlink:href="#DejaVuSans-46"/>
       <use x="95.410156" xlink:href="#DejaVuSans-48"/>
       <use x="159.033203" xlink:href="#DejaVuSans-48"/>
       <use x="222.65625" xlink:href="#DejaVuSans-52"/>
      </g>
     </g>
    </g>
    <g id="ytick_6">
     <g id="line2d_13">
      <g>
       <use style="stroke:#000000;stroke-width:0.8;" x="57.6" xlink:href="#m8353cb7109" y="111.336316"/>
      </g>
     </g>
     <g id="text_14">
      <!-- 0.005 -->
      <defs>
       <path d="M 10.796875 72.90625 
L 49.515625 72.90625 
L 49.515625 64.59375 
L 19.828125 64.59375 
L 19.828125 46.734375 
Q 21.96875 47.46875 24.109375 47.828125 
Q 26.265625 48.1875 28.421875 48.1875 
Q 40.625 48.1875 47.75 41.5 
Q 54.890625 34.8125 54.890625 23.390625 
Q 54.890625 11.625 47.5625 5.09375 
Q 40.234375 -1.421875 26.90625 -1.421875 
Q 22.3125 -1.421875 17.546875 -0.640625 
Q 12.796875 0.140625 7.71875 1.703125 
L 7.71875 11.625 
Q 12.109375 9.234375 16.796875 8.0625 
Q 21.484375 6.890625 26.703125 6.890625 
Q 35.15625 6.890625 40.078125 11.328125 
Q 45.015625 15.765625 45.015625 23.390625 
Q 45.015625 31 40.078125 35.4375 
Q 35.15625 39.890625 26.703125 39.890625 
Q 22.75 39.890625 18.8125 39.015625 
Q 14.890625 38.140625 10.796875 36.28125 
z
" id="DejaVuSans-53"/>
      </defs>
      <g transform="translate(21.971875 115.135534)scale(0.1 -0.1)">
       <use xlink:href="#DejaVuSans-48"/>
       <use x="63.623047" xlink:href="#DejaVuSans-46"/>
       <use x="95.410156" xlink:href="#DejaVuSans-48"/>
       <use x="159.033203" xlink:href="#DejaVuSans-48"/>
       <use x="222.65625" xlink:href="#DejaVuSans-53"/>
      </g>
     </g>
    </g>
    <g id="ytick_7">
     <g id="line2d_14">
      <g>
       <use style="stroke:#000000;stroke-width:0.8;" x="57.6" xlink:href="#m8353cb7109" y="72.086779"/>
      </g>
     </g>
     <g id="text_15">
      <!-- 0.006 -->
      <g transform="translate(21.971875 75.885998)scale(0.1 -0.1)">
       <use xlink:href="#DejaVuSans-48"/>
       <use x="63.623047" xlink:href="#DejaVuSans-46"/>
       <use x="95.410156" xlink:href="#DejaVuSans-48"/>
       <use x="159.033203" xlink:href="#DejaVuSans-48"/>
       <use x="222.65625" xlink:href="#DejaVuSans-54"/>
      </g>
     </g>
    </g>
    <g id="text_16">
     <!-- Prob. Density (a.u.) -->
     <defs>
      <path d="M 19.671875 64.796875 
L 19.671875 37.40625 
L 32.078125 37.40625 
Q 38.96875 37.40625 42.71875 40.96875 
Q 46.484375 44.53125 46.484375 51.125 
Q 46.484375 57.671875 42.71875 61.234375 
Q 38.96875 64.796875 32.078125 64.796875 
z
M 9.8125 72.90625 
L 32.078125 72.90625 
Q 44.34375 72.90625 50.609375 67.359375 
Q 56.890625 61.8125 56.890625 51.125 
Q 56.890625 40.328125 50.609375 34.8125 
Q 44.34375 29.296875 32.078125 29.296875 
L 19.671875 29.296875 
L 19.671875 0 
L 9.8125 0 
z
" id="DejaVuSans-80"/>
      <path d="M 41.109375 46.296875 
Q 39.59375 47.171875 37.8125 47.578125 
Q 36.03125 48 33.890625 48 
Q 26.265625 48 22.1875 43.046875 
Q 18.109375 38.09375 18.109375 28.8125 
L 18.109375 0 
L 9.078125 0 
L 9.078125 54.6875 
L 18.109375 54.6875 
L 18.109375 46.1875 
Q 20.953125 51.171875 25.484375 53.578125 
Q 30.03125 56 36.53125 56 
Q 37.453125 56 38.578125 55.875 
Q 39.703125 55.765625 41.0625 55.515625 
z
" id="DejaVuSans-114"/>
      <path d="M 30.609375 48.390625 
Q 23.390625 48.390625 19.1875 42.75 
Q 14.984375 37.109375 14.984375 27.296875 
Q 14.984375 17.484375 19.15625 11.84375 
Q 23.34375 6.203125 30.609375 6.203125 
Q 37.796875 6.203125 41.984375 11.859375 
Q 46.1875 17.53125 46.1875 27.296875 
Q 46.1875 37.015625 41.984375 42.703125 
Q 37.796875 48.390625 30.609375 48.390625 
z
M 30.609375 56 
Q 42.328125 56 49.015625 48.375 
Q 55.71875 40.765625 55.71875 27.296875 
Q 55.71875 13.875 49.015625 6.21875 
Q 42.328125 -1.421875 30.609375 -1.421875 
Q 18.84375 -1.421875 12.171875 6.21875 
Q 5.515625 13.875 5.515625 27.296875 
Q 5.515625 40.765625 12.171875 48.375 
Q 18.84375 56 30.609375 56 
z
" id="DejaVuSans-111"/>
      <path id="DejaVuSans-32"/>
      <path d="M 19.671875 64.796875 
L 19.671875 8.109375 
L 31.59375 8.109375 
Q 46.6875 8.109375 53.6875 14.9375 
Q 60.6875 21.78125 60.6875 36.53125 
Q 60.6875 51.171875 53.6875 57.984375 
Q 46.6875 64.796875 31.59375 64.796875 
z
M 9.8125 72.90625 
L 30.078125 72.90625 
Q 51.265625 72.90625 61.171875 64.09375 
Q 71.09375 55.28125 71.09375 36.53125 
Q 71.09375 17.671875 61.125 8.828125 
Q 51.171875 0 30.078125 0 
L 9.8125 0 
z
" id="DejaVuSans-68"/>
      <path d="M 56.203125 29.59375 
L 56.203125 25.203125 
L 14.890625 25.203125 
Q 15.484375 15.921875 20.484375 11.0625 
Q 25.484375 6.203125 34.421875 6.203125 
Q 39.59375 6.203125 44.453125 7.46875 
Q 49.3125 8.734375 54.109375 11.28125 
L 54.109375 2.78125 
Q 49.265625 0.734375 44.1875 -0.34375 
Q 39.109375 -1.421875 33.890625 -1.421875 
Q 20.796875 -1.421875 13.15625 6.1875 
Q 5.515625 13.8125 5.515625 26.8125 
Q 5.515625 40.234375 12.765625 48.109375 
Q 20.015625 56 32.328125 56 
Q 43.359375 56 49.78125 48.890625 
Q 56.203125 41.796875 56.203125 29.59375 
z
M 47.21875 32.234375 
Q 47.125 39.59375 43.09375 43.984375 
Q 39.0625 48.390625 32.421875 48.390625 
Q 24.90625 48.390625 20.390625 44.140625 
Q 15.875 39.890625 15.1875 32.171875 
z
" id="DejaVuSans-101"/>
      <path d="M 54.890625 33.015625 
L 54.890625 0 
L 45.90625 0 
L 45.90625 32.71875 
Q 45.90625 40.484375 42.875 44.328125 
Q 39.84375 48.1875 33.796875 48.1875 
Q 26.515625 48.1875 22.3125 43.546875 
Q 18.109375 38.921875 18.109375 30.90625 
L 18.109375 0 
L 9.078125 0 
L 9.078125 54.6875 
L 18.109375 54.6875 
L 18.109375 46.1875 
Q 21.34375 51.125 25.703125 53.5625 
Q 30.078125 56 35.796875 56 
Q 45.21875 56 50.046875 50.171875 
Q 54.890625 44.34375 54.890625 33.015625 
z
" id="DejaVuSans-110"/>
      <path d="M 44.28125 53.078125 
L 44.28125 44.578125 
Q 40.484375 46.53125 36.375 47.5 
Q 32.28125 48.484375 27.875 48.484375 
Q 21.1875 48.484375 17.84375 46.4375 
Q 14.5 44.390625 14.5 40.28125 
Q 14.5 37.15625 16.890625 35.375 
Q 19.28125 33.59375 26.515625 31.984375 
L 29.59375 31.296875 
Q 39.15625 29.25 43.1875 25.515625 
Q 47.21875 21.78125 47.21875 15.09375 
Q 47.21875 7.46875 41.1875 3.015625 
Q 35.15625 -1.421875 24.609375 -1.421875 
Q 20.21875 -1.421875 15.453125 -0.5625 
Q 10.6875 0.296875 5.421875 2 
L 5.421875 11.28125 
Q 10.40625 8.6875 15.234375 7.390625 
Q 20.0625 6.109375 24.8125 6.109375 
Q 31.15625 6.109375 34.5625 8.28125 
Q 37.984375 10.453125 37.984375 14.40625 
Q 37.984375 18.0625 35.515625 20.015625 
Q 33.0625 21.96875 24.703125 23.78125 
L 21.578125 24.515625 
Q 13.234375 26.265625 9.515625 29.90625 
Q 5.8125 33.546875 5.8125 39.890625 
Q 5.8125 47.609375 11.28125 51.796875 
Q 16.75 56 26.8125 56 
Q 31.78125 56 36.171875 55.265625 
Q 40.578125 54.546875 44.28125 53.078125 
z
" id="DejaVuSans-115"/>
      <path d="M 9.421875 54.6875 
L 18.40625 54.6875 
L 18.40625 0 
L 9.421875 0 
z
M 9.421875 75.984375 
L 18.40625 75.984375 
L 18.40625 64.59375 
L 9.421875 64.59375 
z
" id="DejaVuSans-105"/>
      <path d="M 32.171875 -5.078125 
Q 28.375 -14.84375 24.75 -17.8125 
Q 21.140625 -20.796875 15.09375 -20.796875 
L 7.90625 -20.796875 
L 7.90625 -13.28125 
L 13.1875 -13.28125 
Q 16.890625 -13.28125 18.9375 -11.515625 
Q 21 -9.765625 23.484375 -3.21875 
L 25.09375 0.875 
L 2.984375 54.6875 
L 12.5 54.6875 
L 29.59375 11.921875 
L 46.6875 54.6875 
L 56.203125 54.6875 
z
" id="DejaVuSans-121"/>
      <path d="M 31 75.875 
Q 24.46875 64.65625 21.28125 53.65625 
Q 18.109375 42.671875 18.109375 31.390625 
Q 18.109375 20.125 21.3125 9.0625 
Q 24.515625 -2 31 -13.1875 
L 23.1875 -13.1875 
Q 15.875 -1.703125 12.234375 9.375 
Q 8.59375 20.453125 8.59375 31.390625 
Q 8.59375 42.28125 12.203125 53.3125 
Q 15.828125 64.359375 23.1875 75.875 
z
" id="DejaVuSans-40"/>
      <path d="M 34.28125 27.484375 
Q 23.390625 27.484375 19.1875 25 
Q 14.984375 22.515625 14.984375 16.5 
Q 14.984375 11.71875 18.140625 8.90625 
Q 21.296875 6.109375 26.703125 6.109375 
Q 34.1875 6.109375 38.703125 11.40625 
Q 43.21875 16.703125 43.21875 25.484375 
L 43.21875 27.484375 
z
M 52.203125 31.203125 
L 52.203125 0 
L 43.21875 0 
L 43.21875 8.296875 
Q 40.140625 3.328125 35.546875 0.953125 
Q 30.953125 -1.421875 24.3125 -1.421875 
Q 15.921875 -1.421875 10.953125 3.296875 
Q 6 8.015625 6 15.921875 
Q 6 25.140625 12.171875 29.828125 
Q 18.359375 34.515625 30.609375 34.515625 
L 43.21875 34.515625 
L 43.21875 35.40625 
Q 43.21875 41.609375 39.140625 45 
Q 35.0625 48.390625 27.6875 48.390625 
Q 23 48.390625 18.546875 47.265625 
Q 14.109375 46.140625 10.015625 43.890625 
L 10.015625 52.203125 
Q 14.9375 54.109375 19.578125 55.046875 
Q 24.21875 56 28.609375 56 
Q 40.484375 56 46.34375 49.84375 
Q 52.203125 43.703125 52.203125 31.203125 
z
" id="DejaVuSans-97"/>
      <path d="M 8.5 21.578125 
L 8.5 54.6875 
L 17.484375 54.6875 
L 17.484375 21.921875 
Q 17.484375 14.15625 20.5 10.265625 
Q 23.53125 6.390625 29.59375 6.390625 
Q 36.859375 6.390625 41.078125 11.03125 
Q 45.3125 15.671875 45.3125 23.6875 
L 45.3125 54.6875 
L 54.296875 54.6875 
L 54.296875 0 
L 45.3125 0 
L 45.3125 8.40625 
Q 42.046875 3.421875 37.71875 1 
Q 33.40625 -1.421875 27.6875 -1.421875 
Q 18.265625 -1.421875 13.375 4.4375 
Q 8.5 10.296875 8.5 21.578125 
z
M 31.109375 56 
z
" id="DejaVuSans-117"/>
      <path d="M 8.015625 75.875 
L 15.828125 75.875 
Q 23.140625 64.359375 26.78125 53.3125 
Q 30.421875 42.28125 30.421875 31.390625 
Q 30.421875 20.453125 26.78125 9.375 
Q 23.140625 -1.703125 15.828125 -13.1875 
L 8.015625 -13.1875 
Q 14.5 -2 17.703125 9.0625 
Q 20.90625 20.125 20.90625 31.390625 
Q 20.90625 42.671875 17.703125 53.65625 
Q 14.5 64.65625 8.015625 75.875 
z
" id="DejaVuSans-41"/>
     </defs>
     <g transform="translate(15.892187 222.917844)rotate(-90)scale(0.1 -0.1)">
      <use xlink:href="#DejaVuSans-80"/>
      <use x="60.287109" xlink:href="#DejaVuSans-114"/>
      <use x="101.369141" xlink:href="#DejaVuSans-111"/>
      <use x="162.550781" xlink:href="#DejaVuSans-98"/>
      <use x="226.027344" xlink:href="#DejaVuSans-46"/>
      <use x="257.814453" xlink:href="#DejaVuSans-32"/>
      <use x="289.601562" xlink:href="#DejaVuSans-68"/>
      <use x="366.603516" xlink:href="#DejaVuSans-101"/>
      <use x="428.126953" xlink:href="#DejaVuSans-110"/>
      <use x="491.505859" xlink:href="#DejaVuSans-115"/>
      <use x="543.605469" xlink:href="#DejaVuSans-105"/>
      <use x="571.388672" xlink:href="#DejaVuSans-116"/>
      <use x="610.597656" xlink:href="#DejaVuSans-121"/>
      <use x="669.777344" xlink:href="#DejaVuSans-32"/>
      <use x="701.564453" xlink:href="#DejaVuSans-40"/>
      <use x="740.578125" xlink:href="#DejaVuSans-97"/>
      <use x="801.857422" xlink:href="#DejaVuSans-46"/>
      <use x="833.644531" xlink:href="#DejaVuSans-117"/>
      <use x="897.023438" xlink:href="#DejaVuSans-46"/>
      <use x="928.810547" xlink:href="#DejaVuSans-41"/>
     </g>
    </g>
   </g>
   <g id="patch_9">
    <path d="M 57.6 307.584 
L 57.6 41.472 
" style="fill:none;stroke:#000000;stroke-linecap:square;stroke-linejoin:miter;stroke-width:0.8;"/>
   </g>
   <g id="patch_10">
    <path d="M 414.72 307.584 
L 414.72 41.472 
" style="fill:none;stroke:#000000;stroke-linecap:square;stroke-linejoin:miter;stroke-width:0.8;"/>
   </g>
   <g id="patch_11">
    <path d="M 57.6 307.584 
L 414.72 307.584 
" style="fill:none;stroke:#000000;stroke-linecap:square;stroke-linejoin:miter;stroke-width:0.8;"/>
   </g>
   <g id="patch_12">
    <path d="M 57.6 41.472 
L 414.72 41.472 
" style="fill:none;stroke:#000000;stroke-linecap:square;stroke-linejoin:miter;stroke-width:0.8;"/>
   </g>
   <g id="legend_1">
    <g id="patch_13">
     <path d="M 325.405938 137.54075 
L 407.72 137.54075 
Q 409.72 137.54075 409.72 135.54075 
L 409.72 48.472 
Q 409.72 46.472 407.72 46.472 
L 325.405938 46.472 
Q 323.405938 46.472 323.405938 48.472 
L 323.405938 135.54075 
Q 323.405938 137.54075 325.405938 137.54075 
z
" style="fill:#ffffff;opacity:0.8;stroke:#cccccc;stroke-linejoin:miter;"/>
    </g>
    <g id="patch_14">
     <path d="M 327.405938 58.070438 
L 347.405938 58.070438 
L 347.405938 51.070438 
L 327.405938 51.070438 
z
" style="fill:none;stroke:#1f77b4;stroke-linejoin:miter;"/>
    </g>
    <g id="text_17">
     <!-- quark -->
     <defs>
      <path d="M 14.796875 27.296875 
Q 14.796875 17.390625 18.875 11.75 
Q 22.953125 6.109375 30.078125 6.109375 
Q 37.203125 6.109375 41.296875 11.75 
Q 45.40625 17.390625 45.40625 27.296875 
Q 45.40625 37.203125 41.296875 42.84375 
Q 37.203125 48.484375 30.078125 48.484375 
Q 22.953125 48.484375 18.875 42.84375 
Q 14.796875 37.203125 14.796875 27.296875 
z
M 45.40625 8.203125 
Q 42.578125 3.328125 38.25 0.953125 
Q 33.9375 -1.421875 27.875 -1.421875 
Q 17.96875 -1.421875 11.734375 6.484375 
Q 5.515625 14.40625 5.515625 27.296875 
Q 5.515625 40.1875 11.734375 48.09375 
Q 17.96875 56 27.875 56 
Q 33.9375 56 38.25 53.625 
Q 42.578125 51.265625 45.40625 46.390625 
L 45.40625 54.6875 
L 54.390625 54.6875 
L 54.390625 -20.796875 
L 45.40625 -20.796875 
z
" id="DejaVuSans-113"/>
      <path d="M 9.078125 75.984375 
L 18.109375 75.984375 
L 18.109375 31.109375 
L 44.921875 54.6875 
L 56.390625 54.6875 
L 27.390625 29.109375 
L 57.625 0 
L 45.90625 0 
L 18.109375 26.703125 
L 18.109375 0 
L 9.078125 0 
z
" id="DejaVuSans-107"/>
     </defs>
     <g transform="translate(355.405938 58.070438)scale(0.1 -0.1)">
      <use xlink:href="#DejaVuSans-113"/>
      <use x="63.476562" xlink:href="#DejaVuSans-117"/>
      <use x="126.855469" xlink:href="#DejaVuSans-97"/>
      <use x="188.134766" xlink:href="#DejaVuSans-114"/>
      <use x="229.248047" xlink:href="#DejaVuSans-107"/>
     </g>
    </g>
    <g id="patch_15">
     <path d="M 327.405938 72.748563 
L 347.405938 72.748563 
L 347.405938 65.748563 
L 327.405938 65.748563 
z
" style="fill:none;stroke:#ff7f0e;stroke-linejoin:miter;"/>
    </g>
    <g id="text_18">
     <!-- gluon -->
     <defs>
      <path d="M 45.40625 27.984375 
Q 45.40625 37.75 41.375 43.109375 
Q 37.359375 48.484375 30.078125 48.484375 
Q 22.859375 48.484375 18.828125 43.109375 
Q 14.796875 37.75 14.796875 27.984375 
Q 14.796875 18.265625 18.828125 12.890625 
Q 22.859375 7.515625 30.078125 7.515625 
Q 37.359375 7.515625 41.375 12.890625 
Q 45.40625 18.265625 45.40625 27.984375 
z
M 54.390625 6.78125 
Q 54.390625 -7.171875 48.1875 -13.984375 
Q 42 -20.796875 29.203125 -20.796875 
Q 24.46875 -20.796875 20.265625 -20.09375 
Q 16.0625 -19.390625 12.109375 -17.921875 
L 12.109375 -9.1875 
Q 16.0625 -11.328125 19.921875 -12.34375 
Q 23.78125 -13.375 27.78125 -13.375 
Q 36.625 -13.375 41.015625 -8.765625 
Q 45.40625 -4.15625 45.40625 5.171875 
L 45.40625 9.625 
Q 42.625 4.78125 38.28125 2.390625 
Q 33.9375 0 27.875 0 
Q 17.828125 0 11.671875 7.65625 
Q 5.515625 15.328125 5.515625 27.984375 
Q 5.515625 40.671875 11.671875 48.328125 
Q 17.828125 56 27.875 56 
Q 33.9375 56 38.28125 53.609375 
Q 42.625 51.21875 45.40625 46.390625 
L 45.40625 54.6875 
L 54.390625 54.6875 
z
" id="DejaVuSans-103"/>
      <path d="M 9.421875 75.984375 
L 18.40625 75.984375 
L 18.40625 0 
L 9.421875 0 
z
" id="DejaVuSans-108"/>
     </defs>
     <g transform="translate(355.405938 72.748563)scale(0.1 -0.1)">
      <use xlink:href="#DejaVuSans-103"/>
      <use x="63.476562" xlink:href="#DejaVuSans-108"/>
      <use x="91.259766" xlink:href="#DejaVuSans-117"/>
      <use x="154.638672" xlink:href="#DejaVuSans-111"/>
      <use x="215.820312" xlink:href="#DejaVuSans-110"/>
     </g>
    </g>
    <g id="patch_16">
     <path d="M 327.405938 87.426688 
L 347.405938 87.426688 
L 347.405938 80.426688 
L 327.405938 80.426688 
z
" style="fill:none;stroke:#2ca02c;stroke-linejoin:miter;"/>
    </g>
    <g id="text_19">
     <!-- W -->
     <defs>
      <path d="M 3.328125 72.90625 
L 13.28125 72.90625 
L 28.609375 11.28125 
L 43.890625 72.90625 
L 54.984375 72.90625 
L 70.3125 11.28125 
L 85.59375 72.90625 
L 95.609375 72.90625 
L 77.296875 0 
L 64.890625 0 
L 49.515625 63.28125 
L 33.984375 0 
L 21.578125 0 
z
" id="DejaVuSans-87"/>
     </defs>
     <g transform="translate(355.405938 87.426688)scale(0.1 -0.1)">
      <use xlink:href="#DejaVuSans-87"/>
     </g>
    </g>
    <g id="patch_17">
     <path d="M 327.405938 102.104813 
L 347.405938 102.104813 
L 347.405938 95.104813 
L 327.405938 95.104813 
z
" style="fill:none;stroke:#d62728;stroke-linejoin:miter;"/>
    </g>
    <g id="text_20">
     <!-- Z -->
     <defs>
      <path d="M 5.609375 72.90625 
L 62.890625 72.90625 
L 62.890625 65.375 
L 16.796875 8.296875 
L 64.015625 8.296875 
L 64.015625 0 
L 4.5 0 
L 4.5 7.515625 
L 50.59375 64.59375 
L 5.609375 64.59375 
z
" id="DejaVuSans-90"/>
     </defs>
     <g transform="translate(355.405938 102.104813)scale(0.1 -0.1)">
      <use xlink:href="#DejaVuSans-90"/>
     </g>
    </g>
    <g id="patch_18">
     <path d="M 327.405938 116.782938 
L 347.405938 116.782938 
L 347.405938 109.782938 
L 327.405938 109.782938 
z
" style="fill:none;stroke:#9467bd;stroke-linejoin:miter;"/>
    </g>
    <g id="text_21">
     <!-- top -->
     <defs>
      <path d="M 18.109375 8.203125 
L 18.109375 -20.796875 
L 9.078125 -20.796875 
L 9.078125 54.6875 
L 18.109375 54.6875 
L 18.109375 46.390625 
Q 20.953125 51.265625 25.265625 53.625 
Q 29.59375 56 35.59375 56 
Q 45.5625 56 51.78125 48.09375 
Q 58.015625 40.1875 58.015625 27.296875 
Q 58.015625 14.40625 51.78125 6.484375 
Q 45.5625 -1.421875 35.59375 -1.421875 
Q 29.59375 -1.421875 25.265625 0.953125 
Q 20.953125 3.328125 18.109375 8.203125 
z
M 48.6875 27.296875 
Q 48.6875 37.203125 44.609375 42.84375 
Q 40.53125 48.484375 33.40625 48.484375 
Q 26.265625 48.484375 22.1875 42.84375 
Q 18.109375 37.203125 18.109375 27.296875 
Q 18.109375 17.390625 22.1875 11.75 
Q 26.265625 6.109375 33.40625 6.109375 
Q 40.53125 6.109375 44.609375 11.75 
Q 48.6875 17.390625 48.6875 27.296875 
z
" id="DejaVuSans-112"/>
     </defs>
     <g transform="translate(355.405938 116.782938)scale(0.1 -0.1)">
      <use xlink:href="#DejaVuSans-116"/>
      <use x="39.208984" xlink:href="#DejaVuSans-111"/>
      <use x="100.390625" xlink:href="#DejaVuSans-112"/>
     </g>
    </g>
    <g id="patch_19">
     <path d="M 327.405938 131.461063 
L 347.405938 131.461063 
L 347.405938 124.461063 
L 327.405938 124.461063 
z
" style="fill:none;stroke:#000000;stroke-linejoin:miter;"/>
    </g>
    <g id="text_22">
     <!-- undefined -->
     <defs>
      <path d="M 37.109375 75.984375 
L 37.109375 68.5 
L 28.515625 68.5 
Q 23.6875 68.5 21.796875 66.546875 
Q 19.921875 64.59375 19.921875 59.515625 
L 19.921875 54.6875 
L 34.71875 54.6875 
L 34.71875 47.703125 
L 19.921875 47.703125 
L 19.921875 0 
L 10.890625 0 
L 10.890625 47.703125 
L 2.296875 47.703125 
L 2.296875 54.6875 
L 10.890625 54.6875 
L 10.890625 58.5 
Q 10.890625 67.625 15.140625 71.796875 
Q 19.390625 75.984375 28.609375 75.984375 
z
" id="DejaVuSans-102"/>
     </defs>
     <g transform="translate(355.405938 131.461063)scale(0.1 -0.1)">
      <use xlink:href="#DejaVuSans-117"/>
      <use x="63.378906" xlink:href="#DejaVuSans-110"/>
      <use x="126.757812" xlink:href="#DejaVuSans-100"/>
      <use x="190.234375" xlink:href="#DejaVuSans-101"/>
      <use x="251.757812" xlink:href="#DejaVuSans-102"/>
      <use x="286.962891" xlink:href="#DejaVuSans-105"/>
      <use x="314.746094" xlink:href="#DejaVuSans-110"/>
      <use x="378.125" xlink:href="#DejaVuSans-101"/>
      <use x="439.648438" xlink:href="#DejaVuSans-100"/>
     </g>
    </g>
   </g>
  </g>
 </g>
 <defs>
  <clipPath id="pb154cedfe1">
   <rect height="266.112" width="357.12" x="57.6" y="41.472"/>
  </clipPath>
 </defs>
</svg>
