<?xml version="1.0" encoding="utf-8" standalone="no"?>
<!DOCTYPE svg PUBLIC "-//W3C//DTD SVG 1.1//EN"
  "http://www.w3.org/Graphics/SVG/1.1/DTD/svg11.dtd">
<!-- Created with matplotlib (https://matplotlib.org/) -->
<svg height="345.6pt" version="1.1" viewBox="0 0 460.8 345.6" width="460.8pt" xmlns="http://www.w3.org/2000/svg" xmlns:xlink="http://www.w3.org/1999/xlink">
 <defs>
  <style type="text/css">
*{stroke-linecap:butt;stroke-linejoin:round;}
  </style>
 </defs>
 <g id="figure_1">
  <g id="patch_1">
   <path d="M 0 345.6 
L 460.8 345.6 
L 460.8 0 
L 0 0 
z
" style="fill:#ffffff;"/>
  </g>
  <g id="axes_1">
   <g id="patch_2">
    <path d="M 57.6 307.584 
L 414.72 307.584 
L 414.72 41.472 
L 57.6 41.472 
z
" style="fill:#ffffff;"/>
   </g>
   <g id="patch_3">
    <path clip-path="url(#pcad35e2110)" d="M 73.832727 307.584 
L 125.777453 307.584 
L 125.777453 305.783959 
L 129.023998 305.783959 
L 129.023998 303.517773 
L 132.270544 303.517773 
L 132.270544 303.89069 
L 135.517089 303.89069 
L 135.517089 302.693053 
L 138.763635 302.693053 
L 138.763635 297.909679 
L 142.010179 297.909679 
L 142.010179 296.138321 
L 145.256725 296.138321 
L 145.256725 292.509556 
L 148.503271 292.509556 
L 148.503271 287.324578 
L 151.749817 287.324578 
L 151.749817 289.970855 
L 154.996361 289.970855 
L 154.996361 272.608703 
L 158.242906 272.608703 
L 158.242906 268.693083 
L 161.489453 268.693083 
L 161.489453 258.480896 
L 164.735997 258.480896 
L 164.735997 246.748366 
L 167.982542 246.748366 
L 167.982542 248.577086 
L 171.229089 248.577086 
L 171.229089 250.828934 
L 174.475633 250.828934 
L 174.475633 242.804051 
L 177.722178 242.804051 
L 177.722178 239.562542 
L 180.968722 239.562542 
L 180.968722 231.078689 
L 184.215267 231.078689 
L 184.215267 230.232449 
L 187.461817 230.232449 
L 187.461817 234.528168 
L 190.708361 234.528168 
L 190.708361 220.206727 
L 193.954906 220.206727 
L 193.954906 216.477563 
L 197.20145 216.477563 
L 197.20145 219.654527 
L 200.447995 219.654527 
L 200.447995 222.021115 
L 203.694539 222.021115 
L 203.694539 204.795224 
L 206.941089 204.795224 
L 206.941089 203.834249 
L 210.187633 203.834249 
L 210.187633 190.746297 
L 213.434178 190.746297 
L 213.434178 210.43201 
L 216.680728 210.43201 
L 216.680728 207.742693 
L 219.927267 207.742693 
L 219.927267 201.62544 
L 223.173817 201.62544 
L 223.173817 209.765058 
L 226.420356 209.765058 
L 226.420356 201.740184 
L 229.666906 201.740184 
L 229.666906 191.255479 
L 232.913445 191.255479 
L 232.913445 201.317055 
L 236.159995 201.317055 
L 236.159995 195.665932 
L 239.406545 195.665932 
L 239.406545 195.300192 
L 242.653084 195.300192 
L 242.653084 184.47843 
L 245.899634 184.47843 
L 245.899634 190.853876 
L 249.146173 190.853876 
L 249.146173 183.022618 
L 252.392723 183.022618 
L 252.392723 202.07006 
L 255.639262 202.07006 
L 255.639262 185.044983 
L 258.885812 185.044983 
L 258.885812 186.235445 
L 262.132361 186.235445 
L 262.132361 183.180388 
L 265.378901 183.180388 
L 265.378901 186.113521 
L 268.62545 186.113521 
L 268.62545 173.59214 
L 271.87199 173.59214 
L 271.87199 177.407349 
L 275.118539 177.407349 
L 275.118539 173.965052 
L 278.365089 173.965052 
L 278.365089 181.452063 
L 281.611628 181.452063 
L 281.611628 184.550146 
L 284.858178 184.550146 
L 284.858178 178.942042 
L 288.104717 178.942042 
L 288.104717 176.790613 
L 291.351267 176.790613 
L 291.351267 195.364728 
L 294.597807 195.364728 
L 294.597807 201.245338 
L 297.844356 201.245338 
L 297.844356 196.124915 
L 301.090906 196.124915 
L 301.090906 200.585559 
L 304.337445 200.585559 
L 304.337445 207.670984 
L 307.583985 207.670984 
L 307.583985 224.480928 
L 310.830545 224.480928 
L 310.830545 212.77708 
L 314.077084 212.77708 
L 314.077084 211.715698 
L 317.323623 211.715698 
L 317.323623 218.994748 
L 320.570183 218.994748 
L 320.570183 225.943904 
L 323.816723 225.943904 
L 323.816723 231.695434 
L 327.063262 231.695434 
L 327.063262 228.375035 
L 330.309801 228.375035 
L 330.309801 248.663143 
L 333.556362 248.663143 
L 333.556362 262.877017 
L 336.802901 262.877017 
L 336.802901 271.425414 
L 340.04944 271.425414 
L 340.04944 285.92614 
L 343.296 285.92614 
L 343.296 291.405149 
L 346.54254 291.405149 
L 346.54254 299.157515 
L 349.789079 299.157515 
L 349.789079 301.85399 
L 353.035618 301.85399 
L 353.035618 304.141691 
L 356.282178 304.141691 
L 356.282178 306.787966 
L 359.528718 306.787966 
L 359.528718 307.584 
L 362.775257 307.584 
L 362.775257 307.347341 
L 366.021817 307.347341 
L 366.021817 307.584 
L 398.487273 307.584 
L 398.487273 307.584 
" style="fill:none;stroke:#1f77b4;stroke-linejoin:miter;"/>
   </g>
   <g id="patch_4">
    <path clip-path="url(#pcad35e2110)" d="M 73.832727 307.584 
L 129.023998 307.584 
L 129.023998 307.053311 
L 132.270544 307.053311 
L 132.270544 307.182397 
L 135.517089 307.182397 
L 135.517089 304.206234 
L 138.763635 304.206234 
L 138.763635 302.076306 
L 142.010179 302.076306 
L 142.010179 300.477065 
L 145.256725 300.477065 
L 145.256725 295.643493 
L 148.503271 295.643493 
L 148.503271 289.97085 
L 151.749817 289.97085 
L 151.749817 281.831227 
L 154.996361 281.831227 
L 154.996361 280.461473 
L 158.242906 280.461473 
L 158.242906 272.09236 
L 161.489453 272.09236 
L 161.489453 265.544808 
L 164.735997 265.544808 
L 164.735997 260.338314 
L 167.982542 260.338314 
L 167.982542 250.01138 
L 171.229089 250.01138 
L 171.229089 230.203776 
L 174.475633 230.203776 
L 174.475633 229.543988 
L 177.722178 229.543988 
L 177.722178 215.59546 
L 180.968722 215.59546 
L 180.968722 217.5246 
L 184.215267 217.5246 
L 184.215267 217.402675 
L 187.461817 217.402675 
L 187.461817 207.570586 
L 190.708361 207.570586 
L 190.708361 197.394266 
L 193.954906 197.394266 
L 193.954906 182.319812 
L 197.20145 182.319812 
L 197.20145 178.798625 
L 200.447995 178.798625 
L 200.447995 176.5181 
L 203.694539 176.5181 
L 203.694539 170.44384 
L 206.941089 170.44384 
L 206.941089 159.08423 
L 210.187633 159.08423 
L 210.187633 150.657737 
L 213.434178 150.657737 
L 213.434178 135.088471 
L 216.680728 135.088471 
L 216.680728 147.201086 
L 219.927267 147.201086 
L 219.927267 148.850547 
L 223.173817 148.850547 
L 223.173817 116.019537 
L 226.420356 116.019537 
L 226.420356 123.671482 
L 229.666906 123.671482 
L 229.666906 119.913635 
L 232.913445 119.913635 
L 232.913445 103.031958 
L 236.159995 103.031958 
L 236.159995 99.331458 
L 239.406545 99.331458 
L 239.406545 105.714111 
L 242.653084 105.714111 
L 242.653084 92.367974 
L 245.899634 92.367974 
L 245.899634 76.633765 
L 249.146173 76.633765 
L 249.146173 94.727389 
L 252.392723 94.727389 
L 252.392723 98.7793 
L 255.639262 98.7793 
L 255.639262 80.721514 
L 258.885812 80.721514 
L 258.885812 92.791111 
L 262.132361 92.791111 
L 262.132361 99.725922 
L 265.378901 99.725922 
L 265.378901 85.978207 
L 268.62545 85.978207 
L 268.62545 81.037038 
L 271.87199 81.037038 
L 271.87199 66.385703 
L 275.118539 66.385703 
L 275.118539 94.254086 
L 278.365089 94.254086 
L 278.365089 76.21068 
L 281.611628 76.21068 
L 281.611628 80.506355 
L 284.858178 80.506355 
L 284.858178 74.374732 
L 288.104717 74.374732 
L 288.104717 92.296265 
L 291.351267 92.296265 
L 291.351267 90.869161 
L 294.597807 90.869161 
L 294.597807 63.50277 
L 297.844356 63.50277 
L 297.844356 72.517309 
L 301.090906 72.517309 
L 301.090906 75.708653 
L 304.337445 75.708653 
L 304.337445 97.237435 
L 307.583985 97.237435 
L 307.583985 89.456367 
L 310.830545 89.456367 
L 310.830545 95.136181 
L 314.077084 95.136181 
L 314.077084 109.005785 
L 317.323623 109.005785 
L 317.323623 100.227948 
L 320.570183 100.227948 
L 320.570183 85.870611 
L 323.816723 85.870611 
L 323.816723 103.856689 
L 327.063262 103.856689 
L 327.063262 130.140172 
L 330.309801 130.140172 
L 330.309801 129.007047 
L 333.556362 129.007047 
L 333.556362 170.393649 
L 336.802901 170.393649 
L 336.802901 191.642745 
L 340.04944 191.642745 
L 340.04944 223.276121 
L 343.296 223.276121 
L 343.296 245.923644 
L 346.54254 245.923644 
L 346.54254 267.875537 
L 349.789079 267.875537 
L 349.789079 292.73904 
L 353.035618 292.73904 
L 353.035618 296.331954 
L 356.282178 296.331954 
L 356.282178 301.710561 
L 359.528718 301.710561 
L 359.528718 307.232598 
L 362.775257 307.232598 
L 362.775257 306.328992 
L 366.021817 306.328992 
L 366.021817 307.584 
L 398.487273 307.584 
L 398.487273 307.584 
" style="fill:none;stroke:#ff7f0e;stroke-linejoin:miter;"/>
   </g>
   <g id="patch_5">
    <path clip-path="url(#pcad35e2110)" d="M 73.832727 307.584 
L 129.023998 307.584 
L 129.023998 306.75928 
L 132.270544 306.75928 
L 132.270544 304.13452 
L 135.517089 304.13452 
L 135.517089 288.751704 
L 138.763635 288.751704 
L 138.763635 252.421007 
L 142.010179 252.421007 
L 142.010179 208.000878 
L 145.256725 208.000878 
L 145.256725 158.546367 
L 148.503271 158.546367 
L 148.503271 105.004124 
L 151.749817 105.004124 
L 151.749817 93.680386 
L 154.996361 93.680386 
L 154.996361 81.244998 
L 158.242906 81.244998 
L 158.242906 88.079428 
L 161.489453 88.079428 
L 161.489453 87.505745 
L 164.735997 87.505745 
L 164.735997 92.912984 
L 167.982542 92.912984 
L 167.982542 108.33885 
L 171.229089 108.33885 
L 171.229089 104.12203 
L 174.475633 104.12203 
L 174.475633 120.207633 
L 177.722178 120.207633 
L 177.722178 142.467911 
L 180.968722 142.467911 
L 180.968722 147.079178 
L 184.215267 147.079178 
L 184.215267 156.459474 
L 187.461817 156.459474 
L 187.461817 166.485196 
L 190.708361 166.485196 
L 190.708361 165.603102 
L 193.954906 165.603102 
L 193.954906 189.326348 
L 197.20145 189.326348 
L 197.20145 175.628824 
L 200.447995 175.628824 
L 200.447995 182.4489 
L 203.694539 182.4489 
L 203.694539 192.589383 
L 206.941089 192.589383 
L 206.941089 195.056352 
L 210.187633 195.056352 
L 210.187633 202.758522 
L 213.434178 202.758522 
L 213.434178 201.080395 
L 216.680728 201.080395 
L 216.680728 214.283082 
L 219.927267 214.283082 
L 219.927267 219.676045 
L 223.173817 219.676045 
L 223.173817 214.555613 
L 226.420356 214.555613 
L 226.420356 226.790144 
L 229.666906 226.790144 
L 229.666906 224.796477 
L 232.913445 224.796477 
L 232.913445 220.615494 
L 236.159995 220.615494 
L 236.159995 238.587226 
L 239.406545 238.587226 
L 239.406545 233.115391 
L 242.653084 233.115391 
L 242.653084 230.956773 
L 245.899634 230.956773 
L 245.899634 241.778528 
L 249.146173 241.778528 
L 249.146173 256.437022 
L 252.392723 256.437022 
L 252.392723 243.327565 
L 255.639262 243.327565 
L 255.639262 242.624763 
L 258.885812 242.624763 
L 258.885812 253.338946 
L 262.132361 253.338946 
L 262.132361 245.063067 
L 265.378901 245.063067 
L 265.378901 252.923003 
L 268.62545 252.923003 
L 268.62545 258.237072 
L 271.87199 258.237072 
L 271.87199 254.844962 
L 275.118539 254.844962 
L 275.118539 262.719243 
L 278.365089 262.719243 
L 278.365089 258.753423 
L 281.611628 258.753423 
L 281.611628 255.031418 
L 284.858178 255.031418 
L 284.858178 264.519285 
L 288.104717 264.519285 
L 288.104717 263.881019 
L 291.351267 263.881019 
L 291.351267 266.448416 
L 294.597807 266.448416 
L 294.597807 272.479621 
L 297.844356 272.479621 
L 297.844356 265.767119 
L 301.090906 265.767119 
L 301.090906 271.905901 
L 304.337445 271.905901 
L 304.337445 270.686754 
L 307.583985 270.686754 
L 307.583985 274.47329 
L 310.830545 274.47329 
L 310.830545 275.254981 
L 314.077084 275.254981 
L 314.077084 275.011151 
L 317.323623 275.011151 
L 317.323623 276.653419 
L 320.570183 276.653419 
L 320.570183 282.204144 
L 323.816723 282.204144 
L 323.816723 283.30855 
L 327.063262 283.30855 
L 327.063262 293.104788 
L 330.309801 293.104788 
L 330.309801 292.609957 
L 333.556362 292.609957 
L 333.556362 293.348618 
L 336.802901 293.348618 
L 336.802901 297.278588 
L 340.04944 297.278588 
L 340.04944 298.806113 
L 343.296 298.806113 
L 343.296 303.804632 
L 346.54254 303.804632 
L 346.54254 305.368014 
L 349.789079 305.368014 
L 349.789079 306.106676 
L 353.035618 306.106676 
L 353.035618 307.289969 
L 362.775257 307.232598 
L 362.775257 307.584 
L 398.487273 307.584 
L 398.487273 307.584 
" style="fill:none;stroke:#2ca02c;stroke-linejoin:miter;"/>
   </g>
   <g id="patch_6">
    <path clip-path="url(#pcad35e2110)" d="M 73.832727 307.584 
L 125.777453 307.584 
L 125.777453 306.988767 
L 132.270544 306.931396 
L 132.270544 302.370336 
L 135.517089 302.370336 
L 135.517089 280.29653 
L 138.763635 280.29653 
L 138.763635 235.969634 
L 142.010179 235.969634 
L 142.010179 165.796744 
L 145.256725 165.796744 
L 145.256725 108.030508 
L 148.503271 108.030508 
L 148.503271 70.093367 
L 151.749817 70.093367 
L 151.749817 65.367408 
L 154.996361 65.367408 
L 154.996361 54.144 
L 158.242906 54.144 
L 158.242906 61.215081 
L 161.489453 61.215081 
L 161.489453 69.483796 
L 164.735997 69.483796 
L 164.735997 89.563913 
L 167.982542 89.563913 
L 167.982542 101.102827 
L 171.229089 101.102827 
L 171.229089 123.34876 
L 174.475633 123.34876 
L 174.475633 128.978374 
L 177.722178 128.978374 
L 177.722178 136.637517 
L 180.968722 136.637517 
L 180.968722 142.883867 
L 184.215267 142.883867 
L 184.215267 143.450421 
L 187.461817 143.450421 
L 187.461817 157.642764 
L 190.708361 157.642764 
L 190.708361 173.405688 
L 197.20145 173.305272 
L 197.20145 171.318761 
L 200.447995 171.318761 
L 200.447995 190.129553 
L 203.694539 190.129553 
L 203.694539 191.076182 
L 206.941089 191.076182 
L 206.941089 202.4358 
L 210.187633 202.4358 
L 210.187633 198.477166 
L 213.434178 198.477166 
L 213.434178 202.048543 
L 216.680728 202.048543 
L 216.680728 215.946872 
L 219.927267 215.946872 
L 219.927267 218.621844 
L 223.173817 218.621844 
L 223.173817 221.275273 
L 226.420356 221.275273 
L 226.420356 233.696273 
L 229.666906 233.696273 
L 229.666906 230.877884 
L 232.913445 230.877884 
L 232.913445 237.633411 
L 236.159995 237.633411 
L 236.159995 231.645234 
L 239.406545 231.645234 
L 239.406545 238.486819 
L 242.653084 238.486819 
L 242.653084 237.418273 
L 245.899634 237.418273 
L 245.899634 237.697951 
L 249.146173 237.697951 
L 249.146173 234.413424 
L 252.392723 234.413424 
L 252.392723 243.241507 
L 255.639262 243.241507 
L 255.639262 249.853614 
L 258.885812 249.853614 
L 258.885812 249.150812 
L 262.132361 249.150812 
L 262.132361 255.590799 
L 265.378901 255.590799 
L 265.378901 256.523088 
L 268.62545 256.523088 
L 268.62545 253.683181 
L 271.87199 253.683181 
L 271.87199 259.169361 
L 275.118539 259.169361 
L 275.118539 255.483219 
L 278.365089 255.483219 
L 278.365089 251.244881 
L 281.611628 251.244881 
L 281.611628 269.302659 
L 284.858178 269.302659 
L 284.858178 271.138551 
L 288.104717 271.138551 
L 288.104717 263.37185 
L 291.351267 263.37185 
L 291.351267 266.391031 
L 294.597807 266.391031 
L 294.597807 263.429213 
L 297.844356 263.429213 
L 297.844356 265.752778 
L 301.090906 265.752778 
L 301.090906 266.656381 
L 304.337445 266.656381 
L 304.337445 274.709954 
L 307.583985 274.709954 
L 307.583985 274.925092 
L 310.830545 274.925092 
L 310.830545 279.443122 
L 314.077084 279.443122 
L 314.077084 271.934585 
L 317.323623 271.934585 
L 317.323623 280.282185 
L 320.570183 280.282185 
L 320.570183 275.706787 
L 323.816723 275.706787 
L 323.816723 281.200138 
L 327.063262 281.200138 
L 327.063262 282.519686 
L 330.309801 282.519686 
L 330.309801 289.705509 
L 333.556362 289.705509 
L 333.556362 293.198016 
L 336.802901 293.198016 
L 336.802901 298.35431 
L 340.04944 298.35431 
L 340.04944 300.082635 
L 343.296 300.082635 
L 343.296 303.869175 
L 346.54254 303.869175 
L 346.54254 306.630193 
L 349.789079 306.630193 
L 349.789079 306.838166 
L 356.282178 306.816652 
L 356.282178 307.584 
L 398.487273 307.584 
L 398.487273 307.584 
" style="fill:none;stroke:#d62728;stroke-linejoin:miter;"/>
   </g>
   <g id="patch_7">
    <path clip-path="url(#pcad35e2110)" d="M 73.832727 307.584 
L 132.270544 307.584 
L 132.270544 307.175226 
L 135.517089 307.175226 
L 135.517089 301.796619 
L 138.763635 301.796619 
L 138.763635 289.698335 
L 142.010179 289.698335 
L 142.010179 268.377538 
L 145.256725 268.377538 
L 145.256725 244.933975 
L 148.503271 244.933975 
L 148.503271 216.025761 
L 151.749817 216.025761 
L 151.749817 197.795868 
L 154.996361 197.795868 
L 154.996361 200.671621 
L 158.242906 200.671621 
L 158.242906 173.441533 
L 161.489453 173.441533 
L 161.489453 176.632835 
L 164.735997 176.632835 
L 164.735997 173.147494 
L 167.982542 173.147494 
L 167.982542 161.673132 
L 171.229089 161.673132 
L 171.229089 157.800525 
L 174.475633 157.800525 
L 174.475633 161.357592 
L 177.722178 161.357592 
L 177.722178 151.475286 
L 180.968722 151.475286 
L 180.968722 153.318381 
L 184.215267 153.318381 
L 184.215267 158.940797 
L 187.461817 158.940797 
L 187.461817 150.707936 
L 190.708361 150.707936 
L 190.708361 146.189903 
L 193.954906 146.189903 
L 193.954906 150.980475 
L 197.20145 150.980475 
L 197.20145 128.935356 
L 200.447995 128.935356 
L 200.447995 161.063561 
L 203.694539 161.063561 
L 203.694539 151.224307 
L 206.941089 151.224307 
L 206.941089 124.02291 
L 210.187633 124.02291 
L 210.187633 155.570216 
L 213.434178 155.570216 
L 213.434178 141.578653 
L 216.680728 141.578653 
L 216.680728 128.94252 
L 219.927267 128.94252 
L 219.927267 114.305548 
L 223.173817 114.305548 
L 223.173817 125.744063 
L 226.420356 125.744063 
L 226.420356 106.26632 
L 229.666906 106.26632 
L 229.666906 122.488192 
L 232.913445 122.488192 
L 232.913445 94.748915 
L 236.159995 94.748915 
L 236.159995 107.456773 
L 239.406545 107.456773 
L 239.406545 96.957749 
L 242.653084 96.957749 
L 242.653084 99.955426 
L 245.899634 99.955426 
L 245.899634 86.767067 
L 249.146173 86.767067 
L 249.146173 61.014267 
L 252.392723 61.014267 
L 252.392723 81.983693 
L 255.639262 81.983693 
L 255.639262 75.708636 
L 258.885812 75.708636 
L 258.885812 93.658826 
L 262.132361 93.658826 
L 262.132361 81.754206 
L 265.378901 81.754206 
L 265.378901 82.170162 
L 268.62545 82.170162 
L 268.62545 103.490966 
L 271.87199 103.490966 
L 271.87199 97.380835 
L 275.118539 97.380835 
L 275.118539 109.37874 
L 278.365089 109.37874 
L 278.365089 110.160401 
L 281.611628 110.160401 
L 281.611628 105.656731 
L 284.858178 105.656731 
L 284.858178 130.957704 
L 288.104717 130.957704 
L 288.104717 136.214397 
L 291.351267 136.214397 
L 291.351267 149.510301 
L 294.597807 149.510301 
L 294.597807 153.590869 
L 297.844356 153.590869 
L 297.844356 163.22936 
L 301.090906 163.22936 
L 301.090906 158.68262 
L 304.337445 158.68262 
L 304.337445 178.124518 
L 307.583985 178.124518 
L 307.583985 167.309919 
L 310.830545 167.309919 
L 310.830545 188.494445 
L 314.077084 188.494445 
L 314.077084 186.543822 
L 317.323623 186.543822 
L 317.323623 201.166449 
L 320.570183 201.166449 
L 320.570183 212.27507 
L 323.816723 212.27507 
L 323.816723 232.649227 
L 327.063262 232.649227 
L 327.063262 252.600286 
L 330.309801 252.600286 
L 330.309801 262.095326 
L 333.556362 262.095326 
L 333.556362 280.47582 
L 336.802901 280.47582 
L 336.802901 293.70002 
L 340.04944 293.70002 
L 340.04944 299.279429 
L 343.296 299.279429 
L 343.296 306.666051 
L 346.54254 306.666051 
L 346.54254 303.331313 
L 349.789079 303.331313 
L 349.789079 306.106676 
L 353.035618 306.106676 
L 353.035618 307.584 
L 398.487273 307.584 
L 398.487273 307.584 
" style="fill:none;stroke:#9467bd;stroke-linejoin:miter;"/>
   </g>
   <g id="patch_8">
    <path clip-path="url(#pcad35e2110)" d="M 73.832727 307.584 
L 398.487262 307.584 
L 398.487262 307.584 
" style="fill:none;stroke:#000000;stroke-linejoin:miter;"/>
   </g>
   <g id="matplotlib.axis_1">
    <g id="xtick_1">
     <g id="line2d_1">
      <defs>
       <path d="M 0 0 
L 0 3.5 
" id="m36f22b2e41" style="stroke:#000000;stroke-width:0.8;"/>
      </defs>
      <g>
       <use style="stroke:#000000;stroke-width:0.8;" x="58.105853" xlink:href="#m36f22b2e41" y="307.584"/>
      </g>
     </g>
     <g id="text_1">
      <!-- −0.1 -->
      <defs>
       <path d="M 10.59375 35.5 
L 73.1875 35.5 
L 73.1875 27.203125 
L 10.59375 27.203125 
z
" id="DejaVuSans-8722"/>
       <path d="M 31.78125 66.40625 
Q 24.171875 66.40625 20.328125 58.90625 
Q 16.5 51.421875 16.5 36.375 
Q 16.5 21.390625 20.328125 13.890625 
Q 24.171875 6.390625 31.78125 6.390625 
Q 39.453125 6.390625 43.28125 13.890625 
Q 47.125 21.390625 47.125 36.375 
Q 47.125 51.421875 43.28125 58.90625 
Q 39.453125 66.40625 31.78125 66.40625 
z
M 31.78125 74.21875 
Q 44.046875 74.21875 50.515625 64.515625 
Q 56.984375 54.828125 56.984375 36.375 
Q 56.984375 17.96875 50.515625 8.265625 
Q 44.046875 -1.421875 31.78125 -1.421875 
Q 19.53125 -1.421875 13.0625 8.265625 
Q 6.59375 17.96875 6.59375 36.375 
Q 6.59375 54.828125 13.0625 64.515625 
Q 19.53125 74.21875 31.78125 74.21875 
z
" id="DejaVuSans-48"/>
       <path d="M 10.6875 12.40625 
L 21 12.40625 
L 21 0 
L 10.6875 0 
z
" id="DejaVuSans-46"/>
       <path d="M 12.40625 8.296875 
L 28.515625 8.296875 
L 28.515625 63.921875 
L 10.984375 60.40625 
L 10.984375 69.390625 
L 28.421875 72.90625 
L 38.28125 72.90625 
L 38.28125 8.296875 
L 54.390625 8.296875 
L 54.390625 0 
L 12.40625 0 
z
" id="DejaVuSans-49"/>
      </defs>
      <g transform="translate(45.964447 322.182437)scale(0.1 -0.1)">
       <use xlink:href="#DejaVuSans-8722"/>
       <use x="83.789062" xlink:href="#DejaVuSans-48"/>
       <use x="147.412109" xlink:href="#DejaVuSans-46"/>
       <use x="179.199219" xlink:href="#DejaVuSans-49"/>
      </g>
     </g>
    </g>
    <g id="xtick_2">
     <g id="line2d_2">
      <g>
       <use style="stroke:#000000;stroke-width:0.8;" x="128.051714" xlink:href="#m36f22b2e41" y="307.584"/>
      </g>
     </g>
     <g id="text_2">
      <!-- 0.0 -->
      <g transform="translate(120.100151 322.182437)scale(0.1 -0.1)">
       <use xlink:href="#DejaVuSans-48"/>
       <use x="63.623047" xlink:href="#DejaVuSans-46"/>
       <use x="95.410156" xlink:href="#DejaVuSans-48"/>
      </g>
     </g>
    </g>
    <g id="xtick_3">
     <g id="line2d_3">
      <g>
       <use style="stroke:#000000;stroke-width:0.8;" x="197.997575" xlink:href="#m36f22b2e41" y="307.584"/>
      </g>
     </g>
     <g id="text_3">
      <!-- 0.1 -->
      <g transform="translate(190.046012 322.182437)scale(0.1 -0.1)">
       <use xlink:href="#DejaVuSans-48"/>
       <use x="63.623047" xlink:href="#DejaVuSans-46"/>
       <use x="95.410156" xlink:href="#DejaVuSans-49"/>
      </g>
     </g>
    </g>
    <g id="xtick_4">
     <g id="line2d_4">
      <g>
       <use style="stroke:#000000;stroke-width:0.8;" x="267.943436" xlink:href="#m36f22b2e41" y="307.584"/>
      </g>
     </g>
     <g id="text_4">
      <!-- 0.2 -->
      <defs>
       <path d="M 19.1875 8.296875 
L 53.609375 8.296875 
L 53.609375 0 
L 7.328125 0 
L 7.328125 8.296875 
Q 12.9375 14.109375 22.625 23.890625 
Q 32.328125 33.6875 34.8125 36.53125 
Q 39.546875 41.84375 41.421875 45.53125 
Q 43.3125 49.21875 43.3125 52.78125 
Q 43.3125 58.59375 39.234375 62.25 
Q 35.15625 65.921875 28.609375 65.921875 
Q 23.96875 65.921875 18.8125 64.3125 
Q 13.671875 62.703125 7.8125 59.421875 
L 7.8125 69.390625 
Q 13.765625 71.78125 18.9375 73 
Q 24.125 74.21875 28.421875 74.21875 
Q 39.75 74.21875 46.484375 68.546875 
Q 53.21875 62.890625 53.21875 53.421875 
Q 53.21875 48.921875 51.53125 44.890625 
Q 49.859375 40.875 45.40625 35.40625 
Q 44.1875 33.984375 37.640625 27.21875 
Q 31.109375 20.453125 19.1875 8.296875 
z
" id="DejaVuSans-50"/>
      </defs>
      <g transform="translate(259.991873 322.182437)scale(0.1 -0.1)">
       <use xlink:href="#DejaVuSans-48"/>
       <use x="63.623047" xlink:href="#DejaVuSans-46"/>
       <use x="95.410156" xlink:href="#DejaVuSans-50"/>
      </g>
     </g>
    </g>
    <g id="xtick_5">
     <g id="line2d_5">
      <g>
       <use style="stroke:#000000;stroke-width:0.8;" x="337.889297" xlink:href="#m36f22b2e41" y="307.584"/>
      </g>
     </g>
     <g id="text_5">
      <!-- 0.3 -->
      <defs>
       <path d="M 40.578125 39.3125 
Q 47.65625 37.796875 51.625 33 
Q 55.609375 28.21875 55.609375 21.1875 
Q 55.609375 10.40625 48.1875 4.484375 
Q 40.765625 -1.421875 27.09375 -1.421875 
Q 22.515625 -1.421875 17.65625 -0.515625 
Q 12.796875 0.390625 7.625 2.203125 
L 7.625 11.71875 
Q 11.71875 9.328125 16.59375 8.109375 
Q 21.484375 6.890625 26.8125 6.890625 
Q 36.078125 6.890625 40.9375 10.546875 
Q 45.796875 14.203125 45.796875 21.1875 
Q 45.796875 27.640625 41.28125 31.265625 
Q 36.765625 34.90625 28.71875 34.90625 
L 20.21875 34.90625 
L 20.21875 43.015625 
L 29.109375 43.015625 
Q 36.375 43.015625 40.234375 45.921875 
Q 44.09375 48.828125 44.09375 54.296875 
Q 44.09375 59.90625 40.109375 62.90625 
Q 36.140625 65.921875 28.71875 65.921875 
Q 24.65625 65.921875 20.015625 65.03125 
Q 15.375 64.15625 9.8125 62.3125 
L 9.8125 71.09375 
Q 15.4375 72.65625 20.34375 73.4375 
Q 25.25 74.21875 29.59375 74.21875 
Q 40.828125 74.21875 47.359375 69.109375 
Q 53.90625 64.015625 53.90625 55.328125 
Q 53.90625 49.265625 50.4375 45.09375 
Q 46.96875 40.921875 40.578125 39.3125 
z
" id="DejaVuSans-51"/>
      </defs>
      <g transform="translate(329.937734 322.182437)scale(0.1 -0.1)">
       <use xlink:href="#DejaVuSans-48"/>
       <use x="63.623047" xlink:href="#DejaVuSans-46"/>
       <use x="95.410156" xlink:href="#DejaVuSans-51"/>
      </g>
     </g>
    </g>
    <g id="xtick_6">
     <g id="line2d_6">
      <g>
       <use style="stroke:#000000;stroke-width:0.8;" x="407.835158" xlink:href="#m36f22b2e41" y="307.584"/>
      </g>
     </g>
     <g id="text_6">
      <!-- 0.4 -->
      <defs>
       <path d="M 37.796875 64.3125 
L 12.890625 25.390625 
L 37.796875 25.390625 
z
M 35.203125 72.90625 
L 47.609375 72.90625 
L 47.609375 25.390625 
L 58.015625 25.390625 
L 58.015625 17.1875 
L 47.609375 17.1875 
L 47.609375 0 
L 37.796875 0 
L 37.796875 17.1875 
L 4.890625 17.1875 
L 4.890625 26.703125 
z
" id="DejaVuSans-52"/>
      </defs>
      <g transform="translate(399.883596 322.182437)scale(0.1 -0.1)">
       <use xlink:href="#DejaVuSans-48"/>
       <use x="63.623047" xlink:href="#DejaVuSans-46"/>
       <use x="95.410156" xlink:href="#DejaVuSans-52"/>
      </g>
     </g>
    </g>
    <g id="text_7">
     <!-- j_n2_b2_mmdt -->
     <defs>
      <path d="M 9.421875 54.6875 
L 18.40625 54.6875 
L 18.40625 -0.984375 
Q 18.40625 -11.421875 14.421875 -16.109375 
Q 10.453125 -20.796875 1.609375 -20.796875 
L -1.8125 -20.796875 
L -1.8125 -13.1875 
L 0.59375 -13.1875 
Q 5.71875 -13.1875 7.5625 -10.8125 
Q 9.421875 -8.453125 9.421875 -0.984375 
z
M 9.421875 75.984375 
L 18.40625 75.984375 
L 18.40625 64.59375 
L 9.421875 64.59375 
z
" id="DejaVuSans-106"/>
      <path d="M 50.984375 -16.609375 
L 50.984375 -23.578125 
L -0.984375 -23.578125 
L -0.984375 -16.609375 
z
" id="DejaVuSans-95"/>
      <path d="M 54.890625 33.015625 
L 54.890625 0 
L 45.90625 0 
L 45.90625 32.71875 
Q 45.90625 40.484375 42.875 44.328125 
Q 39.84375 48.1875 33.796875 48.1875 
Q 26.515625 48.1875 22.3125 43.546875 
Q 18.109375 38.921875 18.109375 30.90625 
L 18.109375 0 
L 9.078125 0 
L 9.078125 54.6875 
L 18.109375 54.6875 
L 18.109375 46.1875 
Q 21.34375 51.125 25.703125 53.5625 
Q 30.078125 56 35.796875 56 
Q 45.21875 56 50.046875 50.171875 
Q 54.890625 44.34375 54.890625 33.015625 
z
" id="DejaVuSans-110"/>
      <path d="M 48.6875 27.296875 
Q 48.6875 37.203125 44.609375 42.84375 
Q 40.53125 48.484375 33.40625 48.484375 
Q 26.265625 48.484375 22.1875 42.84375 
Q 18.109375 37.203125 18.109375 27.296875 
Q 18.109375 17.390625 22.1875 11.75 
Q 26.265625 6.109375 33.40625 6.109375 
Q 40.53125 6.109375 44.609375 11.75 
Q 48.6875 17.390625 48.6875 27.296875 
z
M 18.109375 46.390625 
Q 20.953125 51.265625 25.265625 53.625 
Q 29.59375 56 35.59375 56 
Q 45.5625 56 51.78125 48.09375 
Q 58.015625 40.1875 58.015625 27.296875 
Q 58.015625 14.40625 51.78125 6.484375 
Q 45.5625 -1.421875 35.59375 -1.421875 
Q 29.59375 -1.421875 25.265625 0.953125 
Q 20.953125 3.328125 18.109375 8.203125 
L 18.109375 0 
L 9.078125 0 
L 9.078125 75.984375 
L 18.109375 75.984375 
z
" id="DejaVuSans-98"/>
      <path d="M 52 44.1875 
Q 55.375 50.25 60.0625 53.125 
Q 64.75 56 71.09375 56 
Q 79.640625 56 84.28125 50.015625 
Q 88.921875 44.046875 88.921875 33.015625 
L 88.921875 0 
L 79.890625 0 
L 79.890625 32.71875 
Q 79.890625 40.578125 77.09375 44.375 
Q 74.3125 48.1875 68.609375 48.1875 
Q 61.625 48.1875 57.5625 43.546875 
Q 53.515625 38.921875 53.515625 30.90625 
L 53.515625 0 
L 44.484375 0 
L 44.484375 32.71875 
Q 44.484375 40.625 41.703125 44.40625 
Q 38.921875 48.1875 33.109375 48.1875 
Q 26.21875 48.1875 22.15625 43.53125 
Q 18.109375 38.875 18.109375 30.90625 
L 18.109375 0 
L 9.078125 0 
L 9.078125 54.6875 
L 18.109375 54.6875 
L 18.109375 46.1875 
Q 21.1875 51.21875 25.484375 53.609375 
Q 29.78125 56 35.6875 56 
Q 41.65625 56 45.828125 52.96875 
Q 50 49.953125 52 44.1875 
z
" id="DejaVuSans-109"/>
      <path d="M 45.40625 46.390625 
L 45.40625 75.984375 
L 54.390625 75.984375 
L 54.390625 0 
L 45.40625 0 
L 45.40625 8.203125 
Q 42.578125 3.328125 38.25 0.953125 
Q 33.9375 -1.421875 27.875 -1.421875 
Q 17.96875 -1.421875 11.734375 6.484375 
Q 5.515625 14.40625 5.515625 27.296875 
Q 5.515625 40.1875 11.734375 48.09375 
Q 17.96875 56 27.875 56 
Q 33.9375 56 38.25 53.625 
Q 42.578125 51.265625 45.40625 46.390625 
z
M 14.796875 27.296875 
Q 14.796875 17.390625 18.875 11.75 
Q 22.953125 6.109375 30.078125 6.109375 
Q 37.203125 6.109375 41.296875 11.75 
Q 45.40625 17.390625 45.40625 27.296875 
Q 45.40625 37.203125 41.296875 42.84375 
Q 37.203125 48.484375 30.078125 48.484375 
Q 22.953125 48.484375 18.875 42.84375 
Q 14.796875 37.203125 14.796875 27.296875 
z
" id="DejaVuSans-100"/>
      <path d="M 18.3125 70.21875 
L 18.3125 54.6875 
L 36.8125 54.6875 
L 36.8125 47.703125 
L 18.3125 47.703125 
L 18.3125 18.015625 
Q 18.3125 11.328125 20.140625 9.421875 
Q 21.96875 7.515625 27.59375 7.515625 
L 36.8125 7.515625 
L 36.8125 0 
L 27.59375 0 
Q 17.1875 0 13.234375 3.875 
Q 9.28125 7.765625 9.28125 18.015625 
L 9.28125 47.703125 
L 2.6875 47.703125 
L 2.6875 54.6875 
L 9.28125 54.6875 
L 9.28125 70.21875 
z
" id="DejaVuSans-116"/>
     </defs>
     <g transform="translate(199.690469 335.860562)scale(0.1 -0.1)">
      <use xlink:href="#DejaVuSans-106"/>
      <use x="27.783203" xlink:href="#DejaVuSans-95"/>
      <use x="77.783203" xlink:href="#DejaVuSans-110"/>
      <use x="141.162109" xlink:href="#DejaVuSans-50"/>
      <use x="204.785156" xlink:href="#DejaVuSans-95"/>
      <use x="254.785156" xlink:href="#DejaVuSans-98"/>
      <use x="318.261719" xlink:href="#DejaVuSans-50"/>
      <use x="381.884766" xlink:href="#DejaVuSans-95"/>
      <use x="431.884766" xlink:href="#DejaVuSans-109"/>
      <use x="529.296875" xlink:href="#DejaVuSans-109"/>
      <use x="626.708984" xlink:href="#DejaVuSans-100"/>
      <use x="690.185547" xlink:href="#DejaVuSans-116"/>
     </g>
    </g>
   </g>
   <g id="matplotlib.axis_2">
    <g id="ytick_1">
     <g id="line2d_7">
      <defs>
       <path d="M 0 0 
L -3.5 0 
" id="md57acfec66" style="stroke:#000000;stroke-width:0.8;"/>
      </defs>
      <g>
       <use style="stroke:#000000;stroke-width:0.8;" x="57.6" xlink:href="#md57acfec66" y="307.584"/>
      </g>
     </g>
     <g id="text_8">
      <!-- 0.000 -->
      <g transform="translate(21.971875 311.383219)scale(0.1 -0.1)">
       <use xlink:href="#DejaVuSans-48"/>
       <use x="63.623047" xlink:href="#DejaVuSans-46"/>
       <use x="95.410156" xlink:href="#DejaVuSans-48"/>
       <use x="159.033203" xlink:href="#DejaVuSans-48"/>
       <use x="222.65625" xlink:href="#DejaVuSans-48"/>
      </g>
     </g>
    </g>
    <g id="ytick_2">
     <g id="line2d_8">
      <g>
       <use style="stroke:#000000;stroke-width:0.8;" x="57.6" xlink:href="#md57acfec66" y="270.866693"/>
      </g>
     </g>
     <g id="text_9">
      <!-- 0.001 -->
      <g transform="translate(21.971875 274.665912)scale(0.1 -0.1)">
       <use xlink:href="#DejaVuSans-48"/>
       <use x="63.623047" xlink:href="#DejaVuSans-46"/>
       <use x="95.410156" xlink:href="#DejaVuSans-48"/>
       <use x="159.033203" xlink:href="#DejaVuSans-48"/>
       <use x="222.65625" xlink:href="#DejaVuSans-49"/>
      </g>
     </g>
    </g>
    <g id="ytick_3">
     <g id="line2d_9">
      <g>
       <use style="stroke:#000000;stroke-width:0.8;" x="57.6" xlink:href="#md57acfec66" y="234.149386"/>
      </g>
     </g>
     <g id="text_10">
      <!-- 0.002 -->
      <g transform="translate(21.971875 237.948605)scale(0.1 -0.1)">
       <use xlink:href="#DejaVuSans-48"/>
       <use x="63.623047" xlink:href="#DejaVuSans-46"/>
       <use x="95.410156" xlink:href="#DejaVuSans-48"/>
       <use x="159.033203" xlink:href="#DejaVuSans-48"/>
       <use x="222.65625" xlink:href="#DejaVuSans-50"/>
      </g>
     </g>
    </g>
    <g id="ytick_4">
     <g id="line2d_10">
      <g>
       <use style="stroke:#000000;stroke-width:0.8;" x="57.6" xlink:href="#md57acfec66" y="197.432079"/>
      </g>
     </g>
     <g id="text_11">
      <!-- 0.003 -->
      <g transform="translate(21.971875 201.231298)scale(0.1 -0.1)">
       <use xlink:href="#DejaVuSans-48"/>
       <use x="63.623047" xlink:href="#DejaVuSans-46"/>
       <use x="95.410156" xlink:href="#DejaVuSans-48"/>
       <use x="159.033203" xlink:href="#DejaVuSans-48"/>
       <use x="222.65625" xlink:href="#DejaVuSans-51"/>
      </g>
     </g>
    </g>
    <g id="ytick_5">
     <g id="line2d_11">
      <g>
       <use style="stroke:#000000;stroke-width:0.8;" x="57.6" xlink:href="#md57acfec66" y="160.714772"/>
      </g>
     </g>
     <g id="text_12">
      <!-- 0.004 -->
      <g transform="translate(21.971875 164.513991)scale(0.1 -0.1)">
       <use xlink:href="#DejaVuSans-48"/>
       <use x="63.623047" xlink:href="#DejaVuSans-46"/>
       <use x="95.410156" xlink:href="#DejaVuSans-48"/>
       <use x="159.033203" xlink:href="#DejaVuSans-48"/>
       <use x="222.65625" xlink:href="#DejaVuSans-52"/>
      </g>
     </g>
    </g>
    <g id="ytick_6">
     <g id="line2d_12">
      <g>
       <use style="stroke:#000000;stroke-width:0.8;" x="57.6" xlink:href="#md57acfec66" y="123.997465"/>
      </g>
     </g>
     <g id="text_13">
      <!-- 0.005 -->
      <defs>
       <path d="M 10.796875 72.90625 
L 49.515625 72.90625 
L 49.515625 64.59375 
L 19.828125 64.59375 
L 19.828125 46.734375 
Q 21.96875 47.46875 24.109375 47.828125 
Q 26.265625 48.1875 28.421875 48.1875 
Q 40.625 48.1875 47.75 41.5 
Q 54.890625 34.8125 54.890625 23.390625 
Q 54.890625 11.625 47.5625 5.09375 
Q 40.234375 -1.421875 26.90625 -1.421875 
Q 22.3125 -1.421875 17.546875 -0.640625 
Q 12.796875 0.140625 7.71875 1.703125 
L 7.71875 11.625 
Q 12.109375 9.234375 16.796875 8.0625 
Q 21.484375 6.890625 26.703125 6.890625 
Q 35.15625 6.890625 40.078125 11.328125 
Q 45.015625 15.765625 45.015625 23.390625 
Q 45.015625 31 40.078125 35.4375 
Q 35.15625 39.890625 26.703125 39.890625 
Q 22.75 39.890625 18.8125 39.015625 
Q 14.890625 38.140625 10.796875 36.28125 
z
" id="DejaVuSans-53"/>
      </defs>
      <g transform="translate(21.971875 127.796684)scale(0.1 -0.1)">
       <use xlink:href="#DejaVuSans-48"/>
       <use x="63.623047" xlink:href="#DejaVuSans-46"/>
       <use x="95.410156" xlink:href="#DejaVuSans-48"/>
       <use x="159.033203" xlink:href="#DejaVuSans-48"/>
       <use x="222.65625" xlink:href="#DejaVuSans-53"/>
      </g>
     </g>
    </g>
    <g id="ytick_7">
     <g id="line2d_13">
      <g>
       <use style="stroke:#000000;stroke-width:0.8;" x="57.6" xlink:href="#md57acfec66" y="87.280158"/>
      </g>
     </g>
     <g id="text_14">
      <!-- 0.006 -->
      <defs>
       <path d="M 33.015625 40.375 
Q 26.375 40.375 22.484375 35.828125 
Q 18.609375 31.296875 18.609375 23.390625 
Q 18.609375 15.53125 22.484375 10.953125 
Q 26.375 6.390625 33.015625 6.390625 
Q 39.65625 6.390625 43.53125 10.953125 
Q 47.40625 15.53125 47.40625 23.390625 
Q 47.40625 31.296875 43.53125 35.828125 
Q 39.65625 40.375 33.015625 40.375 
z
M 52.59375 71.296875 
L 52.59375 62.3125 
Q 48.875 64.0625 45.09375 64.984375 
Q 41.3125 65.921875 37.59375 65.921875 
Q 27.828125 65.921875 22.671875 59.328125 
Q 17.53125 52.734375 16.796875 39.40625 
Q 19.671875 43.65625 24.015625 45.921875 
Q 28.375 48.1875 33.59375 48.1875 
Q 44.578125 48.1875 50.953125 41.515625 
Q 57.328125 34.859375 57.328125 23.390625 
Q 57.328125 12.15625 50.6875 5.359375 
Q 44.046875 -1.421875 33.015625 -1.421875 
Q 20.359375 -1.421875 13.671875 8.265625 
Q 6.984375 17.96875 6.984375 36.375 
Q 6.984375 53.65625 15.1875 63.9375 
Q 23.390625 74.21875 37.203125 74.21875 
Q 40.921875 74.21875 44.703125 73.484375 
Q 48.484375 72.75 52.59375 71.296875 
z
" id="DejaVuSans-54"/>
      </defs>
      <g transform="translate(21.971875 91.079376)scale(0.1 -0.1)">
       <use xlink:href="#DejaVuSans-48"/>
       <use x="63.623047" xlink:href="#DejaVuSans-46"/>
       <use x="95.410156" xlink:href="#DejaVuSans-48"/>
       <use x="159.033203" xlink:href="#DejaVuSans-48"/>
       <use x="222.65625" xlink:href="#DejaVuSans-54"/>
      </g>
     </g>
    </g>
    <g id="ytick_8">
     <g id="line2d_14">
      <g>
       <use style="stroke:#000000;stroke-width:0.8;" x="57.6" xlink:href="#md57acfec66" y="50.562851"/>
      </g>
     </g>
     <g id="text_15">
      <!-- 0.007 -->
      <defs>
       <path d="M 8.203125 72.90625 
L 55.078125 72.90625 
L 55.078125 68.703125 
L 28.609375 0 
L 18.3125 0 
L 43.21875 64.59375 
L 8.203125 64.59375 
z
" id="DejaVuSans-55"/>
      </defs>
      <g transform="translate(21.971875 54.362069)scale(0.1 -0.1)">
       <use xlink:href="#DejaVuSans-48"/>
       <use x="63.623047" xlink:href="#DejaVuSans-46"/>
       <use x="95.410156" xlink:href="#DejaVuSans-48"/>
       <use x="159.033203" xlink:href="#DejaVuSans-48"/>
       <use x="222.65625" xlink:href="#DejaVuSans-55"/>
      </g>
     </g>
    </g>
    <g id="text_16">
     <!-- Prob. Density (a.u.) -->
     <defs>
      <path d="M 19.671875 64.796875 
L 19.671875 37.40625 
L 32.078125 37.40625 
Q 38.96875 37.40625 42.71875 40.96875 
Q 46.484375 44.53125 46.484375 51.125 
Q 46.484375 57.671875 42.71875 61.234375 
Q 38.96875 64.796875 32.078125 64.796875 
z
M 9.8125 72.90625 
L 32.078125 72.90625 
Q 44.34375 72.90625 50.609375 67.359375 
Q 56.890625 61.8125 56.890625 51.125 
Q 56.890625 40.328125 50.609375 34.8125 
Q 44.34375 29.296875 32.078125 29.296875 
L 19.671875 29.296875 
L 19.671875 0 
L 9.8125 0 
z
" id="DejaVuSans-80"/>
      <path d="M 41.109375 46.296875 
Q 39.59375 47.171875 37.8125 47.578125 
Q 36.03125 48 33.890625 48 
Q 26.265625 48 22.1875 43.046875 
Q 18.109375 38.09375 18.109375 28.8125 
L 18.109375 0 
L 9.078125 0 
L 9.078125 54.6875 
L 18.109375 54.6875 
L 18.109375 46.1875 
Q 20.953125 51.171875 25.484375 53.578125 
Q 30.03125 56 36.53125 56 
Q 37.453125 56 38.578125 55.875 
Q 39.703125 55.765625 41.0625 55.515625 
z
" id="DejaVuSans-114"/>
      <path d="M 30.609375 48.390625 
Q 23.390625 48.390625 19.1875 42.75 
Q 14.984375 37.109375 14.984375 27.296875 
Q 14.984375 17.484375 19.15625 11.84375 
Q 23.34375 6.203125 30.609375 6.203125 
Q 37.796875 6.203125 41.984375 11.859375 
Q 46.1875 17.53125 46.1875 27.296875 
Q 46.1875 37.015625 41.984375 42.703125 
Q 37.796875 48.390625 30.609375 48.390625 
z
M 30.609375 56 
Q 42.328125 56 49.015625 48.375 
Q 55.71875 40.765625 55.71875 27.296875 
Q 55.71875 13.875 49.015625 6.21875 
Q 42.328125 -1.421875 30.609375 -1.421875 
Q 18.84375 -1.421875 12.171875 6.21875 
Q 5.515625 13.875 5.515625 27.296875 
Q 5.515625 40.765625 12.171875 48.375 
Q 18.84375 56 30.609375 56 
z
" id="DejaVuSans-111"/>
      <path id="DejaVuSans-32"/>
      <path d="M 19.671875 64.796875 
L 19.671875 8.109375 
L 31.59375 8.109375 
Q 46.6875 8.109375 53.6875 14.9375 
Q 60.6875 21.78125 60.6875 36.53125 
Q 60.6875 51.171875 53.6875 57.984375 
Q 46.6875 64.796875 31.59375 64.796875 
z
M 9.8125 72.90625 
L 30.078125 72.90625 
Q 51.265625 72.90625 61.171875 64.09375 
Q 71.09375 55.28125 71.09375 36.53125 
Q 71.09375 17.671875 61.125 8.828125 
Q 51.171875 0 30.078125 0 
L 9.8125 0 
z
" id="DejaVuSans-68"/>
      <path d="M 56.203125 29.59375 
L 56.203125 25.203125 
L 14.890625 25.203125 
Q 15.484375 15.921875 20.484375 11.0625 
Q 25.484375 6.203125 34.421875 6.203125 
Q 39.59375 6.203125 44.453125 7.46875 
Q 49.3125 8.734375 54.109375 11.28125 
L 54.109375 2.78125 
Q 49.265625 0.734375 44.1875 -0.34375 
Q 39.109375 -1.421875 33.890625 -1.421875 
Q 20.796875 -1.421875 13.15625 6.1875 
Q 5.515625 13.8125 5.515625 26.8125 
Q 5.515625 40.234375 12.765625 48.109375 
Q 20.015625 56 32.328125 56 
Q 43.359375 56 49.78125 48.890625 
Q 56.203125 41.796875 56.203125 29.59375 
z
M 47.21875 32.234375 
Q 47.125 39.59375 43.09375 43.984375 
Q 39.0625 48.390625 32.421875 48.390625 
Q 24.90625 48.390625 20.390625 44.140625 
Q 15.875 39.890625 15.1875 32.171875 
z
" id="DejaVuSans-101"/>
      <path d="M 44.28125 53.078125 
L 44.28125 44.578125 
Q 40.484375 46.53125 36.375 47.5 
Q 32.28125 48.484375 27.875 48.484375 
Q 21.1875 48.484375 17.84375 46.4375 
Q 14.5 44.390625 14.5 40.28125 
Q 14.5 37.15625 16.890625 35.375 
Q 19.28125 33.59375 26.515625 31.984375 
L 29.59375 31.296875 
Q 39.15625 29.25 43.1875 25.515625 
Q 47.21875 21.78125 47.21875 15.09375 
Q 47.21875 7.46875 41.1875 3.015625 
Q 35.15625 -1.421875 24.609375 -1.421875 
Q 20.21875 -1.421875 15.453125 -0.5625 
Q 10.6875 0.296875 5.421875 2 
L 5.421875 11.28125 
Q 10.40625 8.6875 15.234375 7.390625 
Q 20.0625 6.109375 24.8125 6.109375 
Q 31.15625 6.109375 34.5625 8.28125 
Q 37.984375 10.453125 37.984375 14.40625 
Q 37.984375 18.0625 35.515625 20.015625 
Q 33.0625 21.96875 24.703125 23.78125 
L 21.578125 24.515625 
Q 13.234375 26.265625 9.515625 29.90625 
Q 5.8125 33.546875 5.8125 39.890625 
Q 5.8125 47.609375 11.28125 51.796875 
Q 16.75 56 26.8125 56 
Q 31.78125 56 36.171875 55.265625 
Q 40.578125 54.546875 44.28125 53.078125 
z
" id="DejaVuSans-115"/>
      <path d="M 9.421875 54.6875 
L 18.40625 54.6875 
L 18.40625 0 
L 9.421875 0 
z
M 9.421875 75.984375 
L 18.40625 75.984375 
L 18.40625 64.59375 
L 9.421875 64.59375 
z
" id="DejaVuSans-105"/>
      <path d="M 32.171875 -5.078125 
Q 28.375 -14.84375 24.75 -17.8125 
Q 21.140625 -20.796875 15.09375 -20.796875 
L 7.90625 -20.796875 
L 7.90625 -13.28125 
L 13.1875 -13.28125 
Q 16.890625 -13.28125 18.9375 -11.515625 
Q 21 -9.765625 23.484375 -3.21875 
L 25.09375 0.875 
L 2.984375 54.6875 
L 12.5 54.6875 
L 29.59375 11.921875 
L 46.6875 54.6875 
L 56.203125 54.6875 
z
" id="DejaVuSans-121"/>
      <path d="M 31 75.875 
Q 24.46875 64.65625 21.28125 53.65625 
Q 18.109375 42.671875 18.109375 31.390625 
Q 18.109375 20.125 21.3125 9.0625 
Q 24.515625 -2 31 -13.1875 
L 23.1875 -13.1875 
Q 15.875 -1.703125 12.234375 9.375 
Q 8.59375 20.453125 8.59375 31.390625 
Q 8.59375 42.28125 12.203125 53.3125 
Q 15.828125 64.359375 23.1875 75.875 
z
" id="DejaVuSans-40"/>
      <path d="M 34.28125 27.484375 
Q 23.390625 27.484375 19.1875 25 
Q 14.984375 22.515625 14.984375 16.5 
Q 14.984375 11.71875 18.140625 8.90625 
Q 21.296875 6.109375 26.703125 6.109375 
Q 34.1875 6.109375 38.703125 11.40625 
Q 43.21875 16.703125 43.21875 25.484375 
L 43.21875 27.484375 
z
M 52.203125 31.203125 
L 52.203125 0 
L 43.21875 0 
L 43.21875 8.296875 
Q 40.140625 3.328125 35.546875 0.953125 
Q 30.953125 -1.421875 24.3125 -1.421875 
Q 15.921875 -1.421875 10.953125 3.296875 
Q 6 8.015625 6 15.921875 
Q 6 25.140625 12.171875 29.828125 
Q 18.359375 34.515625 30.609375 34.515625 
L 43.21875 34.515625 
L 43.21875 35.40625 
Q 43.21875 41.609375 39.140625 45 
Q 35.0625 48.390625 27.6875 48.390625 
Q 23 48.390625 18.546875 47.265625 
Q 14.109375 46.140625 10.015625 43.890625 
L 10.015625 52.203125 
Q 14.9375 54.109375 19.578125 55.046875 
Q 24.21875 56 28.609375 56 
Q 40.484375 56 46.34375 49.84375 
Q 52.203125 43.703125 52.203125 31.203125 
z
" id="DejaVuSans-97"/>
      <path d="M 8.5 21.578125 
L 8.5 54.6875 
L 17.484375 54.6875 
L 17.484375 21.921875 
Q 17.484375 14.15625 20.5 10.265625 
Q 23.53125 6.390625 29.59375 6.390625 
Q 36.859375 6.390625 41.078125 11.03125 
Q 45.3125 15.671875 45.3125 23.6875 
L 45.3125 54.6875 
L 54.296875 54.6875 
L 54.296875 0 
L 45.3125 0 
L 45.3125 8.40625 
Q 42.046875 3.421875 37.71875 1 
Q 33.40625 -1.421875 27.6875 -1.421875 
Q 18.265625 -1.421875 13.375 4.4375 
Q 8.5 10.296875 8.5 21.578125 
z
M 31.109375 56 
z
" id="DejaVuSans-117"/>
      <path d="M 8.015625 75.875 
L 15.828125 75.875 
Q 23.140625 64.359375 26.78125 53.3125 
Q 30.421875 42.28125 30.421875 31.390625 
Q 30.421875 20.453125 26.78125 9.375 
Q 23.140625 -1.703125 15.828125 -13.1875 
L 8.015625 -13.1875 
Q 14.5 -2 17.703125 9.0625 
Q 20.90625 20.125 20.90625 31.390625 
Q 20.90625 42.671875 17.703125 53.65625 
Q 14.5 64.65625 8.015625 75.875 
z
" id="DejaVuSans-41"/>
     </defs>
     <g transform="translate(15.892187 222.917844)rotate(-90)scale(0.1 -0.1)">
      <use xlink:href="#DejaVuSans-80"/>
      <use x="60.287109" xlink:href="#DejaVuSans-114"/>
      <use x="101.369141" xlink:href="#DejaVuSans-111"/>
      <use x="162.550781" xlink:href="#DejaVuSans-98"/>
      <use x="226.027344" xlink:href="#DejaVuSans-46"/>
      <use x="257.814453" xlink:href="#DejaVuSans-32"/>
      <use x="289.601562" xlink:href="#DejaVuSans-68"/>
      <use x="366.603516" xlink:href="#DejaVuSans-101"/>
      <use x="428.126953" xlink:href="#DejaVuSans-110"/>
      <use x="491.505859" xlink:href="#DejaVuSans-115"/>
      <use x="543.605469" xlink:href="#DejaVuSans-105"/>
      <use x="571.388672" xlink:href="#DejaVuSans-116"/>
      <use x="610.597656" xlink:href="#DejaVuSans-121"/>
      <use x="669.777344" xlink:href="#DejaVuSans-32"/>
      <use x="701.564453" xlink:href="#DejaVuSans-40"/>
      <use x="740.578125" xlink:href="#DejaVuSans-97"/>
      <use x="801.857422" xlink:href="#DejaVuSans-46"/>
      <use x="833.644531" xlink:href="#DejaVuSans-117"/>
      <use x="897.023438" xlink:href="#DejaVuSans-46"/>
      <use x="928.810547" xlink:href="#DejaVuSans-41"/>
     </g>
    </g>
   </g>
   <g id="patch_9">
    <path d="M 57.6 307.584 
L 57.6 41.472 
" style="fill:none;stroke:#000000;stroke-linecap:square;stroke-linejoin:miter;stroke-width:0.8;"/>
   </g>
   <g id="patch_10">
    <path d="M 414.72 307.584 
L 414.72 41.472 
" style="fill:none;stroke:#000000;stroke-linecap:square;stroke-linejoin:miter;stroke-width:0.8;"/>
   </g>
   <g id="patch_11">
    <path d="M 57.6 307.584 
L 414.72 307.584 
" style="fill:none;stroke:#000000;stroke-linecap:square;stroke-linejoin:miter;stroke-width:0.8;"/>
   </g>
   <g id="patch_12">
    <path d="M 57.6 41.472 
L 414.72 41.472 
" style="fill:none;stroke:#000000;stroke-linecap:square;stroke-linejoin:miter;stroke-width:0.8;"/>
   </g>
   <g id="legend_1">
    <g id="patch_13">
     <path d="M 325.405938 137.54075 
L 407.72 137.54075 
Q 409.72 137.54075 409.72 135.54075 
L 409.72 48.472 
Q 409.72 46.472 407.72 46.472 
L 325.405938 46.472 
Q 323.405938 46.472 323.405938 48.472 
L 323.405938 135.54075 
Q 323.405938 137.54075 325.405938 137.54075 
z
" style="fill:#ffffff;opacity:0.8;stroke:#cccccc;stroke-linejoin:miter;"/>
    </g>
    <g id="patch_14">
     <path d="M 327.405938 58.070438 
L 347.405938 58.070438 
L 347.405938 51.070438 
L 327.405938 51.070438 
z
" style="fill:none;stroke:#1f77b4;stroke-linejoin:miter;"/>
    </g>
    <g id="text_17">
     <!-- quark -->
     <defs>
      <path d="M 14.796875 27.296875 
Q 14.796875 17.390625 18.875 11.75 
Q 22.953125 6.109375 30.078125 6.109375 
Q 37.203125 6.109375 41.296875 11.75 
Q 45.40625 17.390625 45.40625 27.296875 
Q 45.40625 37.203125 41.296875 42.84375 
Q 37.203125 48.484375 30.078125 48.484375 
Q 22.953125 48.484375 18.875 42.84375 
Q 14.796875 37.203125 14.796875 27.296875 
z
M 45.40625 8.203125 
Q 42.578125 3.328125 38.25 0.953125 
Q 33.9375 -1.421875 27.875 -1.421875 
Q 17.96875 -1.421875 11.734375 6.484375 
Q 5.515625 14.40625 5.515625 27.296875 
Q 5.515625 40.1875 11.734375 48.09375 
Q 17.96875 56 27.875 56 
Q 33.9375 56 38.25 53.625 
Q 42.578125 51.265625 45.40625 46.390625 
L 45.40625 54.6875 
L 54.390625 54.6875 
L 54.390625 -20.796875 
L 45.40625 -20.796875 
z
" id="DejaVuSans-113"/>
      <path d="M 9.078125 75.984375 
L 18.109375 75.984375 
L 18.109375 31.109375 
L 44.921875 54.6875 
L 56.390625 54.6875 
L 27.390625 29.109375 
L 57.625 0 
L 45.90625 0 
L 18.109375 26.703125 
L 18.109375 0 
L 9.078125 0 
z
" id="DejaVuSans-107"/>
     </defs>
     <g transform="translate(355.405938 58.070438)scale(0.1 -0.1)">
      <use xlink:href="#DejaVuSans-113"/>
      <use x="63.476562" xlink:href="#DejaVuSans-117"/>
      <use x="126.855469" xlink:href="#DejaVuSans-97"/>
      <use x="188.134766" xlink:href="#DejaVuSans-114"/>
      <use x="229.248047" xlink:href="#DejaVuSans-107"/>
     </g>
    </g>
    <g id="patch_15">
     <path d="M 327.405938 72.748563 
L 347.405938 72.748563 
L 347.405938 65.748563 
L 327.405938 65.748563 
z
" style="fill:none;stroke:#ff7f0e;stroke-linejoin:miter;"/>
    </g>
    <g id="text_18">
     <!-- gluon -->
     <defs>
      <path d="M 45.40625 27.984375 
Q 45.40625 37.75 41.375 43.109375 
Q 37.359375 48.484375 30.078125 48.484375 
Q 22.859375 48.484375 18.828125 43.109375 
Q 14.796875 37.75 14.796875 27.984375 
Q 14.796875 18.265625 18.828125 12.890625 
Q 22.859375 7.515625 30.078125 7.515625 
Q 37.359375 7.515625 41.375 12.890625 
Q 45.40625 18.265625 45.40625 27.984375 
z
M 54.390625 6.78125 
Q 54.390625 -7.171875 48.1875 -13.984375 
Q 42 -20.796875 29.203125 -20.796875 
Q 24.46875 -20.796875 20.265625 -20.09375 
Q 16.0625 -19.390625 12.109375 -17.921875 
L 12.109375 -9.1875 
Q 16.0625 -11.328125 19.921875 -12.34375 
Q 23.78125 -13.375 27.78125 -13.375 
Q 36.625 -13.375 41.015625 -8.765625 
Q 45.40625 -4.15625 45.40625 5.171875 
L 45.40625 9.625 
Q 42.625 4.78125 38.28125 2.390625 
Q 33.9375 0 27.875 0 
Q 17.828125 0 11.671875 7.65625 
Q 5.515625 15.328125 5.515625 27.984375 
Q 5.515625 40.671875 11.671875 48.328125 
Q 17.828125 56 27.875 56 
Q 33.9375 56 38.28125 53.609375 
Q 42.625 51.21875 45.40625 46.390625 
L 45.40625 54.6875 
L 54.390625 54.6875 
z
" id="DejaVuSans-103"/>
      <path d="M 9.421875 75.984375 
L 18.40625 75.984375 
L 18.40625 0 
L 9.421875 0 
z
" id="DejaVuSans-108"/>
     </defs>
     <g transform="translate(355.405938 72.748563)scale(0.1 -0.1)">
      <use xlink:href="#DejaVuSans-103"/>
      <use x="63.476562" xlink:href="#DejaVuSans-108"/>
      <use x="91.259766" xlink:href="#DejaVuSans-117"/>
      <use x="154.638672" xlink:href="#DejaVuSans-111"/>
      <use x="215.820312" xlink:href="#DejaVuSans-110"/>
     </g>
    </g>
    <g id="patch_16">
     <path d="M 327.405938 87.426688 
L 347.405938 87.426688 
L 347.405938 80.426688 
L 327.405938 80.426688 
z
" style="fill:none;stroke:#2ca02c;stroke-linejoin:miter;"/>
    </g>
    <g id="text_19">
     <!-- W -->
     <defs>
      <path d="M 3.328125 72.90625 
L 13.28125 72.90625 
L 28.609375 11.28125 
L 43.890625 72.90625 
L 54.984375 72.90625 
L 70.3125 11.28125 
L 85.59375 72.90625 
L 95.609375 72.90625 
L 77.296875 0 
L 64.890625 0 
L 49.515625 63.28125 
L 33.984375 0 
L 21.578125 0 
z
" id="DejaVuSans-87"/>
     </defs>
     <g transform="translate(355.405938 87.426688)scale(0.1 -0.1)">
      <use xlink:href="#DejaVuSans-87"/>
     </g>
    </g>
    <g id="patch_17">
     <path d="M 327.405938 102.104813 
L 347.405938 102.104813 
L 347.405938 95.104813 
L 327.405938 95.104813 
z
" style="fill:none;stroke:#d62728;stroke-linejoin:miter;"/>
    </g>
    <g id="text_20">
     <!-- Z -->
     <defs>
      <path d="M 5.609375 72.90625 
L 62.890625 72.90625 
L 62.890625 65.375 
L 16.796875 8.296875 
L 64.015625 8.296875 
L 64.015625 0 
L 4.5 0 
L 4.5 7.515625 
L 50.59375 64.59375 
L 5.609375 64.59375 
z
" id="DejaVuSans-90"/>
     </defs>
     <g transform="translate(355.405938 102.104813)scale(0.1 -0.1)">
      <use xlink:href="#DejaVuSans-90"/>
     </g>
    </g>
    <g id="patch_18">
     <path d="M 327.405938 116.782938 
L 347.405938 116.782938 
L 347.405938 109.782938 
L 327.405938 109.782938 
z
" style="fill:none;stroke:#9467bd;stroke-linejoin:miter;"/>
    </g>
    <g id="text_21">
     <!-- top -->
     <defs>
      <path d="M 18.109375 8.203125 
L 18.109375 -20.796875 
L 9.078125 -20.796875 
L 9.078125 54.6875 
L 18.109375 54.6875 
L 18.109375 46.390625 
Q 20.953125 51.265625 25.265625 53.625 
Q 29.59375 56 35.59375 56 
Q 45.5625 56 51.78125 48.09375 
Q 58.015625 40.1875 58.015625 27.296875 
Q 58.015625 14.40625 51.78125 6.484375 
Q 45.5625 -1.421875 35.59375 -1.421875 
Q 29.59375 -1.421875 25.265625 0.953125 
Q 20.953125 3.328125 18.109375 8.203125 
z
M 48.6875 27.296875 
Q 48.6875 37.203125 44.609375 42.84375 
Q 40.53125 48.484375 33.40625 48.484375 
Q 26.265625 48.484375 22.1875 42.84375 
Q 18.109375 37.203125 18.109375 27.296875 
Q 18.109375 17.390625 22.1875 11.75 
Q 26.265625 6.109375 33.40625 6.109375 
Q 40.53125 6.109375 44.609375 11.75 
Q 48.6875 17.390625 48.6875 27.296875 
z
" id="DejaVuSans-112"/>
     </defs>
     <g transform="translate(355.405938 116.782938)scale(0.1 -0.1)">
      <use xlink:href="#DejaVuSans-116"/>
      <use x="39.208984" xlink:href="#DejaVuSans-111"/>
      <use x="100.390625" xlink:href="#DejaVuSans-112"/>
     </g>
    </g>
    <g id="patch_19">
     <path d="M 327.405938 131.461063 
L 347.405938 131.461063 
L 347.405938 124.461063 
L 327.405938 124.461063 
z
" style="fill:none;stroke:#000000;stroke-linejoin:miter;"/>
    </g>
    <g id="text_22">
     <!-- undefined -->
     <defs>
      <path d="M 37.109375 75.984375 
L 37.109375 68.5 
L 28.515625 68.5 
Q 23.6875 68.5 21.796875 66.546875 
Q 19.921875 64.59375 19.921875 59.515625 
L 19.921875 54.6875 
L 34.71875 54.6875 
L 34.71875 47.703125 
L 19.921875 47.703125 
L 19.921875 0 
L 10.890625 0 
L 10.890625 47.703125 
L 2.296875 47.703125 
L 2.296875 54.6875 
L 10.890625 54.6875 
L 10.890625 58.5 
Q 10.890625 67.625 15.140625 71.796875 
Q 19.390625 75.984375 28.609375 75.984375 
z
" id="DejaVuSans-102"/>
     </defs>
     <g transform="translate(355.405938 131.461063)scale(0.1 -0.1)">
      <use xlink:href="#DejaVuSans-117"/>
      <use x="63.378906" xlink:href="#DejaVuSans-110"/>
      <use x="126.757812" xlink:href="#DejaVuSans-100"/>
      <use x="190.234375" xlink:href="#DejaVuSans-101"/>
      <use x="251.757812" xlink:href="#DejaVuSans-102"/>
      <use x="286.962891" xlink:href="#DejaVuSans-105"/>
      <use x="314.746094" xlink:href="#DejaVuSans-110"/>
      <use x="378.125" xlink:href="#DejaVuSans-101"/>
      <use x="439.648438" xlink:href="#DejaVuSans-100"/>
     </g>
    </g>
   </g>
  </g>
 </g>
 <defs>
  <clipPath id="pcad35e2110">
   <rect height="266.112" width="357.12" x="57.6" y="41.472"/>
  </clipPath>
 </defs>
</svg>
