<?xml version="1.0" encoding="utf-8" standalone="no"?>
<!DOCTYPE svg PUBLIC "-//W3C//DTD SVG 1.1//EN"
  "http://www.w3.org/Graphics/SVG/1.1/DTD/svg11.dtd">
<!-- Created with matplotlib (https://matplotlib.org/) -->
<svg height="345.6pt" version="1.1" viewBox="0 0 460.8 345.6" width="460.8pt" xmlns="http://www.w3.org/2000/svg" xmlns:xlink="http://www.w3.org/1999/xlink">
 <defs>
  <style type="text/css">
*{stroke-linecap:butt;stroke-linejoin:round;}
  </style>
 </defs>
 <g id="figure_1">
  <g id="patch_1">
   <path d="M 0 345.6 
L 460.8 345.6 
L 460.8 0 
L 0 0 
z
" style="fill:#ffffff;"/>
  </g>
  <g id="axes_1">
   <g id="patch_2">
    <path d="M 57.6 307.584 
L 414.72 307.584 
L 414.72 41.472 
L 57.6 41.472 
z
" style="fill:#ffffff;"/>
   </g>
   <g id="patch_3">
    <path clip-path="url(#p0abe73f3fb)" d="M 73.832727 307.584 
L 73.832727 306.307657 
L 80.325817 306.219473 
L 80.325817 304.432593 
L 83.572364 304.432593 
L 83.572364 305.806402 
L 86.818906 305.806402 
L 86.818906 305.35156 
L 90.065454 305.35156 
L 90.065454 305.671806 
L 93.312001 305.671806 
L 93.312001 304.349051 
L 96.558543 304.349051 
L 96.558543 305.384049 
L 99.805091 305.384049 
L 99.805091 304.325844 
L 106.29818 304.284073 
L 106.29818 304.757481 
L 109.544728 304.757481 
L 109.544728 301.917037 
L 112.79127 301.917037 
L 112.79127 301.652486 
L 119.284365 301.712822 
L 119.284365 300.041972 
L 122.530907 300.041972 
L 122.530907 303.040219 
L 125.777449 303.040219 
L 125.777449 300.2926 
L 129.024001 300.2926 
L 129.024001 301.689615 
L 132.270544 301.689615 
L 132.270544 298.101931 
L 135.517086 298.101931 
L 135.517086 298.621751 
L 138.763638 298.621751 
L 138.763638 294.263622 
L 142.010181 294.263622 
L 142.010181 296.059783 
L 145.256723 296.059783 
L 145.256723 294.045481 
L 148.503275 294.045481 
L 148.503275 291.446382 
L 151.749818 291.446382 
L 151.749818 293.098665 
L 154.99636 293.098665 
L 154.99636 285.440608 
L 158.242912 285.440608 
L 158.242912 287.422422 
L 161.489454 287.422422 
L 161.489454 285.728365 
L 164.735997 285.728365 
L 164.735997 281.170663 
L 167.982539 281.170663 
L 167.982539 282.999314 
L 171.229091 282.999314 
L 171.229091 280.957164 
L 174.475634 280.957164 
L 174.475634 273.860697 
L 177.722176 273.860697 
L 177.722176 277.323066 
L 180.968728 277.323066 
L 180.968728 276.051361 
L 184.215271 276.051361 
L 184.215271 271.275526 
L 187.461813 271.275526 
L 187.461813 267.107683 
L 190.708365 267.107683 
L 190.708365 273.475474 
L 193.954908 273.475474 
L 193.954908 266.267617 
L 197.20145 266.267617 
L 197.20145 265.283671 
L 200.448002 265.283671 
L 200.448002 255.796964 
L 203.694544 255.796964 
L 203.694544 252.014345 
L 206.941087 252.014345 
L 206.941087 254.102906 
L 210.187639 254.102906 
L 210.187639 257.388909 
L 213.434171 257.388909 
L 213.434171 254.474206 
L 216.680724 254.474206 
L 216.680724 247.512332 
L 219.927276 247.512332 
L 219.927276 249.679801 
L 223.173808 249.679801 
L 223.173808 245.818281 
L 226.420361 245.818281 
L 226.420361 235.403317 
L 229.666913 235.403317 
L 229.666913 243.014967 
L 232.913445 243.014967 
L 232.913445 236.229465 
L 236.159997 236.229465 
L 236.159997 235.588966 
L 239.40655 235.588966 
L 239.40655 224.552083 
L 242.653082 224.552083 
L 242.653082 232.511823 
L 245.899634 232.511823 
L 245.899634 219.915481 
L 249.146187 219.915481 
L 249.146187 228.232589 
L 252.392719 228.232589 
L 252.392719 217.645907 
L 255.639271 217.645907 
L 255.639271 210.247758 
L 258.885824 210.247758 
L 258.885824 205.323379 
L 262.132356 205.323379 
L 262.132356 209.662963 
L 268.625461 209.755791 
L 268.625461 202.422629 
L 271.871993 202.422629 
L 271.871993 202.724305 
L 275.118545 202.724305 
L 275.118545 198.078408 
L 278.365098 198.078408 
L 278.365098 195.14049 
L 281.61163 195.14049 
L 281.61163 192.202593 
L 284.858182 192.202593 
L 284.858182 194.922368 
L 288.104714 194.922368 
L 288.104714 206.706487 
L 291.351267 206.706487 
L 291.351267 199.735341 
L 294.597819 199.735341 
L 294.597819 205.263061 
L 297.844351 205.263061 
L 297.844351 216.369569 
L 301.090903 216.369569 
L 301.090903 224.473186 
L 304.337456 224.473186 
L 304.337456 228.719926 
L 307.583988 228.719926 
L 307.583988 238.939945 
L 310.83054 238.939945 
L 310.83054 255.342126 
L 314.077093 255.342126 
L 314.077093 259.342871 
L 317.323625 259.342871 
L 317.323625 276.821811 
L 320.570177 276.821811 
L 320.570177 282.001444 
L 323.81673 282.001444 
L 323.81673 292.551 
L 327.063262 292.551 
L 327.063262 301.51789 
L 330.309814 301.51789 
L 330.309814 305.105574 
L 333.556367 305.105574 
L 333.556367 307.430839 
L 336.802899 307.430839 
L 336.802899 307.584 
L 398.487273 307.584 
L 398.487273 307.584 
" style="fill:none;stroke:#1f77b4;stroke-linejoin:miter;"/>
   </g>
   <g id="patch_4">
    <path clip-path="url(#p0abe73f3fb)" d="M 73.832727 307.584 
L 73.832727 306.864607 
L 77.079275 306.864607 
L 77.079275 307.240548 
L 80.325817 307.240548 
L 80.325817 307.124516 
L 83.572364 307.124516 
L 83.572364 306.419047 
L 86.818906 306.419047 
L 86.818906 307.231265 
L 90.065454 307.231265 
L 90.065454 306.39584 
L 93.312001 306.39584 
L 93.312001 306.261244 
L 96.558543 306.261244 
L 96.558543 305.787837 
L 99.805091 305.787837 
L 99.805091 305.272659 
L 106.29818 305.309789 
L 106.29818 305.880662 
L 109.544728 305.880662 
L 109.544728 304.882794 
L 112.79127 304.882794 
L 112.79127 305.397972 
L 116.037817 305.397972 
L 116.037817 302.469345 
L 119.284365 302.469345 
L 119.284365 303.23051 
L 125.777449 303.216587 
L 125.777449 303.560039 
L 129.024001 303.560039 
L 129.024001 302.30226 
L 132.270544 302.30226 
L 132.270544 301.039841 
L 135.517086 301.039841 
L 135.517086 299.011614 
L 138.763638 299.011614 
L 138.763638 299.91666 
L 142.010181 299.91666 
L 142.010181 296.384668 
L 145.256723 296.384668 
L 145.256723 295.024782 
L 148.503275 295.024782 
L 148.503275 296.301126 
L 151.749818 296.301126 
L 151.749818 295.331105 
L 154.99636 295.331105 
L 154.99636 289.009729 
L 158.242912 289.009729 
L 158.242912 287.798362 
L 161.489454 287.798362 
L 161.489454 286.341008 
L 164.735997 286.341008 
L 164.735997 289.042215 
L 167.982539 289.042215 
L 167.982539 281.309898 
L 171.229091 281.309898 
L 171.229091 281.532675 
L 174.475634 281.532675 
L 174.475634 278.803624 
L 177.722176 278.803624 
L 177.722176 274.872495 
L 180.968728 274.872495 
L 180.968728 275.331974 
L 187.461813 275.276277 
L 187.461813 267.367584 
L 190.708365 267.367584 
L 190.708365 267.878128 
L 193.954908 267.878128 
L 193.954908 264.081586 
L 197.20145 264.081586 
L 197.20145 258.864823 
L 200.448002 258.864823 
L 200.448002 264.373984 
L 203.694544 264.373984 
L 203.694544 255.917637 
L 206.941087 255.917637 
L 206.941087 252.413485 
L 210.187639 252.413485 
L 210.187639 241.497286 
L 213.434171 241.497286 
L 213.434171 237.561495 
L 216.680724 237.561495 
L 216.680724 230.933797 
L 219.927276 230.933797 
L 219.927276 235.575046 
L 223.173808 235.575046 
L 223.173808 227.26258 
L 226.420361 227.26258 
L 226.420361 212.545178 
L 229.666913 212.545178 
L 229.666913 219.544176 
L 232.913445 219.544176 
L 232.913445 221.507427 
L 236.159997 221.507427 
L 236.159997 206.729703 
L 239.40655 206.729703 
L 239.40655 185.616655 
L 242.653082 185.616655 
L 242.653082 189.728812 
L 245.899634 189.728812 
L 245.899634 189.617428 
L 249.146187 189.617428 
L 249.146187 176.000005 
L 252.392719 176.000005 
L 252.392719 170.574374 
L 255.639271 170.574374 
L 255.639271 164.754239 
L 258.885824 164.754239 
L 258.885824 143.933606 
L 262.132356 143.933606 
L 262.132356 145.650868 
L 265.378908 145.650868 
L 265.378908 141.046743 
L 268.625461 141.046743 
L 268.625461 127.276175 
L 271.871993 127.276175 
L 271.871993 126.779571 
L 275.118545 126.779571 
L 275.118545 115.255367 
L 278.365098 115.255367 
L 278.365098 95.520759 
L 281.61163 95.520759 
L 281.61163 106.144582 
L 284.858182 106.144582 
L 284.858182 87.199003 
L 288.104714 87.199003 
L 288.104714 99.256991 
L 291.351267 99.256991 
L 291.351267 76.654098 
L 294.597819 76.654098 
L 294.597819 74.964655 
L 297.844351 74.964655 
L 297.844351 54.144 
L 301.090903 54.144 
L 301.090903 70.165614 
L 304.337456 70.165614 
L 304.337456 73.386641 
L 307.583988 73.386641 
L 307.583988 78.297111 
L 310.83054 78.297111 
L 310.83054 78.928325 
L 314.077093 78.928325 
L 314.077093 103.89357 
L 317.323625 103.89357 
L 317.323625 137.723605 
L 320.570177 137.723605 
L 320.570177 151.489581 
L 323.81673 151.489581 
L 323.81673 206.112397 
L 327.063262 206.112397 
L 327.063262 250.02789 
L 330.309814 250.02789 
L 330.309814 280.69261 
L 333.556367 280.69261 
L 333.556367 300.533946 
L 336.802899 300.533946 
L 336.802899 306.920302 
L 340.049451 306.920302 
L 340.049451 307.584 
L 398.487273 307.584 
L 398.487273 307.584 
" style="fill:none;stroke:#ff7f0e;stroke-linejoin:miter;"/>
   </g>
   <g id="patch_5">
    <path clip-path="url(#p0abe73f3fb)" d="M 73.832727 307.584 
L 73.832727 307.045615 
L 77.079275 307.045615 
L 77.079275 306.832118 
L 80.325817 306.832118 
L 80.325817 306.627903 
L 83.572364 306.627903 
L 83.572364 306.836759 
L 86.818906 306.836759 
L 86.818906 306.024541 
L 90.065454 306.024541 
L 90.065454 305.848173 
L 93.312001 305.848173 
L 93.312001 304.246943 
L 96.558543 304.246943 
L 96.558543 301.893831 
L 99.805091 301.893831 
L 99.805091 301.104819 
L 103.051638 301.104819 
L 103.051638 298.714576 
L 106.29818 298.714576 
L 106.29818 291.845531 
L 109.544728 291.845531 
L 109.544728 289.070064 
L 112.79127 289.070064 
L 112.79127 287.422421 
L 116.037817 287.422421 
L 116.037817 279.75508 
L 119.284365 279.75508 
L 119.284365 275.387664 
L 122.530907 275.387664 
L 122.530907 270.713929 
L 125.777449 270.713929 
L 125.777449 269.214809 
L 129.024001 269.214809 
L 129.024001 261.236501 
L 132.270544 261.236501 
L 132.270544 255.615956 
L 135.517086 255.615956 
L 135.517086 252.501682 
L 138.763638 252.501682 
L 138.763638 251.963295 
L 142.010181 251.963295 
L 142.010181 244.815772 
L 145.256723 244.815772 
L 145.256723 243.349136 
L 148.503275 243.349136 
L 148.503275 237.07417 
L 151.749818 237.07417 
L 151.749818 231.184423 
L 154.99636 231.184423 
L 154.99636 236.173762 
L 158.242912 236.173762 
L 158.242912 231.806348 
L 161.489454 231.806348 
L 161.489454 227.954118 
L 164.735997 227.954118 
L 164.735997 232.975939 
L 167.982539 232.975939 
L 167.982539 225.15544 
L 171.229091 225.15544 
L 171.229091 227.554972 
L 174.475634 227.554972 
L 174.475634 231.954873 
L 177.722176 231.954873 
L 177.722176 225.9491 
L 180.968728 225.9491 
L 180.968728 232.442205 
L 184.215271 232.442205 
L 184.215271 232.163727 
L 187.461813 232.163727 
L 187.461813 229.420748 
L 190.708365 229.420748 
L 190.708365 232.660348 
L 193.954908 232.660348 
L 193.954908 229.657459 
L 197.20145 229.657459 
L 197.20145 236.82355 
L 200.448002 236.82355 
L 200.448002 233.880989 
L 203.694544 233.880989 
L 203.694544 235.259444 
L 206.941087 235.259444 
L 206.941087 240.773244 
L 210.187639 240.773244 
L 210.187639 233.328682 
L 213.434171 233.328682 
L 213.434171 238.034901 
L 216.680724 238.034901 
L 216.680724 234.447227 
L 219.927276 234.447227 
L 219.927276 237.422265 
L 223.173808 237.422265 
L 223.173808 240.745398 
L 226.420361 240.745398 
L 226.420361 237.078801 
L 229.666913 237.078801 
L 229.666913 231.629982 
L 232.913445 231.629982 
L 232.913445 249.531275 
L 236.159997 249.531275 
L 236.159997 247.029643 
L 239.40655 247.029643 
L 239.40655 243.799338 
L 242.653082 243.799338 
L 242.653082 246.500545 
L 245.899634 246.500545 
L 245.899634 237.097379 
L 249.146187 237.097379 
L 249.146187 247.261701 
L 252.392719 247.261701 
L 252.392719 243.971062 
L 255.639271 243.971062 
L 255.639271 246.300964 
L 258.885824 246.300964 
L 258.885824 254.0008 
L 262.132356 254.0008 
L 262.132356 251.578064 
L 265.378908 251.578064 
L 265.378908 258.326442 
L 268.625461 258.326442 
L 268.625461 260.456775 
L 271.871993 260.456775 
L 271.871993 257.045461 
L 275.118545 257.045461 
L 275.118545 252.622345 
L 278.365098 252.622345 
L 278.365098 257.00369 
L 281.61163 257.00369 
L 281.61163 257.129 
L 284.858182 257.129 
L 284.858182 263.677802 
L 288.104714 263.677802 
L 288.104714 269.49328 
L 291.351267 269.49328 
L 291.351267 270.904224 
L 294.597819 270.904224 
L 294.597819 275.96782 
L 297.844351 275.96782 
L 297.844351 281.337745 
L 301.090903 281.337745 
L 301.090903 281.774023 
L 304.337456 281.774023 
L 304.337456 280.901469 
L 307.583988 280.901469 
L 307.583988 284.716574 
L 310.83054 284.716574 
L 310.83054 290.959051 
L 314.077093 290.959051 
L 314.077093 295.558529 
L 317.323625 295.558529 
L 317.323625 298.682087 
L 320.570177 298.682087 
L 320.570177 302.413651 
L 323.81673 302.413651 
L 323.81673 302.956676 
L 327.063262 302.956676 
L 327.063262 305.79712 
L 330.309814 305.79712 
L 330.309814 307.347296 
L 333.556367 307.347296 
L 333.556367 307.208059 
L 336.802899 307.208059 
L 336.802899 307.584 
L 398.487273 307.584 
L 398.487273 307.584 
" style="fill:none;stroke:#2ca02c;stroke-linejoin:miter;"/>
   </g>
   <g id="patch_6">
    <path clip-path="url(#p0abe73f3fb)" d="M 73.832727 307.584 
L 73.832727 307.328731 
L 77.079275 307.328731 
L 77.079275 306.832118 
L 80.325817 306.832118 
L 80.325817 306.344787 
L 83.572364 306.344787 
L 83.572364 305.616111 
L 86.818906 305.616111 
L 86.818906 304.144835 
L 90.065454 304.144835 
L 90.065454 304.358333 
L 93.312001 304.358333 
L 93.312001 302.009862 
L 96.558543 302.009862 
L 96.558543 299.03018 
L 99.805091 299.03018 
L 99.805091 297.721349 
L 103.051638 297.721349 
L 103.051638 292.035822 
L 106.29818 292.035822 
L 106.29818 286.22498 
L 109.544728 286.22498 
L 109.544728 280.567302 
L 112.79127 280.567302 
L 112.79127 279.745799 
L 116.037817 279.745799 
L 116.037817 270.105927 
L 119.284365 270.105927 
L 119.284365 262.048723 
L 122.530907 262.048723 
L 122.530907 255.964046 
L 125.777449 255.964046 
L 125.777449 256.539562 
L 129.024001 256.539562 
L 129.024001 251.921523 
L 132.270544 251.921523 
L 132.270544 243.418754 
L 135.517086 243.418754 
L 135.517086 245.943596 
L 138.763638 245.943596 
L 138.763638 232.897042 
L 142.010181 232.897042 
L 142.010181 237.691459 
L 145.256723 237.691459 
L 145.256723 236.150563 
L 148.503275 236.150563 
L 148.503275 233.161588 
L 151.749818 233.161588 
L 151.749818 234.140904 
L 154.99636 234.140904 
L 154.99636 226.571026 
L 158.242912 226.571026 
L 158.242912 223.3268 
L 161.489454 223.3268 
L 161.489454 224.125086 
L 164.735997 224.125086 
L 164.735997 231.346863 
L 167.982539 231.346863 
L 167.982539 220.235714 
L 171.229091 220.235714 
L 171.229091 233.365817 
L 174.475634 233.365817 
L 174.475634 234.215164 
L 177.722176 234.215164 
L 177.722176 226.724187 
L 180.968728 226.724187 
L 180.968728 230.135501 
L 184.215271 230.135501 
L 184.215271 231.235479 
L 187.461813 231.235479 
L 187.461813 239.223065 
L 190.708365 239.223065 
L 190.708365 228.86844 
L 193.954908 228.86844 
L 193.954908 226.877349 
L 197.20145 226.877349 
L 197.20145 234.976325 
L 200.448002 234.976325 
L 200.448002 227.360044 
L 203.694544 227.360044 
L 203.694544 237.858541 
L 206.941087 237.858541 
L 206.941087 229.629607 
L 210.187639 229.629607 
L 210.187639 231.797075 
L 213.434171 231.797075 
L 213.434171 238.253044 
L 216.680724 238.253044 
L 216.680724 237.747151 
L 219.927276 237.747151 
L 219.927276 239.886762 
L 223.173808 239.886762 
L 223.173808 245.80436 
L 226.420361 245.80436 
L 226.420361 236.739995 
L 229.666913 236.739995 
L 229.666913 239.376232 
L 232.913445 239.376232 
L 232.913445 246.333452 
L 239.40655 246.226704 
L 239.40655 244.579067 
L 242.653082 244.579067 
L 242.653082 248.900066 
L 245.899634 248.900066 
L 245.899634 238.619707 
L 249.146187 238.619707 
L 249.146187 250.584845 
L 252.392719 250.584845 
L 252.392719 249.220315 
L 255.639271 249.220315 
L 255.639271 251.545576 
L 258.885824 251.545576 
L 258.885824 254.724831 
L 262.132356 254.724831 
L 262.132356 252.023624 
L 265.378908 252.023624 
L 265.378908 249.628739 
L 268.625461 249.628739 
L 268.625461 250.371338 
L 271.871993 250.371338 
L 271.871993 260.252557 
L 275.118545 260.252557 
L 275.118545 259.746664 
L 278.365098 259.746664 
L 278.365098 252.93331 
L 281.61163 252.93331 
L 281.61163 269.595389 
L 284.858182 269.595389 
L 284.858182 262.828449 
L 288.104714 262.828449 
L 288.104714 268.059141 
L 291.351267 268.059141 
L 291.351267 273.9628 
L 294.597819 273.9628 
L 294.597819 272.598276 
L 297.844351 272.598276 
L 297.844351 275.030293 
L 301.090903 275.030293 
L 301.090903 280.604432 
L 304.337456 280.604432 
L 304.337456 282.270638 
L 307.583988 282.270638 
L 307.583988 285.078591 
L 310.83054 285.078591 
L 310.83054 290.959051 
L 314.077093 290.959051 
L 314.077093 291.47887 
L 317.323625 291.47887 
L 317.323625 300.951658 
L 320.570177 300.951658 
L 320.570177 302.427574 
L 323.81673 302.427574 
L 323.81673 304.548624 
L 327.063262 304.548624 
L 327.063262 306.363352 
L 330.309814 306.363352 
L 330.309814 307.584 
L 398.487273 307.584 
L 398.487273 307.584 
" style="fill:none;stroke:#d62728;stroke-linejoin:miter;"/>
   </g>
   <g id="patch_7">
    <path clip-path="url(#p0abe73f3fb)" d="M 73.832727 307.584 
L 73.832727 307.152364 
L 77.079275 307.152364 
L 77.079275 307.584 
L 83.572364 307.584 
L 83.572364 307.347296 
L 86.818906 307.347296 
L 86.818906 306.887813 
L 90.065454 306.887813 
L 90.065454 306.706804 
L 93.312001 306.706804 
L 93.312001 306.558284 
L 96.558543 306.558284 
L 96.558543 306.135931 
L 99.805091 306.135931 
L 99.805091 304.692502 
L 103.051638 304.692502 
L 103.051638 302.255847 
L 106.29818 302.255847 
L 106.29818 299.87953 
L 109.544728 299.87953 
L 109.544728 296.143323 
L 112.79127 296.143323 
L 112.79127 296.941618 
L 116.037817 296.941618 
L 116.037817 290.921921 
L 119.284365 290.921921 
L 119.284365 284.860453 
L 122.530907 284.860453 
L 122.530907 285.988276 
L 125.777449 285.988276 
L 125.777449 281.500187 
L 129.024001 281.500187 
L 129.024001 276.408737 
L 132.270544 276.408737 
L 132.270544 274.533678 
L 138.763638 274.459418 
L 138.763638 266.290824 
L 142.010181 266.290824 
L 142.010181 260.985878 
L 145.256723 260.985878 
L 145.256723 267.223717 
L 148.503275 267.223717 
L 148.503275 258.465678 
L 151.749818 258.465678 
L 151.749818 253.726954 
L 154.99636 253.726954 
L 154.99636 259.031911 
L 158.242912 259.031911 
L 158.242912 253.165374 
L 161.489454 253.165374 
L 161.489454 252.139655 
L 164.735997 252.139655 
L 164.735997 249.600893 
L 167.982539 249.600893 
L 167.982539 248.83509 
L 171.229091 248.83509 
L 171.229091 239.784656 
L 174.475634 239.784656 
L 174.475634 247.238497 
L 177.722176 247.238497 
L 177.722176 242.207381 
L 180.968728 242.207381 
L 180.968728 237.213417 
L 184.215271 237.213417 
L 184.215271 232.618576 
L 187.461813 232.618576 
L 187.461813 235.472935 
L 190.708365 235.472935 
L 190.708365 229.838472 
L 193.954908 229.838472 
L 193.954908 232.771738 
L 197.20145 232.771738 
L 197.20145 224.264321 
L 200.448002 224.264321 
L 200.448002 224.965149 
L 203.694544 224.965149 
L 203.694544 218.954745 
L 206.941087 218.954745 
L 206.941087 212.299184 
L 210.187639 212.299184 
L 210.187639 205.434785 
L 213.434171 205.434785 
L 213.434171 199.791033 
L 216.680724 199.791033 
L 216.680724 194.100851 
L 219.927276 194.100851 
L 219.927276 199.322259 
L 223.173808 199.322259 
L 223.173808 187.152909 
L 226.420361 187.152909 
L 226.420361 166.123417 
L 229.666913 166.123417 
L 229.666913 153.735946 
L 232.913445 153.735946 
L 232.913445 143.172451 
L 236.159997 143.172451 
L 236.159997 143.539136 
L 239.40655 143.539136 
L 239.40655 113.793362 
L 242.653082 113.793362 
L 242.653082 111.85331 
L 245.899634 111.85331 
L 245.899634 105.847565 
L 249.146187 105.847565 
L 249.146187 103.007099 
L 252.392719 103.007099 
L 252.392719 95.701789 
L 255.639271 95.701789 
L 255.639271 74.036423 
L 258.885824 74.036423 
L 258.885824 89.844497 
L 262.132356 89.844497 
L 262.132356 92.34614 
L 265.378908 92.34614 
L 265.378908 113.431347 
L 268.625461 113.431347 
L 268.625461 106.993918 
L 271.871993 106.993918 
L 271.871993 130.673573 
L 275.118545 130.673573 
L 275.118545 142.012133 
L 278.365098 142.012133 
L 278.365098 156.845566 
L 281.61163 156.845566 
L 281.61163 171.261281 
L 284.858182 171.261281 
L 284.858182 196.97843 
L 288.104714 196.97843 
L 288.104714 204.385863 
L 291.351267 204.385863 
L 291.351267 217.195706 
L 294.597819 217.195706 
L 294.597819 234.679291 
L 297.844351 234.679291 
L 297.844351 242.611179 
L 301.090903 242.611179 
L 301.090903 261.074058 
L 304.337456 261.074058 
L 304.337456 275.002438 
L 307.583988 275.002438 
L 307.583988 285.115721 
L 310.83054 285.115721 
L 310.83054 284.298862 
L 314.077093 284.298862 
L 314.077093 291.62275 
L 317.323625 291.62275 
L 317.323625 301.174437 
L 320.570177 301.174437 
L 320.570177 301.610714 
L 323.81673 301.610714 
L 323.81673 303.583245 
L 327.063262 303.583245 
L 327.063262 305.57434 
L 330.309814 305.57434 
L 330.309814 306.549002 
L 333.556367 306.549002 
L 333.556367 307.584 
L 398.487273 307.584 
L 398.487273 307.584 
" style="fill:none;stroke:#9467bd;stroke-linejoin:miter;"/>
   </g>
   <g id="patch_8">
    <path clip-path="url(#p0abe73f3fb)" d="M 73.832727 307.584 
L 398.487268 307.584 
L 398.487268 307.584 
" style="fill:none;stroke:#000000;stroke-linejoin:miter;"/>
   </g>
   <g id="matplotlib.axis_1">
    <g id="xtick_1">
     <g id="line2d_1">
      <defs>
       <path d="M 0 0 
L 0 3.5 
" id="mad7cee2f17" style="stroke:#000000;stroke-width:0.8;"/>
      </defs>
      <g>
       <use style="stroke:#000000;stroke-width:0.8;" x="102.314481" xlink:href="#mad7cee2f17" y="307.584"/>
      </g>
     </g>
     <g id="text_1">
      <!-- 0.1 -->
      <defs>
       <path d="M 31.78125 66.40625 
Q 24.171875 66.40625 20.328125 58.90625 
Q 16.5 51.421875 16.5 36.375 
Q 16.5 21.390625 20.328125 13.890625 
Q 24.171875 6.390625 31.78125 6.390625 
Q 39.453125 6.390625 43.28125 13.890625 
Q 47.125 21.390625 47.125 36.375 
Q 47.125 51.421875 43.28125 58.90625 
Q 39.453125 66.40625 31.78125 66.40625 
z
M 31.78125 74.21875 
Q 44.046875 74.21875 50.515625 64.515625 
Q 56.984375 54.828125 56.984375 36.375 
Q 56.984375 17.96875 50.515625 8.265625 
Q 44.046875 -1.421875 31.78125 -1.421875 
Q 19.53125 -1.421875 13.0625 8.265625 
Q 6.59375 17.96875 6.59375 36.375 
Q 6.59375 54.828125 13.0625 64.515625 
Q 19.53125 74.21875 31.78125 74.21875 
z
" id="DejaVuSans-48"/>
       <path d="M 10.6875 12.40625 
L 21 12.40625 
L 21 0 
L 10.6875 0 
z
" id="DejaVuSans-46"/>
       <path d="M 12.40625 8.296875 
L 28.515625 8.296875 
L 28.515625 63.921875 
L 10.984375 60.40625 
L 10.984375 69.390625 
L 28.421875 72.90625 
L 38.28125 72.90625 
L 38.28125 8.296875 
L 54.390625 8.296875 
L 54.390625 0 
L 12.40625 0 
z
" id="DejaVuSans-49"/>
      </defs>
      <g transform="translate(94.362919 322.182437)scale(0.1 -0.1)">
       <use xlink:href="#DejaVuSans-48"/>
       <use x="63.623047" xlink:href="#DejaVuSans-46"/>
       <use x="95.410156" xlink:href="#DejaVuSans-49"/>
      </g>
     </g>
    </g>
    <g id="xtick_2">
     <g id="line2d_2">
      <g>
       <use style="stroke:#000000;stroke-width:0.8;" x="170.640898" xlink:href="#mad7cee2f17" y="307.584"/>
      </g>
     </g>
     <g id="text_2">
      <!-- 0.2 -->
      <defs>
       <path d="M 19.1875 8.296875 
L 53.609375 8.296875 
L 53.609375 0 
L 7.328125 0 
L 7.328125 8.296875 
Q 12.9375 14.109375 22.625 23.890625 
Q 32.328125 33.6875 34.8125 36.53125 
Q 39.546875 41.84375 41.421875 45.53125 
Q 43.3125 49.21875 43.3125 52.78125 
Q 43.3125 58.59375 39.234375 62.25 
Q 35.15625 65.921875 28.609375 65.921875 
Q 23.96875 65.921875 18.8125 64.3125 
Q 13.671875 62.703125 7.8125 59.421875 
L 7.8125 69.390625 
Q 13.765625 71.78125 18.9375 73 
Q 24.125 74.21875 28.421875 74.21875 
Q 39.75 74.21875 46.484375 68.546875 
Q 53.21875 62.890625 53.21875 53.421875 
Q 53.21875 48.921875 51.53125 44.890625 
Q 49.859375 40.875 45.40625 35.40625 
Q 44.1875 33.984375 37.640625 27.21875 
Q 31.109375 20.453125 19.1875 8.296875 
z
" id="DejaVuSans-50"/>
      </defs>
      <g transform="translate(162.689336 322.182437)scale(0.1 -0.1)">
       <use xlink:href="#DejaVuSans-48"/>
       <use x="63.623047" xlink:href="#DejaVuSans-46"/>
       <use x="95.410156" xlink:href="#DejaVuSans-50"/>
      </g>
     </g>
    </g>
    <g id="xtick_3">
     <g id="line2d_3">
      <g>
       <use style="stroke:#000000;stroke-width:0.8;" x="238.967315" xlink:href="#mad7cee2f17" y="307.584"/>
      </g>
     </g>
     <g id="text_3">
      <!-- 0.3 -->
      <defs>
       <path d="M 40.578125 39.3125 
Q 47.65625 37.796875 51.625 33 
Q 55.609375 28.21875 55.609375 21.1875 
Q 55.609375 10.40625 48.1875 4.484375 
Q 40.765625 -1.421875 27.09375 -1.421875 
Q 22.515625 -1.421875 17.65625 -0.515625 
Q 12.796875 0.390625 7.625 2.203125 
L 7.625 11.71875 
Q 11.71875 9.328125 16.59375 8.109375 
Q 21.484375 6.890625 26.8125 6.890625 
Q 36.078125 6.890625 40.9375 10.546875 
Q 45.796875 14.203125 45.796875 21.1875 
Q 45.796875 27.640625 41.28125 31.265625 
Q 36.765625 34.90625 28.71875 34.90625 
L 20.21875 34.90625 
L 20.21875 43.015625 
L 29.109375 43.015625 
Q 36.375 43.015625 40.234375 45.921875 
Q 44.09375 48.828125 44.09375 54.296875 
Q 44.09375 59.90625 40.109375 62.90625 
Q 36.140625 65.921875 28.71875 65.921875 
Q 24.65625 65.921875 20.015625 65.03125 
Q 15.375 64.15625 9.8125 62.3125 
L 9.8125 71.09375 
Q 15.4375 72.65625 20.34375 73.4375 
Q 25.25 74.21875 29.59375 74.21875 
Q 40.828125 74.21875 47.359375 69.109375 
Q 53.90625 64.015625 53.90625 55.328125 
Q 53.90625 49.265625 50.4375 45.09375 
Q 46.96875 40.921875 40.578125 39.3125 
z
" id="DejaVuSans-51"/>
      </defs>
      <g transform="translate(231.015752 322.182437)scale(0.1 -0.1)">
       <use xlink:href="#DejaVuSans-48"/>
       <use x="63.623047" xlink:href="#DejaVuSans-46"/>
       <use x="95.410156" xlink:href="#DejaVuSans-51"/>
      </g>
     </g>
    </g>
    <g id="xtick_4">
     <g id="line2d_4">
      <g>
       <use style="stroke:#000000;stroke-width:0.8;" x="307.293732" xlink:href="#mad7cee2f17" y="307.584"/>
      </g>
     </g>
     <g id="text_4">
      <!-- 0.4 -->
      <defs>
       <path d="M 37.796875 64.3125 
L 12.890625 25.390625 
L 37.796875 25.390625 
z
M 35.203125 72.90625 
L 47.609375 72.90625 
L 47.609375 25.390625 
L 58.015625 25.390625 
L 58.015625 17.1875 
L 47.609375 17.1875 
L 47.609375 0 
L 37.796875 0 
L 37.796875 17.1875 
L 4.890625 17.1875 
L 4.890625 26.703125 
z
" id="DejaVuSans-52"/>
      </defs>
      <g transform="translate(299.342169 322.182437)scale(0.1 -0.1)">
       <use xlink:href="#DejaVuSans-48"/>
       <use x="63.623047" xlink:href="#DejaVuSans-46"/>
       <use x="95.410156" xlink:href="#DejaVuSans-52"/>
      </g>
     </g>
    </g>
    <g id="xtick_5">
     <g id="line2d_5">
      <g>
       <use style="stroke:#000000;stroke-width:0.8;" x="375.620149" xlink:href="#mad7cee2f17" y="307.584"/>
      </g>
     </g>
     <g id="text_5">
      <!-- 0.5 -->
      <defs>
       <path d="M 10.796875 72.90625 
L 49.515625 72.90625 
L 49.515625 64.59375 
L 19.828125 64.59375 
L 19.828125 46.734375 
Q 21.96875 47.46875 24.109375 47.828125 
Q 26.265625 48.1875 28.421875 48.1875 
Q 40.625 48.1875 47.75 41.5 
Q 54.890625 34.8125 54.890625 23.390625 
Q 54.890625 11.625 47.5625 5.09375 
Q 40.234375 -1.421875 26.90625 -1.421875 
Q 22.3125 -1.421875 17.546875 -0.640625 
Q 12.796875 0.140625 7.71875 1.703125 
L 7.71875 11.625 
Q 12.109375 9.234375 16.796875 8.0625 
Q 21.484375 6.890625 26.703125 6.890625 
Q 35.15625 6.890625 40.078125 11.328125 
Q 45.015625 15.765625 45.015625 23.390625 
Q 45.015625 31 40.078125 35.4375 
Q 35.15625 39.890625 26.703125 39.890625 
Q 22.75 39.890625 18.8125 39.015625 
Q 14.890625 38.140625 10.796875 36.28125 
z
" id="DejaVuSans-53"/>
      </defs>
      <g transform="translate(367.668586 322.182437)scale(0.1 -0.1)">
       <use xlink:href="#DejaVuSans-48"/>
       <use x="63.623047" xlink:href="#DejaVuSans-46"/>
       <use x="95.410156" xlink:href="#DejaVuSans-53"/>
      </g>
     </g>
    </g>
    <g id="text_6">
     <!-- j_n2_b1_mmdt -->
     <defs>
      <path d="M 9.421875 54.6875 
L 18.40625 54.6875 
L 18.40625 -0.984375 
Q 18.40625 -11.421875 14.421875 -16.109375 
Q 10.453125 -20.796875 1.609375 -20.796875 
L -1.8125 -20.796875 
L -1.8125 -13.1875 
L 0.59375 -13.1875 
Q 5.71875 -13.1875 7.5625 -10.8125 
Q 9.421875 -8.453125 9.421875 -0.984375 
z
M 9.421875 75.984375 
L 18.40625 75.984375 
L 18.40625 64.59375 
L 9.421875 64.59375 
z
" id="DejaVuSans-106"/>
      <path d="M 50.984375 -16.609375 
L 50.984375 -23.578125 
L -0.984375 -23.578125 
L -0.984375 -16.609375 
z
" id="DejaVuSans-95"/>
      <path d="M 54.890625 33.015625 
L 54.890625 0 
L 45.90625 0 
L 45.90625 32.71875 
Q 45.90625 40.484375 42.875 44.328125 
Q 39.84375 48.1875 33.796875 48.1875 
Q 26.515625 48.1875 22.3125 43.546875 
Q 18.109375 38.921875 18.109375 30.90625 
L 18.109375 0 
L 9.078125 0 
L 9.078125 54.6875 
L 18.109375 54.6875 
L 18.109375 46.1875 
Q 21.34375 51.125 25.703125 53.5625 
Q 30.078125 56 35.796875 56 
Q 45.21875 56 50.046875 50.171875 
Q 54.890625 44.34375 54.890625 33.015625 
z
" id="DejaVuSans-110"/>
      <path d="M 48.6875 27.296875 
Q 48.6875 37.203125 44.609375 42.84375 
Q 40.53125 48.484375 33.40625 48.484375 
Q 26.265625 48.484375 22.1875 42.84375 
Q 18.109375 37.203125 18.109375 27.296875 
Q 18.109375 17.390625 22.1875 11.75 
Q 26.265625 6.109375 33.40625 6.109375 
Q 40.53125 6.109375 44.609375 11.75 
Q 48.6875 17.390625 48.6875 27.296875 
z
M 18.109375 46.390625 
Q 20.953125 51.265625 25.265625 53.625 
Q 29.59375 56 35.59375 56 
Q 45.5625 56 51.78125 48.09375 
Q 58.015625 40.1875 58.015625 27.296875 
Q 58.015625 14.40625 51.78125 6.484375 
Q 45.5625 -1.421875 35.59375 -1.421875 
Q 29.59375 -1.421875 25.265625 0.953125 
Q 20.953125 3.328125 18.109375 8.203125 
L 18.109375 0 
L 9.078125 0 
L 9.078125 75.984375 
L 18.109375 75.984375 
z
" id="DejaVuSans-98"/>
      <path d="M 52 44.1875 
Q 55.375 50.25 60.0625 53.125 
Q 64.75 56 71.09375 56 
Q 79.640625 56 84.28125 50.015625 
Q 88.921875 44.046875 88.921875 33.015625 
L 88.921875 0 
L 79.890625 0 
L 79.890625 32.71875 
Q 79.890625 40.578125 77.09375 44.375 
Q 74.3125 48.1875 68.609375 48.1875 
Q 61.625 48.1875 57.5625 43.546875 
Q 53.515625 38.921875 53.515625 30.90625 
L 53.515625 0 
L 44.484375 0 
L 44.484375 32.71875 
Q 44.484375 40.625 41.703125 44.40625 
Q 38.921875 48.1875 33.109375 48.1875 
Q 26.21875 48.1875 22.15625 43.53125 
Q 18.109375 38.875 18.109375 30.90625 
L 18.109375 0 
L 9.078125 0 
L 9.078125 54.6875 
L 18.109375 54.6875 
L 18.109375 46.1875 
Q 21.1875 51.21875 25.484375 53.609375 
Q 29.78125 56 35.6875 56 
Q 41.65625 56 45.828125 52.96875 
Q 50 49.953125 52 44.1875 
z
" id="DejaVuSans-109"/>
      <path d="M 45.40625 46.390625 
L 45.40625 75.984375 
L 54.390625 75.984375 
L 54.390625 0 
L 45.40625 0 
L 45.40625 8.203125 
Q 42.578125 3.328125 38.25 0.953125 
Q 33.9375 -1.421875 27.875 -1.421875 
Q 17.96875 -1.421875 11.734375 6.484375 
Q 5.515625 14.40625 5.515625 27.296875 
Q 5.515625 40.1875 11.734375 48.09375 
Q 17.96875 56 27.875 56 
Q 33.9375 56 38.25 53.625 
Q 42.578125 51.265625 45.40625 46.390625 
z
M 14.796875 27.296875 
Q 14.796875 17.390625 18.875 11.75 
Q 22.953125 6.109375 30.078125 6.109375 
Q 37.203125 6.109375 41.296875 11.75 
Q 45.40625 17.390625 45.40625 27.296875 
Q 45.40625 37.203125 41.296875 42.84375 
Q 37.203125 48.484375 30.078125 48.484375 
Q 22.953125 48.484375 18.875 42.84375 
Q 14.796875 37.203125 14.796875 27.296875 
z
" id="DejaVuSans-100"/>
      <path d="M 18.3125 70.21875 
L 18.3125 54.6875 
L 36.8125 54.6875 
L 36.8125 47.703125 
L 18.3125 47.703125 
L 18.3125 18.015625 
Q 18.3125 11.328125 20.140625 9.421875 
Q 21.96875 7.515625 27.59375 7.515625 
L 36.8125 7.515625 
L 36.8125 0 
L 27.59375 0 
Q 17.1875 0 13.234375 3.875 
Q 9.28125 7.765625 9.28125 18.015625 
L 9.28125 47.703125 
L 2.6875 47.703125 
L 2.6875 54.6875 
L 9.28125 54.6875 
L 9.28125 70.21875 
z
" id="DejaVuSans-116"/>
     </defs>
     <g transform="translate(199.690469 335.860562)scale(0.1 -0.1)">
      <use xlink:href="#DejaVuSans-106"/>
      <use x="27.783203" xlink:href="#DejaVuSans-95"/>
      <use x="77.783203" xlink:href="#DejaVuSans-110"/>
      <use x="141.162109" xlink:href="#DejaVuSans-50"/>
      <use x="204.785156" xlink:href="#DejaVuSans-95"/>
      <use x="254.785156" xlink:href="#DejaVuSans-98"/>
      <use x="318.261719" xlink:href="#DejaVuSans-49"/>
      <use x="381.884766" xlink:href="#DejaVuSans-95"/>
      <use x="431.884766" xlink:href="#DejaVuSans-109"/>
      <use x="529.296875" xlink:href="#DejaVuSans-109"/>
      <use x="626.708984" xlink:href="#DejaVuSans-100"/>
      <use x="690.185547" xlink:href="#DejaVuSans-116"/>
     </g>
    </g>
   </g>
   <g id="matplotlib.axis_2">
    <g id="ytick_1">
     <g id="line2d_6">
      <defs>
       <path d="M 0 0 
L -3.5 0 
" id="m3aea0ebdf1" style="stroke:#000000;stroke-width:0.8;"/>
      </defs>
      <g>
       <use style="stroke:#000000;stroke-width:0.8;" x="57.6" xlink:href="#m3aea0ebdf1" y="307.584"/>
      </g>
     </g>
     <g id="text_7">
      <!-- 0.000 -->
      <g transform="translate(21.971875 311.383219)scale(0.1 -0.1)">
       <use xlink:href="#DejaVuSans-48"/>
       <use x="63.623047" xlink:href="#DejaVuSans-46"/>
       <use x="95.410156" xlink:href="#DejaVuSans-48"/>
       <use x="159.033203" xlink:href="#DejaVuSans-48"/>
       <use x="222.65625" xlink:href="#DejaVuSans-48"/>
      </g>
     </g>
    </g>
    <g id="ytick_2">
     <g id="line2d_7">
      <g>
       <use style="stroke:#000000;stroke-width:0.8;" x="57.6" xlink:href="#m3aea0ebdf1" y="260.058472"/>
      </g>
     </g>
     <g id="text_8">
      <!-- 0.002 -->
      <g transform="translate(21.971875 263.857691)scale(0.1 -0.1)">
       <use xlink:href="#DejaVuSans-48"/>
       <use x="63.623047" xlink:href="#DejaVuSans-46"/>
       <use x="95.410156" xlink:href="#DejaVuSans-48"/>
       <use x="159.033203" xlink:href="#DejaVuSans-48"/>
       <use x="222.65625" xlink:href="#DejaVuSans-50"/>
      </g>
     </g>
    </g>
    <g id="ytick_3">
     <g id="line2d_8">
      <g>
       <use style="stroke:#000000;stroke-width:0.8;" x="57.6" xlink:href="#m3aea0ebdf1" y="212.532945"/>
      </g>
     </g>
     <g id="text_9">
      <!-- 0.004 -->
      <g transform="translate(21.971875 216.332163)scale(0.1 -0.1)">
       <use xlink:href="#DejaVuSans-48"/>
       <use x="63.623047" xlink:href="#DejaVuSans-46"/>
       <use x="95.410156" xlink:href="#DejaVuSans-48"/>
       <use x="159.033203" xlink:href="#DejaVuSans-48"/>
       <use x="222.65625" xlink:href="#DejaVuSans-52"/>
      </g>
     </g>
    </g>
    <g id="ytick_4">
     <g id="line2d_9">
      <g>
       <use style="stroke:#000000;stroke-width:0.8;" x="57.6" xlink:href="#m3aea0ebdf1" y="165.007417"/>
      </g>
     </g>
     <g id="text_10">
      <!-- 0.006 -->
      <defs>
       <path d="M 33.015625 40.375 
Q 26.375 40.375 22.484375 35.828125 
Q 18.609375 31.296875 18.609375 23.390625 
Q 18.609375 15.53125 22.484375 10.953125 
Q 26.375 6.390625 33.015625 6.390625 
Q 39.65625 6.390625 43.53125 10.953125 
Q 47.40625 15.53125 47.40625 23.390625 
Q 47.40625 31.296875 43.53125 35.828125 
Q 39.65625 40.375 33.015625 40.375 
z
M 52.59375 71.296875 
L 52.59375 62.3125 
Q 48.875 64.0625 45.09375 64.984375 
Q 41.3125 65.921875 37.59375 65.921875 
Q 27.828125 65.921875 22.671875 59.328125 
Q 17.53125 52.734375 16.796875 39.40625 
Q 19.671875 43.65625 24.015625 45.921875 
Q 28.375 48.1875 33.59375 48.1875 
Q 44.578125 48.1875 50.953125 41.515625 
Q 57.328125 34.859375 57.328125 23.390625 
Q 57.328125 12.15625 50.6875 5.359375 
Q 44.046875 -1.421875 33.015625 -1.421875 
Q 20.359375 -1.421875 13.671875 8.265625 
Q 6.984375 17.96875 6.984375 36.375 
Q 6.984375 53.65625 15.1875 63.9375 
Q 23.390625 74.21875 37.203125 74.21875 
Q 40.921875 74.21875 44.703125 73.484375 
Q 48.484375 72.75 52.59375 71.296875 
z
" id="DejaVuSans-54"/>
      </defs>
      <g transform="translate(21.971875 168.806636)scale(0.1 -0.1)">
       <use xlink:href="#DejaVuSans-48"/>
       <use x="63.623047" xlink:href="#DejaVuSans-46"/>
       <use x="95.410156" xlink:href="#DejaVuSans-48"/>
       <use x="159.033203" xlink:href="#DejaVuSans-48"/>
       <use x="222.65625" xlink:href="#DejaVuSans-54"/>
      </g>
     </g>
    </g>
    <g id="ytick_5">
     <g id="line2d_10">
      <g>
       <use style="stroke:#000000;stroke-width:0.8;" x="57.6" xlink:href="#m3aea0ebdf1" y="117.481889"/>
      </g>
     </g>
     <g id="text_11">
      <!-- 0.008 -->
      <defs>
       <path d="M 31.78125 34.625 
Q 24.75 34.625 20.71875 30.859375 
Q 16.703125 27.09375 16.703125 20.515625 
Q 16.703125 13.921875 20.71875 10.15625 
Q 24.75 6.390625 31.78125 6.390625 
Q 38.8125 6.390625 42.859375 10.171875 
Q 46.921875 13.96875 46.921875 20.515625 
Q 46.921875 27.09375 42.890625 30.859375 
Q 38.875 34.625 31.78125 34.625 
z
M 21.921875 38.8125 
Q 15.578125 40.375 12.03125 44.71875 
Q 8.5 49.078125 8.5 55.328125 
Q 8.5 64.0625 14.71875 69.140625 
Q 20.953125 74.21875 31.78125 74.21875 
Q 42.671875 74.21875 48.875 69.140625 
Q 55.078125 64.0625 55.078125 55.328125 
Q 55.078125 49.078125 51.53125 44.71875 
Q 48 40.375 41.703125 38.8125 
Q 48.828125 37.15625 52.796875 32.3125 
Q 56.78125 27.484375 56.78125 20.515625 
Q 56.78125 9.90625 50.3125 4.234375 
Q 43.84375 -1.421875 31.78125 -1.421875 
Q 19.734375 -1.421875 13.25 4.234375 
Q 6.78125 9.90625 6.78125 20.515625 
Q 6.78125 27.484375 10.78125 32.3125 
Q 14.796875 37.15625 21.921875 38.8125 
z
M 18.3125 54.390625 
Q 18.3125 48.734375 21.84375 45.5625 
Q 25.390625 42.390625 31.78125 42.390625 
Q 38.140625 42.390625 41.71875 45.5625 
Q 45.3125 48.734375 45.3125 54.390625 
Q 45.3125 60.0625 41.71875 63.234375 
Q 38.140625 66.40625 31.78125 66.40625 
Q 25.390625 66.40625 21.84375 63.234375 
Q 18.3125 60.0625 18.3125 54.390625 
z
" id="DejaVuSans-56"/>
      </defs>
      <g transform="translate(21.971875 121.281108)scale(0.1 -0.1)">
       <use xlink:href="#DejaVuSans-48"/>
       <use x="63.623047" xlink:href="#DejaVuSans-46"/>
       <use x="95.410156" xlink:href="#DejaVuSans-48"/>
       <use x="159.033203" xlink:href="#DejaVuSans-48"/>
       <use x="222.65625" xlink:href="#DejaVuSans-56"/>
      </g>
     </g>
    </g>
    <g id="ytick_6">
     <g id="line2d_11">
      <g>
       <use style="stroke:#000000;stroke-width:0.8;" x="57.6" xlink:href="#m3aea0ebdf1" y="69.956362"/>
      </g>
     </g>
     <g id="text_12">
      <!-- 0.010 -->
      <g transform="translate(21.971875 73.75558)scale(0.1 -0.1)">
       <use xlink:href="#DejaVuSans-48"/>
       <use x="63.623047" xlink:href="#DejaVuSans-46"/>
       <use x="95.410156" xlink:href="#DejaVuSans-48"/>
       <use x="159.033203" xlink:href="#DejaVuSans-49"/>
       <use x="222.65625" xlink:href="#DejaVuSans-48"/>
      </g>
     </g>
    </g>
    <g id="text_13">
     <!-- Prob. Density (a.u.) -->
     <defs>
      <path d="M 19.671875 64.796875 
L 19.671875 37.40625 
L 32.078125 37.40625 
Q 38.96875 37.40625 42.71875 40.96875 
Q 46.484375 44.53125 46.484375 51.125 
Q 46.484375 57.671875 42.71875 61.234375 
Q 38.96875 64.796875 32.078125 64.796875 
z
M 9.8125 72.90625 
L 32.078125 72.90625 
Q 44.34375 72.90625 50.609375 67.359375 
Q 56.890625 61.8125 56.890625 51.125 
Q 56.890625 40.328125 50.609375 34.8125 
Q 44.34375 29.296875 32.078125 29.296875 
L 19.671875 29.296875 
L 19.671875 0 
L 9.8125 0 
z
" id="DejaVuSans-80"/>
      <path d="M 41.109375 46.296875 
Q 39.59375 47.171875 37.8125 47.578125 
Q 36.03125 48 33.890625 48 
Q 26.265625 48 22.1875 43.046875 
Q 18.109375 38.09375 18.109375 28.8125 
L 18.109375 0 
L 9.078125 0 
L 9.078125 54.6875 
L 18.109375 54.6875 
L 18.109375 46.1875 
Q 20.953125 51.171875 25.484375 53.578125 
Q 30.03125 56 36.53125 56 
Q 37.453125 56 38.578125 55.875 
Q 39.703125 55.765625 41.0625 55.515625 
z
" id="DejaVuSans-114"/>
      <path d="M 30.609375 48.390625 
Q 23.390625 48.390625 19.1875 42.75 
Q 14.984375 37.109375 14.984375 27.296875 
Q 14.984375 17.484375 19.15625 11.84375 
Q 23.34375 6.203125 30.609375 6.203125 
Q 37.796875 6.203125 41.984375 11.859375 
Q 46.1875 17.53125 46.1875 27.296875 
Q 46.1875 37.015625 41.984375 42.703125 
Q 37.796875 48.390625 30.609375 48.390625 
z
M 30.609375 56 
Q 42.328125 56 49.015625 48.375 
Q 55.71875 40.765625 55.71875 27.296875 
Q 55.71875 13.875 49.015625 6.21875 
Q 42.328125 -1.421875 30.609375 -1.421875 
Q 18.84375 -1.421875 12.171875 6.21875 
Q 5.515625 13.875 5.515625 27.296875 
Q 5.515625 40.765625 12.171875 48.375 
Q 18.84375 56 30.609375 56 
z
" id="DejaVuSans-111"/>
      <path id="DejaVuSans-32"/>
      <path d="M 19.671875 64.796875 
L 19.671875 8.109375 
L 31.59375 8.109375 
Q 46.6875 8.109375 53.6875 14.9375 
Q 60.6875 21.78125 60.6875 36.53125 
Q 60.6875 51.171875 53.6875 57.984375 
Q 46.6875 64.796875 31.59375 64.796875 
z
M 9.8125 72.90625 
L 30.078125 72.90625 
Q 51.265625 72.90625 61.171875 64.09375 
Q 71.09375 55.28125 71.09375 36.53125 
Q 71.09375 17.671875 61.125 8.828125 
Q 51.171875 0 30.078125 0 
L 9.8125 0 
z
" id="DejaVuSans-68"/>
      <path d="M 56.203125 29.59375 
L 56.203125 25.203125 
L 14.890625 25.203125 
Q 15.484375 15.921875 20.484375 11.0625 
Q 25.484375 6.203125 34.421875 6.203125 
Q 39.59375 6.203125 44.453125 7.46875 
Q 49.3125 8.734375 54.109375 11.28125 
L 54.109375 2.78125 
Q 49.265625 0.734375 44.1875 -0.34375 
Q 39.109375 -1.421875 33.890625 -1.421875 
Q 20.796875 -1.421875 13.15625 6.1875 
Q 5.515625 13.8125 5.515625 26.8125 
Q 5.515625 40.234375 12.765625 48.109375 
Q 20.015625 56 32.328125 56 
Q 43.359375 56 49.78125 48.890625 
Q 56.203125 41.796875 56.203125 29.59375 
z
M 47.21875 32.234375 
Q 47.125 39.59375 43.09375 43.984375 
Q 39.0625 48.390625 32.421875 48.390625 
Q 24.90625 48.390625 20.390625 44.140625 
Q 15.875 39.890625 15.1875 32.171875 
z
" id="DejaVuSans-101"/>
      <path d="M 44.28125 53.078125 
L 44.28125 44.578125 
Q 40.484375 46.53125 36.375 47.5 
Q 32.28125 48.484375 27.875 48.484375 
Q 21.1875 48.484375 17.84375 46.4375 
Q 14.5 44.390625 14.5 40.28125 
Q 14.5 37.15625 16.890625 35.375 
Q 19.28125 33.59375 26.515625 31.984375 
L 29.59375 31.296875 
Q 39.15625 29.25 43.1875 25.515625 
Q 47.21875 21.78125 47.21875 15.09375 
Q 47.21875 7.46875 41.1875 3.015625 
Q 35.15625 -1.421875 24.609375 -1.421875 
Q 20.21875 -1.421875 15.453125 -0.5625 
Q 10.6875 0.296875 5.421875 2 
L 5.421875 11.28125 
Q 10.40625 8.6875 15.234375 7.390625 
Q 20.0625 6.109375 24.8125 6.109375 
Q 31.15625 6.109375 34.5625 8.28125 
Q 37.984375 10.453125 37.984375 14.40625 
Q 37.984375 18.0625 35.515625 20.015625 
Q 33.0625 21.96875 24.703125 23.78125 
L 21.578125 24.515625 
Q 13.234375 26.265625 9.515625 29.90625 
Q 5.8125 33.546875 5.8125 39.890625 
Q 5.8125 47.609375 11.28125 51.796875 
Q 16.75 56 26.8125 56 
Q 31.78125 56 36.171875 55.265625 
Q 40.578125 54.546875 44.28125 53.078125 
z
" id="DejaVuSans-115"/>
      <path d="M 9.421875 54.6875 
L 18.40625 54.6875 
L 18.40625 0 
L 9.421875 0 
z
M 9.421875 75.984375 
L 18.40625 75.984375 
L 18.40625 64.59375 
L 9.421875 64.59375 
z
" id="DejaVuSans-105"/>
      <path d="M 32.171875 -5.078125 
Q 28.375 -14.84375 24.75 -17.8125 
Q 21.140625 -20.796875 15.09375 -20.796875 
L 7.90625 -20.796875 
L 7.90625 -13.28125 
L 13.1875 -13.28125 
Q 16.890625 -13.28125 18.9375 -11.515625 
Q 21 -9.765625 23.484375 -3.21875 
L 25.09375 0.875 
L 2.984375 54.6875 
L 12.5 54.6875 
L 29.59375 11.921875 
L 46.6875 54.6875 
L 56.203125 54.6875 
z
" id="DejaVuSans-121"/>
      <path d="M 31 75.875 
Q 24.46875 64.65625 21.28125 53.65625 
Q 18.109375 42.671875 18.109375 31.390625 
Q 18.109375 20.125 21.3125 9.0625 
Q 24.515625 -2 31 -13.1875 
L 23.1875 -13.1875 
Q 15.875 -1.703125 12.234375 9.375 
Q 8.59375 20.453125 8.59375 31.390625 
Q 8.59375 42.28125 12.203125 53.3125 
Q 15.828125 64.359375 23.1875 75.875 
z
" id="DejaVuSans-40"/>
      <path d="M 34.28125 27.484375 
Q 23.390625 27.484375 19.1875 25 
Q 14.984375 22.515625 14.984375 16.5 
Q 14.984375 11.71875 18.140625 8.90625 
Q 21.296875 6.109375 26.703125 6.109375 
Q 34.1875 6.109375 38.703125 11.40625 
Q 43.21875 16.703125 43.21875 25.484375 
L 43.21875 27.484375 
z
M 52.203125 31.203125 
L 52.203125 0 
L 43.21875 0 
L 43.21875 8.296875 
Q 40.140625 3.328125 35.546875 0.953125 
Q 30.953125 -1.421875 24.3125 -1.421875 
Q 15.921875 -1.421875 10.953125 3.296875 
Q 6 8.015625 6 15.921875 
Q 6 25.140625 12.171875 29.828125 
Q 18.359375 34.515625 30.609375 34.515625 
L 43.21875 34.515625 
L 43.21875 35.40625 
Q 43.21875 41.609375 39.140625 45 
Q 35.0625 48.390625 27.6875 48.390625 
Q 23 48.390625 18.546875 47.265625 
Q 14.109375 46.140625 10.015625 43.890625 
L 10.015625 52.203125 
Q 14.9375 54.109375 19.578125 55.046875 
Q 24.21875 56 28.609375 56 
Q 40.484375 56 46.34375 49.84375 
Q 52.203125 43.703125 52.203125 31.203125 
z
" id="DejaVuSans-97"/>
      <path d="M 8.5 21.578125 
L 8.5 54.6875 
L 17.484375 54.6875 
L 17.484375 21.921875 
Q 17.484375 14.15625 20.5 10.265625 
Q 23.53125 6.390625 29.59375 6.390625 
Q 36.859375 6.390625 41.078125 11.03125 
Q 45.3125 15.671875 45.3125 23.6875 
L 45.3125 54.6875 
L 54.296875 54.6875 
L 54.296875 0 
L 45.3125 0 
L 45.3125 8.40625 
Q 42.046875 3.421875 37.71875 1 
Q 33.40625 -1.421875 27.6875 -1.421875 
Q 18.265625 -1.421875 13.375 4.4375 
Q 8.5 10.296875 8.5 21.578125 
z
M 31.109375 56 
z
" id="DejaVuSans-117"/>
      <path d="M 8.015625 75.875 
L 15.828125 75.875 
Q 23.140625 64.359375 26.78125 53.3125 
Q 30.421875 42.28125 30.421875 31.390625 
Q 30.421875 20.453125 26.78125 9.375 
Q 23.140625 -1.703125 15.828125 -13.1875 
L 8.015625 -13.1875 
Q 14.5 -2 17.703125 9.0625 
Q 20.90625 20.125 20.90625 31.390625 
Q 20.90625 42.671875 17.703125 53.65625 
Q 14.5 64.65625 8.015625 75.875 
z
" id="DejaVuSans-41"/>
     </defs>
     <g transform="translate(15.892187 222.917844)rotate(-90)scale(0.1 -0.1)">
      <use xlink:href="#DejaVuSans-80"/>
      <use x="60.287109" xlink:href="#DejaVuSans-114"/>
      <use x="101.369141" xlink:href="#DejaVuSans-111"/>
      <use x="162.550781" xlink:href="#DejaVuSans-98"/>
      <use x="226.027344" xlink:href="#DejaVuSans-46"/>
      <use x="257.814453" xlink:href="#DejaVuSans-32"/>
      <use x="289.601562" xlink:href="#DejaVuSans-68"/>
      <use x="366.603516" xlink:href="#DejaVuSans-101"/>
      <use x="428.126953" xlink:href="#DejaVuSans-110"/>
      <use x="491.505859" xlink:href="#DejaVuSans-115"/>
      <use x="543.605469" xlink:href="#DejaVuSans-105"/>
      <use x="571.388672" xlink:href="#DejaVuSans-116"/>
      <use x="610.597656" xlink:href="#DejaVuSans-121"/>
      <use x="669.777344" xlink:href="#DejaVuSans-32"/>
      <use x="701.564453" xlink:href="#DejaVuSans-40"/>
      <use x="740.578125" xlink:href="#DejaVuSans-97"/>
      <use x="801.857422" xlink:href="#DejaVuSans-46"/>
      <use x="833.644531" xlink:href="#DejaVuSans-117"/>
      <use x="897.023438" xlink:href="#DejaVuSans-46"/>
      <use x="928.810547" xlink:href="#DejaVuSans-41"/>
     </g>
    </g>
   </g>
   <g id="patch_9">
    <path d="M 57.6 307.584 
L 57.6 41.472 
" style="fill:none;stroke:#000000;stroke-linecap:square;stroke-linejoin:miter;stroke-width:0.8;"/>
   </g>
   <g id="patch_10">
    <path d="M 414.72 307.584 
L 414.72 41.472 
" style="fill:none;stroke:#000000;stroke-linecap:square;stroke-linejoin:miter;stroke-width:0.8;"/>
   </g>
   <g id="patch_11">
    <path d="M 57.6 307.584 
L 414.72 307.584 
" style="fill:none;stroke:#000000;stroke-linecap:square;stroke-linejoin:miter;stroke-width:0.8;"/>
   </g>
   <g id="patch_12">
    <path d="M 57.6 41.472 
L 414.72 41.472 
" style="fill:none;stroke:#000000;stroke-linecap:square;stroke-linejoin:miter;stroke-width:0.8;"/>
   </g>
   <g id="legend_1">
    <g id="patch_13">
     <path d="M 325.405938 137.54075 
L 407.72 137.54075 
Q 409.72 137.54075 409.72 135.54075 
L 409.72 48.472 
Q 409.72 46.472 407.72 46.472 
L 325.405938 46.472 
Q 323.405938 46.472 323.405938 48.472 
L 323.405938 135.54075 
Q 323.405938 137.54075 325.405938 137.54075 
z
" style="fill:#ffffff;opacity:0.8;stroke:#cccccc;stroke-linejoin:miter;"/>
    </g>
    <g id="patch_14">
     <path d="M 327.405938 58.070438 
L 347.405938 58.070438 
L 347.405938 51.070438 
L 327.405938 51.070438 
z
" style="fill:none;stroke:#1f77b4;stroke-linejoin:miter;"/>
    </g>
    <g id="text_14">
     <!-- quark -->
     <defs>
      <path d="M 14.796875 27.296875 
Q 14.796875 17.390625 18.875 11.75 
Q 22.953125 6.109375 30.078125 6.109375 
Q 37.203125 6.109375 41.296875 11.75 
Q 45.40625 17.390625 45.40625 27.296875 
Q 45.40625 37.203125 41.296875 42.84375 
Q 37.203125 48.484375 30.078125 48.484375 
Q 22.953125 48.484375 18.875 42.84375 
Q 14.796875 37.203125 14.796875 27.296875 
z
M 45.40625 8.203125 
Q 42.578125 3.328125 38.25 0.953125 
Q 33.9375 -1.421875 27.875 -1.421875 
Q 17.96875 -1.421875 11.734375 6.484375 
Q 5.515625 14.40625 5.515625 27.296875 
Q 5.515625 40.1875 11.734375 48.09375 
Q 17.96875 56 27.875 56 
Q 33.9375 56 38.25 53.625 
Q 42.578125 51.265625 45.40625 46.390625 
L 45.40625 54.6875 
L 54.390625 54.6875 
L 54.390625 -20.796875 
L 45.40625 -20.796875 
z
" id="DejaVuSans-113"/>
      <path d="M 9.078125 75.984375 
L 18.109375 75.984375 
L 18.109375 31.109375 
L 44.921875 54.6875 
L 56.390625 54.6875 
L 27.390625 29.109375 
L 57.625 0 
L 45.90625 0 
L 18.109375 26.703125 
L 18.109375 0 
L 9.078125 0 
z
" id="DejaVuSans-107"/>
     </defs>
     <g transform="translate(355.405938 58.070438)scale(0.1 -0.1)">
      <use xlink:href="#DejaVuSans-113"/>
      <use x="63.476562" xlink:href="#DejaVuSans-117"/>
      <use x="126.855469" xlink:href="#DejaVuSans-97"/>
      <use x="188.134766" xlink:href="#DejaVuSans-114"/>
      <use x="229.248047" xlink:href="#DejaVuSans-107"/>
     </g>
    </g>
    <g id="patch_15">
     <path d="M 327.405938 72.748563 
L 347.405938 72.748563 
L 347.405938 65.748563 
L 327.405938 65.748563 
z
" style="fill:none;stroke:#ff7f0e;stroke-linejoin:miter;"/>
    </g>
    <g id="text_15">
     <!-- gluon -->
     <defs>
      <path d="M 45.40625 27.984375 
Q 45.40625 37.75 41.375 43.109375 
Q 37.359375 48.484375 30.078125 48.484375 
Q 22.859375 48.484375 18.828125 43.109375 
Q 14.796875 37.75 14.796875 27.984375 
Q 14.796875 18.265625 18.828125 12.890625 
Q 22.859375 7.515625 30.078125 7.515625 
Q 37.359375 7.515625 41.375 12.890625 
Q 45.40625 18.265625 45.40625 27.984375 
z
M 54.390625 6.78125 
Q 54.390625 -7.171875 48.1875 -13.984375 
Q 42 -20.796875 29.203125 -20.796875 
Q 24.46875 -20.796875 20.265625 -20.09375 
Q 16.0625 -19.390625 12.109375 -17.921875 
L 12.109375 -9.1875 
Q 16.0625 -11.328125 19.921875 -12.34375 
Q 23.78125 -13.375 27.78125 -13.375 
Q 36.625 -13.375 41.015625 -8.765625 
Q 45.40625 -4.15625 45.40625 5.171875 
L 45.40625 9.625 
Q 42.625 4.78125 38.28125 2.390625 
Q 33.9375 0 27.875 0 
Q 17.828125 0 11.671875 7.65625 
Q 5.515625 15.328125 5.515625 27.984375 
Q 5.515625 40.671875 11.671875 48.328125 
Q 17.828125 56 27.875 56 
Q 33.9375 56 38.28125 53.609375 
Q 42.625 51.21875 45.40625 46.390625 
L 45.40625 54.6875 
L 54.390625 54.6875 
z
" id="DejaVuSans-103"/>
      <path d="M 9.421875 75.984375 
L 18.40625 75.984375 
L 18.40625 0 
L 9.421875 0 
z
" id="DejaVuSans-108"/>
     </defs>
     <g transform="translate(355.405938 72.748563)scale(0.1 -0.1)">
      <use xlink:href="#DejaVuSans-103"/>
      <use x="63.476562" xlink:href="#DejaVuSans-108"/>
      <use x="91.259766" xlink:href="#DejaVuSans-117"/>
      <use x="154.638672" xlink:href="#DejaVuSans-111"/>
      <use x="215.820312" xlink:href="#DejaVuSans-110"/>
     </g>
    </g>
    <g id="patch_16">
     <path d="M 327.405938 87.426688 
L 347.405938 87.426688 
L 347.405938 80.426688 
L 327.405938 80.426688 
z
" style="fill:none;stroke:#2ca02c;stroke-linejoin:miter;"/>
    </g>
    <g id="text_16">
     <!-- W -->
     <defs>
      <path d="M 3.328125 72.90625 
L 13.28125 72.90625 
L 28.609375 11.28125 
L 43.890625 72.90625 
L 54.984375 72.90625 
L 70.3125 11.28125 
L 85.59375 72.90625 
L 95.609375 72.90625 
L 77.296875 0 
L 64.890625 0 
L 49.515625 63.28125 
L 33.984375 0 
L 21.578125 0 
z
" id="DejaVuSans-87"/>
     </defs>
     <g transform="translate(355.405938 87.426688)scale(0.1 -0.1)">
      <use xlink:href="#DejaVuSans-87"/>
     </g>
    </g>
    <g id="patch_17">
     <path d="M 327.405938 102.104813 
L 347.405938 102.104813 
L 347.405938 95.104813 
L 327.405938 95.104813 
z
" style="fill:none;stroke:#d62728;stroke-linejoin:miter;"/>
    </g>
    <g id="text_17">
     <!-- Z -->
     <defs>
      <path d="M 5.609375 72.90625 
L 62.890625 72.90625 
L 62.890625 65.375 
L 16.796875 8.296875 
L 64.015625 8.296875 
L 64.015625 0 
L 4.5 0 
L 4.5 7.515625 
L 50.59375 64.59375 
L 5.609375 64.59375 
z
" id="DejaVuSans-90"/>
     </defs>
     <g transform="translate(355.405938 102.104813)scale(0.1 -0.1)">
      <use xlink:href="#DejaVuSans-90"/>
     </g>
    </g>
    <g id="patch_18">
     <path d="M 327.405938 116.782938 
L 347.405938 116.782938 
L 347.405938 109.782938 
L 327.405938 109.782938 
z
" style="fill:none;stroke:#9467bd;stroke-linejoin:miter;"/>
    </g>
    <g id="text_18">
     <!-- top -->
     <defs>
      <path d="M 18.109375 8.203125 
L 18.109375 -20.796875 
L 9.078125 -20.796875 
L 9.078125 54.6875 
L 18.109375 54.6875 
L 18.109375 46.390625 
Q 20.953125 51.265625 25.265625 53.625 
Q 29.59375 56 35.59375 56 
Q 45.5625 56 51.78125 48.09375 
Q 58.015625 40.1875 58.015625 27.296875 
Q 58.015625 14.40625 51.78125 6.484375 
Q 45.5625 -1.421875 35.59375 -1.421875 
Q 29.59375 -1.421875 25.265625 0.953125 
Q 20.953125 3.328125 18.109375 8.203125 
z
M 48.6875 27.296875 
Q 48.6875 37.203125 44.609375 42.84375 
Q 40.53125 48.484375 33.40625 48.484375 
Q 26.265625 48.484375 22.1875 42.84375 
Q 18.109375 37.203125 18.109375 27.296875 
Q 18.109375 17.390625 22.1875 11.75 
Q 26.265625 6.109375 33.40625 6.109375 
Q 40.53125 6.109375 44.609375 11.75 
Q 48.6875 17.390625 48.6875 27.296875 
z
" id="DejaVuSans-112"/>
     </defs>
     <g transform="translate(355.405938 116.782938)scale(0.1 -0.1)">
      <use xlink:href="#DejaVuSans-116"/>
      <use x="39.208984" xlink:href="#DejaVuSans-111"/>
      <use x="100.390625" xlink:href="#DejaVuSans-112"/>
     </g>
    </g>
    <g id="patch_19">
     <path d="M 327.405938 131.461063 
L 347.405938 131.461063 
L 347.405938 124.461063 
L 327.405938 124.461063 
z
" style="fill:none;stroke:#000000;stroke-linejoin:miter;"/>
    </g>
    <g id="text_19">
     <!-- undefined -->
     <defs>
      <path d="M 37.109375 75.984375 
L 37.109375 68.5 
L 28.515625 68.5 
Q 23.6875 68.5 21.796875 66.546875 
Q 19.921875 64.59375 19.921875 59.515625 
L 19.921875 54.6875 
L 34.71875 54.6875 
L 34.71875 47.703125 
L 19.921875 47.703125 
L 19.921875 0 
L 10.890625 0 
L 10.890625 47.703125 
L 2.296875 47.703125 
L 2.296875 54.6875 
L 10.890625 54.6875 
L 10.890625 58.5 
Q 10.890625 67.625 15.140625 71.796875 
Q 19.390625 75.984375 28.609375 75.984375 
z
" id="DejaVuSans-102"/>
     </defs>
     <g transform="translate(355.405938 131.461063)scale(0.1 -0.1)">
      <use xlink:href="#DejaVuSans-117"/>
      <use x="63.378906" xlink:href="#DejaVuSans-110"/>
      <use x="126.757812" xlink:href="#DejaVuSans-100"/>
      <use x="190.234375" xlink:href="#DejaVuSans-101"/>
      <use x="251.757812" xlink:href="#DejaVuSans-102"/>
      <use x="286.962891" xlink:href="#DejaVuSans-105"/>
      <use x="314.746094" xlink:href="#DejaVuSans-110"/>
      <use x="378.125" xlink:href="#DejaVuSans-101"/>
      <use x="439.648438" xlink:href="#DejaVuSans-100"/>
     </g>
    </g>
   </g>
  </g>
 </g>
 <defs>
  <clipPath id="p0abe73f3fb">
   <rect height="266.112" width="357.12" x="57.6" y="41.472"/>
  </clipPath>
 </defs>
</svg>
