<?xml version="1.0" encoding="utf-8" standalone="no"?>
<!DOCTYPE svg PUBLIC "-//W3C//DTD SVG 1.1//EN"
  "http://www.w3.org/Graphics/SVG/1.1/DTD/svg11.dtd">
<!-- Created with matplotlib (https://matplotlib.org/) -->
<svg height="345.6pt" version="1.1" viewBox="0 0 460.8 345.6" width="460.8pt" xmlns="http://www.w3.org/2000/svg" xmlns:xlink="http://www.w3.org/1999/xlink">
 <defs>
  <style type="text/css">
*{stroke-linecap:butt;stroke-linejoin:round;}
  </style>
 </defs>
 <g id="figure_1">
  <g id="patch_1">
   <path d="M 0 345.6 
L 460.8 345.6 
L 460.8 0 
L 0 0 
z
" style="fill:#ffffff;"/>
  </g>
  <g id="axes_1">
   <g id="patch_2">
    <path d="M 57.6 307.584 
L 414.72 307.584 
L 414.72 41.472 
L 57.6 41.472 
z
" style="fill:#ffffff;"/>
   </g>
   <g id="patch_3">
    <path clip-path="url(#pac03a6f678)" d="M 73.832727 307.584 
L 73.832727 302.771095 
L 77.079273 302.771095 
L 77.079273 304.058498 
L 80.325818 304.058498 
L 80.325818 303.127606 
L 83.572363 303.127606 
L 83.572363 302.82061 
L 86.818909 302.82061 
L 86.818909 301.226212 
L 90.065454 301.226212 
L 90.065454 297.571969 
L 93.312 297.571969 
L 93.312 297.037202 
L 96.558545 297.037202 
L 96.558545 292.065847 
L 99.805091 292.065847 
L 99.805091 291.115149 
L 103.051637 291.115149 
L 103.051637 286.371567 
L 106.298182 286.371567 
L 106.298182 289.699007 
L 109.544726 289.699007 
L 109.544726 284.311724 
L 112.791274 284.311724 
L 112.791274 267.496265 
L 116.037818 267.496265 
L 116.037818 271.279251 
L 119.284365 271.279251 
L 119.284365 258.642896 
L 122.530909 258.642896 
L 122.530909 251.938504 
L 125.777453 251.938504 
L 125.777453 242.015595 
L 129.024 242.015595 
L 129.024 253.11697 
L 132.270544 253.11697 
L 132.270544 247.42269 
L 135.517092 247.42269 
L 135.517092 251.492858 
L 138.763639 251.492858 
L 138.763639 240.45091 
L 142.010179 240.45091 
L 142.010179 238.549517 
L 145.256727 238.549517 
L 145.256727 234.093119 
L 148.503274 234.093119 
L 148.503274 236.083647 
L 151.749815 236.083647 
L 151.749815 222.169795 
L 154.996362 222.169795 
L 154.996362 242.124534 
L 158.24291 242.124534 
L 158.24291 225.0813 
L 161.489457 225.0813 
L 161.489457 217.574763 
L 164.735997 217.574763 
L 164.735997 216.396291 
L 167.982545 216.396291 
L 167.982545 220.931896 
L 171.229092 220.931896 
L 171.229092 219.030515 
L 177.72218 219.040414 
L 177.72218 201.511934 
L 180.968728 201.511934 
L 180.968728 205.928708 
L 184.215275 205.928708 
L 184.215275 203.928281 
L 187.461816 203.928281 
L 187.461816 185.290667 
L 190.708363 185.290667 
L 190.708363 210.672297 
L 193.95491 210.672297 
L 193.95491 206.017837 
L 200.448005 206.047563 
L 200.448005 211.236775 
L 203.694539 211.236775 
L 203.694539 196.223688 
L 206.941086 196.223688 
L 206.941086 207.364669 
L 210.187634 207.364669 
L 210.187634 204.641303 
L 213.434181 204.641303 
L 213.434181 194.322283 
L 216.680729 194.322283 
L 216.680729 191.420683 
L 219.927276 191.420683 
L 219.927276 202.967692 
L 223.173823 202.967692 
L 223.173823 192.916036 
L 226.420357 192.916036 
L 226.420357 191.638536 
L 229.666904 191.638536 
L 229.666904 200.244338 
L 232.913452 200.244338 
L 232.913452 173.733753 
L 236.159999 173.733753 
L 236.159999 198.164687 
L 239.406547 198.164687 
L 239.406547 168.851524 
L 242.653094 168.851524 
L 242.653094 196.481159 
L 245.899641 196.481159 
L 245.899641 207.443894 
L 249.146189 207.443894 
L 249.146189 175.298438 
L 252.392722 175.298438 
L 252.392722 196.263294 
L 255.63927 196.263294 
L 255.63927 182.082049 
L 258.885817 182.082049 
L 258.885817 184.023072 
L 262.132365 184.023072 
L 262.132365 183.607127 
L 265.378912 183.607127 
L 265.378912 180.299499 
L 268.62546 180.299499 
L 268.62546 174.654748 
L 271.872007 174.654748 
L 271.872007 183.785386 
L 275.11854 183.785386 
L 275.11854 170.327079 
L 278.365088 170.327079 
L 278.365088 176.823505 
L 281.611635 176.823505 
L 281.611635 178.011899 
L 284.858183 178.011899 
L 284.858183 183.854718 
L 288.10473 183.854718 
L 288.10473 180.735252 
L 291.351278 180.735252 
L 291.351278 175.149881 
L 294.597825 175.149881 
L 294.597825 179.319089 
L 297.844358 179.319089 
L 297.844358 183.508093 
L 301.090906 183.508093 
L 301.090906 204.65122 
L 304.337453 204.65122 
L 304.337453 199.214417 
L 307.584001 199.214417 
L 307.584001 200.343372 
L 310.830548 200.343372 
L 310.830548 198.739057 
L 314.077096 198.739057 
L 314.077096 198.49149 
L 317.323629 198.49149 
L 317.323629 209.186831 
L 320.570191 209.186831 
L 320.570191 225.536851 
L 323.816724 225.536851 
L 323.816724 223.744379 
L 327.063285 223.744379 
L 327.063285 194.292569 
L 330.309819 194.292569 
L 330.309819 215.287139 
L 333.556352 215.287139 
L 333.556352 222.902627 
L 336.802914 222.902627 
L 336.802914 221.664739 
L 340.049447 221.664739 
L 340.049447 222.031149 
L 343.296009 222.031149 
L 343.296009 234.647698 
L 346.542542 234.647698 
L 346.542542 222.971941 
L 349.789104 222.971941 
L 349.789104 240.134006 
L 353.035637 240.134006 
L 353.035637 247.71978 
L 356.28217 247.71978 
L 356.28217 261.950536 
L 359.528732 261.950536 
L 359.528732 266.43663 
L 362.775265 266.43663 
L 362.775265 275.85448 
L 366.021827 275.85448 
L 366.021827 284.61872 
L 369.26836 284.61872 
L 369.26836 293.531507 
L 372.514922 293.531507 
L 372.514922 294.204918 
L 375.761455 294.204918 
L 375.761455 297.710613 
L 379.007988 297.710613 
L 379.007988 301.671851 
L 382.25455 301.671851 
L 382.25455 304.236753 
L 385.501083 304.236753 
L 385.501083 304.999292 
L 388.747645 304.999292 
L 388.747645 306.484756 
L 391.994178 306.484756 
L 391.994178 307.584 
L 395.24074 307.584 
L 395.24074 307.257198 
L 398.487273 307.257198 
L 398.487273 307.584 
L 398.487273 307.584 
" style="fill:none;stroke:#1f77b4;stroke-linejoin:miter;"/>
   </g>
   <g id="patch_4">
    <path clip-path="url(#pac03a6f678)" d="M 73.832727 307.584 
L 73.832727 307.148264 
L 77.079273 307.148264 
L 77.079273 307.286907 
L 80.325818 307.286907 
L 80.325818 307.029427 
L 83.572363 307.029427 
L 83.572363 304.315978 
L 86.818909 304.315978 
L 86.818909 305.3459 
L 90.065454 305.3459 
L 90.065454 300.820185 
L 93.312 300.820185 
L 93.312 299.49317 
L 96.558545 299.49317 
L 96.558545 298.195865 
L 99.805091 298.195865 
L 99.805091 293.61073 
L 103.051637 293.61073 
L 103.051637 288.936468 
L 106.298182 288.936468 
L 106.298182 281.350695 
L 109.544726 281.350695 
L 109.544726 281.618077 
L 112.791274 281.618077 
L 112.791274 278.468895 
L 116.037818 278.468895 
L 116.037818 269.704658 
L 119.284365 269.704658 
L 119.284365 269.427366 
L 122.530909 269.427366 
L 122.530909 261.534603 
L 125.777453 261.534603 
L 125.777453 262.356561 
L 129.024 262.356561 
L 129.024 248.591251 
L 132.270544 248.591251 
L 132.270544 227.93339 
L 135.517092 227.93339 
L 135.517092 235.113147 
L 138.763639 235.113147 
L 138.763639 229.072249 
L 142.010179 229.072249 
L 142.010179 213.197607 
L 145.256727 213.197607 
L 145.256727 225.655676 
L 148.503274 225.655676 
L 148.503274 207.731079 
L 151.749815 207.731079 
L 151.749815 224.397986 
L 154.996362 224.397986 
L 154.996362 214.712757 
L 158.24291 214.712757 
L 158.24291 194.20344 
L 161.489457 194.20344 
L 161.489457 199.838322 
L 164.735997 199.838322 
L 164.735997 184.488515 
L 167.982545 184.488515 
L 167.982545 172.852377 
L 171.229092 172.852377 
L 171.229092 178.823931 
L 174.47564 178.823931 
L 174.47564 172.258174 
L 177.72218 172.258174 
L 177.72218 173.951618 
L 180.968728 173.951618 
L 180.968728 165.286412 
L 184.215275 165.286412 
L 184.215275 152.541116 
L 187.461816 152.541116 
L 187.461816 147.530162 
L 190.708363 147.530162 
L 190.708363 141.2219 
L 193.95491 141.2219 
L 193.95491 147.876763 
L 197.201458 147.876763 
L 197.201458 131.685198 
L 200.448005 131.685198 
L 200.448005 155.413026 
L 203.694539 155.413026 
L 203.694539 121.405784 
L 206.941086 121.405784 
L 206.941086 117.791173 
L 210.187634 117.791173 
L 210.187634 122.980385 
L 213.434181 122.980385 
L 213.434181 113.206022 
L 216.680729 113.206022 
L 216.680729 117.929814 
L 219.927276 117.929814 
L 219.927276 108.224758 
L 223.173823 108.224758 
L 223.173823 92.211428 
L 226.420357 92.211428 
L 226.420357 115.028225 
L 229.666904 115.028225 
L 229.666904 82.011239 
L 232.913452 82.011239 
L 232.913452 101.500587 
L 236.159999 101.500587 
L 236.159999 69.186777 
L 239.406547 69.186777 
L 239.406547 94.310936 
L 242.653094 94.310936 
L 242.653094 78.366926 
L 245.899641 78.366926 
L 245.899641 102.401748 
L 249.146189 102.401748 
L 249.146189 94.994221 
L 252.392722 94.994221 
L 252.392722 63.373637 
L 255.63927 63.373637 
L 255.63927 102.253192 
L 258.885817 102.253192 
L 258.885817 102.708731 
L 262.132365 102.708731 
L 262.132365 86.814279 
L 265.378912 86.814279 
L 265.378912 80.347532 
L 268.62546 80.347532 
L 268.62546 80.684263 
L 271.872007 80.684263 
L 271.872007 64.284715 
L 275.11854 64.284715 
L 275.11854 83.259025 
L 278.365088 83.259025 
L 278.365088 94.568384 
L 281.611635 94.568384 
L 281.611635 75.079083 
L 284.858183 75.079083 
L 284.858183 68.701489 
L 288.10473 68.701489 
L 288.10473 88.052149 
L 291.351278 88.052149 
L 291.351278 76.792349 
L 294.597825 76.792349 
L 294.597825 92.587778 
L 297.844358 92.587778 
L 297.844358 84.912839 
L 301.090906 84.912839 
L 301.090906 65.542441 
L 304.337453 65.542441 
L 304.337453 73.870915 
L 307.584001 73.870915 
L 307.584001 75.772356 
L 310.830548 75.772356 
L 310.830548 59.590636 
L 314.077096 59.590636 
L 314.077096 97.846334 
L 317.323629 97.846334 
L 317.323629 96.073665 
L 320.570191 96.073665 
L 320.570191 95.598317 
L 323.816724 95.598317 
L 323.816724 81.793409 
L 327.063285 81.793409 
L 327.063285 104.936915 
L 330.309819 104.936915 
L 330.309819 98.896052 
L 333.556352 98.896052 
L 333.556352 100.747958 
L 336.802914 100.747958 
L 336.802914 100.460714 
L 340.049447 100.460714 
L 340.049447 82.654953 
L 343.296009 82.654953 
L 343.296009 103.738664 
L 346.542542 103.738664 
L 346.542542 121.098766 
L 349.789104 121.098766 
L 349.789104 118.058549 
L 353.035637 118.058549 
L 353.035637 138.835242 
L 356.28217 138.835242 
L 356.28217 165.940007 
L 359.528732 165.940007 
L 359.528732 178.001983 
L 362.775265 178.001983 
L 362.775265 201.799131 
L 366.021827 201.799131 
L 366.021827 223.615631 
L 369.26836 223.615631 
L 369.26836 240.332073 
L 372.514922 240.332073 
L 372.514922 256.355284 
L 375.761455 256.355284 
L 375.761455 268.466771 
L 379.007988 268.466771 
L 379.007988 292.234202 
L 382.25455 292.234202 
L 382.25455 295.145708 
L 385.501083 295.145708 
L 385.501083 296.928267 
L 388.747645 296.928267 
L 388.747645 303.672277 
L 391.994178 303.672277 
L 391.994178 307.098748 
L 395.24074 307.098748 
L 395.24074 305.850958 
L 398.487273 305.850958 
L 398.487273 307.584 
L 398.487273 307.584 
" style="fill:none;stroke:#ff7f0e;stroke-linejoin:miter;"/>
   </g>
   <g id="patch_5">
    <path clip-path="url(#pac03a6f678)" d="M 73.832727 307.584 
L 77.079273 307.584 
L 77.079273 306.445144 
L 80.325818 306.445144 
L 80.325818 303.612858 
L 83.572363 303.612858 
L 83.572363 294.818909 
L 86.818909 294.818909 
L 86.818909 279.122502 
L 90.065454 279.122502 
L 90.065454 238.123674 
L 93.312 238.123674 
L 93.312 208.483707 
L 96.558545 208.483707 
L 96.558545 178.982393 
L 99.805091 178.982393 
L 99.805091 134.309518 
L 103.051637 134.309518 
L 103.051637 103.332636 
L 106.298182 103.332636 
L 106.298182 93.073019 
L 109.544726 93.073019 
L 109.544726 85.378295 
L 112.791274 85.378295 
L 112.791274 77.69351 
L 116.037818 77.69351 
L 116.037818 89.567323 
L 119.284365 89.567323 
L 119.284365 78.951213 
L 122.530909 78.951213 
L 122.530909 87.38865 
L 125.777453 87.38865 
L 125.777453 97.450175 
L 129.024 97.450175 
L 129.024 109.928095 
L 132.270544 109.928095 
L 132.270544 104.808168 
L 135.517092 104.808168 
L 135.517092 103.807984 
L 138.763639 103.807984 
L 138.763639 123.663682 
L 142.010179 123.663682 
L 142.010179 141.974505 
L 145.256727 141.974505 
L 145.256727 149.570207 
L 148.503274 149.570207 
L 148.503274 139.300674 
L 151.749815 139.300674 
L 151.749815 151.758762 
L 154.996362 151.758762 
L 154.996362 178.110921 
L 158.24291 178.110921 
L 158.24291 159.403975 
L 161.489457 159.403975 
L 161.489457 167.257125 
L 164.735997 167.257125 
L 164.735997 188.271492 
L 167.982545 188.271492 
L 167.982545 178.091112 
L 171.229092 178.091112 
L 171.229092 181.250207 
L 174.47564 181.250207 
L 174.47564 182.012752 
L 177.72218 182.012752 
L 177.72218 188.707234 
L 180.968728 188.707234 
L 180.968728 193.044795 
L 184.215275 193.044795 
L 184.215275 200.254231 
L 187.461816 200.254231 
L 187.461816 203.344006 
L 190.708363 203.344006 
L 190.708363 204.849276 
L 193.95491 204.849276 
L 193.95491 204.165967 
L 197.201458 204.165967 
L 197.201458 209.266062 
L 200.448005 209.266062 
L 200.448005 218.030308 
L 203.694539 218.030308 
L 203.694539 213.266915 
L 206.941086 213.266915 
L 206.941086 223.823616 
L 210.187634 223.823616 
L 210.187634 224.120699 
L 213.434181 224.120699 
L 213.434181 225.774525 
L 216.680729 225.774525 
L 216.680729 212.187471 
L 219.927276 212.187471 
L 219.927276 235.806367 
L 223.173823 235.806367 
L 223.173823 236.351023 
L 226.420357 236.351023 
L 226.420357 234.350602 
L 229.666904 234.350602 
L 229.666904 229.73576 
L 232.913452 229.73576 
L 232.913452 234.489254 
L 236.159999 234.489254 
L 236.159999 240.698483 
L 239.406547 240.698483 
L 239.406547 251.690931 
L 242.653094 251.690931 
L 242.653094 250.42333 
L 245.899641 250.42333 
L 245.899641 245.095454 
L 249.146189 245.095454 
L 249.146189 246.778988 
L 252.392722 246.778988 
L 252.392722 243.461449 
L 255.63927 243.461449 
L 255.63927 251.473054 
L 258.885817 251.473054 
L 258.885817 247.303853 
L 262.132365 247.303853 
L 262.132365 248.006982 
L 265.378912 248.006982 
L 265.378912 256.612761 
L 268.62546 256.612761 
L 268.62546 256.820722 
L 271.872007 256.820722 
L 271.872007 256.55334 
L 275.11854 256.55334 
L 275.11854 259.157856 
L 278.365088 259.157856 
L 278.365088 258.76173 
L 281.611635 258.76173 
L 281.611635 261.316732 
L 284.858183 261.316732 
L 284.858183 255.632363 
L 288.10473 255.632363 
L 288.10473 258.13784 
L 291.351278 258.13784 
L 291.351278 261.980241 
L 294.597825 261.980241 
L 294.597825 267.060529 
L 297.844358 267.060529 
L 297.844358 266.218765 
L 301.090906 266.218765 
L 301.090906 267.50617 
L 304.337453 267.50617 
L 304.337453 273.695604 
L 307.584001 273.695604 
L 307.584001 267.268493 
L 310.830548 267.268493 
L 310.830548 266.991209 
L 314.077096 266.991209 
L 314.077096 272.081396 
L 317.323629 272.081396 
L 317.323629 269.100562 
L 320.570191 269.100562 
L 320.570191 274.636399 
L 323.816724 274.636399 
L 323.816724 278.241123 
L 327.063285 278.241123 
L 327.063285 272.626071 
L 330.309819 272.626071 
L 330.309819 274.240269 
L 333.556352 274.240269 
L 333.556352 276.418958 
L 336.802914 276.418958 
L 336.802914 279.201727 
L 340.049447 279.201727 
L 340.049447 279.924651 
L 343.296009 279.924651 
L 343.296009 285.965542 
L 346.542542 285.965542 
L 346.542542 289.312785 
L 349.789104 289.312785 
L 349.789104 294.432689 
L 353.035637 294.432689 
L 353.035637 292.164879 
L 356.28217 292.164879 
L 356.28217 290.194162 
L 359.528732 290.194162 
L 359.528732 295.858734 
L 362.775265 295.858734 
L 362.775265 300.572608 
L 366.021827 300.572608 
L 366.021827 296.948075 
L 369.26836 296.948075 
L 369.26836 303.286056 
L 372.514922 303.286056 
L 372.514922 305.286482 
L 375.761455 305.286482 
L 375.761455 304.870552 
L 379.007988 304.870552 
L 379.007988 305.543962 
L 382.25455 305.543962 
L 382.25455 307.177973 
L 385.501083 307.177973 
L 385.501083 307.584 
L 388.747645 307.584 
L 388.747645 307.16807 
L 395.24074 307.098748 
L 395.24074 307.584 
L 398.487273 307.584 
L 398.487273 307.584 
" style="fill:none;stroke:#2ca02c;stroke-linejoin:miter;"/>
   </g>
   <g id="patch_6">
    <path clip-path="url(#pac03a6f678)" d="M 73.832727 307.584 
L 73.832727 306.375822 
L 77.079273 306.375822 
L 77.079273 306.187663 
L 80.325818 306.187663 
L 80.325818 302.780998 
L 83.572363 302.780998 
L 83.572363 288.53044 
L 86.818909 288.53044 
L 86.818909 264.22824 
L 90.065454 264.22824 
L 90.065454 219.486054 
L 93.312 219.486054 
L 93.312 165.652822 
L 96.558545 165.652822 
L 96.558545 129.209435 
L 99.805091 129.209435 
L 99.805091 82.338054 
L 103.051637 82.338054 
L 103.051637 77.089415 
L 106.298182 77.089415 
L 106.298182 59.749109 
L 109.544726 59.749109 
L 109.544726 63.492468 
L 112.791274 63.492468 
L 112.791274 54.144 
L 116.037818 54.144 
L 116.037818 58.738986 
L 119.284365 58.738986 
L 119.284365 63.908436 
L 122.530909 63.908436 
L 122.530909 82.872853 
L 125.777453 82.872853 
L 125.777453 83.774015 
L 129.024 83.774015 
L 129.024 103.392039 
L 132.270544 103.392039 
L 132.270544 114.018078 
L 135.517092 114.018078 
L 135.517092 124.446025 
L 138.763639 124.446025 
L 138.763639 130.249249 
L 142.010179 130.249249 
L 142.010179 134.51749 
L 145.256727 134.51749 
L 145.256727 141.657606 
L 148.503274 141.657606 
L 148.503274 135.42858 
L 151.749815 135.42858 
L 151.749815 140.54846 
L 154.996362 140.54846 
L 154.996362 163.642502 
L 158.24291 163.642502 
L 158.24291 169.990359 
L 161.489457 169.990359 
L 161.489457 165.266603 
L 164.735997 165.266603 
L 164.735997 172.624619 
L 167.982545 172.624619 
L 167.982545 161.939153 
L 171.229092 161.939153 
L 171.229092 190.242205 
L 174.47564 190.242205 
L 174.47564 187.251475 
L 177.72218 187.251475 
L 177.72218 188.073424 
L 180.968728 188.073424 
L 180.968728 200.709794 
L 184.215275 200.709794 
L 184.215275 201.868439 
L 187.461816 201.868439 
L 187.461816 191.470194 
L 190.708363 191.470194 
L 190.708363 207.255719 
L 193.95491 207.255719 
L 193.95491 205.869304 
L 197.201458 205.869304 
L 197.201458 216.693375 
L 200.448005 216.693375 
L 200.448005 215.485201 
L 203.694539 215.485201 
L 203.694539 224.427705 
L 206.941086 224.427705 
L 206.941086 225.576446 
L 210.187634 225.576446 
L 210.187634 230.884513 
L 213.434181 230.884513 
L 213.434181 228.646418 
L 216.680729 228.646418 
L 216.680729 236.816467 
L 219.927276 236.816467 
L 219.927276 233.469226 
L 223.173823 233.469226 
L 223.173823 231.746092 
L 226.420357 231.746092 
L 226.420357 244.630016 
L 229.666904 244.630016 
L 229.666904 234.261473 
L 232.913452 234.261473 
L 232.913452 235.162658 
L 236.159999 235.162658 
L 236.159999 233.63758 
L 239.406547 233.63758 
L 239.406547 236.123259 
L 242.653094 236.123259 
L 242.653094 240.252849 
L 245.899641 240.252849 
L 245.899641 242.391915 
L 249.146189 242.391915 
L 249.146189 245.768876 
L 252.392722 245.768876 
L 252.392722 256.177025 
L 255.63927 256.177025 
L 255.63927 250.04701 
L 258.885817 250.04701 
L 258.885817 252.423751 
L 262.132365 252.423751 
L 262.132365 254.493504 
L 265.378912 254.493504 
L 265.378912 258.761736 
L 268.62546 258.761736 
L 268.62546 251.63151 
L 271.872007 251.63151 
L 271.872007 257.573362 
L 275.11854 257.573362 
L 275.11854 256.216638 
L 278.365088 256.216638 
L 278.365088 252.522785 
L 281.611635 252.522785 
L 281.611635 253.899312 
L 284.858183 253.899312 
L 284.858183 269.754172 
L 288.10473 269.754172 
L 288.10473 266.159347 
L 291.351278 266.159347 
L 291.351278 274.329399 
L 294.597825 274.329399 
L 294.597825 263.010162 
L 297.844358 263.010162 
L 297.844358 265.198746 
L 301.090906 265.198746 
L 301.090906 263.317159 
L 304.337453 263.317159 
L 304.337453 261.693053 
L 307.584001 261.693053 
L 307.584001 269.080759 
L 310.830548 269.080759 
L 310.830548 265.149232 
L 314.077096 265.149232 
L 314.077096 270.546416 
L 317.323629 270.546416 
L 317.323629 274.042211 
L 320.570191 274.042211 
L 320.570191 270.180003 
L 323.816724 270.180003 
L 323.816724 279.974171 
L 327.063285 279.974171 
L 327.063285 277.815292 
L 330.309819 277.815292 
L 330.309819 274.586879 
L 333.556352 274.586879 
L 333.556352 277.389457 
L 336.802914 277.389457 
L 336.802914 279.122505 
L 340.049447 279.122505 
L 340.049447 274.606688 
L 343.296009 274.606688 
L 343.296009 277.953938 
L 346.542542 277.953938 
L 346.542542 286.232924 
L 349.789104 286.232924 
L 349.789104 283.410542 
L 353.035637 283.410542 
L 353.035637 290.025808 
L 356.28217 290.025808 
L 356.28217 293.12548 
L 359.528732 293.12548 
L 359.528732 296.55195 
L 362.775265 296.55195 
L 362.775265 297.116427 
L 366.021827 297.116427 
L 366.021827 300.275515 
L 369.26836 300.275515 
L 369.26836 304.434815 
L 372.514922 304.434815 
L 372.514922 303.355377 
L 375.761455 303.355377 
L 375.761455 307.177973 
L 379.007988 307.177973 
L 379.007988 306.940299 
L 382.25455 306.940299 
L 382.25455 306.484756 
L 385.501083 306.484756 
L 385.501083 307.237392 
L 388.747645 307.237392 
L 388.747645 307.584 
L 398.487273 307.584 
L 398.487273 307.584 
" style="fill:none;stroke:#d62728;stroke-linejoin:miter;"/>
   </g>
   <g id="patch_7">
    <path clip-path="url(#pac03a6f678)" d="M 73.832727 307.584 
L 80.325818 307.584 
L 80.325818 307.019523 
L 83.572363 307.019523 
L 83.572363 303.979273 
L 86.818909 303.979273 
L 86.818909 298.007706 
L 90.065454 298.007706 
L 90.065454 284.688036 
L 93.312 284.688036 
L 93.312 271.209925 
L 96.558545 271.209925 
L 96.558545 255.513514 
L 99.805091 255.513514 
L 99.805091 227.943294 
L 103.051637 227.943294 
L 103.051637 214.504791 
L 106.298182 214.504791 
L 106.298182 202.997394 
L 109.544726 202.997394 
L 109.544726 200.125507 
L 112.791274 200.125507 
L 112.791274 192.252536 
L 116.037818 192.252536 
L 116.037818 168.118692 
L 119.284365 168.118692 
L 119.284365 179.655797 
L 122.530909 179.655797 
L 122.530909 174.090247 
L 125.777453 174.090247 
L 125.777453 166.504484 
L 129.024 166.504484 
L 129.024 162.414513 
L 132.270544 162.414513 
L 132.270544 158.859283 
L 138.763639 158.789963 
L 138.763639 159.126671 
L 142.010179 159.126671 
L 142.010179 157.155958 
L 145.256727 157.155958 
L 145.256727 152.27374 
L 148.503274 152.27374 
L 148.503274 152.402464 
L 151.749815 152.402464 
L 151.749815 153.561144 
L 154.996362 153.561144 
L 154.996362 157.037126 
L 158.24291 157.037126 
L 158.24291 148.906684 
L 161.489457 148.906684 
L 161.489457 145.529724 
L 164.735997 145.529724 
L 164.735997 146.183342 
L 167.982545 146.183342 
L 167.982545 135.38895 
L 171.229092 135.38895 
L 171.229092 137.676585 
L 174.47564 137.676585 
L 174.47564 161.889654 
L 177.72218 161.889654 
L 177.72218 151.461695 
L 180.968728 151.461695 
L 180.968728 129.714497 
L 184.215275 129.714497 
L 184.215275 138.458916 
L 187.461816 138.458916 
L 187.461816 151.382447 
L 190.708363 151.382447 
L 190.708363 125.822582 
L 193.95491 125.822582 
L 193.95491 150.590224 
L 197.201458 150.590224 
L 197.201458 129.922434 
L 200.448005 129.922434 
L 200.448005 111.591826 
L 203.694539 111.591826 
L 203.694539 128.65485 
L 206.941086 128.65485 
L 206.941086 104.778489 
L 210.187634 104.778489 
L 210.187634 106.679859 
L 213.434181 106.679859 
L 213.434181 129.427276 
L 216.680729 129.427276 
L 216.680729 99.004991 
L 219.927276 99.004991 
L 219.927276 99.30208 
L 223.173823 99.30208 
L 223.173823 107.373107 
L 226.420357 107.373107 
L 226.420357 103.520811 
L 229.666904 103.520811 
L 229.666904 83.447247 
L 232.913452 83.447247 
L 232.913452 106.541242 
L 236.159999 106.541242 
L 236.159999 86.309182 
L 239.406547 86.309182 
L 239.406547 69.909704 
L 242.653094 69.909704 
L 242.653094 60.016474 
L 245.899641 60.016474 
L 245.899641 89.210806 
L 249.146189 89.210806 
L 249.146189 64.720468 
L 252.392722 64.720468 
L 252.392722 91.023069 
L 255.63927 91.023069 
L 255.63927 81.634936 
L 258.885817 81.634936 
L 258.885817 82.34797 
L 262.132365 82.34797 
L 262.132365 83.209561 
L 265.378912 83.209561 
L 265.378912 98.549428 
L 268.62546 98.549428 
L 268.62546 102.787944 
L 271.872007 102.787944 
L 271.872007 89.814878 
L 275.11854 89.814878 
L 275.11854 101.005406 
L 278.365088 101.005406 
L 278.365088 113.176308 
L 281.611635 113.176308 
L 281.611635 113.047596 
L 284.858183 113.047596 
L 284.858183 99.321889 
L 288.10473 99.321889 
L 288.10473 120.504599 
L 291.351278 120.504599 
L 291.351278 141.023808 
L 294.597825 141.023808 
L 294.597825 134.428349 
L 297.844358 134.428349 
L 297.844358 126.456356 
L 301.090906 126.456356 
L 301.090906 170.604372 
L 304.337453 170.604372 
L 304.337453 154.006779 
L 307.584001 154.006779 
L 307.584001 165.335899 
L 310.830548 165.335899 
L 310.830548 151.392363 
L 314.077096 151.392363 
L 314.077096 168.049384 
L 317.323629 168.049384 
L 317.323629 173.456461 
L 320.570191 173.456461 
L 320.570191 167.385872 
L 323.816724 167.385872 
L 323.816724 188.182363 
L 327.063285 188.182363 
L 327.063285 176.476892 
L 330.309819 176.476892 
L 330.309819 192.193132 
L 333.556352 192.193132 
L 333.556352 198.204305 
L 336.802914 198.204305 
L 336.802914 200.769198 
L 340.049447 200.769198 
L 340.049447 214.197808 
L 343.296009 214.197808 
L 343.296009 229.042535 
L 346.542542 229.042535 
L 346.542542 247.04637 
L 349.789104 247.04637 
L 349.789104 253.65174 
L 353.035637 253.65174 
L 353.035637 268.516282 
L 356.28217 268.516282 
L 356.28217 273.220259 
L 359.528732 273.220259 
L 359.528732 293.610731 
L 362.775265 293.610731 
L 362.775265 294.809005 
L 366.021827 294.809005 
L 366.021827 298.621697 
L 369.26836 298.621697 
L 369.26836 305.900474 
L 372.514922 305.900474 
L 372.514922 305.494447 
L 375.761455 305.494447 
L 375.761455 303.286056 
L 379.007988 303.286056 
L 379.007988 305.543962 
L 382.25455 305.543962 
L 382.25455 307.584 
L 398.487273 307.584 
L 398.487273 307.584 
" style="fill:none;stroke:#9467bd;stroke-linejoin:miter;"/>
   </g>
   <g id="patch_8">
    <path clip-path="url(#pac03a6f678)" d="M 73.832727 307.584 
L 398.487273 307.584 
L 398.487273 307.584 
" style="fill:none;stroke:#000000;stroke-linejoin:miter;"/>
   </g>
   <g id="matplotlib.axis_1">
    <g id="xtick_1">
     <g id="line2d_1">
      <defs>
       <path d="M 0 0 
L 0 3.5 
" id="ma0cf3cf87e" style="stroke:#000000;stroke-width:0.8;"/>
      </defs>
      <g>
       <use style="stroke:#000000;stroke-width:0.8;" x="73.804742" xlink:href="#ma0cf3cf87e" y="307.584"/>
      </g>
     </g>
     <g id="text_1">
      <!-- 0.00 -->
      <defs>
       <path d="M 31.78125 66.40625 
Q 24.171875 66.40625 20.328125 58.90625 
Q 16.5 51.421875 16.5 36.375 
Q 16.5 21.390625 20.328125 13.890625 
Q 24.171875 6.390625 31.78125 6.390625 
Q 39.453125 6.390625 43.28125 13.890625 
Q 47.125 21.390625 47.125 36.375 
Q 47.125 51.421875 43.28125 58.90625 
Q 39.453125 66.40625 31.78125 66.40625 
z
M 31.78125 74.21875 
Q 44.046875 74.21875 50.515625 64.515625 
Q 56.984375 54.828125 56.984375 36.375 
Q 56.984375 17.96875 50.515625 8.265625 
Q 44.046875 -1.421875 31.78125 -1.421875 
Q 19.53125 -1.421875 13.0625 8.265625 
Q 6.59375 17.96875 6.59375 36.375 
Q 6.59375 54.828125 13.0625 64.515625 
Q 19.53125 74.21875 31.78125 74.21875 
z
" id="DejaVuSans-48"/>
       <path d="M 10.6875 12.40625 
L 21 12.40625 
L 21 0 
L 10.6875 0 
z
" id="DejaVuSans-46"/>
      </defs>
      <g transform="translate(62.67193 322.182437)scale(0.1 -0.1)">
       <use xlink:href="#DejaVuSans-48"/>
       <use x="63.623047" xlink:href="#DejaVuSans-46"/>
       <use x="95.410156" xlink:href="#DejaVuSans-48"/>
       <use x="159.033203" xlink:href="#DejaVuSans-48"/>
      </g>
     </g>
    </g>
    <g id="xtick_2">
     <g id="line2d_2">
      <g>
       <use style="stroke:#000000;stroke-width:0.8;" x="121.906715" xlink:href="#ma0cf3cf87e" y="307.584"/>
      </g>
     </g>
     <g id="text_2">
      <!-- 0.05 -->
      <defs>
       <path d="M 10.796875 72.90625 
L 49.515625 72.90625 
L 49.515625 64.59375 
L 19.828125 64.59375 
L 19.828125 46.734375 
Q 21.96875 47.46875 24.109375 47.828125 
Q 26.265625 48.1875 28.421875 48.1875 
Q 40.625 48.1875 47.75 41.5 
Q 54.890625 34.8125 54.890625 23.390625 
Q 54.890625 11.625 47.5625 5.09375 
Q 40.234375 -1.421875 26.90625 -1.421875 
Q 22.3125 -1.421875 17.546875 -0.640625 
Q 12.796875 0.140625 7.71875 1.703125 
L 7.71875 11.625 
Q 12.109375 9.234375 16.796875 8.0625 
Q 21.484375 6.890625 26.703125 6.890625 
Q 35.15625 6.890625 40.078125 11.328125 
Q 45.015625 15.765625 45.015625 23.390625 
Q 45.015625 31 40.078125 35.4375 
Q 35.15625 39.890625 26.703125 39.890625 
Q 22.75 39.890625 18.8125 39.015625 
Q 14.890625 38.140625 10.796875 36.28125 
z
" id="DejaVuSans-53"/>
      </defs>
      <g transform="translate(110.773903 322.182437)scale(0.1 -0.1)">
       <use xlink:href="#DejaVuSans-48"/>
       <use x="63.623047" xlink:href="#DejaVuSans-46"/>
       <use x="95.410156" xlink:href="#DejaVuSans-48"/>
       <use x="159.033203" xlink:href="#DejaVuSans-53"/>
      </g>
     </g>
    </g>
    <g id="xtick_3">
     <g id="line2d_3">
      <g>
       <use style="stroke:#000000;stroke-width:0.8;" x="170.008688" xlink:href="#ma0cf3cf87e" y="307.584"/>
      </g>
     </g>
     <g id="text_3">
      <!-- 0.10 -->
      <defs>
       <path d="M 12.40625 8.296875 
L 28.515625 8.296875 
L 28.515625 63.921875 
L 10.984375 60.40625 
L 10.984375 69.390625 
L 28.421875 72.90625 
L 38.28125 72.90625 
L 38.28125 8.296875 
L 54.390625 8.296875 
L 54.390625 0 
L 12.40625 0 
z
" id="DejaVuSans-49"/>
      </defs>
      <g transform="translate(158.875875 322.182437)scale(0.1 -0.1)">
       <use xlink:href="#DejaVuSans-48"/>
       <use x="63.623047" xlink:href="#DejaVuSans-46"/>
       <use x="95.410156" xlink:href="#DejaVuSans-49"/>
       <use x="159.033203" xlink:href="#DejaVuSans-48"/>
      </g>
     </g>
    </g>
    <g id="xtick_4">
     <g id="line2d_4">
      <g>
       <use style="stroke:#000000;stroke-width:0.8;" x="218.110661" xlink:href="#ma0cf3cf87e" y="307.584"/>
      </g>
     </g>
     <g id="text_4">
      <!-- 0.15 -->
      <g transform="translate(206.977848 322.182437)scale(0.1 -0.1)">
       <use xlink:href="#DejaVuSans-48"/>
       <use x="63.623047" xlink:href="#DejaVuSans-46"/>
       <use x="95.410156" xlink:href="#DejaVuSans-49"/>
       <use x="159.033203" xlink:href="#DejaVuSans-53"/>
      </g>
     </g>
    </g>
    <g id="xtick_5">
     <g id="line2d_5">
      <g>
       <use style="stroke:#000000;stroke-width:0.8;" x="266.212633" xlink:href="#ma0cf3cf87e" y="307.584"/>
      </g>
     </g>
     <g id="text_5">
      <!-- 0.20 -->
      <defs>
       <path d="M 19.1875 8.296875 
L 53.609375 8.296875 
L 53.609375 0 
L 7.328125 0 
L 7.328125 8.296875 
Q 12.9375 14.109375 22.625 23.890625 
Q 32.328125 33.6875 34.8125 36.53125 
Q 39.546875 41.84375 41.421875 45.53125 
Q 43.3125 49.21875 43.3125 52.78125 
Q 43.3125 58.59375 39.234375 62.25 
Q 35.15625 65.921875 28.609375 65.921875 
Q 23.96875 65.921875 18.8125 64.3125 
Q 13.671875 62.703125 7.8125 59.421875 
L 7.8125 69.390625 
Q 13.765625 71.78125 18.9375 73 
Q 24.125 74.21875 28.421875 74.21875 
Q 39.75 74.21875 46.484375 68.546875 
Q 53.21875 62.890625 53.21875 53.421875 
Q 53.21875 48.921875 51.53125 44.890625 
Q 49.859375 40.875 45.40625 35.40625 
Q 44.1875 33.984375 37.640625 27.21875 
Q 31.109375 20.453125 19.1875 8.296875 
z
" id="DejaVuSans-50"/>
      </defs>
      <g transform="translate(255.079821 322.182437)scale(0.1 -0.1)">
       <use xlink:href="#DejaVuSans-48"/>
       <use x="63.623047" xlink:href="#DejaVuSans-46"/>
       <use x="95.410156" xlink:href="#DejaVuSans-50"/>
       <use x="159.033203" xlink:href="#DejaVuSans-48"/>
      </g>
     </g>
    </g>
    <g id="xtick_6">
     <g id="line2d_6">
      <g>
       <use style="stroke:#000000;stroke-width:0.8;" x="314.314606" xlink:href="#ma0cf3cf87e" y="307.584"/>
      </g>
     </g>
     <g id="text_6">
      <!-- 0.25 -->
      <g transform="translate(303.181794 322.182437)scale(0.1 -0.1)">
       <use xlink:href="#DejaVuSans-48"/>
       <use x="63.623047" xlink:href="#DejaVuSans-46"/>
       <use x="95.410156" xlink:href="#DejaVuSans-50"/>
       <use x="159.033203" xlink:href="#DejaVuSans-53"/>
      </g>
     </g>
    </g>
    <g id="xtick_7">
     <g id="line2d_7">
      <g>
       <use style="stroke:#000000;stroke-width:0.8;" x="362.416579" xlink:href="#ma0cf3cf87e" y="307.584"/>
      </g>
     </g>
     <g id="text_7">
      <!-- 0.30 -->
      <defs>
       <path d="M 40.578125 39.3125 
Q 47.65625 37.796875 51.625 33 
Q 55.609375 28.21875 55.609375 21.1875 
Q 55.609375 10.40625 48.1875 4.484375 
Q 40.765625 -1.421875 27.09375 -1.421875 
Q 22.515625 -1.421875 17.65625 -0.515625 
Q 12.796875 0.390625 7.625 2.203125 
L 7.625 11.71875 
Q 11.71875 9.328125 16.59375 8.109375 
Q 21.484375 6.890625 26.8125 6.890625 
Q 36.078125 6.890625 40.9375 10.546875 
Q 45.796875 14.203125 45.796875 21.1875 
Q 45.796875 27.640625 41.28125 31.265625 
Q 36.765625 34.90625 28.71875 34.90625 
L 20.21875 34.90625 
L 20.21875 43.015625 
L 29.109375 43.015625 
Q 36.375 43.015625 40.234375 45.921875 
Q 44.09375 48.828125 44.09375 54.296875 
Q 44.09375 59.90625 40.109375 62.90625 
Q 36.140625 65.921875 28.71875 65.921875 
Q 24.65625 65.921875 20.015625 65.03125 
Q 15.375 64.15625 9.8125 62.3125 
L 9.8125 71.09375 
Q 15.4375 72.65625 20.34375 73.4375 
Q 25.25 74.21875 29.59375 74.21875 
Q 40.828125 74.21875 47.359375 69.109375 
Q 53.90625 64.015625 53.90625 55.328125 
Q 53.90625 49.265625 50.4375 45.09375 
Q 46.96875 40.921875 40.578125 39.3125 
z
" id="DejaVuSans-51"/>
      </defs>
      <g transform="translate(351.283766 322.182437)scale(0.1 -0.1)">
       <use xlink:href="#DejaVuSans-48"/>
       <use x="63.623047" xlink:href="#DejaVuSans-46"/>
       <use x="95.410156" xlink:href="#DejaVuSans-51"/>
       <use x="159.033203" xlink:href="#DejaVuSans-48"/>
      </g>
     </g>
    </g>
    <g id="xtick_8">
     <g id="line2d_8">
      <g>
       <use style="stroke:#000000;stroke-width:0.8;" x="410.518552" xlink:href="#ma0cf3cf87e" y="307.584"/>
      </g>
     </g>
     <g id="text_8">
      <!-- 0.35 -->
      <g transform="translate(399.385739 322.182437)scale(0.1 -0.1)">
       <use xlink:href="#DejaVuSans-48"/>
       <use x="63.623047" xlink:href="#DejaVuSans-46"/>
       <use x="95.410156" xlink:href="#DejaVuSans-51"/>
       <use x="159.033203" xlink:href="#DejaVuSans-53"/>
      </g>
     </g>
    </g>
    <g id="text_9">
     <!-- j_n2_b2_mmdt -->
     <defs>
      <path d="M 9.421875 54.6875 
L 18.40625 54.6875 
L 18.40625 -0.984375 
Q 18.40625 -11.421875 14.421875 -16.109375 
Q 10.453125 -20.796875 1.609375 -20.796875 
L -1.8125 -20.796875 
L -1.8125 -13.1875 
L 0.59375 -13.1875 
Q 5.71875 -13.1875 7.5625 -10.8125 
Q 9.421875 -8.453125 9.421875 -0.984375 
z
M 9.421875 75.984375 
L 18.40625 75.984375 
L 18.40625 64.59375 
L 9.421875 64.59375 
z
" id="DejaVuSans-106"/>
      <path d="M 50.984375 -16.609375 
L 50.984375 -23.578125 
L -0.984375 -23.578125 
L -0.984375 -16.609375 
z
" id="DejaVuSans-95"/>
      <path d="M 54.890625 33.015625 
L 54.890625 0 
L 45.90625 0 
L 45.90625 32.71875 
Q 45.90625 40.484375 42.875 44.328125 
Q 39.84375 48.1875 33.796875 48.1875 
Q 26.515625 48.1875 22.3125 43.546875 
Q 18.109375 38.921875 18.109375 30.90625 
L 18.109375 0 
L 9.078125 0 
L 9.078125 54.6875 
L 18.109375 54.6875 
L 18.109375 46.1875 
Q 21.34375 51.125 25.703125 53.5625 
Q 30.078125 56 35.796875 56 
Q 45.21875 56 50.046875 50.171875 
Q 54.890625 44.34375 54.890625 33.015625 
z
" id="DejaVuSans-110"/>
      <path d="M 48.6875 27.296875 
Q 48.6875 37.203125 44.609375 42.84375 
Q 40.53125 48.484375 33.40625 48.484375 
Q 26.265625 48.484375 22.1875 42.84375 
Q 18.109375 37.203125 18.109375 27.296875 
Q 18.109375 17.390625 22.1875 11.75 
Q 26.265625 6.109375 33.40625 6.109375 
Q 40.53125 6.109375 44.609375 11.75 
Q 48.6875 17.390625 48.6875 27.296875 
z
M 18.109375 46.390625 
Q 20.953125 51.265625 25.265625 53.625 
Q 29.59375 56 35.59375 56 
Q 45.5625 56 51.78125 48.09375 
Q 58.015625 40.1875 58.015625 27.296875 
Q 58.015625 14.40625 51.78125 6.484375 
Q 45.5625 -1.421875 35.59375 -1.421875 
Q 29.59375 -1.421875 25.265625 0.953125 
Q 20.953125 3.328125 18.109375 8.203125 
L 18.109375 0 
L 9.078125 0 
L 9.078125 75.984375 
L 18.109375 75.984375 
z
" id="DejaVuSans-98"/>
      <path d="M 52 44.1875 
Q 55.375 50.25 60.0625 53.125 
Q 64.75 56 71.09375 56 
Q 79.640625 56 84.28125 50.015625 
Q 88.921875 44.046875 88.921875 33.015625 
L 88.921875 0 
L 79.890625 0 
L 79.890625 32.71875 
Q 79.890625 40.578125 77.09375 44.375 
Q 74.3125 48.1875 68.609375 48.1875 
Q 61.625 48.1875 57.5625 43.546875 
Q 53.515625 38.921875 53.515625 30.90625 
L 53.515625 0 
L 44.484375 0 
L 44.484375 32.71875 
Q 44.484375 40.625 41.703125 44.40625 
Q 38.921875 48.1875 33.109375 48.1875 
Q 26.21875 48.1875 22.15625 43.53125 
Q 18.109375 38.875 18.109375 30.90625 
L 18.109375 0 
L 9.078125 0 
L 9.078125 54.6875 
L 18.109375 54.6875 
L 18.109375 46.1875 
Q 21.1875 51.21875 25.484375 53.609375 
Q 29.78125 56 35.6875 56 
Q 41.65625 56 45.828125 52.96875 
Q 50 49.953125 52 44.1875 
z
" id="DejaVuSans-109"/>
      <path d="M 45.40625 46.390625 
L 45.40625 75.984375 
L 54.390625 75.984375 
L 54.390625 0 
L 45.40625 0 
L 45.40625 8.203125 
Q 42.578125 3.328125 38.25 0.953125 
Q 33.9375 -1.421875 27.875 -1.421875 
Q 17.96875 -1.421875 11.734375 6.484375 
Q 5.515625 14.40625 5.515625 27.296875 
Q 5.515625 40.1875 11.734375 48.09375 
Q 17.96875 56 27.875 56 
Q 33.9375 56 38.25 53.625 
Q 42.578125 51.265625 45.40625 46.390625 
z
M 14.796875 27.296875 
Q 14.796875 17.390625 18.875 11.75 
Q 22.953125 6.109375 30.078125 6.109375 
Q 37.203125 6.109375 41.296875 11.75 
Q 45.40625 17.390625 45.40625 27.296875 
Q 45.40625 37.203125 41.296875 42.84375 
Q 37.203125 48.484375 30.078125 48.484375 
Q 22.953125 48.484375 18.875 42.84375 
Q 14.796875 37.203125 14.796875 27.296875 
z
" id="DejaVuSans-100"/>
      <path d="M 18.3125 70.21875 
L 18.3125 54.6875 
L 36.8125 54.6875 
L 36.8125 47.703125 
L 18.3125 47.703125 
L 18.3125 18.015625 
Q 18.3125 11.328125 20.140625 9.421875 
Q 21.96875 7.515625 27.59375 7.515625 
L 36.8125 7.515625 
L 36.8125 0 
L 27.59375 0 
Q 17.1875 0 13.234375 3.875 
Q 9.28125 7.765625 9.28125 18.015625 
L 9.28125 47.703125 
L 2.6875 47.703125 
L 2.6875 54.6875 
L 9.28125 54.6875 
L 9.28125 70.21875 
z
" id="DejaVuSans-116"/>
     </defs>
     <g transform="translate(199.690469 335.860562)scale(0.1 -0.1)">
      <use xlink:href="#DejaVuSans-106"/>
      <use x="27.783203" xlink:href="#DejaVuSans-95"/>
      <use x="77.783203" xlink:href="#DejaVuSans-110"/>
      <use x="141.162109" xlink:href="#DejaVuSans-50"/>
      <use x="204.785156" xlink:href="#DejaVuSans-95"/>
      <use x="254.785156" xlink:href="#DejaVuSans-98"/>
      <use x="318.261719" xlink:href="#DejaVuSans-50"/>
      <use x="381.884766" xlink:href="#DejaVuSans-95"/>
      <use x="431.884766" xlink:href="#DejaVuSans-109"/>
      <use x="529.296875" xlink:href="#DejaVuSans-109"/>
      <use x="626.708984" xlink:href="#DejaVuSans-100"/>
      <use x="690.185547" xlink:href="#DejaVuSans-116"/>
     </g>
    </g>
   </g>
   <g id="matplotlib.axis_2">
    <g id="ytick_1">
     <g id="line2d_9">
      <defs>
       <path d="M 0 0 
L -3.5 0 
" id="m51c898c6d6" style="stroke:#000000;stroke-width:0.8;"/>
      </defs>
      <g>
       <use style="stroke:#000000;stroke-width:0.8;" x="57.6" xlink:href="#m51c898c6d6" y="307.584"/>
      </g>
     </g>
     <g id="text_10">
      <!-- 0.000 -->
      <g transform="translate(21.971875 311.383219)scale(0.1 -0.1)">
       <use xlink:href="#DejaVuSans-48"/>
       <use x="63.623047" xlink:href="#DejaVuSans-46"/>
       <use x="95.410156" xlink:href="#DejaVuSans-48"/>
       <use x="159.033203" xlink:href="#DejaVuSans-48"/>
       <use x="222.65625" xlink:href="#DejaVuSans-48"/>
      </g>
     </g>
    </g>
    <g id="ytick_2">
     <g id="line2d_10">
      <g>
       <use style="stroke:#000000;stroke-width:0.8;" x="57.6" xlink:href="#m51c898c6d6" y="256.881049"/>
      </g>
     </g>
     <g id="text_11">
      <!-- 0.001 -->
      <g transform="translate(21.971875 260.680268)scale(0.1 -0.1)">
       <use xlink:href="#DejaVuSans-48"/>
       <use x="63.623047" xlink:href="#DejaVuSans-46"/>
       <use x="95.410156" xlink:href="#DejaVuSans-48"/>
       <use x="159.033203" xlink:href="#DejaVuSans-48"/>
       <use x="222.65625" xlink:href="#DejaVuSans-49"/>
      </g>
     </g>
    </g>
    <g id="ytick_3">
     <g id="line2d_11">
      <g>
       <use style="stroke:#000000;stroke-width:0.8;" x="57.6" xlink:href="#m51c898c6d6" y="206.178098"/>
      </g>
     </g>
     <g id="text_12">
      <!-- 0.002 -->
      <g transform="translate(21.971875 209.977316)scale(0.1 -0.1)">
       <use xlink:href="#DejaVuSans-48"/>
       <use x="63.623047" xlink:href="#DejaVuSans-46"/>
       <use x="95.410156" xlink:href="#DejaVuSans-48"/>
       <use x="159.033203" xlink:href="#DejaVuSans-48"/>
       <use x="222.65625" xlink:href="#DejaVuSans-50"/>
      </g>
     </g>
    </g>
    <g id="ytick_4">
     <g id="line2d_12">
      <g>
       <use style="stroke:#000000;stroke-width:0.8;" x="57.6" xlink:href="#m51c898c6d6" y="155.475146"/>
      </g>
     </g>
     <g id="text_13">
      <!-- 0.003 -->
      <g transform="translate(21.971875 159.274365)scale(0.1 -0.1)">
       <use xlink:href="#DejaVuSans-48"/>
       <use x="63.623047" xlink:href="#DejaVuSans-46"/>
       <use x="95.410156" xlink:href="#DejaVuSans-48"/>
       <use x="159.033203" xlink:href="#DejaVuSans-48"/>
       <use x="222.65625" xlink:href="#DejaVuSans-51"/>
      </g>
     </g>
    </g>
    <g id="ytick_5">
     <g id="line2d_13">
      <g>
       <use style="stroke:#000000;stroke-width:0.8;" x="57.6" xlink:href="#m51c898c6d6" y="104.772195"/>
      </g>
     </g>
     <g id="text_14">
      <!-- 0.004 -->
      <defs>
       <path d="M 37.796875 64.3125 
L 12.890625 25.390625 
L 37.796875 25.390625 
z
M 35.203125 72.90625 
L 47.609375 72.90625 
L 47.609375 25.390625 
L 58.015625 25.390625 
L 58.015625 17.1875 
L 47.609375 17.1875 
L 47.609375 0 
L 37.796875 0 
L 37.796875 17.1875 
L 4.890625 17.1875 
L 4.890625 26.703125 
z
" id="DejaVuSans-52"/>
      </defs>
      <g transform="translate(21.971875 108.571414)scale(0.1 -0.1)">
       <use xlink:href="#DejaVuSans-48"/>
       <use x="63.623047" xlink:href="#DejaVuSans-46"/>
       <use x="95.410156" xlink:href="#DejaVuSans-48"/>
       <use x="159.033203" xlink:href="#DejaVuSans-48"/>
       <use x="222.65625" xlink:href="#DejaVuSans-52"/>
      </g>
     </g>
    </g>
    <g id="ytick_6">
     <g id="line2d_14">
      <g>
       <use style="stroke:#000000;stroke-width:0.8;" x="57.6" xlink:href="#m51c898c6d6" y="54.069244"/>
      </g>
     </g>
     <g id="text_15">
      <!-- 0.005 -->
      <g transform="translate(21.971875 57.868463)scale(0.1 -0.1)">
       <use xlink:href="#DejaVuSans-48"/>
       <use x="63.623047" xlink:href="#DejaVuSans-46"/>
       <use x="95.410156" xlink:href="#DejaVuSans-48"/>
       <use x="159.033203" xlink:href="#DejaVuSans-48"/>
       <use x="222.65625" xlink:href="#DejaVuSans-53"/>
      </g>
     </g>
    </g>
    <g id="text_16">
     <!-- Prob. Density (a.u.) -->
     <defs>
      <path d="M 19.671875 64.796875 
L 19.671875 37.40625 
L 32.078125 37.40625 
Q 38.96875 37.40625 42.71875 40.96875 
Q 46.484375 44.53125 46.484375 51.125 
Q 46.484375 57.671875 42.71875 61.234375 
Q 38.96875 64.796875 32.078125 64.796875 
z
M 9.8125 72.90625 
L 32.078125 72.90625 
Q 44.34375 72.90625 50.609375 67.359375 
Q 56.890625 61.8125 56.890625 51.125 
Q 56.890625 40.328125 50.609375 34.8125 
Q 44.34375 29.296875 32.078125 29.296875 
L 19.671875 29.296875 
L 19.671875 0 
L 9.8125 0 
z
" id="DejaVuSans-80"/>
      <path d="M 41.109375 46.296875 
Q 39.59375 47.171875 37.8125 47.578125 
Q 36.03125 48 33.890625 48 
Q 26.265625 48 22.1875 43.046875 
Q 18.109375 38.09375 18.109375 28.8125 
L 18.109375 0 
L 9.078125 0 
L 9.078125 54.6875 
L 18.109375 54.6875 
L 18.109375 46.1875 
Q 20.953125 51.171875 25.484375 53.578125 
Q 30.03125 56 36.53125 56 
Q 37.453125 56 38.578125 55.875 
Q 39.703125 55.765625 41.0625 55.515625 
z
" id="DejaVuSans-114"/>
      <path d="M 30.609375 48.390625 
Q 23.390625 48.390625 19.1875 42.75 
Q 14.984375 37.109375 14.984375 27.296875 
Q 14.984375 17.484375 19.15625 11.84375 
Q 23.34375 6.203125 30.609375 6.203125 
Q 37.796875 6.203125 41.984375 11.859375 
Q 46.1875 17.53125 46.1875 27.296875 
Q 46.1875 37.015625 41.984375 42.703125 
Q 37.796875 48.390625 30.609375 48.390625 
z
M 30.609375 56 
Q 42.328125 56 49.015625 48.375 
Q 55.71875 40.765625 55.71875 27.296875 
Q 55.71875 13.875 49.015625 6.21875 
Q 42.328125 -1.421875 30.609375 -1.421875 
Q 18.84375 -1.421875 12.171875 6.21875 
Q 5.515625 13.875 5.515625 27.296875 
Q 5.515625 40.765625 12.171875 48.375 
Q 18.84375 56 30.609375 56 
z
" id="DejaVuSans-111"/>
      <path id="DejaVuSans-32"/>
      <path d="M 19.671875 64.796875 
L 19.671875 8.109375 
L 31.59375 8.109375 
Q 46.6875 8.109375 53.6875 14.9375 
Q 60.6875 21.78125 60.6875 36.53125 
Q 60.6875 51.171875 53.6875 57.984375 
Q 46.6875 64.796875 31.59375 64.796875 
z
M 9.8125 72.90625 
L 30.078125 72.90625 
Q 51.265625 72.90625 61.171875 64.09375 
Q 71.09375 55.28125 71.09375 36.53125 
Q 71.09375 17.671875 61.125 8.828125 
Q 51.171875 0 30.078125 0 
L 9.8125 0 
z
" id="DejaVuSans-68"/>
      <path d="M 56.203125 29.59375 
L 56.203125 25.203125 
L 14.890625 25.203125 
Q 15.484375 15.921875 20.484375 11.0625 
Q 25.484375 6.203125 34.421875 6.203125 
Q 39.59375 6.203125 44.453125 7.46875 
Q 49.3125 8.734375 54.109375 11.28125 
L 54.109375 2.78125 
Q 49.265625 0.734375 44.1875 -0.34375 
Q 39.109375 -1.421875 33.890625 -1.421875 
Q 20.796875 -1.421875 13.15625 6.1875 
Q 5.515625 13.8125 5.515625 26.8125 
Q 5.515625 40.234375 12.765625 48.109375 
Q 20.015625 56 32.328125 56 
Q 43.359375 56 49.78125 48.890625 
Q 56.203125 41.796875 56.203125 29.59375 
z
M 47.21875 32.234375 
Q 47.125 39.59375 43.09375 43.984375 
Q 39.0625 48.390625 32.421875 48.390625 
Q 24.90625 48.390625 20.390625 44.140625 
Q 15.875 39.890625 15.1875 32.171875 
z
" id="DejaVuSans-101"/>
      <path d="M 44.28125 53.078125 
L 44.28125 44.578125 
Q 40.484375 46.53125 36.375 47.5 
Q 32.28125 48.484375 27.875 48.484375 
Q 21.1875 48.484375 17.84375 46.4375 
Q 14.5 44.390625 14.5 40.28125 
Q 14.5 37.15625 16.890625 35.375 
Q 19.28125 33.59375 26.515625 31.984375 
L 29.59375 31.296875 
Q 39.15625 29.25 43.1875 25.515625 
Q 47.21875 21.78125 47.21875 15.09375 
Q 47.21875 7.46875 41.1875 3.015625 
Q 35.15625 -1.421875 24.609375 -1.421875 
Q 20.21875 -1.421875 15.453125 -0.5625 
Q 10.6875 0.296875 5.421875 2 
L 5.421875 11.28125 
Q 10.40625 8.6875 15.234375 7.390625 
Q 20.0625 6.109375 24.8125 6.109375 
Q 31.15625 6.109375 34.5625 8.28125 
Q 37.984375 10.453125 37.984375 14.40625 
Q 37.984375 18.0625 35.515625 20.015625 
Q 33.0625 21.96875 24.703125 23.78125 
L 21.578125 24.515625 
Q 13.234375 26.265625 9.515625 29.90625 
Q 5.8125 33.546875 5.8125 39.890625 
Q 5.8125 47.609375 11.28125 51.796875 
Q 16.75 56 26.8125 56 
Q 31.78125 56 36.171875 55.265625 
Q 40.578125 54.546875 44.28125 53.078125 
z
" id="DejaVuSans-115"/>
      <path d="M 9.421875 54.6875 
L 18.40625 54.6875 
L 18.40625 0 
L 9.421875 0 
z
M 9.421875 75.984375 
L 18.40625 75.984375 
L 18.40625 64.59375 
L 9.421875 64.59375 
z
" id="DejaVuSans-105"/>
      <path d="M 32.171875 -5.078125 
Q 28.375 -14.84375 24.75 -17.8125 
Q 21.140625 -20.796875 15.09375 -20.796875 
L 7.90625 -20.796875 
L 7.90625 -13.28125 
L 13.1875 -13.28125 
Q 16.890625 -13.28125 18.9375 -11.515625 
Q 21 -9.765625 23.484375 -3.21875 
L 25.09375 0.875 
L 2.984375 54.6875 
L 12.5 54.6875 
L 29.59375 11.921875 
L 46.6875 54.6875 
L 56.203125 54.6875 
z
" id="DejaVuSans-121"/>
      <path d="M 31 75.875 
Q 24.46875 64.65625 21.28125 53.65625 
Q 18.109375 42.671875 18.109375 31.390625 
Q 18.109375 20.125 21.3125 9.0625 
Q 24.515625 -2 31 -13.1875 
L 23.1875 -13.1875 
Q 15.875 -1.703125 12.234375 9.375 
Q 8.59375 20.453125 8.59375 31.390625 
Q 8.59375 42.28125 12.203125 53.3125 
Q 15.828125 64.359375 23.1875 75.875 
z
" id="DejaVuSans-40"/>
      <path d="M 34.28125 27.484375 
Q 23.390625 27.484375 19.1875 25 
Q 14.984375 22.515625 14.984375 16.5 
Q 14.984375 11.71875 18.140625 8.90625 
Q 21.296875 6.109375 26.703125 6.109375 
Q 34.1875 6.109375 38.703125 11.40625 
Q 43.21875 16.703125 43.21875 25.484375 
L 43.21875 27.484375 
z
M 52.203125 31.203125 
L 52.203125 0 
L 43.21875 0 
L 43.21875 8.296875 
Q 40.140625 3.328125 35.546875 0.953125 
Q 30.953125 -1.421875 24.3125 -1.421875 
Q 15.921875 -1.421875 10.953125 3.296875 
Q 6 8.015625 6 15.921875 
Q 6 25.140625 12.171875 29.828125 
Q 18.359375 34.515625 30.609375 34.515625 
L 43.21875 34.515625 
L 43.21875 35.40625 
Q 43.21875 41.609375 39.140625 45 
Q 35.0625 48.390625 27.6875 48.390625 
Q 23 48.390625 18.546875 47.265625 
Q 14.109375 46.140625 10.015625 43.890625 
L 10.015625 52.203125 
Q 14.9375 54.109375 19.578125 55.046875 
Q 24.21875 56 28.609375 56 
Q 40.484375 56 46.34375 49.84375 
Q 52.203125 43.703125 52.203125 31.203125 
z
" id="DejaVuSans-97"/>
      <path d="M 8.5 21.578125 
L 8.5 54.6875 
L 17.484375 54.6875 
L 17.484375 21.921875 
Q 17.484375 14.15625 20.5 10.265625 
Q 23.53125 6.390625 29.59375 6.390625 
Q 36.859375 6.390625 41.078125 11.03125 
Q 45.3125 15.671875 45.3125 23.6875 
L 45.3125 54.6875 
L 54.296875 54.6875 
L 54.296875 0 
L 45.3125 0 
L 45.3125 8.40625 
Q 42.046875 3.421875 37.71875 1 
Q 33.40625 -1.421875 27.6875 -1.421875 
Q 18.265625 -1.421875 13.375 4.4375 
Q 8.5 10.296875 8.5 21.578125 
z
M 31.109375 56 
z
" id="DejaVuSans-117"/>
      <path d="M 8.015625 75.875 
L 15.828125 75.875 
Q 23.140625 64.359375 26.78125 53.3125 
Q 30.421875 42.28125 30.421875 31.390625 
Q 30.421875 20.453125 26.78125 9.375 
Q 23.140625 -1.703125 15.828125 -13.1875 
L 8.015625 -13.1875 
Q 14.5 -2 17.703125 9.0625 
Q 20.90625 20.125 20.90625 31.390625 
Q 20.90625 42.671875 17.703125 53.65625 
Q 14.5 64.65625 8.015625 75.875 
z
" id="DejaVuSans-41"/>
     </defs>
     <g transform="translate(15.892187 222.917844)rotate(-90)scale(0.1 -0.1)">
      <use xlink:href="#DejaVuSans-80"/>
      <use x="60.287109" xlink:href="#DejaVuSans-114"/>
      <use x="101.369141" xlink:href="#DejaVuSans-111"/>
      <use x="162.550781" xlink:href="#DejaVuSans-98"/>
      <use x="226.027344" xlink:href="#DejaVuSans-46"/>
      <use x="257.814453" xlink:href="#DejaVuSans-32"/>
      <use x="289.601562" xlink:href="#DejaVuSans-68"/>
      <use x="366.603516" xlink:href="#DejaVuSans-101"/>
      <use x="428.126953" xlink:href="#DejaVuSans-110"/>
      <use x="491.505859" xlink:href="#DejaVuSans-115"/>
      <use x="543.605469" xlink:href="#DejaVuSans-105"/>
      <use x="571.388672" xlink:href="#DejaVuSans-116"/>
      <use x="610.597656" xlink:href="#DejaVuSans-121"/>
      <use x="669.777344" xlink:href="#DejaVuSans-32"/>
      <use x="701.564453" xlink:href="#DejaVuSans-40"/>
      <use x="740.578125" xlink:href="#DejaVuSans-97"/>
      <use x="801.857422" xlink:href="#DejaVuSans-46"/>
      <use x="833.644531" xlink:href="#DejaVuSans-117"/>
      <use x="897.023438" xlink:href="#DejaVuSans-46"/>
      <use x="928.810547" xlink:href="#DejaVuSans-41"/>
     </g>
    </g>
   </g>
   <g id="patch_9">
    <path d="M 57.6 307.584 
L 57.6 41.472 
" style="fill:none;stroke:#000000;stroke-linecap:square;stroke-linejoin:miter;stroke-width:0.8;"/>
   </g>
   <g id="patch_10">
    <path d="M 414.72 307.584 
L 414.72 41.472 
" style="fill:none;stroke:#000000;stroke-linecap:square;stroke-linejoin:miter;stroke-width:0.8;"/>
   </g>
   <g id="patch_11">
    <path d="M 57.6 307.584 
L 414.72 307.584 
" style="fill:none;stroke:#000000;stroke-linecap:square;stroke-linejoin:miter;stroke-width:0.8;"/>
   </g>
   <g id="patch_12">
    <path d="M 57.6 41.472 
L 414.72 41.472 
" style="fill:none;stroke:#000000;stroke-linecap:square;stroke-linejoin:miter;stroke-width:0.8;"/>
   </g>
   <g id="legend_1">
    <g id="patch_13">
     <path d="M 325.405938 137.54075 
L 407.72 137.54075 
Q 409.72 137.54075 409.72 135.54075 
L 409.72 48.472 
Q 409.72 46.472 407.72 46.472 
L 325.405938 46.472 
Q 323.405938 46.472 323.405938 48.472 
L 323.405938 135.54075 
Q 323.405938 137.54075 325.405938 137.54075 
z
" style="fill:#ffffff;opacity:0.8;stroke:#cccccc;stroke-linejoin:miter;"/>
    </g>
    <g id="patch_14">
     <path d="M 327.405938 58.070438 
L 347.405938 58.070438 
L 347.405938 51.070438 
L 327.405938 51.070438 
z
" style="fill:none;stroke:#1f77b4;stroke-linejoin:miter;"/>
    </g>
    <g id="text_17">
     <!-- quark -->
     <defs>
      <path d="M 14.796875 27.296875 
Q 14.796875 17.390625 18.875 11.75 
Q 22.953125 6.109375 30.078125 6.109375 
Q 37.203125 6.109375 41.296875 11.75 
Q 45.40625 17.390625 45.40625 27.296875 
Q 45.40625 37.203125 41.296875 42.84375 
Q 37.203125 48.484375 30.078125 48.484375 
Q 22.953125 48.484375 18.875 42.84375 
Q 14.796875 37.203125 14.796875 27.296875 
z
M 45.40625 8.203125 
Q 42.578125 3.328125 38.25 0.953125 
Q 33.9375 -1.421875 27.875 -1.421875 
Q 17.96875 -1.421875 11.734375 6.484375 
Q 5.515625 14.40625 5.515625 27.296875 
Q 5.515625 40.1875 11.734375 48.09375 
Q 17.96875 56 27.875 56 
Q 33.9375 56 38.25 53.625 
Q 42.578125 51.265625 45.40625 46.390625 
L 45.40625 54.6875 
L 54.390625 54.6875 
L 54.390625 -20.796875 
L 45.40625 -20.796875 
z
" id="DejaVuSans-113"/>
      <path d="M 9.078125 75.984375 
L 18.109375 75.984375 
L 18.109375 31.109375 
L 44.921875 54.6875 
L 56.390625 54.6875 
L 27.390625 29.109375 
L 57.625 0 
L 45.90625 0 
L 18.109375 26.703125 
L 18.109375 0 
L 9.078125 0 
z
" id="DejaVuSans-107"/>
     </defs>
     <g transform="translate(355.405938 58.070438)scale(0.1 -0.1)">
      <use xlink:href="#DejaVuSans-113"/>
      <use x="63.476562" xlink:href="#DejaVuSans-117"/>
      <use x="126.855469" xlink:href="#DejaVuSans-97"/>
      <use x="188.134766" xlink:href="#DejaVuSans-114"/>
      <use x="229.248047" xlink:href="#DejaVuSans-107"/>
     </g>
    </g>
    <g id="patch_15">
     <path d="M 327.405938 72.748563 
L 347.405938 72.748563 
L 347.405938 65.748563 
L 327.405938 65.748563 
z
" style="fill:none;stroke:#ff7f0e;stroke-linejoin:miter;"/>
    </g>
    <g id="text_18">
     <!-- gluon -->
     <defs>
      <path d="M 45.40625 27.984375 
Q 45.40625 37.75 41.375 43.109375 
Q 37.359375 48.484375 30.078125 48.484375 
Q 22.859375 48.484375 18.828125 43.109375 
Q 14.796875 37.75 14.796875 27.984375 
Q 14.796875 18.265625 18.828125 12.890625 
Q 22.859375 7.515625 30.078125 7.515625 
Q 37.359375 7.515625 41.375 12.890625 
Q 45.40625 18.265625 45.40625 27.984375 
z
M 54.390625 6.78125 
Q 54.390625 -7.171875 48.1875 -13.984375 
Q 42 -20.796875 29.203125 -20.796875 
Q 24.46875 -20.796875 20.265625 -20.09375 
Q 16.0625 -19.390625 12.109375 -17.921875 
L 12.109375 -9.1875 
Q 16.0625 -11.328125 19.921875 -12.34375 
Q 23.78125 -13.375 27.78125 -13.375 
Q 36.625 -13.375 41.015625 -8.765625 
Q 45.40625 -4.15625 45.40625 5.171875 
L 45.40625 9.625 
Q 42.625 4.78125 38.28125 2.390625 
Q 33.9375 0 27.875 0 
Q 17.828125 0 11.671875 7.65625 
Q 5.515625 15.328125 5.515625 27.984375 
Q 5.515625 40.671875 11.671875 48.328125 
Q 17.828125 56 27.875 56 
Q 33.9375 56 38.28125 53.609375 
Q 42.625 51.21875 45.40625 46.390625 
L 45.40625 54.6875 
L 54.390625 54.6875 
z
" id="DejaVuSans-103"/>
      <path d="M 9.421875 75.984375 
L 18.40625 75.984375 
L 18.40625 0 
L 9.421875 0 
z
" id="DejaVuSans-108"/>
     </defs>
     <g transform="translate(355.405938 72.748563)scale(0.1 -0.1)">
      <use xlink:href="#DejaVuSans-103"/>
      <use x="63.476562" xlink:href="#DejaVuSans-108"/>
      <use x="91.259766" xlink:href="#DejaVuSans-117"/>
      <use x="154.638672" xlink:href="#DejaVuSans-111"/>
      <use x="215.820312" xlink:href="#DejaVuSans-110"/>
     </g>
    </g>
    <g id="patch_16">
     <path d="M 327.405938 87.426688 
L 347.405938 87.426688 
L 347.405938 80.426688 
L 327.405938 80.426688 
z
" style="fill:none;stroke:#2ca02c;stroke-linejoin:miter;"/>
    </g>
    <g id="text_19">
     <!-- W -->
     <defs>
      <path d="M 3.328125 72.90625 
L 13.28125 72.90625 
L 28.609375 11.28125 
L 43.890625 72.90625 
L 54.984375 72.90625 
L 70.3125 11.28125 
L 85.59375 72.90625 
L 95.609375 72.90625 
L 77.296875 0 
L 64.890625 0 
L 49.515625 63.28125 
L 33.984375 0 
L 21.578125 0 
z
" id="DejaVuSans-87"/>
     </defs>
     <g transform="translate(355.405938 87.426688)scale(0.1 -0.1)">
      <use xlink:href="#DejaVuSans-87"/>
     </g>
    </g>
    <g id="patch_17">
     <path d="M 327.405938 102.104813 
L 347.405938 102.104813 
L 347.405938 95.104813 
L 327.405938 95.104813 
z
" style="fill:none;stroke:#d62728;stroke-linejoin:miter;"/>
    </g>
    <g id="text_20">
     <!-- Z -->
     <defs>
      <path d="M 5.609375 72.90625 
L 62.890625 72.90625 
L 62.890625 65.375 
L 16.796875 8.296875 
L 64.015625 8.296875 
L 64.015625 0 
L 4.5 0 
L 4.5 7.515625 
L 50.59375 64.59375 
L 5.609375 64.59375 
z
" id="DejaVuSans-90"/>
     </defs>
     <g transform="translate(355.405938 102.104813)scale(0.1 -0.1)">
      <use xlink:href="#DejaVuSans-90"/>
     </g>
    </g>
    <g id="patch_18">
     <path d="M 327.405938 116.782938 
L 347.405938 116.782938 
L 347.405938 109.782938 
L 327.405938 109.782938 
z
" style="fill:none;stroke:#9467bd;stroke-linejoin:miter;"/>
    </g>
    <g id="text_21">
     <!-- top -->
     <defs>
      <path d="M 18.109375 8.203125 
L 18.109375 -20.796875 
L 9.078125 -20.796875 
L 9.078125 54.6875 
L 18.109375 54.6875 
L 18.109375 46.390625 
Q 20.953125 51.265625 25.265625 53.625 
Q 29.59375 56 35.59375 56 
Q 45.5625 56 51.78125 48.09375 
Q 58.015625 40.1875 58.015625 27.296875 
Q 58.015625 14.40625 51.78125 6.484375 
Q 45.5625 -1.421875 35.59375 -1.421875 
Q 29.59375 -1.421875 25.265625 0.953125 
Q 20.953125 3.328125 18.109375 8.203125 
z
M 48.6875 27.296875 
Q 48.6875 37.203125 44.609375 42.84375 
Q 40.53125 48.484375 33.40625 48.484375 
Q 26.265625 48.484375 22.1875 42.84375 
Q 18.109375 37.203125 18.109375 27.296875 
Q 18.109375 17.390625 22.1875 11.75 
Q 26.265625 6.109375 33.40625 6.109375 
Q 40.53125 6.109375 44.609375 11.75 
Q 48.6875 17.390625 48.6875 27.296875 
z
" id="DejaVuSans-112"/>
     </defs>
     <g transform="translate(355.405938 116.782938)scale(0.1 -0.1)">
      <use xlink:href="#DejaVuSans-116"/>
      <use x="39.208984" xlink:href="#DejaVuSans-111"/>
      <use x="100.390625" xlink:href="#DejaVuSans-112"/>
     </g>
    </g>
    <g id="patch_19">
     <path d="M 327.405938 131.461063 
L 347.405938 131.461063 
L 347.405938 124.461063 
L 327.405938 124.461063 
z
" style="fill:none;stroke:#000000;stroke-linejoin:miter;"/>
    </g>
    <g id="text_22">
     <!-- undefined -->
     <defs>
      <path d="M 37.109375 75.984375 
L 37.109375 68.5 
L 28.515625 68.5 
Q 23.6875 68.5 21.796875 66.546875 
Q 19.921875 64.59375 19.921875 59.515625 
L 19.921875 54.6875 
L 34.71875 54.6875 
L 34.71875 47.703125 
L 19.921875 47.703125 
L 19.921875 0 
L 10.890625 0 
L 10.890625 47.703125 
L 2.296875 47.703125 
L 2.296875 54.6875 
L 10.890625 54.6875 
L 10.890625 58.5 
Q 10.890625 67.625 15.140625 71.796875 
Q 19.390625 75.984375 28.609375 75.984375 
z
" id="DejaVuSans-102"/>
     </defs>
     <g transform="translate(355.405938 131.461063)scale(0.1 -0.1)">
      <use xlink:href="#DejaVuSans-117"/>
      <use x="63.378906" xlink:href="#DejaVuSans-110"/>
      <use x="126.757812" xlink:href="#DejaVuSans-100"/>
      <use x="190.234375" xlink:href="#DejaVuSans-101"/>
      <use x="251.757812" xlink:href="#DejaVuSans-102"/>
      <use x="286.962891" xlink:href="#DejaVuSans-105"/>
      <use x="314.746094" xlink:href="#DejaVuSans-110"/>
      <use x="378.125" xlink:href="#DejaVuSans-101"/>
      <use x="439.648438" xlink:href="#DejaVuSans-100"/>
     </g>
    </g>
   </g>
  </g>
 </g>
 <defs>
  <clipPath id="pac03a6f678">
   <rect height="266.112" width="357.12" x="57.6" y="41.472"/>
  </clipPath>
 </defs>
</svg>
