<?xml version="1.0" encoding="utf-8" standalone="no"?>
<!DOCTYPE svg PUBLIC "-//W3C//DTD SVG 1.1//EN"
  "http://www.w3.org/Graphics/SVG/1.1/DTD/svg11.dtd">
<!-- Created with matplotlib (https://matplotlib.org/) -->
<svg height="345.6pt" version="1.1" viewBox="0 0 460.8 345.6" width="460.8pt" xmlns="http://www.w3.org/2000/svg" xmlns:xlink="http://www.w3.org/1999/xlink">
 <defs>
  <style type="text/css">
*{stroke-linecap:butt;stroke-linejoin:round;}
  </style>
 </defs>
 <g id="figure_1">
  <g id="patch_1">
   <path d="M 0 345.6 
L 460.8 345.6 
L 460.8 0 
L 0 0 
z
" style="fill:#ffffff;"/>
  </g>
  <g id="axes_1">
   <g id="patch_2">
    <path d="M 57.6 307.584 
L 414.72 307.584 
L 414.72 41.472 
L 57.6 41.472 
z
" style="fill:#ffffff;"/>
   </g>
   <g id="patch_3">
    <path clip-path="url(#p6798ed8599)" d="M 73.832727 307.584 
L 73.832727 307.013343 
L 80.325818 306.993833 
L 80.325818 306.749963 
L 83.572364 306.749963 
L 83.572364 306.954814 
L 90.065454 306.988956 
L 90.065454 306.79386 
L 93.312 306.79386 
L 93.312 306.959692 
L 96.558545 306.959692 
L 96.558545 306.232957 
L 99.805091 306.232957 
L 99.805091 306.447563 
L 103.051638 306.447563 
L 103.051638 305.979332 
L 106.298181 305.979332 
L 106.298181 306.374402 
L 112.791274 306.345138 
L 112.791274 305.998842 
L 116.037817 305.998842 
L 116.037817 305.847642 
L 119.284366 305.847642 
L 119.284366 306.052493 
L 122.53091 306.052493 
L 122.53091 304.950199 
L 125.777453 304.950199 
L 125.777453 305.906171 
L 129.024002 305.906171 
L 129.024002 305.325759 
L 132.270546 305.325759 
L 132.270546 305.68181 
L 135.517089 305.68181 
L 135.517089 304.281994 
L 138.763638 304.281994 
L 138.763638 306.106145 
L 142.010182 306.106145 
L 142.010182 303.608911 
L 145.256725 303.608911 
L 145.256725 305.633036 
L 148.503274 305.633036 
L 148.503274 303.569891 
L 151.749818 303.569891 
L 151.749818 303.457711 
L 154.996361 303.457711 
L 154.996361 302.233481 
L 158.24291 302.233481 
L 158.24291 302.111546 
L 161.489454 302.111546 
L 161.489454 299.824039 
L 164.735997 299.824039 
L 164.735997 301.077536 
L 167.982546 301.077536 
L 167.982546 303.023621 
L 171.229095 303.023621 
L 171.229095 301.306774 
L 174.475633 301.306774 
L 174.475633 301.496992 
L 177.722182 301.496992 
L 177.722182 297.990134 
L 180.968731 297.990134 
L 180.968731 298.624197 
L 184.215269 298.624197 
L 184.215269 296.214758 
L 190.708367 296.278164 
L 190.708367 293.341962 
L 193.954905 293.341962 
L 193.954905 294.395483 
L 197.201454 294.395483 
L 197.201454 290.732546 
L 203.694541 290.669141 
L 203.694541 286.845255 
L 206.94109 286.845255 
L 206.94109 286.98182 
L 210.187639 286.98182 
L 210.187639 286.162413 
L 213.434177 286.162413 
L 213.434177 281.733726 
L 216.680726 281.733726 
L 216.680726 283.450574 
L 219.927275 283.450574 
L 219.927275 280.450966 
L 223.173813 280.450966 
L 223.173813 275.993013 
L 226.420362 275.993013 
L 226.420362 276.412471 
L 229.666911 276.412471 
L 229.666911 277.656212 
L 232.913449 277.656212 
L 232.913449 271.88136 
L 236.159998 271.88136 
L 236.159998 270.2523 
L 239.406547 270.2523 
L 239.406547 273.00804 
L 242.653096 273.00804 
L 242.653096 272.0667 
L 245.899634 272.0667 
L 245.899634 263.979954 
L 249.146183 263.979954 
L 249.146183 262.175313 
L 252.392732 262.175313 
L 252.392732 251.669373 
L 255.63927 251.669373 
L 255.63927 259.907315 
L 258.885808 259.907315 
L 258.885808 254.600695 
L 262.132368 254.600695 
L 262.132368 258.863549 
L 265.378906 258.863549 
L 265.378906 254.542163 
L 268.625444 254.542163 
L 268.625444 250.484162 
L 275.118542 250.381732 
L 275.118542 245.948167 
L 278.36508 245.948167 
L 278.36508 239.29051 
L 281.61164 239.29051 
L 281.61164 245.28484 
L 284.858178 245.28484 
L 284.858178 236.207978 
L 288.104717 236.207978 
L 288.104717 240.568383 
L 291.351276 240.568383 
L 291.351276 225.741064 
L 294.597815 225.741064 
L 294.597815 232.369458 
L 297.844374 232.369458 
L 297.844374 230.25754 
L 301.090913 230.25754 
L 301.090913 225.731302 
L 304.337451 225.731302 
L 304.337451 230.262412 
L 307.58401 230.262412 
L 307.58401 220.571005 
L 310.830549 220.571005 
L 310.830549 212.035535 
L 314.077087 212.035535 
L 314.077087 206.319212 
L 317.323647 206.319212 
L 317.323647 212.791535 
L 320.570185 212.791535 
L 320.570185 209.328572 
L 323.816723 209.328572 
L 323.816723 208.172635 
L 327.063283 208.172635 
L 327.063283 201.617378 
L 330.309821 201.617378 
L 330.309821 209.26029 
L 333.556359 209.26029 
L 333.556359 194.715862 
L 336.802919 194.715862 
L 336.802919 197.349658 
L 340.049457 197.349658 
L 340.049457 199.36403 
L 343.295995 199.36403 
L 343.295995 198.569005 
L 346.542555 198.569005 
L 346.542555 206.299711 
L 349.789093 206.299711 
L 349.789093 205.568096 
L 353.035631 205.568096 
L 353.035631 208.250662 
L 356.282191 208.250662 
L 356.282191 218.946831 
L 359.528729 218.946831 
L 359.528729 225.204545 
L 362.775267 225.204545 
L 362.775267 230.803804 
L 366.021827 230.803804 
L 366.021827 239.8953 
L 369.268365 239.8953 
L 369.268365 251.742534 
L 372.514903 251.742534 
L 372.514903 259.541508 
L 375.761463 259.541508 
L 375.761463 272.130107 
L 379.008001 272.130107 
L 379.008001 281.450838 
L 382.254539 281.450838 
L 382.254539 284.265105 
L 385.501099 284.265105 
L 385.501099 299.453357 
L 388.747637 299.453357 
L 388.747637 303.833271 
L 391.994175 303.833271 
L 391.994175 305.194069 
L 395.240735 305.194069 
L 395.240735 307.423045 
L 398.487273 307.423045 
L 398.487273 307.584 
L 398.487273 307.584 
" style="fill:none;stroke:#1f77b4;stroke-linejoin:miter;"/>
   </g>
   <g id="patch_4">
    <path clip-path="url(#p6798ed8599)" d="M 73.832727 307.584 
L 73.832727 307.369394 
L 77.079273 307.369394 
L 77.079273 307.584 
L 93.312 307.584 
L 93.312 307.398658 
L 99.805091 307.447433 
L 99.805091 307.584 
L 103.051638 307.584 
L 103.051638 307.442555 
L 106.298181 307.442555 
L 106.298181 307.584 
L 109.544727 307.584 
L 109.544727 307.008466 
L 112.791274 307.008466 
L 112.791274 307.179175 
L 116.037817 307.179175 
L 116.037817 307.03773 
L 119.284366 307.03773 
L 119.284366 307.223072 
L 122.53091 307.223072 
L 122.53091 306.749963 
L 129.024002 306.710944 
L 129.024002 307.096259 
L 132.270546 307.096259 
L 132.270546 306.618273 
L 135.517089 306.618273 
L 135.517089 306.37928 
L 138.763638 306.37928 
L 138.763638 305.779358 
L 142.010182 305.779358 
L 142.010182 304.96483 
L 145.256725 304.96483 
L 145.256725 305.394043 
L 148.503274 305.394043 
L 148.503274 305.828132 
L 154.996361 305.881784 
L 154.996361 304.599025 
L 161.489454 304.677063 
L 161.489454 302.355416 
L 164.735997 302.355416 
L 164.735997 303.813762 
L 171.229095 303.833272 
L 171.229095 303.545504 
L 174.475633 303.545504 
L 174.475633 302.033506 
L 177.722182 302.033506 
L 177.722182 301.496991 
L 180.968731 301.496991 
L 180.968731 298.609566 
L 184.215269 298.609566 
L 184.215269 299.814287 
L 187.461818 299.814287 
L 187.461818 296.180613 
L 190.708367 296.180613 
L 190.708367 295.79042 
L 193.954905 295.79042 
L 193.954905 297.848689 
L 197.201454 297.848689 
L 197.201454 296.551298 
L 200.448003 296.551298 
L 200.448003 291.722663 
L 203.694541 291.722663 
L 203.694541 287.123263 
L 206.94109 287.123263 
L 206.94109 290.415517 
L 210.187639 290.415517 
L 210.187639 286.313614 
L 213.434177 286.313614 
L 213.434177 288.518203 
L 216.680726 288.518203 
L 216.680726 280.836283 
L 219.927275 280.836283 
L 219.927275 282.221467 
L 223.173813 282.221467 
L 223.173813 279.724232 
L 226.420362 279.724232 
L 226.420362 277.461116 
L 229.666911 277.461116 
L 229.666911 274.227396 
L 232.913449 274.227396 
L 232.913449 277.617193 
L 236.159998 277.617193 
L 236.159998 269.496305 
L 239.406547 269.496305 
L 239.406547 272.271553 
L 242.653096 272.271553 
L 242.653096 261.682691 
L 245.899634 261.682691 
L 245.899634 264.457936 
L 249.146183 264.457936 
L 249.146183 258.717234 
L 252.392732 258.717234 
L 252.392732 266.530837 
L 255.63927 266.530837 
L 255.63927 256.883318 
L 258.885808 256.883318 
L 258.885808 247.357738 
L 262.132368 247.357738 
L 262.132368 243.621647 
L 265.378906 243.621647 
L 265.378906 241.973076 
L 268.625444 241.973076 
L 268.625444 232.871835 
L 271.872004 232.871835 
L 271.872004 237.139568 
L 275.118542 237.139568 
L 275.118542 226.545828 
L 278.36508 226.545828 
L 278.36508 220.200319 
L 281.61164 220.200319 
L 281.61164 218.776131 
L 284.858178 218.776131 
L 284.858178 222.819487 
L 288.104717 222.819487 
L 288.104717 208.709148 
L 291.351276 208.709148 
L 291.351276 213.41097 
L 294.597815 213.41097 
L 294.597815 185.93163 
L 297.844374 185.93163 
L 297.844374 194.442733 
L 301.090913 194.442733 
L 301.090913 187.575322 
L 304.337451 187.575322 
L 304.337451 174.85992 
L 307.58401 174.85992 
L 307.58401 177.274229 
L 310.830549 177.274229 
L 310.830549 163.051723 
L 314.077087 163.051723 
L 314.077087 148.268283 
L 317.323647 148.268283 
L 317.323647 153.804144 
L 320.570185 153.804144 
L 320.570185 147.570797 
L 323.816723 147.570797 
L 323.816723 129.431714 
L 327.063283 129.431714 
L 327.063283 125.261533 
L 330.309821 125.261533 
L 330.309821 131.35342 
L 333.556359 131.35342 
L 333.556359 108.180871 
L 336.802919 108.180871 
L 336.802919 102.79618 
L 340.049457 102.79618 
L 340.049457 102.401092 
L 343.295995 102.401092 
L 343.295995 100.18192 
L 346.542555 100.18192 
L 346.542555 100.440397 
L 349.789093 100.440397 
L 349.789093 81.730625 
L 356.282191 81.716019 
L 356.282191 54.144 
L 359.528729 54.144 
L 359.528729 75.760697 
L 362.775267 75.760697 
L 362.775267 78.818839 
L 366.021827 78.818839 
L 366.021827 80.194251 
L 369.268365 80.194251 
L 369.268365 83.671854 
L 372.514903 83.671854 
L 372.514903 102.991259 
L 375.761463 102.991259 
L 375.761463 134.328627 
L 379.008001 134.328627 
L 379.008001 147.551285 
L 382.254539 147.551285 
L 382.254539 173.518625 
L 385.501099 173.518625 
L 385.501099 233.613201 
L 388.747637 233.613201 
L 388.747637 261.068137 
L 391.994175 261.068137 
L 391.994175 289.137634 
L 395.240735 289.137634 
L 395.240735 301.799391 
L 398.487273 301.799391 
L 398.487273 307.584 
L 398.487273 307.584 
" style="fill:none;stroke:#ff7f0e;stroke-linejoin:miter;"/>
   </g>
   <g id="patch_5">
    <path clip-path="url(#p6798ed8599)" d="M 73.832727 307.584 
L 80.325818 307.584 
L 80.325818 307.325497 
L 86.818909 307.281601 
L 86.818909 307.584 
L 93.312 307.584 
L 93.312 307.442555 
L 96.558545 307.442555 
L 96.558545 307.203562 
L 99.805091 307.203562 
L 99.805091 306.92555 
L 103.051638 306.92555 
L 103.051638 307.330375 
L 106.298181 307.330375 
L 106.298181 307.584 
L 109.544727 307.584 
L 109.544727 306.979201 
L 112.791274 306.979201 
L 112.791274 307.486452 
L 116.037817 307.486452 
L 116.037817 306.988956 
L 119.284366 306.988956 
L 119.284366 306.730453 
L 125.777453 306.686557 
L 125.777453 306.881653 
L 129.024002 306.881653 
L 129.024002 305.94519 
L 135.517089 305.857397 
L 135.517089 304.442948 
L 138.763638 304.442948 
L 138.763638 301.872553 
L 142.010182 301.872553 
L 142.010182 302.745609 
L 145.256725 302.745609 
L 145.256725 298.585178 
L 148.503274 298.585178 
L 148.503274 295.278296 
L 151.749818 295.278296 
L 151.749818 288.927906 
L 154.996361 288.927906 
L 154.996361 290.127748 
L 158.24291 290.127748 
L 158.24291 283.8554 
L 161.489454 283.8554 
L 161.489454 279.943719 
L 164.735997 279.943719 
L 164.735997 274.115211 
L 167.982546 274.115211 
L 167.982546 270.48154 
L 171.229095 270.48154 
L 171.229095 270.647373 
L 174.475633 270.647373 
L 174.475633 262.111906 
L 177.722182 262.111906 
L 177.722182 255.737137 
L 180.968731 255.737137 
L 180.968731 253.732515 
L 184.215269 253.732515 
L 184.215269 256.293157 
L 187.461818 256.293157 
L 187.461818 246.670026 
L 190.708367 246.670026 
L 190.708367 244.10939 
L 193.954905 244.10939 
L 193.954905 239.822139 
L 197.201454 239.822139 
L 197.201454 237.983357 
L 200.448003 237.983357 
L 200.448003 236.598165 
L 203.694541 236.598165 
L 203.694541 231.393976 
L 206.94109 231.393976 
L 206.94109 235.125201 
L 210.187639 235.125201 
L 210.187639 233.19374 
L 213.434177 233.19374 
L 213.434177 233.642464 
L 216.680726 233.642464 
L 216.680726 223.195045 
L 219.927275 223.195045 
L 219.927275 232.193885 
L 223.173813 232.193885 
L 223.173813 231.754906 
L 226.420362 231.754906 
L 226.420362 227.316468 
L 229.666911 227.316468 
L 229.666911 232.77429 
L 232.913449 232.77429 
L 232.913449 234.959368 
L 236.159998 234.959368 
L 236.159998 234.374074 
L 239.406547 234.374074 
L 239.406547 232.969375 
L 242.653096 232.969375 
L 242.653096 227.94077 
L 245.899634 227.94077 
L 245.899634 237.680965 
L 249.146183 237.680965 
L 249.146183 235.793401 
L 252.392732 235.793401 
L 252.392732 241.641415 
L 255.63927 241.641415 
L 255.63927 235.154453 
L 258.885808 235.154453 
L 258.885808 245.738436 
L 262.132368 245.738436 
L 262.132368 231.067188 
L 265.378906 231.067188 
L 265.378906 239.602653 
L 268.625444 239.602653 
L 268.625444 235.208112 
L 271.872004 235.208112 
L 271.872004 240.446447 
L 275.118542 240.446447 
L 275.118542 243.460686 
L 278.36508 243.460686 
L 278.36508 238.329658 
L 281.61164 238.329658 
L 281.61164 235.110561 
L 284.858178 235.110561 
L 284.858178 248.820957 
L 288.104717 248.820957 
L 288.104717 247.80159 
L 291.351276 247.80159 
L 291.351276 245.982308 
L 294.597815 245.982308 
L 294.597815 244.197173 
L 297.844374 244.197173 
L 297.844374 249.523309 
L 301.090913 249.523309 
L 301.090913 236.607938 
L 304.337451 236.607938 
L 304.337451 250.011053 
L 307.58401 250.011053 
L 307.58401 247.508937 
L 310.830549 247.508937 
L 310.830549 246.045724 
L 314.077087 246.045724 
L 314.077087 255.239637 
L 317.323647 255.239637 
L 317.323647 251.888849 
L 320.570185 251.888849 
L 320.570185 260.443834 
L 323.816723 260.443834 
L 323.816723 261.326649 
L 327.063283 261.326649 
L 327.063283 253.503278 
L 330.309821 253.503278 
L 330.309821 257.775888 
L 336.802919 257.69785 
L 336.802919 259.424453 
L 340.049457 259.424453 
L 340.049457 260.648687 
L 343.295995 260.648687 
L 343.295995 265.711433 
L 346.542555 265.711433 
L 346.542555 271.286313 
L 349.789093 271.286313 
L 349.789093 273.5348 
L 353.035631 273.5348 
L 353.035631 276.032035 
L 356.282191 276.032035 
L 356.282191 283.923683 
L 359.528729 283.923683 
L 359.528729 282.045883 
L 362.775267 282.045883 
L 362.775267 280.972851 
L 366.021827 280.972851 
L 366.021827 285.669799 
L 369.268365 285.669799 
L 369.268365 290.083853 
L 372.514903 290.083853 
L 372.514903 294.141859 
L 375.761463 294.141859 
L 375.761463 296.814679 
L 379.008001 296.814679 
L 379.008001 303.087027 
L 382.254539 303.087027 
L 382.254539 300.911704 
L 385.501099 300.911704 
L 385.501099 305.086766 
L 388.747637 305.086766 
L 388.747637 306.369525 
L 391.994175 306.369525 
L 391.994175 307.18893 
L 395.240735 307.18893 
L 395.240735 307.584 
L 398.487273 307.584 
L 398.487273 307.584 
" style="fill:none;stroke:#2ca02c;stroke-linejoin:miter;"/>
   </g>
   <g id="patch_6">
    <path clip-path="url(#p6798ed8599)" d="M 73.832727 307.584 
L 73.832727 307.457187 
L 80.325818 307.4328 
L 80.325818 307.266968 
L 83.572364 307.266968 
L 83.572364 307.437678 
L 93.312 307.398658 
L 93.312 307.247459 
L 99.805091 307.349884 
L 99.805091 307.584 
L 103.051638 307.584 
L 103.051638 307.257214 
L 106.298181 307.257214 
L 106.298181 307.384026 
L 109.544727 307.384026 
L 109.544727 307.266968 
L 112.791274 307.266968 
L 112.791274 307.496207 
L 116.037817 307.496207 
L 116.037817 306.998711 
L 119.284366 306.998711 
L 119.284366 307.110891 
L 122.53091 307.110891 
L 122.53091 306.281731 
L 125.777453 306.281731 
L 125.777453 305.130663 
L 129.024002 305.130663 
L 129.024002 304.355155 
L 135.517089 304.374664 
L 135.517089 301.882308 
L 138.763638 301.882308 
L 138.763638 300.043523 
L 142.010182 300.043523 
L 142.010182 298.638829 
L 145.256725 298.638829 
L 145.256725 294.468645 
L 148.503274 294.468645 
L 148.503274 288.820603 
L 151.749818 288.820603 
L 151.749818 282.845775 
L 154.996361 282.845775 
L 154.996361 281.884928 
L 158.24291 281.884928 
L 158.24291 273.217768 
L 161.489454 273.217768 
L 161.489454 271.183886 
L 164.735997 271.183886 
L 164.735997 261.165685 
L 167.982546 261.165685 
L 167.982546 256.907714 
L 171.229095 256.907714 
L 171.229095 256.312664 
L 174.475633 256.312664 
L 174.475633 252.796048 
L 177.722182 252.796048 
L 177.722182 244.782468 
L 180.968731 244.782468 
L 180.968731 247.952783 
L 184.215269 247.952783 
L 184.215269 237.28101 
L 187.461818 237.28101 
L 187.461818 234.159465 
L 190.708367 234.159465 
L 190.708367 240.236728 
L 193.954905 240.236728 
L 193.954905 235.437355 
L 197.201454 235.437355 
L 197.201454 237.476107 
L 200.448003 237.476107 
L 200.448003 235.661709 
L 203.694541 235.661709 
L 203.694541 224.463179 
L 206.94109 224.463179 
L 206.94109 225.448417 
L 210.187639 225.448417 
L 210.187639 227.199399 
L 213.434177 227.199399 
L 213.434177 230.008784 
L 216.680726 230.008784 
L 216.680726 226.067841 
L 219.927275 226.067841 
L 219.927275 234.003388 
L 223.173813 234.003388 
L 223.173813 235.842176 
L 226.420362 235.842176 
L 226.420362 230.350213 
L 229.666911 230.350213 
L 229.666911 230.584329 
L 232.913449 230.584329 
L 232.913449 232.086572 
L 236.159998 232.086572 
L 236.159998 242.875397 
L 239.406547 242.875397 
L 239.406547 230.89161 
L 242.653096 230.89161 
L 242.653096 227.204271 
L 245.899634 227.204271 
L 245.899634 238.612543 
L 249.146183 238.612543 
L 249.146183 230.559938 
L 252.392732 230.559938 
L 252.392732 234.369195 
L 255.63927 234.369195 
L 255.63927 233.69124 
L 258.885808 233.69124 
L 258.885808 234.866701 
L 262.132368 234.866701 
L 262.132368 233.149843 
L 265.378906 233.149843 
L 265.378906 240.08064 
L 268.625444 240.08064 
L 268.625444 239.900184 
L 271.872004 239.900184 
L 271.872004 239.388055 
L 275.118542 239.388055 
L 275.118542 249.625738 
L 278.36508 249.625738 
L 278.36508 241.129287 
L 281.61164 241.129287 
L 281.61164 240.968338 
L 284.858178 240.968338 
L 284.858178 242.236466 
L 288.104717 242.236466 
L 288.104717 248.274699 
L 291.351276 248.274699 
L 291.351276 249.91838 
L 294.597815 249.91838 
L 294.597815 244.719058 
L 297.844374 244.719058 
L 297.844374 242.460825 
L 301.090913 242.460825 
L 301.090913 248.947777 
L 304.337451 248.947777 
L 304.337451 250.659745 
L 307.58401 250.659745 
L 307.58401 251.527925 
L 310.830549 251.527925 
L 310.830549 252.088829 
L 314.077087 252.088829 
L 314.077087 256.215119 
L 317.323647 256.215119 
L 317.323647 253.478887 
L 320.570185 253.478887 
L 320.570185 249.650123 
L 323.816723 249.650123 
L 323.816723 252.498528 
L 327.063283 252.498528 
L 327.063283 259.35129 
L 330.309821 259.35129 
L 330.309821 265.179798 
L 333.556359 265.179798 
L 333.556359 253.542303 
L 336.802919 253.542303 
L 336.802919 261.511986 
L 340.049457 261.511986 
L 340.049457 267.789215 
L 343.295995 267.789215 
L 343.295995 263.106897 
L 346.542555 263.106897 
L 346.542555 271.774059 
L 349.789093 271.774059 
L 349.789093 275.461378 
L 353.035631 275.461378 
L 353.035631 273.988397 
L 356.282191 273.988397 
L 356.282191 276.422227 
L 359.528729 276.422227 
L 359.528729 280.943588 
L 362.775267 280.943588 
L 362.775267 283.909052 
L 366.021827 283.909052 
L 366.021827 283.294499 
L 369.268365 283.294499 
L 369.268365 291.795822 
L 372.514903 291.795822 
L 372.514903 292.820079 
L 375.761463 292.820079 
L 375.761463 296.083067 
L 379.008001 296.083067 
L 379.008001 302.209094 
L 382.254539 302.209094 
L 382.254539 304.150303 
L 385.501099 304.150303 
L 385.501099 304.794121 
L 388.747637 304.794121 
L 388.747637 307.125523 
L 391.994175 307.125523 
L 391.994175 307.584 
L 398.487273 307.584 
L 398.487273 307.584 
" style="fill:none;stroke:#d62728;stroke-linejoin:miter;"/>
   </g>
   <g id="patch_7">
    <path clip-path="url(#p6798ed8599)" d="M 73.832727 307.584 
L 106.298181 307.584 
L 106.298181 307.4328 
L 109.544727 307.4328 
L 109.544727 307.584 
L 112.791274 307.584 
L 112.791274 307.286478 
L 116.037817 307.286478 
L 116.037817 307.427923 
L 119.284366 307.427923 
L 119.284366 307.584 
L 122.53091 307.584 
L 122.53091 307.442555 
L 129.024002 307.476697 
L 129.024002 306.852388 
L 132.270546 306.852388 
L 132.270546 306.662169 
L 135.517089 306.662169 
L 135.517089 306.891408 
L 138.763638 306.891408 
L 138.763638 305.808623 
L 142.010182 305.808623 
L 142.010182 305.184314 
L 145.256725 305.184314 
L 145.256725 302.501738 
L 148.503274 302.501738 
L 148.503274 302.321273 
L 151.749818 302.321273 
L 151.749818 298.653461 
L 154.996361 298.653461 
L 154.996361 295.395351 
L 161.489454 295.444125 
L 161.489454 287.16716 
L 164.735997 287.16716 
L 164.735997 287.347622 
L 167.982546 287.347622 
L 167.982546 284.226085 
L 171.229095 284.226085 
L 171.229095 283.05063 
L 174.475633 283.05063 
L 174.475633 276.734381 
L 177.722182 276.734381 
L 177.722182 276.451493 
L 180.968731 276.451493 
L 180.968731 274.339576 
L 184.215269 274.339576 
L 184.215269 269.793825 
L 187.461818 269.793825 
L 187.461818 261.394928 
L 190.708367 261.394928 
L 190.708367 266.613753 
L 193.954905 266.613753 
L 193.954905 261.59978 
L 197.201454 261.59978 
L 197.201454 259.756119 
L 200.448003 259.756119 
L 200.448003 255.254272 
L 203.694541 255.254272 
L 203.694541 257.551529 
L 206.94109 257.551529 
L 206.94109 255.454234 
L 210.187639 255.454234 
L 210.187639 251.718143 
L 213.434177 251.718143 
L 213.434177 250.206149 
L 216.680726 250.206149 
L 216.680726 248.006431 
L 219.927275 248.006431 
L 219.927275 244.353256 
L 223.173813 244.353256 
L 223.173813 248.347859 
L 226.420362 248.347859 
L 226.420362 242.265718 
L 229.666911 242.265718 
L 229.666911 243.187551 
L 232.913449 243.187551 
L 232.913449 233.110823 
L 236.159998 233.110823 
L 236.159998 236.603055 
L 239.406547 236.603055 
L 239.406547 233.091322 
L 242.653096 233.091322 
L 242.653096 233.466875 
L 245.899634 233.466875 
L 245.899634 233.091311 
L 249.146183 233.091311 
L 249.146183 227.8042 
L 252.392732 227.8042 
L 252.392732 217.795755 
L 255.63927 217.795755 
L 255.63927 223.107262 
L 258.885808 223.107262 
L 258.885808 214.94735 
L 262.132368 214.94735 
L 262.132368 205.597353 
L 265.378906 205.597353 
L 265.378906 201.714941 
L 268.625444 201.714941 
L 268.625444 199.627414 
L 271.872004 199.627414 
L 271.872004 201.490582 
L 275.118542 201.490582 
L 275.118542 192.155208 
L 278.36508 192.155208 
L 278.36508 172.372444 
L 281.61164 172.372444 
L 281.61164 162.422531 
L 284.858178 162.422531 
L 284.858178 149.624195 
L 288.104717 149.624195 
L 288.104717 150.897184 
L 291.351276 150.897184 
L 291.351276 126.739404 
L 294.597815 126.739404 
L 294.597815 114.014211 
L 297.844374 114.014211 
L 297.844374 117.145518 
L 301.090913 117.145518 
L 301.090913 108.663684 
L 304.337451 108.663684 
L 304.337451 112.999722 
L 307.58401 112.999722 
L 307.58401 99.313717 
L 310.830549 99.313717 
L 310.830549 75.26807 
L 314.077087 75.26807 
L 314.077087 94.855767 
L 317.323647 94.855767 
L 317.323647 99.303972 
L 320.570185 99.303972 
L 320.570185 115.462824 
L 323.816723 115.462824 
L 323.816723 113.165555 
L 327.063283 113.165555 
L 327.063283 130.875444 
L 330.309821 130.875444 
L 330.309821 135.601639 
L 333.556359 135.601639 
L 333.556359 156.457453 
L 336.802919 156.457453 
L 336.802919 163.090736 
L 340.049457 163.090736 
L 340.049457 190.165221 
L 343.295995 190.165221 
L 343.295995 201.856389 
L 346.542555 201.856389 
L 346.542555 207.640994 
L 349.789093 207.640994 
L 349.789093 220.614908 
L 353.035631 220.614908 
L 353.035631 238.16383 
L 356.282191 238.16383 
L 356.282191 248.625861 
L 359.528729 248.625861 
L 359.528729 262.853274 
L 362.775267 262.853274 
L 362.775267 275.500394 
L 366.021827 275.500394 
L 366.021827 283.933438 
L 369.268365 283.933438 
L 369.268365 285.889279 
L 372.514903 285.889279 
L 372.514903 288.874254 
L 375.761463 288.874254 
L 375.761463 298.468119 
L 379.008001 298.468119 
L 379.008001 301.57503 
L 382.254539 301.57503 
L 382.254539 302.628551 
L 385.501099 302.628551 
L 385.501099 305.881784 
L 388.747637 305.881784 
L 388.747637 305.355024 
L 391.994175 305.355024 
L 391.994175 306.954814 
L 395.240735 306.954814 
L 395.240735 307.584 
L 398.487273 307.584 
L 398.487273 307.584 
" style="fill:none;stroke:#9467bd;stroke-linejoin:miter;"/>
   </g>
   <g id="patch_8">
    <path clip-path="url(#p6798ed8599)" d="M 73.832727 307.584 
L 398.487273 307.584 
L 398.487273 307.584 
" style="fill:none;stroke:#000000;stroke-linejoin:miter;"/>
   </g>
   <g id="matplotlib.axis_1">
    <g id="xtick_1">
     <g id="line2d_1">
      <defs>
       <path d="M 0 0 
L 0 3.5 
" id="m87974bbdaa" style="stroke:#000000;stroke-width:0.8;"/>
      </defs>
      <g>
       <use style="stroke:#000000;stroke-width:0.8;" x="71.718131" xlink:href="#m87974bbdaa" y="307.584"/>
      </g>
     </g>
     <g id="text_1">
      <!-- 0.0 -->
      <defs>
       <path d="M 31.78125 66.40625 
Q 24.171875 66.40625 20.328125 58.90625 
Q 16.5 51.421875 16.5 36.375 
Q 16.5 21.390625 20.328125 13.890625 
Q 24.171875 6.390625 31.78125 6.390625 
Q 39.453125 6.390625 43.28125 13.890625 
Q 47.125 21.390625 47.125 36.375 
Q 47.125 51.421875 43.28125 58.90625 
Q 39.453125 66.40625 31.78125 66.40625 
z
M 31.78125 74.21875 
Q 44.046875 74.21875 50.515625 64.515625 
Q 56.984375 54.828125 56.984375 36.375 
Q 56.984375 17.96875 50.515625 8.265625 
Q 44.046875 -1.421875 31.78125 -1.421875 
Q 19.53125 -1.421875 13.0625 8.265625 
Q 6.59375 17.96875 6.59375 36.375 
Q 6.59375 54.828125 13.0625 64.515625 
Q 19.53125 74.21875 31.78125 74.21875 
z
" id="DejaVuSans-48"/>
       <path d="M 10.6875 12.40625 
L 21 12.40625 
L 21 0 
L 10.6875 0 
z
" id="DejaVuSans-46"/>
      </defs>
      <g transform="translate(63.766568 322.182437)scale(0.1 -0.1)">
       <use xlink:href="#DejaVuSans-48"/>
       <use x="63.623047" xlink:href="#DejaVuSans-46"/>
       <use x="95.410156" xlink:href="#DejaVuSans-48"/>
      </g>
     </g>
    </g>
    <g id="xtick_2">
     <g id="line2d_2">
      <g>
       <use style="stroke:#000000;stroke-width:0.8;" x="145.311923" xlink:href="#m87974bbdaa" y="307.584"/>
      </g>
     </g>
     <g id="text_2">
      <!-- 0.1 -->
      <defs>
       <path d="M 12.40625 8.296875 
L 28.515625 8.296875 
L 28.515625 63.921875 
L 10.984375 60.40625 
L 10.984375 69.390625 
L 28.421875 72.90625 
L 38.28125 72.90625 
L 38.28125 8.296875 
L 54.390625 8.296875 
L 54.390625 0 
L 12.40625 0 
z
" id="DejaVuSans-49"/>
      </defs>
      <g transform="translate(137.360361 322.182437)scale(0.1 -0.1)">
       <use xlink:href="#DejaVuSans-48"/>
       <use x="63.623047" xlink:href="#DejaVuSans-46"/>
       <use x="95.410156" xlink:href="#DejaVuSans-49"/>
      </g>
     </g>
    </g>
    <g id="xtick_3">
     <g id="line2d_3">
      <g>
       <use style="stroke:#000000;stroke-width:0.8;" x="218.905716" xlink:href="#m87974bbdaa" y="307.584"/>
      </g>
     </g>
     <g id="text_3">
      <!-- 0.2 -->
      <defs>
       <path d="M 19.1875 8.296875 
L 53.609375 8.296875 
L 53.609375 0 
L 7.328125 0 
L 7.328125 8.296875 
Q 12.9375 14.109375 22.625 23.890625 
Q 32.328125 33.6875 34.8125 36.53125 
Q 39.546875 41.84375 41.421875 45.53125 
Q 43.3125 49.21875 43.3125 52.78125 
Q 43.3125 58.59375 39.234375 62.25 
Q 35.15625 65.921875 28.609375 65.921875 
Q 23.96875 65.921875 18.8125 64.3125 
Q 13.671875 62.703125 7.8125 59.421875 
L 7.8125 69.390625 
Q 13.765625 71.78125 18.9375 73 
Q 24.125 74.21875 28.421875 74.21875 
Q 39.75 74.21875 46.484375 68.546875 
Q 53.21875 62.890625 53.21875 53.421875 
Q 53.21875 48.921875 51.53125 44.890625 
Q 49.859375 40.875 45.40625 35.40625 
Q 44.1875 33.984375 37.640625 27.21875 
Q 31.109375 20.453125 19.1875 8.296875 
z
" id="DejaVuSans-50"/>
      </defs>
      <g transform="translate(210.954153 322.182437)scale(0.1 -0.1)">
       <use xlink:href="#DejaVuSans-48"/>
       <use x="63.623047" xlink:href="#DejaVuSans-46"/>
       <use x="95.410156" xlink:href="#DejaVuSans-50"/>
      </g>
     </g>
    </g>
    <g id="xtick_4">
     <g id="line2d_4">
      <g>
       <use style="stroke:#000000;stroke-width:0.8;" x="292.499508" xlink:href="#m87974bbdaa" y="307.584"/>
      </g>
     </g>
     <g id="text_4">
      <!-- 0.3 -->
      <defs>
       <path d="M 40.578125 39.3125 
Q 47.65625 37.796875 51.625 33 
Q 55.609375 28.21875 55.609375 21.1875 
Q 55.609375 10.40625 48.1875 4.484375 
Q 40.765625 -1.421875 27.09375 -1.421875 
Q 22.515625 -1.421875 17.65625 -0.515625 
Q 12.796875 0.390625 7.625 2.203125 
L 7.625 11.71875 
Q 11.71875 9.328125 16.59375 8.109375 
Q 21.484375 6.890625 26.8125 6.890625 
Q 36.078125 6.890625 40.9375 10.546875 
Q 45.796875 14.203125 45.796875 21.1875 
Q 45.796875 27.640625 41.28125 31.265625 
Q 36.765625 34.90625 28.71875 34.90625 
L 20.21875 34.90625 
L 20.21875 43.015625 
L 29.109375 43.015625 
Q 36.375 43.015625 40.234375 45.921875 
Q 44.09375 48.828125 44.09375 54.296875 
Q 44.09375 59.90625 40.109375 62.90625 
Q 36.140625 65.921875 28.71875 65.921875 
Q 24.65625 65.921875 20.015625 65.03125 
Q 15.375 64.15625 9.8125 62.3125 
L 9.8125 71.09375 
Q 15.4375 72.65625 20.34375 73.4375 
Q 25.25 74.21875 29.59375 74.21875 
Q 40.828125 74.21875 47.359375 69.109375 
Q 53.90625 64.015625 53.90625 55.328125 
Q 53.90625 49.265625 50.4375 45.09375 
Q 46.96875 40.921875 40.578125 39.3125 
z
" id="DejaVuSans-51"/>
      </defs>
      <g transform="translate(284.547946 322.182437)scale(0.1 -0.1)">
       <use xlink:href="#DejaVuSans-48"/>
       <use x="63.623047" xlink:href="#DejaVuSans-46"/>
       <use x="95.410156" xlink:href="#DejaVuSans-51"/>
      </g>
     </g>
    </g>
    <g id="xtick_5">
     <g id="line2d_5">
      <g>
       <use style="stroke:#000000;stroke-width:0.8;" x="366.093301" xlink:href="#m87974bbdaa" y="307.584"/>
      </g>
     </g>
     <g id="text_5">
      <!-- 0.4 -->
      <defs>
       <path d="M 37.796875 64.3125 
L 12.890625 25.390625 
L 37.796875 25.390625 
z
M 35.203125 72.90625 
L 47.609375 72.90625 
L 47.609375 25.390625 
L 58.015625 25.390625 
L 58.015625 17.1875 
L 47.609375 17.1875 
L 47.609375 0 
L 37.796875 0 
L 37.796875 17.1875 
L 4.890625 17.1875 
L 4.890625 26.703125 
z
" id="DejaVuSans-52"/>
      </defs>
      <g transform="translate(358.141738 322.182437)scale(0.1 -0.1)">
       <use xlink:href="#DejaVuSans-48"/>
       <use x="63.623047" xlink:href="#DejaVuSans-46"/>
       <use x="95.410156" xlink:href="#DejaVuSans-52"/>
      </g>
     </g>
    </g>
    <g id="text_6">
     <!-- j_n2_b1_mmdt -->
     <defs>
      <path d="M 9.421875 54.6875 
L 18.40625 54.6875 
L 18.40625 -0.984375 
Q 18.40625 -11.421875 14.421875 -16.109375 
Q 10.453125 -20.796875 1.609375 -20.796875 
L -1.8125 -20.796875 
L -1.8125 -13.1875 
L 0.59375 -13.1875 
Q 5.71875 -13.1875 7.5625 -10.8125 
Q 9.421875 -8.453125 9.421875 -0.984375 
z
M 9.421875 75.984375 
L 18.40625 75.984375 
L 18.40625 64.59375 
L 9.421875 64.59375 
z
" id="DejaVuSans-106"/>
      <path d="M 50.984375 -16.609375 
L 50.984375 -23.578125 
L -0.984375 -23.578125 
L -0.984375 -16.609375 
z
" id="DejaVuSans-95"/>
      <path d="M 54.890625 33.015625 
L 54.890625 0 
L 45.90625 0 
L 45.90625 32.71875 
Q 45.90625 40.484375 42.875 44.328125 
Q 39.84375 48.1875 33.796875 48.1875 
Q 26.515625 48.1875 22.3125 43.546875 
Q 18.109375 38.921875 18.109375 30.90625 
L 18.109375 0 
L 9.078125 0 
L 9.078125 54.6875 
L 18.109375 54.6875 
L 18.109375 46.1875 
Q 21.34375 51.125 25.703125 53.5625 
Q 30.078125 56 35.796875 56 
Q 45.21875 56 50.046875 50.171875 
Q 54.890625 44.34375 54.890625 33.015625 
z
" id="DejaVuSans-110"/>
      <path d="M 48.6875 27.296875 
Q 48.6875 37.203125 44.609375 42.84375 
Q 40.53125 48.484375 33.40625 48.484375 
Q 26.265625 48.484375 22.1875 42.84375 
Q 18.109375 37.203125 18.109375 27.296875 
Q 18.109375 17.390625 22.1875 11.75 
Q 26.265625 6.109375 33.40625 6.109375 
Q 40.53125 6.109375 44.609375 11.75 
Q 48.6875 17.390625 48.6875 27.296875 
z
M 18.109375 46.390625 
Q 20.953125 51.265625 25.265625 53.625 
Q 29.59375 56 35.59375 56 
Q 45.5625 56 51.78125 48.09375 
Q 58.015625 40.1875 58.015625 27.296875 
Q 58.015625 14.40625 51.78125 6.484375 
Q 45.5625 -1.421875 35.59375 -1.421875 
Q 29.59375 -1.421875 25.265625 0.953125 
Q 20.953125 3.328125 18.109375 8.203125 
L 18.109375 0 
L 9.078125 0 
L 9.078125 75.984375 
L 18.109375 75.984375 
z
" id="DejaVuSans-98"/>
      <path d="M 52 44.1875 
Q 55.375 50.25 60.0625 53.125 
Q 64.75 56 71.09375 56 
Q 79.640625 56 84.28125 50.015625 
Q 88.921875 44.046875 88.921875 33.015625 
L 88.921875 0 
L 79.890625 0 
L 79.890625 32.71875 
Q 79.890625 40.578125 77.09375 44.375 
Q 74.3125 48.1875 68.609375 48.1875 
Q 61.625 48.1875 57.5625 43.546875 
Q 53.515625 38.921875 53.515625 30.90625 
L 53.515625 0 
L 44.484375 0 
L 44.484375 32.71875 
Q 44.484375 40.625 41.703125 44.40625 
Q 38.921875 48.1875 33.109375 48.1875 
Q 26.21875 48.1875 22.15625 43.53125 
Q 18.109375 38.875 18.109375 30.90625 
L 18.109375 0 
L 9.078125 0 
L 9.078125 54.6875 
L 18.109375 54.6875 
L 18.109375 46.1875 
Q 21.1875 51.21875 25.484375 53.609375 
Q 29.78125 56 35.6875 56 
Q 41.65625 56 45.828125 52.96875 
Q 50 49.953125 52 44.1875 
z
" id="DejaVuSans-109"/>
      <path d="M 45.40625 46.390625 
L 45.40625 75.984375 
L 54.390625 75.984375 
L 54.390625 0 
L 45.40625 0 
L 45.40625 8.203125 
Q 42.578125 3.328125 38.25 0.953125 
Q 33.9375 -1.421875 27.875 -1.421875 
Q 17.96875 -1.421875 11.734375 6.484375 
Q 5.515625 14.40625 5.515625 27.296875 
Q 5.515625 40.1875 11.734375 48.09375 
Q 17.96875 56 27.875 56 
Q 33.9375 56 38.25 53.625 
Q 42.578125 51.265625 45.40625 46.390625 
z
M 14.796875 27.296875 
Q 14.796875 17.390625 18.875 11.75 
Q 22.953125 6.109375 30.078125 6.109375 
Q 37.203125 6.109375 41.296875 11.75 
Q 45.40625 17.390625 45.40625 27.296875 
Q 45.40625 37.203125 41.296875 42.84375 
Q 37.203125 48.484375 30.078125 48.484375 
Q 22.953125 48.484375 18.875 42.84375 
Q 14.796875 37.203125 14.796875 27.296875 
z
" id="DejaVuSans-100"/>
      <path d="M 18.3125 70.21875 
L 18.3125 54.6875 
L 36.8125 54.6875 
L 36.8125 47.703125 
L 18.3125 47.703125 
L 18.3125 18.015625 
Q 18.3125 11.328125 20.140625 9.421875 
Q 21.96875 7.515625 27.59375 7.515625 
L 36.8125 7.515625 
L 36.8125 0 
L 27.59375 0 
Q 17.1875 0 13.234375 3.875 
Q 9.28125 7.765625 9.28125 18.015625 
L 9.28125 47.703125 
L 2.6875 47.703125 
L 2.6875 54.6875 
L 9.28125 54.6875 
L 9.28125 70.21875 
z
" id="DejaVuSans-116"/>
     </defs>
     <g transform="translate(199.690469 335.860562)scale(0.1 -0.1)">
      <use xlink:href="#DejaVuSans-106"/>
      <use x="27.783203" xlink:href="#DejaVuSans-95"/>
      <use x="77.783203" xlink:href="#DejaVuSans-110"/>
      <use x="141.162109" xlink:href="#DejaVuSans-50"/>
      <use x="204.785156" xlink:href="#DejaVuSans-95"/>
      <use x="254.785156" xlink:href="#DejaVuSans-98"/>
      <use x="318.261719" xlink:href="#DejaVuSans-49"/>
      <use x="381.884766" xlink:href="#DejaVuSans-95"/>
      <use x="431.884766" xlink:href="#DejaVuSans-109"/>
      <use x="529.296875" xlink:href="#DejaVuSans-109"/>
      <use x="626.708984" xlink:href="#DejaVuSans-100"/>
      <use x="690.185547" xlink:href="#DejaVuSans-116"/>
     </g>
    </g>
   </g>
   <g id="matplotlib.axis_2">
    <g id="ytick_1">
     <g id="line2d_6">
      <defs>
       <path d="M 0 0 
L -3.5 0 
" id="m9a7852d799" style="stroke:#000000;stroke-width:0.8;"/>
      </defs>
      <g>
       <use style="stroke:#000000;stroke-width:0.8;" x="57.6" xlink:href="#m9a7852d799" y="307.584"/>
      </g>
     </g>
     <g id="text_7">
      <!-- 0.000 -->
      <g transform="translate(21.971875 311.383219)scale(0.1 -0.1)">
       <use xlink:href="#DejaVuSans-48"/>
       <use x="63.623047" xlink:href="#DejaVuSans-46"/>
       <use x="95.410156" xlink:href="#DejaVuSans-48"/>
       <use x="159.033203" xlink:href="#DejaVuSans-48"/>
       <use x="222.65625" xlink:href="#DejaVuSans-48"/>
      </g>
     </g>
    </g>
    <g id="ytick_2">
     <g id="line2d_7">
      <g>
       <use style="stroke:#000000;stroke-width:0.8;" x="57.6" xlink:href="#m9a7852d799" y="257.64021"/>
      </g>
     </g>
     <g id="text_8">
      <!-- 0.002 -->
      <g transform="translate(21.971875 261.439429)scale(0.1 -0.1)">
       <use xlink:href="#DejaVuSans-48"/>
       <use x="63.623047" xlink:href="#DejaVuSans-46"/>
       <use x="95.410156" xlink:href="#DejaVuSans-48"/>
       <use x="159.033203" xlink:href="#DejaVuSans-48"/>
       <use x="222.65625" xlink:href="#DejaVuSans-50"/>
      </g>
     </g>
    </g>
    <g id="ytick_3">
     <g id="line2d_8">
      <g>
       <use style="stroke:#000000;stroke-width:0.8;" x="57.6" xlink:href="#m9a7852d799" y="207.69642"/>
      </g>
     </g>
     <g id="text_9">
      <!-- 0.004 -->
      <g transform="translate(21.971875 211.495639)scale(0.1 -0.1)">
       <use xlink:href="#DejaVuSans-48"/>
       <use x="63.623047" xlink:href="#DejaVuSans-46"/>
       <use x="95.410156" xlink:href="#DejaVuSans-48"/>
       <use x="159.033203" xlink:href="#DejaVuSans-48"/>
       <use x="222.65625" xlink:href="#DejaVuSans-52"/>
      </g>
     </g>
    </g>
    <g id="ytick_4">
     <g id="line2d_9">
      <g>
       <use style="stroke:#000000;stroke-width:0.8;" x="57.6" xlink:href="#m9a7852d799" y="157.75263"/>
      </g>
     </g>
     <g id="text_10">
      <!-- 0.006 -->
      <defs>
       <path d="M 33.015625 40.375 
Q 26.375 40.375 22.484375 35.828125 
Q 18.609375 31.296875 18.609375 23.390625 
Q 18.609375 15.53125 22.484375 10.953125 
Q 26.375 6.390625 33.015625 6.390625 
Q 39.65625 6.390625 43.53125 10.953125 
Q 47.40625 15.53125 47.40625 23.390625 
Q 47.40625 31.296875 43.53125 35.828125 
Q 39.65625 40.375 33.015625 40.375 
z
M 52.59375 71.296875 
L 52.59375 62.3125 
Q 48.875 64.0625 45.09375 64.984375 
Q 41.3125 65.921875 37.59375 65.921875 
Q 27.828125 65.921875 22.671875 59.328125 
Q 17.53125 52.734375 16.796875 39.40625 
Q 19.671875 43.65625 24.015625 45.921875 
Q 28.375 48.1875 33.59375 48.1875 
Q 44.578125 48.1875 50.953125 41.515625 
Q 57.328125 34.859375 57.328125 23.390625 
Q 57.328125 12.15625 50.6875 5.359375 
Q 44.046875 -1.421875 33.015625 -1.421875 
Q 20.359375 -1.421875 13.671875 8.265625 
Q 6.984375 17.96875 6.984375 36.375 
Q 6.984375 53.65625 15.1875 63.9375 
Q 23.390625 74.21875 37.203125 74.21875 
Q 40.921875 74.21875 44.703125 73.484375 
Q 48.484375 72.75 52.59375 71.296875 
z
" id="DejaVuSans-54"/>
      </defs>
      <g transform="translate(21.971875 161.551849)scale(0.1 -0.1)">
       <use xlink:href="#DejaVuSans-48"/>
       <use x="63.623047" xlink:href="#DejaVuSans-46"/>
       <use x="95.410156" xlink:href="#DejaVuSans-48"/>
       <use x="159.033203" xlink:href="#DejaVuSans-48"/>
       <use x="222.65625" xlink:href="#DejaVuSans-54"/>
      </g>
     </g>
    </g>
    <g id="ytick_5">
     <g id="line2d_10">
      <g>
       <use style="stroke:#000000;stroke-width:0.8;" x="57.6" xlink:href="#m9a7852d799" y="107.80884"/>
      </g>
     </g>
     <g id="text_11">
      <!-- 0.008 -->
      <defs>
       <path d="M 31.78125 34.625 
Q 24.75 34.625 20.71875 30.859375 
Q 16.703125 27.09375 16.703125 20.515625 
Q 16.703125 13.921875 20.71875 10.15625 
Q 24.75 6.390625 31.78125 6.390625 
Q 38.8125 6.390625 42.859375 10.171875 
Q 46.921875 13.96875 46.921875 20.515625 
Q 46.921875 27.09375 42.890625 30.859375 
Q 38.875 34.625 31.78125 34.625 
z
M 21.921875 38.8125 
Q 15.578125 40.375 12.03125 44.71875 
Q 8.5 49.078125 8.5 55.328125 
Q 8.5 64.0625 14.71875 69.140625 
Q 20.953125 74.21875 31.78125 74.21875 
Q 42.671875 74.21875 48.875 69.140625 
Q 55.078125 64.0625 55.078125 55.328125 
Q 55.078125 49.078125 51.53125 44.71875 
Q 48 40.375 41.703125 38.8125 
Q 48.828125 37.15625 52.796875 32.3125 
Q 56.78125 27.484375 56.78125 20.515625 
Q 56.78125 9.90625 50.3125 4.234375 
Q 43.84375 -1.421875 31.78125 -1.421875 
Q 19.734375 -1.421875 13.25 4.234375 
Q 6.78125 9.90625 6.78125 20.515625 
Q 6.78125 27.484375 10.78125 32.3125 
Q 14.796875 37.15625 21.921875 38.8125 
z
M 18.3125 54.390625 
Q 18.3125 48.734375 21.84375 45.5625 
Q 25.390625 42.390625 31.78125 42.390625 
Q 38.140625 42.390625 41.71875 45.5625 
Q 45.3125 48.734375 45.3125 54.390625 
Q 45.3125 60.0625 41.71875 63.234375 
Q 38.140625 66.40625 31.78125 66.40625 
Q 25.390625 66.40625 21.84375 63.234375 
Q 18.3125 60.0625 18.3125 54.390625 
z
" id="DejaVuSans-56"/>
      </defs>
      <g transform="translate(21.971875 111.608059)scale(0.1 -0.1)">
       <use xlink:href="#DejaVuSans-48"/>
       <use x="63.623047" xlink:href="#DejaVuSans-46"/>
       <use x="95.410156" xlink:href="#DejaVuSans-48"/>
       <use x="159.033203" xlink:href="#DejaVuSans-48"/>
       <use x="222.65625" xlink:href="#DejaVuSans-56"/>
      </g>
     </g>
    </g>
    <g id="ytick_6">
     <g id="line2d_11">
      <g>
       <use style="stroke:#000000;stroke-width:0.8;" x="57.6" xlink:href="#m9a7852d799" y="57.86505"/>
      </g>
     </g>
     <g id="text_12">
      <!-- 0.010 -->
      <g transform="translate(21.971875 61.664269)scale(0.1 -0.1)">
       <use xlink:href="#DejaVuSans-48"/>
       <use x="63.623047" xlink:href="#DejaVuSans-46"/>
       <use x="95.410156" xlink:href="#DejaVuSans-48"/>
       <use x="159.033203" xlink:href="#DejaVuSans-49"/>
       <use x="222.65625" xlink:href="#DejaVuSans-48"/>
      </g>
     </g>
    </g>
    <g id="text_13">
     <!-- Prob. Density (a.u.) -->
     <defs>
      <path d="M 19.671875 64.796875 
L 19.671875 37.40625 
L 32.078125 37.40625 
Q 38.96875 37.40625 42.71875 40.96875 
Q 46.484375 44.53125 46.484375 51.125 
Q 46.484375 57.671875 42.71875 61.234375 
Q 38.96875 64.796875 32.078125 64.796875 
z
M 9.8125 72.90625 
L 32.078125 72.90625 
Q 44.34375 72.90625 50.609375 67.359375 
Q 56.890625 61.8125 56.890625 51.125 
Q 56.890625 40.328125 50.609375 34.8125 
Q 44.34375 29.296875 32.078125 29.296875 
L 19.671875 29.296875 
L 19.671875 0 
L 9.8125 0 
z
" id="DejaVuSans-80"/>
      <path d="M 41.109375 46.296875 
Q 39.59375 47.171875 37.8125 47.578125 
Q 36.03125 48 33.890625 48 
Q 26.265625 48 22.1875 43.046875 
Q 18.109375 38.09375 18.109375 28.8125 
L 18.109375 0 
L 9.078125 0 
L 9.078125 54.6875 
L 18.109375 54.6875 
L 18.109375 46.1875 
Q 20.953125 51.171875 25.484375 53.578125 
Q 30.03125 56 36.53125 56 
Q 37.453125 56 38.578125 55.875 
Q 39.703125 55.765625 41.0625 55.515625 
z
" id="DejaVuSans-114"/>
      <path d="M 30.609375 48.390625 
Q 23.390625 48.390625 19.1875 42.75 
Q 14.984375 37.109375 14.984375 27.296875 
Q 14.984375 17.484375 19.15625 11.84375 
Q 23.34375 6.203125 30.609375 6.203125 
Q 37.796875 6.203125 41.984375 11.859375 
Q 46.1875 17.53125 46.1875 27.296875 
Q 46.1875 37.015625 41.984375 42.703125 
Q 37.796875 48.390625 30.609375 48.390625 
z
M 30.609375 56 
Q 42.328125 56 49.015625 48.375 
Q 55.71875 40.765625 55.71875 27.296875 
Q 55.71875 13.875 49.015625 6.21875 
Q 42.328125 -1.421875 30.609375 -1.421875 
Q 18.84375 -1.421875 12.171875 6.21875 
Q 5.515625 13.875 5.515625 27.296875 
Q 5.515625 40.765625 12.171875 48.375 
Q 18.84375 56 30.609375 56 
z
" id="DejaVuSans-111"/>
      <path id="DejaVuSans-32"/>
      <path d="M 19.671875 64.796875 
L 19.671875 8.109375 
L 31.59375 8.109375 
Q 46.6875 8.109375 53.6875 14.9375 
Q 60.6875 21.78125 60.6875 36.53125 
Q 60.6875 51.171875 53.6875 57.984375 
Q 46.6875 64.796875 31.59375 64.796875 
z
M 9.8125 72.90625 
L 30.078125 72.90625 
Q 51.265625 72.90625 61.171875 64.09375 
Q 71.09375 55.28125 71.09375 36.53125 
Q 71.09375 17.671875 61.125 8.828125 
Q 51.171875 0 30.078125 0 
L 9.8125 0 
z
" id="DejaVuSans-68"/>
      <path d="M 56.203125 29.59375 
L 56.203125 25.203125 
L 14.890625 25.203125 
Q 15.484375 15.921875 20.484375 11.0625 
Q 25.484375 6.203125 34.421875 6.203125 
Q 39.59375 6.203125 44.453125 7.46875 
Q 49.3125 8.734375 54.109375 11.28125 
L 54.109375 2.78125 
Q 49.265625 0.734375 44.1875 -0.34375 
Q 39.109375 -1.421875 33.890625 -1.421875 
Q 20.796875 -1.421875 13.15625 6.1875 
Q 5.515625 13.8125 5.515625 26.8125 
Q 5.515625 40.234375 12.765625 48.109375 
Q 20.015625 56 32.328125 56 
Q 43.359375 56 49.78125 48.890625 
Q 56.203125 41.796875 56.203125 29.59375 
z
M 47.21875 32.234375 
Q 47.125 39.59375 43.09375 43.984375 
Q 39.0625 48.390625 32.421875 48.390625 
Q 24.90625 48.390625 20.390625 44.140625 
Q 15.875 39.890625 15.1875 32.171875 
z
" id="DejaVuSans-101"/>
      <path d="M 44.28125 53.078125 
L 44.28125 44.578125 
Q 40.484375 46.53125 36.375 47.5 
Q 32.28125 48.484375 27.875 48.484375 
Q 21.1875 48.484375 17.84375 46.4375 
Q 14.5 44.390625 14.5 40.28125 
Q 14.5 37.15625 16.890625 35.375 
Q 19.28125 33.59375 26.515625 31.984375 
L 29.59375 31.296875 
Q 39.15625 29.25 43.1875 25.515625 
Q 47.21875 21.78125 47.21875 15.09375 
Q 47.21875 7.46875 41.1875 3.015625 
Q 35.15625 -1.421875 24.609375 -1.421875 
Q 20.21875 -1.421875 15.453125 -0.5625 
Q 10.6875 0.296875 5.421875 2 
L 5.421875 11.28125 
Q 10.40625 8.6875 15.234375 7.390625 
Q 20.0625 6.109375 24.8125 6.109375 
Q 31.15625 6.109375 34.5625 8.28125 
Q 37.984375 10.453125 37.984375 14.40625 
Q 37.984375 18.0625 35.515625 20.015625 
Q 33.0625 21.96875 24.703125 23.78125 
L 21.578125 24.515625 
Q 13.234375 26.265625 9.515625 29.90625 
Q 5.8125 33.546875 5.8125 39.890625 
Q 5.8125 47.609375 11.28125 51.796875 
Q 16.75 56 26.8125 56 
Q 31.78125 56 36.171875 55.265625 
Q 40.578125 54.546875 44.28125 53.078125 
z
" id="DejaVuSans-115"/>
      <path d="M 9.421875 54.6875 
L 18.40625 54.6875 
L 18.40625 0 
L 9.421875 0 
z
M 9.421875 75.984375 
L 18.40625 75.984375 
L 18.40625 64.59375 
L 9.421875 64.59375 
z
" id="DejaVuSans-105"/>
      <path d="M 32.171875 -5.078125 
Q 28.375 -14.84375 24.75 -17.8125 
Q 21.140625 -20.796875 15.09375 -20.796875 
L 7.90625 -20.796875 
L 7.90625 -13.28125 
L 13.1875 -13.28125 
Q 16.890625 -13.28125 18.9375 -11.515625 
Q 21 -9.765625 23.484375 -3.21875 
L 25.09375 0.875 
L 2.984375 54.6875 
L 12.5 54.6875 
L 29.59375 11.921875 
L 46.6875 54.6875 
L 56.203125 54.6875 
z
" id="DejaVuSans-121"/>
      <path d="M 31 75.875 
Q 24.46875 64.65625 21.28125 53.65625 
Q 18.109375 42.671875 18.109375 31.390625 
Q 18.109375 20.125 21.3125 9.0625 
Q 24.515625 -2 31 -13.1875 
L 23.1875 -13.1875 
Q 15.875 -1.703125 12.234375 9.375 
Q 8.59375 20.453125 8.59375 31.390625 
Q 8.59375 42.28125 12.203125 53.3125 
Q 15.828125 64.359375 23.1875 75.875 
z
" id="DejaVuSans-40"/>
      <path d="M 34.28125 27.484375 
Q 23.390625 27.484375 19.1875 25 
Q 14.984375 22.515625 14.984375 16.5 
Q 14.984375 11.71875 18.140625 8.90625 
Q 21.296875 6.109375 26.703125 6.109375 
Q 34.1875 6.109375 38.703125 11.40625 
Q 43.21875 16.703125 43.21875 25.484375 
L 43.21875 27.484375 
z
M 52.203125 31.203125 
L 52.203125 0 
L 43.21875 0 
L 43.21875 8.296875 
Q 40.140625 3.328125 35.546875 0.953125 
Q 30.953125 -1.421875 24.3125 -1.421875 
Q 15.921875 -1.421875 10.953125 3.296875 
Q 6 8.015625 6 15.921875 
Q 6 25.140625 12.171875 29.828125 
Q 18.359375 34.515625 30.609375 34.515625 
L 43.21875 34.515625 
L 43.21875 35.40625 
Q 43.21875 41.609375 39.140625 45 
Q 35.0625 48.390625 27.6875 48.390625 
Q 23 48.390625 18.546875 47.265625 
Q 14.109375 46.140625 10.015625 43.890625 
L 10.015625 52.203125 
Q 14.9375 54.109375 19.578125 55.046875 
Q 24.21875 56 28.609375 56 
Q 40.484375 56 46.34375 49.84375 
Q 52.203125 43.703125 52.203125 31.203125 
z
" id="DejaVuSans-97"/>
      <path d="M 8.5 21.578125 
L 8.5 54.6875 
L 17.484375 54.6875 
L 17.484375 21.921875 
Q 17.484375 14.15625 20.5 10.265625 
Q 23.53125 6.390625 29.59375 6.390625 
Q 36.859375 6.390625 41.078125 11.03125 
Q 45.3125 15.671875 45.3125 23.6875 
L 45.3125 54.6875 
L 54.296875 54.6875 
L 54.296875 0 
L 45.3125 0 
L 45.3125 8.40625 
Q 42.046875 3.421875 37.71875 1 
Q 33.40625 -1.421875 27.6875 -1.421875 
Q 18.265625 -1.421875 13.375 4.4375 
Q 8.5 10.296875 8.5 21.578125 
z
M 31.109375 56 
z
" id="DejaVuSans-117"/>
      <path d="M 8.015625 75.875 
L 15.828125 75.875 
Q 23.140625 64.359375 26.78125 53.3125 
Q 30.421875 42.28125 30.421875 31.390625 
Q 30.421875 20.453125 26.78125 9.375 
Q 23.140625 -1.703125 15.828125 -13.1875 
L 8.015625 -13.1875 
Q 14.5 -2 17.703125 9.0625 
Q 20.90625 20.125 20.90625 31.390625 
Q 20.90625 42.671875 17.703125 53.65625 
Q 14.5 64.65625 8.015625 75.875 
z
" id="DejaVuSans-41"/>
     </defs>
     <g transform="translate(15.892187 222.917844)rotate(-90)scale(0.1 -0.1)">
      <use xlink:href="#DejaVuSans-80"/>
      <use x="60.287109" xlink:href="#DejaVuSans-114"/>
      <use x="101.369141" xlink:href="#DejaVuSans-111"/>
      <use x="162.550781" xlink:href="#DejaVuSans-98"/>
      <use x="226.027344" xlink:href="#DejaVuSans-46"/>
      <use x="257.814453" xlink:href="#DejaVuSans-32"/>
      <use x="289.601562" xlink:href="#DejaVuSans-68"/>
      <use x="366.603516" xlink:href="#DejaVuSans-101"/>
      <use x="428.126953" xlink:href="#DejaVuSans-110"/>
      <use x="491.505859" xlink:href="#DejaVuSans-115"/>
      <use x="543.605469" xlink:href="#DejaVuSans-105"/>
      <use x="571.388672" xlink:href="#DejaVuSans-116"/>
      <use x="610.597656" xlink:href="#DejaVuSans-121"/>
      <use x="669.777344" xlink:href="#DejaVuSans-32"/>
      <use x="701.564453" xlink:href="#DejaVuSans-40"/>
      <use x="740.578125" xlink:href="#DejaVuSans-97"/>
      <use x="801.857422" xlink:href="#DejaVuSans-46"/>
      <use x="833.644531" xlink:href="#DejaVuSans-117"/>
      <use x="897.023438" xlink:href="#DejaVuSans-46"/>
      <use x="928.810547" xlink:href="#DejaVuSans-41"/>
     </g>
    </g>
   </g>
   <g id="patch_9">
    <path d="M 57.6 307.584 
L 57.6 41.472 
" style="fill:none;stroke:#000000;stroke-linecap:square;stroke-linejoin:miter;stroke-width:0.8;"/>
   </g>
   <g id="patch_10">
    <path d="M 414.72 307.584 
L 414.72 41.472 
" style="fill:none;stroke:#000000;stroke-linecap:square;stroke-linejoin:miter;stroke-width:0.8;"/>
   </g>
   <g id="patch_11">
    <path d="M 57.6 307.584 
L 414.72 307.584 
" style="fill:none;stroke:#000000;stroke-linecap:square;stroke-linejoin:miter;stroke-width:0.8;"/>
   </g>
   <g id="patch_12">
    <path d="M 57.6 41.472 
L 414.72 41.472 
" style="fill:none;stroke:#000000;stroke-linecap:square;stroke-linejoin:miter;stroke-width:0.8;"/>
   </g>
   <g id="legend_1">
    <g id="patch_13">
     <path d="M 325.405938 137.54075 
L 407.72 137.54075 
Q 409.72 137.54075 409.72 135.54075 
L 409.72 48.472 
Q 409.72 46.472 407.72 46.472 
L 325.405938 46.472 
Q 323.405938 46.472 323.405938 48.472 
L 323.405938 135.54075 
Q 323.405938 137.54075 325.405938 137.54075 
z
" style="fill:#ffffff;opacity:0.8;stroke:#cccccc;stroke-linejoin:miter;"/>
    </g>
    <g id="patch_14">
     <path d="M 327.405938 58.070438 
L 347.405938 58.070438 
L 347.405938 51.070438 
L 327.405938 51.070438 
z
" style="fill:none;stroke:#1f77b4;stroke-linejoin:miter;"/>
    </g>
    <g id="text_14">
     <!-- quark -->
     <defs>
      <path d="M 14.796875 27.296875 
Q 14.796875 17.390625 18.875 11.75 
Q 22.953125 6.109375 30.078125 6.109375 
Q 37.203125 6.109375 41.296875 11.75 
Q 45.40625 17.390625 45.40625 27.296875 
Q 45.40625 37.203125 41.296875 42.84375 
Q 37.203125 48.484375 30.078125 48.484375 
Q 22.953125 48.484375 18.875 42.84375 
Q 14.796875 37.203125 14.796875 27.296875 
z
M 45.40625 8.203125 
Q 42.578125 3.328125 38.25 0.953125 
Q 33.9375 -1.421875 27.875 -1.421875 
Q 17.96875 -1.421875 11.734375 6.484375 
Q 5.515625 14.40625 5.515625 27.296875 
Q 5.515625 40.1875 11.734375 48.09375 
Q 17.96875 56 27.875 56 
Q 33.9375 56 38.25 53.625 
Q 42.578125 51.265625 45.40625 46.390625 
L 45.40625 54.6875 
L 54.390625 54.6875 
L 54.390625 -20.796875 
L 45.40625 -20.796875 
z
" id="DejaVuSans-113"/>
      <path d="M 9.078125 75.984375 
L 18.109375 75.984375 
L 18.109375 31.109375 
L 44.921875 54.6875 
L 56.390625 54.6875 
L 27.390625 29.109375 
L 57.625 0 
L 45.90625 0 
L 18.109375 26.703125 
L 18.109375 0 
L 9.078125 0 
z
" id="DejaVuSans-107"/>
     </defs>
     <g transform="translate(355.405938 58.070438)scale(0.1 -0.1)">
      <use xlink:href="#DejaVuSans-113"/>
      <use x="63.476562" xlink:href="#DejaVuSans-117"/>
      <use x="126.855469" xlink:href="#DejaVuSans-97"/>
      <use x="188.134766" xlink:href="#DejaVuSans-114"/>
      <use x="229.248047" xlink:href="#DejaVuSans-107"/>
     </g>
    </g>
    <g id="patch_15">
     <path d="M 327.405938 72.748563 
L 347.405938 72.748563 
L 347.405938 65.748563 
L 327.405938 65.748563 
z
" style="fill:none;stroke:#ff7f0e;stroke-linejoin:miter;"/>
    </g>
    <g id="text_15">
     <!-- gluon -->
     <defs>
      <path d="M 45.40625 27.984375 
Q 45.40625 37.75 41.375 43.109375 
Q 37.359375 48.484375 30.078125 48.484375 
Q 22.859375 48.484375 18.828125 43.109375 
Q 14.796875 37.75 14.796875 27.984375 
Q 14.796875 18.265625 18.828125 12.890625 
Q 22.859375 7.515625 30.078125 7.515625 
Q 37.359375 7.515625 41.375 12.890625 
Q 45.40625 18.265625 45.40625 27.984375 
z
M 54.390625 6.78125 
Q 54.390625 -7.171875 48.1875 -13.984375 
Q 42 -20.796875 29.203125 -20.796875 
Q 24.46875 -20.796875 20.265625 -20.09375 
Q 16.0625 -19.390625 12.109375 -17.921875 
L 12.109375 -9.1875 
Q 16.0625 -11.328125 19.921875 -12.34375 
Q 23.78125 -13.375 27.78125 -13.375 
Q 36.625 -13.375 41.015625 -8.765625 
Q 45.40625 -4.15625 45.40625 5.171875 
L 45.40625 9.625 
Q 42.625 4.78125 38.28125 2.390625 
Q 33.9375 0 27.875 0 
Q 17.828125 0 11.671875 7.65625 
Q 5.515625 15.328125 5.515625 27.984375 
Q 5.515625 40.671875 11.671875 48.328125 
Q 17.828125 56 27.875 56 
Q 33.9375 56 38.28125 53.609375 
Q 42.625 51.21875 45.40625 46.390625 
L 45.40625 54.6875 
L 54.390625 54.6875 
z
" id="DejaVuSans-103"/>
      <path d="M 9.421875 75.984375 
L 18.40625 75.984375 
L 18.40625 0 
L 9.421875 0 
z
" id="DejaVuSans-108"/>
     </defs>
     <g transform="translate(355.405938 72.748563)scale(0.1 -0.1)">
      <use xlink:href="#DejaVuSans-103"/>
      <use x="63.476562" xlink:href="#DejaVuSans-108"/>
      <use x="91.259766" xlink:href="#DejaVuSans-117"/>
      <use x="154.638672" xlink:href="#DejaVuSans-111"/>
      <use x="215.820312" xlink:href="#DejaVuSans-110"/>
     </g>
    </g>
    <g id="patch_16">
     <path d="M 327.405938 87.426688 
L 347.405938 87.426688 
L 347.405938 80.426688 
L 327.405938 80.426688 
z
" style="fill:none;stroke:#2ca02c;stroke-linejoin:miter;"/>
    </g>
    <g id="text_16">
     <!-- W -->
     <defs>
      <path d="M 3.328125 72.90625 
L 13.28125 72.90625 
L 28.609375 11.28125 
L 43.890625 72.90625 
L 54.984375 72.90625 
L 70.3125 11.28125 
L 85.59375 72.90625 
L 95.609375 72.90625 
L 77.296875 0 
L 64.890625 0 
L 49.515625 63.28125 
L 33.984375 0 
L 21.578125 0 
z
" id="DejaVuSans-87"/>
     </defs>
     <g transform="translate(355.405938 87.426688)scale(0.1 -0.1)">
      <use xlink:href="#DejaVuSans-87"/>
     </g>
    </g>
    <g id="patch_17">
     <path d="M 327.405938 102.104813 
L 347.405938 102.104813 
L 347.405938 95.104813 
L 327.405938 95.104813 
z
" style="fill:none;stroke:#d62728;stroke-linejoin:miter;"/>
    </g>
    <g id="text_17">
     <!-- Z -->
     <defs>
      <path d="M 5.609375 72.90625 
L 62.890625 72.90625 
L 62.890625 65.375 
L 16.796875 8.296875 
L 64.015625 8.296875 
L 64.015625 0 
L 4.5 0 
L 4.5 7.515625 
L 50.59375 64.59375 
L 5.609375 64.59375 
z
" id="DejaVuSans-90"/>
     </defs>
     <g transform="translate(355.405938 102.104813)scale(0.1 -0.1)">
      <use xlink:href="#DejaVuSans-90"/>
     </g>
    </g>
    <g id="patch_18">
     <path d="M 327.405938 116.782938 
L 347.405938 116.782938 
L 347.405938 109.782938 
L 327.405938 109.782938 
z
" style="fill:none;stroke:#9467bd;stroke-linejoin:miter;"/>
    </g>
    <g id="text_18">
     <!-- top -->
     <defs>
      <path d="M 18.109375 8.203125 
L 18.109375 -20.796875 
L 9.078125 -20.796875 
L 9.078125 54.6875 
L 18.109375 54.6875 
L 18.109375 46.390625 
Q 20.953125 51.265625 25.265625 53.625 
Q 29.59375 56 35.59375 56 
Q 45.5625 56 51.78125 48.09375 
Q 58.015625 40.1875 58.015625 27.296875 
Q 58.015625 14.40625 51.78125 6.484375 
Q 45.5625 -1.421875 35.59375 -1.421875 
Q 29.59375 -1.421875 25.265625 0.953125 
Q 20.953125 3.328125 18.109375 8.203125 
z
M 48.6875 27.296875 
Q 48.6875 37.203125 44.609375 42.84375 
Q 40.53125 48.484375 33.40625 48.484375 
Q 26.265625 48.484375 22.1875 42.84375 
Q 18.109375 37.203125 18.109375 27.296875 
Q 18.109375 17.390625 22.1875 11.75 
Q 26.265625 6.109375 33.40625 6.109375 
Q 40.53125 6.109375 44.609375 11.75 
Q 48.6875 17.390625 48.6875 27.296875 
z
" id="DejaVuSans-112"/>
     </defs>
     <g transform="translate(355.405938 116.782938)scale(0.1 -0.1)">
      <use xlink:href="#DejaVuSans-116"/>
      <use x="39.208984" xlink:href="#DejaVuSans-111"/>
      <use x="100.390625" xlink:href="#DejaVuSans-112"/>
     </g>
    </g>
    <g id="patch_19">
     <path d="M 327.405938 131.461063 
L 347.405938 131.461063 
L 347.405938 124.461063 
L 327.405938 124.461063 
z
" style="fill:none;stroke:#000000;stroke-linejoin:miter;"/>
    </g>
    <g id="text_19">
     <!-- undefined -->
     <defs>
      <path d="M 37.109375 75.984375 
L 37.109375 68.5 
L 28.515625 68.5 
Q 23.6875 68.5 21.796875 66.546875 
Q 19.921875 64.59375 19.921875 59.515625 
L 19.921875 54.6875 
L 34.71875 54.6875 
L 34.71875 47.703125 
L 19.921875 47.703125 
L 19.921875 0 
L 10.890625 0 
L 10.890625 47.703125 
L 2.296875 47.703125 
L 2.296875 54.6875 
L 10.890625 54.6875 
L 10.890625 58.5 
Q 10.890625 67.625 15.140625 71.796875 
Q 19.390625 75.984375 28.609375 75.984375 
z
" id="DejaVuSans-102"/>
     </defs>
     <g transform="translate(355.405938 131.461063)scale(0.1 -0.1)">
      <use xlink:href="#DejaVuSans-117"/>
      <use x="63.378906" xlink:href="#DejaVuSans-110"/>
      <use x="126.757812" xlink:href="#DejaVuSans-100"/>
      <use x="190.234375" xlink:href="#DejaVuSans-101"/>
      <use x="251.757812" xlink:href="#DejaVuSans-102"/>
      <use x="286.962891" xlink:href="#DejaVuSans-105"/>
      <use x="314.746094" xlink:href="#DejaVuSans-110"/>
      <use x="378.125" xlink:href="#DejaVuSans-101"/>
      <use x="439.648438" xlink:href="#DejaVuSans-100"/>
     </g>
    </g>
   </g>
  </g>
 </g>
 <defs>
  <clipPath id="p6798ed8599">
   <rect height="266.112" width="357.12" x="57.6" y="41.472"/>
  </clipPath>
 </defs>
</svg>
